<?xml version="1.0" encoding="UTF-8"?>
<svg id="a" data-name="b1.25" xmlns="http://www.w3.org/2000/svg" width="612" height="792" viewBox="0 0 612 792">
  <defs>
    <style>
      .b {
        fill: #0d0e0e;
      }
    </style>
  </defs>
  <path class="b" d="M257.27,388.3c-.44.56-.35.58-.57,1.13-.06.16.05.38,0,.57-.1.35-.94.77-.56,1.7.53.13.52-.56.56-.57.16-.05.37.03.57,0s.39.04.57,0,.39.04.57,0c.19-.05.41.06.57,0,.31-.12.42-.48.57-.57.21-.13.38-.39.57-.57s.38-.38.57-.57c.1-.1.44-.04.56-.28,0-.21-.49-.19-.56-.28-.3-.39-.44-1.15-1.13-1.13l-.57,1.13c-.05.14.02.37,0,.57-.14-.03-.43-.03-.57,0v-.57c-.04-.18.05-.39,0-.57-.11-.37.03-.56-.57-.57-.63,0-.44.41-.57.57Z"/>
  <path class="b" d="M257.83,383.2c.04.19-.06.42,0,.57.31.82.91,1.57,1.13.57.04-.16-.01-.37,0-.57h1.13c.18.19.44.39.57.57.15.22.41.37.57.57.14.18-.33.71.57,1.13.14.07.39-.06.57,0s.4-.06.57,0v.57c.02.4.23.47.57.57.14.04.41.02.57,0,.28-.03.56.04.84,0l.29-.56c.42.16,1.07.55,1.13.57l-.56.28c0,.33.35.25.56.28.35.06.77-.04,1.13,0-.08.41-.05,1.25,0,1.7h-1.13c-.07-.86.32-1.39-.85-1.14-.62.13-.12.82-.29,1.14-.1.18-.47.35-.57.57-.19-.01-.38.02-.57,0,.03-.37-.05-.78,0-1.13.09-.57,1.36-1.42-.28-1.14-.53.09-.26.66-.29,1.14-.19.04-.49-.07-.57,0l-.56.29v.56l.56.29c.18.03.39-.04.57,0,.17.04.37-.02.57,0-.04.55,0,1.14,0,1.7-.12.18-.57.01-.57.57,0,.6.41.41.57.57.02.2-.05.41,0,.57.11.35-.03.58.57.57,1.24-.03.11-.45,0-.57-.19-.19-.38-.38-.57-.57-.02-.19,0-.38,0-.57h1.7c.19,0,.38,0,.57,0s.38.01.57,0,.38.02.57,0c-.13.24-.3.48-.57.57-.19.06-.45-.08-.57,0-1.17.79-.54.92,0,1.7.16.23.26.48.57.57h.57c.2.57,1.01,1.17,1.13,1.7.04.16.01.4,0,.57-.02.33-.54,1.02-.57,1.7,0,.19,0,.38,0,.57-1.35,1.24-1.44-.8-2.27-1.13v-.57c-.05-.19.07-.43,0-.57-.38-.79-.52-.42-1.13-.57-.18-.04-.38.04-.57,0s-.39.04-.57,0-.39.05-.57,0c-.29-.08-.87-.38-1.13-.57-.18-.13-.34-.4-.57-.57-.26-.19-.29-.88-1.13-1.13-.13-.04-.43-.03-.57,0-.06-.3-.28-.51-.57-.57-.17-.04-.37.02-.57,0s-.39.03-.57,0-.38.03-.57,0-.38.03-.57,0c-.14-.02-.39-.55-.57-.57-.19-.02-.38.02-.57,0-.37-.03-.76.02-1.13,0-.19-.01-.38,0-.57,0s-.38-.01-.57,0c-.18-.45-.12-.38-.57-.57-.11-.04-.39-.01-.57,0-.2.01-.45-.05-.57,0-.23.1-.44.53-.57.57-.19.05-.41-.06-.57,0-.17.07-.42-.07-.57,0-.3.14-.39.38-.57.57s-.42.34-.57.57h-.57c-.19,0-.38-.02-.57,0s-.38-.03-.57,0c-.16-.39-.07-.43-.57-.57-.15-.04-.37,0-.57,0,.06-.24.04-1.09,0-1.13l-.29-.56h-.56l-.29.56c-.21.05-1.55.86-1.7,1.13-.05.09,0,.37,0,.57-.29.23-.96.36-1.13.57-.51.62-.35.61-.57,1.13s-.32,1.1-.57,1.7l-.81.06c-.31.06-.24.31-.32.51-.04.1-.02.4,0,.57.07.59.21.73.57,1.13v.57c.12.37.5.79.57,1.13.04.19-.05.4,0,.57.05.17-.05.4,0,.57s-.06.41,0,.57c.11.29.38.39.57.57-.03.12-.03.45,0,.57.11.38.53.48.57.57.11.25.51.43.57.57s-.03.37,0,.57c.02.17.02.39,0,.57-.04.37.09.86,0,1.13s-.95.85-1.13,1.7h-.57c-.18-.03-.39.04-.57,0-.19-.04-.42.06-.57,0-.05-.18.05-.4,0-.57-.18-.58-.57-.94-1.13-1.13-.26-.57-.39-1.37-.57-1.7-.13-.24-.41-.38-.57-.57-.07-.17.08-.45,0-.57-.17-.25-.53-.47-.57-.57-.03-.2.05-.41,0-.57-.06-.18.06-.41,0-.57-.2-.47-.32-.38-.57-.57-.05-.56.03-1.14,0-1.7-.01-.19.01-.38,0-.57-.02-.38.02-.76,0-1.13s.04-.77,0-1.13c-.02-.19.04-.39,0-.57-.14-.72-.05-.61-.57-1.13-.47-.47-.31-.52-1.13-.57l-.29-.56c-.16.15-.18.51-.28.56-.16.07-.42-.07-.57,0-.23.12-.42.35-.57.57-.19.02-.38-.02-.57,0-.37.04-.8-.07-1.13,0-.18.04-.39-.04-.57,0-.2.05-.41.52-.57.57-.18.05-.41-.06-.57,0-.79.29-1.79.16-2.27,1.13-.57.02-1.14-.01-1.7,0-.22.16-.38.38-.57.57s-.4.46-.57.57c-.24.16-.39.44-.57.57-.26.19-1.52-.51-1.13,1.13-.19.01-.38-.02-.57,0s-.38-.02-.57,0c-.95.1-1.61.56-1.7.57-.19.02-.38-.02-.57,0s-.38-.02-.57,0-.38-.02-.57,0-.38-.02-.57,0-.38-.01-.57,0-.38-.02-.57,0c-.43.05-.96-.12-1.42,0-.53.14-.71.51-.85.56-.56.04-1.15-.06-1.7,0,0-.56-.66-.96-1.13-1.13-.12-.04-.39-.01-.57,0-.01-.19.01-.38,0-.57s.02-.38,0-.57c-.06-.66-.53-.99-.57-1.13-.04-.18.03-.38,0-.57l.57-.57c.19.05.44-.07.57,0,.37.21,1.2,2.52,1.7.57.04-.15,0-.38,0-.57s.03-.39,0-.57c.47-.05,1.42.18,1.67-.04.19-.16,0-.78.03-1.09.16.04.37-.03.57,0,.56.5,1.25.81,1.16,1.69.43.12.45-.53.54-.56.17-.05.38.04.57,0s.41.05.57,0c.18-.06.41.06.57,0,.29-.12.46-.26.57-.57.18-.04.4.05.57,0,.39-.12.5.04.57-.57.1-.85-.5-.96-.57-1.13-.12-.34-.57-.84-.57-1.13.19.02.39-.03.57,0,.03,0,.09.57.28.56.36-.1.23-.35.29-.56.06-.22.06-.91,0-1.13h1.13c.06.18-.07.43,0,.57.36.73.89.42,1.13.57.18.11.34.48.57.57.16.06.39-.05.57,0,.17.05.38-.05.57,0s.39-.04.57,0c.06.01.34.85,1.13.57.08-.35-.1-.87,0-1.13.03-.08.55-.23.57-.57.02-.59-.22-.46-.57-.57v-1.13h1.7c.08.55-.26,1.09.57,1.13.68.03.47-.39.57-.57.18.04.39-.05.57,0,.37.11.8.51,1.13.57.16.03.4.02.57,0,.19-.03.44-.54.57-.57.15-.03.42-.03.57,0,.11.02.48.48,1.13.57.16.02.42.03.57,0,.73-.17.76-.52,0-.57.17-.17.48-.42.57-.57.1-.17.43-.31.57-.57.12.04.38,0,.57,0,.2,0,.46.05.57,0,.73-.36.42-.89.57-1.13.11-.18.5-.35.57-.57.05-.17-.05-.39,0-.57s-.04-.39,0-.57h1.13c.04.19-.05.42,0,.57.13.35.37.39.57.57.34.29.23.71,1.13.57.48-.08.43-.44.57-.57.19-.18.43-.24.57-.57.07-.16-.07-.42,0-.57.16.05.38-.03.57,0,.34.06.76-.03,1.13,0,.16.37.32.38.57.57.1.08.38-.06.57,0,.51.16.04.89,1.13,0,.21-.17.42-.17.57-.57.18.04.39-.04.57,0,.34.08.81-.08,1.13,0,.04,0,.11.63.57.57-.06.24-.05.86,0,1.13.04.21-.05.53.28.55l.85-.55h.57c.13.29.12.56.57.57h.57c-.05.45.13.58.57.57,1.23-.03.02-.51,0-.57-.04-.12-.03-.45,0-.57s.47-.33.57-.57c.15.06.38-.05.57,0s.41-.06.57,0c.03.17.02.4,0,.57-.02.19.04.4,0,.57-.02.09-.4.13-.56.28l.56.28c.57.07.46-.24.57-.57.03-.11.04-.46,0-.57-.15-.47-.11-.38-.57-.57-.11-.66.19-.78-.57-1.13v-.57h.57c.02.41.45.45.57.57.09.09.05.5.27.51.11-.15.29-.32.29-.51.18,0,.46.04.57,0,.2-.08.39-.39.57-.57,1.25-1.24.88-2.33,1.13-3.97.03-.18-.04-.39,0-.57h1.13Z"/>
  <path class="b" d="M283.33,369.03v.57c-.13-.08-.4.07-.57,0-.06-.15.04-.38,0-.57s.05-.4,0-.57h.57c.02.18,0,.38,0,.57Z"/>
  <path class="b" d="M427.83,361.67c-.16-.04-.37.02-.57,0-.07-.15.05-.39,0-.57.19-.02.38.03.57,0-.05.13.03.37,0,.57Z"/>
  <path class="b" d="M279.93,368.47c-.02.19.03.38,0,.57-.04.2.06.43,0,.57-.21-.17-.87-.5-1.13-.57v-.57c.16.06.39-.05.57,0h.57Z"/>
  <path class="b" d="M434.63,358.83c-.19.02-.39-.04-.57,0v-.57h.57v.57Z"/>
  <path class="b" d="M440.3,356.57c.18.04.38-.02.57,0-.02.18,0,.38,0,.57-.14-.06-.37.04-.57,0-.18-.03-.38.02-.57,0s-.38.01-.57,0v-.57c.18.04.39-.04.57,0s.39-.04.57,0Z"/>
  <path class="b" d="M446.53,354.87c.14.4.09.45.57.57.33.08.81-.08,1.13,0,.17.05.38-.04.57,0,.36.08.82.53,1.13.57.19.02.38-.02.57,0v.57c-.37.03-.79-.06-1.13,0-.14-.45,0-.44-.57-.57-.12-.03-.47-.04-.57,0-.23.1-.44.53-.57.57-.15.04-.37,0-.57,0-.12-.06-.26-.45-.57-.57-.14-.06-.37.04-.57,0-.18-.03-.38.02-.57,0s-.38.01-.57,0v-.57c.37-.11.57.03.57-.57.19-.01.38,0,.57,0s.38.01.57,0Z"/>
  <path class="b" d="M410.83,404.17c-.37.02-.76-.03-1.13,0,.03-.18-.04-.39,0-.57.07-.29.26-.5.57-.57.08.15.87.07.57,1.13Z"/>
  <path class="b" d="M269.73,367.33c.03.19-.05.41,0,.57-.19-.02-.39.04-.57,0-.06-.3-.28-.51-.57-.57.02-.19-.03-.38,0-.57.19.02.38-.01.57,0,.08.29.25.51.57.57Z"/>
  <path class="b" d="M277.1,369.03c-.19-.02-.38.02-.57,0,.05-.14-.03-.37,0-.57.15.06.38-.04.57,0-.02.19.03.38,0,.57Z"/>
  <path class="b" d="M440.3,356h-.57c-.02-.19.03-.38,0-.57.2-.03.43.06.57,0v.57Z"/>
  <path class="b" d="M409.13,414.93v.57c-.19,0-.38,0-.57,0-.38,0-.76.01-1.13,0,.15-.39.41-.75.57-1.13h.57c0,.43.26.44.57.57Z"/>
  <path class="b" d="M450.5,353.73c-.09.19-.49.36-.57.57-.19-.02-.38.01-.57,0,.05-.13-.03-.37,0-.57.47,0,.57-.09.57-.57.19,0,.38,0,.57,0-.07.16.07.42,0,.57Z"/>
  <path class="b" d="M447.1,358.83c-.29-.08-.51-.25-.57-.57.19,0,.38,0,.57,0,.02.18,0,.38,0,.57Z"/>
  <path class="b" d="M431.23,363.37h-.57v-.57c.2.04.43-.06.57,0,.05.19-.07.44,0,.57Z"/>
  <path class="b" d="M428.97,363.93c.19.02.38-.03.57,0-.25.64-.44.85-.57,0Z"/>
  <path class="b" d="M411.4,398.5l.28.56c.38-.1.21-.4.28-.56.18.06.42-.07.57,0,.19.46.1.41.57.57.07.14-.05.38,0,.57-.2.02-.41-.04-.57,0-.29.08-.51.25-.57.57-.19,0-.38,0-.57,0-.16-.1-.31-.42-.57-.57v-1.13c.06,0,.05-.06.57,0Z"/>
  <path class="b" d="M409.7,399.07c-.29.09-.4.4-.57.57l-.57.57h-.57v-1.13c.2-.02.44.05.57,0,.44-.18.38-.12.57-.57.19,0,.38,0,.57,0v.57Z"/>
  <path class="b" d="M409.7,400.2c.71.02,1.06,0,1.7,0,.12.07.1.53.28.57h.56s.29-.57.29-.57c.19,0,.38,0,.57,0s.38,0,.57,0c0,.19.01.38,0,.57s.02.38,0,.57c-.32.12-.4.4-.57.57s-.44.24-.57.57c-.18.02-.38,0-.57,0-.13,0-.54,0-.57,0-.61-.11-1.19-.19-1.7-.57-.36-.43-.33-.89-1.13-1.13v-.57c.19,0,.38-.02.57,0s.38,0,.57,0Z"/>
  <path class="b" d="M410.27,397.37c-.19.02-.38-.01-.57,0v-.57c.19.01.38-.02.57,0v.57Z"/>
  <path class="b" d="M405.73,414.93c-.19,0-.38.02-.57,0v-.57h.57c0,.19,0,.38,0,.57Z"/>
  <path class="b" d="M405.73,413.23c.06.14-.04.37,0,.57h-.57c0-.09-.66-.26,0-.57h.57Z"/>
  <path class="b" d="M383.07,370.73v.57c-.18.04-.4-.05-.57,0s-.38-.04-.57,0v-.57h1.13Z"/>
  <path class="b" d="M274.27,366.77c.17.04.37-.02.57,0s.38-.01.57,0v.57c.05.19-.07.46,0,.57-.16-.05-.38.04-.57,0s-.38.03-.57,0c-.1-.56-.89-1.13-1.13-1.7.19,0,.38,0,.57,0,.06.3.28.51.57.57Z"/>
  <path class="b" d="M286.17,367.9c.02-.19-.04-.4,0-.57.19.02.38-.02.57,0l-.57.57Z"/>
  <path class="b" d="M395.53,370.17c-.19,0-.38,0-.57,0,.03-.16,0-.38,0-.57s0-.38,0-.57l.57,1.13Z"/>
  <path class="b" d="M437.47,356c.04.37,0,.76,0,1.13-.38-.01-.76,0-1.13,0-.19,0-.38,0-.57,0s-.38,0-.57,0c.05-.19-.07-.42,0-.57.19-.02.38.02.57,0,.2-.03.43.05.57,0,.46-.19.41-.1.57-.57.04-.11.04-.46,0-.57.13.05.37-.03.57,0,.03.18-.02.38,0,.57Z"/>
  <path class="b" d="M424.43,363.93c-.05.13.03.37,0,.57h-1.13v-.57h1.13Z"/>
  <path class="b" d="M258.4,413.23h-.57c.02-.19-.02-.38,0-.57h.57v.57Z"/>
  <path class="b" d="M411.4,414.93c.47.19.37.15.57.57-.38,0-.76,0-1.13,0-.19,0-.38,0-.57,0v-.57c.18.03.38-.03.57,0,.2.03.43-.05.57,0Z"/>
  <path class="b" d="M443.7,357.13v.57c-.19,0-.38,0-.57,0s-.38,0-.57,0c.04-.18-.06-.4,0-.57s.49-.35.57-.57c.19.02.38-.02.57,0v.57Z"/>
  <path class="b" d="M400.07,371.3c-.18.03-.38-.03-.57,0,.03-.19-.04-.39,0-.57.19-.02.38.03.57,0-.03.14-.03.43,0,.57Z"/>
  <path class="b" d="M415.37,413.8c.13.37.51.79.57,1.13-.19-.02-.38.02-.57,0s-.39.04-.57,0c-.1-.28-.3-.45-.57-.57v-.57c.24.07.82.03,1.13,0Z"/>
  <path class="b" d="M376.27,373.57c-.37-.11-.57.03-.57-.57.19.02.4-.04.57,0-.03.19.04.4,0,.57Z"/>
  <path class="b" d="M268.03,366.2c-.18.04-.38-.03-.57,0,0-.19,0-.38,0-.57h.57v.57Z"/>
  <path class="b" d="M394.4,371.3h-.57c.19-.41.04-.42.57-.57v.57Z"/>
  <path class="b" d="M275.97,366.2c-.18.03-.38-.02-.57,0v-.57c.2.04.43-.06.57,0,.04.18-.03.38,0,.57Z"/>
  <path class="b" d="M276.53,366.77c-.19,0-.38,0-.57,0-.02-.19.03-.38,0-.57.19-.03.4.04.57,0,.05.13-.03.37,0,.57Z"/>
  <path class="b" d="M407.43,366.77h-.57v-.57c.19-.05.42.07.57,0v.57Z"/>
  <path class="b" d="M432.37,357.13c-.18.03-.38-.03-.57,0,.04-.17-.02-.37,0-.57.19.01.38,0,.57,0-.03.18.01.38,0,.57Z"/>
  <path class="b" d="M432.93,356.57c-.19,0-.38,0-.57,0,.03-.2-.05-.42,0-.57h.57v.57Z"/>
  <path class="b" d="M434.07,354.87c.05.13-.02.37,0,.57-.23-.05-.9-.05-1.13,0v-.57c.19,0,.38,0,.57,0s.38-.01.57,0Z"/>
  <path class="b" d="M422.17,362.23c-.24.11-.4.47-.57.57-.14.07-.39-.07-.57,0,.02-.19-.02-.38,0-.57.29-.06.51-.27.57-.57.18,0,.4-.03.57,0v.57Z"/>
  <path class="b" d="M425,359.97c-.05.19.07.45,0,.57-.19,0-.38,0-.57,0s-.38,0-.57,0v-.57c.19-.01.38.02.57,0s.38,0,.57,0Z"/>
  <path class="b" d="M280.5,371.3c-.18-.1-.57.13-.57-.57.19,0,.38,0,.57,0,.02.17.02.4,0,.57Z"/>
  <path class="b" d="M261.8,369.03c-.05-.2.07-.46,0-.57l.56.28c-.1.38-.39.22-.56.28Z"/>
  <path class="b" d="M260.67,370.73c.19,0,.38,0,.57,0-.04.37.08.83,0,1.13-.2.02-.43-.05-.57,0l-1.13-1.13c.06,0,.19-.31.33-.3.42.03.7.3.8.3Z"/>
  <path class="b" d="M243.67,365.63h-.57v-.57c.18-.04.39.04.57,0-.05.13.02.37,0,.57Z"/>
  <path class="b" d="M222.7,361.1c0,.43.26.44.57.57v.57c-.19-.02-.38.01-.57,0s-.38,0-.57,0c-.16-.22-.37-.38-.57-.57v-.57h1.13Z"/>
  <path class="b" d="M222.7,358.83c.19,0,.38,0,.57,0s.38-.01.57,0c.56.04,1.14-.04,1.7,0,.04,0-.03.53.57.57.19.01.38-.01.57,0s.38,0,.57,0c.38.02.76-.01,1.13,0v.57l-.57.57c-.18-.01-.39-.02-.57,0-.19.02-.38-.02-.57,0-.33.04-.8.52-1.13.57-.18.02-.38,0-.57,0-.36.01-.78.04-1.13,0-.13-.01-.4-.56-.57-.57v-.57c.3.04.84.05,1.13,0,.74-.13.74-.45,0-.57-.51-.08-1.14.04-1.7,0-.19-.01-.38.02-.57,0s-.38.02-.57,0c-.03-.2.05-.43,0-.57.37-.03.76.01,1.13,0Z"/>
  <path class="b" d="M444.83,358.27c.19,0,.38,0,.57,0,0,.19,0,.38,0,.57-.18-.02-.38,0-.57,0h-1.13v-.57c.19,0,.38,0,.57,0s.38,0,.57,0Z"/>
  <path class="b" d="M410.83,369.03h-.57c.01-.18.04-.44,0-.57.18-.04.39.05.57,0,.03.18-.02.38,0,.57Z"/>
  <path class="b" d="M411.4,393.4h-.57c.01-.19-.01-.38,0-.57l.57-.57c.19-.02.38.03.57,0-.06.02-.53.93-.57,1.13Z"/>
  <polygon class="b" points="409.13 394.53 408.57 394.25 409.13 393.97 409.13 394.53"/>
  <path class="b" d="M415.37,369.03c-.19.02-.38-.02-.57,0,.06-.14-.05-.37,0-.57.19-.02.38.03.57,0v.57Z"/>
  <path class="b" d="M409.7,395.1v.57h-1.13c.4-.85.64-.39,1.13-.57Z"/>
  <path class="b" d="M410.27,394.53v.57c-.19.05-.41-.06-.57,0v-1.13h.57v.57Z"/>
  <path class="b" d="M383.07,369.03c-.03-.2.05-.42,0-.57h.57c-.08.22-.36.55-.57.57Z"/>
  <path class="b" d="M371.73,371.87c.09-.04-.09-.48,0-.57l.56.28c0,.36-.55.25-.56.28Z"/>
  <path class="b" d="M380.8,370.17l-.57-.57h.57c-.03.19.04.4,0,.57Z"/>
  <path class="b" d="M380.23,371.3c-.14.07-.38-.05-.57,0,0-.19.05-.45,0-.57h.57v.57Z"/>
  <path class="b" d="M379.67,371.87h-.57c-.02-.18.01-.38,0-.57h.57c0,.2.05.44,0,.57Z"/>
  <path class="b" d="M247.07,365.63c-.18.02-.38,0-.57,0,.02-.17.02-.4,0-.57.29.08.51.25.57.57Z"/>
  <path class="b" d="M253.87,367.9c.17.07.42-.07.57,0-.03.2.06.44,0,.57-.36.05-.76-.04-1.13,0-.17-.41-.21-.38-.57-.57v-.57c.39.17.75.4,1.13.57Z"/>
  <path class="b" d="M269.17,365.07c-.18-.02-.38,0-.57,0,.06-.31.27-.5.57-.57v.57Z"/>
  <path class="b" d="M272.57,365.63l-.57-.57v-.57c.38.26.87.4,1.12.85.02.36-.44.22-.56.28Z"/>
  <path class="b" d="M264.07,366.2c.19.01.38-.02.57,0v.57c-.38,0-.76,0-1.13,0-.2-.18-.41-.35-.57-.57.19.02.38-.02.57,0s.38-.01.57,0Z"/>
  <path class="b" d="M391.57,372.43c-.62.18-.9.55-1.13,1.13-.18.04-.39-.04-.57,0,.12-.39.46-.77.57-1.13.21-.15.4-.38.57-.57.19-.01.4.04.57,0v.57Z"/>
  <path class="b" d="M374.57,374.7c0-.19,0-.38,0-.57v.57Z"/>
  <path class="b" d="M380.8,373c-.19,0-.38.02-.57,0,.02-.19-.02-.38,0-.57l.57.57Z"/>
  <path class="b" d="M397.8,371.87c-.27.09-.41.47-.57.57-.18-.04-.38.03-.57,0v-.57c.45.03.72-.44,1.13-.57v.57Z"/>
  <path class="b" d="M399.5,369.6c-.13.4-.45.77-.57,1.13-.04.12-.48.31-.57.57-.19.03-.41-.05-.57,0v-1.13c.2-.04.43.06.57,0,.48-.2.37-.32.57-.57.09-.12-.09-.46,0-.57.2-.03.42.05.57,0-.03.2.05.42,0,.57Z"/>
  <path class="b" d="M291.27,367.33c.03.18-.05.39,0,.57h-.57c-.05-.19.06-.41,0-.57-.06-.17.06-.4,0-.57h.57v.57Z"/>
  <path class="b" d="M400.07,366.77h-.57c.12-.24.45-.39.57-.57-.02.19.02.38,0,.57Z"/>
  <path class="b" d="M427.83,357.13v.57h-.57c-.19-.04-.49.07-.57,0s.04-.38,0-.57c.18-.03.38.04.57,0s.38.03.57,0Z"/>
  <polygon class="b" points="426.7 357.7 426.42 358.27 426.13 357.98 426.7 357.7"/>
  <path class="b" d="M291.83,370.73c.18.15.32.38.57.57.12.09.45-.09.57,0-.03.19.03.39,0,.57-.2-.03-.42.05-.57,0-.39-.14-.76-.45-1.13-.57-.04-.01.07-.33-.57-.57v-.57c.19,0,.38,0,.57,0,.16.22.36.39.57.57Z"/>
  <path class="b" d="M227.8,362.8v.57h-1.13c.03-.2-.05-.43,0-.57.14.06.37-.04.57,0,.16.03.38,0,.57,0Z"/>
  <path class="b" d="M258.4,370.17c-.18.02-.38,0-.57,0v-.57c.18-.03.38.02.57,0,.05.18-.05.39,0,.57Z"/>
  <polygon class="b" points="253.87 398.5 253.58 399.07 253.3 398.78 253.87 398.5"/>
  <path class="b" d="M255,412.1l1.13,1.13c-.36-.03-.83.08-1.13,0v-1.13Z"/>
  <path class="b" d="M253.3,396.23v.57c-.11-.04-.45-.03-.57,0-.34.1-.63,0-.57.57l.57.57c-.35.02-1.07,0-1.13,0l-.29-.56c-.18.15-.18.51-.28.56-.19.09-.46-.38-.57-.57.64-.19.53-.55.57-.57.46-.21.52-.13,1.13-.57.19.03.38-.03.57,0s.38-.03.57,0Z"/>
  <path class="b" d="M263.5,407h-.57c.06-.29.27-.51.57-.57-.03.2.05.43,0,.57Z"/>
  <path class="b" d="M263.5,410.97c-.17.02-.39.01-.57,0,.13-.31.46-.41.57-.57v.57Z"/>
  <path class="b" d="M264.07,408.13h-.57l.57-.57c-.02.2.05.43,0,.57Z"/>
  <path class="b" d="M261.23,409.83h1.13s0,1.13,0,1.13c-.63-.09-1.06-.56-1.13-.57v-.57Z"/>
  <path class="b" d="M454.47,354.3c0,.19,0,.38,0,.57-.17.04-.37-.02-.57,0s-.38-.01-.57,0c.03-.19-.02-.38,0-.57h1.13Z"/>
  <path class="b" d="M455.6,355.43v.57c-.37.03-.76-.04-1.13,0,.02-.19-.01-.38,0-.57h1.13Z"/>
  <path class="b" d="M443.13,360.53v.57c-.38.02-.76-.02-1.13,0-.03-.13-.04-.47,0-.57h1.13Z"/>
  <path class="b" d="M440.3,362.23c-.16-.04-.37.02-.57,0v-.57c.19-.01.38.01.57,0v.57Z"/>
  <path class="b" d="M403.47,397.37h-.57c-.01-.2.04-.41,0-.57h.57v.57Z"/>
  <path class="b" d="M413.67,393.97c-.15.04-.38.53-.57.57-.17.03-.39,0-.57,0-.19,0-.46.05-.57,0-.14-.06-.52-.43-.57-.57h.57l.57-.57h.57c.16.22.35.41.57.57Z"/>
  <path class="b" d="M418.2,414.37h.57v.57c-.19,0-.38,0-.57,0s-.38,0-.57,0-.38,0-.57,0-.38.01-.57,0c.03-.2-.05-.42,0-.57h1.7Z"/>
  <path class="b" d="M449.37,397.93c-.17-.17-.45-.25-.57-.57h.57v.57Z"/>
  <path class="b" d="M391.57,370.17c-.03.19.04.39,0,.57-.19.05-.43-.06-.57,0-.23.1-.43.52-.57.57-.15.05-.37-.03-.57,0,.01-.19-.02-.38,0-.57.29-.08.51-.25.57-.57.19-.01.38,0,.57,0s.38,0,.57,0Z"/>
  <path class="b" d="M392.13,369.03h-.57c0-.19.01-.38,0-.57.18-.01.39-.02.57,0v.57Z"/>
  <path class="b" d="M393.27,367.9l.29.56h.56c.34-.07.22-.48.28-.56.19-.02.38.01.57,0s.38.02.57,0,.38.02.57,0c-.21.57-.87.41-1.13.57-.22.13-.38.44-.57.57-.34.22-.84.34-1.13.57-.02-.2.05-.44,0-.57-.18-.44-.12-.38-.57-.57-.13-.05-.37.03-.57,0v-.57c.18-.03.38.02.57,0s.38.01.57,0Z"/>
  <path class="b" d="M387.03,370.17c-.08.12-.4.19-.57.57h-.57c-.03-.12-.04-.46,0-.57l.57-.57c.15-.07.39.06.57,0v.57Z"/>
  <path class="b" d="M256.7,367.9c.18-.01.38-.01.57,0s.38-.02.57,0,.38-.03.57,0c.12.38.46.76.57,1.13h-.57c-.19-.44-.12-.38-.57-.57-.1-.04-.4-.02-.57,0-.19.02-.39-.03-.57,0l-1.13.57c-.19.05-.53-.07-.57,0-.01-.2.04-.42,0-.57.19-.04.43-.55.57-.57.18-.03.38.02.57,0s.38.01.57,0Z"/>
  <polygon class="b" points="255.57 367.9 255 367.33 255.57 367.33 255.57 367.9"/>
  <path class="b" d="M241.4,361.67c.17,0,.4-.03.57,0v.57c-.19,0-.38,0-.57,0s-.38,0-.57,0-.38,0-.57,0c.18-.23.2-.41.57-.57.12-.05.37.01.57,0Z"/>
  <path class="b" d="M247.63,360.53l-.57-.57c.19-.02.38.02.57,0v.57Z"/>
  <path class="b" d="M386.47,372.43c.02.2-.05.41,0,.57-.23.09-.38.43-.57.57-.1-.08-.39.07-.57,0,.04-.16-.01-.37,0-.57.01-.18.02-.39,0-.57.45.05.58-.13.57-.57h.57c0,.18-.02.39,0,.57Z"/>
  <path class="b" d="M387.6,371.3v.57c-.18-.02-.38,0-.57,0s-.38,0-.57,0c0-.19-.03-.4,0-.57.15.05.37-.02.57,0,.18.02.38-.01.57,0Z"/>
  <path class="b" d="M377.4,375.83h-.57c-.02-.18,0-.38,0-.57.43,0,.44-.26.57-.57.17-.02.4-.02.57,0-.13.37-.49.78-.57,1.13Z"/>
  <path class="b" d="M382.5,373c-.02.19.04.4,0,.57-.04.19.06.42,0,.57h-.57c-.19-.42-.1-.37-.57-.57v-.57h1.13Z"/>
  <path class="b" d="M399.5,396.23c-.2-.03-.42.05-.57,0,.11-.26.31-.46.57-.57.01.18.02.39,0,.57Z"/>
  <path class="b" d="M446.53,350.9c-.19,0-.38,0-.57,0v-.57c.14.06.37-.04.57,0v.57Z"/>
  <path class="b" d="M448.8,350.9c.19,0,.38,0,.57,0,.18.44.06.42.57.57.12.03.45.03.57,0-.03.2.05.43,0,.57-.19,0-.38,0-.57,0s-.38.02-.57,0c-.38-.79-.52-.42-1.13-.57-.16-.04-.37.02-.57,0-.05-.15.03-.37,0-.57.19,0,.38,0,.57,0s.38,0,.57,0Z"/>
  <path class="b" d="M398.93,365.63v.57c-.08.12-.38.21-.57.57v.57c-.19.05-.46-.07-.57,0l-.57.57c-.16.05-.38-.03-.57,0-.02-.64.41-1.17.57-1.7.29-.08.51-.25.57-.57.19,0,.38.02.57,0s.38.03.57,0Z"/>
  <path class="b" d="M430.1,357.7h-.57c.18-.16.31-.4.57-.57.01.19,0,.38,0,.57Z"/>
  <path class="b" d="M431.23,356.57c-.1.28-.3.45-.57.57-.17.07-.44-.08-.57,0-.01-.19.02-.38,0-.57.33.07.76-.03,1.13,0Z"/>
  <path class="b" d="M430.1,356c.04.17-.02.37,0,.57-.62-.13-.75.19-1.13-.57.19.01.38,0,.57,0s.38,0,.57,0Z"/>
  <path class="b" d="M422.17,360.53c.19,0,.38,0,.57,0s.38,0,.57,0v.57c-.3.07-.77-.01-1.13,0s-.77.03-1.13,0c.01-.19,0-.38,0-.57.38.02.76-.02,1.13,0Z"/>
  <path class="b" d="M286.73,371.87c-.16-.05-.38.03-.57,0-.03-.18.02-.38,0-.57.18.05.4-.05.57,0,.03.19-.04.4,0,.57Z"/>
  <path class="b" d="M286.17,369.6c0,.19,0,.38,0,.57s-.01.38,0,.57-.02.38,0,.57c-.19-.05-.42.06-.57,0-.08-.29-.25-.51-.57-.57-.06-.14.04-.37,0-.57-.03-.18.02-.38,0-.57.18.04.38-.02.57,0s.38,0,.57,0Z"/>
  <path class="b" d="M290.7,373.57h-.57v-.57c.25.14.48.27.57.57Z"/>
  <path class="b" d="M292.4,373c-.11.08-.38-.06-.57,0v-.57c.18.02.38,0,.57,0v.57Z"/>
  <path class="b" d="M272,371.3c.04.17-.02.37,0,.57-.31-.07-.63-.33-.85-.56l-.27.27c.23.22.49.55.56.85.04.17-.02.37,0,.57-.19-.02-.4.04-.57,0-.16-.1-.41-.39-.57-.57,0-.17-.03-.4,0-.57.07-.34.49-.77.57-1.13.18.05.39-.04.57,0,.05.51.23.45.57.57Z"/>
  <path class="b" d="M219.87,361.1c.17.04.37-.02.57,0,.09.43-.22.47-.57.57-.16.04-.37-.02-.57,0-.37.04-.76-.03-1.13,0v-.57c.2-.09.38-.41.57-.57.16.04.37-.02.57,0,.06.3.28.51.57.57Z"/>
  <path class="b" d="M219.3,358.83c.19.01.38-.02.57,0,.04,0,.11.52.57.57.19.02.38-.02.57,0-.05.45.13.57.57.57,0,.19,0,.38,0,.57-.37-.04-.76.01-1.13,0,.08-.42-.21-.49-.57-.57-.32-.07-.77.05-1.13,0-.18-.02-.38.02-.57,0s-.38,0-.57,0v-.57c.44-.18.38-.12.57-.57.19.01.38-.01.57,0s.38-.01.57,0Z"/>
  <path class="b" d="M230.63,359.4c.19,0,.38,0,.57,0s.38,0,.57,0c.04.3.28.53.57.57.35.05.77,0,1.13,0h1.13c-.03.18,0,.38,0,.57-.19,0-.38,0-.57,0s-.38,0-.57,0-.38,0-.57,0c-.38,0-.76.01-1.13,0-.19,0-.38,0-.57,0s-.38.01-.57,0-.38.02-.57,0-.4.04-.57,0v-1.13c.38.01.76-.01,1.13,0Z"/>
  <path class="b" d="M256.13,398.5c.17.04.37-.02.57,0s.38-.02.57,0c-.03.19.02.38,0,.57s.02.38,0,.57c-.13-.03-.44-.03-.57,0-.29.08-.4.43-.57.57-.46.37-.85.4-1.13,1.13-.1.26.06.78,0,1.13-.19,0-.38.01-.57,0-.19-.19-.35-.41-.57-.57.71-.93,1.52-2.9,1.7-3.97.06.3.28.51.57.57Z"/>
  <path class="b" d="M227.23,356.57c-.67-.11-.53.57-.57.57-.56.01-1.14.04-1.7,0-.2-.01-.44.05-.57,0,.04-.3.29-.51.57-.57.34-.07.77.05,1.13,0,.89-.11.76,0,1.13,0Z"/>
  <path class="b" d="M430.1,417.77s-.26.07,0-.57v.57Z"/>
  <path class="b" d="M459,355.43v.57h-1.7v-.57c.54.06,1.22-.11,1.7,0Z"/>
  <path class="b" d="M461.27,356v.57c-.13-.05-.37.03-.57,0-.19-.03-.38.02-.57,0-.05-.19.07-.44,0-.57.25.09.77-.05,1.13,0Z"/>
  <path class="b" d="M443.7,363.37h-.57v-.57c.19-.02.38.02.57,0v.57Z"/>
  <path class="b" d="M436.9,362.23v.57c-.19,0-.38,0-.57,0s-.38,0-.57,0v-.57h.57c.19,0,.38,0,.57,0Z"/>
  <path class="b" d="M434.63,362.8c.19,0,.38,0,.57,0s.38,0,.57,0v.57h-2.27c.05-.18-.04-.39,0-.57.19.02.38-.01.57,0s.38,0,.57,0Z"/>
  <path class="b" d="M421.6,389.43c-.29-.08-.51-.25-.57-.57.2-.04.43.06.57,0-.03.18.02.38,0,.57Z"/>
  <path class="b" d="M400.07,395.67c.13-.23.53-.44.57-.57-.13.03-.34.46-.57.57Z"/>
  <path class="b" d="M408.57,391.7c.08.46,0,.54,0,.57-.23.15-.42.33-.57.57h-.57c.6-.87,0-1.08,0-1.13.02-.2-.05-.42,0-.57.19,0,.38,0,.57,0l.57.57Z"/>
  <path class="b" d="M433.5,366.2v.57c-.19.02-.38-.01-.57,0s-.38-.01-.57,0v-.57h1.13Z"/>
  <path class="b" d="M422.73,367.9c.18-.03.38.03.57,0-.05.17.05.39,0,.57h-1.13c-.19,0-.38,0-.57,0,.36-.76.48-.45,1.13-.57Z"/>
  <path class="b" d="M420.47,367.33l-.57.57c-.2.04-.42-.06-.57,0-.33.13-.39.39-.57.57s-.44.24-.57.57c-.19.02-.38-.01-.57,0,.03-.17,0-.39,0-.57s.03-.39,0-.57c.17-.07.43.08.57,0,.29-.16.39-.42.57-.57.21-.17.38-.37.57-.57.2.04.43-.06.57,0,.3.13.56.13.57.57Z"/>
  <path class="b" d="M417.07,369.03c.19,0,.38.01.57,0-.04.2.06.43,0,.57-.19.05-.43-.07-.57,0-.33.16-.39.39-.57.57s-.45.25-.57.57c-.17.04-.38-.03-.57,0l-.55-.28c.22-.26.4-.55.55-.85.08-.16.49-.32.57-.57.19,0,.38,0,.57,0s.38,0,.57,0Z"/>
  <path class="b" d="M439.17,394.53c-.22.3-.03.41-.57.57-.12.04-.45.03-.57,0,0-.43.26-.44.57-.57.13-.05.37.02.57,0Z"/>
  <path class="b" d="M418.2,413.8c-.37.05-.82-.08-1.13,0v-1.13h.57l.57,1.13Z"/>
  <path class="b" d="M421.6,390.57h-.57v-.57h.57c-.03.2.05.42,0,.57Z"/>
  <path class="b" d="M414.23,392.83h-.57v-.57c.25.11.39.41.57.57Z"/>
  <path class="b" d="M413.67,392.27c-.15-.06-.38.05-.57,0-.06-.14.04-.37,0-.57.14.06.37-.04.57,0v.57Z"/>
  <path class="b" d="M452.77,351.47c.02.18,0,.38,0,.57-.19.01-.38,0-.57,0s-.38,0-.57,0c.06-.15-.05-.38,0-.57.04-.15,0-.37,0-.57.19,0,.38-.01.57,0,.12.4-.04.5.57.57Z"/>
  <rect class="b" x="390.43" y="369.03" width=".57" height=".57"/>
  <path class="b" d="M248.2,363.93c.06.31.27.48.57.57.16.05.37-.03.57,0v.57c-.18,0-.39-.03-.57,0s-.38-.03-.57,0c-.13-.6-.65-.51-1.13-.57v-.57h1.13Z"/>
  <path class="b" d="M275.97,363.93c.08.03.24.44.57.57.17.07.41-.07.57,0v.57c-.16-.01-.18.24-1.13,0-.25-.73-.51-.52-.57-.57-.16-.16-.13-.49-.57-.57v-.57c.2.04.42-.06.57,0s.32.48.57.57Z"/>
  <path class="b" d="M374.57,371.3c-.01.19.01.38,0,.57-.27.1-.39.43-.57.57-.44.35-.92.43-1.13,1.13-.04.12-.03.44,0,.57-.13.06-.51.44-.57.57-.06.14.04.37,0,.57-.46.14-.42-.5-.57-.57v-.57c.16-.19.48-.37.57-.57.07-.16-.07-.42,0-.57.27-.1.39-.42.57-.57.2-.17.42-.35.57-.57.32-.48.38-.36.57-1.13.14.03.43.03.57,0-.02.19.01.38,0,.57Z"/>
  <path class="b" d="M392.7,396.8c.14.38.46.76.57,1.13.05.17-.04.39,0,.57-.13-.05-.37.02-.57,0-.18-.12-.35-.4-.57-.57-.1-.08-.1-.55-.57-.57v-.57h1.13Z"/>
  <path class="b" d="M395.53,373.57c-.19-.02-.38.01-.57,0v-.57h.57v.57Z"/>
  <path class="b" d="M396.1,373c-.17.03-.38,0-.57,0,.03-.19-.03-.39,0-.57.57-.07.47.24.57.57Z"/>
  <path class="b" d="M282.2,363.93c0,.19,0,.38,0,.57-.44.05-.53-.55-.57-.57v-.57c.18.06.41-.06.57,0v.57Z"/>
  <path class="b" d="M293.53,369.6c.01.19,0,.38,0,.57h-1.13c0-.19.01-.38,0-.57s.03-.39,0-.57c.18,0,.39.02.57,0,.17.21.37.38.57.57Z"/>
  <path class="b" d="M416.5,363.37c-.18.04-.38-.03-.57,0,.04-.18-.04-.39,0-.57h.57v.57Z"/>
  <path class="b" d="M418.2,362.8c-.2.03-.43-.05-.57,0,.02-.17.02-.4,0-.57-.03-.2.05-.43,0-.57.18.02.38,0,.57,0,0,.37-.04.77,0,1.13Z"/>
  <path class="b" d="M418.77,361.67c-.18.03-.38,0-.57,0v-.57h.57v.57Z"/>
  <path class="b" d="M412.53,363.93c-.18.03-.38-.03-.57,0-.03,0-.1-.56-.54-.31-.4.22-1.17,1.02-1.72,1.44-.06.05-.56-.08-.56.28l.56.28c-1.05.43-.78-.01-1.13,0,.04-.17-.03-.38,0-.57.22-.16.38-.38.57-.57s.41-.35.57-.57c.12-.16.45-.26.57-.57.18-.05.4.06.57,0,.39-.14.74-.43,1.13-.57.17-.06.4.06.57,0,.27-.1.46-.3.57-.57l.56.28-1.12,1.42Z"/>
  <path class="b" d="M406.3,367.33c-.37.2-.76.38-1.13.57.22-.32.39-.87.57-1.13.42-.06.62.15.57.57Z"/>
  <path class="b" d="M408.57,362.23c.08,0,1.1.59,1.7,0,0,.19.04.41,0,.57-.22.16-.39.36-.57.57-.16.19-.38.4-.57.57-.19,0-.38,0-.57,0-.43-.02.23-.8-.57,0s-.04.13,0,.57c.02.19-.02.38,0,.57h-.57c-.27.1-.39.41-.57.57-.2.18-.4.36-.57.57s-.42.34-.57.57c-.63.09-.74.33-1.13.57-.23.14-.38.44-.57.57-.25.16-.46.52-.57.57-.15.07-.39-.05-.57,0,.09-.32.38-.82.57-1.13.06-.1.38-.32.57-.57.14-.18.39-.35.57-.57.15-.18.46-.29.57-.57h.57l1.13-1.13c-1.05-.32-.99.5-1.13.56-.17.07-.44-.08-.57,0-.22.14-.38.38-.57.57s-.42.34-.57.57c-.37.11-.81.52-1.13.57.03-.17-.01-.38,0-.57.03-.43,0-.33,0-.57,0-.19.02-.38,0-.57.66-.16.73-.35,1.13-.57.15-.08.46.09.57,0,.69-.55.39-.64.57-1.13.06-.16-.06-.39,0-.57.18-.04.39.04.57,0,.7-.15,1.82-.51,2.27-.57.19-.02.38.02.57,0Z"/>
  <path class="b" d="M402.9,367.33c-.18.03-.38-.01-.57,0v-.57c.19-.01.38.03.57,0-.04.18.04.39,0,.57Z"/>
  <path class="b" d="M440.3,353.17h-.57c-.05-.18.06-.42,0-.57h.57c-.05.15.02.37,0,.57Z"/>
  <path class="b" d="M435.77,353.17c-.17-.04-.38.02-.57,0v-.57c.19.01.38-.02.57,0v.57Z"/>
  <path class="b" d="M423.3,359.4c-.19-.02-.38,0-.57,0,.19-.42.1-.37.57-.57-.02.18,0,.38,0,.57Z"/>
  <path class="b" d="M282.2,374.13v.57c-.27.09-.48.29-.57.57-.19,0-.38,0-.57,0-.06-.3-.72-.88-.57-1.13.05-.09.42.08.57,0,.36-.21.77-.35,1.13-.57v.57Z"/>
  <path class="b" d="M265.2,371.3c-.19-.19-.38-.37-.57-.57.14-.07.38.06.57,0v.57Z"/>
  <path class="b" d="M261.8,374.7c-.16-.06-.39.05-.57,0-.02-.19.01-.38,0-.57.17.05.39-.04.57,0-.02.18,0,.38,0,.57Z"/>
  <path class="b" d="M262.93,373c-.19.05-.42-.07-.57,0-.06-.18.07-.42,0-.57.13.05.37-.03.57,0v.57Z"/>
  <path class="b" d="M262.37,373.57h-.57c.19-.47.15-.37.57-.57.05.15-.02.37,0,.57Z"/>
  <path class="b" d="M274.27,371.87v.57c.02.19-.03.38,0,.57h-.57c-.23-.35-.36-.77-.57-1.13.19.02.38,0,.57,0s.38,0,.57,0Z"/>
  <path class="b" d="M230.07,361.67c.16.09.76-.19,1.04.09s0,.83.09,1.04h-.57l-.57.57h-.57c-.19.05-.42-.07-.57,0,0-.19,0-.38,0-.57v-.57c.48-.08,1.09.15,1.13-.57Z"/>
  <path class="b" d="M248.2,368.47h-.57v-.57h.57c.66.3,0,.5,0,.57Z"/>
  <path class="b" d="M245.93,368.47c.18.03.39-.03.57,0l-.57.57c-.13-.13-1-.57-1.13-.57-.02-.19.04-.39,0-.57.19.01.38-.02.57,0,.04,0-.05.47.57.57Z"/>
  <path class="b" d="M239.7,366.2c.38.02.76-.01,1.13,0,.19,0,.38,0,.57,0s.38,0,.57,0,.38-.01.57,0,.38-.02.57,0c-.35.74-.46.47-1.13.57-.18.03-.38-.02-.57,0-.37.04-.76-.02-1.13,0-.19.01-.38,0-.57,0s-.38,0-.57,0-.38.01-.57,0v-.57c.19,0,.38,0,.57,0s.38,0,.57,0Z"/>
  <path class="b" d="M236.3,365.63c-.29-.13-.56-.12-.57-.57h.57c.04.18-.04.39,0,.57Z"/>
  <path class="b" d="M220.43,363.37c.19.01.39-.03.57,0,.15.23.38.38.57.57s.34.42.57.57c-.04.17.01.37,0,.57h-4.53v-.57c.17-.04.38.03.57,0s.38.03.57,0c.36-.05.78.06,1.13,0,.2-.04.56.05.56-.28-.1-.38-.39-.22-.56-.28-.14-.06-.37.03-.57,0,.06-.31.27-.48.57-.57.14-.04.39-.01.57,0Z"/>
  <path class="b" d="M222.7,363.37c.33.06.76-.03,1.13,0,.19.01.38,0,.57,0v.57c-.19-.01-.38,0-.57,0s-.38.01-.57,0-.38.01-.57,0-.38.02-.57,0l-.57-1.13h.57c.04.31.27.51.57.57Z"/>
  <path class="b" d="M248.77,398.5c-.36-.14-.52-.55-.57-.57v-.57c.19-.03.38.03.57,0,.13.26-.13.99,0,1.13Z"/>
  <path class="b" d="M249.9,398.5v.57c-.29-.15-.92-.48-1.13-.57.04.04.86.02,1.13,0Z"/>
  <path class="b" d="M251.6,412.67c.14.06.37-.04.57,0,.17.03.38-.02.57,0s.38,0,.57,0h.57c.14.38.48.77.57,1.13-.19,0-.38,0-.57,0s-.38,0-.57,0c-.38,0-.76,0-1.13,0-.19,0-.38,0-.57,0-.11-.37.03-.57-.57-.57-.69,0-.46.36-.57.57-.19,0-.38,0-.57,0s-.38,0-.57,0v-.57c.3-.13.56-.13.57-.57.37-.15.8-.49,1.13-.57,0,.43.26.44.57.57Z"/>
  <path class="b" d="M253.87,395.1c-.19.01-.38-.01-.57,0-.02-.19.02-.38,0-.57h.57c.04.2-.06.42,0,.57Z"/>
  <path class="b" d="M265.77,405.87v.57c-.15,0-.51.37-.57.57-.24-.11-.79.07-1.13,0,.04-.37-.03-.76,0-1.13.19,0,.38,0,.57,0,.46-.02.84,0,1.13,0Z"/>
  <path class="b" d="M225.53,356c-.19.02-.38-.02-.57,0-.37.03-.76,0-1.13,0h-.57c.12-.24.32-.47.57-.57.35-.14.97.08,1.13-.57.19,0,.38,0,.57,0v1.13Z"/>
  <path class="b" d="M218.17,354.87h-.57v-.57c.2.03.41-.05.57,0v.57Z"/>
  <path class="b" d="M421.6,420.03c-.19,0-.38.02-.57,0-.06-.16.05-.39,0-.57h.57c-.05.17.06.41,0,.57Z"/>
  <path class="b" d="M424.43,419.47h-.57v-.57c.19,0,.38,0,.57,0v.57Z"/>
  <path class="b" d="M433.5,417.77c.1.28.38.39.57.57.17.16.24.45.57.57.02.17.03.4,0,.57h-.57c-.12-.06-.26-.42-.57-.57-.14-.07-.38.04-.57,0-.18-.44-.12-.38-.57-.57-.13-.05-.37.02-.57,0v-.57c.18.02.38,0,.57,0,.38.02.76,0,1.13,0Z"/>
  <path class="b" d="M425,390c.03-.18,0-.38,0-.57.17-.04.38.02.57,0-.18.44-.12.38-.57.57Z"/>
  <path class="b" d="M405.73,370.73c-.18.19-.38.38-.57.57-.1.09-.46-.09-.57,0-.2.18-.41.45-.57.57-.22.16-.39.46-.57.57-.13.08-.23.44-.57.57-.17.06-.41-.07-.57,0,.14-.37.36-.79.57-1.13.1-.17.4-.35.57-.57.15-.19.39-.36.57-.57s.39-.37.57-.57c.17.02.39.02.57,0,.28-.03.81-.4,1.13-.57-.22.33-.35.9-.57,1.13Z"/>
  <path class="b" d="M448.23,395.67c.01.19,0,.38,0,.57h-.57c0-.38-.02-.76,0-1.13.19,0,.38,0,.57,0,.02.19-.01.38,0,.57Z"/>
  <path class="b" d="M417.07,373c-.18.06-.42-.06-.57,0v-.57c.18-.05.42.06.57,0v.57Z"/>
  <path class="b" d="M439.17,403.6c-.19,0-.38,0-.57,0h.57Z"/>
  <path class="b" d="M438.03,391.7c-.52-.12-.44.43-.57.57-.16.17-.48.27-.57.57v.57c-.17-.02-.44-.56-.57-.57v-.57c.58-.21.94-.55,1.13-1.13.19-.02.39.03.57,0,.03.17,0,.39,0,.57Z"/>
  <path class="b" d="M427.27,391.13c-.19,0-.38-.02-.57,0,.06-.29.27-.51.57-.57,0,.19,0,.38,0,.57Z"/>
  <path class="b" d="M424.43,403.6l-.85,1.12c-.13-.36-.77-.45-.85-.56-.09-.12.09-.47,0-.57.19.03.38-.02.57,0,.37.04.79-.06,1.13,0Z"/>
  <path class="b" d="M453.9,350.9c-.19-.02-.38.01-.57,0v-.57h.57c-.02.2.04.41,0,.57Z"/>
  <path class="b" d="M387.03,367.9c-.31.5-.36.72-.57,1.13-.19.01-.38-.01-.57,0,.07-.14-.05-.38,0-.57v-.57c.34-.11.84-.36,1.13-.57-.09.08.09.43,0,.57Z"/>
  <path class="b" d="M372.3,368.47h-.57c.03-.19-.04-.39,0-.57.18-.05.39.04.57,0-.09.12.09.46,0,.57Z"/>
  <path class="b" d="M377.4,372.43h-.57c-.09-.12.09-.47,0-.57.13.12.4.03.57.57Z"/>
  <path class="b" d="M260.1,365.63c.02.19-.01.38,0,.57l-.57.57c-.17.02-.4.03-.57,0,.1-.5-.07-1.16,0-1.7.19.04.4-.05.57,0,.11.37-.03.57.57.57Z"/>
  <path class="b" d="M234.6,356.57c-.05.15.02.37,0,.57-.81.33-.6.88-.57,1.7h-1.13v-.57c0-.39-.23-.51-.57-.57,0-.19-.02-.38,0-.57.2-.02.41.04.57,0,.5-.14.41-.18.57-.57h1.13Z"/>
  <path class="b" d="M242.53,359.97c.19,0,.41.04.57,0,0,.26-.57.83-.57,1.13-.19-.01-.38.01-.57,0-.01-.36-.24-.51-.57-.57v-.57c.16.04.37-.02.57,0,.18.02.38,0,.57,0Z"/>
  <path class="b" d="M239.7,358.27c.07.22.46.46.57,1.13-.44.18-.38.12-.57.57-.06.14.04.37,0,.57-.32.07-.77-.04-1.13,0v-.57c.72-.09.5-.49.57-.57.02-.02.56.07.56-.28l-.56-.28h-.57c-.05-.2-.53-.42-.57-.57-.04-.17.03-.37,0-.57.17.05.4-.06.57,0,.39.13.75.41,1.13.57Z"/>
  <path class="b" d="M238.57,359.4c.02.18-.02.38,0,.57-.96.12-.95-.48-1.13-.57.37-.01.76.04,1.13,0Z"/>
  <path class="b" d="M262.37,363.93c.18.16.44.39.57.57.23.32.35.79.57,1.13h-.57l-.57-.57c-.56-.07-.47.23-.57.57-.12-.03-.45-.04-.57,0-.11-.03-.3-.46-.57-.57.04-.15-.02-.37,0-.57.39.05.63-.16.57-.57v-.57c.2.04.42-.06.57,0,.04.01.37.4.57.57Z"/>
  <path class="b" d="M391.57,374.13c-.12.15-.42.45-.57.57-.11.09-.41-.08-.57,0v-.57c.37-.16.38-.33.57-.57.36-.09.75-.44,1.13-.57-.06.26-.4.92-.57,1.13Z"/>
  <path class="b" d="M383.63,375.83h-.57c-.03-.2.06-.5,0-.57.15.13.39.03.57.57Z"/>
  <path class="b" d="M398.37,395.67h-.57v-1.13c.76.37.43.96.57,1.13Z"/>
  <path class="b" d="M396.1,374.7c-.29-.06-.51-.27-.57-.57h.57c.01.19,0,.38,0,.57Z"/>
  <path class="b" d="M405.73,361.67l-1.7,1.13c.02-.19-.03-.38,0-.57s-.03-.38,0-.57c.19-.03.38.03.57,0s.42-.54.57-.57c.18-.04.39.04.57,0-.04.18.05.39,0,.57Z"/>
  <path class="b" d="M403.47,362.8v.57l-.81.06c-.27.08-.23.32-.32.51-.07.15.07.42,0,.57-.18.04-.39-.05-.57,0-.34.1-.63,0-.57.57-.19.06-.46-.08-.57,0-.34-.52-.47-1.09-.57-1.7.35.2.55.72.58,1.13.62.11.53-.54.56-.56.21-.18.37-.41.57-.57.22-.18.46-.51.57-.57.13-.07.38.05.57,0h.57Z"/>
  <path class="b" d="M422.17,358.83h-.57v-.57c.18-.05.42.06.57,0v.57Z"/>
  <path class="b" d="M287.87,374.13c.01.19,0,.38,0,.57-.19-.03-.4.04-.57,0-.19-.38-.38-.75-.57-1.13.18.05.4-.05.57,0,.14.24.43.38.57.57Z"/>
  <rect class="b" x="294.67" y="373" width=".57" height=".57"/>
  <path class="b" d="M279.37,374.7c.02.2-.04.41,0,.57.08.29.25.51.57.57-.02.19.03.38,0,.57-.3-.08-.87-.38-1.13-.57-.16-.11-.29-.48-.57-.57.05-.15-.02-.37,0-.57.02-.19-.03-.38,0-.57h.57l.57.57Z"/>
  <path class="b" d="M277.67,375.27c.02.19-.02.38,0,.57-.17-.05-.39.04-.57,0h-.57v-.57c.15.06.39-.05.57,0h.57Z"/>
  <path class="b" d="M276.53,374.13v.57h-.57c-.2-.18-.41-.34-.57-.57.19.03.38-.02.57,0s.38-.01.57,0Z"/>
  <path class="b" d="M232.33,363.93c-.04.12-.01.39,0,.57h-1.13v-.57c.38,0,.76,0,1.13,0Z"/>
  <path class="b" d="M235.17,363.37c.15.05.37-.02.57,0,.18.02.38-.01.57,0,0,.43.26.44.57.57.16.07.41-.07.57,0v.57h-.57c-.19.02-.38-.03-.57,0-.48-.88-.87-.48-1.7-.57-.19-.02-.38.02-.57,0v-1.13h.57c-.07.57.24.47.57.57Z"/>
  <path class="b" d="M251.03,395.1h-.57c0-.19-.05-.45,0-.57h.57v.57Z"/>
  <path class="b" d="M259.53,395.1v.57c-.19-.03-.38.02-.57,0s-.38.02-.57,0v-.57c.18.03.38-.03.57,0s.38-.03.57,0Z"/>
  <path class="b" d="M270.3,396.23c.14.38.47.77.57,1.13-.17.05-.39-.04-.57,0h-.57c-.06-.17.06-.4,0-.57-.14-.37-.35-.8-.57-1.13.34.22.76.39,1.13.57Z"/>
  <path class="b" d="M272.57,396.8c.1.63.69.47,1.13.57-.08.14.09.51,0,.57-.14.09-.78-.04-1.13,0-.19.02-.38-.01-.57,0-.03,0-.41,0-.57,0-.19,0-.38-.02-.57,0-.03-.18.05-.39,0-.57.33-.1.63,0,.57-.57.17.04.37-.02.57,0,.18.02.38,0,.57,0Z"/>
  <path class="b" d="M265.77,403.6v.57c-.28-.15-1.2.23-1.13-.57.19-.01.38.02.57,0s.38.03.57,0Z"/>
  <path class="b" d="M213.07,354.3c-.03.18.04.39,0,.57-.19-.02-.4.04-.57,0-.2-.05-.49.07-.57,0s.05-.37,0-.57c.19,0,.38,0,.57,0s.38,0,.57,0Z"/>
  <path class="b" d="M227.8,354.87c.2-.02.41.04.57,0v.57c-.18.03-.38-.03-.57,0s-.38-.03-.57,0-.38-.03-.57,0v-.57c.37-.03.76.04,1.13,0Z"/>
  <path class="b" d="M225.53,353.73v.57c-.17-.04-.37.02-.57,0s-.38.01-.57,0v-.57c.18,0,.39.02.57,0,.2-.03.43.05.57,0Z"/>
  <path class="b" d="M217.03,352.6c-.04.2.06.43,0,.57-.2.02-.44-.05-.57,0-.44.18-.38.12-.57.57-.19.02-.38-.01-.57,0h-.57v-.57c.15-.08.45.09.57,0,.17-.14.5-.41.57-.57.18.03.38-.01.57,0s.38,0,.57,0Z"/>
  <path class="b" d="M220.43,355.43v.57c-.23.16-.43.32-.57.57-.19,0-.38.01-.57,0s-.38.02-.57,0-.38.02-.57,0v-.57l.57-1.13c.19,0,.38.02.57,0l1.13.57Z"/>
  <path class="b" d="M430.67,419.47c-.14-.07-.38.05-.57,0v-.57c.19,0,.38-.02.57,0,.03.17,0,.39,0,.57Z"/>
  <path class="b" d="M456.17,352.03c.05.19-.07.42,0,.57-.18-.04-.38.02-.57,0s-.38.01-.57,0-.38,0-.57,0v-.57c.19-.04.4-.51.57-.57.18-.06.41.06.57,0,.09.03.26.44.57.57Z"/>
  <path class="b" d="M461.27,360.53c-.19-.02-.38.01-.57,0v-.57c.19-.02.38.01.57,0v.57Z"/>
  <path class="b" d="M399.5,392.27v.57c-.13.03-.44.03-.57,0-.33-.09-.51-.21-.57-.57.37.04.78-.06,1.13,0Z"/>
  <path class="b" d="M420.47,387.17c-.03.18.02.38,0,.57-.04.46,0,.49,0,.57,0,.19,0,.38,0,.57-.18,0-.39.02-.57,0l-.57-.57c0-.19.02-.38,0-.57.42-.17.38-.2.57-.57.08-.15-.09-.45,0-.57h.57c-.04.17.03.38,0,.57Z"/>
  <path class="b" d="M409.13,390v.57c-.19.01-.38-.02-.57,0-.02-.19.03-.38,0-.57-.03-.2.05-.42,0-.57h.57v.57Z"/>
  <path class="b" d="M419.9,370.73c-.18.03-.38-.02-.57,0v-.57h.57v.57Z"/>
  <path class="b" d="M440.3,404.17c.07-.07-.04-.38,0-.57.19,0,.38-.02.57,0-.11.28-.35.4-.57.57Z"/>
  <path class="b" d="M415.37,395.1h-.57v-.57h.57c-.02.2.04.41,0,.57Z"/>
  <path class="b" d="M417.07,395.67c-.11.4-.73.45-1.13.57-.17.05-.39-.05-.57,0-.18.06-.42-.06-.57,0v-.57c.31-.06.48-.27.57-.57.18.03.39-.05.57,0,.37.09.76.42,1.13.57Z"/>
  <path class="b" d="M452.2,400.2v.57c-.19.04-.42-.06-.57,0-.16.17-.55.41-.57.57-.19.19-.4.27-.57.57-.19-.03-.38.02-.57,0,.11-.37.52-.81.57-1.13.33-.07.76-.41,1.13-.57.17-.07.43.08.57,0Z"/>
  <path class="b" d="M389.3,368.47v-.57h.57c0,.44-.28.43-.57.57Z"/>
  <path class="b" d="M388.17,368.47c.02.16.03.41,0,.57-.19,0-.38,0-.57,0,.03-.37-.02-.76,0-1.13.19.05.43-.07.57,0,.05.13-.02.37,0,.57Z"/>
  <path class="b" d="M384.2,366.77c-.18.03-.39-.04-.57,0-.06-.14.03-.37,0-.57h.57v.57Z"/>
  <path class="b" d="M254.43,366.2c.02-.19-.02-.38,0-.57l.57-.57c.18-.01.38-.01.57,0-.02.58-.64.95-1.13,1.13Z"/>
  <path class="b" d="M246.5,361.67c.19.01.38,0,.57,0s.38,0,.57,0c.1.28.37.39.57.57.17.15.25.37.57.57.13.08.4-.07.57,0,.07.03.04.36,1.13.57.17.03.38,0,.57,0s.38,0,.57,0c.15.23.33.43.57.57.36.22.77.36,1.13.57l.57.57c-.06,0-.51.47-1.13.57-.17.03-.39,0-.57,0-.13-.3-.13-.56-.57-.57h-.57c-.1-.04-.26-.44-.57-.57-.16-.06-.39.06-.57,0-.19-.42-.1-.37-.57-.57-.13-.05-.37.03-.57,0-.11-.28-.35-.4-.57-.57-.15-.12-.23-.44-.57-.57-.15-.06-.37.04-.57,0-.17-.04-.38.02-.57,0s-.38,0-.57,0c-.16-.39-.07-.43-.57-.57-.16-.04-.37.02-.57,0v-.57c.56.03,1.14-.04,1.7,0Z"/>
  <path class="b" d="M379.1,378.1h-.57c.2-.17.35-.42.57-.57.02.19-.01.38,0,.57Z"/>
  <path class="b" d="M380.23,376.4c.02.19,0,.38,0,.57-.15.08-.42-.08-.57,0v-.57c.02-.19-.02-.38,0-.57.19.01.38-.02.57,0,.03.17-.02.37,0,.57Z"/>
  <path class="b" d="M380.8,375.27v.57c-.19-.03-.38.02-.57,0-.06-.29-.27-.51-.57-.57.12-.3.48-.42.57-.57.06.3.28.51.57.57Z"/>
  <path class="b" d="M367.77,380.93c-.22.08-.43.54-.57.57-.18.04-.38-.03-.57,0-.02-.19.02-.38,0-.57.2-.18.45-.12.57-.57.19,0,.38,0,.57,0v.57Z"/>
  <path class="b" d="M278.23,362.8c-.26-.2-.36-.08-.57-.57.17.04.38-.03.57,0v.57Z"/>
  <path class="b" d="M299.77,375.83c-.18-.03-.38.01-.57,0,.02-.18,0-.38,0-.57h.57c-.03.18.03.38,0,.57Z"/>
  <rect class="b" x="416.5" y="358.83" width=".57" height=".57"/>
  <path class="b" d="M399.5,363.93l-.56.28.56.28c-.28.38-.69.5-1.13.57-.03,0-.17-.29-.33-.35l-.23.35c-.19,0-.52-.04-.57,0,.17-.37.46-.76.57-1.13.18-.04.38.03.57,0s.43-.55.57-.57c.17-.03.39,0,.57,0,.04.13.02.42,0,.57Z"/>
  <path class="b" d="M246.5,386.03h-.57c.02-.19-.04-.4,0-.57.18.04.39-.05.57,0v.57Z"/>
  <path class="b" d="M265.77,373h-.57l-.57-.57v-.57h.57c.07.22.44.49.57,1.13Z"/>
  <path class="b" d="M291.83,375.27c.15.23.53.46.57.57.05.15-.03.37,0,.57-.38-.17-.76-.38-1.13-.57-.1-.23-.48-.39-.57-.57v-1.13c.19.02.38-.01.57,0-.14.63.36.82.57,1.13Z"/>
  <path class="b" d="M233.47,413.8c.03.18-.02.38,0,.57h-1.13v-.57c.19,0,.38,0,.57,0s.38,0,.57,0Z"/>
  <path class="b" d="M249.33,417.77v.57c-.19,0-.38,0-.57,0,.05-.36-.08-.82,0-1.13h.57v.57Z"/>
  <path class="b" d="M214.2,359.97c.2-.03.43.05.57,0v.57c-.16.05-.38.53-.57.57s-.38-.02-.57,0-.38-.02-.57,0v-1.13c.19,0,.38,0,.57,0s.38.02.57,0Z"/>
  <path class="b" d="M230.07,366.2v.57h-1.13c-.03-.2.05-.43,0-.57.13.05.37-.03.57,0,.18.02.38,0,.57,0Z"/>
  <path class="b" d="M254.43,371.3h.57c-.05.11,0,.37,0,.57,0,.18-.03.39,0,.57h-1.7c0-.19.02-.38,0-.57s.03-.39,0-.57c.49.34.92.63,1.13,0Z"/>
  <path class="b" d="M253.3,371.3c-.27-.18-.4-.18-.57-.57.17.04.37-.03.57,0,.06.14-.04.37,0,.57Z"/>
  <path class="b" d="M245.37,370.17c-.1.37-.4.4-.57.57h-.57c-.19.02-.38-.03-.57,0,.12-.85,1.09-.48,1.7-.57Z"/>
  <path class="b" d="M255,374.13l-.57-.57h.57c.07.14-.05.38,0,.57Z"/>
  <path class="b" d="M255,383.2c-.18-.02-.39-.02-.57,0,.05-.12,0-.37,0-.57h.57c-.01.19,0,.38,0,.57Z"/>
  <path class="b" d="M241.97,369.03c.37,0,.78.05,1.13,0v1.13c-.14.06-.37-.03-.57,0-.32.05-.78.02-1.13,0-.19,0-.38.02-.57,0-.06-.35.09-.84,0-1.13h1.13Z"/>
  <path class="b" d="M224.97,364.5c.11.6-.22.86.57,1.13.26.09.77-.04,1.13,0s.76-.04,1.13,0c-.09.37-.42.76-.57,1.13h-.57c-.19,0-.38,0-.57,0s-.38,0-.57,0c-.05-.34-.34-.4-.57-.57-.14-.1-.67-.26-1.13-.57v-1.13c.37-.04.76.03,1.13,0Z"/>
  <path class="b" d="M245.37,388.3c-.53-.15-.45-.44-.57-.57h.57v.57Z"/>
  <path class="b" d="M245.93,387.73h-.57v-.57h.57c-.03.18.04.39,0,.57Z"/>
  <path class="b" d="M244.23,386.6l-.57.57h-.57c-.05-.18.05-.39,0-.57.18.04.38-.03.57,0s.38-.03.57,0Z"/>
  <path class="b" d="M208.53,357.13v.57c-.29-.04-.88-.06-1.13,0v-.57c.37,0,.76.03,1.13,0Z"/>
  <path class="b" d="M450.5,408.7h-.57c-.03-.2.05-.43,0-.57.19,0,.38-.01.57,0,.03.18-.02.38,0,.57Z"/>
  <path class="b" d="M436.33,420.03c-.18.02-.38,0-.57,0v-.57h.57v.57Z"/>
  <path class="b" d="M460.13,353.17c.19.01.38-.02.57,0v.57c-.15-.06-.38.05-.57,0-.17-.04-.37.03-.57,0s-.39.04-.57,0v-.57c.19.02.38-.01.57,0s.38-.01.57,0Z"/>
  <path class="b" d="M439.17,363.37c.38,0,.76.01,1.13,0,.07.17-.09.46.28.56l.28-.56c.19-.01.38.01.57,0v1.13c-.18.07-.45-.08-.57,0-.22.15-.55.17-.57.57-.19-.04-.4-.5-.57-.57l.56-.28c0-.36-.4-.22-.56-.28-.14-.05-.37.03-.57,0-.18-.03-.38,0-.57,0s-.39-.02-.57,0v-.57c.38.02.76,0,1.13,0Z"/>
  <path class="b" d="M412.53,371.3c.29.08.51.25.57.57-.35.11-.58-.03-.57.57-.19.02-.38-.01-.57,0h-.57c.04-.17-.03-.38,0-.57s-.02-.38,0-.57c.19.01.38-.02.57,0l.28.56.28-.56Z"/>
  <path class="b" d="M402.33,391.7c.22.35.34.8.57,1.13.13.19-.06.57.57.57s.46-.19.57-.57c.36-.22.73-.45,1.13-.57v.57c.05.18-.06.4,0,.57.25.68.41.8.57,0h.57c.06.17.54.39.57.57-.2,0-.45-.05-.57,0-.33.14-.39.38-.57.57-.07.07.05.38,0,.57-.58.11-.5-.51-.57-.57-.19-.17-.09-.69-.57-.57l-.57.57c-.11.48.36.39.57.57s.39.36.57.57c-.07.13.05.38,0,.57-.44.18-.38.12-.57.57h-.57c-.03-.19.05-.54,0-.57l.57-.28-.28-.28-.28.57c-.14-.07-1.36-.05-1.7,0-.32.05-.77.42-1.13.57-.17.07-.42-.07-.57,0-.76.4-.42.52-.57,1.13h-1.13c.06-.34.51-.79.57-1.13.32-.21.37-.34.57-.57.18,0,.39.02.57,0,.2-.02.41.04.57,0,.29-.08.51-.25.57-.57.19-.03.4.04.57,0,.18-.04.39.05.57,0,.37-.11.57.03.57-.57s-.2-.46-.57-.57v-.57l-.57-.57c-.17-.19-.25-.44-.57-.57.04-.18-.03-.38,0-.57v-.57c.08-.01.27-.55.57-.57v.57Z"/>
  <path class="b" d="M398.93,397.93c-.15.89-.44,1.6-.57,2.27-.03.18.03.38,0,.57-.05.35,0,.77,0,1.13v.57c-1.89-.21-.72-.52-1.45-1.64-.28-.43-.74-.52-.82-.63-.14-.2.11-.78-.57-1.13-.13-.06-.37.04-.57,0-.18-.04-.39.04-.57,0v-.57c.18.03.38-.01.57,0s.38,0,.57,0c.37-.01.83.07,1.13,0,.48-.11.43-.16.57-.57h1.7Z"/>
  <path class="b" d="M408,394.53c.08.32-.05.77,0,1.13.02.18-.02.38,0,.57-.27.1-.47.29-.57.57-.19,0-.38,0-.57,0-.19-.44-.12-.38-.57-.57.05-.34.51-.8.57-1.13.03-.17,0-.39,0-.57s.03-.39,0-.57c.19,0,.44-.04.57,0-.03.37.17.64.57.57Z"/>
  <path class="b" d="M398.37,390v.57c-.56-.07-.47.23-.57.57-.44.05-.53-.56-.57-.57v-.57c.28.05.84.04,1.13,0Z"/>
  <path class="b" d="M420.47,371.87c.01-.19-.04-.4,0-.57.19-.02.38.03.57,0-.12.28-.04.65-.57.57Z"/>
  <path class="b" d="M421.6,371.3c-.19.02-.38-.03-.57,0,.07-.15-.05-.39,0-.57.3-.07.84-.38,1.13-.57-.11.08-.41.84-.57,1.13Z"/>
  <path class="b" d="M418.2,371.3c-.18-.06-.52.08-.57,0,.07-.38.24-.46.57-.57v.57Z"/>
  <path class="b" d="M452.77,402.47c-.3.13-.56.13-.57.57h-.57c-.06-.18.06-.41,0-.57.34.01.8-.41,1.13-.57-.02.18,0,.38,0,.57Z"/>
  <path class="b" d="M394.97,363.93h.57v.57c-.54.18-.88.47-1.13.57-.7.25-1.53.38-2.27.57-.18.04-.38-.03-.57,0,.06-.14-.05-.37,0-.57.14-.08.42.08.57,0,.36-.2.76-.41,1.13-.57.23-.09.41-.5.57-.57.15-.06.37.04.57,0,.18-.04.38.03.57,0Z"/>
  <path class="b" d="M391,367.33c-.19,0-.38,0-.57,0v-.57h.57c-.02.19.02.38,0,.57Z"/>
  <path class="b" d="M391.57,366.77c-.17.06-.39-.04-.57,0,.02-.19-.02-.38,0-.57.41.01.46.24.57.57Z"/>
  <path class="b" d="M380.23,366.77c-.18.04-.39-.04-.57,0v-.57c.25-.19.37-.1.57-.57.19,0,.38,0,.57,0-.14.38-.49.79-.57,1.13Z"/>
  <path class="b" d="M245.93,358.27h-.57c-.02-.18,0-.38,0-.57.18-.02.38,0,.57,0,.06.14-.04.37,0,.57Z"/>
  <path class="b" d="M244.23,357.13c.19.02.38-.03.57,0v.57c-.44.18-.38.12-.57.57-.35-.08-.76-.46-1.13-.57v-.57h.57c.19,0,.39-.02.57,0Z"/>
  <path class="b" d="M259.53,362.8c.2.04.49-.07.57,0,.09.09-.09.49,0,.57h-1.7v-.57c.33.08.78-.07,1.13,0Z"/>
  <path class="b" d="M240.27,356.57c.19,0,.38,0,.57,0s.38-.01.57,0,.38,0,.57,0v.57c.05.19-.07.42,0,.57.13.29.12.56.57.57v.57c-.34-.07-.92.11-1.13,0-.04-.02-.48-.47-.57-.57-.09-.11.09-.45,0-.57-.19-.23-.06-.35-.57-.57-.12-.05-.37,0-.57,0-.18,0-.43-.04-.57,0v-.57c.19,0,.38,0,.57,0s.38,0,.57,0Z"/>
  <path class="b" d="M391,395.67c-.06.03-.48.45-.57.57l-.57-.57v-.57c.19,0,.38,0,.57,0l.57.57Z"/>
  <path class="b" d="M284.47,362.8v.57c-.19-.02-.38.03-.57,0-.12-.32-.4-.4-.57-.57s-.24-.41-.57-.57v-.57c.54.16,1.12.89,1.7,1.13Z"/>
  <path class="b" d="M413.67,359.4c.2.02.43-.05.57,0,.31.12.4.41.57.57h-.57c-.38.12-.79.49-1.13.57-.1-.37-.53-.83-.57-1.13h.57c.19.02.38-.02.57,0Z"/>
  <path class="b" d="M413.1,360.53c.08.31-.06.78,0,1.13-.19.02-.38,0-.57,0s-.38,0-.57,0v-1.13c.33-.08.79.07,1.13,0Z"/>
  <path class="b" d="M262.93,375.27h-.57c.03-.18-.02-.38,0-.57.31.13.56.14.57.57Z"/>
  <path class="b" d="M272.57,375.27v.57c-.19,0-.38,0-.57,0-.14-.11-.21-.46-.57-.57v-.57c.19,0,.38-.02.57,0,.2.14.35.42.57.57Z"/>
  <path class="b" d="M269.73,372.43c.11.21.43.37.57.57.23.34.36.77.57,1.13-.16-.05-.37.03-.57,0-.16-.22-.35-.4-.57-.57-.46-.7-.77-.75-1.13-1.13-.06-.14.04-.37,0-.57h.57c.12.31.51.45.57.57Z"/>
  <path class="b" d="M271.43,374.7c-.19,0-.41-.04-.57,0v-.57c.18.06.41-.06.57,0v.57Z"/>
  <path class="b" d="M268.6,375.27c.07-.07.38.04.57,0l-.28.56c-.38-.1-.22-.39-.28-.56Z"/>
  <path class="b" d="M272.57,394.53c-.24.12-.38.38-.57.57l-.57.57c-.22-.16-.38-.44-.57-.57.24-.15.39-.44.57-.57.22-.16.38-.43.57-.57.11-.08.17-.52.57-.57-.03.37.05.77,0,1.13Z"/>
  <path class="b" d="M228.37,411.53c.02.18,0,.38,0,.57h-1.13v-.57c.17-.06.38-.53.57-.57.18.44.12.38.57.57Z"/>
  <path class="b" d="M247.07,418.33h-.57c-.01-.19,0-.38,0-.57h.57v.57Z"/>
  <path class="b" d="M213.07,356.57c.38,0,.76.02,1.13,0,.19,0,.38.01.57,0s.4.03.57,0v.57c-.19-.01-.38,0-.57,0s-.38,0-.57,0-.38-.01-.57,0-.38-.02-.57,0c-.2.02-.41-.04-.57,0-.29.08-.51.25-.57.57-.19.04-.42-.06-.57,0-.32.12-.4.4-.57.57s-.43.24-.57.57h-1.7c-.01-.19.01-.38,0-.57.19-.04.39.04.57,0,.64-.16.53-.55.57-.57.53-.2,1.05-.15,1.7-.57.14-.09.61.12.57-.57.38,0,.76,0,1.13,0Z"/>
  <path class="b" d="M215.33,362.8h-.57v-.57c.19.01.38-.01.57,0v.57Z"/>
  <path class="b" d="M216.47,405.3c-.19-.03-.41.05-.57,0v-.57c.18-.02.38,0,.57,0v.57Z"/>
  <path class="b" d="M231.77,365.07c.43.58.45,1.12,0,1.7-.18-.18-.39-.45-.57-.57-.31-.21-.49-.71-1.13-.57v-.57h.57c.36,0,.83-.06,1.13,0Z"/>
  <rect class="b" x="229.5" y="364.5" width=".57" height=".57"/>
  <path class="b" d="M230.07,367.33v.57c-.37-.02-.76.03-1.13,0,0-.19.02-.38,0-.57.34.07.9-.11,1.13,0Z"/>
  <path class="b" d="M245.37,383.77v1.13c-.31-.23-.89-.34-1.13-.57v-1.13l1.13.57Z"/>
  <path class="b" d="M240.27,368.47c-.37.12-.81.52-1.13.57-.17.03-.39.01-.57,0v-.57c.16-.19.5-.38.57-.57.18.07.44-.08.57,0,.25.15.38.36.57.57Z"/>
  <path class="b" d="M245.93,395.67v.57h-1.13c-.05-.15.03-.37,0-.57h1.13Z"/>
  <path class="b" d="M244.23,409.27c.19.41.09.38.57.57.14.91-.15.87.57,1.7.13.16.12.53.57.57h1.7c-.05.45.13.57.57.57,0,.19,0,.38,0,.57-.19,0-.38.02-.57,0s-.38.02-.57,0c-.36-.03-1.01-.52-1.7-.57-.19-.01-.38.01-.57,0s-.38.02-.57,0c-.18-.44-.12-.38-.57-.57-.02-.19.01-.38,0-.57l.56-.28c-.1-.36-.35-.23-.56-.29-.31-.08-.77.06-1.13,0,.21-.92.12-1.25,1.13-1.7.15-.07.39.05.57,0Z"/>
  <path class="b" d="M437.47,416.63c0,.19-.05.45,0,.57.18.44.12.38.57.57,0,.19,0,.38,0,.57-.19.02-.38-.01-.57,0-.12-.31-.52-.46-.57-.57,0-.19.05-.45,0-.57-.18-.44-.12-.38-.57-.57.18-.17.36-.48.57-.57.16.32-.09.37.57.57Z"/>
  <path class="b" d="M466.37,357.7h.57c-.07.17.09.46-.28.56-.36,0-.22-.4-.28-.56Z"/>
  <path class="b" d="M465.23,357.13c.13.05.37-.03.57,0,.07.14-.05.38,0,.57h-1.13c-.18-.44-.12-.38-.57-.57v-.57c.18.03.38-.03.57,0,.16.46.1.38.57.57Z"/>
  <path class="b" d="M409.7,388.3c-.29-.06-.51-.27-.57-.57.18.03.38-.02.57,0-.05.17.04.38,0,.57Z"/>
  <path class="b" d="M249.9,357.13c.06.17-.04.39,0,.57-.19.01-.38-.02-.57,0s-.38-.02-.57,0c-.05-.16.02-.37,0-.57h1.13Z"/>
  <path class="b" d="M251.6,358.83c.02.53,0,.7,0,1.13.07-.57-.24-.47-.57-.57-.15-.05-.37.02-.57,0v-.57c.19.01.38,0,.57,0s.38,0,.57,0Z"/>
  <path class="b" d="M256.7,363.37h-.57c-.11-.19-.17-.69-.56-.85l.27-.27c.39.34.7.59.85,1.12Z"/>
  <path class="b" d="M254.43,359.4v.57h-.57c-.02-.07-.83-.22-.57-.57.19-.02.38.02.57,0,.17-.02.39-.02.57,0Z"/>
  <path class="b" d="M253.87,361.1c.04.18-.04.38,0,.57h-1.13c-.11-.34-.13-.55-.57-.57.07-.03.46-.43.57-.57l1.13.57Z"/>
  <path class="b" d="M269.17,361.1s.07-.66.57-.57c-.04.31-.52.46-.57.57Z"/>
  <path class="b" d="M261.23,361.1h-.57c-.05-.2.07-.49,0-.57.22.15.41.34.57.57Z"/>
  <path class="b" d="M367.77,382.63v.57c-.6-.27-.63-.42-.57-1.13.19-.01.38.02.57,0v.57Z"/>
  <path class="b" d="M276.53,361.1c-.18,0-.39.03-.57,0-.03-.18,0-.38,0-.57.13.08.39-.06.57,0v.57Z"/>
  <path class="b" d="M294.67,366.2h-.57c0-.19-.01-.38,0-.57.19.19.4.35.57.57Z"/>
  <path class="b" d="M394.97,362.23c-.16.07-.4-.07-.57,0,.04-.19-.06-.42,0-.57.17-.03.38,0,.57,0-.03.2.06.43,0,.57Z"/>
  <path class="b" d="M276.53,395.67v.57h-.57c-.34,0-.53-.56-.57-.57l.57-.57c.2.18.38.37.57.57Z"/>
  <path class="b" d="M272,390h.57c.2.38.07.45.57.57.13.03.44.04.57,0l1.13,1.13s-.03.43-.32.52c-.6.19-1.47.4-1.94.61,0-.19.02-.38,0-.57-.04-.37.02-.76,0-1.13l-.28-.56-.28.56-.57,1.13h-1.13c.04-.15,0-.38,0-.57,0-1.84-.34-.82-1.13-1.13-.37-.14-.87-.7-1.13-.57.14-.07.34-.99.91-1.09.76-.13,1.89,1.54,3.06,1.09Z"/>
  <path class="b" d="M219.3,409.83c-.2.03-.43-.05-.57,0v-.57h.57v.57Z"/>
  <path class="b" d="M233.47,415.5v.57c-.42.19-.37.1-.57.57h-.57v-1.13c.16-.04.37.02.57,0,.19-.02.38.01.57,0Z"/>
  <path class="b" d="M240.27,416.63h-.57c.04-.17-.03-.38,0-.57.18-.03.38.02.57,0,.06.15-.05.39,0,.57Z"/>
  <path class="b" d="M248.77,419.47h-.57c.01-.19-.02-.38,0-.57.19-.01.38.01.57,0v.57Z"/>
  <path class="b" d="M250.47,418.9c-.19.02-.38,0-.57,0v-.57c.19,0,.38-.02.57,0v.57Z"/>
  <path class="b" d="M203.43,360.53c-.19.02-.38-.01-.57,0-.04-.16.02-.37,0-.57.39.17.38.33.57.57Z"/>
  <path class="b" d="M205.13,359.4c.29.08.51.25.57.57-.18.02-.38,0-.57,0h-1.13v-.57c.19.01.38-.02.57,0,.2.02.41-.04.57,0Z"/>
  <rect class="b" x="211.37" y="362.23" width=".57" height=".57"/>
  <path class="b" d="M234.6,366.77c.17.05.39-.04.57,0v1.13c-.18-.03-.38.02-.57,0-.36-.05-.76.03-1.13,0-.04-.32-.24-.54-.57-.57l.57-1.13c.35.19.77.45,1.13.57Z"/>
  <path class="b" d="M241.4,370.73c.02.19-.03.38,0,.57h-.57c-.19-.01-.38.02-.57,0s-.4.04-.57,0c-.04-.18.05-.39,0-.57.19.03.38-.02.57,0,.36.05.76-.03,1.13,0Z"/>
  <path class="b" d="M238,369.03v.57c-.48.11-.43.16-.57.57-.16-.06-.4.06-.57,0-.1-.04-.26-.44-.57-.57-.13-.05-.37.02-.57,0,0-.19,0-.38,0-.57v-1.13c.87.19,1.78,1,2.27,1.13Z"/>
  <path class="b" d="M239.13,385.47c.18-.67.45-.66,1.13-.56.15.13-.42.77-.57,1.13h-.57v-.57Z"/>
  <path class="b" d="M244.23,384.9v.57l-.57.57h-.57c-.1-.22-.83-.17-1.13-1.7.19.01.38-.02.57,0,.61.08,1.18.23,1.7.57Z"/>
  <path class="b" d="M230.63,390c.05.13-.03.37,0,.57-.38-.02-.76.03-1.13,0,0-.19.02-.38,0-.57s.03-.38,0-.57c.19.05.42-.07.57,0,.15.49.06.42.57.57Z"/>
  <path class="b" d="M198.33,358.83c-.15.19-.52.39-.57.57-.16-.04-.37.02-.57,0,0-.18-.03-.39,0-.57.38-.11.76-.4,1.13-.57v.57Z"/>
  <path class="b" d="M435.2,386.03c.09.11-.09.44,0,.57h-1.13c.34-.71.43-.49,1.13-.57Z"/>
  <path class="b" d="M418.77,390.57c.04.13.02.42,0,.57-.03.2.05.41,0,.57,0,.03-.4-.05-.56.28l.29.29,1.41-.57h.57c-.01.19.01.38,0,.57s.02.38,0,.57c-.02.2.05.41,0,.57-.18.04-.38-.03-.57,0l-.56.28.56.28c.57.07.47-.24.57-.57.18-.04.39.04.57,0s.39.04.57,0c.36-.09.76-.43,1.13-.57.19.01.38,0,.57,0,.38.01.76-.01,1.13,0s.76,0,1.13,0h1.7c.18.44.12.38.57.57.13.05.37-.03.57,0,.18.03.38-.01.57,0s.39.02.57,0c.19-.02.4.03.57,0,.11.36-.04.55.57.57.3,0,.79-.43,1.13-.57.06.31.27.48.57.57.16.04.37-.02.57,0,.19.02.38-.01.57,0,.18.44.12.38.57.57.13.05.37-.03.57,0,.19.03.38-.02.57,0,.04.2-.06.42,0,.57.13.31.45.41.57.57.16.22.38.37.57.57.26.28,1.58,1.68,1.7,1.7.66.13,1.34-.53,1.7-.57.19.48.62,1.09,1.13,1.13.42.03.53-.56.57-.57.18-.02.38,0,.57,0s.38,0,.57,0,.38.01.57,0c.19.35.12.41.57.57.14.05.37-.01.57,0,.19.61.59.88,1.13,1.13.13.06.37-.05.57,0,.07.02.14.43.28.4.17-.02.2-.37.29-.4.29-.1.97-.4,1.13-.57s.4-.17.57-.57c.2.03.43-.05.57,0,.07.14-.05.38,0,.57-.19.19-.38.38-.57.57-.17.17-.47.28-.57.57-.2.02-.41-.04-.57,0-.67.17-.7.41-.57,1.13.15.77.9.4,1.13.57.2.14.37.48.57.57.72.33.5.47,1.7.57.19.01.38-.01.57,0h.57c.19.17.41.38.57.57.17.21.36.4.57.57v.57c-.19-.02-.38.02-.57,0,.08-.51-.27-.44-.57-.57-.11-.04-.38,0-.57,0s-.39-.03-.57,0c-.19.03-.45.56-.57.57-.19,0-.38-.01-.57,0-.73.05-1.16-.11-2.27,0-.19.02-.38-.02-.57,0s-.39-.04-.57,0c-.04-.19.06-.42,0-.57-.48-1.2-.88-.82-1.7-1.13-.14-.06-.37.04-.57,0-1.32-.24-1.11.02-1.7,0-.19,0-.38,0-.57,0s-.39.02-.57,0c-.2-.03-.44.05-.57,0-.07-.03-.22-.41-.57-.57-.09-.04-.28-.4-.57-.57-.14-.08-.43.08-.57,0-.34-.21-.87-.34-1.13-.57-.08-.07-.56-.53-.57-.57-.01-.25.79-.92.57-1.13-.39-.37-1.07.56-1.13.56-.34.03-2.18-.94-2.83-1.13-.53-.16-.78-.37-1.7-.57-.18-.04-.39.04-.57,0s-.38.03-.57,0-.39.04-.57,0l-.57-.57h-.57c-.1-.06-.09-.58-.57-.57-.4.01-.47.51-.57.57-.15.09-.47-.09-.57,0-.59.58-.72,1.72-1.7,2.27-.07.68.55.53.57.57.04.06.37.05.4.28.04.36-.37.97-.4,1.42-.23.15-.42.33-.57.57-.09-.08-.35-.03-.5-.33-.11-.23-.04-.54-.07-.81-.03-.25.98-.12-.57-1.13-.11-.07-.2-.55-.57-.57-.25-.01-.89.59-1.13.57-.04,0-.1-.49-.57-.57-.17-.03-.39-.01-.57,0l-.28-.56-.28.56c-.07.07.05.37,0,.57h-.57c-.08-.36-.49-.78-.57-1.13.19-.04.41.06.57,0,.33-.12.4-.41.57-.57.19-.18.47-.28.57-.57h.57c.07.41.06.62.57.57.04.19-.06.42,0,.57.07.17-.09.46.28.56.35,0,.26-.54.28-.56.08-.07.56.15.57-.57,0-.48-.49-.46-.57-.57-.16-.23-.33-.4-.57-.57-.11-.08-.12-.47-.27-.46-.13.13-.24.28-.29.46-.17-.04-.37.02-.57,0s-.38.01-.57,0-.38,0-.57,0-.38,0-.57,0-.38,0-.57,0c.1-.43.84-.9.56-1.7-.13-.13-.84.41-1.13.57.26-1.04-.95-1.39-1.13-1.7-.32-.53-.52-1.08-.57-1.7.34.07.88-.1,1.13,0,.03.01-.06.38.28.56l.29-.29c.33-.71-.45-.69-.57-.85-.16-.22-.33-.42-.57-.57.03-.13.03-.44,0-.57.22-.15.37-.39.57-.57s.36-.4.57-.57c.11-.09.47.09.57,0Z"/>
  <path class="b" d="M393.83,363.37c-.23.1-.44.53-.57.57-.16.04-.37-.03-.57,0-.18.02-.38,0-.57,0h-.57v-.57c.19,0,.38.02.57,0,.2-.03.43.05.57,0,.47-.19.37-.15.57-.57.19-.02.38.03.57,0-.07.14.05.38,0,.57Z"/>
  <path class="b" d="M389.3,366.77h-.57c-.03-.17.02-.38,0-.57.42-.16,1.19-1.76,2.27-1.7-.37.92-1.39,1.65-1.7,2.27Z"/>
  <path class="b" d="M256.7,361.1c.37.03.77-.05,1.13,0v.57c.04.18-.06.4,0,.57-.17.02-.4.02-.57,0-.21-.03-.99-.84-1.71-.6l.57-.54h.57Z"/>
  <path class="b" d="M271.43,361.67c-.03.17,0,.39,0,.57-.15-.06-.38.05-.57,0-.11-.04-.26-.45-.57-.57-.01-.19,0-.38,0-.57.16-.05.37.02.57,0,.06.3.28.51.57.57Z"/>
  <path class="b" d="M265.2,374.13c.06.31.27.48.57.57.16.04.37-.02.57,0,.07.08-.05.38,0,.57-.12-.08-.4.08-.57,0-.35-.16-.84-.51-1.13-.57-.17-.03-.39,0-.57,0-.04-.17.04-.38,0-.57.16.06.39-.05.57,0s.39-.05.57,0Z"/>
  <path class="b" d="M215.9,408.13h.57v.57c-.19.02-.38-.03-.57,0-.2.03-.43-.05-.57,0-.19-.42-.1-.37-.57-.57v-.57l1.13.57Z"/>
  <path class="b" d="M202.3,365.07c-.19,0-.38,0-.57,0-.04-.13,0-.38,0-.57.19,0,.38,0,.57,0v.57Z"/>
  <path class="b" d="M231.77,367.9c.19,0,.38,0,.57,0v.57c-.37.03-.76-.04-1.13,0-.2.02-.42-.05-.57,0-.03-.2.05-.42,0-.57.19,0,.38,0,.57,0s.38,0,.57,0Z"/>
  <path class="b" d="M202.87,357.7v-.57c.19,0,.38,0,.57,0l-.57.57Z"/>
  <path class="b" d="M210.8,353.17c.19-.03.38.03.57,0,.03.19-.04.39,0,.57-.2.01-.44-.05-.57,0-.31.12-.46.52-.57.57-.37.03-.81-.06-1.13,0-.29.06-.53.25-.57.57-.19.02-.38-.02-.57,0v-.57c.11-.15.41-.27.57-.57.18-.04.38.03.57,0s.43-.55.57-.57c.18-.03.38.03.57,0s.38.03.57,0Z"/>
  <path class="b" d="M456.73,401.9h-.57c0-.19-.02-.39,0-.57.18-.03.38,0,.57,0v.57Z"/>
  <path class="b" d="M221.57,410.97c-.53.18-1.14.82-1.7,1.13.01-.19,0-.38,0-.57.29-.1.39-.39.57-.57.19-.19.42-.34.57-.57.19,0,.38,0,.57,0,0,.17.03.4,0,.57Z"/>
  <path class="b" d="M200.6,365.07c-.19,0-.38.01-.57,0v-.57c.19,0,.38,0,.57,0v.57Z"/>
  <path class="b" d="M248.77,373v.57c-.19-.02-.39.04-.57,0-.2-.04-.43.06-.57,0v-.57h1.13Z"/>
  <path class="b" d="M236.87,384.33c.19,0,.38,0,.57,0s.38,0,.57,0c.12.37.51.8.57,1.13s-.03.76,0,1.13c-.17.08-.45-.08-.57,0-.27.2-.36.08-.57.57-.18,0-.39-.03-.57,0-.2.03-.42-.05-.57,0v-.57l-.57-.57c-.04-.22-.91-.97-.57-1.7.57,0,1.13.01,1.7,0Z"/>
  <path class="b" d="M223.27,388.3c0-.06-.86-.63-.56-1.13.52-.87.51,1.06.56,1.13Z"/>
  <path class="b" d="M217.6,390.57c-.18.05-.39-.05-.57,0,.05-.29.28-.52.57-.57v.57Z"/>
  <path class="b" d="M215.9,390l.57.57c-.53.23-1.19.77-1.7,1.13-.22.15-.37.39-.57.57-.19.04-.41-.06-.57,0-.67.25-1.03,1-1.7,1.13-.68-.83.97-2.43,1.7-2.83.78-.43,2.18-.49,2.27-.57Z"/>
  <path class="b" d="M195.5,358.83c-.19.02-.38-.01-.57,0,.1-.04.26-.44.57-.57-.03.18.04.39,0,.57Z"/>
  <path class="b" d="M219.3,348.07c0,.18-.03.4,0,.57-.16.05-.38-.05-.57,0s-.42-.06-.57,0c0-.19,0-.38,0-.57.19,0,.38.01.57,0s.38.02.57,0Z"/>
  <path class="b" d="M466.37,355.43c-.14-.05-.37.01-.57,0-.02-.19.02-.38,0-.57h.57v.57Z"/>
  <path class="b" d="M228.93,385.47l.28.56.28-.56c.75-.04,1.51.03,2.27,0h.57c-.37,2.03-1.05.67-1.7,1.7-.2.02-.41-.04-.57,0-.29.08-.51.25-.57.57-.19.05-.42-.06-.57,0-.11-.16,0-.66-.57-.57l-.56-.57v1.13c-.19,0-.38,0-.57,0-.12,0-1.28-.75-2.26,0l.56-1.7c.18-.03.38.03.57,0s.38.03.57,0,.38.02.57,0c.17-.02.44-.55.57-.57.37-.04.76.04,1.13,0Z"/>
  <path class="b" d="M222.13,387.17c-.1.25.07.78,0,1.13l-1.13-1.13c.37-.02.79.05,1.13,0Z"/>
  <path class="b" d="M210.8,395.67c-.06.29-.27.51-.57.57-.02-.17-.03-.4,0-.57.03-.2-.05-.42,0-.57h.57c-.06.13.04.37,0,.57Z"/>
  <path class="b" d="M210.8,404.17c.02.19-.03.38,0,.57-.18-.04-.38.03-.57,0h-.57v-.57c.37.03.76-.02,1.13,0Z"/>
  <path class="b" d="M192.67,361.67h-.57v-.57c.18-.03.38.02.57,0v.57Z"/>
  <path class="b" d="M497.53,436.47c-.27-.17-1.32-.03-1.72.25-.86.61-.26,2.39-.79,3.17-.44.65-2.11.44-2.85,1.69-.63,1.06-1.02,4.07-.85,5.33.35,2.58,3.8,4.14,5.34,6.02s3.74,5.99,4.31,8.15c.71,2.68,3.02.53,3.64-.82,1.06-2.29-1.08-7.52-1.96-9.94-1.02-2.83-3.63-7.21-4.44-9.73-.24-.74-.27-3.86-.69-4.13Z"/>
  <path class="b" d="M494.13,432.5c2.97-.39,1.09-.5,2.42-2.11.65-.79,4.91-2.85,5.5-2.42.44,2.96,1.4,5.56,2.93,8.13.55.92,1.82,1.62,2.07,2.46,1.18,3.98,2.22,16.16,1.81,20.29-.43,4.35-1.74,7.71-3.11,11.63s-1.5,9.39-3.58,13.42c-.3.58-2.78,4.19-3.1,4.32-1.54.64-3.7-.65-3.83-2.18-.26-3.14,2.51-3.72,2.8-4.61.19-.57-.31-2.81-.57-2.98-1.89-1.28-4.62,3.02-4.49,4.73.07.93.85,1.63,1.04,2.43.79,3.44-3.52,7.79-4.31,11.33-.7,3.15-.44,6.35-1.13,9.64-.21,1.01-.21,5.09-2.1,4.68-.5-.11-2.95-3.66-2.94-4.24,0-.55.83-1.38.93-2.29.14-1.26.67-5.95.6-6.77-.11-1.46-2.11-1.9-2.3-3.44-.15-1.19,1.19-4.64.59-5.36-.97-1.16-2.08,2.82-2.43,3.23-.28.33-2.37,1.61-2.66,1.3-.02-.81-.08-1.63.12-2.43,1.11-4.49,1.42-9.35,2.3-14.14.8-4.39.65-4.04.42-8.37-.01-.19,0-.38,0-.57.9-.52.46-.9.57-1.7.03-.18-.02-.38,0-.57.88-.48.48-.87.57-1.7.43,0,.44-.26.57-.57.05-.13-.02-.37,0-.57.02-.19-.02-.38,0-.57.79-.37.42-.52.57-1.13.04-.17-.02-.37,0-.57.36-.16.43-.04.57-.57.04-.16-.02-.37,0-.57.05-.56-.03-1.14,0-1.7.02-.38-.01-.76,0-1.13.4-.14.45-.09.57-.57.08-.32-.05-.77,0-1.13.02-.18-.02-.38,0-.57s-.01-.38,0-.57c.27-.2.36-.08.57-.57.06-.14-.04-.37,0-.57.31-.06.48-.27.57-.57.04-.16-.02-.37,0-.57.02-.19-.01-.38,0-.57.42-.19.37-.1.57-.57.05-.13-.03-.37,0-.57.03-.19-.02-.38,0-.57.71-.05.46-.69.57-1.13.04-.17-.03-.37,0-.57s-.02-.38,0-.57c.42-.19.38-.1.57-.57.06-.16-.06-.39,0-.57,1.09-.47.91-.72,1.13-1.7.04-.17-.03-.38,0-.57.44-.18.38-.12.57-.57.05-.13-.03-.37,0-.57.03-.19-.03-.38,0-.57.44-.18.38-.12.57-.57.06-.16-.06-.39,0-.57.64-.33.84-.42,1.13-1.13.07-.16-.06-.4,0-.57.77-.31.75-.63,1.13-1.13.13-.17.47-.3.57-.57.06-.15-.04-.37,0-.57.04-.18-.03-.38,0-.57.35-.14.39-.35.57-.57.44-.53.4-.4.57-1.13.04-.17-.03-.38,0-.57.75-.36.46-.47.57-1.13.03-.18-.02-.38,0-.57Z"/>
  <path class="b" d="M456.55,582.77c-2.72.82-1.58,4.83-2.36,6.14-.83,1.41-4.2,1.3-3.02,5.27.69,2.3,4.1,2.51,5.72,3.35,2.16,1.12,4.2,7.99,4.81,10.49l4.94,9.22.88-6.53c-.85-6.62-8.13-12.25-7.36-19.19.25-2.24,2.09-3.75,1.57-6.16s-2.87-3.27-5.18-2.57Z"/>
  <path class="b" d="M473.73,558.87c2.57-1.33,5.47,2.29,6.52,2.29,1.62.01,1.56-1.67,2-2.29.06-.09,1.8.81,1.99,1.12.51.83.21,2.76.51,4.02.69,2.91,4.7,8.83,4.2,12.01-1.21,1.66-1.04,4-1.73,5.67-1.27,3.09-1.93-.84-2.43-1.86-1.68-3.44-2.88-6.93-3.12-10.77h-1.7c-.2,1.64.85,3.17.58,4.8-.19,1.18-1.14,1.4-1.42,2.01-1.14,2.45.68,5.16.26,7.61-.22,1.27-1.58,2.4-1.67,4.04-.12,2.44,3.42,5.96-1.44,5.92-1.21,0-3.65-.89-4.55-1.71-.99-.89-1.53-3.35-3.37-2.85-1.09.3-1.32,5.1-1.58,6.36-.12.55-.81,1.08-.96,1.87-.8,4.2,1.89,5.3,2.68,8.05,1.4,4.86,1.12,2.87,3.79,6.41,1.18,1.57,2.48,4.6,3.7,5.94,1.6,1.77,6.33,1.88,4.7,5.21-1.22,2.5-3.13.73-4.96.7-1.62-.02-3.45,1.13-5.12,1.18-3.27.09-10.27-2.96-6.61,3.77,2.02,3.7,3.64-.05,5.8,2.14.42.42,3.34,4.73,3.4,5.11.32,1.77-3.56.76-2.85,2.27s2.92,1.4,3.94,2.29c.49.42.63,1.3,1.18,1.66s4.81,1.79,5.07,1.44c-.21-3.05.53-5.13,3.97-4.54.64,2.73-.65,4.1-1.43,6.22-.33.9-.15,1.98-.56,2.84-.94,1.95-2.57.62-3.96.57-6.21-.21-6.42-.77-11.88-2.85-.93-.36-2.57-.4-3.15-.82-.69-.5-.76-2.41-1.67-3.43-1.1-1.23-2.8-1.16-4.02-2.21-.46-.4-7.36-8.85-7.58-9.42-.62-1.59-.1-4.7-3.14-3.08-2.83,1.51-4.66,1.62-7.36,2.84-6.57,2.97-8.43,11.81-8.22,18.4-1.62-1.93-3.01-5.83-3.08-8.28-.04-1.24,1.6-8.7,2.06-10.31s1.82-4.98,2.76-6.31c2.28-3.23,7.93-4.31,8.72-9.41.49-3.14-.44-3.95-1-6.33-.72-3.09,1.6-2.97,2.06-4.51.61-2.07-.1-6.06-.62-8.24-.31-1.33-1.46-2.69-1.47-4.11-.06-9.78,2.84-16.18,10.15-22.66.65-.58,1.72-.52,2.27-1.26,2.35-3.19,2-6.48,3.63-9.83,1.17-2.42,3.52-4.2,4.41-5.79,2.25-4.03,1.73-9.67,6.48-12.8,2.53-1.67,3.76-.76,6.01-1.35,1.69-.44,3.48-3.24,4.93-3.59,1.96-.47.78,3.43.42,4.4-1.69,4.54-1.36,5.33-2.35,9.55-.42,1.81-1.94,3.29-2.45,5.48-.18.76-.95,6.17-.71,6.38Z"/>
  <path class="b" d="M199.39,646.63c.98-1.45-.46-5.1-2.77-4.22-.88,1.9-4.05,4.77-.27,4.91.6.02,2.82-.36,3.05-.69Z"/>
  <path class="b" d="M214.63,651.66c1.07-1.06,4.68-9.87,4.69-11.47,0-2.7-2.15-7.53-2.25-10.26-.08-2.04,1.87-4.1,1.69-5.58-.1-.79-.91-1.29-1.01-1.82-.12-.63.48-1.98.39-3.24-.06-.78-.69-3.44-1.39-3.76-1.4.99-1.15,3.72-1.66,4.56s-2.31.42-3.31.66c-.68.16-1.29.79-1.89.86-2.25.26-7.65-2.3-9.33-.18s.22,7.1,2.31,8.55c0,.74-3.8,1.19-3.96,4.01-.04.66,1.47,4.75,1.85,5.19.67.76,3.32,1.8,4.35,2.73,3.27,2.97,1.63,6.52-.53,9.61-.85,1.21-6.25,6.33-6.23,6.79.14,3.06,10.51-1.68,11.86-2.87.75-.66,1.09-1.78,2-2.54.78-.64,2-.83,2.43-1.25Z"/>
  <path class="b" d="M174.57,604.23c-.4.57-.06,2.43.89,2.74.87.28,5.69-.54,5.87-1.37.41-1.9-6.36-1.95-6.76-1.38Z"/>
  <path class="b" d="M168.07,602.54c-2.54.78,2.04,6.82,3.35,6.73.92-.06,1.69-3.11,1.34-4.14-.3-.89-3.5-2.96-4.7-2.6Z"/>
  <path class="b" d="M199.89,594.66c-1.04.3-7.11,4.39-8.32,5.32-1.52,1.17-3.69,2.64-3.97,4.54-.74,5.02,2.21,3.39,3.94,5.06.71.69.54,1.95,1.7,2.83,2,1.53,5.75,1.46,8.19,2.02,5.99-.87,14.28-.46,8.71-8.72-1.18-1.76-4.66-4.17-5.28-5.49-.85-1.81-.89-6.72-4.98-5.56Z"/>
  <path class="b" d="M162.63,562.83c-3.24-.59-1.54,2.51-1.93,3.99-.27,1.01-1.52,1.68-2,3.13-.86,2.58-1.49,9.76-1.2,12.46.25,2.3,1.19,2.8,2.26.51,1.29-2.74,3.11-5.45,3.31-8.64.09-1.48-.58-2.53-.46-3.75.11-1.04,1.09-1.88,1.11-2.86.02-1.34-1.51-3.17-1.1-4.83Z"/>
  <path class="b" d="M199.46,553.2l-6.23-.57c.26,2.37-.38,5.37.02,7.63.2,1.12,1.28,2.13,1.55,3.55,1.09,5.76-2.46,5.51-2.57,8.48,0,.24,1.14,4.3,1.31,4.69.15.33,2.47,3.26,2.77,3.46,2.36,1.57,4.88-.66,5.68-2.89.56-1.56.55-8.56.18-10.34-.61-2.95-3.69-5.79-3.83-10.4-.04-1.47,1.4-2.09,1.12-3.6Z"/>
  <path class="b" d="M221,574.17c.13.45-.16,1.3.01,1.94.25.91,1.05,1.58,1.12,2.33.22,2.13-2.05,8.08-3.59,9.71-1.35,1.43-4.14,1.96-4.79,2.58-1.79,1.69.12,10.01,1.56,11.94.64.87,2.26,1.19,3.1,2.14,2.01,2.27,1.06,4.51,1.57,6.93s2.29,5.8,2.67,8.66c.66,4.91-1.89,6.23-2.04,9.68-.11,2.76,1.43,6.45,1.47,9.04.09,6.05-6.04,14.96-10.77,18.59-3.74,2.87-12.56,6.13-17.21,5.4-2.27-.36-9.88-3.34-11.65-4.78-.98-.79-2.92-2.45-2-3.71.14-.2,3.49-3,3.71-3.1,1.06-.47,2.29-.18,3.43-.54,3.19-.99,3.86-5.08,3.36-7.96-.63-3.63-7.55-3.43-8.75-5.97-1.7-3.6,1.17-7.04.54-8.51-1.28-2.95-3.91.37-5.1.59-5.74,1.05-8.35-6.82-11.6-9.93-1.74-1.66-7.36-6.69-9.11-7.89-3.38-2.31-5.77-1.16-8.01-6.15-1.58-3.52-.23-3.33.11-5.83.22-1.57-.61-2.84-.54-4.41.08-1.83,1.69-5.38,1.53-6.81-.13-1.16-1.49-2-2-3.03-1.04-2.11-2.15-9.39-1.71-11.65.29-1.46,1.41-3.93,1.86-5.5,1.24,2.57,2.43,6.01,5.95,5.67.87-1.58.2-9.32.57-9.64.26-.22,2.58.42,3.14-.55,2.08-5.67,4.31-11.21,7.35-16.45,3.65,1.36,1,4.82.88,7.14-.24,4.27,3.88,2.3,5.64,3.33,2.31,1.35,3.1,11.45,4.1,14.6,1.22,3.82,2.02,1.95.3,6.81-1.43,4.04-2.64,6.8-.88,11.34.37.96,1.27,1.83,1.46,2.51.83,3.06-1.01,7.35,4.36,6.38,1.17-.21,5.65-3.17,5.86-4.3.12-.68-.77-2.02-.45-2.47.19-.27,4.53-.94,5.83-3,2.67-4.22-.84-5.7-1.19-8.76-.34-2.95,3.52-6.97-1.83-8.91-3.26-1.18-4.08,1-6.53,1.37-1.76.27-3.65.45-3.41-1.67.12-1.07.91-6.08.83-6.48-.23-1.12-3.02-1.14-3.27-1.53-.13-.2-.64-4.18-.66-4.77-.15-4.23,1.77-8.06,2.27-11.34.91-5.99.77-10.87,3.57-16.83.63-1.34,3.24-4.28,3.28-5.25.08-1.96-3.1-.65-3.75-3.1-.35-1.32.66-2.17.8-3.29s-.32-1.91.05-3.24c.31-1.11,2.84-4.98,3.84-5.28,3.47-1.07,2.12,2.47,5.28,2.16.01.19-.02.38,0,.57-.8.33-1.49,1.29-1.61,2.11-.31,2.15,1.13,6.86,2.3,8.81.56.94.89,1.55,2.14,1.55.07.35.49.78.57,1.13-2.92,2.11.5,5.93,1.29,8.62s1.1,5.32.97,8.1c-.08,1.6-1.16,3.14-.29,4.82.76,1.48,3.48,1.32,4.79,2,2.01,1.05,3.73,4.95,6.26,5.35h.57c.56,1.05,1.02,2.32,1.7,3.4.15.24.45.39.57.57.16.24.45.39.57.57.09.13-.09.44,0,.57.62.93,1.47,1.37,1.7,1.7.09.13-.09.44,0,.57.45.64,1,.94,1.13,1.13.09.14-.09.45,0,.57.19.25.48.44.57.57.5.8.64,1.93,1.7,2.27.08.15-.07.41,0,.57.26.56.51.94,1.13,1.13.71.99,3.18,4.31,3.4,5.1Z"/>
  <path class="b" d="M194.49,149.05c2.38,2.37,6.85-5.39,8.66-6.69,1.46-1.05,3.17-1.07,4.25-2.54-.7-1-1.32-1-2.44-.75-.95.21-5.63,2.88-6.57,3.63-.68.54-4.2,4.22-4.33,4.72-.12.46.11,1.31.43,1.63Z"/>
  <path class="b" d="M221,131.6c-.31,1.5.38,2.9.47,4.26.04.64-.57,1.4-.39,2.16.13.54,1.43,1.6,1.92,2.65.71,1.55,2.49,6.61,1.27,7.81-1.92.32-3.49,2.92-5.22,2.91-.71,0-1.49-.6-2.28-.52-1.46.13-1.2.7-4.06.65-3.34-.06-6.75.07-10.15-.04-1.54-.05-3.25-.73-4.46-.6-.32.03-3.46,1.14-3.61,1.26-.71.59-.32,3.34-2.11,3.31-1.59-.03-1.64-2.07-2.4-2.29s-3.58-.62-4.4-.62c-1.86,0-4.21,1.78-5.95.61-1.4-.94,3.16-3.99,3.79-4.43,3.66-2.55,8.69-5.06,12.59-7.24,7.87-4.38,15.76-9.09,24.99-9.87Z"/>
  <path class="b" d="M268.03,148.03c1.93-1.73-4.87-2.54-5.49-2.62s-1.32.42-2.02.25c-.56-.14-2.05-1.64-2.69-1.02-.41.4-.02,1.74.97,2.14,2.89,1.18,4,.02,6.09.12.96.05,2.66,1.56,3.14,1.13Z"/>
  <path class="b" d="M278.8,156.53c-.7.64,2.89,3.45,3.41,3.67,1.07.46,2.19.18,3.37.6.77.27,5.52,3.63,5.99,4.21.34.42.34.62.27,1.14-1.01-.02-2.06.11-3.07-.04s-5.79-2.1-6.97-2.66c-1.33-.62-1.99-2.11-3.02-2.65-1.27-.66-2.76-.46-4.23-1.44-.4-.26-3.1-2.91-3.1-3.13,0-1.83,4.66-.81,5.66-1.13-1.19-1.77-7.56-5.11-8.99-3.04-.59.85.85,3.61-.93,3.33-1.68-.26-1.59-1.75-2.59-2.52-.58-.45-1.51-.49-2.28-1.13-1.13-.96-1.44-2.86-3.67-3.17-1.8.39-3.74.74-5.51,1.16-.52.12-.42.88-.78,1.11-1.47.95-7.5-.33-10.12-.02-2.39.28-5.14,1.76-7.91,1.77-3.84.02-6.86-3.8-7.54-7.27-.79-4.07,2.39-3.16,4.18-4.66,1.12-.94.24-2.58,3.05-1.42,1.16.48,3.27,3.36,4.55,1.96.94-1.03-.78-1.17-1.13-1.39-.84-.55-3.04-1.54-3.32-2.37-1.54-4.69,3.19-4.1,5.27-.74.77,1.24.72,2.94,1.43,3.67.85.87,3.49,1.39,4.74,2.06.66.35,1.51,1.56,1.79,1.62,1.54.35,1.56-2.44,1.41-3.4,2.19.02,3.49,1.76,5.85,1.04,1.61-.49,2.05-4.1,4.59-3.88,3.61.3,2.89,2.41,4.03,3.96.93,1.27,5.16,2.27,6.77,2.32,1.31.05,3.24-.58,3.9-.47,1.28.23,9.03,2.87,11.13,3.54,5.42,1.72,8.76,4.94,13.77,7.06-.21,1.75,5.49,5.57,5.48,5.98-.03,1.46-3.47,1.56-4.69,1.29-2.72-.59-6.98-4.98-9.75-4.98h-11.05Z"/>
  <path class="b" d="M165.46,284.61c.51.65-.86,3.05-.56,3.39,1.78-1.42,3.62.64,4.25,2.3.9,2.35-2.86,8.26-5.08,9.63-1.33.82-5.01,1.27-4.25,4.17.67,2.57,5.23-.48,6.41-.89.63-.22,1.24-.65,1.5.39.57,2.31-2.17,3.94-3.4,5.37l3.35.61c.39,1.64-.13,2.68-1.09,3.92,3.65.04,1.44,1.76,1.67,3.67.15,1.29,1.71,1.67,1.64,2.74-.03.41-1.12,5.55-1.29,6.1-.59,1.88-3.61,3.33-4.19,6.02-.49,2.29,2.38.95,2.57,2.71.04.43-2.15,7.7-2.42,8.2-.55,1.05-2.13,1.8-2.76,2.9-1.16,2.02-.25,5.16-2.88,5.62-5.27.91-4.25-1.1-6.5-4.1-.42-.56-1.4-.64-1.64-1.34-.62-1.84.97-4.22.51-6.06-.14-.56-2.66-.9-2.29-4.03.11-.94.86-1.64,1.02-2.43.3-1.54.06-2.78.66-4.44.53-1.46,2.61-3.44,2.74-4.58.1-.91-.73-1.82-.76-2.75-.02-.7.99-5.08,1.32-5.81.96-2.18,4.1-3.32,5.52-5.25l3.68-2.26c-2.45-.08-2.52-3.67-4.79-3.44-1.47.15-4.58,4.89-5.4,4-.45-2.33.46-4.02,1-6.08.93-3.62.98-2.51,2.28-5.09,2.61-5.16.57-6.58,6.02-11.54.53-.48.79-1.59,1.45-1.97.21-.13,1.65.26,1.71.32Z"/>
  <path class="b" d="M353.56,153.66c-.36.53-3.28.47-4.09.72-1.07.33-1.34,1.82-2.66,1.58.04-1.08-.43-3.54.9-3.93,1.6-.47,2.43.98,2.79.98.5,0,1.9-2.12,2.26-2.14.69-.05,1.19,2.23.81,2.78Z"/>
  <path class="b" d="M176.23,211.5c-.98,3.99-3.6,7.06-7.93,5.09.68-1.59,2.75-.95,3.96-1.99,1.36-1.17.87-3.86,3.97-3.1Z"/>
  <path class="b" d="M362.67,123.67c1.07-2.45-1.64-6.07,1.97-6.28,5.08-.29.72,5.44-1.97,6.28Z"/>
  <path class="b" d="M274.13,137.41c.35.27,1.28,1.87-.15,1.57-1.35-.29-2.62-1.29-4.09-1.58-2.49-.49-5.45.15-7.51-2.11.8-1.18,1.2-.76,2.28-.6,1.17.17,8.94,2.31,9.47,2.72Z"/>
  <path class="b" d="M500.37,226.23c-2.5.22-4.16.2-5.67-1.98l2.84-1.71-1.14-1.96c4.97-1.89,3.2,2.39,3.97,5.66Z"/>
  <path class="b" d="M462.38,212.66l.02,5.08c-6.58-.55-8-6.89-.02-5.08Z"/>
  <path class="b" d="M415.36,171.27c-1.38,4.52-6.81,4.81-10.76,5.66l3.85-3.35c2.42-.81,4.12-2.83,6.92-2.31Z"/>
  <path class="b" d="M494.56,184.44c1.33,1.3,2.55,6.79-.58,6.55-3.35-.26-.39-3.43-.66-3.86-.11-.18-2.58-3.11-2.74-3.25-.88-.75-2.51-.42-3.24-1.57.86-1.22.97-.59,1.96-.28.89.28,4.79,1.95,5.25,2.4Z"/>
  <path class="b" d="M404.6,168.44c.22.22-.04,1.73-.29,2.26-.82,1.79-7.18,4.62-9.34,3.97-.93-.84,3.85-4.34,4.58-4.77.98-.57,4.22-2.29,5.05-1.46Z"/>
  <path class="b" d="M368.33,157.67c-.52,1.87-2.27,2.84-3.41,4.24-.66.82-.68,1.9-1.66,2.87-.65.64-3.98,2.53-4.57,1.95-.83-3.02,7.79-10.6,9.63-9.06Z"/>
  <path class="b" d="M504.32,234.71c-.21.16-4.69,1.09-5.24,1.04-1.11-.11-5.15-2.05-6.39-2.69-.8-.42-1.63-.49-1.39-1.72,1.84-.32,3.79,1.05,5.43,1.1s6.83-1.72,7.54.38c.12.35.15,1.83.04,1.9Z"/>
  <path class="b" d="M149.6,303.87c.06.25.07,1.53,0,1.7-.22.53-2.43,2.88-3.4,2.27-.13-.2-1.3-.83-1.7-1.13-.19-.24-.08-.36-.57-.57-.16-.07-.41.07-.57,0-.04-.17.02-.37,0-.57s.01-.38,0-.57.01-.38,0-.57,0-.38,0-.57c-.03-.56.01-1.13,0-1.7,0-.19,0-.38,0-.57s0-.38,0-.57,0-.38,0-.57,0-.38,0-.57c1.84-.2,5.79,2.29,6.23,3.97Z"/>
  <path class="b" d="M432.93,129.33c-1.69-.18-3.75.29-5.36-.01-.79-.15-1.28-.82-1.87-.97-1.82-.45-5.55-.04-4.63-3.21.83-2.84,8.92,1.22,10.54,2.4.7.51,1.57.59,1.31,1.8Z"/>
  <path class="b" d="M506.6,263.07c.51-.22,4.03-.67,4.56-.31,1.13.78-.53,2.82.84,3.14,1.07.25,2.65-1.46,3.65.28-2.54,6.83-4.3.37-6.48.3-1.23-.04-2.81,1.44-4.27,1.12-.46-.46,1.46-4.43,1.7-4.53Z"/>
  <path class="b" d="M194.93,157.1c-.28-1.12.78-2.71,1.71-3.14.75-.34,1.56.29,2.38.17,4.25-.65,5.4-1.72,8.93,2.12-4.02,2.55-8.69.85-13.02.85Z"/>
  <path class="b" d="M503.76,208.66c-2.25-.93-3.37,1.37-4.35,1.64-1.29.35-9.28-3.91-8.11-6.73,2.13-.7,3.13.99,4.5,1.45,1.57.53,3.19.36,5.12,1.11,1.1.43,3.03,1.07,2.84,2.54Z"/>
  <path class="b" d="M169.43,225.67c.07,1.07-.02,2.13-.63,3.05-.14.22-3.67,3.35-3.91,3.46-1.12.51-5.96.67-6.23-.57l3.39-5.1,7.38-.84Z"/>
  <path class="b" d="M278.23,116.86c-1.34,1.14-8.22-2.35-10.04-2.71-.77-.15-6.03-.76-6.29-.58-.13.09-.1.76-.49,1.03-2.08,1.43-5.12-1.1-2.75-3.42s3.08.04,4.68.47c2.71.72,4.68.71,7.26.66,1.13-.02,5.2,2.02,6.33,2.75.76.49,1.53.66,1.3,1.81Z"/>
  <path class="b" d="M525.87,304.43c.07.09.53,1.99.57,2.27-1.85-.51-.71,1.61-1.44,1.73-3.53.59-6.21-1.64-8.2-4.28s-2.67-4.94,1.74-4c2.37.51,4.36,2.5,6.25,3.96.37.28,1.05.28,1.08.32Z"/>
  <path class="b" d="M518.35,239.69c-1.01.94-2.26-.06-3.38.24-.41.11-6.86,4.27-6.09.77.49-2.24,4.32-1.68,5.42-2.52.88-.67,2.68-5.22,4.47-6.86,3.29-3.01,6.79.77,3.45,4.58-.7.8-2,1.41-2.91,2.21-.46.4-.59,1.22-.96,1.57Z"/>
  <path class="b" d="M451.07,161.07c-1.35,7.52-9.16,2.72-13.32,3.38-1.64.26-1.1,1.37-1.73,2.25-.98,1.37-5.05,1.74-5.35.31-.4-1.9,4.21-1.72,5.09-2.26.52-.32.8-1.44,1.4-2,3.08-2.86,10.06-2.81,13.9-1.68Z"/>
  <path class="b" d="M258.53,179.65c-.17-.15-.74-1.28-.45-1.59,1.7-2.35,8.7-.6,11.22.16,2.2.67,2.98,2.06,4.56,2.81,1.32.63,5.03.62,4.34,2.94-.24.8-2.08,1.57-2.94,1.37-1.94-1.02-4.1-1.66-6.06-2.48-2.71-1.14-2.3-.9-5.28-1.52-1.1-.23-4.77-1.12-5.39-1.68Z"/>
  <path class="b" d="M211.37,174.66c-1.19.45-2.9.36-3.95.87-1.44.69-1.19,2.6-3.24,2.97-1.8.33-3.62-.01-5.43.26-4.04.61-7.91,3.79-12.06,3.3-2.07-.25-2.83-1.41-1.13-2.89.92-.8,6.05-1.73,7.6-1.94.95-.13,1.95.51,3.07.18.81-.24,2.1-1.89,3.29-2.41,1.74-.77,8.03-2.3,9.75-1.92.78.18,1.88.72,2.1,1.57Z"/>
  <path class="b" d="M457.46,205.66c.72.57,3.8,1.3,2.67,3-.26.39-8.38,1.36-9.28,1.06-.76-.26-.76-1.3-1.3-1.65-1.49-.97-4.34-.37-6.14-.53s-4.6-.62-2.55-2.56c2.58-2.43,12.72-2.84,15.52-.77.62.46.76,1.2,1.07,1.44Z"/>
  <path class="b" d="M150.08,289.61c-.51.35-2.26.58-2.2-.77.12-2.59,2.19-3.19,2.59-4.75.24-.93-.8-2.16-.86-3.22-.15-2.57,3.79-4.88,5-7.4.54-1.13.85-3.54,1.35-4.04.75-.75,3.87-1,4.97-1.82.1,2.08-2.36,3.08-2.74,4.94-.32,1.53.54,2.56.38,3.72-.04.32-2.28,5.28-2.62,5.91-1.37,2.5-3.06,2.04-4.12,3.25-.7.79-1.32,3.91-1.75,4.2Z"/>
  <path class="b" d="M509.99,247.78c.62,2.95-1.09,3.82-2.52,5.68-.49.64-.62,1.75-.99,2.11-.48.47-1.65.43-2.29.82-1.88,1.13-2.49,2.57-5.22,2.16-1.33-.2-2.66-3.17-2.47-4.2.27-1.42,3.59-1.63,3.85-2.97.13-.7-1.6-1.84-1.11-3.05,3.69-1.3,6.94-1.4,10.75-.56Z"/>
  <path class="b" d="M234.95,160.57c.87-.24,9.47.45,10.44.75,1.5.47,2.99,2.39,4.35,3.02,2.64,1.23,5.26.96,8.07,3.27,1.81,1.48,1.53,4.1-.57,3.42-2.69-.87-6.16-3.43-9-4.04-1.93-.41-4.8-1.08-6.57-1.36-3.02-.48-4.55.89-6.61-2.46-.53-.87-1.5-2.19-.1-2.59Z"/>
  <path class="b" d="M501.5,220.57c.24-.23,4.32.18,5.38,0,1.25-.22,1.56-1.36,2.37-1.6.43-.13,4.52-.49,4.74-.39.27.12,2.66,4.84,2.72,5.22s-.61,5.59-.76,5.84c-.31.52-2.65,1.89-3.39,1.69-1.13-.29-.61-2.71-1.39-3.73-1.76-2.29-7.06-3.04-9.09-5.08-.53-.53-.93-1.63-.58-1.96Z"/>
  <path class="b" d="M384.83,108.3c1.56,1.1,3.26-1.02,4.32-1.49,2.4-1.07,12.82-1.21,15.71-.69,1.35.24,9.5,4.99,7.66,6.78-1.46.17-3.34-.31-4.71.11-.86.27-1.24,1.52-2.39,1.63-1.64.16-2.23-1.58-3.63-2.06-2.62-.9-3,.85-4.84.94-4.05.21-8.79-1.69-13.55-1.14-3.09.36-9.47,3.53-6.81-2.33l-2.06-1.46c.05-3.61,6.12-1.96,6.8-2.55.2-.18.1-2,.75-2.66.99-1.02,4.65-1.94,3.56.44-.41.9-2.52,3.24-.79,4.46Z"/>
  <path class="b" d="M465.03,166.94c2.14,1.53,2.48,1.39,4.57,2.51s1.55,2.11,2.51,3.72c.5.83,3.29,3.13,1.27,3.7-4.62,1.3-7.03-4.98-11.55-4.47-.14-1.88,2.38-1.14,1.7-3.4-.4-.36-8.24.65-9.07,1.98l3.98,1.12c.97.68.56,1.63-.38,1.92-2.33.72-4.31-1.23-6.03-.96-3.04.47-8.54,4.89-11.72,5.87-2.28.71-5.62.83-7.96,1.67-2.61.94-3.17,2.71-6.52,2.6-1.13-.04-2.31-.66-3.27-.52-1.85.27-5.15,3.75-7.2,1.32.13-2.28,10.63-3.43,12.48-3.95,1.59-.44,2.56-1.9,3.8-2.43,2.13-.91,5.43-1.19,7.75-2.35.76-.38-.15-2.13.88-3.2,1.16-1.2,3.37-.55,4.73-.94,1.02-.29,1.55-1.84,2.49-2.1,1.12-.3,2.38.76,3.02.27.8-.62.76-3.4,2.02-3.66.49-.1,2.21.56,3.35.54,3.66-.08,5.43-1.93,9.15.72Z"/>
  <path class="b" d="M420.95,123.6c-.33.24-5.33-1.24-7.99-.35-1.67.56-4.26,1.69-6.09,2.4-2.24.87-4.45,2.26-6.8,2.55.39,3.83,6.88,1.99,9.38,1.16,3.55-1.18,10.2-6.71,11.02.54-3.04.16-6.02,2.63-8.91,3.28-1.93.44-6.29,1.5-7.96,1.72-1.91.25-2.81-.89-3.92-.93-.75-.02-1.16.79-1.68.88-.69.13-1.57-.53-2.62-.34-1.51.26-4.01,2.94-5.81,3.31-3.87.78-3.12-1.4-3.98-1.67-1.35-.43-1.76,1-2.54,1.39-1.17.57-3,.46-4.52,1.14-1.81.81-2.45,2.25-4.85,2.52-1.49.17-1.94-.1-1.11-1.68.66-1.27,2.91-1.43,4-2.23.98-.71,1.3-2.01,2.32-2.78.68-.52,8.71-3.73,9.68-3.92,3.18-.62,7.53.13,10.06-2.98,3.4-4.18-.19-4.28-3.97-3.97-6.43.53-10.26,3.23-16,4.97-3.09.93-10.57,1.58-12.28,3.59-.99,1.17-.95,2.57-2.38,3.85-2.36,2.11-5.44,1.92-7.97,3.36-4.16,2.38-8.87,7.06-12.05,10.74-1.44,1.67-4.53,7.81-5.13,1.57-.67-6.98,1.39-8.61,5.02-13.7.57-.79.73-1.99,1.2-2.63,1.33-1.82,5.44-2.48,5.61-2.75.36-.56-.18-2.81.77-3.76s3.24-.4,4.41-.97c1.53-.75,1.92-5.35,5.66-4.25.19.16-2.08,3.69-2.25,4.26-.28.95.11.85.85.85,2.56.02,4.17-2.31,6.61-3.03,3.39-.99,13.45-3.16,16.63-2.96,1.01.06,1.96.87,2.84.85,1.3-.03,1.81-1.83,2.91-2.15,1.19-.35,2.61.07,3.84-.13,1.04-.16,1.83-.93,2.88-1.09,2.29-.36,5.02,1.03,6.69.47,1.11-.38,1.19-2.66,2.94-2.79,1.22-.09,2.85,1.5,4.58,1.71,2.43.3,11.25-2,12.09.94.16.54-.95,2.8-1.19,2.98Z"/>
  <path class="b" d="M421.6,143.5c.18.16,3.9-.05,4.82,0,4.16.2,6.59,1.13,10.22,1.68,2.41.37,5.45-.4,7.8.14,1.14.26,1.92,1.5,2.97,1.61,1.64.16,3.72-1.9,6.15-1.7,1.59.13,12.22,3.55,6.86,4.52-4.86.88-10.81-2.89-15.83-2.22-.52.07-3.6.94-3.72,1.1-1.12,1.48,3.82,2.63,3.96,2.84.7,1.04-2.22,3.7-3.23,3.85-1.98.29-3.2-1.06-4.97-1.05-1.55,0-7.34.87-8.96,1.26-1.13.27-1.8,1.36-2.96,1.57-1.62.29-3.67-.16-5.37.01,2.69-3.46,7.11-4.92,11.19-6.09.99-.28,5.31-.66,5.81-1.28.72-.89-.18-.97-.72-1.25-4.6-2.36-5.68.19-9.44,1.01-4.76,1.04-8.17.97-12.7,3.74-.93.57-1.51,1.55-2.45,2.09-1.42.81-6.32,3.66-7.51,3.8-2.29.26-6.16-6.2-7.42.26,4.93.18,3.72,2.79.15,4.4-2.86-.02-5.55,1.06-8.35,1.29-.46.04-2.07.17-1.15-.59,2.97.6,4.24-2.48,6.51-3.69.43-1.72-4.21-2.2-4.49-2.59-.79-1.13,1.41-3.63,1.09-5.05-.43-.45-3.33,2.02-4.38,2.17-1.83.28-2.61-1.57-3.83-1.6-.74-.02-6.46,3.91-3.72-.32,2.18-3.37,4.28-2.12,7.43-2.77,2.49-.52,9.57-3.68,12.75-4.82.92-.33,3.91-1.38,3.65-2.57-.69-3.15-6.58,2.32-7.15,2.43-.73.14-2.08-.73-3.05-.45.26-.82.57-1.37,1.27-1.89.93-.7,5.33-2.29,6.51-2.51,2.3-.44,4.82.41,6.45.14,1.85-.31,4.99-1.94,7.24-2.23,3.32-.42,7.35.64,10.61.79,1.46.07,3.68-1.36,5.06.59,1.73,2.44-5.16,1.49-6.16,1.81-.7.22-1.29,1.29-.94,1.61Z"/>
  <path class="b" d="M317.34,117.44c.06.07,1.5.24,1.74-.34.76-1.83,1.97-9.56,5.06-7.91,4.74,2.53-2.42,8.88-3.28,12.07-.52,1.95.65,3.27.35,4.82-.36,1.9-2.71,2.7-2.19,5.78.21,1.26,2.38,3.28,3.4,2.57.32-.22,2.53-6.51,1.14-7.36,2.35.75,1.94-1.5,3.96-1.14.7.77-1.14,6.22-1.14,7.65,0,.65,1,4.62,1.2,4.76,1.45,1.01,4.77-1.37,5.99-1.57,2.12-.34.8,3.77.48,5.03-.44,1.77-1.6,3.82-1.86,5.5-.24,1.51.36,6.01-.99,6.38s-3.59-2.62-5.34-2.58c-1.46-3.03-4.88-1.27-5.73-1.66-1-.46-1.53-3.24-3.78-3.62-1.61-.27-3.45,2.57-6.07,2.21-2.15-.3-2.87-2.86-4.85-3.41l.56,3.96c-.79.07-1.54.01-2.29-.25-.3-.1-4.85-2.67-5.07-2.86-.86-.74-.32-2.29-1.38-3.15-.65-.53-4.56-2.74-5.43-3.07-3.31-1.22-3.71-.42-7.06-2.57-.87-.56-1.9-.59-2.56-1.41,2.27-1.54,3.87.16,6.08.72,3.76.96,6.85,1.28,10.61,1.86,1.79.27,3.63,1.85,5.97,1.11l-2.27-3.67c-.02-.69,2.75-.33,2.23-1.65-.12-.31-2.33-4.12-2.51-4.3-.62-.61-1.72-.51-2.26-1.14-.48-.56-1.03-2.84-.8-3.59.49-1.6,3.31-1.36,4.62-1.65.5-.11.94-.77,1.42-.88.82-.19,1.64.58,2.41.21,1.33-.63,3.12-6.04,4.81-7.13,1.09-2.36-.88-3.5-.74-4.71.1-.83,1.18-1.59,1.06-2.91-.07-.77-3.32-3.74-.87-4.26.84-.18,4.85,5.33,5.13,6.2.55,1.72-.02,7.64.25,7.97Z"/>
  <path class="b" d="M245.37,206.97c-1.49,1.49-10.55-5.26-13.03-3.96l2.26,3.12c-.06,1.06-4.73,1.33-5.79,1.56-.59.13-1.09.9-1.87.99-1.46.16-3.47-1.23-5.05-1.13-1.41.09-2.64,1.6-4.02,1.68-1.99.12-3.77-1.18-6.52-.31-1.36.43-2,1.93-2.8,2.29-1.14.51-2.48.15-3.82.71-.42.18-6.08,4.15-6.3,4.46-3.16,4.45,5.44.67,6.16,1.35,1.29,1.22-5.17,5.61-5.96,5.7-2.08.23-2.05-2.11-2.79-2.19-1.58-.16-6.29,4.02-5.41,6.12.21.26,3.21-2.51,3.79-2.73,3.87-1.44.3,3.32-.65,4.46-.58.69-1.65.9-2.04,1.49-1.05,1.61-2.76,8.85-4.31,9.85-.56.36-1.65.38-2.41.86-2.33,1.47-4.41,3.62-7.27,4.08-2.68.43-2.27-.6-3.96-1.45-3.34-1.68-2.59.75-3.93,1.6-3.74,2.36-6.89-2.99-10.38-3.44.02-2.47,2.94-2.26,4.5-3.14,1.42-.81,10.28-8.7,10.52-9.82.17-.8-.46-1.65-.06-2.92.38-1.19,4.09-4.76,4.87-3.95l-1.17,4.75c3.06,2.5,3.22-1.57,4.84-3.07,1.28-1.18,3.7-1.6,5.13-2.8,3.93-3.29,7.37-9.44,12.28-10.96,1.17-.36,3.68-.22,4.17-.93,1.57-2.26-1.58-1.74-2.58-2.58s-.23-2.84-2.54-2.57c-1.15.13-1.86,1.59-3.11,2.03-1.82.65-6.71.77-7.38,1.09-.83.41-2.16,2.36-3.14,3.12-.62.48-4.23,2.85-4.53,2.83-2.39-.14,1.53-4.96,2.25-5.68,5.68-5.75,10.17-5.74,16.88-8.62,5.93-2.54,8.01-6.75,15.98-5.49,1.41.22,2.36,1.29,3.55,1.55,2.43.52,5.85.01,8.55.52,3.28.61,9.99,3.05,13.1,4.47,2.73,1.25,4.32,4.04,4.02,7.03Z"/>
  <path class="b" d="M461.84,671.63c.22-3.08,3.58-1.19,5.38-1.13s9.71-.86,8.78,2.54c-.56,2.06-3.8-.1-4.84-.26-2.9-.45-6.33.14-9.33-1.16Z"/>
  <path class="b" d="M429.5,612.68c-.27.17-1.18-.05-1.66.03.35-1.88-.33-3.66-.46-5.39-.04-.58.38-1.29.32-2.11-.12-1.64-1.11-3.45-.98-5.19.18-2.41,3.96-9.41,5.93-5.45,1.37,2.76-.85,5.03-1.29,7.21-.37,1.84.12,3.74-.15,5.52-.08.54-1.47,5.23-1.71,5.39Z"/>
  <path class="b" d="M507,628.18c.54.44.54,1.5,1.84,1.86.84.23,1.62-.37,2.45-.23,1.25.2,5.02.95,6.11,1.28.46.14,7.83,4.48,8.21,4.82,1.84,1.73-1.38,5.76-2.19,5.63s-2.62-1.42-3.89-1.81c-3.53-1.08-8.2-1.27-11.19-3.54-.88-.66-4.89-5.47-5-6.29-.27-2.02,2.13-2.99,3.68-1.72Z"/>
  <path class="b" d="M154.51,556.1c2.38-.63,3.97,4.84.61,6.3-2.57,1.11-4.44-.74-3.74-3.13.15-.52,2.66-3.04,3.13-3.17Z"/>
  <path class="b" d="M175.1,471.6h2.83c-3.05,6.65,4.34,6,6.16,9.42,1.31,2.45,1.64,9.28-.49,11.27-1.02.95-5.87,2.64-7.57,3.77-.59.39-3.18,2.4-3.46,2.78-1.26,1.66.33,7.35-.56,10.2s-5.98,6.66-7.81,9.75c-.66,1.11-3.43,6.23-3.69,7.07-.28.91-.99,5.71-.6,6.27l3,2.25,4.25-2.15c1.42,2.33-.02,7.74-2.66,8.43-1.44.38-2.8-1.77-4.15-.82-1.02.72-1.44,3.65-2.5,4.89s-4.55,3.41-4.89.8c-.27-2.04,1.3-2.61,1.63-4.07.34-1.54-.16-3.18.35-4.74s1.96-1.4,2.34-2.74c.19-.67.48-3.19.25-3.46-.06-.07-1.49-.24-1.74.33-.27.61-.36,4.12-1.65,3.07-.67-.54-1.36-12.18-1.02-13.76.37-1.73,2.22-4.68,2.88-6.76,1.45-4.56,1.51-9.25,3.29-13.71,1.37-2.26,3.37,1.07,5.61.22.57-4.03-4.72-.9-5.95-3.39-.52-1.06-.44-5.65-.16-6.97.55-2.55,3.01-7.14,3.29-9.73s.52-4.62-2.32-5.17l.04-4.2c1.71,1.27,1.88,2.21,4.11,1,2.97-1.61.91-3.19.54-5.38-.58-3.43,3.33-7.12,3.31-11.23-.01-2.83-3.89-2.34-4.86-4.22-.82-1.57.67-4.06.17-6.4-.4-1.88-2.35-3.24-2.63-4.21-.48-1.64,2.15-7.07,2.19-9.23.92-.21,1.15.33,1.71.83,2.17,1.98,3.72,8.65,5.42,11.58,1.23,2.12,4.17,6.55,5.65,8.52.73.98,3.43,3.09,3.57,3.79s-2.18,4.35-2.5,5.86c-.16.77.21,1.53.06,2.3-.51,2.52-2.32,4.73-1.45,7.92Z"/>
</svg>