<?xml version="1.0" encoding="UTF-8"?>
<svg id="a" data-name="b1.25" xmlns="http://www.w3.org/2000/svg" width="612" height="792" viewBox="0 0 612 792">
  <defs>
    <style>
      .b {
        fill: #0d0e0e;
      }
    </style>
  </defs>
  <path class="b" d="M267.47,395.1h-.57c-.31-.09-.41-.33-.57-.57-.54-.78-1.17-.91,0-1.7.12-.08.38.06.57,0,.26-.09.44-.33.57-.57-.19.02-.38-.01-.57,0-.19.01-.38,0-.57,0-.19,0-.38,0-.57,0h-1.7c0,.19-.02.38,0,.57.18.19.38.37.57.57.11.12,1.24.53,0,.57-.6.02-.46-.21-.57-.57-.05-.15.02-.37,0-.57-.15-.16-.56.04-.57-.57,0-.56.45-.38.57-.57,0-.56-.04-1.15,0-1.7-.19-.02-.4.04-.57,0-.18-.04-.38.03-.57,0l-.56-.29v-.56l.56-.29c.07-.07.38.04.57,0,.03-.48-.24-1.05.29-1.14,1.64-.28.37.57.28,1.14-.05.35.03.76,0,1.13.19.02.38-.01.57,0,.1-.22.47-.38.57-.57.16-.31-.33-1,.29-1.14,1.16-.25.78.27.85,1.14h1.13c-.05-.45-.08-1.29,0-1.7-.37-.04-.78.06-1.13,0-.2-.04-.56.05-.56-.28l.56-.28c-.06-.01-.71-.41-1.13-.57l-.29.56c-.28.05-.57-.02-.84,0-.16.02-.42.04-.57,0-.34-.1-.55-.16-.57-.57v-.57c-.16-.06-.4.06-.57,0-.18-.06-.42.07-.57,0-.9-.43-.43-.96-.57-1.13-.15-.2-.41-.35-.57-.57-.12-.18-.39-.38-.57-.57h-1.13c-.01.19.04.4,0,.57-.23,1-.82.25-1.13-.57-.06-.15.04-.37,0-.57h-1.13c-.04.18.03.38,0,.57-.26,1.64.11,2.72-1.13,3.97-.17.17-.37.49-.57.57-.11.04-.39,0-.57,0,0,.19-.18.36-.29.51-.23,0-.19-.42-.27-.51-.12-.12-.55-.16-.57-.57h-.57v.57c.75.36.46.47.57,1.13.46.19.41.1.57.57.04.11.03.46,0,.57-.1.32,0,.63-.57.57l-.56-.28c.15-.15.54-.2.56-.28.04-.17-.02-.37,0-.57.02-.17.03-.4,0-.57-.15-.06-.38.05-.57,0-.18-.05-.42.06-.57,0-.1.23-.54.45-.57.57-.03.12-.04.45,0,.57.02.06,1.23.54,0,.57-.43,0-.62-.12-.57-.57h-.57c-.44,0-.43-.28-.57-.57h-.57l-.85.55c-.33-.03-.24-.34-.28-.55-.05-.28-.06-.89,0-1.13-.46.07-.53-.56-.57-.57-.33-.08-.8.08-1.13,0-.18-.04-.39.04-.57,0-.14.39-.35.39-.57.57-1.1.89-.62.16-1.13,0-.19-.06-.46.08-.57,0-.25-.19-.41-.2-.57-.57-.37-.03-.79.06-1.13,0-.19-.03-.4.05-.57,0-.07.15.07.4,0,.57-.14.33-.38.39-.57.57-.14.13-.08.49-.57.57-.91.15-.8-.28-1.13-.57-.2-.17-.44-.22-.57-.57-.05-.15.04-.37,0-.57h-1.13c-.04.18.05.39,0,.57-.05.18.05.39,0,.57-.06.22-.46.38-.57.57-.15.25.16.77-.57,1.13-.11.05-.37,0-.57,0-.18,0-.45.04-.57,0-.14.25-.46.4-.57.57-.09.15-.39.4-.57.57.76.05.73.4,0,.57-.15.03-.41.02-.57,0-.65-.08-1.02-.54-1.13-.57-.15-.03-.41-.03-.57,0-.13.02-.37.54-.57.57-.17.02-.4.03-.57,0-.33-.05-.76-.46-1.13-.57-.17-.05-.39.04-.57,0-.1.18.12.6-.57.57-.82-.04-.48-.58-.57-1.13h-1.7v1.13c.35.11.59-.03.57.57-.01.34-.54.49-.57.57-.1.26.08.78,0,1.13-.79.28-1.07-.55-1.13-.57-.18-.04-.39.04-.57,0-.18-.05-.4.05-.57,0-.18-.05-.41.06-.57,0-.23-.09-.39-.46-.57-.57-.25-.15-.77.16-1.13-.57-.07-.14.06-.39,0-.57h-1.13c.06.22.06.91,0,1.13-.05.21.08.46-.29.56-.19.01-.25-.55-.28-.56-.18-.03-.38.02-.57,0,0,.29.44.79.57,1.13.06.18.67.28.57,1.13-.07.61-.18.44-.57.57-.17.05-.39-.04-.57,0-.11.3-.28.44-.57.57-.15.06-.39-.06-.57,0-.16.05-.38-.04-.57,0-.19.04-.4-.05-.57,0-.09.03-.11.68-.54.56.08-.88-.6-1.19-1.16-1.69-.19-.03-.4.04-.57,0-.04.32.15.93-.03,1.09-.25.22-1.2-.01-1.67.04.03.18,0,.38,0,.57,0,.19.04.42,0,.57-.5,1.95-1.33-.36-1.7-.57-.12-.07-.38.05-.57,0l-.57.57c.03.18-.04.39,0,.57.03.14.5.47.57,1.13.02.19-.01.38,0,.57.01.19-.01.38,0,.57.18-.01.45-.04.57,0,.48.17,1.13.58,1.13,1.13.55-.06,1.14.04,1.7,0,.14-.06.31-.42.85-.56.46-.12.98.05,1.42,0,.19-.02.38.01.57,0,.19-.01.38.02.57,0,.19-.02.38.02.57,0,.19-.02.38.02.57,0,.19-.02.38.02.57,0,.19-.02.38.02.57,0,.09,0,.75-.47,1.7-.57.19-.02.38.02.57,0,.19-.02.38.01.57,0-.38-1.64.87-.95,1.13-1.13.18-.13.33-.41.57-.57.17-.11.39-.39.57-.57.19-.19.35-.41.57-.57.56-.01,1.13.02,1.7,0,.48-.97,1.47-.85,2.27-1.13.16-.06.39.05.57,0,.16-.04.37-.52.57-.57.18-.04.38.04.57,0,.34-.07.76.04,1.13,0,.19-.02.38.02.57,0,.15-.21.33-.45.57-.57.15-.07.41.07.57,0,.1-.05.12-.41.28-.56l.29.56c.83.05.66.09,1.13.57.51.52.42.41.57,1.13.04.18-.02.38,0,.57.04.36-.02.76,0,1.13.02.38-.02.76,0,1.13.01.19-.01.38,0,.57.03.56-.05,1.14,0,1.7.25.19.37.09.57.57.06.15-.06.39,0,.57.05.15-.03.37,0,.57.04.1.4.32.57.57.08.12-.07.4,0,.57.16.19.43.32.57.57.18.33.3,1.13.57,1.7.56.19.95.56,1.13,1.13.05.17-.05.38,0,.57.15.06.37-.04.57,0,.18.04.38-.03.57,0h.57c.19-.85,1.05-1.44,1.13-1.7.09-.27-.04-.77,0-1.13.02-.17.02-.4,0-.57-.03-.2.05-.43,0-.57-.05-.14-.46-.31-.57-.57-.04-.08-.45-.19-.57-.57-.03-.12-.03-.45,0-.57-.19-.18-.45-.28-.57-.57-.06-.16.06-.39,0-.57-.05-.17.05-.39,0-.57-.05-.17.04-.38,0-.57-.07-.34-.44-.76-.57-1.13v-.57c-.35-.41-.5-.54-.57-1.13-.02-.17-.04-.47,0-.57.08-.2,0-.45.32-.51l.81-.06c.25-.6.36-1.2.57-1.7.21-.52.05-.51.57-1.13.17-.21.85-.34,1.13-.57,0-.19-.05-.48,0-.57.15-.27,1.49-1.09,1.7-1.13l.29-.56h.56l.29.56s.06.9,0,1.13c.2,0,.42-.04.57,0,.5.14.41.18.57.57.18-.03.38.02.57,0,.18-.02.38,0,.57,0h.57c.15-.23.38-.38.57-.57.18-.18.26-.43.57-.57.15-.07.4.07.57,0,.15-.06.38.05.57,0,.12-.03.34-.47.57-.57.11-.05.37.01.57,0,.18-.01.46-.04.57,0,.44.18.38.12.57.57.19-.01.38,0,.57,0,.19,0,.38-.01.57,0,.37.02.76-.03,1.13,0,.19.02.38-.02.57,0,.18.02.43.55.57.57.18.03.38-.03.57,0,.18.03.38-.03.57,0,.18.03.38-.02.57,0,.19.02.4-.04.57,0,.29.06.51.27.57.57.14-.03.44-.04.57,0,.84.25.87.94,1.13,1.13.22.16.38.44.57.57.26.18.84.49,1.13.57.17.05.38-.04.57,0,.18.04.38-.04.57,0,.18.04.39-.04.57,0,.61.14.76-.22,1.13.57.07.14-.05.38,0,.57v.57c.82.33.92,2.37,2.27,1.13,0-.19,0-.38,0-.57.03-.68.54-1.37.57-1.7.01-.17.04-.41,0-.57-.12-.53-.93-1.13-1.13-1.7Z"/>
  <path class="b" d="M282.77,368.47c.05.17-.04.38,0,.57.04.19-.06.42,0,.57.17.07.44-.08.57,0v-.57c0-.19.02-.38,0-.57h-.57Z"/>
  <path class="b" d="M427.27,361.1c.05.18-.07.42,0,.57.2.02.41-.04.57,0,.03-.2-.05-.43,0-.57-.19.03-.38-.02-.57,0Z"/>
  <path class="b" d="M279.93,368.47h-.57c-.17-.05-.41.06-.57,0v.57c.26.07.92.4,1.13.57.06-.14-.04-.37,0-.57.03-.18-.02-.38,0-.57Z"/>
  <path class="b" d="M434.07,358.83c.18-.04.38.02.57,0v-.57h-.57v.57Z"/>
  <path class="b" d="M439.17,356.57v.57c.19.01.38-.02.57,0,.19.02.39-.03.57,0,.2.04.43-.06.57,0,0-.19-.02-.39,0-.57-.19-.02-.39.04-.57,0-.18-.04-.39.04-.57,0-.18-.04-.38.04-.57,0Z"/>
  <path class="b" d="M450.5,356.57v-.57c-.19-.02-.38.02-.57,0-.31-.04-.77-.49-1.13-.57-.18-.04-.39.05-.57,0-.32-.08-.8.08-1.13,0-.48-.11-.43-.16-.57-.57-.19.01-.38,0-.57,0-.19,0-.38-.01-.57,0,0,.6-.2.46-.57.57v.57c.19.01.38-.02.57,0,.19.02.39-.03.57,0,.2.04.42-.06.57,0,.31.12.44.5.57.57.19,0,.41.04.57,0,.12-.03.34-.47.57-.57.1-.04.45-.03.57,0,.56.12.43.12.57.57.34-.06.76.03,1.13,0Z"/>
  <path class="b" d="M410.83,404.17c.3-1.07-.49-.98-.57-1.13-.3.06-.5.27-.57.57-.04.18.03.38,0,.57.37-.03.76.02,1.13,0Z"/>
  <path class="b" d="M268.6,367.33c.29.06.51.27.57.57.18.04.38-.02.57,0-.05-.16.03-.37,0-.57-.31-.06-.48-.27-.57-.57-.19-.01-.38.02-.57,0-.03.19.02.38,0,.57Z"/>
  <path class="b" d="M277.1,369.03c.03-.19-.02-.38,0-.57-.19-.04-.42.06-.57,0-.03.2.05.43,0,.57.19.02.38-.02.57,0Z"/>
  <path class="b" d="M440.3,356v-.57c-.14.06-.37-.03-.57,0,.03.18-.02.38,0,.57h.57Z"/>
  <path class="b" d="M408.57,414.37h-.57c-.16.39-.42.74-.57,1.13.38.01.76,0,1.13,0,.19,0,.38,0,.57,0v-.57c-.3-.13-.56-.13-.57-.57Z"/>
  <path class="b" d="M449.93,354.3c.08-.2.47-.38.57-.57.07-.15-.07-.41,0-.57-.19,0-.38,0-.57,0,0,.47-.1.56-.57.57-.03.2.05.43,0,.57.19.01.38-.02.57,0Z"/>
  <path class="b" d="M447.1,358.83c0-.18.02-.38,0-.57-.19,0-.38,0-.57,0,.06.31.27.48.57.57Z"/>
  <path class="b" d="M431.23,362.8c-.14-.06-.37.04-.57,0v.57h.57c-.07-.13.05-.38,0-.57Z"/>
  <path class="b" d="M429.53,363.93c-.18-.03-.38.02-.57,0,.13.85.31.64.57,0Z"/>
  <path class="b" d="M412.53,399.63c.16-.04.37.02.57,0-.05-.19.07-.42,0-.57-.46-.16-.38-.1-.57-.57-.15-.07-.39.06-.57,0-.07.15.1.46-.28.56l-.28-.56c-.52-.06-.5,0-.57,0v1.13c.26.15.4.46.57.57.19,0,.38,0,.57,0,.06-.31.27-.48.57-.57Z"/>
  <path class="b" d="M409.7,399.07v-.57c-.19,0-.38,0-.57,0-.18.44-.12.38-.57.57-.13.05-.37-.02-.57,0v1.13h.57l.57-.57c.17-.17.28-.47.57-.57Z"/>
  <path class="b" d="M413.67,400.2c-.19,0-.38,0-.57,0-.19,0-.38,0-.57,0l-.29.56h-.56c-.18-.04-.17-.49-.28-.56-.64,0-.99.02-1.7,0-.19,0-.38.02-.57,0-.18-.02-.38,0-.57,0v.57c.8.24.77.7,1.13,1.13.51.37,1.09.46,1.7.57.03,0,.44,0,.57,0,.19,0,.38.02.57,0,.13-.33.39-.39.57-.57.17-.17.25-.45.57-.57.02-.19-.01-.38,0-.57.01-.19,0-.38,0-.57Z"/>
  <path class="b" d="M409.7,396.8v.57c.19-.01.38.02.57,0v-.57c-.19-.02-.38.01-.57,0Z"/>
  <path class="b" d="M405.17,414.93c.18.02.38,0,.57,0,0-.19,0-.38,0-.57h-.57v.57Z"/>
  <path class="b" d="M405.73,413.23h-.57c-.66.3,0,.48,0,.57h.57c-.04-.19.06-.42,0-.57Z"/>
  <path class="b" d="M383.07,370.73h-1.13v.57c.19-.04.4.05.57,0,.17-.05.38.04.57,0v-.57Z"/>
  <path class="b" d="M275.4,367.33v-.57c-.19-.01-.38.02-.57,0-.19-.02-.4.04-.57,0-.29-.06-.51-.27-.57-.57-.19,0-.38,0-.57,0,.24.57,1.04,1.14,1.13,1.7.18.04.39-.04.57,0,.19.04.4-.05.57,0-.07-.1.05-.38,0-.57Z"/>
  <path class="b" d="M286.73,367.33c-.19-.02-.38.02-.57,0-.04.17.02.37,0,.57l.57-.57Z"/>
  <path class="b" d="M395.53,370.17l-.57-1.13c0,.19,0,.38,0,.57,0,.19.03.4,0,.57.19,0,.38,0,.57,0Z"/>
  <path class="b" d="M435.2,357.13c.19,0,.38,0,.57,0,.19,0,.38,0,.57,0,.38,0,.76-.01,1.13,0,0-.37.04-.77,0-1.13-.02-.19.03-.39,0-.57-.2-.03-.43.05-.57,0,.04.11.04.46,0,.57-.16.46-.1.38-.57.57-.13.05-.37-.03-.57,0-.19.02-.38-.02-.57,0-.07.14.05.38,0,.57Z"/>
  <path class="b" d="M423.87,363.93h-.57v.57h1.13c.03-.2-.05-.43,0-.57h-.57Z"/>
  <path class="b" d="M257.83,413.23h.57v-.57h-.57c-.02.19.02.38,0,.57Z"/>
  <path class="b" d="M411.4,414.93c-.13-.05-.37.03-.57,0-.19-.03-.38.03-.57,0v.57c.19,0,.38,0,.57,0,.38,0,.76,0,1.13,0-.19-.42-.1-.37-.57-.57Z"/>
  <path class="b" d="M443.7,357.13v-.57c-.19-.02-.38.02-.57,0-.08.21-.51.4-.57.57-.06.16.04.39,0,.57.19,0,.38,0,.57,0,.19,0,.38,0,.57,0v-.57Z"/>
  <path class="b" d="M400.07,371.3c-.03-.14-.03-.43,0-.57-.18.03-.38-.02-.57,0-.04.18.03.38,0,.57.18-.03.38.03.57,0Z"/>
  <path class="b" d="M414.23,413.8v.57c.26.11.47.29.57.57.18.04.38-.03.57,0,.18.02.38-.02.57,0-.06-.34-.44-.77-.57-1.13-.31.03-.9.07-1.13,0Z"/>
  <path class="b" d="M375.7,373c0,.6.2.46.57.57.04-.17-.03-.38,0-.57-.17-.04-.37.02-.57,0Z"/>
  <path class="b" d="M268.03,366.2v-.57h-.57c0,.19,0,.38,0,.57.18-.03.39.04.57,0Z"/>
  <path class="b" d="M394.4,370.73c-.52.15-.38.15-.57.57h.57v-.57Z"/>
  <path class="b" d="M275.97,365.63c-.14-.06-.37.04-.57,0v.57c.19-.02.38.03.57,0-.03-.18.04-.39,0-.57Z"/>
  <path class="b" d="M276.53,366.2c-.17.04-.38-.03-.57,0,.03.18-.02.38,0,.57.19,0,.38,0,.57,0-.03-.2.05-.43,0-.57Z"/>
  <path class="b" d="M407.43,366.2c-.14.07-.38-.05-.57,0v.57h.57v-.57Z"/>
  <path class="b" d="M432.37,357.13c.01-.19-.03-.38,0-.57-.19,0-.38.01-.57,0-.02.19.04.4,0,.57.19-.03.38.03.57,0Z"/>
  <path class="b" d="M432.93,356h-.57c-.05.15.03.37,0,.57.19,0,.38,0,.57,0v-.57Z"/>
  <path class="b" d="M434.07,355.43c-.02-.2.05-.44,0-.57-.19-.01-.38,0-.57,0-.19,0-.38,0-.57,0v.57c.23-.05.9-.05,1.13,0Z"/>
  <path class="b" d="M421.6,362.8c.17-.09.32-.46.57-.57v-.57c-.17-.03-.39,0-.57,0-.06.3-.28.51-.57.57-.02.19.02.38,0,.57.17-.07.43.07.57,0Z"/>
  <path class="b" d="M425,360.53c.07-.11-.05-.38,0-.57-.19,0-.38-.02-.57,0-.19.02-.38-.01-.57,0v.57c.19,0,.38,0,.57,0,.19,0,.38,0,.57,0Z"/>
  <path class="b" d="M280.5,370.73c-.19,0-.38,0-.57,0,0,.7.39.47.57.57.02-.17.02-.4,0-.57Z"/>
  <path class="b" d="M262.36,368.75l-.56-.28c.07.11-.05.37,0,.57.17-.07.46.09.56-.28Z"/>
  <path class="b" d="M261.23,371.87c.08-.3-.04-.77,0-1.13-.19,0-.38,0-.57,0-.1,0-.38-.27-.8-.3-.14-.01-.27.31-.33.3l1.13,1.13c.14-.05.37.02.57,0Z"/>
  <path class="b" d="M243.1,365.63h.57c.02-.2-.05-.44,0-.57-.18.04-.39-.04-.57,0v.57Z"/>
  <path class="b" d="M221.57,361.67c.19.18.41.35.57.57.19,0,.38-.01.57,0,.19.01.38-.02.57,0v-.57c-.3-.13-.56-.13-.57-.57h-1.13v.57Z"/>
  <path class="b" d="M222.13,359.4c.19.02.38-.01.57,0,.56.04,1.18-.08,1.7,0,.74.12.74.43,0,.57-.29.05-.83.04-1.13,0v.57c.16,0,.44.55.57.57.36.04.77.01,1.13,0,.19,0,.38.02.57,0,.33-.04.81-.53,1.13-.57.19-.02.38.02.57,0,.18-.02.39-.01.57,0l.57-.57v-.57c-.38-.01-.76.02-1.13,0-.19,0-.38.01-.57,0-.19-.01-.38.01-.57,0-.59-.04-.53-.56-.57-.57-.56-.04-1.14.04-1.7,0-.19-.01-.38,0-.57,0-.19,0-.38,0-.57,0-.37.01-.76-.03-1.13,0,.05.13-.03.37,0,.57.19.02.38-.02.57,0Z"/>
  <path class="b" d="M445.4,358.83c0-.19,0-.38,0-.57-.19,0-.38,0-.57,0-.19,0-.38,0-.57,0s-.38,0-.57,0v.57h1.13c.19,0,.39-.02.57,0Z"/>
  <path class="b" d="M410.83,369.03c-.02-.19.03-.38,0-.57-.18.05-.39-.04-.57,0,.04.13.01.39,0,.57h.57Z"/>
  <path class="b" d="M411.4,393.4c.04-.2.51-1.11.57-1.13-.18.03-.38-.02-.57,0l-.57.57c-.01.19.01.38,0,.57h.57Z"/>
  <polygon class="b" points="409.13 394.53 409.13 393.97 408.57 394.25 409.13 394.53"/>
  <path class="b" d="M415.37,369.03v-.57c-.18.03-.38-.02-.57,0-.05.19.06.43,0,.57.19-.02.38.02.57,0Z"/>
  <path class="b" d="M408.57,395.67h1.13v-.57c-.49.18-.73-.28-1.13.57Z"/>
  <path class="b" d="M410.27,394.53v-.57h-.57v1.13c.16-.06.38.05.57,0v-.57Z"/>
  <path class="b" d="M383.07,369.03c.21-.01.49-.35.57-.57h-.57c.05.15-.03.37,0,.57Z"/>
  <path class="b" d="M371.73,371.87s.56.08.56-.28l-.56-.28c-.09.08.09.53,0,.57Z"/>
  <path class="b" d="M380.23,369.6l.57.57c.04-.17-.03-.37,0-.57h-.57Z"/>
  <path class="b" d="M380.23,371.3v-.57h-.57c.05.11,0,.38,0,.57.19-.05.42.07.57,0Z"/>
  <path class="b" d="M379.1,371.87h.57c.05-.13,0-.37,0-.57h-.57c.01.19-.02.38,0,.57Z"/>
  <path class="b" d="M247.07,365.63c-.06-.31-.27-.48-.57-.57.02.17.02.4,0,.57.19,0,.38.02.57,0Z"/>
  <path class="b" d="M253.87,367.9c-.39-.16-.75-.4-1.13-.57v.57c.36.19.39.16.57.57.37-.04.77.05,1.13,0,.06-.13-.03-.37,0-.57-.15-.07-.4.07-.57,0Z"/>
  <path class="b" d="M269.17,364.5c-.3.07-.51.26-.57.57.19,0,.38-.02.57,0v-.57Z"/>
  <path class="b" d="M273.12,365.35c-.26-.45-.74-.59-1.12-.85v.57l.57.57c.12-.06.58.08.56-.28Z"/>
  <path class="b" d="M263.5,366.77c.38,0,.76,0,1.13,0v-.57c-.18-.02-.38.01-.57,0-.19-.01-.38.02-.57,0-.19-.02-.38.02-.57,0,.16.22.36.39.57.57Z"/>
  <path class="b" d="M391,371.87c-.17.19-.36.42-.57.57-.11.36-.44.74-.57,1.13.18-.04.39.04.57,0,.23-.59.51-.95,1.13-1.13v-.57c-.17.04-.37-.01-.57,0Z"/>
  <path class="b" d="M380.23,373c.18.02.38,0,.57,0l-.57-.57c-.02.19.02.38,0,.57Z"/>
  <path class="b" d="M397.23,372.43c.16-.1.3-.48.57-.57v-.57c-.41.13-.69.59-1.13.57v.57c.18.03.39-.04.57,0Z"/>
  <path class="b" d="M398.37,371.3c.09-.26.53-.44.57-.57.11-.36.43-.74.57-1.13.05-.15-.03-.37,0-.57-.14.05-.37-.03-.57,0-.09.1.09.45,0,.57-.19.25-.09.37-.57.57-.14.06-.37-.04-.57,0v1.13c.16-.05.37.03.57,0Z"/>
  <path class="b" d="M290.7,367.33c.06.16-.05.38,0,.57h.57c-.05-.18.03-.38,0-.57v-.57h-.57c.06.16-.06.4,0,.57Z"/>
  <path class="b" d="M400.07,366.2c-.12.18-.45.32-.57.57h.57c.02-.19-.02-.38,0-.57Z"/>
  <path class="b" d="M427.83,357.13c-.18.03-.39-.03-.57,0-.18.04-.38-.03-.57,0,.04.19-.07.49,0,.57.07.07.38-.05.57,0h.57v-.57Z"/>
  <polygon class="b" points="426.42 358.27 426.7 357.7 426.13 357.98 426.42 358.27"/>
  <path class="b" d="M292.4,371.3c-.25-.19-.39-.41-.57-.57-.2-.17-.41-.35-.57-.57-.19,0-.38,0-.57,0v.57c.64.24.53.55.57.57.37.12.74.43,1.13.57.15.05.37-.03.57,0,.03-.18-.03-.38,0-.57-.12-.09-.45.09-.57,0Z"/>
  <path class="b" d="M226.67,362.8c-.05.13.03.37,0,.57h1.13v-.57c-.18,0-.4.03-.57,0-.2-.04-.42.06-.57,0Z"/>
  <path class="b" d="M258.4,369.6c-.19.02-.38-.03-.57,0v.57c.19,0,.38.02.57,0-.05-.17.05-.39,0-.57Z"/>
  <polygon class="b" points="253.58 399.07 253.87 398.5 253.3 398.78 253.58 399.07"/>
  <path class="b" d="M255,413.23c.3.08.77-.03,1.13,0l-1.13-1.13v1.13Z"/>
  <path class="b" d="M252.73,396.23c-.19-.03-.38.03-.57,0-.61.44-.67.35-1.13.57-.04.02.07.38-.57.57.1.19.38.65.57.57.1-.05.1-.41.28-.56l.29.56c.07,0,.78.02,1.13,0l-.57-.57c-.07-.56.23-.47.57-.57.11-.03.46-.04.57,0v-.57c-.19-.03-.38.03-.57,0Z"/>
  <path class="b" d="M263.5,406.43c-.3.06-.51.28-.57.57h.57c.05-.13-.03-.37,0-.57Z"/>
  <path class="b" d="M262.93,410.97c.18.01.39.02.57,0v-.57c-.11.15-.44.26-.57.57Z"/>
  <path class="b" d="M263.5,408.13h.57c.05-.13-.02-.37,0-.57l-.57.57Z"/>
  <path class="b" d="M261.23,409.83v.57c.08.01.51.48,1.13.57v-1.13s-1.13,0-1.13,0Z"/>
  <path class="b" d="M453.9,354.87c.19-.02.4.04.57,0,0-.19,0-.38,0-.57h-1.13c-.02.19.03.38,0,.57.19-.01.38.02.57,0Z"/>
  <path class="b" d="M455.6,356v-.57h-1.13c-.01.19.02.38,0,.57.37-.04.76.03,1.13,0Z"/>
  <path class="b" d="M443.13,360.53h-1.13c-.04.1-.03.44,0,.57.38-.02.76.02,1.13,0v-.57Z"/>
  <path class="b" d="M439.73,361.67v.57c.2.02.41-.04.57,0v-.57c-.19.01-.38-.01-.57,0Z"/>
  <path class="b" d="M402.9,397.37h.57v-.57h-.57c.04.16-.01.37,0,.57Z"/>
  <path class="b" d="M411.97,394.53c.11.05.38,0,.57,0,.18,0,.39.03.57,0,.19-.03.41-.53.57-.57-.22-.16-.41-.35-.57-.57h-.57l-.57.57h-.57c.04.13.42.5.57.57Z"/>
  <path class="b" d="M417.07,414.37h-.57c-.05.15.03.37,0,.57.19.01.38,0,.57,0,.19,0,.38,0,.57,0,.19,0,.38,0,.57,0,.19,0,.38,0,.57,0v-.57h-1.7Z"/>
  <path class="b" d="M449.37,397.93v-.57h-.57c.12.32.4.4.57.57Z"/>
  <path class="b" d="M390.43,371.3c.14-.05.33-.46.57-.57.14-.06.37.05.57,0,.04-.17-.03-.38,0-.57-.19,0-.38,0-.57,0-.19,0-.38-.01-.57,0-.06.31-.27.48-.57.57-.02.19.01.38,0,.57.2-.03.42.05.57,0Z"/>
  <path class="b" d="M391.57,368.47c.01.19,0,.38,0,.57h.57v-.57c-.17-.02-.39-.01-.57,0Z"/>
  <path class="b" d="M395.53,367.9c-.19.02-.38-.01-.57,0-.19.01-.38-.02-.57,0-.06.08.06.5-.28.56h-.56s-.29-.56-.29-.56c-.19.01-.38-.02-.57,0-.19.02-.38-.03-.57,0v.57c.2.03.43-.05.57,0,.44.18.38.12.57.57.05.13-.02.37,0,.57.29-.23.79-.35,1.13-.57.19-.12.34-.43.57-.57.27-.16.93,0,1.13-.57-.19.02-.38-.02-.57,0Z"/>
  <path class="b" d="M386.47,369.6l-.57.57c-.04.11-.03.45,0,.57h.57c.16-.38.49-.45.57-.57v-.57c-.17.06-.41-.07-.57,0Z"/>
  <path class="b" d="M258.4,367.9c-.18-.03-.38.02-.57,0-.19-.02-.38.01-.57,0-.18-.01-.38-.01-.57,0-.19.01-.38-.02-.57,0-.19.02-.38-.03-.57,0-.13.02-.37.53-.57.57.04.15-.01.37,0,.57.04-.07.38.05.57,0l1.13-.57c.18-.03.38.02.57,0,.17-.02.46-.04.57,0,.45.18.38.13.57.57h.57c-.1-.37-.45-.75-.57-1.13Z"/>
  <polygon class="b" points="255 367.33 255.57 367.9 255.57 367.33 255 367.33"/>
  <path class="b" d="M241.4,362.23c.19,0,.38,0,.57,0v-.57c-.16-.03-.39,0-.57,0-.2.01-.45-.05-.57,0-.37.16-.38.33-.57.57.19,0,.38,0,.57,0s.38,0,.57,0Z"/>
  <path class="b" d="M247.63,359.97c-.19.02-.38-.02-.57,0l.57.57v-.57Z"/>
  <path class="b" d="M385.33,372.43c.02.18.01.39,0,.57-.01.19.04.4,0,.57.18.07.46-.08.57,0,.19-.14.33-.47.57-.57-.04-.16.02-.37,0-.57-.02-.18,0-.38,0-.57h-.57c0,.43-.12.62-.57.57Z"/>
  <path class="b" d="M387.03,371.3c-.2-.02-.41.05-.57,0-.03.16,0,.38,0,.57.19,0,.38,0,.57,0,.19,0,.38-.02.57,0v-.57c-.19-.01-.38.02-.57,0Z"/>
  <path class="b" d="M377.4,374.7c-.13.3-.13.56-.57.57,0,.19-.02.38,0,.57h.57c.07-.35.44-.76.57-1.13-.17-.02-.4-.02-.57,0Z"/>
  <path class="b" d="M382.5,373.57c.04-.17-.02-.37,0-.57h-1.13v.57c.47.19.37.15.57.57h.57c.06-.15-.04-.37,0-.57Z"/>
  <path class="b" d="M398.93,396.23c.15.05.37-.03.57,0,.02-.18.01-.39,0-.57-.26.11-.46.31-.57.57Z"/>
  <path class="b" d="M446.53,350.33c-.2-.04-.43.06-.57,0v.57c.19,0,.38,0,.57,0v-.57Z"/>
  <path class="b" d="M449.93,351.47c-.5-.14-.39-.13-.57-.57-.19,0-.38,0-.57,0-.19,0-.38,0-.57,0-.19,0-.38,0-.57,0,.03.2-.05.41,0,.57.19.02.4-.04.57,0,.61.14.76-.22,1.13.57.19.02.38,0,.57,0,.19,0,.38,0,.57,0,.05-.14-.03-.37,0-.57-.12.03-.45.03-.57,0Z"/>
  <path class="b" d="M397.8,365.63c-.06.31-.27.48-.57.57-.16.53-.58,1.06-.57,1.7.19-.03.4.05.57,0l.57-.57c.11-.07.38.05.57,0v-.57c.19-.36.49-.45.57-.57v-.57c-.18.03-.38-.02-.57,0-.18.02-.38,0-.57,0Z"/>
  <path class="b" d="M429.53,357.7h.57c0-.19.01-.38,0-.57-.25.17-.38.41-.57.57Z"/>
  <path class="b" d="M430.67,357.13c.26-.11.47-.29.57-.57-.37-.03-.8.07-1.13,0,.02.19-.01.38,0,.57.12-.08.4.07.57,0Z"/>
  <path class="b" d="M430.1,356c-.19,0-.38,0-.57,0s-.38.01-.57,0c.38.75.51.44,1.13.57-.02-.19.04-.4,0-.57Z"/>
  <path class="b" d="M423.3,360.53c-.19,0-.38,0-.57,0-.19,0-.38,0-.57,0-.38-.02-.76.02-1.13,0,0,.19.01.38,0,.57.37.03.76.01,1.13,0,.37-.01.83.07,1.13,0v-.57Z"/>
  <path class="b" d="M286.73,371.3c-.17-.05-.39.05-.57,0,.02.19-.03.38,0,.57.19.03.4-.05.57,0-.04-.17.03-.38,0-.57Z"/>
  <path class="b" d="M286.17,370.73c-.01-.19,0-.38,0-.57,0-.19,0-.38,0-.57-.19,0-.38.02-.57,0-.19-.02-.39.04-.57,0,.02.19-.03.38,0,.57.04.2-.06.43,0,.57.31.06.48.27.57.57.15.06.38-.05.57,0-.02-.19.01-.38,0-.57Z"/>
  <path class="b" d="M290.13,373v.57h.57c-.09-.3-.32-.42-.57-.57Z"/>
  <path class="b" d="M292.4,373v-.57c-.19,0-.38.02-.57,0v.57c.19-.06.46.08.57,0Z"/>
  <path class="b" d="M270.3,372.43c.16.17.41.47.57.57.17.04.37-.02.57,0-.02-.19.04-.4,0-.57-.07-.31-.33-.63-.56-.85l.27-.27c.22.23.55.49.85.56-.02-.19.04-.4,0-.57-.33-.11-.51-.06-.57-.57-.18-.04-.39.05-.57,0-.07.36-.5.79-.57,1.13-.03.17,0,.39,0,.57Z"/>
  <path class="b" d="M219.87,361.1c-.29-.06-.51-.27-.57-.57-.19-.02-.4.04-.57,0-.19.16-.37.48-.57.57v.57c.37-.03.76.04,1.13,0,.2-.02.41.04.57,0,.35-.09.65-.14.57-.57-.19-.02-.4.04-.57,0Z"/>
  <path class="b" d="M217.6,359.97c.19,0,.38-.02.57,0,.19.02.38-.02.57,0,.37.05.81-.07,1.13,0,.35.08.65.15.57.57.37.01.76-.04,1.13,0,0-.19,0-.38,0-.57-.44,0-.62-.11-.57-.57-.19-.02-.38.02-.57,0-.45-.05-.53-.56-.57-.57-.19-.02-.38.01-.57,0-.19-.01-.38.01-.57,0s-.38.01-.57,0c-.18.44-.12.38-.57.57v.57Z"/>
  <path class="b" d="M233.47,360.53c.19,0,.38,0,.57,0,.19,0,.38,0,.57,0,0-.18-.03-.39,0-.57h-1.13c-.37,0-.78.05-1.13,0-.29-.04-.53-.27-.57-.57-.19,0-.38,0-.57,0-.19,0-.38,0-.57,0-.38-.01-.76.01-1.13,0v1.13c.17.04.37-.02.57,0,.18.02.38-.01.57,0,.19.01.38,0,.57,0,.19,0,.38,0,.57,0,.38.01.76,0,1.13,0,.19,0,.38,0,.57,0Z"/>
  <path class="b" d="M257.27,398.5c-.18-.02-.38.02-.57,0-.19-.02-.4.04-.57,0-.29-.06-.51-.27-.57-.57-.18,1.06-.99,3.04-1.7,3.97.21.16.38.38.57.57.19.01.38,0,.57,0,.06-.36-.1-.88,0-1.13.28-.74.68-.76,1.13-1.13.17-.14.28-.49.57-.57.13-.03.43-.03.57,0,.02-.19-.02-.38,0-.57.02-.19-.03-.38,0-.57Z"/>
  <path class="b" d="M224.97,356.57c-.28.06-.53.27-.57.57.13.05.37-.01.57,0,.56.04,1.14.01,1.7,0,.04,0-.1-.67.57-.57-.37,0-.24-.11-1.13,0-.37.05-.8-.07-1.13,0Z"/>
  <path class="b" d="M430.1,417.2c-.26.64.01.54,0,.57v-.57Z"/>
  <path class="b" d="M457.3,355.43v.57h1.7v-.57c-.48-.11-1.16.06-1.7,0Z"/>
  <path class="b" d="M461.27,356c-.36-.05-.89.09-1.13,0,.07.13-.05.38,0,.57.19.02.38-.03.57,0,.2.03.43-.05.57,0v-.57Z"/>
  <path class="b" d="M443.7,362.8c-.19.02-.38-.02-.57,0v.57h.57v-.57Z"/>
  <path class="b" d="M436.9,362.8v-.57c-.19,0-.38,0-.57,0h-.57v.57c.19,0,.38,0,.57,0,.19,0,.38,0,.57,0Z"/>
  <path class="b" d="M435.77,362.8c-.19,0-.38,0-.57,0-.19,0-.38,0-.57,0-.19,0-.38.01-.57,0-.19-.01-.38.02-.57,0-.04.18.05.39,0,.57h2.27v-.57Z"/>
  <path class="b" d="M421.03,388.87c.06.31.27.48.57.57.02-.19-.03-.38,0-.57-.14.06-.37-.04-.57,0Z"/>
  <path class="b" d="M400.63,395.1c-.06.01-.14.12-.23.23.11-.09.22-.17.23-.23Z"/>
  <path class="b" d="M400.4,395.33c-.13.1-.27.21-.34.33.12-.06.23-.2.34-.33Z"/>
  <path class="b" d="M408,392.83c.14-.23.34-.42.57-.57,0-.03.08-.1,0-.57l-.57-.57c-.19,0-.38,0-.57,0-.05.15.02.37,0,.57,0,.06.6.26,0,1.13h.57Z"/>
  <path class="b" d="M432.93,366.77c.19-.01.38.02.57,0v-.57h-1.13v.57c.19-.01.38.01.57,0Z"/>
  <path class="b" d="M422.73,367.9c-.65.12-.77-.2-1.13.57.19,0,.38,0,.57,0h1.13c.05-.18-.05-.39,0-.57-.19.03-.39-.03-.57,0Z"/>
  <path class="b" d="M418.77,368.47c.17-.17.24-.44.57-.57.14-.06.37.04.57,0l.57-.57c0-.43-.26-.44-.57-.57-.14-.06-.37.04-.57,0-.19.19-.36.39-.57.57-.17.14-.28.4-.57.57-.13.08-.4-.07-.57,0,.03.18,0,.38,0,.57,0,.18.03.4,0,.57.19-.01.38.02.57,0,.13-.32.39-.39.57-.57Z"/>
  <path class="b" d="M416.5,369.03c-.19,0-.38,0-.57,0-.08.24-.49.41-.57.57-.15.31-.33.59-.55.85l.55.28c.19-.03.4.04.57,0,.12-.32.4-.4.57-.57s.24-.41.57-.57c.14-.07.38.05.57,0,.06-.14-.04-.37,0-.57-.19.01-.38,0-.57,0-.19,0-.38,0-.57,0Z"/>
  <path class="b" d="M438.6,395.1c.54-.16.35-.27.57-.57-.2.02-.44-.05-.57,0-.3.13-.56.13-.57.57.12.03.45.04.57,0Z"/>
  <path class="b" d="M418.2,413.8l-.57-1.13h-.57v1.13c.32-.08.77.05,1.13,0Z"/>
  <path class="b" d="M421.03,390.57h.57c.05-.15-.03-.37,0-.57h-.57v.57Z"/>
  <path class="b" d="M414.23,392.83c-.18-.15-.31-.46-.57-.57v.57h.57Z"/>
  <path class="b" d="M413.1,391.7c.04.2-.06.42,0,.57.19.05.42-.06.57,0v-.57c-.2-.04-.43.06-.57,0Z"/>
  <path class="b" d="M452.77,351.47c-.6-.07-.44-.17-.57-.57-.19-.01-.38,0-.57,0,0,.19.04.42,0,.57-.05.19.06.41,0,.57.19,0,.38,0,.57,0,.19,0,.38.01.57,0,0-.19.02-.38,0-.57Z"/>
  <rect class="b" x="390.43" y="369.03" width=".57" height=".57"/>
  <path class="b" d="M249.33,365.07v-.57c-.19-.03-.41.05-.57,0-.29-.08-.51-.25-.57-.57h-1.13v.57c.48.05,1-.03,1.13.57.18-.03.38.03.57,0,.18-.03.38,0,.57,0Z"/>
  <path class="b" d="M275.4,363.37c-.14-.06-.37.04-.57,0v.57c.44.07.41.41.57.57.05.05.32-.16.57.57.96.24.97-.01,1.13,0v-.57c-.15-.07-.4.07-.57,0-.33-.13-.49-.54-.57-.57-.24-.09-.42-.51-.57-.57Z"/>
  <path class="b" d="M374,370.73c-.19.77-.25.65-.57,1.13-.14.22-.37.4-.57.57-.18.15-.3.46-.57.57-.07.15.07.41,0,.57-.09.2-.4.38-.57.57v.57c.14.06.1.71.57.57.04-.2-.06-.43,0-.57.06-.13.44-.51.57-.57-.03-.13-.04-.44,0-.57.21-.71.69-.79,1.13-1.13.17-.13.3-.47.57-.57.01-.19-.01-.38,0-.57.01-.19-.02-.38,0-.57-.14.03-.42.03-.57,0Z"/>
  <path class="b" d="M392.7,396.8h-1.13v.57c.46.01.47.49.57.57.22.17.38.44.57.57.2.02.44-.05.57,0-.04-.18.05-.39,0-.57-.11-.37-.43-.75-.57-1.13Z"/>
  <path class="b" d="M394.97,373.57c.19.01.38-.02.57,0v-.57h-.57v.57Z"/>
  <path class="b" d="M395.53,372.43c-.03.18.03.38,0,.57.18,0,.4.03.57,0-.1-.33,0-.63-.57-.57Z"/>
  <path class="b" d="M281.63,363.37v.57s.13.62.57.57c0-.19,0-.38,0-.57v-.57c-.15-.06-.39.06-.57,0Z"/>
  <path class="b" d="M292.97,369.03c-.18.02-.38,0-.57,0,.03.18-.01.38,0,.57.01.19,0,.38,0,.57h1.13c0-.19.01-.38,0-.57-.2-.18-.4-.35-.57-.57Z"/>
  <path class="b" d="M416.5,363.37v-.57h-.57c-.04.18.04.39,0,.57.18-.03.39.04.57,0Z"/>
  <path class="b" d="M418.2,362.8c-.04-.36,0-.76,0-1.13-.19,0-.38.02-.57,0,.05.13-.03.37,0,.57.02.17.02.4,0,.57.13-.05.37.03.57,0Z"/>
  <path class="b" d="M418.77,361.67v-.57h-.57v.57c.18,0,.39.03.57,0Z"/>
  <path class="b" d="M411.97,363.93c.18-.03.38.03.57,0l1.12-1.42-.56-.28c-.1.26-.3.47-.57.57-.17.06-.4-.06-.57,0-.39.14-.74.43-1.13.57-.17.06-.39-.05-.57,0-.12.3-.45.41-.57.57-.16.21-.38.38-.57.57-.19.19-.35.41-.57.57-.03.19.04.39,0,.57.35-.01.08.43,1.13,0l-.56-.28c0-.37.49-.23.56-.28.55-.42,1.32-1.22,1.72-1.44.44-.25.51.31.54.31Z"/>
  <path class="b" d="M406.3,367.33c.06-.42-.15-.63-.57-.57-.17.26-.34.82-.57,1.13.38-.19.76-.36,1.13-.57Z"/>
  <path class="b" d="M406.3,366.2c.17-.21.37-.39.57-.57.18-.16.29-.46.57-.57h.57c-.02-.19.02-.38,0-.57-.04-.44-.8.23,0-.57s.14-.02.57,0c.19,0,.38,0,.57,0,.18-.17.41-.38.57-.57.17-.21.35-.41.57-.57.04-.15,0-.37,0-.57-.6.59-1.62,0-1.7,0-.19.02-.38-.02-.57,0-.45.05-1.57.42-2.27.57-.18.04-.39-.04-.57,0-.06.17.06.4,0,.57-.18.49.13.58-.57,1.13-.11.09-.41-.08-.57,0-.4.21-.48.41-1.13.57.02.19,0,.38,0,.57,0,.24.03.14,0,.57-.02.19.03.39,0,.57.32-.05.76-.46,1.13-.57.15-.23.38-.38.57-.57.18-.18.35-.43.57-.57.13-.08.4.07.57,0,.14-.06.08-.88,1.13-.56l-1.13,1.13h-.57c-.1.27-.42.39-.57.57-.18.21-.43.38-.57.57-.19.25-.51.47-.57.57-.19.32-.47.81-.57,1.13.18-.05.42.07.57,0,.11-.05.32-.4.57-.57.19-.12.34-.43.57-.57.4-.24.5-.48,1.13-.57.15-.22.41-.37.57-.57Z"/>
  <path class="b" d="M402.33,366.77v.57c.19-.01.38.03.57,0,.04-.18-.04-.38,0-.57-.18.03-.38-.01-.57,0Z"/>
  <path class="b" d="M439.73,353.17h.57c.02-.2-.05-.42,0-.57h-.57c.06.15-.05.38,0,.57Z"/>
  <path class="b" d="M435.77,353.17v-.57c-.19-.02-.38.01-.57,0v.57c.19.02.39-.04.57,0Z"/>
  <path class="b" d="M422.73,359.4c.19,0,.38-.02.57,0,0-.19-.02-.38,0-.57-.47.19-.37.15-.57.57Z"/>
  <path class="b" d="M280.5,374.13c-.15.26.51.83.57,1.13.19,0,.38,0,.57,0,.09-.28.29-.47.57-.57v-1.13c-.36.21-.77.36-1.13.57-.14.08-.51-.09-.57,0Z"/>
  <path class="b" d="M264.63,370.73c.19.2.38.38.57.57v-.57c-.19.06-.43-.07-.57,0Z"/>
  <path class="b" d="M261.23,374.13c.01.19-.02.38,0,.57.18.05.4-.06.57,0,0-.19-.02-.38,0-.57-.18-.04-.39.05-.57,0Z"/>
  <path class="b" d="M262.93,372.43c-.2-.03-.43.05-.57,0,.07.15-.06.39,0,.57.14-.07.38.05.57,0v-.57Z"/>
  <path class="b" d="M261.8,373.57h.57c-.02-.2.05-.42,0-.57-.42.19-.37.1-.57.57Z"/>
  <path class="b" d="M274.27,371.87c-.19,0-.38,0-.57,0-.19,0-.38.02-.57,0,.21.36.34.78.57,1.13h.57c-.03-.18.02-.38,0-.57v-.57Z"/>
  <path class="b" d="M231.11,361.76c-.28-.28-.88,0-1.04-.09-.04.71-.65.48-1.13.57v.57c0,.19,0,.38,0,.57.14-.07.38.05.57,0h.57l.57-.57h.57c-.08-.21.18-.77-.09-1.04Z"/>
  <path class="b" d="M248.2,367.9h-.57v.57h.57c0-.07.66-.27,0-.57Z"/>
  <path class="b" d="M245.93,368.47c-.62-.1-.53-.56-.57-.57-.18-.02-.38.01-.57,0,.04.17-.02.38,0,.57.13,0,1.01.44,1.13.57l.57-.57c-.18-.03-.38.03-.57,0Z"/>
  <path class="b" d="M239.7,366.2c-.19,0-.38,0-.57,0-.19,0-.38,0-.57,0v.57c.19.01.38,0,.57,0,.19,0,.38,0,.57,0,.19,0,.38.01.57,0,.37-.02.77.04,1.13,0,.19-.02.38.03.57,0,.68-.1.78.17,1.13-.57-.19-.02-.38.01-.57,0-.19-.01-.38,0-.57,0-.19,0-.38,0-.57,0-.19,0-.38,0-.57,0-.38-.01-.76.02-1.13,0Z"/>
  <path class="b" d="M235.73,365.07c0,.44.28.43.57.57-.04-.18.04-.39,0-.57h-.57Z"/>
  <path class="b" d="M217.6,365.07h4.53c.01-.19-.04-.4,0-.57-.23-.15-.38-.38-.57-.57-.19-.19-.41-.34-.57-.57-.18-.03-.38.01-.57,0-.18-.01-.43-.04-.57,0-.29.08-.51.25-.57.57.2.03.43-.06.57,0,.17.07.46-.09.56.28,0,.33-.35.25-.56.28-.35.06-.77-.05-1.13,0-.19.03-.38-.03-.57,0-.19.03-.4-.04-.57,0v.57Z"/>
  <path class="b" d="M223.83,363.93c.19,0,.38-.01.57,0v-.57c-.19,0-.38.01-.57,0-.37-.03-.81.06-1.13,0-.29-.06-.53-.25-.57-.57h-.57l.57,1.13c.19.02.38-.01.57,0,.19.01.38-.01.57,0,.19.01.38,0,.57,0Z"/>
  <path class="b" d="M248.77,397.37c-.19.03-.38-.03-.57,0v.57c.05.02.2.42.57.57-.13-.14.13-.87,0-1.13Z"/>
  <path class="b" d="M249.9,398.5c-.27.02-1.1.04-1.13,0,.21.08.85.42,1.13.57v-.57Z"/>
  <path class="b" d="M253.3,412.67c-.19,0-.38.02-.57,0-.19-.02-.39.03-.57,0-.2-.04-.43.06-.57,0-.3-.13-.56-.13-.57-.57-.33.07-.76.41-1.13.57,0,.43-.26.44-.57.57v.57c.19,0,.38,0,.57,0s.38,0,.57,0c.11-.21-.12-.57.57-.57.6,0,.46.2.57.57.19,0,.38,0,.57,0,.38,0,.76,0,1.13,0,.19,0,.38,0,.57,0,.19,0,.38,0,.57,0-.09-.36-.43-.76-.57-1.13h-.57Z"/>
  <path class="b" d="M253.87,395.1c-.06-.14.04-.37,0-.57h-.57c.02.19-.02.38,0,.57.19-.01.38.01.57,0Z"/>
  <path class="b" d="M264.63,405.87c-.19,0-.38,0-.57,0-.03.37.04.76,0,1.13.34.07.9-.11,1.13,0,.05-.2.42-.57.57-.57v-.57c-.29,0-.67-.02-1.13,0Z"/>
  <path class="b" d="M223.27,356h.57c.37,0,.76.03,1.13,0,.19-.02.38.02.57,0v-1.13c-.19,0-.38,0-.57,0-.16.65-.78.42-1.13.57-.25.1-.44.33-.57.57Z"/>
  <path class="b" d="M217.6,354.3v.57h.57v-.57c-.15-.05-.37.03-.57,0Z"/>
  <path class="b" d="M421.6,419.47h-.57c.05.17-.06.41,0,.57.18.02.38,0,.57,0,.06-.16-.05-.39,0-.57Z"/>
  <path class="b" d="M423.87,419.47h.57v-.57c-.19,0-.38,0-.57,0v.57Z"/>
  <path class="b" d="M434.07,418.33c-.19-.18-.47-.28-.57-.57-.38,0-.76.02-1.13,0-.19,0-.38.02-.57,0v.57c.2.02.43-.05.57,0,.44.18.38.12.57.57.19.04.43-.07.57,0,.3.15.45.51.57.57h.57c.03-.17.02-.4,0-.57-.33-.12-.4-.41-.57-.57Z"/>
  <path class="b" d="M425.57,389.43c-.19.02-.39-.04-.57,0,0,.19.03.39,0,.57.44-.18.38-.12.57-.57Z"/>
  <path class="b" d="M404.6,370.17c-.18.2-.4.37-.57.57-.18.2-.42.37-.57.57-.17.22-.47.4-.57.57-.2.34-.43.76-.57,1.13.16-.07.4.06.57,0,.33-.13.44-.49.57-.57.18-.11.34-.41.57-.57.16-.11.37-.38.57-.57.1-.09.47.09.57,0,.19-.18.39-.38.57-.57.22-.23.34-.81.57-1.13-.32.17-.85.54-1.13.57-.17.02-.39.02-.57,0Z"/>
  <path class="b" d="M447.67,395.1c-.02.37,0,.76,0,1.13h.57c0-.19.01-.38,0-.57-.01-.19.02-.38,0-.57-.19,0-.38,0-.57,0Z"/>
  <path class="b" d="M416.5,372.43v.57c.15-.06.39.06.57,0v-.57c-.15.06-.38-.05-.57,0Z"/>
  <path class="b" d="M436.9,393.4v-.57c.09-.29.41-.4.57-.57.13-.14.05-.69.57-.57,0-.17.03-.4,0-.57-.18.03-.38-.02-.57,0-.2.59-.55.92-1.13,1.13v.57c.12,0,.39.55.57.57Z"/>
  <path class="b" d="M426.7,391.13c.18-.02.38,0,.57,0,0-.19,0-.38,0-.57-.3.06-.51.28-.57.57Z"/>
  <path class="b" d="M423.3,403.6c-.19-.02-.38.03-.57,0,.09.1-.09.45,0,.57.08.1.72.2.85.56l.85-1.12c-.35-.06-.77.04-1.13,0Z"/>
  <path class="b" d="M453.9,350.33h-.57v.57c.19.01.38-.02.57,0,.04-.16-.02-.37,0-.57Z"/>
  <path class="b" d="M387.03,367.33c-.3.2-.79.45-1.13.57v.57c-.05.19.07.42,0,.57.19-.01.38.01.57,0,.2-.41.25-.63.57-1.13.09-.14-.09-.49,0-.57Z"/>
  <path class="b" d="M371.73,367.9c-.04.17.03.38,0,.57h.57c.09-.1-.09-.45,0-.57-.18.04-.39-.05-.57,0Z"/>
  <path class="b" d="M376.83,372.43h.57c-.17-.53-.44-.45-.57-.57.09.09-.09.44,0,.57Z"/>
  <path class="b" d="M259.53,366.77l.57-.57c-.01-.19.02-.38,0-.57-.59,0-.46-.19-.57-.57-.16-.05-.38.04-.57,0-.07.54.1,1.2,0,1.7.17.03.4.02.57,0Z"/>
  <path class="b" d="M234.03,356.57h-.57c-.16.39-.07.43-.57.57-.15.04-.37-.02-.57,0-.02.19,0,.38,0,.57.34.06.58.17.57.57v.57h1.13c-.03-.82-.24-1.37.57-1.7.02-.2-.05-.41,0-.57h-.57Z"/>
  <path class="b" d="M242.53,359.97c-.18,0-.39.02-.57,0-.2-.02-.41.04-.57,0v.57c.33.06.55.2.57.57.19.01.38-.01.57,0,0-.3.56-.87.57-1.13-.16.04-.37,0-.57,0Z"/>
  <path class="b" d="M239.7,360.53c.04-.2-.06-.43,0-.57.18-.45.12-.38.57-.57-.1-.68-.5-.91-.57-1.13-.38-.16-.75-.43-1.13-.57-.17-.06-.39.05-.57,0,.03.19-.04.4,0,.57.04.15.52.37.57.57h.57l.56.28c0,.35-.54.26-.56.28-.06.07.16.47-.57.57v.57c.37-.04.81.07,1.13,0Z"/>
  <path class="b" d="M238.57,359.4c-.37.04-.76-.01-1.13,0,.18.08.17.69,1.13.57-.02-.19.02-.38,0-.57Z"/>
  <path class="b" d="M263.5,365.63c-.21-.35-.33-.82-.57-1.13-.13-.17-.39-.41-.57-.57-.19-.17-.53-.55-.57-.57-.14-.06-.37.04-.57,0v.57c.06.41-.18.62-.57.57-.02.2.04.41,0,.57.27.11.46.53.57.57.12-.04.45-.03.57,0,.1-.34,0-.63.57-.57l.57.57h.57Z"/>
  <path class="b" d="M392.13,373c-.38.13-.77.48-1.13.57-.18.23-.2.41-.57.57v.57c.16-.08.46.09.57,0,.15-.12.45-.42.57-.57.17-.21.5-.88.57-1.13Z"/>
  <path class="b" d="M383.07,375.27c.06.06-.03.36,0,.57h.57c-.18-.54-.42-.44-.57-.57Z"/>
  <path class="b" d="M397.8,394.53v1.13h.57c-.14-.18.19-.76-.57-1.13Z"/>
  <path class="b" d="M396.1,374.7c0-.19.01-.38,0-.57h-.57c.06.3.28.51.57.57Z"/>
  <path class="b" d="M404.03,362.8l1.7-1.13c.05-.17-.04-.39,0-.57-.18.04-.39-.04-.57,0-.14.03-.38.54-.57.57-.18.03-.38-.03-.57,0-.03.19.03.38,0,.57-.03.18.02.38,0,.57Z"/>
  <path class="b" d="M401.77,364.5c.17-.05.39.04.57,0,.07-.15-.07-.41,0-.57.09-.19.05-.43.32-.51l.81-.06v-.57h-.57c-.19.05-.44-.07-.57,0-.11.06-.35.39-.57.57-.19.16-.36.39-.57.57-.03.03.06.67-.56.56-.03-.41-.23-.93-.58-1.13.09.61.22,1.18.57,1.7.11-.08.37.06.57,0-.07-.56.22-.47.57-.57Z"/>
  <path class="b" d="M422.17,358.27c-.15.06-.38-.05-.57,0v.57h.57v-.57Z"/>
  <path class="b" d="M287.3,373.57c-.17-.05-.39.05-.57,0,.18.38.38.75.57,1.13.17.04.38-.03.57,0,0-.19.01-.38,0-.57-.14-.19-.42-.33-.57-.57Z"/>
  <rect class="b" x="294.67" y="373" width=".57" height=".57"/>
  <path class="b" d="M279.37,375.27c-.04-.16.02-.37,0-.57l-.57-.57h-.57c-.03.18.02.38,0,.57-.02.2.05.41,0,.57.28.09.4.45.57.57.27.19.83.48,1.13.57.03-.18-.02-.38,0-.57-.31-.06-.48-.27-.57-.57Z"/>
  <path class="b" d="M277.1,375.27c-.18-.05-.41.06-.57,0v.57h.57c.18.04.4-.05.57,0-.02-.19.02-.38,0-.57h-.57Z"/>
  <path class="b" d="M275.4,374.13c.16.22.36.39.57.57h.57v-.57c-.19-.01-.38.02-.57,0-.19-.02-.38.03-.57,0Z"/>
  <path class="b" d="M231.2,363.93v.57h1.13c-.01-.18-.04-.45,0-.57-.38,0-.76,0-1.13,0Z"/>
  <path class="b" d="M236.87,363.93c-.3-.13-.56-.13-.57-.57-.19-.01-.38.02-.57,0-.2-.02-.41.05-.57,0-.33-.1-.63,0-.57-.57h-.57v1.13c.19.02.38-.02.57,0,.83.08,1.22-.32,1.7.57.18-.03.38.02.57,0h.57v-.57c-.16-.07-.4.07-.57,0Z"/>
  <path class="b" d="M250.47,395.1h.57v-.57h-.57c-.05.11,0,.38,0,.57Z"/>
  <path class="b" d="M258.97,395.1c-.18-.03-.38.03-.57,0v.57c.19.02.38-.02.57,0,.19.02.38-.03.57,0v-.57c-.18-.03-.38.03-.57,0Z"/>
  <path class="b" d="M269.17,395.67c.22.33.43.76.57,1.13.06.16-.06.4,0,.57h.57c.18-.04.4.05.57,0-.09-.37-.42-.76-.57-1.13-.37-.17-.79-.34-1.13-.57Z"/>
  <path class="b" d="M273.7,397.37c-.45-.1-1.04.06-1.13-.57-.19,0-.38.02-.57,0-.19-.02-.4.04-.57,0,.07.57-.24.47-.57.57.05.18-.03.38,0,.57.19-.02.38,0,.57,0,.16,0,.54,0,.57,0,.19-.01.38.02.57,0,.35-.04.99.09,1.13,0,.09-.06-.08-.42,0-.57Z"/>
  <path class="b" d="M265.2,403.6c-.19.02-.38-.01-.57,0-.07.79.86.42,1.13.57v-.57c-.18.03-.38-.02-.57,0Z"/>
  <path class="b" d="M211.93,354.87c.07.07.37-.05.57,0,.17.04.37-.02.57,0,.04-.18-.03-.38,0-.57-.19,0-.38,0-.57,0s-.38,0-.57,0c.05.2-.07.49,0,.57Z"/>
  <path class="b" d="M227.23,355.43c.18-.03.38.03.57,0,.18-.03.38.03.57,0v-.57c-.16.04-.37-.02-.57,0-.37.04-.76-.03-1.13,0v.57c.19-.03.38.03.57,0Z"/>
  <path class="b" d="M224.97,353.73c-.18.02-.38,0-.57,0v.57c.19.01.38-.02.57,0,.19.02.4-.04.57,0v-.57c-.13.05-.37-.03-.57,0Z"/>
  <path class="b" d="M217.03,353.17c.06-.14-.04-.37,0-.57-.19,0-.38.01-.57,0-.19-.01-.39.03-.57,0-.07.15-.39.43-.57.57-.11.09-.42-.08-.57,0v.57h.57c.19-.01.38.02.57,0,.18-.44.12-.38.57-.57.13-.05.37.02.57,0Z"/>
  <path class="b" d="M218.17,356.57c.19.02.38-.02.57,0,.19.02.38-.01.57,0,.19.01.38,0,.57,0,.13-.25.34-.41.57-.57v-.57l-1.13-.57c-.19.02-.38,0-.57,0l-.57,1.13v.57Z"/>
  <path class="b" d="M430.67,419.47c0-.18.03-.39,0-.57-.19-.02-.38,0-.57,0v.57c.19.05.42-.07.57,0Z"/>
  <path class="b" d="M456.17,352.6c-.07-.14.05-.38,0-.57-.31-.12-.48-.54-.57-.57-.15.06-.39-.06-.57,0-.16.05-.38.53-.57.57v.57c.19,0,.38-.01.57,0,.19.01.38-.02.57,0,.19.02.39-.04.57,0Z"/>
  <path class="b" d="M460.7,359.97v.57c.19.01.38-.02.57,0v-.57c-.19.01-.38-.02-.57,0Z"/>
  <path class="b" d="M399.5,392.27c-.35-.06-.77.04-1.13,0,.06.36.23.48.57.57.13.03.43.03.57,0v-.57Z"/>
  <path class="b" d="M419.9,386.6c-.09.12.08.41,0,.57-.19.37-.15.39-.57.57.02.19,0,.38,0,.57l.57.57c.18.02.38,0,.57,0,0-.19,0-.38,0-.57,0-.08-.04-.1,0-.57.02-.19-.03-.39,0-.57.03-.19-.04-.4,0-.57h-.57Z"/>
  <path class="b" d="M409.13,390v-.57h-.57c.05.15-.03.37,0,.57.03.18-.02.38,0,.57.18-.02.38.01.57,0v-.57Z"/>
  <path class="b" d="M419.33,370.73c.19-.02.38.03.57,0v-.57h-.57v.57Z"/>
  <path class="b" d="M440.87,403.6c-.19-.02-.38,0-.57,0-.04.19.07.49,0,.57.21-.17.46-.29.57-.57Z"/>
  <path class="b" d="M415.37,394.53h-.57v.57h.57c.04-.16-.02-.37,0-.57Z"/>
  <path class="b" d="M417.07,395.67c-.38-.14-.77-.47-1.13-.57-.18-.05-.38.03-.57,0-.08.29-.25.51-.57.57v.57c.15-.06.39.06.57,0,.17-.05.39.05.57,0,.4-.12,1.02-.16,1.13-.57Z"/>
  <path class="b" d="M450.5,401.9c.17-.3.38-.38.57-.57.02-.16.41-.4.57-.57.15-.06.37.04.57,0v-.57c-.14.08-.4-.07-.57,0-.37.15-.8.5-1.13.57-.05.32-.46.76-.57,1.13.19.02.38-.03.57,0Z"/>
  <path class="b" d="M389.3,367.9v.57c.29-.13.56-.12.57-.57h-.57Z"/>
  <path class="b" d="M388.17,367.9c-.14-.07-.38.05-.57,0-.02.38.03.76,0,1.13.19,0,.38,0,.57,0,.03-.16.02-.4,0-.57-.02-.2.05-.44,0-.57Z"/>
  <path class="b" d="M383.63,366.77c.18-.04.38.03.57,0v-.57h-.57c.03.2-.06.43,0,.57Z"/>
  <path class="b" d="M254.43,365.63c-.02.19.02.38,0,.57.49-.18,1.12-.55,1.13-1.13-.18-.01-.38-.01-.57,0l-.57.57Z"/>
  <path class="b" d="M249.9,364.5c.18.06.41-.06.57,0,.31.12.46.53.57.57h.57c.43,0,.44.26.57.57.18,0,.39.03.57,0,.62-.09,1.07-.56,1.13-.57l-.57-.57c-.37-.21-.77-.35-1.13-.57-.23-.14-.42-.34-.57-.57-.19,0-.38,0-.57,0-.18,0-.39.03-.57,0-1.09-.21-1.06-.54-1.13-.57-.17-.07-.44.08-.57,0-.32-.19-.39-.41-.57-.57-.2-.18-.47-.29-.57-.57-.19,0-.38,0-.57,0-.19,0-.38.01-.57,0-.56-.04-1.14.03-1.7,0v.57c.2.02.41-.04.57,0,.5.14.41.18.57.57.19,0,.38-.02.57,0,.19.02.39-.04.57,0,.19.04.42-.06.57,0,.34.12.42.45.57.57.22.17.46.29.57.57.2.03.43-.05.57,0,.47.19.37.15.57.57Z"/>
  <path class="b" d="M378.53,378.1h.57c-.01-.19.02-.38,0-.57-.22.15-.37.4-.57.57Z"/>
  <path class="b" d="M379.67,375.83c-.02.19.02.38,0,.57v.57c.15-.08.41.08.57,0,0-.19.02-.38,0-.57-.02-.19.03-.4,0-.57-.19-.02-.38.01-.57,0Z"/>
  <path class="b" d="M380.23,374.7c-.09.15-.45.26-.57.57.3.06.51.28.57.57.19.02.38-.03.57,0v-.57c-.29-.06-.51-.27-.57-.57Z"/>
  <path class="b" d="M366.63,380.93c.02.19-.02.38,0,.57.18-.03.39.04.57,0,.14-.03.35-.49.57-.57v-.57c-.19,0-.38,0-.57,0-.12.44-.37.39-.57.57Z"/>
  <path class="b" d="M278.23,362.23c-.19-.03-.4.04-.57,0,.2.49.3.37.57.57v-.57Z"/>
  <path class="b" d="M299.2,375.27c0,.19.02.38,0,.57.19.01.38-.03.57,0,.03-.18-.03-.38,0-.57h-.57Z"/>
  <rect class="b" x="416.5" y="358.83" width=".57" height=".57"/>
  <path class="b" d="M399.5,364.5l-.56-.28.56-.28c.02-.15.04-.43,0-.57-.18,0-.39-.03-.57,0-.13.02-.38.53-.57.57-.18.03-.39-.04-.57,0-.11.37-.4.76-.57,1.13.04-.04.38,0,.57,0l.23-.35c.17.06.3.35.33.35.44-.07.85-.19,1.13-.57Z"/>
  <path class="b" d="M246.5,385.47c-.17-.05-.39.04-.57,0-.04.17.02.37,0,.57h.57v-.57Z"/>
  <path class="b" d="M264.63,371.87v.57l.57.57h.57c-.13-.64-.5-.92-.57-1.13h-.57Z"/>
  <path class="b" d="M291.83,375.27c-.2-.31-.7-.51-.57-1.13-.19-.01-.38.02-.57,0v1.13c.09.17.46.34.57.57.38.19.75.39,1.13.57-.03-.2.05-.41,0-.57-.03-.1-.41-.33-.57-.57Z"/>
  <path class="b" d="M232.9,413.8c-.19,0-.38,0-.57,0v.57h1.13c-.02-.19.03-.38,0-.57-.19,0-.38,0-.57,0Z"/>
  <path class="b" d="M248.77,418.33c.19,0,.38,0,.57,0v-1.13h-.57c-.08.32.05.77,0,1.13Z"/>
  <path class="b" d="M214.77,359.97c-.13.05-.37-.03-.57,0-.18.02-.38,0-.57,0-.19,0-.38,0-.57,0v1.13c.19-.02.38.02.57,0,.19-.02.38.03.57,0,.18-.03.41-.52.57-.57v-.57Z"/>
  <path class="b" d="M230.07,366.77v-.57c-.18,0-.39.02-.57,0-.2-.03-.43.05-.57,0,.05.13-.03.37,0,.57h1.13Z"/>
  <path class="b" d="M253.87,372.43h1.13c-.03-.18,0-.39,0-.57,0-.19-.05-.45,0-.57h-.57c-.21.63-.64.34-1.13,0,.03.18-.02.38,0,.57.02.18,0,.38,0,.57h.57Z"/>
  <path class="b" d="M253.3,370.73c-.19-.03-.4.04-.57,0,.17.39.3.38.57.57-.04-.2.06-.42,0-.57Z"/>
  <path class="b" d="M244.8,370.73c.17-.16.46-.19.57-.57-.61.09-1.58-.28-1.7.57.18-.03.38.02.57,0h.57Z"/>
  <path class="b" d="M255,373.57h-.57l.57.57c-.05-.19.07-.42,0-.57Z"/>
  <path class="b" d="M255,383.2c0-.19-.01-.38,0-.57h-.57c0,.2.05.44,0,.57.18-.02.39-.02.57,0Z"/>
  <path class="b" d="M242.53,370.17c.2-.03.43.06.57,0v-1.13c-.36.05-.77,0-1.13,0h-1.13c.09.29-.06.78,0,1.13.19.02.38,0,.57,0,.35.02.82.05,1.13,0Z"/>
  <path class="b" d="M225.53,366.77c.19,0,.38,0,.57,0,.19,0,.38,0,.57,0h.57c.14-.38.47-.77.57-1.13-.37-.04-.76.04-1.13,0-.36-.04-.87.09-1.13,0-.78-.27-.46-.53-.57-1.13-.37.03-.76-.04-1.13,0v1.13c.46.3.99.47,1.13.57.22.16.52.22.57.57Z"/>
  <path class="b" d="M245.37,388.3v-.57h-.57c.11.12.04.41.57.57Z"/>
  <path class="b" d="M245.93,387.17h-.57v.57h.57c.04-.18-.03-.38,0-.57Z"/>
  <path class="b" d="M243.67,387.17l.57-.57c-.18-.03-.38.03-.57,0-.18-.03-.39.04-.57,0,.05.17-.05.39,0,.57h.57Z"/>
  <path class="b" d="M207.4,357.7c.25-.06.84-.04,1.13,0v-.57c-.37.03-.76,0-1.13,0v.57Z"/>
  <path class="b" d="M450.5,408.7c-.02-.19.03-.38,0-.57-.19-.01-.38,0-.57,0,.05.13-.03.37,0,.57h.57Z"/>
  <path class="b" d="M435.77,420.03c.18,0,.39.02.57,0v-.57h-.57v.57Z"/>
  <path class="b" d="M460.7,353.73v-.57c-.19-.02-.38.01-.57,0-.19-.01-.38.01-.57,0-.19-.01-.38.02-.57,0v.57c.18.04.38-.03.57,0,.19.03.4-.04.57,0,.19.05.42-.06.57,0Z"/>
  <path class="b" d="M440.3,365.07c.02-.4.34-.41.57-.57.12-.08.39.07.57,0v-1.13c-.19.01-.38-.01-.57,0l-.28.56c-.38-.1-.22-.39-.28-.56-.38.01-.76,0-1.13,0-.38,0-.76.02-1.13,0v.57c.18-.02.38,0,.57,0,.18,0,.39-.03.57,0,.2.03.43-.05.57,0,.16.06.56-.08.56.28l-.56.28c.17.06.38.53.57.57Z"/>
  <path class="b" d="M411.97,372.43c.19-.01.38.02.57,0-.02-.6.21-.46.57-.57-.06-.31-.27-.48-.57-.57l-.28.56-.28-.56c-.19-.02-.38.01-.57,0-.02.19.03.38,0,.57-.03.19.04.4,0,.57h.57Z"/>
  <path class="b" d="M406.3,393.4h-.57c-.16.8-.31.68-.57,0-.06-.16.05-.39,0-.57v-.57c-.41.12-.78.34-1.13.57-.11.37.03.56-.57.57-.63,0-.44-.38-.57-.57-.23-.33-.35-.78-.57-1.13v-.57c-.29.02-.49.55-.57.57v.57c-.03.18.04.39,0,.57.31.12.39.37.57.57l.57.57v.57c.37.11.57-.03.57.57s-.2.46-.57.57c-.17.05-.39-.04-.57,0-.17.04-.37-.03-.57,0-.06.31-.27.48-.57.57-.16.04-.37-.02-.57,0-.18.02-.38,0-.57,0-.2.22-.25.35-.57.57-.06.34-.51.79-.57,1.13h1.13c.15-.62-.19-.73.57-1.13.14-.07.4.07.57,0,.36-.15.82-.52,1.13-.57.34-.05,1.56-.07,1.7,0l.28-.57.28.28-.57.28c.05.03-.03.37,0,.57h.57c.18-.45.12-.38.57-.57.05-.19-.07-.44,0-.57-.17-.2-.36-.4-.57-.57-.21-.17-.68-.08-.57-.57l.57-.57c.48-.12.38.39.57.57.06.06-.01.68.57.57.05-.19-.07-.49,0-.57.18-.18.24-.42.57-.57.11-.05.37,0,.57,0-.03-.18-.51-.39-.57-.57Z"/>
  <path class="b" d="M397.23,397.93c-.14.4-.09.45-.57.57-.3.07-.77-.01-1.13,0-.19,0-.38.01-.57,0-.19-.01-.39.03-.57,0v.57c.18.04.39-.04.57,0,.2.04.44-.06.57,0,.68.35.43.94.57,1.13.08.11.53.2.82.63.74,1.12-.44,1.43,1.45,1.64v-.57c0-.37-.05-.78,0-1.13.03-.19-.03-.38,0-.57.12-.67.42-1.37.57-2.27h-1.7Z"/>
  <path class="b" d="M408,396.23c-.02-.19.02-.38,0-.57-.05-.37.08-.82,0-1.13-.4.07-.59-.2-.57-.57-.13-.04-.38,0-.57,0,.03.18,0,.38,0,.57,0,.18.03.39,0,.57-.05.34-.51.79-.57,1.13.45.19.38.13.57.57.19,0,.38,0,.57,0,.09-.27.3-.47.57-.57Z"/>
  <path class="b" d="M398.37,390c-.29.04-.86.05-1.13,0v.57s.12.62.57.57c.1-.34,0-.63.57-.57v-.57Z"/>
  <path class="b" d="M420.47,371.3c-.04.16.01.37,0,.57.53.09.44-.29.57-.57-.18.03-.38-.02-.57,0Z"/>
  <path class="b" d="M421.03,370.73c-.05.18.07.42,0,.57.19-.03.38.02.57,0,.15-.29.46-1.06.57-1.13-.3.19-.83.5-1.13.57Z"/>
  <path class="b" d="M417.63,371.3c.05.08.38-.06.57,0v-.57c-.33.11-.5.19-.57.57Z"/>
  <path class="b" d="M451.63,402.47c.06.15-.06.39,0,.57h.57c0-.43.26-.44.57-.57,0-.19-.02-.38,0-.57-.34.16-.79.58-1.13.57Z"/>
  <path class="b" d="M391.57,365.63c.18-.03.39.04.57,0,.73-.18,1.57-.32,2.27-.57.26-.09.59-.39,1.13-.57v-.57h-.57c-.18.03-.39-.04-.57,0-.19.04-.42-.06-.57,0-.16.06-.34.47-.57.57-.38.16-.78.36-1.13.57-.14.08-.42-.08-.57,0-.05.19.06.43,0,.57Z"/>
  <path class="b" d="M390.43,366.77v.57c.19,0,.38,0,.57,0,.02-.19-.02-.38,0-.57h-.57Z"/>
  <path class="b" d="M391.57,366.77c-.11-.33-.16-.55-.57-.57-.02.19.02.38,0,.57.18-.04.4.06.57,0Z"/>
  <path class="b" d="M380.8,365.63c-.19,0-.38,0-.57,0-.2.47-.32.38-.57.57v.57c.18-.04.39.04.57,0,.08-.34.43-.76.57-1.13Z"/>
  <path class="b" d="M245.93,357.7c-.19,0-.39-.02-.57,0,0,.19-.02.39,0,.57h.57c-.04-.2.06-.43,0-.57Z"/>
  <path class="b" d="M244.8,357.7v-.57c-.19-.03-.38.02-.57,0-.18-.02-.38,0-.57,0h-.57v.57c.38.11.78.49,1.13.57.18-.44.12-.38.57-.57Z"/>
  <path class="b" d="M260.1,362.8c-.07-.07-.36.04-.57,0-.35-.07-.81.08-1.13,0v.57h1.7c-.09-.08.09-.48,0-.57Z"/>
  <path class="b" d="M241.4,356.57c-.19-.01-.38,0-.57,0-.19,0-.38,0-.57,0s-.38,0-.57,0-.38,0-.57,0v.57c.14-.04.38,0,.57,0,.2,0,.45-.05.57,0,.51.21.38.34.57.57.09.11-.09.46,0,.57.09.1.53.55.57.57.21.11.8-.07,1.13,0v-.57c-.44,0-.43-.28-.57-.57-.07-.14.05-.38,0-.57v-.57c-.19,0-.38.01-.57,0Z"/>
  <path class="b" d="M389.87,395.1v.57l.57.57c.09-.12.51-.54.57-.57l-.57-.57c-.19,0-.38,0-.57,0Z"/>
  <path class="b" d="M282.77,362.23c.33.16.39.39.57.57s.45.25.57.57c.19.03.38-.02.57,0v-.57c-.58-.24-1.16-.97-1.7-1.13v.57Z"/>
  <path class="b" d="M414.8,359.97c-.17-.15-.26-.45-.57-.57-.14-.05-.37.02-.57,0-.19-.02-.38.02-.57,0h-.57c.04.3.46.76.57,1.13.35-.08.76-.44,1.13-.57h.57Z"/>
  <path class="b" d="M411.97,360.53v1.13c.19,0,.38,0,.57,0,.19,0,.38.02.57,0-.06-.36.08-.83,0-1.13-.34.07-.81-.08-1.13,0Z"/>
  <path class="b" d="M262.93,375.27c0-.43-.26-.44-.57-.57-.02.19.03.38,0,.57h.57Z"/>
  <path class="b" d="M272,375.83c.19,0,.38,0,.57,0v-.57c-.22-.15-.37-.43-.57-.57-.18-.02-.38,0-.57,0v.57c.36.11.42.46.57.57Z"/>
  <path class="b" d="M269.73,372.43c-.06-.12-.45-.25-.57-.57h-.57c.04.2-.06.42,0,.57.36.38.67.43,1.13,1.13.22.16.41.35.57.57.19.03.41-.05.57,0-.21-.36-.33-.79-.57-1.13-.13-.2-.46-.35-.57-.57Z"/>
  <path class="b" d="M270.87,374.13v.57c.16-.04.37,0,.57,0v-.57c-.16-.06-.39.06-.57,0Z"/>
  <path class="b" d="M268.6,375.27c.07.17-.09.46.28.56l.28-.56c-.19.04-.5-.07-.57,0Z"/>
  <path class="b" d="M271.43,395.67l.57-.57c.18-.18.33-.44.57-.57.05-.36-.03-.76,0-1.13-.4.05-.45.48-.57.57-.19.14-.34.41-.57.57-.18.12-.32.42-.57.57.19.13.34.41.57.57Z"/>
  <path class="b" d="M227.8,410.97c-.19.04-.4.5-.57.57v.57h1.13c0-.19.02-.39,0-.57-.45-.18-.38-.12-.57-.57Z"/>
  <path class="b" d="M246.5,418.33h.57v-.57h-.57c0,.19-.01.38,0,.57Z"/>
  <path class="b" d="M211.37,357.7c.15-.06.37.04.57,0,.06-.31.27-.48.57-.57.16-.04.37.02.57,0,.19-.02.38.01.57,0,.19-.01.38,0,.57,0,.19,0,.38,0,.57,0,.19,0,.38-.01.57,0v-.57c-.17.03-.38-.01-.57,0-.19.01-.38,0-.57,0-.38.02-.76,0-1.13,0-.38,0-.76,0-1.13,0,.04.69-.43.48-.57.57-.65.41-1.17.36-1.7.57-.04.01.07.41-.57.57-.17.04-.38-.04-.57,0,.01.19-.01.38,0,.57h1.7c.14-.33.39-.39.57-.57s.25-.45.57-.57Z"/>
  <path class="b" d="M215.33,362.23c-.19-.01-.38.01-.57,0v.57h.57v-.57Z"/>
  <path class="b" d="M216.47,404.73c-.19,0-.38-.02-.57,0v.57c.16.05.37-.03.57,0v-.57Z"/>
  <path class="b" d="M231.2,366.2c.17.12.38.39.57.57.45-.58.43-1.12,0-1.7-.31-.06-.77,0-1.13,0h-.57v.57c.64-.15.83.36,1.13.57Z"/>
  <rect class="b" x="229.5" y="364.5" width=".57" height=".57"/>
  <path class="b" d="M230.07,367.9v-.57c-.24-.11-.79.07-1.13,0,.02.18,0,.38,0,.57.37.03.76-.02,1.13,0Z"/>
  <path class="b" d="M245.37,384.33v-.57l-1.13-.57v1.13c.25.23.82.33,1.13.57v-.57Z"/>
  <path class="b" d="M239.13,369.03c.32-.05.77-.45,1.13-.57-.18-.21-.31-.42-.57-.57-.13-.08-.39.07-.57,0-.07.19-.41.38-.57.57v.57c.18.01.39.03.57,0Z"/>
  <path class="b" d="M245.37,396.23h.57v-.57h-1.13c.03.2-.05.42,0,.57h.57Z"/>
  <path class="b" d="M248.2,412.67c-.44,0-.62-.11-.57-.57h-1.7c-.45-.04-.43-.41-.57-.57-.71-.83-.42-.79-.57-1.7-.47-.19-.38-.15-.57-.57-.18.05-.42-.07-.57,0-1.02.45-.92.78-1.13,1.7.36.06.82-.08,1.13,0,.21.05.46-.07.56.29l-.56.28c.01.19-.02.38,0,.57.44.18.38.12.57.57.19.02.38-.01.57,0,.19.01.38-.01.57,0,.69.05,1.34.53,1.7.57.19.02.38-.02.57,0,.19.02.38,0,.57,0,0-.19,0-.38,0-.57Z"/>
  <path class="b" d="M437.47,418.33c.19-.01.38.02.57,0,0-.19,0-.38,0-.57-.45-.18-.38-.12-.57-.57-.05-.11,0-.38,0-.57-.65-.2-.41-.25-.57-.57-.21.09-.39.39-.57.57.45.18.38.12.57.57.05.11,0,.38,0,.57.05.11.44.26.57.57Z"/>
  <path class="b" d="M466.65,358.26c.38-.1.22-.39.28-.56h-.57c.06.16-.08.56.28.56Z"/>
  <path class="b" d="M465.8,357.13c-.2-.03-.43.05-.57,0-.46-.19-.41-.1-.57-.57-.19-.03-.38.03-.57,0v.57c.45.18.38.12.57.57h1.13c-.05-.19.07-.42,0-.57Z"/>
  <path class="b" d="M409.13,387.73c.06.3.28.51.57.57.04-.19-.05-.4,0-.57-.19-.02-.38.03-.57,0Z"/>
  <path class="b" d="M249.33,357.7c.19-.02.38.01.57,0-.04-.18.06-.4,0-.57h-1.13c.02.2-.04.41,0,.57.19-.02.38.02.57,0Z"/>
  <path class="b" d="M251.6,359.76c0,.07,0,.13,0,.21.01-.09,0-.15,0-.21Z"/>
  <path class="b" d="M251.6,358.83c-.19,0-.38,0-.57,0-.19,0-.38.01-.57,0v.57c.2.02.42-.05.57,0,.28.09.54.03.57.36,0-.29.02-.49,0-.92Z"/>
  <path class="b" d="M255.58,362.51c.39.17.44.67.56.85h.57c-.15-.53-.46-.79-.85-1.12l-.27.27Z"/>
  <path class="b" d="M253.87,359.4c-.19.02-.38-.02-.57,0-.26.35.54.5.57.57h.57v-.57c-.17-.02-.39-.02-.57,0Z"/>
  <path class="b" d="M252.17,361.1c.43.01.46.23.57.57h1.13c-.04-.18.04-.39,0-.57l-1.13-.57c-.11.14-.49.53-.57.57Z"/>
  <path class="b" d="M269.73,360.53c-.5-.09-.53.55-.57.57.05-.11.52-.26.57-.57Z"/>
  <path class="b" d="M260.67,361.1h.57c-.16-.22-.34-.41-.57-.57.07.07-.05.37,0,.57Z"/>
  <path class="b" d="M367.2,382.07c-.06.71-.03.86.57,1.13v-1.13c-.19.02-.38-.01-.57,0Z"/>
  <path class="b" d="M276.53,361.1v-.57c-.18-.06-.44.08-.57,0,0,.18-.03.39,0,.57.18.03.38,0,.57,0Z"/>
  <path class="b" d="M294.1,365.63c-.01.19,0,.38,0,.57h.57c-.16-.22-.37-.38-.57-.57Z"/>
  <path class="b" d="M394.97,362.23c.06-.14-.03-.37,0-.57-.19,0-.4-.03-.57,0-.06.15.04.37,0,.57.16-.07.41.07.57,0Z"/>
  <path class="b" d="M275.4,395.67s.22.56.57.57h.57v-.57c-.18-.19-.37-.39-.57-.57l-.57.57Z"/>
  <path class="b" d="M273.13,390.57c-.49-.12-.37-.18-.57-.57h-.57c-1.17.45-2.3-1.22-3.06-1.09-.57.1-.77,1.02-.91,1.09.26-.14.77.42,1.13.57.79.31,1.13-.71,1.13,1.13,0,.19.04.41,0,.57h1.13l.57-1.13.28-.56.28.56c.02.37-.04.76,0,1.13.02.18,0,.38,0,.57.47-.21,1.35-.42,1.94-.61.3-.09.29-.51.32-.52l-1.13-1.13c-.12.04-.44.03-.57,0Z"/>
  <path class="b" d="M219.3,409.27h-.57v.57c.13-.05.37.03.57,0v-.57Z"/>
  <path class="b" d="M232.9,415.5c-.2.02-.41-.04-.57,0v1.13h.57c.19-.47.15-.37.57-.57v-.57c-.19.01-.38-.02-.57,0Z"/>
  <path class="b" d="M240.27,416.07c-.19.02-.38-.03-.57,0-.03.19.04.39,0,.57h.57c-.05-.18.06-.41,0-.57Z"/>
  <path class="b" d="M248.2,418.9c-.02.19.01.38,0,.57h.57v-.57c-.19.01-.38-.01-.57,0Z"/>
  <path class="b" d="M249.9,418.33v.57c.19,0,.38.02.57,0v-.57c-.19-.02-.38,0-.57,0Z"/>
  <path class="b" d="M202.87,360.53c.19-.01.38.02.57,0-.19-.24-.18-.4-.57-.57.02.2-.04.41,0,.57Z"/>
  <path class="b" d="M204.57,359.4c-.19-.02-.38.01-.57,0v.57h1.13c.18,0,.39.02.57,0-.06-.31-.27-.48-.57-.57-.16-.04-.37.02-.57,0Z"/>
  <rect class="b" x="211.37" y="362.23" width=".57" height=".57"/>
  <path class="b" d="M233.47,367.9c.37.03.77-.05,1.13,0,.19.02.38-.03.57,0v-1.13c-.18-.04-.4.05-.57,0-.36-.12-.78-.38-1.13-.57l-.57,1.13c.33.03.53.24.57.57Z"/>
  <path class="b" d="M240.27,370.73c-.19-.02-.38.03-.57,0,.05.17-.04.39,0,.57.17.04.37-.02.57,0,.19.02.38-.01.57,0h.57c-.03-.18.02-.38,0-.57-.37-.03-.77.05-1.13,0Z"/>
  <path class="b" d="M235.73,368.47v.57c0,.19,0,.38,0,.57.2.02.43-.05.57,0,.31.12.47.53.57.57.17.06.4-.06.57,0,.14-.4.08-.45.57-.57v-.57c-.49-.13-1.4-.95-2.27-1.13v.57Z"/>
  <path class="b" d="M240.27,384.9c-.68-.1-.95-.1-1.13.56v.57h.57c.14-.36.72-1,.57-1.13Z"/>
  <path class="b" d="M244.23,384.9c-.52-.33-1.09-.49-1.7-.57-.18-.02-.38.01-.57,0,.3,1.53,1.04,1.48,1.13,1.7h.57l.57-.57v-.57Z"/>
  <path class="b" d="M230.63,390.57c-.03-.2.05-.43,0-.57-.51-.14-.42-.08-.57-.57-.14-.07-.38.05-.57,0,.03.18-.02.38,0,.57.02.18,0,.38,0,.57.37.03.76-.02,1.13,0Z"/>
  <path class="b" d="M197.2,359.4c.2.02.41-.04.57,0,.05-.18.42-.38.57-.57v-.57c-.37.17-.75.45-1.13.57-.03.17,0,.39,0,.57Z"/>
  <path class="b" d="M435.2,386.03c-.7.07-.79-.15-1.13.57h1.13c-.09-.13.09-.45,0-.57Z"/>
  <path class="b" d="M426.7,397.93c.09-.09.42.09.57,0,.1-.06.17-.55.57-.57.47-.01.47.5.57.57h.57l.57.57c.18.04.38-.03.57,0,.19.03.39-.04.57,0,.18.04.39-.04.57,0,.92.19,1.17.41,1.7.57.65.2,2.5,1.16,2.83,1.13.06,0,.74-.93,1.13-.56.23.21-.58.88-.57,1.13,0,.04.48.5.57.57.27.22.79.35,1.13.57.13.08.42-.08.57,0,.29.16.48.53.57.57.35.15.5.54.57.57.13.05.37-.03.57,0,.18.02.38,0,.57,0,.19,0,.38,0,.57,0,.59.02.38-.24,1.7,0,.2.04.42-.06.57,0,.82.32,1.22-.07,1.7,1.13.06.15-.04.37,0,.57.17-.04.38.02.57,0,.19-.02.38.02.57,0,1.1-.11,1.54.05,2.27,0,.19-.01.38,0,.57,0,.12,0,.38-.53.57-.57.18-.03.38,0,.57,0,.18,0,.46-.04.57,0,.3.12.65.05.57.57.19.02.38-.02.57,0v-.57c-.21-.17-.4-.36-.57-.57-.16-.19-.38-.4-.57-.57h-.57c-.19-.01-.38.02-.57,0-1.2-.1-.98-.24-1.7-.57-.2-.09-.37-.42-.57-.57-.24-.17-.99.21-1.13-.57-.14-.72-.11-.96.57-1.13.16-.04.37.02.57,0,.1-.29.39-.4.57-.57.19-.19.38-.38.57-.57-.05-.19.07-.43,0-.57-.14-.05-.37.03-.57,0-.17.4-.4.4-.57.57-.17.16-.84.46-1.13.57-.09.03-.12.38-.29.4-.14.02-.21-.39-.28-.4-.2-.05-.43.06-.57,0-.55-.26-.95-.52-1.13-1.13-.2-.01-.43.05-.57,0-.44-.15-.38-.22-.57-.57-.19.02-.38,0-.57,0-.19,0-.38,0-.57,0-.19,0-.38-.02-.57,0-.04,0-.15.6-.57.57-.52-.04-.94-.66-1.13-1.13-.36.03-1.04.7-1.7.57-.12-.02-1.44-1.42-1.7-1.7-.18-.19-.4-.35-.57-.57-.12-.16-.44-.25-.57-.57-.06-.14.04-.37,0-.57-.19-.02-.38.03-.57,0-.2-.03-.43.05-.57,0-.44-.18-.38-.12-.57-.57-.19-.01-.38.02-.57,0-.2-.02-.41.04-.57,0-.29-.08-.51-.25-.57-.57-.34.13-.84.57-1.13.57-.61-.01-.45-.21-.57-.57-.17.03-.37-.02-.57,0-.18.02-.38.01-.57,0-.19-.01-.38.03-.57,0-.2-.03-.43.05-.57,0-.44-.18-.38-.12-.57-.57h-1.7c-.38,0-.76.01-1.13,0-.38-.01-.76.01-1.13,0-.19,0-.38.01-.57,0-.38.14-.77.48-1.13.57-.18.04-.39-.04-.57,0-.18.04-.39-.04-.57,0-.1.33,0,.63-.57.57l-.56-.28.56-.28c.18-.03.39.04.57,0,.05-.15-.02-.37,0-.57.02-.18-.01-.38,0-.57.01-.19-.01-.38,0-.57h-.57l-1.41.57-.29-.29c.17-.33.56-.25.56-.28.05-.15-.03-.37,0-.57.02-.15.04-.43,0-.57-.1.09-.45-.09-.57,0-.21.17-.37.39-.57.57-.2.17-.34.42-.57.57.03.13.03.44,0,.57.23.15.4.35.57.57.12.16.9.14.57.85l-.29.29c-.34-.18-.25-.55-.28-.56-.25-.1-.79.07-1.13,0,.04.62.25,1.17.57,1.7.18.31,1.4.66,1.13,1.7.29-.16,1-.7,1.13-.57.28.81-.46,1.27-.56,1.7.19,0,.38,0,.57,0,.19,0,.38,0,.57,0,.19,0,.38-.01.57,0,.19.01.38-.02.57,0,.19.02.4-.04.57,0,.06-.18.16-.33.29-.46.16,0,.16.39.27.46.23.16.4.33.57.57.07.11.57.08.57.57,0,.72-.48.5-.57.57-.02.02.07.56-.28.56-.38-.1-.22-.39-.28-.56-.06-.15.04-.37,0-.57-.51.05-.5-.16-.57-.57h-.57c-.1.28-.38.39-.57.57-.17.16-.24.45-.57.57-.15.06-.37-.04-.57,0,.08.36.49.78.57,1.13h.57c.05-.2-.07-.49,0-.57l.28-.56.28.56c.17-.01.4-.03.57,0,.47.07.53.56.57.57.24.02.88-.58,1.13-.57.37.02.46.5.57.57,1.54,1.02.54.89.57,1.13.03.27-.04.58.07.81.14.3.41.25.5.33.15-.23.34-.42.57-.57.03-.45.44-1.06.4-1.42-.03-.23-.36-.21-.4-.28-.02-.03-.63.12-.57-.57.98-.54,1.11-1.68,1.7-2.27Z"/>
  <path class="b" d="M393.27,362.8c-.19.42-.1.37-.57.57-.13.05-.37-.03-.57,0-.18.02-.38,0-.57,0v.57h.57c.18,0,.39.02.57,0,.19-.03.4.04.57,0,.12-.03.34-.47.57-.57.05-.19-.07-.42,0-.57-.19.03-.38-.02-.57,0Z"/>
  <path class="b" d="M391,364.5c-1.08-.06-1.85,1.54-2.27,1.7.02.19-.03.39,0,.57h.57c.31-.62,1.33-1.35,1.7-2.27Z"/>
  <path class="b" d="M256.7,361.1h-.57l-.57.54c.72-.24,1.49.57,1.71.6.17.02.39.02.57,0-.06-.17.04-.39,0-.57v-.57c-.36-.05-.76.03-1.13,0Z"/>
  <path class="b" d="M270.87,361.1c-.2.02-.41-.04-.57,0,0,.19-.01.38,0,.57.31.12.46.52.57.57.19.05.42-.06.57,0,0-.18-.03-.4,0-.57-.29-.06-.51-.27-.57-.57Z"/>
  <path class="b" d="M266.33,374.7c-.2-.02-.41.04-.57,0-.29-.08-.51-.25-.57-.57-.18-.05-.4.05-.57,0-.18-.05-.41.06-.57,0,.04.19-.04.39,0,.57.17,0,.4-.03.57,0,.29.06.79.4,1.13.57.16.08.44-.08.57,0-.05-.19.07-.49,0-.57Z"/>
  <path class="b" d="M214.77,407.57v.57c.47.19.37.15.57.57.13-.05.37.03.57,0,.18-.03.38.02.57,0v-.57h-.57l-1.13-.57Z"/>
  <path class="b" d="M201.73,365.07c.19,0,.38,0,.57,0v-.57c-.19,0-.38,0-.57,0,0,.19-.04.43,0,.57Z"/>
  <path class="b" d="M232.33,367.9c-.19,0-.38,0-.57,0-.19,0-.38,0-.57,0-.19,0-.38,0-.57,0,.05.15-.03.37,0,.57.14-.05.37.02.57,0,.37-.04.76.03,1.13,0v-.57Z"/>
  <path class="b" d="M202.87,357.13v.57l.57-.57c-.19,0-.38,0-.57,0Z"/>
  <path class="b" d="M210.8,353.17c-.19.03-.38-.03-.57,0-.18.03-.38-.03-.57,0-.14.02-.38.53-.57.57-.18.03-.39-.04-.57,0-.16.3-.46.41-.57.57v.57c.19-.02.38.02.57,0,.04-.31.27-.51.57-.57.33-.06.76.03,1.13,0,.11-.04.26-.45.57-.57.13-.05.37.01.57,0-.04-.18.03-.38,0-.57-.19.03-.38-.03-.57,0Z"/>
  <path class="b" d="M456.73,401.9v-.57c-.18,0-.39-.03-.57,0-.02.18,0,.38,0,.57h.57Z"/>
  <path class="b" d="M221.57,410.4c-.19,0-.38,0-.57,0-.15.23-.38.38-.57.57-.17.18-.28.46-.57.57,0,.19.01.38,0,.57.56-.31,1.17-.95,1.7-1.13.03-.17,0-.39,0-.57Z"/>
  <path class="b" d="M200.6,365.07v-.57c-.19,0-.38,0-.57,0v.57c.19.01.38,0,.57,0Z"/>
  <path class="b" d="M247.63,373.57c.14.06.37-.04.57,0,.18.04.38-.02.57,0v-.57h-1.13v.57Z"/>
  <path class="b" d="M236.87,387.17c.18-.03.38,0,.57,0,.2-.49.3-.37.57-.57.12-.08.4.08.57,0-.03-.37.06-.79,0-1.13-.05-.33-.44-.77-.57-1.13-.19,0-.38,0-.57,0-.19,0-.38,0-.57,0-.57.01-1.13,0-1.7,0-.34.73.53,1.48.57,1.7l.57.57v.57c.15-.05.37.03.57,0Z"/>
  <path class="b" d="M222.7,387.17c-.3.5.56,1.07.56,1.13-.05-.07-.05-2-.56-1.13Z"/>
  <path class="b" d="M217.6,390.57v-.57c-.29.04-.52.27-.57.57.17-.05.39.05.57,0Z"/>
  <path class="b" d="M213.63,392.27c.15-.06.38.04.57,0,.2-.17.35-.41.57-.57.51-.36,1.17-.9,1.7-1.13l-.57-.57c-.09.07-1.49.13-2.27.57-.72.4-2.37,2-1.7,2.83.67-.14,1.03-.88,1.7-1.13Z"/>
  <path class="b" d="M194.93,358.83c.19-.01.38.02.57,0,.04-.18-.03-.38,0-.57-.31.12-.47.53-.57.57Z"/>
  <path class="b" d="M218.73,348.07c-.19.01-.38,0-.57,0,0,.19,0,.38,0,.57.15-.06.38.05.57,0,.18-.05.4.05.57,0-.03-.17,0-.39,0-.57-.19.02-.38-.01-.57,0Z"/>
  <path class="b" d="M466.37,355.43v-.57h-.57c.02.19-.02.38,0,.57.2.01.43-.05.57,0Z"/>
  <path class="b" d="M232.33,385.47h-.57c-.75.03-1.52-.04-2.27,0l-.28.56-.28-.56c-.37.04-.76-.04-1.13,0-.13.01-.39.55-.57.57-.19.02-.38-.03-.57,0-.19.03-.38-.03-.57,0-.18.03-.38-.03-.57,0l-.56,1.7c.98-.75,2.14,0,2.26,0,.19,0,.38,0,.57,0v-1.13s.57.57.57.57c.57-.09.45.4.57.57.15-.06.38.05.57,0,.06-.31.27-.48.57-.57.16-.04.37.02.57,0,.65-1.03,1.33.33,1.7-1.7Z"/>
  <path class="b" d="M222.13,387.17c-.35.05-.76-.02-1.13,0l1.13,1.13c.07-.35-.1-.89,0-1.13Z"/>
  <path class="b" d="M210.23,396.23c.3-.06.51-.28.57-.57.04-.2-.06-.44,0-.57h-.57c-.05.15.03.37,0,.57-.03.17-.02.4,0,.57Z"/>
  <path class="b" d="M209.67,404.17v.57h.57c.18.03.39-.04.57,0-.03-.18.02-.38,0-.57-.38-.02-.76.03-1.13,0Z"/>
  <path class="b" d="M192.1,361.67h.57v-.57c-.19.02-.38-.03-.57,0v.57Z"/>
  <path class="b" d="M508.87,458.85c.41-4.13-.63-16.31-1.81-20.29-.25-.84-1.52-1.54-2.07-2.46-1.53-2.57-2.49-5.17-2.93-8.13-.59-.43-4.85,1.64-5.5,2.42-1.34,1.61.54,1.73-2.42,2.11-.02.19.03.38,0,.57-.11.66.19.78-.57,1.13-.03.19.04.4,0,.57-.17.74-.13.6-.57,1.13-.18.21-.22.43-.57.57-.03.19.04.39,0,.57-.04.19.06.42,0,.57-.1.26-.43.39-.57.57-.39.5-.36.83-1.13,1.13-.06.17.07.41,0,.57-.29.71-.49.81-1.13,1.13-.06.17.06.41,0,.57-.18.45-.12.38-.57.57-.03.18.03.38,0,.57-.03.2.05.43,0,.57-.18.45-.12.38-.57.57-.03.19.04.4,0,.57-.22.98-.05,1.23-1.13,1.7-.06.18.06.41,0,.57-.19.47-.15.38-.57.57-.02.19.02.38,0,.57-.03.19.04.4,0,.57-.11.45.15,1.09-.57,1.13-.02.19.03.38,0,.57-.03.2.05.43,0,.57-.19.47-.15.37-.57.57-.01.19.02.38,0,.57-.02.2.04.41,0,.57-.08.29-.25.51-.57.57-.04.2.06.43,0,.57-.2.49-.29.37-.57.57-.01.19.02.38,0,.57s.02.38,0,.57c-.05.37.08.82,0,1.13-.11.48-.16.43-.57.57-.01.38.02.76,0,1.13-.03.56.05,1.14,0,1.7-.02.2.04.41,0,.57-.14.52-.21.4-.57.57-.02.19.04.4,0,.57-.14.61.22.76-.57,1.13-.02.19.02.38,0,.57-.02.2.05.43,0,.57-.12.31-.14.56-.57.57-.08.83.32,1.22-.57,1.7-.02.19.03.38,0,.57-.11.8.33,1.18-.57,1.7,0,.19-.01.38,0,.57.24,4.33.39,3.98-.42,8.37-.88,4.79-1.18,9.65-2.3,14.14-.2.8-.14,1.62-.12,2.43.29.31,2.38-.97,2.66-1.3.36-.41,1.47-4.39,2.43-3.23.6.71-.73,4.16-.59,5.36.19,1.54,2.19,1.98,2.3,3.44.06.82-.46,5.51-.6,6.77-.1.91-.92,1.74-.93,2.29,0,.58,2.44,4.14,2.94,4.24,1.89.41,1.89-3.67,2.1-4.68.68-3.29.43-6.49,1.13-9.64.79-3.53,5.11-7.88,4.31-11.33-.19-.8-.97-1.5-1.04-2.43-.13-1.71,2.6-6.01,4.49-4.73.26.18.76,2.41.57,2.98-.29.88-3.06,1.46-2.8,4.61.13,1.53,2.29,2.82,3.83,2.18.33-.14,2.8-3.74,3.1-4.32,2.08-4.03,2.15-9.33,3.58-13.42,1.37-3.91,2.68-7.27,3.11-11.63Z"/>
  <path class="b" d="M484.23,559.99c-.19-.31-1.92-1.21-1.99-1.12-.43.63-.37,2.31-2,2.29-1.05,0-3.94-3.63-6.52-2.29-.24-.21.53-5.62.71-6.38.51-2.19,2.03-3.68,2.45-5.48.99-4.22.66-5.01,2.35-9.55.36-.97,1.54-4.87-.42-4.4-1.45.35-3.23,3.14-4.93,3.59-2.25.59-3.48-.32-6.01,1.35-4.75,3.13-4.23,8.77-6.48,12.8-.89,1.59-3.23,3.37-4.41,5.79-1.62,3.35-1.28,6.65-3.63,9.83-.55.74-1.62.68-2.27,1.26-7.31,6.48-10.21,12.88-10.15,22.66,0,1.42,1.15,2.78,1.47,4.11.51,2.18,1.23,6.17.62,8.24-.46,1.54-2.78,1.43-2.06,4.51.56,2.38,1.48,3.19,1,6.33-.79,5.1-6.44,6.19-8.72,9.41-.94,1.33-2.3,4.7-2.76,6.31-.46,1.61-2.09,9.07-2.06,10.31.07,2.45,1.46,6.35,3.08,8.28-.21-6.6,1.66-15.44,8.22-18.4,2.7-1.22,4.53-1.33,7.36-2.84,3.04-1.62,2.52,1.49,3.14,3.08.22.57,7.12,9.02,7.58,9.41,1.23,1.05,2.92.98,4.02,2.21.91,1.02.98,2.93,1.67,3.43.58.42,2.22.46,3.15.82,5.45,2.08,5.66,2.65,11.88,2.85,1.38.05,3.02,1.38,3.96-.57.41-.85.23-1.94.56-2.84.78-2.12,2.07-3.49,1.43-6.22-3.43-.59-4.17,1.49-3.97,4.54-.26.35-4.52-1.09-5.07-1.44-.55-.35-.69-1.23-1.18-1.66-1.02-.89-3.25-.82-3.94-2.29-.71-1.51,3.16-.5,2.85-2.27-.07-.37-2.99-4.68-3.4-5.11-2.15-2.19-3.78,1.56-5.8-2.14-3.67-6.73,3.34-3.68,6.61-3.77,1.67-.04,3.51-1.2,5.12-1.18,1.83.02,3.74,1.79,4.96-.7,1.63-3.33-3.09-3.45-4.7-5.21-1.22-1.34-2.52-4.37-3.7-5.94-2.67-3.54-2.39-1.56-3.79-6.41-.79-2.75-3.49-3.85-2.68-8.05.15-.79.85-1.32.96-1.87.26-1.26.49-6.06,1.58-6.36,1.84-.5,2.38,1.96,3.37,2.85.9.81,3.34,1.7,4.55,1.71,4.86.04,1.31-3.48,1.44-5.92.08-1.64,1.45-2.78,1.67-4.04.42-2.45-1.4-5.16-.26-7.61.29-.61,1.23-.83,1.42-2.01.27-1.63-.78-3.17-.58-4.8h1.7c.24,3.83,1.44,7.33,3.12,10.76.5,1.02,1.16,4.95,2.43,1.86.69-1.67.52-4.01,1.73-5.67.5-3.18-3.51-9.1-4.2-12.01-.3-1.26,0-3.19-.51-4.02Z"/>
  <path class="b" d="M222.66,620.39c-.38-2.86-2.18-6.32-2.67-8.66-.51-2.42.44-4.66-1.57-6.93-.85-.95-2.46-1.28-3.1-2.14-1.44-1.93-3.35-10.24-1.56-11.94.65-.62,3.44-1.14,4.79-2.58,1.54-1.63,3.81-7.59,3.59-9.71-.08-.75-.87-1.42-1.12-2.33-.17-.64.11-1.49-.01-1.94-.22-.79-2.69-4.11-3.4-5.1-.62-.19-.88-.57-1.13-1.13-.07-.16.08-.42,0-.57-1.06-.33-1.2-1.46-1.7-2.27-.09-.13-.38-.32-.57-.57-.09-.12.09-.43,0-.57-.13-.19-.68-.49-1.13-1.13-.09-.13.09-.44,0-.57-.23-.33-1.08-.77-1.7-1.7-.09-.13.09-.44,0-.57-.12-.18-.41-.33-.57-.57-.11-.17-.41-.32-.57-.57-.68-1.08-1.14-2.35-1.7-3.4h-.57c-2.53-.4-4.25-4.3-6.26-5.35-1.32-.69-4.03-.52-4.79-2-.87-1.69.22-3.22.29-4.82.13-2.78-.19-5.43-.97-8.1-.8-2.69-4.22-6.51-1.29-8.62-.08-.35-.5-.78-.57-1.13-1.24,0-1.57-.61-2.14-1.55-1.17-1.95-2.61-6.66-2.3-8.81.12-.81.8-1.78,1.61-2.11-.02-.19.01-.38,0-.57-3.16.31-1.81-3.23-5.28-2.16-1,.31-3.53,4.17-3.84,5.28-.37,1.33.1,2.08-.05,3.24-.14,1.11-1.15,1.97-.8,3.29.66,2.45,3.84,1.14,3.75,3.1-.04.96-2.65,3.91-3.28,5.25-2.81,5.96-2.66,10.83-3.57,16.83-.5,3.28-2.42,7.11-2.27,11.34.02.59.53,4.57.66,4.77.26.39,3.04.41,3.27,1.53.08.4-.71,5.41-.83,6.48-.23,2.12,1.65,1.93,3.41,1.67,2.45-.37,3.27-2.55,6.53-1.37,5.36,1.95,1.49,5.97,1.83,8.91.35,3.06,3.86,4.54,1.19,8.76-1.31,2.06-5.64,2.73-5.83,3-.32.45.57,1.79.45,2.47-.2,1.13-4.69,4.09-5.86,4.3-5.36.97-3.53-3.32-4.36-6.38-.18-.68-1.09-1.55-1.46-2.51-1.76-4.54-.55-7.31.88-11.34,1.72-4.86.92-2.99-.3-6.81-1-3.15-1.79-13.25-4.1-14.6-1.76-1.03-5.88.94-5.64-3.33.13-2.33,2.77-5.78-.88-7.14-3.05,5.24-5.27,10.78-7.35,16.45-.55.97-2.88.33-3.14.55-.37.31.31,8.05-.57,9.64-3.52.34-4.71-3.09-5.95-5.67-.45,1.58-1.57,4.04-1.86,5.5-.44,2.25.67,9.54,1.71,11.65.51,1.03,1.87,1.88,2,3.03.16,1.43-1.45,4.98-1.53,6.81-.07,1.57.75,2.84.54,4.41-.34,2.5-1.69,2.31-.11,5.83,2.24,4.99,4.63,3.84,8.01,6.15,1.76,1.2,7.38,6.23,9.11,7.89,3.25,3.11,5.86,10.98,11.6,9.93,1.19-.22,3.82-3.54,5.1-.59.63,1.46-2.24,4.91-.54,8.51,1.2,2.55,8.12,2.34,8.75,5.97.5,2.88-.17,6.97-3.36,7.96-1.14.35-2.37.06-3.43.54-.22.1-3.57,2.9-3.71,3.1-.92,1.27,1.02,2.92,2,3.71,1.77,1.44,9.38,4.42,11.65,4.78,4.65.73,13.47-2.53,17.21-5.4,4.73-3.63,10.86-12.54,10.77-18.59-.04-2.59-1.58-6.28-1.47-9.04.14-3.46,2.69-4.77,2.04-9.68Z"/>
  <path class="b" d="M185.58,152.51c.83,0,3.64.4,4.4.62.76.22.81,2.26,2.4,2.29,1.79.03,1.4-2.72,2.11-3.31.15-.12,3.29-1.22,3.61-1.26,1.22-.13,2.92.55,4.46.6,3.4.11,6.8-.02,10.15.04,2.86.05,2.6-.52,4.06-.65.78-.07,1.56.52,2.28.52,1.73,0,3.3-2.59,5.22-2.91,1.22-1.2-.56-6.26-1.27-7.81-.49-1.05-1.79-2.11-1.92-2.65-.18-.76.44-1.51.39-2.16-.09-1.36-.78-2.76-.47-4.26-9.22.77-17.12,5.48-24.99,9.87-3.91,2.18-8.93,4.69-12.59,7.24-.62.43-5.19,3.49-3.79,4.43,1.74,1.17,4.09-.62,5.95-.61Z"/>
  <path class="b" d="M298.81,154.24c-5.01-2.12-8.35-5.34-13.77-7.06-2.1-.67-9.86-3.31-11.14-3.54-.66-.12-2.58.51-3.9.47-1.61-.06-5.84-1.05-6.77-2.32-1.14-1.55-.43-3.66-4.03-3.96-2.54-.21-2.98,3.39-4.59,3.88-2.36.72-3.65-1.02-5.85-1.04.15.96.13,3.75-1.41,3.4-.28-.06-1.13-1.27-1.79-1.62-1.25-.67-3.9-1.19-4.74-2.06-.71-.73-.66-2.42-1.43-3.67-2.08-3.35-6.81-3.95-5.27.74.27.83,2.48,1.82,3.32,2.37.35.23,2.07.37,1.13,1.39-1.28,1.4-3.4-1.48-4.55-1.96-2.81-1.16-1.93.49-3.05,1.42-1.79,1.5-4.97.58-4.18,4.66.67,3.47,3.69,7.29,7.54,7.27,2.78-.02,5.53-1.49,7.91-1.77,2.62-.31,8.66.97,10.12.02.36-.24.27-.99.78-1.11,1.77-.42,3.71-.77,5.51-1.16,2.23.31,2.54,2.21,3.67,3.17.76.64,1.7.69,2.28,1.13,1,.77.91,2.25,2.59,2.52,1.78.28.34-2.49.93-3.33,1.43-2.07,7.8,1.28,8.99,3.04-.99.32-5.67-.7-5.66,1.13,0,.22,2.7,2.86,3.1,3.13,1.47.97,2.96.77,4.23,1.44,1.03.54,1.69,2.02,3.02,2.65,1.19.56,5.91,2.51,6.97,2.66,1.01.15,2.06.02,3.07.04.07-.52.07-.72-.27-1.14-.47-.59-5.22-3.94-5.99-4.21-1.18-.42-2.3-.14-3.37-.6-.52-.23-4.11-3.03-3.41-3.67h11.05c2.77,0,7.04,4.39,9.75,4.98,1.22.26,4.66.17,4.69-1.29,0-.41-5.7-4.23-5.48-5.98Z"/>
  <path class="b" d="M150.81,346.01c.24.7,1.21.78,1.64,1.34,2.25,3,1.23,5.01,6.5,4.1,2.63-.45,1.72-3.59,2.88-5.62.63-1.1,2.21-1.86,2.76-2.9.26-.5,2.46-7.77,2.42-8.2-.19-1.76-3.06-.42-2.57-2.71.58-2.69,3.6-4.14,4.19-6.02.17-.55,1.26-5.68,1.29-6.1.07-1.07-1.48-1.46-1.64-2.74-.23-1.91,1.98-3.63-1.67-3.67.96-1.24,1.47-2.28,1.09-3.92l-3.35-.61c1.23-1.43,3.97-3.06,3.4-5.37-.26-1.04-.87-.61-1.5-.39-1.18.41-5.73,3.46-6.41.89-.76-2.91,2.92-3.35,4.25-4.17,2.22-1.37,5.98-7.27,5.08-9.63-.63-1.66-2.48-3.72-4.25-2.3-.31-.35,1.07-2.74.56-3.39-.05-.07-1.49-.45-1.71-.32-.66.39-.93,1.5-1.45,1.97-5.46,4.96-3.41,6.38-6.02,11.54-1.31,2.58-1.35,1.47-2.28,5.09-.53,2.06-1.45,3.75-1,6.08.82.89,3.93-3.84,5.4-3.99,2.27-.24,2.34,3.36,4.79,3.44l-3.68,2.26c-1.42,1.93-4.56,3.07-5.52,5.25-.32.73-1.34,5.11-1.32,5.81.03.93.86,1.84.76,2.75-.13,1.15-2.21,3.12-2.74,4.58-.6,1.66-.36,2.9-.66,4.44-.15.79-.91,1.49-1.02,2.43-.37,3.12,2.15,3.46,2.29,4.03.46,1.85-1.13,4.22-.51,6.06Z"/>
  <path class="b" d="M352.75,150.88c-.36.02-1.76,2.15-2.26,2.14-.35,0-1.19-1.46-2.79-.98-1.33.39-.86,2.85-.9,3.93,1.33.24,1.59-1.25,2.66-1.58.81-.25,3.73-.19,4.09-.72.38-.56-.12-2.83-.81-2.78Z"/>
  <path class="b" d="M176.23,211.5c-3.11-.75-2.61,1.93-3.97,3.1-1.2,1.04-3.28.39-3.96,1.99,4.33,1.96,6.95-1.1,7.93-5.09Z"/>
  <path class="b" d="M364.64,117.39c-3.61.2-.9,3.83-1.97,6.28,2.69-.83,7.05-6.56,1.97-6.28Z"/>
  <path class="b" d="M262.38,135.28c2.06,2.27,5.02,1.62,7.51,2.11,1.47.29,2.74,1.29,4.09,1.58,1.43.31.5-1.29.15-1.57-.53-.41-8.3-2.55-9.47-2.72-1.09-.16-1.48-.58-2.28.6Z"/>
  <path class="b" d="M500.37,226.23c-.77-3.27,1-7.55-3.97-5.66l1.14,1.96-2.84,1.71c1.5,2.18,3.16,2.2,5.67,1.98Z"/>
  <path class="b" d="M462.38,212.66c-7.98-1.81-6.56,4.53.02,5.08l-.02-5.08Z"/>
  <path class="b" d="M415.36,171.27c-2.8-.52-4.5,1.5-6.92,2.31l-3.85,3.35c3.95-.85,9.39-1.14,10.76-5.66Z"/>
  <path class="b" d="M490.59,183.89c.16.14,2.63,3.07,2.74,3.25.26.43-2.69,3.6.66,3.86,3.13.24,1.9-5.25.58-6.55-.46-.45-4.36-2.12-5.25-2.4-.99-.31-1.1-.94-1.96.28.73,1.15,2.37.82,3.24,1.57Z"/>
  <path class="b" d="M404.31,170.69c.24-.53.5-2.04.29-2.26-.83-.83-4.07.89-5.05,1.46-.73.42-5.51,3.93-4.58,4.77,2.16.65,8.52-2.18,9.34-3.97Z"/>
  <path class="b" d="M358.7,166.73c.58.58,3.92-1.3,4.57-1.95.98-.97,1-2.06,1.66-2.87,1.13-1.4,2.88-2.37,3.41-4.24-1.85-1.54-10.46,6.04-9.63,9.06Z"/>
  <path class="b" d="M491.3,231.34c-.24,1.23.59,1.3,1.39,1.72,1.24.65,5.28,2.59,6.39,2.69.54.05,5.02-.88,5.24-1.04.1-.08.07-1.55-.04-1.9-.71-2.09-5.94-.33-7.54-.38-1.64-.05-3.6-1.42-5.43-1.1Z"/>
  <path class="b" d="M149.6,305.57c.07-.17.06-1.45,0-1.7-.44-1.68-4.39-4.17-6.23-3.97,0,.19,0,.38,0,.57,0,.19,0,.38,0,.57s0,.38,0,.57c0,.19,0,.38,0,.57.01.57-.03,1.14,0,1.7,0,.19-.01.38,0,.57.01.19-.01.38,0,.57.01.19-.02.38,0,.57.02.19-.04.4,0,.57.16.07.41-.07.57,0,.49.21.38.33.57.57.4.3,1.57.93,1.7,1.13.97.61,3.18-1.73,3.4-2.27Z"/>
  <path class="b" d="M421.08,125.14c-.93,3.17,2.81,2.76,4.63,3.21.58.14,1.07.82,1.87.97,1.62.3,3.67-.17,5.36.01.26-1.2-.61-1.29-1.31-1.8-1.62-1.18-9.71-5.23-10.54-2.4Z"/>
  <path class="b" d="M509.18,266.48c2.17.07,3.94,6.53,6.48-.3-1-1.74-2.58-.03-3.65-.28-1.37-.32.28-2.36-.84-3.14-.53-.37-4.05.09-4.56.31-.23.1-2.15,4.07-1.7,4.53,1.46.32,3.04-1.15,4.27-1.12Z"/>
  <path class="b" d="M207.96,156.25c-3.53-3.84-4.68-2.77-8.93-2.12-.82.12-1.63-.51-2.38-.17-.94.42-1.99,2.02-1.71,3.14,4.33,0,9,1.7,13.02-.85Z"/>
  <path class="b" d="M491.3,203.57c-1.18,2.83,6.82,7.09,8.11,6.73.98-.27,2.11-2.57,4.35-1.64.19-1.47-1.74-2.11-2.84-2.54-1.93-.75-3.55-.59-5.12-1.11-1.37-.46-2.37-2.15-4.5-1.45Z"/>
  <path class="b" d="M164.9,232.18c.24-.11,3.77-3.24,3.91-3.46.61-.92.7-1.99.63-3.05l-7.38.84-3.39,5.1c.27,1.24,5.1,1.08,6.23.57Z"/>
  <path class="b" d="M261.41,114.6c.39-.27.36-.93.49-1.03.26-.18,5.52.43,6.29.58,1.81.36,8.69,3.85,10.04,2.71.23-1.15-.54-1.32-1.3-1.81-1.14-.73-5.2-2.77-6.33-2.75-2.57.05-4.54.06-7.26-.66-1.6-.43-2.32-2.79-4.68-.47-2.36,2.33.67,4.86,2.75,3.42Z"/>
  <path class="b" d="M516.8,304.15c1.99,2.65,4.67,4.87,8.2,4.28.73-.12-.42-2.25,1.44-1.73-.04-.28-.5-2.17-.57-2.27-.04-.05-.71-.04-1.08-.32-1.89-1.46-3.88-3.45-6.25-3.96-4.4-.94-3.82,1.23-1.74,4Z"/>
  <path class="b" d="M514.3,238.18c-1.1.84-4.93.28-5.42,2.52-.77,3.5,5.68-.66,6.09-.77,1.13-.3,2.37.7,3.38-.24.37-.35.51-1.17.96-1.57.91-.8,2.21-1.41,2.91-2.21,3.34-3.81-.16-7.59-3.45-4.58-1.79,1.63-3.6,6.19-4.47,6.86Z"/>
  <path class="b" d="M436.02,166.7c.63-.88.09-2,1.73-2.25,4.17-.65,11.97,4.14,13.32-3.38-3.84-1.13-10.82-1.19-13.9,1.68-.6.56-.88,1.68-1.4,2-.89.54-5.5.36-5.09,2.26.3,1.43,4.37,1.06,5.35-.31Z"/>
  <path class="b" d="M278.2,183.97c.69-2.32-3.03-2.31-4.34-2.94-1.58-.75-2.35-2.14-4.56-2.81-2.51-.77-9.52-2.51-11.22-.16-.29.31.28,1.44.45,1.59.62.56,4.3,1.45,5.39,1.68,2.98.62,2.57.38,5.28,1.52,1.95.82,4.11,1.47,6.06,2.48.86.21,2.7-.57,2.94-1.37Z"/>
  <path class="b" d="M193.16,177.23c-1.55.21-6.68,1.14-7.6,1.94-1.7,1.47-.94,2.64,1.13,2.89,4.15.5,8.02-2.69,12.06-3.3,1.81-.28,3.63.06,5.43-.26,2.05-.37,1.8-2.28,3.24-2.97,1.05-.5,2.76-.42,3.95-.87-.22-.85-1.32-1.4-2.1-1.57-1.72-.39-8,1.14-9.75,1.92-1.18.53-2.48,2.18-3.29,2.41-1.13.33-2.12-.31-3.07-.18Z"/>
  <path class="b" d="M457.46,205.66c-.31-.25-.45-.98-1.07-1.44-2.8-2.08-12.95-1.66-15.52.77-2.05,1.93.79,2.4,2.55,2.56,1.8.16,4.65-.44,6.14.53.54.35.54,1.39,1.3,1.65.9.31,9.02-.67,9.28-1.06,1.13-1.7-1.95-2.43-2.67-3Z"/>
  <path class="b" d="M147.88,288.84c-.06,1.35,1.69,1.12,2.2.77.43-.29,1.05-3.41,1.75-4.2,1.06-1.21,2.75-.75,4.12-3.25.34-.63,2.58-5.59,2.62-5.9.16-1.15-.7-2.19-.38-3.72.38-1.86,2.84-2.87,2.74-4.94-1.1.83-4.22,1.07-4.97,1.82-.5.5-.8,2.91-1.35,4.04-1.21,2.52-5.15,4.84-5,7.4.06,1.07,1.1,2.3.86,3.22-.4,1.57-2.47,2.16-2.59,4.75Z"/>
  <path class="b" d="M498.96,258.55c2.73.41,3.35-1.03,5.22-2.16.64-.39,1.81-.35,2.29-.82.37-.36.5-1.47.99-2.11,1.43-1.86,3.14-2.73,2.52-5.68-3.81-.84-7.06-.74-10.75.56-.5,1.21,1.24,2.35,1.11,3.05-.26,1.33-3.58,1.54-3.85,2.97-.2,1.03,1.14,4,2.47,4.2Z"/>
  <path class="b" d="M257.81,167.61c-2.81-2.3-5.43-2.04-8.07-3.27-1.36-.63-2.85-2.55-4.35-3.02-.97-.3-9.57-.99-10.44-.75-1.4.39-.43,1.72.1,2.59,2.06,3.35,3.58,1.98,6.61,2.46,1.78.28,4.65.95,6.57,1.36,2.84.61,6.32,3.17,9,4.04,2.1.68,2.38-1.93.57-3.42Z"/>
  <path class="b" d="M501.5,220.57c-.35.33.05,1.43.58,1.96,2.03,2.04,7.33,2.79,9.09,5.08.78,1.01.26,3.43,1.39,3.73.74.19,3.08-1.17,3.39-1.69.15-.25.82-5.46.76-5.84-.07-.38-2.45-5.1-2.72-5.22-.22-.1-4.31.26-4.74.39-.81.24-1.12,1.37-2.37,1.6-1.06.19-5.14-.22-5.38,0Z"/>
  <path class="b" d="M383.4,112.39c4.77-.56,9.5,1.35,13.55,1.14,1.84-.1,2.22-1.84,4.84-.94,1.4.48,1.99,2.22,3.63,2.06,1.15-.11,1.53-1.37,2.39-1.63,1.37-.42,3.25.06,4.71-.11,1.84-1.8-6.31-6.54-7.66-6.78-2.9-.51-13.31-.37-15.71.69-1.06.47-2.76,2.59-4.32,1.49-1.73-1.22.38-3.56.79-4.46,1.09-2.37-2.56-1.46-3.56-.44-.65.66-.54,2.48-.75,2.66-.67.59-6.74-1.07-6.8,2.55l2.06,1.46c-2.66,5.86,3.72,2.69,6.81,2.33Z"/>
  <path class="b" d="M455.89,166.22c-1.14.02-2.86-.64-3.35-.54-1.26.25-1.21,3.04-2.02,3.66-.64.49-1.91-.57-3.02-.27-.94.25-1.47,1.8-2.49,2.1-1.35.39-3.57-.26-4.73.94-1.03,1.06-.12,2.82-.88,3.2-2.32,1.15-5.62,1.44-7.75,2.35-1.24.53-2.21,1.99-3.8,2.43-1.85.51-12.35,1.67-12.48,3.95,2.05,2.43,5.35-1.05,7.2-1.32.96-.14,2.14.48,3.27.52,3.35.11,3.91-1.66,6.52-2.6,2.34-.84,5.68-.97,7.96-1.67,3.18-.99,8.68-5.41,11.72-5.87,1.72-.26,3.69,1.69,6.03.96.93-.29,1.34-1.25.38-1.92l-3.98-1.12c.82-1.33,8.66-2.34,9.07-1.98.68,2.26-1.84,1.52-1.7,3.4,4.52-.51,6.93,5.77,11.55,4.47,2.01-.57-.78-2.86-1.27-3.7-.96-1.61-.4-2.58-2.51-3.72-2.09-1.12-2.42-.98-4.57-2.51-3.72-2.65-5.49-.8-9.15-.72Z"/>
  <path class="b" d="M366.38,132.2c1.7-2.01,9.18-2.66,12.28-3.59,5.74-1.73,9.57-4.43,16-4.97,3.78-.31,7.37-.21,3.97,3.97-2.53,3.11-6.88,2.36-10.06,2.98-.97.19-9,3.4-9.68,3.92-1.02.77-1.34,2.07-2.32,2.78-1.1.8-3.34.96-4,2.23-.83,1.58-.38,1.85,1.11,1.68,2.4-.27,3.04-1.71,4.85-2.52,1.52-.68,3.36-.57,4.52-1.14.79-.38,1.19-1.81,2.54-1.39.86.27.11,2.45,3.98,1.67,1.8-.36,4.3-3.04,5.81-3.31,1.06-.19,1.93.47,2.62.34.51-.1.92-.91,1.68-.88,1.12.04,2.02,1.18,3.92.93,1.67-.22,6.03-1.28,7.96-1.72,2.89-.65,5.87-3.12,8.91-3.28-.82-7.24-7.47-1.71-11.02-.54-2.5.83-8.99,2.67-9.38-1.16,2.35-.3,4.56-1.68,6.8-2.55,1.83-.71,4.42-1.85,6.09-2.4,2.66-.89,7.66.59,7.99.35.24-.17,1.35-2.44,1.19-2.98-.84-2.94-9.66-.65-12.09-.94-1.73-.21-3.36-1.81-4.58-1.71-1.75.14-1.83,2.41-2.94,2.79-1.67.57-4.4-.83-6.69-.47-1.05.16-1.84.93-2.88,1.09-1.24.19-2.65-.23-3.84.13-1.1.32-1.61,2.12-2.91,2.15-.89.02-1.83-.79-2.84-.85-3.18-.2-13.24,1.96-16.63,2.96-2.44.72-4.05,3.05-6.61,3.03-.74,0-1.13.1-.85-.85.17-.57,2.44-4.1,2.25-4.26-3.74-1.1-4.13,3.51-5.66,4.25-1.17.57-3.47.03-4.41.97-.95.95-.41,3.21-.77,3.76-.17.27-4.28.93-5.61,2.75-.47.64-.63,1.83-1.2,2.63-3.63,5.08-5.69,6.71-5.02,13.7.6,6.23,3.68.1,5.13-1.57,3.18-3.68,7.89-8.36,12.05-10.74,2.53-1.45,5.61-1.25,7.97-3.36,1.43-1.29,1.39-2.68,2.38-3.85Z"/>
  <path class="b" d="M389.86,153.14c.33,1.42-1.88,3.92-1.09,5.05.27.39,4.92.87,4.49,2.59-2.27,1.21-3.54,4.29-6.51,3.69-.92.76.69.63,1.15.59,2.81-.22,5.5-1.31,8.35-1.29,3.57-1.61,4.77-4.23-.15-4.4,1.26-6.46,5.13,0,7.42-.26,1.19-.13,6.09-2.98,7.51-3.8.94-.54,1.52-1.52,2.45-2.09,4.53-2.76,7.94-2.69,12.7-3.74,3.76-.82,4.84-3.37,9.44-1.01.55.28,1.45.36.72,1.25-.5.61-4.82.99-5.81,1.28-4.08,1.17-8.5,2.63-11.19,6.09,1.69-.17,3.74.28,5.37-.01,1.17-.21,1.83-1.3,2.96-1.57,1.62-.39,7.4-1.26,8.96-1.26,1.77,0,3,1.34,4.97,1.05,1.01-.15,3.93-2.82,3.23-3.85-.14-.21-5.08-1.36-3.96-2.84.12-.15,3.2-1.03,3.72-1.1,5.02-.66,10.97,3.1,15.83,2.22,5.36-.97-5.27-4.39-6.86-4.52-2.43-.2-4.51,1.87-6.15,1.7-1.05-.1-1.83-1.34-2.97-1.61-2.34-.54-5.38.23-7.8-.14-3.63-.55-6.06-1.48-10.22-1.68-.92-.04-4.64.16-4.82,0-.36-.32.24-1.39.94-1.61,1-.32,7.89.64,6.16-1.81-1.38-1.95-3.6-.51-5.06-.59-3.27-.16-7.29-1.22-10.61-.79-2.25.29-5.39,1.92-7.24,2.23-1.62.27-4.15-.58-6.45-.14-1.18.23-5.57,1.82-6.51,2.51-.7.52-1.01,1.07-1.27,1.89.98-.27,2.32.59,3.05.45.57-.11,6.46-5.58,7.15-2.43.26,1.19-2.73,2.24-3.65,2.57-3.17,1.14-10.25,4.3-12.75,4.82-3.15.65-5.24-.59-7.43,2.77-2.74,4.23,2.97.3,3.72.32,1.22.04,2,1.88,3.83,1.6,1.05-.16,3.95-2.63,4.38-2.17Z"/>
  <path class="b" d="M333.58,136.78c-1.22.2-4.54,2.58-5.99,1.57-.2-.14-1.2-4.11-1.2-4.76,0-1.43,1.84-6.88,1.14-7.65-2.02-.36-1.62,1.89-3.96,1.14,1.39.85-.82,7.14-1.14,7.36-1.02.71-3.19-1.31-3.4-2.57-.51-3.07,1.83-3.88,2.19-5.78.3-1.55-.88-2.87-.35-4.82.86-3.19,8.02-9.54,3.28-12.07-3.09-1.65-4.31,6.08-5.06,7.91-.24.58-1.69.4-1.74.34-.27-.33.3-6.25-.25-7.97-.28-.86-4.28-6.38-5.13-6.2-2.45.52.8,3.5.87,4.26.13,1.32-.96,2.08-1.06,2.91-.15,1.21,1.82,2.35.74,4.71-1.69,1.09-3.48,6.5-4.81,7.13-.77.36-1.59-.41-2.41-.21-.48.11-.91.77-1.42.88-1.3.29-4.12.05-4.62,1.65-.23.75.32,3.03.8,3.59.54.63,1.63.53,2.26,1.14.18.17,2.39,3.99,2.51,4.3.52,1.33-2.25.97-2.23,1.65l2.27,3.67c-2.34.74-4.18-.83-5.97-1.11-3.76-.57-6.85-.9-10.61-1.86-2.21-.56-3.81-2.26-6.08-.72.66.81,1.69.85,2.56,1.41,3.35,2.15,3.75,1.35,7.06,2.57.87.32,4.78,2.53,5.43,3.07,1.06.87.52,2.41,1.38,3.15.22.19,4.77,2.76,5.07,2.86.76.26,1.5.32,2.29.25l-.56-3.96c1.98.54,2.7,3.11,4.85,3.41,2.62.36,4.46-2.48,6.07-2.21,2.25.38,2.79,3.16,3.78,3.62.85.39,4.27-1.37,5.73,1.66,1.74-.03,4.02,2.94,5.34,2.58,1.35-.37.75-4.87.99-6.38.27-1.68,1.43-3.74,1.86-5.5.31-1.27,1.64-5.38-.48-5.03Z"/>
  <path class="b" d="M174.19,226.21c-.4,1.26.23,2.12.06,2.92-.24,1.11-9.1,9.01-10.52,9.82-1.56.89-4.48.67-4.5,3.14,3.49.45,6.65,5.8,10.38,3.44,1.34-.85.59-3.28,3.93-1.6,1.69.85,1.28,1.88,3.96,1.45,2.86-.46,4.95-2.61,7.27-4.08.76-.48,1.84-.5,2.41-.86,1.55-1,3.26-8.24,4.31-9.85.38-.59,1.46-.8,2.04-1.49.95-1.14,4.52-5.9.65-4.46-.58.22-3.58,2.98-3.79,2.73-.89-2.1,3.82-6.28,5.41-6.12.74.07.71,2.41,2.79,2.19.79-.09,7.25-4.47,5.96-5.7-.72-.68-9.32,3.11-6.16-1.35.22-.31,5.88-4.29,6.3-4.46,1.34-.56,2.69-.2,3.82-.71.81-.36,1.44-1.86,2.8-2.29,2.74-.87,4.53.42,6.52.31,1.39-.08,2.62-1.59,4.02-1.68,1.58-.1,3.6,1.28,5.05,1.13.78-.08,1.28-.86,1.87-.99,1.06-.23,5.72-.5,5.79-1.56l-2.26-3.12c2.48-1.3,11.54,5.45,13.03,3.96.31-3-1.29-5.79-4.02-7.03-3.11-1.42-9.82-3.86-13.1-4.47-2.69-.5-6.11,0-8.55-.52-1.19-.26-2.14-1.33-3.55-1.55-7.97-1.26-10.05,2.95-15.98,5.49-6.71,2.88-11.2,2.87-16.88,8.62-.71.72-4.63,5.54-2.25,5.68.29.02,3.91-2.35,4.53-2.83.98-.77,2.31-2.72,3.14-3.12.66-.33,5.55-.45,7.38-1.09,1.25-.44,1.96-1.9,3.11-2.03,2.31-.27,1.56,1.75,2.54,2.57,1,.84,4.15.32,2.58,2.58-.5.71-3,.56-4.17.93-4.91,1.52-8.35,7.66-12.28,10.96-1.43,1.2-3.85,1.62-5.13,2.8-1.62,1.5-1.78,5.57-4.84,3.07l1.17-4.75c-.78-.82-4.49,2.75-4.87,3.95Z"/>
  <path class="b" d="M467.21,670.5c-1.79-.07-5.16-1.95-5.38,1.13,2.99,1.3,6.43.71,9.33,1.16,1.03.16,4.27,2.32,4.84.26.93-3.41-7-2.47-8.78-2.54Z"/>
  <path class="b" d="M429.5,612.68c.24-.15,1.63-4.85,1.71-5.39.27-1.78-.22-3.68.15-5.52.44-2.18,2.66-4.45,1.29-7.21-1.97-3.96-5.75,3.03-5.93,5.45-.13,1.74.86,3.55.98,5.19.06.82-.36,1.53-.32,2.11.13,1.73.81,3.51.46,5.39.49-.08,1.4.14,1.66-.03Z"/>
  <path class="b" d="M517.4,631.09c-1.09-.33-4.86-1.08-6.11-1.28-.82-.13-1.61.47-2.45.23-1.3-.36-1.3-1.41-1.84-1.86-1.55-1.28-3.94-.31-3.68,1.72.11.83,4.12,5.63,5,6.29,3,2.27,7.66,2.46,11.19,3.54,1.27.39,3.08,1.68,3.89,1.81.81.13,4.03-3.9,2.19-5.63-.37-.35-7.75-4.69-8.21-4.82Z"/>
  <path class="b" d="M155.12,562.4c3.36-1.46,1.77-6.94-.61-6.3-.48.13-2.98,2.65-3.13,3.17-.69,2.39,1.17,4.25,3.74,3.13Z"/>
  <path class="b" d="M176.04,496.06c1.69-1.13,6.55-2.82,7.57-3.77,2.13-1.98,1.8-8.82.49-11.27-1.82-3.42-9.21-2.77-6.16-9.42h-2.83c-.87-3.19.94-5.4,1.45-7.92.16-.77-.22-1.53-.06-2.3.32-1.51,2.65-5.14,2.5-5.86-.15-.7-2.84-2.82-3.57-3.79-1.48-1.97-4.42-6.4-5.65-8.52-1.7-2.93-3.25-9.6-5.42-11.58-.56-.51-.79-1.04-1.71-.83-.05,2.16-2.68,7.59-2.19,9.23.28.97,2.23,2.33,2.63,4.21.5,2.34-.99,4.83-.17,6.4.98,1.88,4.85,1.39,4.86,4.22.02,4.1-3.89,7.8-3.31,11.23.37,2.19,2.42,3.77-.54,5.38-2.23,1.21-2.4.27-4.11-1l-.04,4.2c2.84.55,2.61,2.54,2.32,5.17-.29,2.6-2.74,7.19-3.29,9.73-.28,1.32-.36,5.9.16,6.97,1.23,2.49,6.53-.63,5.95,3.39-2.24.85-4.24-2.48-5.61-.22-1.78,4.46-1.84,9.14-3.29,13.71-.66,2.07-2.5,5.03-2.88,6.76-.34,1.59.35,13.22,1.02,13.76,1.29,1.05,1.39-2.46,1.65-3.07.25-.58,1.68-.4,1.74-.33.23.26-.06,2.78-.25,3.46-.38,1.34-1.85,1.25-2.34,2.74-.52,1.56-.01,3.2-.35,4.74-.33,1.46-1.89,2.03-1.63,4.07.34,2.6,3.79.48,4.89-.8,1.06-1.24,1.48-4.17,2.5-4.89,1.35-.95,2.72,1.19,4.15.82,2.64-.69,4.07-6.1,2.66-8.43l-4.25,2.15-3-2.25c-.39-.57.32-5.36.6-6.27.26-.85,3.03-5.96,3.69-7.07,1.83-3.1,6.94-6.96,7.81-9.75.89-2.85-.7-8.53.56-10.2.29-.38,2.87-2.38,3.46-2.78Z"/>
</svg>