<?xml version="1.0" encoding="UTF-8"?>
<svg id="a" data-name="Layer 1" xmlns="http://www.w3.org/2000/svg" width="612" height="792" viewBox="0 0 612 792">
  <defs>
    <style>
      .b {
        fill: #00a651;
        stroke: #231f20;
        stroke-miterlimit: 10;
      }
    </style>
  </defs>
  <path class="b" d="M251.5,119.5c-24.91,18.31-42.4,6.23-91,24-22.41,8.2-38.02,17.83-37,21,1.65,5.13,44.52-14.38,68,5,9.69,8,6.55,14.76,21,31,16.04,18.03,28.54,19.4,28,26-1.17,14.33-61.14,20.26-69,21-42.1,3.96-71.89-1.02-72,0-.17,1.47,62.5,8.38,122,15,71.77,7.99,102.09,11.46,107,0,5.68-13.26-30.59-28.04-33-66-.22-3.52,3.18-19.06,10-50,6.63-30.07,9.71-43.14,13-43,5.27.22.11,33.73,17,44,16.18,9.84,46.89-5.14,47-16,.1-9.39-22.74-8.65-33-28-9.64-18.18,2.75-33.48-6-41-10.73-9.22-39.74,4.89-58,19-22.31,17.24-16.6,25.21-34,38Z"/>
</svg>