<?xml version="1.0" encoding="UTF-8"?>
<svg id="a" data-name="b1" xmlns="http://www.w3.org/2000/svg" width="612" height="792" viewBox="0 0 612 792">
  <defs>
    <style>
      .b {
        fill: #010101;
      }
    </style>
  </defs>
  <path class="b" d="M279,209.2c0,.4,0,.8,0,1.2h1.2c-.29-.5-.84-.79-1.2-1.2Z"/>
  <path class="b" d="M399,218.8c.65.17,1.68.83,2.4,1.2-.13-.35.14-.86,0-1.2-.37-.4-.8-.77-1.2-1.2h-1.2c.16.28-.15.84,0,1.2Z"/>
  <path class="b" d="M138.6,143.2v-1.2c-.39.04-.8-.03-1.2,0l-1.2,1.2c.63.01.29.65,2.4,0Z"/>
  <path class="b" d="M431.4,246.4c-.29-.16-.83.14-1.2,0,.49.71.81,1.62,1.2,2.4h1.2c.11-.39-.14-.9,0-1.2-.49-.24-.83-.99-1.2-1.2Z"/>
  <path class="b" d="M241.8,205.6l-1.2-1.2c.09.09-.13,1.41,1.2,1.2Z"/>
  <path class="b" d="M453,125.2c.4,0,.8,0,1.2,0,.4,0,.81-.03,1.2,0-.08-.43.14-1.01,0-1.2-.39-.05-.8.04-1.2,0h-1.2c-.11.28.05.77,0,1.2Z"/>
  <path class="b" d="M171,110.8c.4.1.9-.13,1.2,0,.97-.95,0-1.97,0-2.4h-1.2c-.34.49-.53,1.04-1.2,1.2.08,0,.09.92,1.2,1.2Z"/>
  <path class="b" d="M345.09,191.75l1.11-.55c-.71-.07-.98.11-1.11.55Z"/>
  <path class="b" d="M345.09,191.75l-1.29.65c.29-.15.82.13,1.2,0,.02-.26.04-.47.09-.65Z"/>
  <path class="b" d="M471,133.6c.46.22.84.82,1.2,1.2.2.2.98-.2,1.2,0-.18-.26.16-.86,0-1.2-.19-.38-.94-.74-1.2-1.2-.33-.15-.87.15-1.2,0,.2.2-.2,1.02,0,1.2Z"/>
  <path class="b" d="M456.6,126.4c.41.05.87-.1,1.2,0,.51.16.93.74,1.2,1.2.37.11.83-.11,1.2,0,.51.16.93.74,1.2,1.2.34.15.88-.15,1.2,0,.55.26.86,1,1.2,1.2.29.17.89-.17,1.2,0,.47.25.84,1.05,1.2,1.2.35.15.93-.17,1.2,0,.46.29.78.94,1.2,1.2.34.15.87-.15,1.2,0-.07-.39.09-.83,0-1.2-.36-.43-.85-.77-1.2-1.2-.16-.19-1.05.2-1.2,0-.25-.32-.77-.61-1.2-1.2-.34-.16-.94.18-1.2,0-.46-.32-.83-1.01-1.2-1.2-.39-.04-.81.05-1.2,0-.4-.05-.94-1.17-1.2-1.2-.36-.12-.83.11-1.2,0-.51-.16-.93-.74-1.2-1.2-.39-.06-.81.06-1.2,0-.39-.06-.81.06-1.2,0,.13.33-.18.93,0,1.2Z"/>
  <path class="b" d="M477,144.4c.35.12.89-.16,1.2,0,.51.26.87,1.05,1.2,1.2.37.1.82-.09,1.2,0,.49.11.93.77,1.2,1.2.36.09.82-.02,1.2,0,.4.03.8,0,1.2,0v-1.2c-.3-.17-.89.17-1.2,0l-1.2-1.2c-.32-.15-.86.15-1.2,0-.46-.2-.85-.82-1.2-1.2-.34-.11-.8.07-1.2,0-.39-.07-.81.05-1.2,0,.07.39-.09.83,0,1.2Z"/>
  <path class="b" d="M329.4,91.6c.26-.62.44-1.11,1.2-1.2.2-.15-.2-.99,0-1.2.37-.39,1.06-.97,1.2-1.2v-1.2l1.2-1.2c.07-.37,0-.82,0-1.2v-1.2c-.39.06-.82-.08-1.2,0-.77.16-1.63,1.03-2.4,1.2-.1.4.12.88,0,1.2-.42,1.09-.64.81-1.2,1.2v3.6c.08-.04,1.06,1.29,1.2,1.2Z"/>
  <path class="b" d="M209.4,76h1.2v-1.2h-1.2c-.13.35.14.86,0,1.2Z"/>
  <path class="b" d="M135,149.2c.4-.04.81.05,1.2,0,.39-.05.83.09,1.2,0,.23-.44.89-.78,1.2-1.2.32-.43.81-.81,1.2-1.2l-1.2-1.2h-1.2c-.75.82-1.11,2.04-2.4,2.4-.05.39.09.83,0,1.2Z"/>
  <path class="b" d="M348.6,76c.11-.74.56-.98,1.2-1.2.34-.11.8.09,1.2,0,.14-.16-.38-.92,1.2-1.2v-1.2h-1.2c-.4-.03-.8.04-1.2,0-.31.31-.2.57-1.2,1.2-.44.28-1.94-.28-2.4,0,.14.74.94,1.61,1.2,2.4.25-.16.79.12,1.2,0Z"/>
  <path class="b" d="M178.2,104.8h1.2c.34-.12.96.17,1.2,0,1.83-1.34,1.1-1.9,4.8-3.6.76-.35,1.68-1.02,2.4-1.2.36-.09.81.04,1.2,0,.87-.64,1.53-.79,2.4-1.2.41-.19.8-1.07,1.2-1.2.34-.11.81.09,1.2,0,.37-.08.81.03,1.2,0,.27-.46.69-1.04,1.2-1.2.33-.1.79.05,1.2,0,.27-.46.69-1.04,1.2-1.2-.41-1.86-1.16-3.37-2.4-4.8h-1.2c-.02,1.31-1.4,1.88-2.4,2.4-.3.16-.84-.14-1.2,0-.39.41-.81.79-1.2,1.2-.39.4-.79.82-1.2,1.2-.41.38-.76.87-1.2,1.2-.44.33-.75.89-1.2,1.2-.43.29-.74.9-1.2,1.2-.28.18-.91-.18-1.2,0-.33.47-.79.81-1.2,1.2-.41.38-.76.84-1.2,1.2-.24.19-.94-.19-1.2,0-.38.27-.71.84-1.2,1.2-.44.32-.74.89-1.2,1.2-.14.35.14.86,0,1.2Z"/>
  <path class="b" d="M443.4,258.4v1.2c.19-.2.98.2,1.2,0,.22-.2.92.19,1.2,0,.47-.32.88-.72,1.2-1.2-1.3.16-.98-.73-1.2-1.2h-2.4c.14.33-.1.83,0,1.2Z"/>
  <path class="b" d="M389.4,208c-3.71-2.66-1.63,1.27-1.2,1.2.59-.09.96-.69,1.2-1.2Z"/>
  <path class="b" d="M150.6,438.4v-2.4c-.29-.12-.78.08-1.2,0-.05.41.1.87,0,1.2-.16.51-.74.93-1.2,1.2v2.4h1.2c.16-.36-.18-.96,0-1.2.48-.63.1-.64,1.2-1.2Z"/>
  <path class="b" d="M423,107.2c-.34-.21-6.81-3.52-7.2-3.6-.38-.08-.82.08-1.2,0-.14.1-.98.96-1.2,1.2-.18.19-1.06-.2-1.2,0-.32.55-.39,1.15-1.2,1.2-.14.24.09.77,0,1.2.41.11.91-.14,1.2,0,1.04.51,1.94,1.32,2.4,2.4.8,0,1.6,0,2.4,0,.4,0,.8-.02,1.2,0,1.64.07,3.81-.59,4.8,1.2h2.4v-1.2c-1.24-.74-1.84-.85-2.4-2.4Z"/>
  <path class="b" d="M563.4,377.2v-2.4c-7.82.34-2.71,8.8,0,2.4Z"/>
  <path class="b" d="M559.8,367.6c.02.4,0,.8,0,1.2l1.2,1.2c.53.11,1.49,1.22,2.4,1.2v-9.6c-1.38-.11-1.76-.11-2.4,1.2-.26.53.28,2.06,0,2.4-.16.19.45,1-1.2,2.4Z"/>
  <path class="b" d="M555,505.6c9.66,2.2,5.65-3.27,6-6,.05-.39-.05-.81,0-1.2-.54-.65-2-.84-2.4-2.4-.17-.68.12-1.65,0-2.4v-1.2c.2-.58.83-.8,1.2-1.2.05-.43-.11-.91,0-1.2-2.23-3.26-3.1-2.99-2.4-7.2.28-1.69-.44-2.13,1.2-3.6-.08-.79.07-1.61,0-2.4-.04-.4.03-.8,0-1.2-.06-.79.01-1.61,0-2.4-.02-1.2,0-2.4,0-3.6,0-.8,0-1.6,0-2.4,0-.4,0-.8,0-1.2-5.28.69-2-13.59-2.4-16.8l-1.2-2.4c-.57-1.78-.85-4.14-3.6-3.6-.09.39.12.86,0,1.2-.14.38.16.94,0,1.2-.29.46.39.92-1.2,2.4,0,.4,0,.8,0,1.2,0,.4,0,.8,0,1.2,0,.8,0,1.6,0,2.4s.01,1.6,0,2.4c2.54,1.58,1.35,4,0,6-.02.4.05.81,0,1.2-.12.98-.12,1.93-1.2,2.4,0,.4,0,.8,0,1.2,0,.4,0,.8,0,1.2,0,.4.01.8,0,1.2-.03.8.05,1.61,0,2.4-.09,1.35.33,2.88-1.2,3.6-.05.39.05.81,0,1.2-.02.12.28.48,0,2.4-.06.39.06.81,0,1.2s.06.81,0,1.2c-.08.49-1.16.97-1.2,1.2,0,.4,0,.8,0,1.2,0,1.15-1.63,3.43-1.2,8.4.07.77-.14,1.67,0,2.4,4.01,2.43,5.69,3.18,8.4,7.2.73,1.09.72,2.47,1.2,3.6.14.32-.12.82,0,1.2Z"/>
  <polygon class="b" points="88.2 273.4 87.6 272.8 87 273.4 88.2 274 88.2 273.4"/>
  <path class="b" d="M347.4,193.6c.13-.21-.06-.77,0-1.2-.79.25-1.69,1.08-2.4,1.2.19.3-.26,1.25,1.2,1.2.08,0,1.08-1.01,1.2-1.2Z"/>
  <path class="b" d="M366.6,194.8c-.11-.55,3.69-4.46-2.4-1.2.46.32-1.4,4.01,2.4,1.2Z"/>
  <path class="b" d="M352.2,188.8c-.35.05.11-1.15-2.4,0v1.2c.12-.02,1.14.18,2.4,0v-1.2Z"/>
  <path class="b" d="M262.2,198.4c.09-.78-.06-1.61,0-2.4-3.24.89-5.12,1.8,0,2.4Z"/>
  <path class="b" d="M480.6,140.8c.04.08,1.05,1.09,1.2,1.2.26.19.94-.19,1.2,0-.19-.26.19-.94,0-1.2-.35-.43-.86-.76-1.2-1.2-.31-.15-.84.11-1.2,0,.12.35-.16.89,0,1.2Z"/>
  <path class="b" d="M483,143.2c.4.4.82.78,1.2,1.2.33.44.88.75,1.2,1.2.3.42.84.78,1.2,1.2.2.23-.2.98,0,1.2.37.11.86-.13,1.2,0,.51.2.8.88,1.2,1.2.45.35.85.75,1.2,1.2v1.2c.54.29,1,.58,1.2,1.2.31.17.93-.18,1.2,0,.28.18.92-.18,1.2,0-.2-.23.2-.97,0-1.2-.2-.23.2-.98,0-1.2-.26-.19-.95.19-1.2,0-.46-.35-.78-.85-1.2-1.2-.44-.36-.78-.84-1.2-1.2-.43-.37-.79-.82-1.2-1.2-.41-.38-.81-.79-1.2-1.2-.39-.41-.83-.78-1.2-1.2-.37-.42-.82-.78-1.2-1.2-.38-.42-.83-.77-1.2-1.2-.25-.19-.94.19-1.2,0,.19.26-.19.94,0,1.2Z"/>
  <path class="b" d="M219,72.4c.39.06.81-.04,1.2,0v-1.2h-2.4v1.2c.33.11.79-.07,1.2,0Z"/>
  <path class="b" d="M287.4,66.4c.39.04.83-.09,1.2,0,.32.07.78.92,1.2,1.2h1.2c-.04-.11,1.19-1.39,0-2.4-.4-.02-.8.03-1.2,0-.4-.03-.8.02-1.2,0-.4-.02-.8,0-1.2,0,.08.38-.11.84,0,1.2Z"/>
  <path class="b" d="M358.2,71.2c.91-.83,1.09-2.31,1.2-2.4-.37.1-.81-.07-1.2,0-.38.07-.81-.05-1.2,0-.39.05-.8-.04-1.2,0,.23.81.98,1.59,1.2,2.4h1.2Z"/>
  <path class="b" d="M525,193.6v-1.2h-1.2c.36.43.83.78,1.2,1.2Z"/>
  <path class="b" d="M520.2,194.8h1.2c.36.11.87-.14,1.2,0-.41-.39-.81-.8-1.2-1.2-.2-.2-1.01.2-1.2,0,.13.35-.12.84,0,1.2Z"/>
  <path class="b" d="M495,156.4c.14.39,1.21.92,1.2,1.2-.01.38.1.88,0,1.2.41.39.8.8,1.2,1.2.9.66,1.03,1.05,1.2,1.2.2.17-.2,1.02,0,1.2.41.39.8.8,1.2,1.2.19.2,1.02-.2,1.2,0-.15-.33.16-.89,0-1.2l-1.2-1.2c-.18-.28.19-.92,0-1.2-.94.1-1.21-.3-1.2-1.2-.33-.43-.82-.8-1.2-1.2-.2-.21.2-1.01,0-1.2-.4-.38-.77-.88-1.2-1.2-.26-.19-.91.18-1.2,0,.17.25-.14.81,0,1.2Z"/>
  <path class="b" d="M583.8,296.8c.12.31.95.69,1.2,1.2.16.32-.17.9,0,1.2.18.41,1.07.81,1.2,1.2.1.3,1.08.72,1.2,1.2.09.37-.08.82,0,1.2.39.07.83-.09,1.2,0-.12-.36.13-.85,0-1.2-.13-.36.14-.87,0-1.2-.34-.39-.99-.76-1.2-1.2-.16-.32.15-.87,0-1.2-.18-.39-.91-.76-1.2-1.2-.18-.29.19-.95,0-1.2l-1.2-1.2h-1.2c.01.4-.01.8,0,1.2.01.38-.09.86,0,1.2Z"/>
  <path class="b" d="M522.6,202v1.2c.47.24,1.09.69,1.2,1.2.13.59.07,1.74,0,2.4.03.08.95.32,1.2,1.2.13.45-1.19,1.86-1.2,2.4,0,.39.06.82,0,1.2-.06.38.01.81,0,1.2-.01.4.01.8,0,1.2.78-.19,1.6-.92,2.4-1.2-.05-.39.04-.8,0-1.2-.04-.39.02-.8,0-1.2-.02-.4,0-.8,0-1.2,0-.4,0-.8,0-1.2,0-.4,0-.8,0-1.2-.02-.8.03-1.6,0-2.4-.01-.4.02-.8,0-1.2-.04-1.03.02-1.75,0-2.4-.01-.4,0-.8,0-1.2h-2.4c.06.9-.28,1.3-1.2,1.2.04.39,0,.8,0,1.2Z"/>
  <path class="b" d="M568.2,284.8c.36.11.82-.09,1.2,0,.41.1.89-.13,1.2,0,.62.26,1.11.44,1.2,1.2.25.19.95-.19,1.2,0,.44.35.77.88,1.2,1.2,1.1.81,1.74.9,2.4,2.4.28.18.92-.19,1.2,0,.5.34.83.95,1.2,1.2.43.28.81.83,1.2,1.2.41.39.8.8,1.2,1.2h1.2c-.16-.33.17-.91,0-1.2-.18-.3.18-.92,0-1.2-.41-.39-.8-.8-1.2-1.2-.39-.39-.87-.77-1.2-1.2-.33-.43-.85-.76-1.2-1.2-.37-.42-.82-.78-1.2-1.2-.33-.13-.93.18-1.2,0-.68-.45-.7-.24-1.2-1.2-.21-.2-.97.2-1.2,0-.43-.37-.8-.9-1.2-1.2-.41-.15-.84-1.11-1.2-1.2-.37-.1-.83.1-1.2,0h-1.2c-.37-.1-.83.11-1.2,0,.13.35-.12.84,0,1.2.13.4-.17.99,0,1.2Z"/>
  <path class="b" d="M519,198.4c.09.17.8.66,1.2,1.2.31.14.81-.12,1.2,0-.26-.79-1.05-1.66-1.2-2.4h-1.2c.18.29-.17.89,0,1.2Z"/>
  <polygon class="b" points="106.2 536.8 106.2 538 108.6 538 107.4 536.8 106.2 536.8"/>
  <path class="b" d="M547.8,262l1.2,1.2c.37.11.83-.11,1.2,0,.4.12.92-.15,1.2,0,1.59.86,1.61,1.68,2.4,2.4.41.38.82.79,1.2,1.2.38.41.82.78,1.2,1.2.31.17.9-.17,1.2,0-.32-.8-.77-1.65-1.2-2.4-.08-.15-1.67-1.48-2.4-2.4-.34-.43-.81-.81-1.2-1.2-.31-.17-.9.17-1.2,0-.31-.18-.94.18-1.2,0-.6-.42-.72-.17-1.2-1.2-.4-.02-.81.06-1.2,0-.38-.06-.81.02-1.2,0v1.2h1.2Z"/>
  <path class="b" d="M447,254.8c.49.43.7,1.95,1.2,2.4.42.38.79.81,1.2,1.2,2.24,2.1,2.7,2.56,4.8,4.8.38.41.81.79,1.2,1.2.19.2,3.81-.56,5.45,1.12,8.91,9.13,14.4,20.84,5.35,31.28v1.2c3.51,5.18,1.04,3.87,1.2,6,.09,1.17-1.16,2.79-1.2,3.6.22.2.99-.2,1.2,0h2.4c1.29,2.33-1.06,5.97-1.2,7.2-.02.19-.88,2.21-1.2,3.6,1.78,1.06.74,1.1,1.2,2.4.12.34-.09.81,0,1.2,4.23,3.01,1.12,7.83,1.2,9.6.04.79,0,1.6,0,2.4.76.09.94.58,1.2,1.2.13.3-.09.79,0,1.2.08.38-.05.81,0,1.2.75.1.96.57,1.2,1.2.12.31-.08.79,0,1.2.07.38-.05.81,0,1.2.09.78-.06,1.61,0,2.4,1.59.2.91,1.68,1.2,2.4.13.32-.1.8,0,1.2.17.67-.1,1.64,0,2.4.86.4.8.36,1.2,1.2.14.29-.1.79,0,1.2.09.37-.06.81,0,1.2,1.77.47,1.04,2.36,1.2,3.6.1.78-.06,1.61,0,2.4,1.17.49.88,1.65,1.2,2.4,1.02,2.44.75,2.78,1.2,4.8.09.38-.07.81,0,1.2.07.39-.06.81,0,1.2.27,1.8.97,3.14,1.2,6,3.04,1.82,5.11,8.61,1.2,10.8.05.39-.05.81,0,1.2.06.53,2.74,2.6,0,3.6v4.8c4.04,3.03,4.95-6.76,7.2-9.6.36-.46.75-.83,1.2-1.2,0-.4,0-.8,0-1.2.02-1.31-.3-3.95,0-4.8.46-1.33.63-1.41,1.2-2.4.12-.37-.14-.88,0-1.2.75-1.7,1.98-2.77,3.6-3.6.7-.36,1.79-1.09,2.4-1.2,3.77-3.37,9.75.11,12,3.6.35.54,1.13,1.93,1.2,2.4.11.69.06,1.68,0,2.4,3.28,9.35-1.49,5.8-2.21,10.49-1.5,9.79.48,20.43-7.39,29.11.03.4-.04.8,0,1.2.21,2.34.34,5.04-2.4,6,0,.4.02.8,0,1.2-.05.78.13,1.66,0,2.4-.08.5-.74.97-1.2,1.2-.02.4.01.8,0,1.2-.03.8,0,1.6,0,2.4,0,.8,0,1.6,0,2.4v2.4c1.41.22,1.02,1.42,1.2,2.4.19,1.06-.05,2.45,0,3.6.02.4,0,.8,0,1.2-.01.8.04,1.61,0,2.4.54.74,2.16,1.74,2.4,2.4.8-.28,1.62-1.02,2.4-1.2.4-1.26,1.45-1.69,2.4-2.4.2-.23-.19-.95,0-1.2l2.4-2.4c.28-.17.84.15,1.2,0,1.72-4.55,4.59-2.81,7.2-3.6.37-.11.84.12,1.2,0,.37-.39.78-.9,1.2-1.2.41-.29.7-.97,1.2-1.2.32-.15.84.13,1.2,0,.01-.92.76-.9,1.2-1.2.25-.17.84.15,1.2,0,.32-.13.82.11,1.2,0,.48-.83.39-.72,1.2-1.2.28-.17.84.15,1.2,0,.26-.51.85-.79,1.2-1.2.38-.45.8-.79,1.2-1.2.19-.2,1,.2,1.2,0,.12-.08.45-.72,1.2-1.2.28-.18.92.18,1.2,0,.82-.84,1.55-1.58,2.4-2.4.83-.8,1.49-1.6,2.4-2.4.42-.37.79-.82,1.2-1.2.2-.19-.2-1.01,0-1.2.8-.75,1.2-1.43,2.4-2.4.18-.28-.18-.92,0-1.2.18-.28-.18-.9,0-1.2.82-1.39,1.87-1.72,2.4-2.4,1.81-2.32,1.91-1.48,3.6-2.4.48-.26.68-2.47,1.2,0v2.4c.89-.13,1.16.45,1.2,1.2.06.99.12,2.47-1.2,2.4.04.4-.03.8,0,1.2,2.01.89,3.23,4.07,3.6,6,.27,1.41-.17,3.28,0,4.8.04.39-.04.8,0,1.2.08.79-.05,1.61,0,2.4.03.4-.01.8,0,1.2,1.12,4.34,4.37,4.12,8.4,4.8.03-.8-.04-1.6,0-2.4.02-.4-.02-.8,0-1.2.07-1.19-.1-2.42,0-3.6.04-.4-.05-.81,0-1.2.13-1.16-.2-2.48,0-3.6-2.73-1.04-.12-2.94,0-3.6.07-.38-.04-.81,0-1.2.04-.39-.03-.8,0-1.2-.48-.21-1.12-.69-1.2-1.2-.24-1.46.33-3.53,0-4.8-1.03-3.94-5.73-16.89,2.4-19.2.03-.4-.03-.8,0-1.2.07-.79-.09-1.62,0-2.4-5.51-3.2-.15-9.67-.24-10.23-.11-.74-4.28-2.7-5.76-12.57-.06-.39.05-.81,0-1.2-.05-.39.04-.8,0-1.2-1.6-1.22-.75-1.34-1.2-2.4-.14-.34.14-.86,0-1.2-.13-.33.12-.83,0-1.2-7.32-3.07-6.76-15.43-10.8-21.59l13.2,1.19v1.2c2.49,1.84,3.69,4.58,5.97,6.6-.57.96-1.48,1.28-2.37,1.8-.29.17-.86-.12-1.2,0,.07.38-.06.81,0,1.2.06.39-.05.81,0,1.2.05.39-.03.8,0,1.2.03.39,0,.8,0,1.2,1.06-.2,3.05,3.39,4.19-1.2l1.81,3.6c.06.39-.08.82,0,1.2.08.38-.06.81,0,1.2.76.09.94.58,1.2,1.2.13.3-.09.79,0,1.2.08.38-.05.81,0,1.2.76.09.94.58,1.2,1.2.13.3-.09.79,0,1.2.08.38-.06.81,0,1.2.76.09.94.58,1.2,1.2.13.3-.09.79,0,1.2.76.09.94.58,1.2,1.2.13.3-.09.79,0,1.2,1.54,1.19.77,1.16,1.2,2.4.12.34-.1.81,0,1.2.24.99-.16,2.47,0,3.6.06.39-.04.8,0,1.2.76.09.94.58,1.2,1.2.13.3-.09.79,0,1.2.08.38-.05.81,0,1.2.05.39-.04.8,0,1.2.95.54.74.58,1.2,1.2.18.24-.15.83,0,1.2.13.32-.11.81,0,1.2.1.37-.08.82,0,1.2.75.08,1.01.54,1.2,1.2.18.62-.1,1.63,0,2.4.1.77-.06,1.61,0,2.4.03.4-.02.8,0,1.2.02.4-.02.8,0,1.2.48.21,1.12.69,1.2,1.2.23,1.41-.05,3.27,0,4.8.02.8-.01,1.6,0,2.4,0,.4,0,.8,0,1.2.01.8,0,1.6,0,2.4.01,1.2,0,2.4,0,3.6,0,.4,0,.8,0,1.2,0,.4,0,.8,0,1.2.88.41.78.39,1.2,1.2.15.29-.12.81,0,1.2.11.35-.07.81,0,1.2.07.38-.05.81,0,1.2.05.39-.04.8,0,1.2.04.4-.03.8,0,1.2.03.4-.03.8,0,1.2,1.93,1.51.82,2.05,1.2,3.6.09.37-.07.81,0,1.2.82.38.85.3,1.2,1.2.13.32-.1.8,0,1.2.17.68-.11,1.64,0,2.4.11.77-.07,1.62,0,2.4.04.4-.03.8,0,1.2.86.4.8.36,1.2,1.2.14.29-.11.8,0,1.2.1.37-.07.81,0,1.2.07.38-.05.81,0,1.2.1.78-.07,1.61,0,2.4.23.26.58.18,1.2,1.2.16.27-.14.82,0,1.2.13.33-.1.81,0,1.2.1.37-.08.82,0,1.2,1.93,1.51.82,2.05,1.2,3.6,1.15.31,2.24,1.38,3.6,1.22.47,1.07-2.39,2.21-2.4,2.38,0,.4.02.8,0,1.2-.04.77.14,1.69,0,2.4-.07.38.04.81,0,1.2-.04.4.02.8,0,1.2-.02.4.05.81,0,1.2-.13.98-.12,1.93-1.2,2.4-.03.4.04.8,0,1.2-.04.4.05.81,0,1.2-.05.39.07.81,0,1.2l1.2,1.2v1.2c.05.79-.07,1.61,0,2.4.09,1.03-1.2,1.12-1.2,1.2.02.4-.01.8,0,1.2.26.27.61.12,1.2,1.2.15.27-.12.8,0,1.2.1.35-.05.81,0,1.2.1.74.04,1.64,0,2.4-.02.4.05.81,0,1.2-.16,1.25.57,3.12-1.2,3.6-.06.39.07.81,0,1.2-.07.39.07.81,0,1.2-.07.39.07.81,0,1.2-.08.42-1.13.9-1.2,1.2-.09.38.12.84,0,1.2-.12.38.14.88,0,1.2-.16.35.17.94,0,1.2-.37.56-.74.78-1.2,1.2-.13.35.12.84,0,1.2-.6,1.76.92,2.67-1.2,4.8-.02.39.07.83,0,1.2-.08.4.11.87,0,1.2-.22.64-.46,1.09-1.2,1.2,0,.4,0,.8,0,1.2l1.2,1.2c.38-.08.81.07,1.2,0,.39-.07.81.04,1.2,0,.57-.06-.87-1.59,3.6-1.2v-3.6c0-.4,0-.8,0-1.2,0-.39-.06-.83,0-1.2.13-.76-.21-1.89,0-2.4.45-1.07-.4-1.18,1.2-2.4,0-.4-.02-.8,0-1.2.05-.79-.08-1.62,0-2.4.04-.4-.04-.8,0-1.2.04-.39-.05-.81,0-1.2.05-.39-.05-.81,0-1.2.05-.39-.05-.81,0-1.2.05-.39-.04-.81,0-1.2.25-2.2,1.19-2.27,1.2-2.4.02-.4-.02-.8,0-1.2.02-.4-.03-.8,0-1.2.03-.4-.04-.8,0-1.2.07-.78-.13-1.64,0-2.4.06-.39-.1-.84,0-1.2.19-.66.47-1.1,1.2-1.2,0-.4,0-.8,0-1.2,0-.4,0-.8,0-1.2,0-.4,0-.8,0-1.2,0-.4,0-.8,0-1.2,0-.8,0-1.6,0-2.4,0-.4,0-.8,0-1.2,0-.4,0-.8,0-1.2,0-.4,0-.8,0-1.2,0-.4,0-.8,0-1.2,0-.8,0-1.6,0-2.4,0-.4,0-.8,0-1.2,0-.4,0-.8,0-1.2,0-1.2,0-2.4,0-3.6,0-.8,0-1.6,0-2.4,0-.8.01-1.6,0-2.4,0-.4,0-.8,0-1.2,0-.4.01-.8,0-1.2-.01-.4.01-.8,0-1.2-.01-.4.01-.8,0-1.2-.03-.8.03-1.6,0-2.4-.01-.4.01-.8,0-1.2s.02-.8,0-1.2c-4.19-2.96-1-3.27-1.2-4.8-.15-1.17.11-2.42,0-3.6-.04-.4.03-.8,0-1.2-.03-.4.03-.8,0-1.2s.02-.8,0-1.2c-.02-.4,0-.8,0-1.2-.58-.44-.63-.19-1.2-1.2-.25-.44.21-1.72,0-2.4-.11-.35.08-.81,0-1.2-.08-.38.06-.81,0-1.2-.06-.39.06-.81,0-1.2-.06-.39.05-.81,0-1.2-.05-.39.04-.81,0-1.2-.04-.39.02-.8,0-1.2-.02-.4.01-.8,0-1.2-.02-.08-1.01-.31-1.2-1.2-.08-.38.09-.82,0-1.2-.09-.38.09-.82,0-1.2l-1.2-2.4c-.14-.3.12-.81,0-1.2-.11-.35.09-.81,0-1.2-.08-.38.06-.81,0-1.2-.06-.39.05-.81,0-1.2-.05-.39.04-.8,0-1.2-.74-.11-.98-.56-1.2-1.2-.11-.33.08-.8,0-1.2-.07-.38.05-.81,0-1.2-.05-.39.03-.8,0-1.2-.03-.4.02-.8,0-1.2-.02-.4.02-.8,0-1.2-.39.06-.82-.08-1.2,0-8.46,1.76-5.48-19.9-6.14-26.86-.57-6.09-5.54-14.21-2.25-22.34.28-.42,1.7.99,2.39,1.2-.11-.33.07-.79,0-1.2-.06-.39.04-.81,0-1.2-.04-.39.03-.8,0-1.2-.06-.79.04-1.6,0-2.4-.02-.4.01-.8,0-1.2-.02-.08-1.02-.32-1.2-1.2-.08-.38.08-.82,0-1.2s.09-.82,0-1.2c-1.36-1.79-1.95-5.01-2.4-7.2-.08-.38.06-.81,0-1.2-.83-.48-.72-.39-1.2-1.2-.16-.27.14-.83,0-1.2-.13-.34.11-.83,0-1.2-.1-.34.05-.8,0-1.2-.05-.39,0-.81,0-1.2,0-.4,0-.8,0-1.2v-1.2c-1.17.16-.95-.6-1.2-1.2-.12-.3.09-.79,0-1.2-.08-.38.05-.81,0-1.2-1.06-.56-.78-.64-1.2-1.2-.18-.24.16-.85,0-1.2-.15-.32.13-.84,0-1.2-.11-.29.04-.78,0-1.2-.6-.47-.63-.31-1.2-1.2-.17-.26.15-.84,0-1.2-.13-.32.11-.81,0-1.2-.11-.37.1-.82,0-1.2-.08-.27-1.05-.7-1.2-1.2-.11-.37.12-.84,0-1.2-1.29-1.43-.78-1.49-1.2-2.4-.15-.33.14-.85,0-1.2-.45-.22-.79-.88-1.2-1.2-1.03-.79-1.72-1.13-2.4-2.4-.19-.36-1.05-.7-1.2-1.2-.11-.35.08-.81,0-1.2-.09-.44,1.23-1.86,1.2-2.4-.02-.39-.02-.81,0-1.2.02-.4-.04-.81,0-1.2-.08-.14-.88-.18-1.2-1.2-.11-.36.09-.82,0-1.2-2.57-.4-2.71-.06-4.8,0,.07.38-.05.81,0,1.2.47.24,1.09.69,1.2,1.2.15.69-.04,1.63,0,2.4.07,1.19-.03,2.4,0,3.6.35.35.59.29,1.2,1.2.18.27-.17.88,0,1.2.15.29-.13.82,0,1.2.6.47.63.31,1.2,1.2.17.26-.15.84,0,1.2.13.32-.11.8,0,1.2.1.37-.09.82,0,1.2.09.38-.08.82,0,1.2.76.09.94.58,1.2,1.2.13.3-.09.79,0,1.2.48.32.8.81,1.2,1.2,1.53,1.49.43.28,0,1.2-.3.65.67,2.46-1.2,2.4l-1.2-1.2c-.11-.75.17-1.71,0-2.4-.46-.27-1.04-.69-1.2-1.2-.36-.11-.87.14-1.2,0-.47-.21-.88-.78-1.2-1.2-2.39-3.15-1.55-5.62-2.4-7.2-.35-.65-1.11-1-1.2-1.2-.06-.12-1.91.07-2.4-1.2-.13-.35.13-.85,0-1.2-.81-.05-.88-.65-1.2-1.2-.17-.29.12-.86,0-1.2-1.02-.45-.78-.57-1.2-1.2-.18-.27.13-.87,0-1.2v-1.2c-.38-.38-.94-.79-1.2-1.2-.21-.33-1.49-.19-1.2-1.2l1.2-1.2v-1.2c-.46-.27-1.04-.69-1.2-1.2-.1-.33.05-.79,0-1.2-.41-.39-.8-.8-1.2-1.2-.39-.39-.88-.77-1.2-1.2-.29-.4-1.03-.75-1.2-1.2-.13-.35.12-.84,0-1.2-.7-.54-.67-.52-1.2-1.2-.23-.3.17-1.68,0-2.4-1.14-.53-.92-.92-1.2-1.2-.18-.18.15-.81,0-1.2v-1.2c-3.34-2.57,2.28.01,2.4,0,.29-.03.98-1.26,1.2-1.2.41.11.92-.14,1.2,0,.83.41,1.18.17,2.4,1.2.44.37.91.68,1.2,1.2.33.16.93-.18,1.2,0,.52.34.82.73,1.2,1.2,1.51,1.89.78,2.28,1.2,3.6.12.36-.1.83,0,1.2.42.38.8.8,1.2,1.2.34.33,1.07,1.15,1.2,1.2.32.12.79-.09,1.2,0,.38.08.81-.06,1.2,0-.06-.84,1.19-2.09,1.2-2.4.01-.39.04-.81,0-1.2-.49-.22-.82-.99-1.2-1.2-.44-.24-.82-.83-1.2-1.2-.62-.61-2.3-.66,0-1.2h2.4l1.2,1.2c.34.15.89-.16,1.2,0,.32.17.92-.18,1.2,0-.15-.26.11-.79,0-1.2-.1-.34.04-.81,0-1.2-.38-.01-.86.09-1.2,0-.38-.1-.85.12-1.2,0-.46-.16-.83-1.02-1.2-1.2-.4-.08-.87.11-1.2,0-1.22-.42-1.43-.63-2.4-1.2-.4-.23-.84-.83-1.2-1.2-.37-.38-.97-.74-1.2-1.2-.16-.31.12-.85,0-1.2-1.5-.17-.95-.73-1.2-1.2-.16-.3.14-.84,0-1.2-.42-.38-.8-.8-1.2-1.2-.36-.36-1.05-.8-1.2-1.2-.12-.33.09-.8,0-1.2-1.02-.45-.78-.57-1.2-1.2-.18-.27.13-.87,0-1.2-.47-.2-.81-.86-1.2-1.2-.42-.37-.8-.8-1.2-1.2l-1.2-2.39c1.93-.67,2.27,1.19,2.4,1.19.79-.04,1.61-.04,2.4,0v-1.2c-.32-.17-.94.18-1.2,0-.51-.35-.81-.89-1.2-1.2-.46-.36-.78-.85-1.2-1.2h-1.2c-.77,1.27-.95,1.72-2.4,2.4.07.38-.04.81,0,1.2.08.77.02,1.62,0,2.4,0,.4.01.8,0,1.2.36.42.85.72,1.2,1.2.3.42.86.75,1.2,1.2.21.28.8,2.63,1.2,3.6.25.6,3.33,1.11,2.39,3.59-1.62.54-2.67-.98-3.59-1.19-.39-.09-.86.12-1.2,0-.43-.15-.79-.92-1.2-1.2-.43-.05-.95.12-1.2,0-.6-.28-.81-.72-1.2-1.2-.18-.23.17-.85,0-1.2-.6-1.27.01-1.06,0-1.2-.03-.39,0-.81,0-1.2,0-.4,0-.8,0-1.2s0-.8,0-1.2c-.35-.36-.58-.14-1.2-1.2-.1-.18,0-.8,0-1.2-1.2-.26-.84-.96-1.2-1.2-1.41-.94-1.53-1.51-2.4-2.4-.43-.05-.92.12-1.2,0-.47-.19-.83-.83-1.2-1.2-.4-.4-.9-.7-1.2-1.2v-2.4l1.2,1.2c.39.07.82-.09,1.2,0,.4.09.87-.12,1.2,0,.66.24,1.13.39,1.2,1.2h1.2c.23-.66.8-1.86,1.2-2.4-1.04-.19-1.76-1-2.4-1.2-.66-.21-1.8.22-2.4,0-.82-.31-1.08-1.15-1.2-1.2-.4-.07-.85.11-1.2,0-.4-.12-.93.15-1.2,0l-1.2-1.2,1.2-1.2v-1.2c-.45-.04-1.89,1.81-2.4,0l-1.2-1.2,1.2-2.4c.39.04.81-.06,1.2,0-.14-.35.15-.89,0-1.2h-1.2c-.47-.31-.77-.88-1.2-1.2-.35-.14-.88.15-1.2,0l-2.4-1.2v-2.4l1.2-1.2,1.2,1.2c.9.2,1.73.56,2.4,1.2.43.41.81.72,1.2,1.2.19.24-.18.9,0,1.2,4.32,1.14,2.25,2.55,8.4,1.2-.09-.36.03-.81,0-1.2-.16-.35-.97-.71-1.2-1.2-.13-.29-.93-.65-1.2-1.2h-1.2c-4.79.69-1.06-2.52-1.2-3.6-.05-.39.02-.8,0-1.2-.45-.19-.79-.97-1.2-1.2-2.67-1.46-4.14-1.51-4.8-4.8-.06-.32-.06-.88,0-1.2l-2.4-2.4c.26-.45,1.09-.87,1.2-1.2.11-.32-.07-.79,0-1.2.07-.4-.11-.86,0-1.2.11-.36-.12-.84,0-1.2.42-1.28,2.5-2.86,2.4-4.8-.37-.01-.86.09-1.2,0-.4-.11-.9.14-1.2,0-.49-.22-.79-.91-1.2-1.2-.33-.17-.89-.84-1.2-1.2-.39-.38-.88-.77-1.2-1.2-.3-.4-1-.73-1.2-1.2-.14-.33.1-.84,0-1.2-.73-.21-1.33-.03-1.2-1.2l-1.2-.6.6-.6.6.6v.6h2.4v-1.2c-.43-.35-.85-.78-1.2-1.2-1.28-1.52.02-1.14,0-1.2-.09-.35.03-.82,0-1.2-.13-.33-1-.71-1.2-1.2-.14-.34.13-.85,0-1.2-.13-.35.12-.84,0-1.2-.09-.26-1.02-.66-1.2-1.2-.12-.35.1-.82,0-1.2-.04-.14-1.1-.57-1.2-1.2v-2.4l-1.2-.6.6-.6.6.6v.6l1.2,1.2c.44.34.76.88,1.2,1.2.44.32.79.97,1.2,1.2.36.11.82-.08,1.2,0-.18-.29.18-.93,0-1.2-.48-.2-.8-.9-1.2-1.2-.44-.33-.78-.84-1.2-1.2-.42-.36-.84-.79-1.2-1.2-.37-.42-.88-.76-1.2-1.2-.29-.41-.92-.71-1.2-1.2-.16-.28.14-.83,0-1.2-.44-.27-1.09-.71-1.2-1.2-.09-.4.12-.88,0-1.2-.15-.38.18-1,0-1.2h-1.2c-1.4,2.73-1.42.84-2.4,0-.2-.17.2-.98,0-1.2-.38-.41-.85-.76-1.2-1.2-.35-.43-.86-.75-1.2-1.2-.19-.25.19-.95,0-1.2-.33-.44-.87-.75-1.2-1.2-.32-.44-.87-.75-1.2-1.2-.19-.26.19-.92,0-1.2-.3-.45-.89-.75-1.2-1.2-.3-.45-.89-.75-1.2-1.2-.26-.38-.86-.7-1.2-1.2-.19-.28.19-.92,0-1.2-.41-.39-.8-.8-1.2-1.2-.4-.4-.85-.75-1.2-1.2v-1.2l1.2,1.2c.43.37.77.84,1.2,1.2.43.37.79.82,1.2,1.2,1.2.43,1.64,1.55,2.4,2.4.37.42.84.77,1.2,1.2.36.43.86.76,1.2,1.2.34.43.88.74,1.2,1.2.19.27-.18.91,0,1.2.22.35.92.65,1.2,1.2.16.32-.16.88,0,1.2.15.3,1.03.62,1.2,1.2v1.2c.21-.07,1-.08,1.2,0,.07-.39-.1-.83,0-1.2.13-.5.76-.93,1.2-1.2-.37-.79-.74-1.66-1.2-2.4-.33-.44-.88-.75-1.2-1.2-.32-.44-.87-.75-1.2-1.2-.19-.26.19-.94,0-1.2l-1.2-1.2c-.19-.25.19-.95,0-1.2l-1.2-1.2c-.19-.24.2-.96,0-1.2l-1.2-1.2c-.2-.24.2-.96,0-1.2l-1.2-1.2c-.2-.24.19-.96,0-1.2-.44-.29-.8-1.01-1.2-1.2-.33-.16-.94.18-1.2,0,.14.35-.13.84,0,1.2.1.27,1.05.68,1.2,1.2.1.37-.1.82,0,1.2.08.3.95.75,1.2,1.2v2.4l-1.2-1.2-1.2-1.2c-.62-1.95-2.4-2.51-3.6-3.6-.88-.8-1.59-1.64-2.4-2.4-.41-.39-.79-.81-1.2-1.2-1.28-1.21-2.38-2.42-3.6-3.6-.41-.39-.8-.8-1.2-1.2s-.8-.8-1.2-1.2c-.4-.4-.81-.79-1.2-1.2-.39-.41-.81-.79-1.2-1.2-.78-.82-1.6-1.53-2.4-2.4-.38-.42-.82-.78-1.2-1.2-.67-.75-1.54-1.39-2.4-2.4-.36-.43-.85-.77-1.2-1.2-.35-.43-.87-.76-1.2-1.2-.31-.42-.89-.71-1.2-1.2-.18-.28.17-.89,0-1.2-.16-.3.15-.85,0-1.2-.36-.11-.82.09-1.2,0-.49-.11-.93-.76-1.2-1.2-.38,0-.84.07-1.2,0-.41-.08-.88.12-1.2,0-.49-.18-.85-1.03-1.2-1.2-.43-.21-.77-.96-1.2-1.2-.3-.17-.88.16-1.2,0-.48-.25-.85-1.06-1.2-1.2-.42-.17-.83-1.08-1.2-1.2-.27-.19-.93.19-1.2,0-.45-.31-.78-.93-1.2-1.2-.36-.13-.85.13-1.2,0-.35-.13-.85.13-1.2,0-.17-.06-.07,1.17-3.6,0-.36-.12-.84.12-1.2,0-4.91-1.57-7.38-1.77-10.79-6.61l2.39-.59-1.2-2.4-1.2-2.4,1.2,1.2c.74.12,1.62-.05,2.4,0,.4.02.8,0,1.2,0h1.2c-.06-.39.08-.82,0-1.2-.3-.18-.94.19-1.2,0-.26-.19-.92.19-1.2,0-.54-.37-.83-.91-1.2-1.2-.84-.66-1.51-2.77-2.4-3.6-.37-.4-.91-.76-1.2-1.2-.24-.36-.86-.68-1.2-1.2-1.41-.21-1.71.64-2.4,1.2v1.2c.04.16.87.89,1.2,1.2.52.28,1.4.3,1.2,1.2-.08.38.06.81,0,1.2l1.2.6-.6.6-.6-.6v-.6c-2.02-1.47-4.14-3.14-6-4.8-.43-.38-.79-.84-1.2-1.2-.4-.02-.8.02-1.2,0-2.93-.12-1.75-1-2.4-1.2-.81-.25-1.59-.87-2.4-1.2-.31-.13-.8.1-1.2,0-.37-.1-.82.08-1.2,0-.88-.19-1.68-.66-2.4-1.2-1.14.14-2.52-.21-3.6,0-.37.07-.81-.02-1.2,0-1.19.07-2.41,0-3.6,0h-2.4c-.27.46-.69,1.04-1.2,1.2-.34.11-.8-.07-1.2,0-.39.06-.83-.1-1.2,0l-14.39,8.39c-1.39-1.38,6.85-8.96,8.39-9.59h1.2c.91,0,1.05.4,1.2,1.2.5-.39,1.77-1,2.4-1.2.07-.79-.1-1.62,0-2.4h-2.4c-.26.43-.88.39-1.2,0-1.19,0-2.42-.1-3.6,0-.4.03-.8-.03-1.2,0-2.5.16-5.87.75-8.4,1.2-.8.4-1.61.78-2.4,1.2-.78.41-1.43,1.12-2.4,1.2h-1.2c-.91.6-2.33,4.19-4.79,1.81l5.99-4.21h1.2c2.64-2.52-.51-3.06-3.6-3.6-1.63-.28-4.17-.01-6,0-.8,0-1.6,0-2.4,0h-1.2l-4.8,2.39,4.8-3.59h2.4c1.29-2.02,4.09-1.04,6-1.2,1.18-.1,2.41.05,3.6,0,2.04-.08,4.15,1.07,6,1.2.36.03.59-.24,2.4,0,.39.05.81-.06,1.2,0,.39.06.81-.07,1.2,0,3.65-3.25,9.89-2.99,14.4-3.6.39-.05.81.05,1.2,0,.39-.05.8.02,1.2,0,.34-.17.71-1.08,1.2-1.2.37-.09.81.05,1.2,0,2.97-.38,1.32.69,2.4,1.2,5.32,2.48,2.96,2.07,4.8,3.6.2.16-.2,1.02,0,1.2.49.45.77.77,1.2,1.2.2.2.98-.2,1.2,0,1,.89,2.48,1.56,3.6,2.4.45.33.79.82,1.2,1.2.33-.04.9-.08,1.2,0,4.6,1.24,1.44,1.54,2.4,2.4.2.18-.2,1.02,0,1.2.4.02.8,0,1.2,0,3.48.05,2.23-2.38,2.4-2.4l-1.2-.6.6-.6.6.6v.6c.76-.1,1.62,0,2.4,0v-2.4c-.4-.37-.9-.75-1.2-1.2-.24-.36-.88-.66-1.2-1.2-.18-.3.18-.92,0-1.2-.97-.91-1.37-.76-2.4-2.4-.15-.25.12-.79,0-1.2-.22-.26-.66-.56-1.2-1.2-.2-.23.2-.97,0-1.2-.46-.34-.82-.78-1.2-1.2-.38-.42-.82-.79-1.2-1.2-.38-.41-.81-.79-1.2-1.2-.89-.79-1.85-1.13-2.4-2.4-.4-.4-.79-.81-1.2-1.2-.4-.13-.95.16-1.2,0-.94-.61-1.13-1.16-1.2-1.2-.26-.19-.94.19-1.2,0-.49-.36-.83-.95-1.2-1.2-.45-.3-.75-.9-1.2-1.2-.45-.31-.76-.87-1.2-1.2-.44-.33-.79-.82-1.2-1.2-.42-.38-.81-.8-1.2-1.2-.4-.4-.81-.79-1.2-1.2-.39-.41-.81-.79-1.2-1.2-.39-.41-.83-.77-1.2-1.2-.36-.42-.88-.73-1.2-1.2-.32-.15-.84.13-1.2,0-.49-.18-.9-1.12-1.2-1.2-.31-.17-.87.16-1.2,0-.89-.44-1.12-1.17-1.2-1.2-.39-.05-.8.03-1.2,0-.39-.03-.8,0-1.2,0-.52,0-2.32,1.06-3.6,1.2-.38.04-.81,0-1.2,0-.38,0-.89.1-1.2,0-.11.79-1.48,6.03-1.79,5.99l-.61-7.19,1.2-1.2c.37-.41.72-.91,1.2-1.2v-1.2c-.34-.15-.86.14-1.2,0-.34-.14-.84.13-1.2,0-.92-.33-1.12-1.17-1.2-1.2-.28-.18-.91.18-1.2,0-.78-.49-1.12-1.16-1.2-1.2-.39-.06-.8.04-1.2,0-.39-.04-.8.03-1.2,0-.4-.03-.81.05-1.2,0-.94-.11-3.16,4.17-3.6-1.2-.03-.4.02-.8,0-1.2h-3.6c-.37,1.9-.1,5.05-1.2,6h-2.4c-1.22-.51-1.07-2.35-1.2-2.4-.7-.26-1.83-2.25-2.4-2.4-.62-.16-1.62.05-2.4,0-4.63-.3-13.78,6.09-17.6,6.95-1.38.31-3.48-2.23-5.2-2.15-.4.02-.8-.03-1.2,0-.43.03-.96-.11-1.2,0-.08.04-.81.85-1.2,1.2-.2.18.2,1.05,0,1.2-.17.13-.78,1.9-2.4,3.6-.39.41-.2,1.43-1.2,1.2-1.26,3.1-4.3.06-1.2-1.2.36-.11.99.17,1.2,0,.32-.44.91-.76,1.2-1.2.49-.73.76-1.64,1.2-2.4-.48-.32-.82-.77-1.2-1.2-.57-.65-2.24-2.99-2.4-3.6-.27.19-.93-.19-1.2,0-.32.47-.83.78-1.2,1.2-.39.31-.89.81-1.2,1.2-.35.43-1.02.84-1.2,1.2-.14.3.12.81,0,1.2-.1.34.06.8,0,1.2.3-.16.85.15,1.2,0l1.2-1.2c.43-.35.75-.9,1.2-1.2.35-.24.21-1.48,1.2-1.2l1.2,1.2c.3.99-1.03.88-1.2,1.2-.21.39-.84.78-1.2,1.2-.34.39-.79.9-1.2,1.2-.41.3-.71.95-1.2,1.2-.12.34.1.81,0,1.2-.09.37.07.81,0,1.2.47.27.81.99,1.2,1.2.32.17.94.85,1.2,1.2.54.72,3.48-2.29,1.2,4.8.41.83.76,1.25,1.2,2.4.13.34-.1.83,0,1.2h-1.2v-1.2l-2.39-1.19-1.19,4.78c.35-3.26-2.39-7.41-2.49-10.12-.04-1.12,2.46-.54,2.47-.67.03-.4-.05-.81,0-1.2-.76-.09-.94-.58-1.2-1.2-.13-.3.09-.79,0-1.2-.76-.09-.94-.58-1.2-1.2-.12-.28.05-.77,0-1.2-.04-.36-.05-.84,0-1.2-.31.17-.89-.16-1.2,0-1.01.52-.77.62-1.2,1.2l1.2,1.2v1.2c-.08.38.11.84,0,1.2-.42,1.38-1.47,1.65-2.4,2.4-.43.35-.76.86-1.2,1.2v1.2c-.39.4-.75.86-1.2,1.2-.22.17-.56.72-1.2,1.2-.12.36.13.84,0,1.2-.14.38.16.92,0,1.2-.24.43-.9.77-1.2,1.2-1.25,1.82.29,4.66-4.8,2.4l-1.2-1.2c.21-.49,1.14-.94,1.2-1.2.12-.75-.18-1.75,0-2.4.18-.66.46-1.12,1.2-1.2.12-.41-.16-.99,0-1.2.38-.5.11-.76,1.2-1.2.14-.72-.07-1.62,0-2.4.04-.39,0-.8,0-1.2,0-.4,0-.8,0-1.2-3.9,2.5-3.43.95-4.8-2.4-.14-.33.12-.83,0-1.2-.61-.52-.67-.53-1.2-1.2-1.79.51-2.63.02-3.6,2.4-.27.82-.91,1.57-1.2,2.4-.19.53,1.66,5.63-5.42,7.19-2.98.66-1.31-1.74-1.78-2.39-.37-.51-1.05-1.82-1.2-2.4-.1-.37.08-.82,0-1.2-.08-.38.05-.81,0-1.2-.09-.77,0-1.62,0-2.4,0-.79-.05-1.61,0-2.4.02-.4-.04-.8,0-1.2.04-.4-.05-.81,0-1.2-.23-1.25-.54-2.5-1.2-3.6l-6.01-1.19c1.21,2.54,2.06,2.62-1.19,2.39v1.2c1.1.52,2.76,2.54,3.6,3.6.53.67,2.51.95,2.4,2.39-.01.2-2.29-.15-2.4.01-5.13,7.35-2.66,1.45-6-2.4-.36-.41-.92-.76-1.2-1.2-.28-.44-.98-.78-1.2-1.2-.22-.43-.99-.77-1.2-1.2-.16-.34-1.07-.71-1.2-1.2-.26-.19-.89.18-1.2,0-.59-.34-.93-1.05-1.2-1.2-.64-.35-.99-1.65-1.2-2.4-.35-.09-.82.02-1.2,0l-3.6,1.19c.83-3.12,2.24-1.25,3.6-1.19v-1.2l-1.2-.6.6-.6.6.6v.6l1.2,1.2c1.19.32,2.31,1.12,3.6,1.2.05-.82,1.28-2.41,1.2-3.6-1.29-.78-.96-.94-1.2-1.2h-2.4c-.4,0-.81-.03-1.2,0-.78.06-1.72-.15-2.4,0-.23.56.06,1.35-1.2,1.2-1.33.2-1.13-1.15-1.2-1.2-.15-.11.09-.81,0-1.2-.4.02-.8,0-1.2,0-.1.68-.96,1.62-1.2,2.4.16.2,4.62-.8,1.2,2.4v1.2c-.53,2.47-.86.28-1.2,0-.2-.17.19-.96,0-1.2-.6-.73-.9-1.51-1.2-2.4-.13-.38-1.16-.86-1.2-1.2-.39.03-.81.02-1.2,0-.37-.02-.96-1.19-1.2-1.2-.4-.03-.8.03-1.2,0-.4-.03-.8.03-1.2,0-.38-.03-.95-1.18-1.2-1.2-.4-.02-.8.03-1.2,0-.39-.03-.8,0-1.2,0-.39,0-.81-.04-1.2,0-.39.04-.82-.08-1.2,0-.38.08-.81-.06-1.2,0,.06.39-.08.82,0,1.2.5.26.82.96,1.2,1.2.44.28.77.86,1.2,1.2.43.34.81.81,1.2,1.2.4.4.8.8,1.2,1.2l2.4,2.4v1.2l1.19,2.39-2.39-1.19c-.2-.2.2-.98,0-1.2-.2-.22.2-.98,0-1.2-.37-.42-.84-.76-1.2-1.2-.58-.71-1.55-1.19-2.4-2.4-.4-.56-1.6-.84-2.4-2.4-.2-.2-1,.2-1.2,0l-1.2-1.2c-.36-.11-.82.09-1.2,0-.41-.1-.89.13-1.2,0-.62-.26-1.11-.44-1.2-1.2-.39-.04-.8.02-1.2,0-.4-.02-.8.01-1.2,0s-.8,0-1.2,0v1.2c.63.43.73.19,1.2,1.2.15.32-.11.84,0,1.2.03.08.83.23,1.2,1.2.28.74-.16,2.51,0,3.6.06.39-.02.8,0,1.2.76.09.97.56,1.2,1.2.1.28-.03.78,0,1.2.05.77.42,2.43-.6,2.41-1.25.17-.24-1.86-.6-2.41-.29-.44-1.03-.81-1.2-1.2-.14-.33.12-.83,0-1.2-.12-.36.11-.83,0-1.2-.02-.08-.96-.05-1.2-1.2-.15-.72.1-1.63,0-2.4-.05-.39.01-.8,0-1.2-.04-.07-.71-.46-1.2-1.2-.14-.21.09-.77,0-1.2-.26-.17-.84.15-1.2,0-.62-.26-1.11-.44-1.2-1.2-.4,0-.8,0-1.2,0-.8,0-1.6,0-2.4,0-.8,0-1.6,0-2.4,0-.4,0-.8,0-1.2,0-.4,0-.8,0-1.2,0-.4,0-.8,0-1.2,0s-.8,0-1.2,0c-.4,0-.8,0-1.2,0-.4,0-.8,0-1.2,0-1.2.03-2.41-.06-3.6,0-.27.43-.71,1.09-1.2,1.2-.37.08-.81-.04-1.2,0-.4.04-.81-.06-1.2,0-.39.06-.81-.05-1.2,0-.27.44-.71,1.09-1.2,1.2v1.2h1.2c2.39.52.53.66,0,1.2-.3.3-.31.9-1.2,1.2-.33.11-.8-.08-1.2,0,.11.88-.32,1.32-1.2,1.2-.88-.12-1.32-.17-1.2-1.2-.39.04-.8-.02-1.2,0v2.4c.82,1.15,1.47,2.55,2.4,3.6.43.49,1.96.7,2.4,1.2,1.19,1.34,4.25,1.84,3.59,4.79-2.96.72-3.48-2.55-4.79-3.59-.43-.35-.76-.88-1.2-1.2-2.5-1.83-3.36-3.65-7.2-4.8-.36-.11-.82.08-1.2,0-.19.47-.83.83-1.2,1.2s-.71.95-1.2,1.2c-.31.15-.85-.11-1.2,0-.39.41-.8.8-1.2,1.2-.08.23-.9,1-1.2,1.2-.25.17-.85-.12-1.2,0v.62h-1.2v-3.02h-1.2c-.16.32.16.88,0,1.2-.16.31.15.85,0,1.2-.22.53-.97.84-1.2,1.2-.25.4-.81.89-1.2,1.2-.23.19-.88-.17-1.2,0-.43.23-.81,1.06-1.2,1.2-.35.12-.83-.09-1.2,0-.4.39-.77.83-1.2,1.2-.39.34-.79,1.07-1.2,1.2-.37.11-.84-.12-1.2,0-.27.46-.69,1.04-1.2,1.2-.33.1-.79-.05-1.2,0-.05.39.04.8,0,1.2v1.2c.92,1.25,3.26.69,4.8,4.8h1.2c1.59-.35,1.7.56,2.4,1.2.4-.02.8.02,1.2,0,.19-.25-.35-1.03,1.2-1.2.89-.1,1.31.31,1.2,1.2.8.02,1.6-.02,2.4,0,.71.02,3.57-2.03,5.99.02.31,2.1-2.25.99-3.59,1.18-.77.11-1.62-.07-2.4,0-1.42.67-1.06,1.22-3.6,1.2-.36,0-.87.1-1.2,0-.92-.27-1.03-1.11-1.2-1.2h-1.2v1.2c2.34.65.42.74,0,1.2-.18.19-1.05-.2-1.2,0-.34.45-.85.77-1.2,1.2-.28.34.58,1.18-1.2,2.4-1.24.85-.51,2.79-1.2,0-.09-.37.04-.81,0-1.2h-2.4c-.26.46-.69,1.07-1.2,1.2-.36.09-.81-.03-1.2,0-1.18.1-2.41-.04-3.6,0-.4.01-.8,0-1.2,0-.4,0-.8,0-1.2,0-.15.08-1.6,1.73-2.4,2.4-.42.35-.81.8-1.2,1.2-.73.75-1.86,1.77-2.4,2.4-3.75,4.38-2.2,3.41-4.22,8.39-3.14.9-1.24-3.15-1.78-3.59h-2.4c-.4,0-.8,0-1.2,0-.39,0-.81-.05-1.2,0-.77.1-1.66-.14-2.4,0-1.14.21-3.26.85-4.8,1.2.2-.17-.19-.91,0-1.2h-2.4c-.03.39.06.82,0,1.2.49-.23,1.71.15,2.22.07-.48.23-1.27.92-2.22,1.13-.34.08-.81,1.11-1.2,1.2-.08.4.11.87,0,1.2-.22.64-.46,1.09-1.2,1.2h-1.2c-.25.5-1.04.86-1.2,1.2,0,.38.07.84,0,1.2-.08.4.12.87,0,1.2-.35,1.01-1.7,2.55-2.4,3.6-.48.71-.71,1.8-1.2,2.4-.42.51-.93.86-1.2,1.2-.71,2.33.06,3.29,0,3.6-.34,1.62-.9,3.17-1.22,4.79l-1.18-3.59c-.37.1-.82-.08-1.2,0-.38.08-.81-.06-1.2,0-.22.52-.95.83-1.2,1.2-.36.52-.95.84-1.2,1.2-.7,1.01-1.67,2.98-2.4,3.6-.73.62-.76,1.49-2.4,2.4.06.78-.11,1.63,0,2.4.39,2.72,10.81,2.86-3.6,6-.38.08-.82-.08-1.2,0-.38.08-.82-.09-1.2,0-1.55,1.04-4.39,4.39-5.42,4.79-2.65,1.02-1.64-2.43-1.78-2.39-.36.12-.84-.12-1.2,0-.09.06-.29.6-1.2,1.2-.32.11-.73,1.05-1.2,1.2-.36.12-.83-.1-1.2,0s-.83-.1-1.2,0c-.4.28-.73.85-1.2,1.2-.26.19-.95-.19-1.2,0-.28.52-.74.85-1.2,1.2-1.24.95-1.83,1.52-3.6,1.2-.42.37-.78.83-1.2,1.2-.42.37-.78.82-1.2,1.2-.35.43-.88.77-1.2,1.2-.32.43-.81.81-1.2,1.2-.4.4-.8.8-1.2,1.2-.4.4-.79.81-1.2,1.2-.2.24.19.94,0,1.2-.37.43-.8.8-1.2,1.2-.4.4-.79.81-1.2,1.2-.18.29.17.9,0,1.2-.37.43-.8.8-1.2,1.2-.4.4-.79.81-1.2,1.2-.15.33.15.86,0,1.2-.37.43-.8.8-1.2,1.2-.4.4-.79.81-1.2,1.2-.09.37.05.81,0,1.2-.04.38-.02.81,0,1.2.05,1.28.88,1.72,1.2,2.4.98-1.74,2.41-3.16,3.6-4.8.08-.11-1.12.17,1.2-2.4.45-.5,1.96-.7,2.4-1.2.19-.27-.19-.93,0-1.2.32-.46.88-.77,1.2-1.2,1.01-1.38,2.7-4.6,4.77-4.21-1.77,1.65-3.12,3.68-4.77,5.41-.39.41-.83.78-1.2,1.2-.19.27.19.93,0,1.2-.9,1.31-2.02,1.87-2.4,2.4-.5.69-.69,1.73-1.2,2.4-.34.44-.86.76-1.2,1.2-.34.44-.84.78-1.2,1.2-.2.23.2.98,0,1.2-3.23,3.54.2,2.36-6,4.8-.82.32-1.58.85-2.4,1.2-.15.33.15.87,0,1.2-.15.33.15.87,0,1.2-.25.53-1.07.9-1.2,1.2-.18.42-1.03.79-1.2,1.2-.15.34.15.86,0,1.2-.22.5-1.06.86-1.2,1.2-.17.3.16.88,0,1.2-.16.31.15.87,0,1.2-.24.52-.87.79-1.2,1.2-.35.45-.75.85-1.2,1.2-.14.35.13.85,0,1.2-.13.35.13.85,0,1.2-.18.48-1.08.87-1.2,1.2-.12.36.11.83,0,1.2-.11.37.11.83,0,1.2-.13.46-1.12.9-1.2,1.2-.12.36.12.84,0,1.2-.12.36.11.84,0,1.2-.15.47-1.1.89-1.2,1.2-.11.36.08.82,0,1.2-.08.38.08.82,0,1.2-.09.41.13.9,0,1.2-.26.62-.44,1.11-1.2,1.2-.08.38.08.82,0,1.2-.09.41.13.9,0,1.2-.26.62-.44,1.11-1.2,1.2-.04.4.03.8,0,1.2-.03.4.03.8,0,1.2-.03.4.04.81,0,1.2-.04.39.06.81,0,1.2-.2,1.21.6,3.12-1.2,3.6-.02.4.03.8,0,1.2-.03.4.04.8,0,1.2-.04.4.05.81,0,1.2-.05.39.08.82,0,1.2-.09.41.13.9,0,1.2-.26.62-.44,1.11-1.2,1.2-.02.4.03.8,0,1.2-.03.4.04.8,0,1.2-.08.77.14,1.66,0,2.4-.08.4.11.87,0,1.2-.22.65-.45,1.1-1.2,1.2,0,.4,0,.8,0,1.2s0,.8,0,1.2c0,.4,0,.8,0,1.2-.02,1.2.01,2.4,0,3.6,0,.4,0,.8,0,1.2-.01,1.2.02,2.4,0,3.6-.03,1.6.03,3.2,0,4.8,0,.4,0,.8,0,1.2,0,.4,0,.8,0,1.2v2.4c1.04.35.79.29,1.2,1.2.22.5-.15,1.68,0,2.4.92-1.43,6.29-12.15,7.17-9.03.13.45-3.37,8.19,2.43,7.83.04-.79-.08-1.62,0-2.4.16-1.57.91-3.21,1.2-4.8,1.35-7.38,3.67-14.28,4.8-21.6-.52.7-.77,1.64-1.2,2.4-4.82.87-4.77-2.69-4.8-6-.02-2.82,2.02-3.72,2.4-4.8.13-.37-.14-.88,0-1.2.15-.34-.17-.9,0-1.2.27-.49.89-.78,1.2-1.2.45-1.09.83-2.45,1.2-3.6.12-.36-.13-.85,0-1.2.4-1.12.79-2.73,1.2-3.6.38-.81.8-1.6,1.2-2.4.23-.45.99-.79,1.2-1.2.06-.38,0-.81,0-1.2v-2.4c-.39,0-.82-.05-1.2,0-.19.55-1,.86-1.2,1.2-.05.39.1.84,0,1.2-.1.37.12.84,0,1.2-.23.69-.08,1.35-1.2,1.2-.09.41.13.9,0,1.2-.26.62-.44,1.11-1.2,1.2-.04.41.1.88,0,1.2-.16.51-.74.93-1.2,1.2-.03.38.1.85,0,1.2-.1.38.12.85,0,1.2-.13.38.15.91,0,1.2-.52,1.01-.62.77-1.2,1.2-.12.4.15.93,0,1.2-.27.49-.78.84-1.2,1.2l-1.2,1.2-1.2-1.2v-1.2c-.03-.4.04-.81,0-1.2-.04-.38-.02-.81,0-1.2.02-.39-.07-.83,0-1.2.08-.4-.11-.87,0-1.2.22-.64.46-1.09,1.2-1.2.06-.39-.07-.82,0-1.2.07-.39-.1-.83,0-1.2.11-.4-.14-.89,0-1.2.45-1.02.57-.78,1.2-1.2.02-.4-.03-.8,0-1.2.03-.4-.05-.81,0-1.2.05-.39-.07-.82,0-1.2.08-.4-.11-.87,0-1.2.22-.64.46-1.09,1.2-1.2.09-.38-.1-.83,0-1.2.12-.45,1.1-.88,1.2-1.2.11-.37-.13-.85,0-1.2.13-.35-.12-.84,0-1.2.16-.47,1.07-.86,1.2-1.2.15-.34-.16-.89,0-1.2.17-.32-.18-.91,0-1.2.35-.56.92-.83,1.2-1.2.16-.32-.15-.87,0-1.2.24-.52.87-.79,1.2-1.2.35-.45.75-.85,1.2-1.2.17-.31-.18-.93,0-1.2.33-.5.94-.81,1.2-1.2.29-.43.83-.81,1.2-1.2.86-.91.84-1.58,2.4-2.4.3-.16.85.12,1.2,0,.51-.88.47-.71,1.2-1.2.14-.37-.15-.9,0-1.2.26-.51.82-.8,1.2-1.2.38-.4.7-.93,1.2-1.2.1-.36-.14-.87,0-1.2.21-.49.91-.78,1.2-1.2.15-.37-.17-.95,0-1.2.94-1.39,1.79-1.68,2.4-2.4.36-.43.82-.78,1.2-1.2.38-.42.81-.79,1.2-1.2,1.64-1.74,3.1-3.15,4.8-4.8.41-.39.78-.82,1.2-1.2.8-.73,1.53-1.61,2.4-2.4.19-.27-.19-.95,0-1.2.34-.44.88-.77,1.2-1.2.26-.36,4.57-4.8,2.4-1.2-.36.43-.82.78-1.2,1.2-.15.35.17.93,0,1.2-.29.46-.86.77-1.2,1.2-.35.44-.84.77-1.2,1.2-.8.94-1.58,1.56-2.4,2.4-.76.79-1.15,2.03-2.4,2.4-.19.27.19.93,0,1.2-.79,1.11-1.53,2.38-2.4,3.6-.32.45-.88.76-1.2,1.2-.13.35.13.85,0,1.2-.13.35.14.86,0,1.2-.2.49-1.07.86-1.2,1.2-.2.23.2.99,0,1.2-.45.47-.72.75-1.2,1.2-.12.36.12.84,0,1.2-.15.47-1.1.88-1.2,1.2-.17.31.18.92,0,1.2-.51.79-.41.69-1.2,1.2-.12.36.11.83,0,1.2.39-.05.81.07,1.2,0,1.76-.3,1.25-4.06,1.2,1.2l1.2.6-.6.6-.6-.6v-.6c-.36.11-.98-.17-1.2,0-.09.76-.58.94-1.2,1.2-.17.7.16,1.68,0,2.4-.08.39.11.85,0,1.2-.16.49-.91.81-1.2,1.2-.34.46-.76.84-1.2,1.2-.12.35.16.89,0,1.2-.26.52-.94.82-1.2,1.2-.31.45-.9.75-1.2,1.2v1.2c-.1.36.14.87,0,1.2-.21.49-1.03.84-1.2,1.2-.22.45-.99.79-1.2,1.2-.17.32.17.91,0,1.2-.17.3.18.91,0,1.2-.32.52-1.01.86-1.2,1.2-.25.44-.99.79-1.2,1.2-.06.39.06.81,0,1.2-.1.69-1.13,1.71-1.2,2.4-.04.4.03.8,0,1.2-.02.2.31.41,0,2.4-.06.39.09.82,0,1.2-.03.14.54.65,0,2.4-.21.67.23,1.82,0,2.4-.28.7-1.1,1-1.2,1.2-.17.33.18.92,0,1.2,8.09,2.3,5.47-11.42,6-11.99.36-.39,4.44.38,4.81-.01.56-.6-1.21-3.94,0-6,.17-.3-.18-.9,0-1.2.27-.45.93-.77,1.2-1.2.27-.45.92-.76,1.2-1.2.84-1.34,3.4-4.17,4.8-6,.77-1.01.82-4.46,3.59-4.8l-2.39,4.8c-2.02,4.38-3.96,8.83-6,13.2-1.31,2.8-.66,8.28-4.8,10.8l-1.2,1.2c-3.79,9.61-8.33,22.53-10.8,32.4-.32,1.26.17,3.31,0,4.8-.06.49-.72.99-1.2,1.2.04,1.2-.06,2.41,0,3.6.04.8-.03,1.6,0,2.4.12,3.05,1.96,6.65-1.2,9.6.02.4-.01.8,0,1.2.46.26,1.07.69,1.2,1.2.09.36-.04.81,0,1.2.12,1.18-.15,2.43,0,3.6.25,1.93,1,4.02,1.2,6,.12,1.18-.1,2.42,0,3.6.07.79-.05,1.61,0,2.4.05.8,1.47,2.33,1.2,3.6h-1.2c-.19-.15.17-.85,0-1.2-.1-.2-1.03-.51-1.2-1.2-.06-.39.08-.82,0-1.2-.15-.73.1-1.63,0-2.4-.76-.09-.94-.58-1.2-1.2-.12-.3.08-.78,0-1.2-.08-.38.05-.81,0-1.2-.05-.39.03-.8,0-1.2-.03-.4.02-.8,0-1.2-.04-.8.03-1.6,0-2.4-.02-.4.01-.8,0-1.2-1.53-.72-1.11-2.26-1.2-3.6-.08-1.19.02-2.41,0-3.6,0-.4-.01-.8,0-1.2-2.62-1.9-5.45-3.45-8.4-4.8-1.18.57-2.47,2.03-3.6,2.4-.05.39.06.81,0,1.2.46.27,1.04.69,1.2,1.2.1.32-.04.79,0,1.2.04.39-.02.8,0,1.2.04.74.11,1.7,0,2.4-.06.4.11.86,0,1.2-.12.39.14.89,0,1.2-.38.84-.78.82-1.2,1.2-.15.36.17.94,0,1.2l-1.2,1.2c-.16.32.16.88,0,1.2-.45.9-1.11,1.05-1.2,1.2v1.2c.34-.12.81.1,1.2,0,.26-.06,1.53-3.06,2.39-2.4-.92,1.8.02,3.53.01,4.8,0,.4.01.8,0,1.2,0,.31-1.19.92-1.2,1.2-.02.4.03.8,0,1.2-.03.4.06.81,0,1.2-.06.39.08.82,0,1.2-.08.38.1.83,0,1.2-.1.37.12.84,0,1.2-.21.65.23,1.81,0,2.4-.3.77-1.08,1-1.2,1.2-.18.31.19.96,0,1.2-.36.45-.73.86-1.2,1.2v2.4c.94.2,1,.37,1.2,1.2.08.34.01.84,0,1.2-.04,1.17-1.19,1.12-1.2,1.2-.07.77.15,1.7,0,2.4-.15.73.12,1.64,0,2.4-.07.48-.74.97-1.2,1.2,0,.38.08.84,0,1.2-.09.4.11.86,0,1.2-.22.64-.46,1.09-1.2,1.2,0,.4,0,.8,0,1.2,0,.4,0,.8,0,1.2,0,.8,0,1.6,0,2.4,0,.4,0,.8,0,1.2,0,1.2,0,2.4,0,3.6,0,.4,0,.8,0,1.2,0,.4,0,.8,0,1.2,0,.28,2.22,1.38-1.2,2.4-.09.41.12.88,0,1.2-.18.48-1.11.9-1.2,1.2.06.37,0,.81,0,1.2,0,.38.07.84,0,1.2-.2.95.24,2.11-1.2,2.4-.06.39.04.8,0,1.2-.04.39.01.8,0,1.2-.01.4.02.8,0,1.2-.03.79.07,1.61,0,2.4-.03.39.07.82,0,1.2-.09.48-.76.94-1.2,1.2-.02.4.03.8,0,1.2s.05.81,0,1.2c-.05.39.08.82,0,1.2-.09.41.13.9,0,1.2-.26.62-.44,1.11-1.2,1.2-.06.39.07.81,0,1.2-.07.39.09.83,0,1.2-.18.72.22,1.86,0,2.4-.47,1.14.24,1.06-1.2,2.4-.04.4.05.81,0,1.2-.05.39.06.81,0,1.2-.06.39.07.81,0,1.2-.33,1.84.6,4.65-.19,6.39-1.16,2.56-3.07,1.69-3.41,2.01-.03.4.04.8,0,1.2-.42,4.2,1.32,8.16-3.6,13.2,0,.4,0,.8,0,1.2s0,.8,0,1.2c0,.4.02.8,0,1.2-.02.4.03.8,0,1.2-.03.4.03.8,0,1.2-.06.79.07,1.61,0,2.4-.11,1.17.17,2.45,0,3.6-.06.39.06.81,0,1.2-.13.76.18,1.75,0,2.4,12.21-1.8,3.62-13.62,12.54-18.05,9.04-4.49,4.15,1.57,3.06,4.85-.25.75-.78,1.71-1.2,2.4-.18.29.18.91,0,1.2-.37.59.15.65-1.2,1.2.04.8-.04,1.6,0,2.4.62,12.41.01,2.75-4.07,3.67-1.57.35-2.24,2.72-3.13,3.53-.31,1.74.44,4.55,0,6-.54,1.76-2.34,1.08-2.4,1.2-.16.34.17.92,0,1.2-1.05,1.75-1.36,3.94-3.6,4.8-.01.4.02.8,0,1.2-.04.78.12,1.66,0,2.4-.08.5-.74.97-1.2,1.2v3.6c.62.29,2.1,1.7,2.4,2.4.33.77.05,2.55-1.2,2.4v1.2c0,.4.01.8,0,1.2.63.4.8.57,1.2,1.2.17.26-.14.82,0,1.2,1.12.42.73.43,1.2,1.2.16.27-.14.82,0,1.2.12.32-.08.79,0,1.2.08.37-.03.81,0,1.2.77.5.87,2.07,1.2,2.4.24.23,2.09-.68,2.52.77.39,1.33-1.34,2.68-1.32,2.83.05.39-.02.8,0,1.2.02.39.03.81,0,1.2-.03.39.09.84,0,1.2.76.09.94.58,1.2,1.2.13.3-.09.79,0,1.2.08.38-.05.81,0,1.2.05.39-.04.8,0,1.2.04.4-.02.8,0,1.2,4.05,3.29,2.56,12.86,2.4,18-.02.79.09,1.62,0,2.4,1.1.44,1.11,1.42,1.2,2.4.15,1.74.18,4.29,0,6-.05.49-.72,1-1.2,1.2.12.34-.09.81,0,1.2,1.09,4.72.67,6.76,1.2,10.8.05.39-.05.81,0,1.2.05.39-.06.81,0,1.2,2.98,1.83,5.2,4.39,7.2,7.2.5.71.73,1.66,1.2,2.4.28.44.92.75,1.2,1.2,1.03,1.64,3.98,7.64,4.8,9.6.12.29.99.67,1.2,1.2.14.35-.13.85,0,1.2,1.48,3.9,1.24,4.4,0,8.39,6.71,1.8,10.01-3.54,15.57-5.4-2.31,2.37-3.98,5.19-5.97,7.81-.33.43-.81.81-1.2,1.2v2.4c.71-.47,1.62-.82,2.4-1.2.81-.4,1.57-.81,2.4-1.2.81-.38,1.55-.83,2.4-1.2l1.2-1.2,2.4-2.4c.18-.28-.19-.94,0-1.2,1.15-1.61,2.34-3.28,3.6-4.8-3.46-5.81,1.18-5.96,2.4-7.2.39-.4.78-.83,1.2-1.2.08-.4-.12-.87,0-1.2.4-1.12,1.77-2.42,2.4-3.6,1.1-2.08,3.34-4.26,3.6-4.8.39-.81.83-1.61,1.2-2.4.15-.33-.16-.88,0-1.2.39-.8.84-1.61,1.2-2.4.25-.55-.24-1.81,0-2.4.28-.7,1.15-1.06,1.2-1.2.35-.92.84-1.6,1.2-2.4.25-.56-.24-1.82,0-2.4.25-.59.47-1.12,1.2-1.2-.14-.62-.03-1.68,0-2.4.02-.38-.1-.86,0-1.2.42-1.51.29-3.25,2.39-3.6.78,1.75-1.18,3.14-1.19,3.6,0,.4.02.8,0,1.2-.04.78.11,1.64,0,2.4-.06.39.03.8,0,1.2-.03.39.08.83,0,1.2-.11.49-.77.93-1.2,1.2.03.4-.04.8,0,1.2.13,1.49.1,3.29,0,4.8-.01.18,1.35.9.76,3.59-.47,2.12-2.65,2.79-3.16,3.61-.46.74-.81,1.61-1.2,2.4-.35.72-.24,1.84-1.2,2.4,0,.77.12,1.67,0,2.4-.26,1.61-1.18,1.12-1.2,1.2-.23,1.03-.99,1.75-1.2,2.4-.38,1.2-.86,2.42-1.2,3.6-1.34,4.67-3.51,5.66-3.6,6-2.56,9.13,2.84,7.61,2.38,10.17-.13.71-7.3,8.82-8.85,11.37-2.27,3.72,5.17,3.95-6.74,9.66v1.2c-.64,2.05-5.21,4.13-7.2,4.8-.99,2.22-4.76,9.06-4.8,9.6h1.2c2.8-2.94,3.04-.6,1.2,2.4-.25.4-.81.88-1.2,1.2-1.23,1-1.87,1.49-3.6,1.2v1.2c-.24.5-.98.82-1.2,1.2-.89,1.57-1.88,2.87-3.6,3.6-.1.34.04.81,0,1.2-.08.79.05,1.61,0,2.4,1.53.28,1.33-.11,2.4,1.2.19.23-.17.87,0,1.2,5.32,10.09-3.96,8.53,1.2,15.6.39.05.83-.09,1.2,0,.37.09.81-.07,1.2,0,2.49.56.03,1.15,0,1.2-.28.57-.6.97-1.2,1.2,0,.39-.05.82,0,1.2.06.43-.12.96,0,1.2h2.4c1.26-1.61,1.47-.75,2.4-1.2.29-.14.8.11,1.2,0,.33-.09.83,0,1.2,0,.37,0,.85-.08,1.2,0,.38.09.81-.07,1.2,0v1.2c-.14.65-.63.98-1.2,1.2-.32.12-.8-.09-1.2,0-.36.08-.81-.03-1.2,0,0,.38.08.84,0,1.2-.09.43.15.98,0,1.2-.6.92-.75.79-1.2,1.2-.22.2-.92-.19-1.2,0-.25.17-.82-.14-1.2,0-.38.46-.79.79-1.2,1.2-.39.38-.7.94-1.2,1.2-.3.15-.83-.14-1.2,0-.34.13-.82-.11-1.2,0,.03.4-.04.8,0,1.2.07.74.29-.13,0,1.2-.16.72-.95,1.58-1.2,2.4-.11.36.08.82,0,1.2,1.2.46,2.62,2.13,3.6,2.4h6c.07-.77.55-.98,1.2-1.2.57-.19,1.63.11,2.4,0,.39-.06.8.04,1.2,0,.08-.04,0-.75,1.2-1.2.34-.13.82.11,1.2,0,.35-.1.81.06,1.2,0,.38-.06.81,0,1.2,0,.39,0,.82-.04,1.2,0,.39.04.83-.09,1.2,0,.24-.48.68-1.08,1.2-1.2.46-.1,2.08-.12,2.4,0,.64.25,1.37.09,1.2,1.2v1.2c-.23.44-1.21,1.04-1.2,1.2.03.42-1.11,1.63-1.2,2.4.74.14,1.73-.18,2.4,0,1.1.29,2.73-.51,3.6,1.2.39-.04.8,0,1.2,0,.37,0,2.42-2.01,4.18-1.22l.65,3.01-6.03,5.4c.4.03.8-.03,1.2,0,1.18.1,2.42-.11,3.6,0,8.96.84,18.15-1.02,25.2,7.2.39.05.8-.04,1.2,0,1.18.11,2.42-.13,3.6,0,.39.04.84-.09,1.2,0,.38.09.84-.12,1.2,0,1.36.44,1.24.34,2.4,1.2.4-.03.8.02,1.2,0,1.58-.06,3.22-.06,4.8,0,16.94-.85,4.3-24.47,6.03-27.57.88-1.58,10.66,1.95,11.7-3.02-5.22-6.35-3.74-8.02-3.33-15.01.02-.4-.06-.81,0-1.2.06-.39-.09-.83,0-1.2.18-.74.89-1.6,1.2-2.4.14-.36-.15-.89,0-1.2.76-1.56,1.61-1.6,2.4-2.4.38-.38.78-.91,1.2-1.2l-1.2-2.4c-.84-.28-1.58-.88-2.4-1.2h-1.2c-.44-.3-.8-.99-1.2-1.2-1.09-.55-3.1,1.35-2.4-2.39,1.01-.25,3.02.31,3.6,0,7.91-6.33-1.17-6.24,6-13.2-.36-.14-.89.16-1.2,0-1.57-.8-1.72-1.86-2.4-2.4-1.71-1.36-4.05-2.53-4.8-4.8-.11-.35.09-.81,0-1.2-2.28-.56-1.87-2.09-2.4-3.6-.12-.36.13-.85,0-1.2-.14-.35.13-.85,0-1.2-.46-.27-1.04-.69-1.2-1.2-.11-.37.12-.84,0-1.2-.1-.3-.95-.69-1.2-1.2-.15-.31.14-.84,0-1.2-.13-.35-1.13-.79-1.2-1.2-.06-.39.07-.81,0-1.2-.07-.39.08-.82,0-1.2-.46-.27-1.04-.69-1.2-1.2-.1-.32.04-.79,0-1.2-.47-.24-1.09-.69-1.2-1.2-.16-.72.11-1.64,0-2.4-.45-.25-1.09-.71-1.2-1.2-.16-.73.19-1.76,0-2.4-.03-.1-.98-.46-1.2-1.2-.2-.67.21-1.78,0-2.4-.46-.27-1.04-.69-1.2-1.2-.09-.3-.02-.86,0-1.2-.11-.31-1.01-.7-1.2-1.2-.22-.56.17-1.67,0-2.4-.46-.27-1.04-.69-1.2-1.2-.11-.37.13-.85,0-1.2-.13-.35.11-.84,0-1.2-.03-.1-.94-.48-1.2-1.2-.22-.61.21-1.76,0-2.4-.04-.12-.98-.47-1.2-1.2-.11-.37.11-.83,0-1.2-.29-.98-.86-1.35-1.2-3.6-.06-.38.01-.81,0-1.2-.46-.27-1.04-.69-1.2-1.2-.1-.33.05-.79,0-1.2-.33-.32-.61-.13-1.2-1.2-.15-.28.12-.81,0-1.2-.11-.36.12-.84,0-1.2-.75-.1-.96-.57-1.2-1.2-.12-.31.08-.78,0-1.2-.07-.38.04-.81,0-1.2-1.48-.26-.92-1.52-1.2-2.4-.11-.36.11-.83,0-1.2-.35-1.15-1-2.66-1.2-3.6-.34-1.6-.97-3.2-1.2-4.8-.95-.75-.9-2.04-1.2-2.4-.26-.31-2.65.11-3.4-1.87-.2-.53-1.25-9.82-1.4-11.33-.08-.79.06-1.61,0-2.4-.06-.79,0-1.61,0-2.4-2.97-1.54-.34-3.66,0-4.8.39-1.28,1.04-4.47,1.2-4.8.16-.32-.17-.9,0-1.2l2.4-1.2v1.2c-1.34,2.72.54,5.63,1.2,8.4.24,1-2.28.72,1.2,3.6v-10.8c0-.4,0-.8,0-1.2,0-.4,0-.8,0-1.2,0-.4,0-.8,0-1.2,0-.4-.02-.8,0-1.2.02-.4-.03-.8,0-1.2.03-.4-.04-.8,0-1.2.07-.78-.11-1.63,0-2.4,0-.06-.25-.07,0-1.2.08-.38-.1-.83,0-1.2.2-.75.83-1.65,1.2-2.4.94-1.93.71-3.91,3.6-4.8.03-.4-.03-.8,0-1.2.19-2.38-.67-3.68,0-7.2.14-.75-.21-1.89,0-2.4.26-.62.4-1.14,1.2-1.2v-1.2c.03-.4-.04-.8,0-1.2.04-.43-.12-.99,0-1.2.51-.88.47-.71,1.2-1.2.06-.39-.05-.81,0-1.2.05-.39-.07-.82,0-1.2.08-.4-.11-.87,0-1.2.22-.64.46-1.09,1.2-1.2.12-.77-.18-1.75,0-2.4.11-.4-.14-.91,0-1.2l1.2-1.2c.06-.39-.06-.81,0-1.2.06-.39-.08-.82,0-1.2.08-.39-.11-.86,0-1.2.12-.38-.14-.89,0-1.2.44-.94-.46-1.22,1.2-2.4,0-.4-.02-.8,0-1.2.02-.4-.04-.81,0-1.2.04-.39-.08-.83,0-1.2.11-.49.77-.93,1.2-1.2.12-.41-.16-.95,0-1.2.97-1.56,2.15-2.03,2.4-2.4.06-.36.02-.83,0-1.2-.95.1-1.2-.29-1.2-1.2s.25-1.3,1.2-1.2c-.1-.32.03-.79,0-1.2-.03-.38-.04-.83,0-1.2-.01-.14-1.19-.64-1.2-1.2-.02-1.78.51-3.17,2.39-3.6.7,1.61-1.21,3.14-1.19,3.6.02.38.04.82,0,1.2.02.26,1.16.82,1.2,1.2.04.4-.03.8,0,1.2.03.4-.02.8,0,1.2.02.4,0,.8,0,1.2,0,.4,0,.8,0,1.2.19-.23,2.27.27,2.4,0,.59-1.21-.21-8.29,0-10.81.01-1.26-1.03-2.59-1.2-3.6-.19-1.12.21-2.49,0-3.6-.14-.75-1.04-1.64-1.2-2.4-.08-.38.08-.81,0-1.2-.14-.74.12-1.64,0-2.4-.05-.33-1.17-.87-1.2-1.2-.04-.4.03-.8,0-1.2-.03-.4,0-.8,0-1.2-.41-.3-1.07-.73-1.2-1.2-.35-1.23-1.01-3.68-1.2-4.8-.07-.39.05-.81,0-1.2-.04-.39.03-.8,0-1.2-.03-.4.01-.8,0-1.2-.01-.4-.01-.8,0-1.2.02-.8-.05-1.6,0-2.4.2-3.44.67-4.42,1.2-7.2.07-.39,1.11-.86,1.2-1.2.18-.65-.13-1.64,0-2.4h-2.4c-2.24-.39,0-2.28,0-2.4-.06-.78-.03-1.62,0-2.4-.46-.26-1.06-.69-1.2-1.2-.1-.36.04-.81,0-1.2-.08-.78.03-1.61,0-2.4-.01-.4-.02-.8,0-1.2.05-1.09-.24-2.82,0-3.6-.2-.28-.9-.4-1.2-1.2-.38-1.02.26-3.41,0-4.8-.07-.39.06-.81,0-1.2-.12-.77.1-1.62,0-2.4-.1-.78.05-1.61,0-2.4-.05-.79,0-1.6,0-2.4-1.47-1.34-.73-1.26-1.2-2.4-.22-.54.17-1.67,0-2.4-.09-.37.05-.81,0-1.2-.09-.77.03-1.61,0-2.4-.01-.4-.02-.8,0-1.2.02-.4-.03-.8,0-1.2-1.1-.45-1.1-1.42-1.2-2.4-.12-1.16-.03-2.43,0-3.6.04-1.58-.17-3.24,0-4.8-3.68-11.34-3.32-19.78,1.29-30.53.25-.58,4.25-6.49,6-9.58,3.87-6.82,10.36-13.33,14.14-19.45,10.52-17.01,1.16-9.48,18.16-24.44.92-.81,1.92-2.02,2.4-2.4,3.54-2.77,8.8-9.56,9.66-10.14,1.81-1.23,11.44-2.65,11.79-3.2.93-1.43-.47-7.61.14-8.27,1.12-1.18,8.16,1.51,9.99,1.02,2.48-.66,3.03-4.81,5.3-5.63,3.17-1.15,6.96-.38,9.92-1.38.39-.13.79-1.06,1.2-1.2,1.89-.67,13.65-4.89,14.4-4.8.71.09,1.12.49,1.2,1.2v1.2c2.61,1.44,10.34-1.23,12.43-1.07,1.59.12,2.68,3.97,5.89,4.36,2.83.34,22.41-5.1,23.68-9.29.02-.76-.16-1.83,0-2.4-8.53-2.37-4.57-12.69-4.79-19.21,4.6-.75,1.27,6.21,2.94,9.72.71,1.48,3.49-.99,4.25,1.08.3.82-.23,2.55,0,3.6.24,1.06-.21,2.51,0,3.6.07.38-.07.81,0,1.2.07.39-.05.81,0,1.2.05.39-.03.8,0,1.2,1.21.26,2.56.48,3.6,1.2.48.33.86,1.02,1.2,1.2,6.42,3.31,5.61-2.07,10.2,3.57.62-1.29,3.88-2.96,4.2-3.57.17-.31-.16-.88,0-1.2.16-.33-1.84-5.42,1.8-7.17,2.73,6.17,5.64,7.14,10.2,10.77.46-.25,1.09-.69,1.2-1.2.08-.37-.03-.81,0-1.2.53-6.64,1.26-4.7,7.2-8.4,0-.4-.01-.8,0-1.2.02-.73-.09-1.17,0-2.4.03-.4-.02-.8,0-1.2v-1.2c-1.25-2.08-5.16-5.91-1.8-8.37,2.57,3.57.85,5.88,6.6,4.77h1.2l.6-1.2.6.6-.6.6h-.6v1.2c-3.35,4.58.8,8.58,1.2,12h1.2c7.33-5.54,9.97,2.13,16.2,4.83l7.79-7.23c-5.41,14.19,6.01,6.13,4.81,16.8.37.11.77.98,1.2,1.2.32.16.88-.16,1.2,0,4.19-5.43,4.48-.59,6,0,1.18.46,2.46.51,3.6,1.2,1.29-3.33,4.69-2.65,7.32-1.9,1.35.39,23.28,13.11,24.35,14.02,4.99,4.25,14.87,19.58,17.52,26.28.25.45-.22,1.74,0,2.4.42,1.28.88,1.71,1.2,3.6,8.11,3.6,5.86,5.25,10.8,9.6Z"/>
  <polygon class="b" points="352.2 356.8 352.2 356.2 351.6 355.6 351 356.2 352.2 356.8"/>
  <path class="b" d="M354.6,359.2v-1.2c-.21-.2-.97.2-1.2,0-.14.09.13,1.17,0,1.2.41,0,.96-.1,1.2,0Z"/>
  <path class="b" d="M321,516.4c3.36-1.95,5.65-4.63,6-4.8-.38.08-.82-.09-1.2,0-.08.02-.17.78-1.2,1.2-.34.14-.85-.13-1.2,0-.28.11-.78-.03-1.2,0-.35.14-.73.94-1.2,1.2-.07.04-.6.7-1.2,1.2v1.2c.29-.18.9.17,1.2,0Z"/>
  <path class="b" d="M331.8,356.8h-1.2v1.2h1.2c-.04-.39.1-.86,0-1.2Z"/>
  <path class="b" d="M375,415.6c.26-.45,1.09-.87,1.2-1.2.12-.35-.09-.82,0-1.2-.74.48-1.69.7-2.4,1.2-.32.22-.57,1.05-1.2,1.2v1.2h1.2c.32-.46,1-.82,1.2-1.2Z"/>
  <path class="b" d="M355.8,356.8c0-.91.25-1.3,1.2-1.2v-1.2c-.67.16-2.1,1.28-2.4,1.2v1.2c.29-.17.86.12,1.2,0Z"/>
  <path class="b" d="M363,344.8c-.59,1.02-.78.82-1.2,1.2-.22.2-.95-.19-1.2,0v2.4c.43-.05.93.12,1.2,0,.32-.14.7-.98,1.2-1.2l1.2-1.2c.27-1.05-.96-.9-1.2-1.2Z"/>
  <polygon class="b" points="372.57 346.6 367.81 344.81 369.62 348.39 372.57 346.6"/>
  <path class="b" d="M388.2,415.6c-.38,0-.83-.07-1.2,0,.05.39-.06.81,0,1.2h1.2c-.15-.37.18-1.01,0-1.2Z"/>
  <path class="b" d="M381,414.4v3.6c.35-.14.86.15,1.2,0,.03-.39-.01-.8,0-1.2.03-1.27,3.32-2.78-1.2-2.4Z"/>
  <path class="b" d="M418.2,408.4c-.14-.2.07-.77,0-1.2h-1.2c-.12.34.17.91,0,1.2-.23.4-.06,1.12-1.2,1.2-.29.15-.81-.12-1.2,0-.36.11-.85-.13-1.2,0-.63.23-1.86-.24-2.4,0-.86.48-1.44.84-2.4,1.2.02.8-.02,1.6,0,2.4.79-.05,1.61.05,2.4,0,.79-.05,1.61.07,2.4,0,.38-.04-1.53-3.36,6-2.4,0-.37-.09-.86,0-1.2-1.35.19-1.03-.95-1.2-1.2Z"/>
  <path class="b" d="M276.6,511.6c-.4.04-.8-.04-1.2,0-.4.04-.81-.06-1.2,0-.05,2,1.83,3.39,2.4,4.8.39.04.83-.08,1.2,0-.09-1.36-.07-1.75,1.2-2.4-.24-.67-1.27-1.93-1.2-2.4-.39.05-.8-.04-1.2,0Z"/>
  <path class="b" d="M372.6,404.8l3.6,2.4c-.12-.36.12-.84,0-1.2-.29-.83-.91-1.58-1.2-2.4-.65.14-1.64,0-2.4,0,.11.37-.11.83,0,1.2Z"/>
  <polygon class="b" points="388.2 410.8 388.2 409.6 384.6 408.4 383.4 408.4 383.4 410.8 384.6 410.8 385.8 410.8 387 410.8 388.2 410.8"/>
  <path class="b" d="M367.8,390.4c2.67,6.75,4.07,1.96,6,2.4,1.48.34.91.66,1.2,1.2.37-.09.85.13,1.2,0,.41-.15.86-1.12,1.2-1.2h1.2c.66-.14,1.64.01,2.4,0,.44,0,2.16-1.97,2.4,0v1.2c-.26,1.27-1.49.96-2.4,1.2-.36.1-.81-.05-1.2,0v1.2l3.6,2.4c4.08-2.09,3.38-3.48,3.6-3.6-2.51-.61.04-1.16,0-1.2-.18-.19.15-.83,0-1.2h-1.2l1.2-1.2c.69.11.94.64,1.2,1.2.39.04.8,0,1.2,0,.4,0,.81-.04,1.2,0,.3.03,1.13-.16,2.4,0,.82.1.62-1.88,2.4,0,.16.17-.1.82,0,1.2.64.24,1.1.45,1.2,1.2,2.03-.37,5.11-1.3,7.2-1.2.4.02.81-.04,1.2,0h2.4c.74.17,1.62.87,2.4,1.2.38.16.76.91,1.2,1.2.29.19.97-.19,1.2,0,.44.36.84.76,1.2,1.2,1.08.72,2.45.74,3.6,1.2.13-1.96,1.53-.63,2.4,0,.97.7,2.07,1.05,2.4,2.4.26.19.96-.2,1.2,0,1.51,1.22-.11,1.01,0,1.2.38.63,1.05,1.79,1.2,2.4.31-.12.79.09,1.2,0,2.49-.53,1.78,0,2.4,0,.39,0,.82-.06,1.2,0,.39.06.85-.1,1.2,0v-1.2c-.52-.63-.93-3.2-2.4-4.8-2.2-2.4-4.2-4.46-7.2-6-.08-.04-.35,1.6-1.2,1.2-4.17-1.96-9.67-1.07-10.8-6-1.07-.74-2.46-.73-3.6-1.2-2,1.44-4.63,1.13-6-1.2-.4-.03-.81.04-1.2,0-.4-.04-.81.05-1.2,0-.39-.05-.81.07-1.2,0-2.9-.51-.23.6-3.6-1.2-.4-.02-.8.01-1.2,0-.4-.01-.8.01-1.2,0h-2.4c-.4-.01-.8,0-1.2,0-.8-.02-1.6.03-2.4,0-.4-.01-.8.02-1.2,0-.54.74-.42.65-1.2,1.2-.22.16-.79-.12-1.2,0-.15,2.12-2.6.84-3.6,1.2-.35.13-.83-.11-1.2,0-.34.1-.8-.05-1.2,0-1.07,3.38-2.27,1.16-2.4,1.2-.37.1-.83-.11-1.2,0-.26.08-.68,1.06-1.2,1.2-.36.1-.81-.06-1.2,0,.02.42-.11.93,0,1.2Z"/>
  <path class="b" d="M282.6,576.4c-.62-.16-1.43-4.8-3.6,0,1.09.1,2.86-.26,3.6,0Z"/>
  <path class="b" d="M198.6,424c-.39.07-.81-.08-1.2,0v2.4c.37.09.81-.06,1.2,0,.31-.83.87-1.58,1.2-2.4-.39.07-.81-.07-1.2,0Z"/>
  <path class="b" d="M203.4,422.8c0-.54,1.04-1.66,1.2-2.4-.8,0-1.6,0-2.4,0-.38,0-.84.07-1.2,0l1.2,2.4c.36-.12.85.13,1.2,0Z"/>
  <path class="b" d="M243,392.8c.38.08.83-.1,1.2,0,.02-.75-1.63-1.92-1.2-2.4-1.58.58-.14,1.65,0,2.4Z"/>
  <path class="b" d="M210.6,420.4c-.72,1.24-1.64,2.38-2.4,3.6.38.08.83-.1,1.2,0,.35-.39.79-.9,1.2-1.2.38-.27.68-.88,1.2-1.2v-1.2c-.32.14-.82-.12-1.2,0Z"/>
  <path class="b" d="M325.8,572.8c.29.85-.2,2.53,0,3.6,1.53-.09,3.44.26,4.8,0l-2.4-3.6c-.76-.07-1.63-.05-2.4,0Z"/>
  <path class="b" d="M186.6,419.2c-.79.26-1.66,1.05-2.4,1.2v1.2c.04.4-.05.81,0,1.2h1.2c.27-.46.69-1.04,1.2-1.2-.15-.72.22-1.89,0-2.4Z"/>
  <path class="b" d="M183,415.6c-.35.14-.85-.13-1.2,0-.34.46-.8.8-1.2,1.2-.4.4-.78.82-1.2,1.2-.01.35-.1.89,0,1.2h1.2c.38-.08.84.11,1.2,0,.19-.06.59-1.09,1.2-1.2-.22-.51.15-1.68,0-2.4Z"/>
  <path class="b" d="M239.4,355.6h-1.2c-.02.36-.08.87,0,1.2.13.53.85,1.92,1.2,2.4.28.19.96-.19,1.2,0-.06-.39.09-.83,0-1.2-.15-.61-.82-1.8-1.2-2.4Z"/>
  <path class="b" d="M213,404.8c3.32.44,5.04-2.46,6-2.4-.48-.74-.75-1.64-1.2-2.4-.39-.06-.81.07-1.2,0-.5-.09.24,2.16-1.2,0-.18-.27.13-.87,0-1.2-.8-.03-1.6.03-2.4,0v1.2l-1.2,1.2c-.77.1-1.66-.14-2.4,0-.38.07-.81-.05-1.2,0v1.2c.77.1,1.66-.14,2.4,0,.46.08.98,1.18,1.2,1.2.33.03.89,1.16,1.2,1.2Z"/>
  <path class="b" d="M199.8,408.4c.39.81.79,1.6,1.2,2.4h1.2c-.58-.6-2.29-2.27-2.4-2.4Z"/>
  <path class="b" d="M219,415.6c.39-.05.82.07,1.2,0,.37-.1,1.15-.88,2.4-1.2v-1.2c-.17.07-1.26-1.14-3.6,0-.6.29-.87.65-1.2,1.2-.17.28.12.86,0,1.2h1.2Z"/>
  <path class="b" d="M205.8,352l1.2,1.2v-1.2c-.36-.11-.82.09-1.2,0Z"/>
  <path class="b" d="M213,355.6v-1.2h-1.2c.29.11.68,1.03,1.2,1.2Z"/>
  <circle class="b" cx="211.82" cy="363.98" r="1.48"/>
  <path class="b" d="M221.4,362.8c.39-.03.81-.03,1.2,0,1.23.08,1.92,1.08,2.4,1.2.4.1.9-.13,1.2,0,.68.3,1.94.81,2.4,1.2l5.99-4.18-11.99-4.22h-1.2l-3.6,3.6h1.2l2.4,2.4Z"/>
  <path class="b" d="M169.8,412c.4.01.8,0,1.2,0,.4,0,.8,0,1.2,0,1.31,0,1.03,3.56,1.22,3.6,1.45.27,4.93-2.24,7.18-2.4-.27-.43-.75-1.1-1.2-1.2-2.28-.51-3.58-2.35-1.2-4.8.69-.16,2.05.24,2.4,0,1.02-.7,2.63-2.08,3.6-2.4.34-.11.8.08,1.2,0-.58-2.7,1.77-2.92,3.6-3.6.57-.21,1.68.17,2.4,0,.78-.19,1.81-1.16,2.4-1.2,1.38-.1,1.84.02,2.4,0,.77-.02,3.37,1.31,6,1.2.8-.03,1.6.03,2.4,0-.03-.36-.06-.85,0-1.2.08-.43-.13-.94,0-1.2.41-2.52.93-.06,1.2,0,.37.08.81-.04,1.2,0-.11-.89.31-1.3,1.2-1.2,1.55.18,1.01.94,1.2,1.2.4.01.8,0,1.2,0,.11-.36-.14-.87,0-1.2.24-.55-.2-1.2,1.2-1.2l1.2,1.2c.77-.03,1.7.14,2.4,0,.35-.07.89-1.18,1.2-1.2.4-.02.8,0,1.2,0h1.2c.13.07-.07.81,0,1.2h3.6c-.1-.99.29-1.13,1.2-1.2.9-.07,1.3.29,1.2,1.2v1.2c.39.05.81-.06,1.2,0,.35.05.87,1.14,1.2,1.2,1.1.2,2.55-.23,3.6,0,.11-.49.77-.93,1.2-1.2v-3.6c-.3-.18-.97.19-1.2,0l-1.2-1.2v-1.2c-.38-.09-.82.09-1.2,0l-1.2-1.2c-.39-.05-.81.05-1.2,0-.39-.05-.81.05-1.2,0-.39-.05-.8.03-1.2,0-.54-.05-1.45.92-3.6,0-.46-.2-.84-.83-1.2-1.2-.4.03-.8-.03-1.2,0-.4.03-.8-.03-1.2,0-.79.06-1.61-.06-2.4,0-.79.06-1.6-.04-2.4,0-1.07.05-2.17-.02-2.4,0-.4.03-.8-.03-1.2,0-.68.05-1.76,1.14-2.4,1.2-.4.04-.8-.03-1.2,0-.4.03-.8-.04-1.2,0-.39.04-.8,0-1.2,0-.4,0-.8,0-1.2,0h-2.4c-.36.44-.81.79-1.2,1.2-4.5,4.68-7,1.86-8.4,2.4-1.24.48-1.89.99-2.4,1.2-1.14.47-1.19,1.08-4.8,2.4-3.17,1.16-3.38,2.32-3.6,2.4-3.62,1.38-3.43-.06-3.6,0-.36.12-.84-.12-1.2,0,.14.74-.2,1.79,0,2.4l1.2,1.2c-.48.84-10.8,2.74-7.2,7.2.79.05,1.6-.03,2.4,0Z"/>
  <path class="b" d="M166.2,353.2c-.08.03-.27.87-1.2,1.2-.35.13-.84-.12-1.2,0-.98,4.44,1.57,3.46,4.8,4.8l1.2-1.2c.24-1.11-.35-4.38,0-4.8h-3.6Z"/>
  <path class="b" d="M181.8,353.2c-.39.04-.82-.08-1.2,0-.38.08-.82-.09-1.2,0-.38.09-.82-.09-1.2,0-.34.08-.79,1.06-1.2,1.2-.61.21-1.71-.19-2.4,0-.18.05-.6,1.09-1.2,1.2,2.27,2.25,3.65,3.02,6,4.8.44.33.76.89,1.2,1.2.74.12,1.73-.18,2.4,0,1.12.31.86.7,1.2,1.2h1.2c.39,0,.81-.04,1.2,0,.42.05.91-.11,1.2,0,.51-2.26,1.99-.1,2.4,0,.71.18,1.69-.17,2.4,0,.48.12.94.77,1.2,1.2.78.09,1.64-.13,2.4,0,.5.08.97.74,1.2,1.2.4.02.81-.04,1.2,0,.39.04.83-.08,1.2,0,.49.11.93.77,1.2,1.2.4,0,.8-.01,1.2,0,1.06.03.02-.75,2.4,0,.36.11.82-.08,1.2,0-4.8-5.42-10.71-6.2-15.6-10.8-.4,0-.8,0-1.2,0-.4,0-.8,0-1.2,0-.4,0-.8,0-1.2,0-.86,0-3.51,1.88-4.8,1.2v-1.2c-.13-.75.09-1.63,0-2.4Z"/>
  <path class="b" d="M49.8,565.6h2.4l3.6-4.8c-1.98.13-4.03-.19-6,0-.78.08-1.64-.12-2.4,0-.32.05-.79,1.06-1.2,1.2.03,1.3.91,2.42,1.2,3.6h2.4Z"/>
  <path class="b" d="M575.4,587.2c.36-.16.97.18,1.2,0-.14-.27-1.42-1.11-1.2,0Z"/>
  <path class="b" d="M558.6,527.2h1.2v-1.2c-.4,0-.8,0-1.2,0-.8.01-1.6-.02-2.4,0v1.2h2.4Z"/>
  <path class="b" d="M370.2,563.2c-.22-.63.03-1.34-1.2-1.2h-1.2c0,.4,0,.8,0,1.2,0,.38.1.89,0,1.2.57-.42,1.7-.94,2.4-1.2Z"/>
  <path class="b" d="M543,533.2c.39.04.8-.02,1.2,0,.4.02.8-.02,1.2,0,.11-.27-.04-.77,0-1.2-.4,0-.8,0-1.2,0-.4,0-.8,0-1.2,0-.4,0-.8,0-1.2,0-.12.28.06.77,0,1.2.37.08.81-.04,1.2,0Z"/>
  <path class="b" d="M549,530.8c-.39.05-.8-.02-1.2,0-.02.4,0,.8,0,1.2.4,0,.8,0,1.2,0,.4,0,.8,0,1.2,0v-1.2c-.31.11-.78-.06-1.2,0Z"/>
  <path class="b" d="M586.2,526c-.08.36,0,.82,0,1.2.39-.04.81,0,1.2,0-.52-.73-.4-.67-1.2-1.2Z"/>
  <path class="b" d="M519,505.6c3.2.57,2.46-.77,2.4-3.6h-2.4c-.79,0-1.62-.08-2.4,0-.78.08-1.62-.1-2.4,0v2.4c.76.11,1.9-.2,2.4,0,.64.26.84.88,1.2,1.2.41.1.91-.14,1.2,0Z"/>
  <path class="b" d="M564.6,527.2h-1.2c-.11.74-.56.98-1.2,1.2-.33.11-.8-.08-1.2,0v1.2c.4-.01.8-.01,1.2,0,.4.01.81-.05,1.2,0,.27-.46.69-1.04,1.2-1.2.32-.1.79.04,1.2,0,.03-.4-.05-.81,0-1.2-.35.08-.82,0-1.2,0Z"/>
  <path class="b" d="M57,572.8c-.38.08-.82-.09-1.2,0l-1.2,2.4c.36.11.99-.17,1.2,0,.24.19,1.01-.2,1.2,0,.18.2,1.05-.2,1.2,0,.07-.79-.09-1.62,0-2.4-.31.12-.79-.09-1.2,0Z"/>
  <path class="b" d="M445.8,551.2c.46-1.1,1.42-1.08,2.4-1.2v-2.4h-1.2c-.35.16-.71.98-1.2,1.2-.33.14-.84-.11-1.2,0h-1.2v2.4h2.4Z"/>
  <path class="b" d="M571.8,589.6c-.04-.57-1.02-1.62-1.2-2.4-.09-.41.12-.88,0-1.2-.14-.36.16-.91,0-1.2-.17-.32.19-.97,0-1.2h-1.2c-.46,1.13-1.22,1.99-2.4,2.4-.29.1-.78-.03-1.2,0v2.4h3.6v1.2h2.4Z"/>
  <path class="b" d="M571.8,527.2c.79-.07,1.62.1,2.4,0,.39-.05.82.08,1.2,0,.28-.06.75-.95,1.2-1.2.3-.13.79.1,1.2,0,.37-.09.81.06,1.2,0,.39-.06.8.04,1.2,0,.24-.47.69-1.09,1.2-1.2.68-.15,1.62.06,2.4,0,0-.4,0-.8,0-1.2-.39.06-.82-.08-1.2,0-1.07.22-2.58-.25-3.6,0-.23.46-.72,1.13-1.2,1.2-.76.12-1.62-.05-2.4,0-.79.05-1.6,0-2.4,0h-1.2c-.27.04-.79,1.14-1.2,1.2-.01.4.05.81,0,1.2h1.2Z"/>
  <path class="b" d="M13.8,612.4c-.39-.04-.8.03-1.2,0l-1.2,1.2c.2.17-.19.95,0,1.2.64.22,1.09.46,1.2,1.2.33.14.84-.11,1.2,0,1.31-2.01.05-2.5,0-3.6Z"/>
  <path class="b" d="M511.8,529.6c.4-.02.81.04,1.2,0,.39-.04.83.08,1.2,0,.34-.6.73-.79,1.2-1.2.41-.36,1.87-.43,2.4-1.2v-1.2c-.38-.07-.81.04-1.2,0-.78-.08-1.61.05-2.4,0h-1.2c-.4,0-.8,0-1.2,0-.23.81-.91,1.59-1.2,2.4v1.2c.39-.05.8.02,1.2,0Z"/>
  <path class="b" d="M522.6,490h-3.6c1.1.68,3.39,5.78,3.6,0Z"/>
  <path class="b" d="M472.2,511.6c-.15.74.13,1.65,0,2.4-.13.75.16,1.69,0,2.4-.34,1.48-.99,1.86-1.2,2.4-.15.39-.94.76-1.2,1.2-.18.31.19.96,0,1.2-.35.45-.82.79-1.2,1.2-.39.41-.73.87-1.2,1.2-.19.28.19.97,0,1.2,1.85-1.77,15.95-7.2,4.8-13.2Z"/>
  <path class="b" d="M567,524.8c.19-.19.84.16,1.2,0,.38-.17.76-.92,1.2-1.2.27-.19.96.19,1.2,0,.63-.51,1.72-.71,2.4-1.2.39-.28.87-.82,1.2-1.2.5-.58.73-1.71,1.2-2.4-1.09-.61-1.99-1.12-2.4-2.4-.39-.05-.83.09-1.2,0-.72-.17-1.77.2-2.4,0-.39-.12-.89.14-1.2,0-1.14-.52-.86-.81-1.2-1.2h-1.2l-1.2-1.2,1.2-1.2c.41-.36.75-.89,1.2-1.2.26-.18.86.16,1.2,0,.01-.61,1.22-1.12,1.2-1.2-1.98-10.42-3.39-2.07-10.8-1.2v1.2c-.08,1.4-1.32,3.65-1.2,4.8.58.21.91,1.07,1.2,1.2.4.1.89-.13,1.2,0h1.2c.86.02.88.64,1.2,1.2.33.15.86-.15,1.2,0h1.2l1.2,1.2-2.4,2.4c-.29.15-.82-.13-1.2,0-.13.75.22,2.01,0,2.4-.58,1.02-.64.76-1.2,1.2v1.2c.4,0,.8.02,1.2,0,.4-.02.8.04,1.2,0,.4-.04.8.04,1.2,0,.4-.04.8.04,1.2,0,.36-.67.8-.81,1.2-1.2Z"/>
  <path class="b" d="M83.4,564.4v1.2l2.41-.6c.09-.96-1.93-.78-2.41-.6Z"/>
  <path class="b" d="M81,565.6c-4-2.43-1.1,2.19-1.2,2.4.38-.42.8-.8,1.2-1.2v-1.2Z"/>
  <path class="b" d="M9,614.8c.39.05.82-.07,1.2,0-.13-.34.1-.83,0-1.2-.34.11-.8-.08-1.2,0,.05.39-.06.81,0,1.2Z"/>
  <path class="b" d="M448.2,553.6h-2.4c-.4,0-.8,0-1.2,0-.24.47-.69,1.09-1.2,1.2-.7.15-1.63-.05-2.4,0-.79.05-1.6-.02-2.4,0-.4.01-.8,0-1.2,0-.39,0-.81.05-1.2,0v1.2c.29.14,1.03,2.38,2.4,2.4h3.6c2.17-.99,5.44-1.1,5.86-1.41.71-.52-.12-2.79.14-3.39Z"/>
  <path class="b" d="M576.6,562c.3-.17.87.16,1.2,0,.31-.44.93-.76,1.2-1.2.47-.75.76-1.63,1.2-2.4.18-.31-.19-.95,0-1.2.34-.45.89-.78,1.2-1.2.34-.46.91-.79,1.2-1.2v-1.2c-3.47-5.42-.03-10.89,2.4-15.6.42-.82.69-1.58,1.2-2.4.09-.37-.13-.85,0-1.2.42-1.16.42-.74,1.2-1.2v-2.4c0-.4.02-.8,0-1.2-.4.03-.8-.01-1.2,0-.4.01-.8,0-1.2,0-.4,0-.8-.01-1.2,0-.4.01-.8-.02-1.2,0-.4.02-.8-.02-1.2,0v1.2c.41,1.88-.23,2.35-1.2,3.6-.29.37-1.74.76-2.4,1.2-.92.62-1.26.87-2.4,1.2-.36.1-.81-.07-1.2,0-.37.06-.81,0-1.2,0-.6.92-.75.79-1.2,1.2-.2.19-.84-.16-1.2,0-.27.12-.77-.07-1.2,0l-1.2,1.2c-.26.17-.84-.15-1.2,0-.34.14-.85-.13-1.2,0-.27.46-.69,1.04-1.2,1.2-.33.1-.79-.05-1.2,0-.53.79-.46.68-1.2,1.2-.23.16-.79-.12-1.2,0-.37.11-.83-.11-1.2,0-.25.07-.71,1.14-1.2,1.2-.39.05-.8-.04-1.2,0-.39.04-.8-.02-1.2,0-.38.02-.83.05-1.2,0-.78-.1-1.61.07-2.4,0l-1.2-1.2v-1.2c.11-.17.8.13,1.2,0,.31-.1.8.02,1.2,0,.37-.02.85-.07,1.2,0,.74.15,1.61.94,2.4,1.2.79-.42,1.62-.77,2.4-1.2.42-.23.81-1.08,1.2-1.2.36-.11.82.09,1.2,0,.27-.46.69-1.04,1.2-1.2.37-.11.84.12,1.2,0,.36-.12.84.11,1.2,0l1.2-1.2c.35-.12.83.09,1.2,0v-1.2c-.39-.04-.81.07-1.2,0-.4-.07-.86.11-1.2,0-.41-.13-1.03.17-1.2,0v-1.2h1.2v-1.2c-.4,0-.8,0-1.2,0-.4,0-.8,0-1.2,0-.8,0-1.6,0-2.4,0-.4,0-.8,0-1.2,0-.4,0-.8,0-1.2,0-.8,0-1.6,0-2.4,0-.4,0-.8,0-1.2,0-.4,0-.8,0-1.2,0-.4,0-.8,0-1.2,0-.4,0-.8,0-1.2,0-.41.88-.39.78-1.2,1.2-.29.15-.81-.12-1.2,0-.35.11-.81-.08-1.2,0-.38.08-.81-.06-1.2,0-.39.06-.8-.04-1.2,0-.3.42-.27,1.19-1.2,1.2h-3.6c-.94.04-.95-.95-1.2-1.2-.38-.11-.88.13-1.2,0-.36-.15-.94.17-1.2,0-.79-.51-.69-.41-1.2-1.2-.38-.09-.81.07-1.2,0-.4-.08-.87.11-1.2,0-.64-.22-1.09-.46-1.2-1.2-.4-.04-.81.05-1.2,0-.39-.05-.82.08-1.2,0-.95-.21-2.11.25-2.4-1.2-.77-.08-1.66.14-2.4,0-.4-.08-.87.11-1.2,0-.65-.22-1.1-.45-1.2-1.2-.4,0-.8-.02-1.2,0-.4.02-.8-.03-1.2,0-.4.03-.8-.04-1.2,0-.4.04-.81-.06-1.2,0-.51,1.26-1.1,2.98-2.4,3.6-.27.13-.77-.07-1.2,0-.33.05-.87.06-1.2,0-1.01-.17-2.42.53-2.4-1.2-.4-.03-.8.04-1.2,0-.39-.04-.82.07-1.2,0-1.65,13.65-11.19,4.02-20.4,2.4-.39-.07-.81.06-1.2,0-.39-.06-.81.07-1.2,0-.78.99-.72,2.71-1.2,3.6-.83,1.54-2.21,2.08-2.4,2.4-2.98,4.96-1.87,6.79-8.4,9.6-.29.13-.78-.08-1.2,0v1.2c1.34,1.48,5.18,3.88,4.79,5.38-2.45,3.08-6.43,1.49-9.59,1.82-.82,1.56-2.48.89-3.6,1.2-.27.43-.71,1.09-1.2,1.2-.37.08-.81-.04-1.2,0-.39.04-.8-.03-1.2,0-.39.03-.82-.07-1.2,0-.24.47-.69,1.09-1.2,1.2-.6.13-1.72.06-2.4,0l-7.19,7.19c8.41-2.63,16.25,1.21,23.38,1.27,7.9.07,15.16-7.93,24.61,4.73.4,0,.8,0,1.2,0,7.63-4.95,8.83-3.92,17.99-2.41,4.28-4-12.18-5.25,4.81-10.79.83-.27,1.58-.92,2.4-1.2,1.24-2.76,4.46-6.93,7.2-8.4,1.52-.81,4.23-.88,6-1.2.35-.53-.42-3.16,1.18-4.22l3.62,1.24-3.13,6.62,6.8,4.01,1.01,3.52c-9.46,9.43-21.43,15.53-27.48,27.23-.24.19-.91-.18-1.2,0l-15.57,10.2c14.51,6.87,4.73,2.05,4.74,8.4,0,2.87,4.86,4.37,4.91,7.22.05,3.1-5.96,2.28-3.15,6.64,7.15,5.23,5.79-2.13,11.47-3.66.68-.19,1.7.17,2.4,0,.38-.09.82.09,1.2,0,.38-.09.81.07,1.2,0,.39-.07.81.05,1.2,0,1.02-2.09,2.42-.72,3.6-1.2.31-.13.8.1,1.2,0,.37-.09.81.06,1.2,0l1.2-4.8c-.46-.31-.8-.82-1.2-1.2-.39-.38-.88-.76-1.2-1.2-.19-.26.18-.89,0-1.2-1.37-2.4-6.79-5.29-1.8-9.57l5.4,8.37c.38-.07.81.04,1.2,0,.4-.04.8.03,1.2,0,1.97-.13,4.02-.01,6,0l-6-7.2v-1.2c-1.06-.8-3.92-1.97-1.79-3.61,3.35,1.94,3.73,2.72,7.79,3.61.73.16,1.78-.2,2.4,0,.64.21,1.72-.19,2.4,0,.39.11.87-.13,1.2,0h1.2l1.2,1.2c.17,1.11-.26,2.65,0,3.6.1.36-.04.81,0,1.2.5.07,1,.72,1.2,1.2.38.15,1-.18,1.2,0l-2.4,9.6c.17.19,1.05-.2,1.2,0,.39.51,1.73.55,2.4,2.4.2.56.06,2.7,0,3.6-.15,2.16-1.18,3.41-1.2,3.6.15.73-.18,1.73,0,2.4h7.2c.2-.95-.23-2.16,1.2-2.4.03-.4-.03-.8,0-1.2.08-1.17-.17-2.45,0-3.6,1.53-10.19.37-13.85,10.8-16.8.13-.27-.08-.78,0-1.2.11-.59.1-1.79,0-2.4-4.37.57-7.54-1.29-7.2-6-.25-.19-.95.19-1.2,0-.45-.35-5.32.62-1.2-3.6-.06-.39.09-.82,0-1.2-.09-.38.07-.81,0-1.2-.12-.7-1.35-1.51-1.2-3.6h-1.2v-1.2c.18-.2.89.18,1.2,0,.03-.36,1.17-.92,1.2-1.2.02-.13.88-1.12,1.2-2.4.09-.38-.11-.83,0-1.2-.4-.02-.8.03-1.2,0-.43-.03-1,.12-1.2,0-.34-.2-1.38.14-1.2-1.2l1.2-1.2c.41-.38.77-.83,1.2-1.2.4-.35.88-1.09,1.2-1.2,3.01-1.08,2.12-2.75,2.4,2.4.02.4-.02.8,0,1.2,1.2-.03,2.4.02,3.6,0,.5-.56.71-1.73,1.2-2.4-.08-.02-.94-.92-1.2-1.2-1.36-1.47.09-.61,0-1.2-.06-.35-.04-.85,0-1.2.05-.41-.1-.88,0-1.2.5-1.6.24-3,2.4-3.6.15-.33-.16-.89,0-1.2.26-.5.85-.79,1.2-1.2.17-.2,1.01.2,1.2,0,.86-.87-1.19-.36,2.4-2.4Z"/>
  <path class="b" d="M579,528.4c-.27-.14-.79.1-1.2,0-.35-.09-.82,0-1.2,0-.4-.01-.8,0-1.2,0h-3.6l-1.2,2.4c2.43-1,4.76-.23,7.2,0,.27-.43.71-1.09,1.2-1.2.37-.08.81.04,1.2,0,.39-.04.8.02,1.2,0-.17-1.62-1.83-.9-2.4-1.2Z"/>
  <path class="b" d="M9,619.6v1.2h2.4v-1.2c-.79.07-1.61-.03-2.4,0Z"/>
  <path class="b" d="M591,559.6v1.2c2.33-.55.52-.62,0-1.2Z"/>
  <path class="b" d="M190.2,602.8c-5.74,12.99,8.96,1.21,2.4,0-.63.19-1.66-.13-2.4,0Z"/>
  <path class="b" d="M499.75,492.95l4.85.65c.38-.08.82.09,1.2,0,.38-.09.85.12,1.2,0,.36-.12.83.11,1.2,0,1.26-.37,5.78-1.87,5.97-3-2.28-6.73-7.58-8.56-10.77-12.6-.51-.64-.69-1.82-1.2-2.4-4.68-5.4-2.08-13.25-12-6-.15.33.16.88,0,1.2-.81,1.63-2,1.84-2.4,2.4-.43.76-.48,2.35-1.2,3.6-.62,1.08-1.1,2-2.4,2.4-.16.34.16.9,0,1.2-.86,1.58-1.24,2.2-2.4,3.6-.35.43-.79.83-1.2,1.2-.1.37.09.82,0,1.2-.1.44-1.15.93-1.2,1.2-.11.37.11.84,0,1.2-.28.9-.05,1.95-1.2,2.4-.06.79.03,1.6,0,2.4-.02.4.01.8,0,1.2-.03,1.2-.01,2.4,0,3.6,0,.4-.02.8,0,1.2.15,2.41-.32,11.47,0,11.97.48.73,13.92,2.91,11.99,10.83h-1.2c-3.7-.37-7.14,1.24-10.8,1.2-.39,0-.82.06-1.2,0v4.8c1.57.14,3.25-.21,4.8,0,9-10.54,13.75,2.23,17.09,3.97,4.41,2.29,5.88-1.39,6.91-1.57.29-.05.8-1.13,1.2-1.2-.15-.28.12-.81,0-1.2-.16-.53,0-1.66,0-2.4v-1.2c-.36-.09-.82.04-1.2,0-.77-.07-1.91.19-2.4,0-1.16-.46-2.94,1.11-2.41-1.78-.02-1.21,1.65-.4,2.41-.62.36-.1.81.07,1.2,0,.38-.07.81.05,1.2,0,.78-.1,1.61.07,2.4,0-.2-.34.08-1.65,0-2.4-.4,0-.8.02-1.2,0-1.56-.08-1.12-1.19-1.2-1.2-.4-.03-.8.02-1.2,0l-2.39,2.39c1.74-5.44,1.71-6.53,1.19-11.99-.42-.02-1,.11-1.2,0l-1.2-4.8h1.2l1.2-3.6c-.59-.51-1.91-.71-2.4-1.2-.37-.37-.97-.77-1.2-1.2-.13-.25.08-.77,0-1.2-.14-.76-2.75-2.18-.05-4.25Z"/>
  <path class="b" d="M71.4,604c-.37.1-.83-.11-1.2,0-.28,1.13-.99,2.19-1.2,3.6.37.06.82,0,1.2,0,.4,0,.8.03,1.2,0,.5-1.21.83-2.34,1.2-3.6-.34.13-.82-.11-1.2,0Z"/>
  <path class="b" d="M71.4,611.2l-1.2,1.2h-1.2c-.31.13-.8-.1-1.2,0-.37.1-.81-.07-1.2,0l-1.2,1.2v1.2c.31-.09.86-.02,1.2,0,2.42.13,2.71-.71,2.4,2.4.4,0,.8-.01,1.2,0,1.59.06,3.21-.09,4.8,0,.79.05,1.61-.06,2.4,0-1.12-5.46-1.81-4.52-6-6Z"/>
  <path class="b" d="M184.2,604h1.2c.2-.62,4.5-2.3,1.2-6-.28.1-.78-.03-1.2,0l-2.4,1.2h-1.2c.02.4-.01.8,0,1.2.01.4.02.8,0,1.2-.02.41.1.9,0,1.2l2.4,1.2Z"/>
  <path class="b" d="M171,605.2c.35,1.75,1.41.8,1.2,4.8,1.1.52,1.82,1.35,2.4,2.4.81.37,1.59.81,2.4,1.2l2.4-1.2c.48-.73.71-1.67,1.2-2.4-.46-.59-.78-2.1-1.2-2.4-1.17-.84-1.37,1.64-2.4-2.4-.25-.98.17-2.48,0-3.6v-1.2c-.8.4-1.61.78-2.4,1.2-.76.41-1.36,1.25-2.4,1.2-.23.65-1.28,1.99-1.2,2.4Z"/>
  <path class="b" d="M91.8,554.8v1.2c.48-.48,1.74-.72,2.4-1.2,1.48-2.63,3.06-3.47,3.6-7.2h-1.2c-.51.76-.86.84-1.2,1.2-.19.23.18.9,0,1.2-1.05,1.74-2.58,3.05-3.6,4.8Z"/>
  <path class="b" d="M90.6,558.4c-.12-.15-2.58-.72-3.6-1.2-.43.35-.76.86-1.2,1.2,1.95,2.27.89,7.45,4.8,4.8.19-.73,1.2-1.88,1.2-2.4,0-.41.1-1.04,0-1.2-.27-.41-.85-.78-1.2-1.2Z"/>
  <path class="b" d="M81,581.2c.01.06.82-.03,1.2,0,.1-.3-.03-.79,0-1.2h-1.2c.06.39-.08.82,0,1.2Z"/>
  <path class="b" d="M71.4,629.2c-.4-.03-.81.05-1.2,0-.39-.05-.82.07-1.2,0-.4-.08-.87.11-1.2,0-.64-.22-1.09-.46-1.2-1.2-.38-.07-.84.11-1.2,0-.38-.11-.88.13-1.2,0h-1.2l-1.2-1.2c-.39-.06-.81.07-1.2,0-.39-.07-.82.08-1.2,0-.39-.08-.85.11-1.2,0-.4-.12-.93.15-1.2,0l-1.2-1.2c-.39-.06-.82.08-1.2,0-.38-.08-.83.1-1.2,0-.39-.1-.87.13-1.2,0-.37-.14-.93.16-1.2,0-.81-.48-.72-.37-1.2-1.2-.43-.06-.92.12-1.2,0-.48-.2-.79-.94-1.2-1.2-.39-.25-.85-.82-1.2-1.2-.38-.42-.82-.78-1.2-1.2l-1.2-1.2,1.2-1.2c.69-2.23,2.25.02,2.4,0,.39-.06.81.04,1.2,0,.34-.12.74-1.06,1.2-1.2.37-.11.84.12,1.2,0,.36-.11.83.1,1.2,0-.11-.7-.95-1.62-1.2-2.4-.4-.02-.8.02-1.2,0-.4-.02-.81.04-1.2,0-.39-.04-.83.08-1.2,0-.49-.11-.93-.77-1.2-1.2h-1.2l-1.2-1.2,1.2-1.2c.36-.43.86-.76,1.2-1.2.34-.43.81-.8,1.2-1.2.39-.4.76-.84,1.2-1.2.24-.19.92.19,1.2,0,.37-.24.66-.93,1.2-1.2.39-.19.76-1.04,1.2-1.2.34-.12.82.1,1.2,0l1.2-1.2h1.2c.38-.42.8-.8,1.2-1.2.36-.36.8-1.05,1.2-1.2.33-.12.8.09,1.2,0,.37-.08.81.04,1.2,0,.17-.4.9-.77,1.2-1.2.29-.41.81-.85,1.2-1.2,1.48-1.31-2.49-.87,3.6-2.4.37-.09.81.05,1.2,0,.14-.41.92-.79,1.2-1.2.67-.99,1.2-1.94,2.4-2.4.25-.17.83.15,1.2,0,.03-.21.86-.86,1.2-1.2.4-.4.79-.81,1.2-1.2.23-.17.8.13,1.2,0,.26-.48.79-.84,1.2-1.2l1.2-1.2h1.2c.07-.78,0-1.61,0-2.4h-2.4c-1.44,1.26-2.54,1.59-3.6,2.4-.44.33-.76.87-1.2,1.2-.43.32-.72.9-1.2,1.2-.29.18-.91-.18-1.2,0-.43.34-.75.91-1.2,1.2-.36.23-.21,1.49-1.2,1.2h-1.2l-.6,1.2-.6-.6.6-.6h.6c-.2-1.35,1.15-1.13,1.2-1.2.26-.4.82-.85,1.2-1.2.4-.37.76-.89,1.2-1.2.41-.29.71-.93,1.2-1.2.28-.15.82.13,1.2,0,.42-.37.78-.82,1.2-1.2.42-.38.79-.81,1.2-1.2.41-.39.79-.81,1.2-1.2.78-.75,1.61-1.62,2.4-2.4.2-.2,1,.2,1.2,0,.2-.2,1,.2,1.2,0,.2-.2-.2-1,0-1.2.04-.04-1.35.21,0-1.2.38-.4.86-.78,1.2-1.2.35-.43.81-.8,1.2-1.2.84-.86,1.46-1.58,2.4-2.4.42-.37.78-.83,1.2-1.2.1-.37-.14-.87,0-1.2.64-1.55,1.54-1.59,2.4-2.4.4-.37.77-.91,1.2-1.2.29-.19.41-.93,1.2-1.2v-1.2c-.44-.29-.76-.88-1.2-1.2-.36,1.31-1.7,1.69-2.4,2.4-.39.4-.77.85-1.2,1.2-3.15,2.6-6.42,4.7-9.6,7.2-.59.47-1.42,1.58-2.4,2.4-.5.42-.25,4.07-2.99,3.61l-.65-3.02c.27-1.01,2.25-.41,2.43-.59,1.07-1.09,1.63-3.06,3.6-3.6-.11-.74-.56-.98-1.2-1.2-.33-.11-.8.08-1.2,0l-1.2,1.2c-.32.44-.92.76-1.2,1.2-.84,1.3-1.55,1.56-2.4,2.4-.39.39-.77.87-1.2,1.2-1.04.8-1.26,2.56-3.6,3.6-.48.73-.75,1.64-1.2,2.4,7.15,6.22-1.9,1.08-2.4,1.2-.39.09-.85-.12-1.2,0-.19.06-.61.95-1.2,1.2-.4.17-.77,1-1.2,1.2-.41.19-.77.99-1.2,1.2-.38.19-.74.95-1.2,1.2-.31.17-.9-.17-1.2,0-.31.18-.66.86-1.2,1.2-.33.21-.67.85-1.2,1.2-.28.19-.95-.19-1.2,0-.2.19.2,1.03,0,1.2-.2.17.2,1.04,0,1.2-.4.34-.75.82-1.2,1.2-.6.5-1.7.72-2.4,1.2-.44.3-.76.95-1.2,1.2-.39.23-.73,1.02-1.2,1.2-.34.13-.83-.11-1.2,0-.29.5-.98.82-1.2,1.2-.2.34-.86.7-1.2,1.2-2.71,3.95,2.37,3.74-7.2,8.4-.4.19-.76.91-1.2,1.2h-1.2c-.43.3-.73.9-1.2,1.2h-1.2c-.51,1.16-1.02.99-1.2,1.2-.17.2-.91-.19-1.2,0-.09.38.12.85,0,1.2-.81,2.36-1.11-.03-1.2,0-.36.11-.85-.13-1.2,0-.42.24-.75.95-1.2,1.2-.85.47-3.09,2.1-3.62.6.62-.93,2.49-1.36,3.62-1.8.35-.14.85.13,1.2,0,.42-.24.76-.91,1.2-1.2.43-.28.75-.91,1.2-1.2.27-.18.87.16,1.2,0,.29-.14.61-1.04,1.2-1.2.11-.36-.1-.83,0-1.2h-2.4l-1.2,1.2c-.35.39-.74.98-1.2,1.2-.3.14-.82-.12-1.2,0-.3.47-.28,1.18-1.2,1.2h-1.2c-.09.76-.58.94-1.2,1.2-.31.13-.8-.11-1.2,0-.16,1.43-.6.93-1.2,1.2-.28.13-.78-.07-1.2,0-.38.07-.81-.04-1.2,0-.23.81-.91,1.59-1.2,2.4.4,0,.8.01,1.2,0,.4-.01.8,0,1.2,0,.8-.01,1.6,0,2.4,0,.4,0,.8,0,1.2,0,.4,0,.8,0,1.2,0,.8,0,1.6,0,2.4,0,.56,0,1.88-1.25,2.4-1.2,1.48.15,1.59-.56,2.4,1.2.5,1.1-1.55,1.49-2.4,1.2-.01.18-.93.6,0,1.2h2.4c.4,0,.8,0,1.2,0,.77.01,1.67-.12,2.4,0,.99.17,2.17-.2,2.4,1.2.39.07.82-.08,1.2,0,.38.08.84-.11,1.2,0,.37.11.87-.13,1.2,0,1.17.46,1.12,1.15,1.2,1.2.8-.01,1.6-.03,2.4,0,.4.01.8-.02,1.2,0,.4.02.8-.04,1.2,0s.83-.08,1.2,0c.49.11.93.77,1.2,1.2.4.02.8-.01,1.2,0,.4.01.8-.02,1.2,0,.4.02.8-.02,1.2,0,.4.02.8-.02,1.2,0,.4.02.81-.04,1.2,0,.39.04.83-.08,1.2,0,.49.11.93.77,1.2,1.2.39.08.85-.11,1.2,0,.4.12.92-.15,1.2,0l1.2,1.2c.36-.04.85-.06,1.2,0,.4.07.86-.11,1.2,0,.51.16.91,1.09,1.2,1.2.4-.03.8.02,1.2,0,.4-.02.8.02,1.2,0,.4-.02.8.01,1.2,0,.4-.01.8.01,1.2,0,.8-.02,1.6,0,2.4,0,.4,0,.8,0,1.2,0,.8,0,1.6,0,2.4,0v-1.2c-.4-.02-.8.03-1.2,0Z"/>
  <path class="b" d="M589.8,544c.39-.84-.05-1.21,1.2-2.4v-2.4c0-.8.03-1.6,0-2.4h-1.2c-3.21,4.55-5.86,6.1-4.8,12h1.2c.3-.45.85-.78,1.2-1.2.11-.13.58-1.48,1.2-2.4.12-.18,1.1.18,1.2,0,.17-.3-.16-.87,0-1.2Z"/>
  <path class="b" d="M598.2,530.8c-.79-1.01-.87-1.06-1.2-2.4-.09-.35,0-.83,0-1.2,0-.38-.07-.84,0-1.2.07-.38-.06-.81,0-1.2l1.2-1.2v-2.4c-2.61,1.27-3.78,3.47-4.8,6-.14.33.12.83,0,1.2v1.2c-.09.37.08.82,0,1.2.05.07.73-.42,1.2,1.2.19.65-.13,1.65,0,2.4l-1.2,1.2c-.09.38.08.82,0,1.2-.08.38.09.82,0,1.2-.09.38.11.84,0,1.2-.11.38.13.86,0,1.2-1.05,2.73-2.12,3.03-2.4,3.6-.22.44-.95.78-1.2,1.2-.17.31.17.9,0,1.2-.89,1.52-1.41,1.51-2.4,2.4-.42.38-.76.85-1.2,1.2-.16.32.17.9,0,1.2-.15.26-.97,1.1-1.2,1.2.07.1.06,1.06,0,1.2-.23.52-.89.8-1.2,1.2-.79,1.25-1.59,2.38-2.4,3.6-.18.28.19.94,0,1.2-.32.45-.89.76-1.2,1.2-.32.45-.88.76-1.2,1.2-.32.45-.88.76-1.2,1.2-.32.44-.92.77-1.2,1.2-.85,1.3-.88,3.62-2.4,4.8-.02.4,0,.8,0,1.2v2.4h1.2c.29-1.88,2.06-2.26,3.6-2.4-.07-.39.1-.83,0-1.2-.83.13-1.22-.47-1.2-1.2.01-.42-.11-1.03,0-1.2.37-.43.84-.77,1.2-1.2.85-1.02,1.51-1.53,2.4-2.4.4-.39.79-.81,1.2-1.2.41-.39.79-.82,1.2-1.2.18-.29-.18-.92,0-1.2.94-1.43,2.07-1.94,2.4-2.4,1.03-1.46,1.24-1.05,2.4-3.6.2-.45.84-.83,1.2-1.2.09-.37-.12-.85,0-1.2.25-.7,1.09-.98,1.2-1.2.16-.32-.17-.89,0-1.2.26-.49,1.03-.85,1.2-1.2.21-.44,1.02-.8,1.2-1.2.15-.33-.15-.87,0-1.2.15-.33-.14-.86,0-1.2.29-.7,1.16-1.08,1.2-1.2.11-.37-.13-.85,0-1.2.12-.33-.09-.8,0-1.2.11-.49.76-.93,1.2-1.2.06-.43-.12-.92,0-1.2.19-.46.89-.8,1.2-1.2.32-.42.79-.85,1.2-1.2.4-.34.74-.98,1.2-1.2v-2.4c-.48-.32-.85-.75-1.2-1.2Z"/>
  <path class="b" d="M594.6,551.2c.3-.48.77-.85,1.2-1.2l1.2-1.2v-1.2c-.65.48-2.01.76-2.4,1.2-.28.44-.87.77-1.2,1.2v1.2c.37.09.85-.12,1.2,0Z"/>
  <path class="b" d="M593.4,601.6c.2.22-.2.98,0,1.2.45.27.79.85,1.2,1.2.25.17.85-.12,1.2,0h1.2c-.16-.4,2.73-9.19-3.6-2.4Z"/>
  <path class="b" d="M594.6,574h-1.2c-.4,0-.8,0-1.2,0-.14.51-.74.94-1.2,1.2v2.4c.37-.09.81.07,1.2,0,.69-.61.6-1.68,2.4-2.4v-1.2Z"/>
  <polygon class="b" points="320.49 608.89 323.39 605.21 315.01 609.99 320.49 608.89"/>
  <path class="b" d="M304.2,607.6c-.38-.05-.81,0-1.2,0-.55-.01-3.43-.05-3.6,0-.7.2-1.96-.24-2.4,0-13.07,7.22,10.39,11.03,15.59,2.98,1.02-3.32-6.88-2.78-8.39-2.98Z"/>
  <path class="b" d="M364.24,658.59c-1.67,9.84,58.94,19.97,56.37,4.74l-2.07-2.68c-4.02-2.58-44.67-6.11-49.87-4.78-1.75.45-3.3,1.27-4.43,2.71Z"/>
  <polygon class="b" points="280.19 755.19 280.19 751.61 275.4 753.98 280.19 755.19"/>
  <path class="b" d="M185.4,764.8c12.83,14.22,3.01,20.87,31.85,13.25,5.28-1.39,37.57-18.35,39.53-21.67,1.39-2.35-.17-6.12,1.3-8.31,9.11-13.55,15.28-13.72,29.29-21.08l-103.57,25.99c-5.13,3.18.7,8.32,1.6,11.81Z"/>
  <path class="b" d="M418.84,741.96c-5.07-5.17-11.78-25.49-13.22-25.15-3.3.77-.35,6.71-1.48,9.22-10.1,22.26-53.87,23.53-57.44,37.54-3.61,14.14,13.78,7.06,16.91,7.15,11.57.34,61.49,1.71,68.47-7.04,10.13-12.7-9.51-17.93-13.23-21.72Z"/>
  <path class="b" d="M75,634c-.63.42-.75.18-1.2,1.2.39.04.83-.08,1.2,0-.1-.37.07-.81,0-1.2Z"/>
  <path class="b" d="M213,70c.41.36.77.91,1.2,1.2l1.2-2.4h-1.2c-.4,0-.8,0-1.2,0,.07.38-.06.81,0,1.2Z"/>
</svg>