<?xml version="1.0" encoding="UTF-8"?>
<svg id="a" data-name="b1" xmlns="http://www.w3.org/2000/svg" width="612" height="792" viewBox="0 0 612 792">
  <defs>
    <style>
      .b {
        fill: #010101;
      }
    </style>
  </defs>
  <path class="b" d="M526.18,311.06c-.19,0-.39-.02-.58,0v-.58c.17-.06.41.06.58,0-.06.17.05.4,0,.58Z"/>
  <path class="b" d="M516.38,308.18c-.04.17.01.38,0,.58-.2-.04-.43.06-.58,0-.45-.19-.39-.16-.58-.58h1.15Z"/>
  <path class="b" d="M497.38,358.86h-.58v-.58c.19.02.39-.02.58,0-.1.09.1.49,0,.58Z"/>
  <path class="b" d="M345.31,316.82v.58h-1.15v-.58c.38.03.8-.06,1.15,0Z"/>
  <path class="b" d="M345.31,317.97c.14.21.1.59.58.58h.58c.19.2.38.39.58.58v.58c-.51.05-1.22.06-1.73,0-.17-.22-.38-.38-.58-.58l-.58-.58c.05-.18-.05-.4,0-.58.38.03.78-.05,1.15,0Z"/>
  <path class="b" d="M519.84,217.74c.03.57-.04,1.16,0,1.73h-.58v-.58c-.05-.18.07-.43,0-.58-.14-.29-.16-.56-.58-.58,0-.19,0-.38,0-.58.18.04.4-.05.58,0,.16.32.55.5.58.58Z"/>
  <path class="b" d="M513.5,356.56c-.16.06-.36.45-.58.58-.16-.06-.4.05-.58,0l-.58-.58c.03-.19-.03-.39,0-.58s-.03-.39,0-.58l1.73,1.15Z"/>
  <path class="b" d="M131.04,410.7c-.01.19-.01.39,0,.58s-.03.39,0,.58c-.18-.05-.39.04-.58,0l-.58-.58v-.58c.19,0,.39.02.58,0s.39.03.58,0Z"/>
  <path class="b" d="M135.07,406.1h-.58c.06-.36-.04-.78,0-1.15.44.43.38.82.58,1.15Z"/>
  <path class="b" d="M517.54,410.13c-.09.53.13,1.28,0,1.73h-.58v-2.31c.66-.09.51.48.58.58Z"/>
  <path class="b" d="M463.39,563.34c.03.32.8.94.57,1.15-.37.05-.78-.05-1.15,0,.04-.18-.03-.39,0-.58s-.02-.39,0-.58h.58Z"/>
  <path class="b" d="M531.36,324.3c.06.35-.04.78,0,1.15h-1.15c-.19,0-.39.02-.58,0,0-.19,0-.38,0-.58l.58-.58c.19,0,.38-.01.58,0s.38,0,.58,0Z"/>
  <path class="b" d="M461.09,569.68c.39.05,1.16-.25,1.16.29,0,.54-.71.22-1.16.29v-.58Z"/>
  <path class="b" d="M501.41,467.15c-.38.02-.77-.03-1.15,0v-1.15c.24-.14.4-.36.58-.58.14-.17.47-.29.58-.58.06-.15-.05-.38,0-.58.04-.18-.03-.39,0-.58,1.38.7.28,2.44,0,3.46Z"/>
  <path class="b" d="M497.38,477.52h-1.73v-.58l.58-.58c.03-.19-.04-.39,0-.58s-.02-.39,0-.58,0-.39,0-.58l.58-.58c.03-.19-.04-.39,0-.58h.58c-.1,1.24.23,2.96,0,4.03Z"/>
  <path class="b" d="M500.83,468.3c-.58,1.55-1.36,2.94-1.83,4.52l-1.63.09c.01-.19-.03-.39,0-.58.24-.14.4-.36.58-.58.14-.17.47-.29.58-.58.06-.15-.04-.38,0-.58.03-.17,0-.39,0-.58.07-.14.46-.31.58-.58.07-.16-.07-.42,0-.58.4-.02.45-.27.58-.58.06-.15-.04-.38,0-.58l1.15.58Z"/>
  <path class="b" d="M495.65,479.82c-.21.37-.37.78-.58,1.15-.11.19-.44.36-.58.58-.3.48-.4.85-.58,1.15-.87,1.47.03,2.2-2.3,2.88v-1.15c.62-.2.92-.57,1.15-1.15.06-.15-.05-.38,0-.58.04-.18-.03-.39,0-.58l.58-.58c.03-.19-.04-.39,0-.58s-.01-.39,0-.58c.22-.18.38-.38.58-.58.18-.18.47-.31.58-.58.06-.16-.05-.39,0-.58l1.15,1.15Z"/>
  <path class="b" d="M482.4,510.35c-.24.89-1.94,5.28-2.38,5.97-.84,1.33-1.08,1.07-2.23,1.52v-.58l.58-.58c.06-.16-.06-.4,0-.58s-.06-.41,0-.58-.06-.41,0-.58c.14-.39.49-.81.58-1.15.03-.14.52-.36.58-.58.08-.32-.05-.78,0-1.15.27-.1.5-.3.58-.58.05-.16-.02-.38,0-.58.23-.17.49-.27.58-.58.09-.13-.09-.45,0-.58.2-.29.43-.8.58-1.15.07-.17.52-.37.58-.58.05-.18-.04-.39,0-.58,1.27.73.89,1.74.58,2.88Z"/>
  <path class="b" d="M516.38,426.26c-.4,1.98-1.51,7.73-2.3,9.22h-1.15v-1.15c0-.19,0-.38,0-.58s-.01-.39,0-.58c.24-.14.58-.11.58-.58.03-.19-.04-.39,0-.58s-.02-.39,0-.58-.02-.39,0-.58c.43-.05.63-.08.58-.58.03-.19-.03-.39,0-.58s-.02-.39,0-.58-.02-.39,0-.58-.02-.39,0-.58c.21-.18.45-.25.58-.58.1-.26-.07-.79,0-1.15.03-.18-.03-.39,0-.58.02-.11.52-.34.58-.58.04-.18-.04-.4,0-.58s-.03-.38,0-.58-.02-.39,0-.58-.01-.39,0-.58,0-.39,0-.58c.27-.1.5-.3.58-.58.05-.16-.02-.38,0-.58l.58-.58c.61.33.89.87,1.03,1.53-.75,1.47-.74,2.78-1.03,4.23Z"/>
  <path class="b" d="M512.35,439.5c-.81,3.91-1.92,7.29-3.69,11.57-.98,2.36-2.61,7.94-4.95,8.59v-.58l.58-.58c.03-.19-.04-.39,0-.58s-.02-.39,0-.58,0-.39,0-.58c.2-.18.34-.12.58-.58.08-.15-.07-.41,0-.58.07-.15-.06-.39,0-.58.09-.27.44-.58.58-1.15.04-.18-.04-.39,0-.58.24-.14.4-.36.58-.58.14-.17.47-.29.58-.58.06-.15-.04-.38,0-.58.04-.18-.03-.38,0-.58.09-.12.35-.24.58-.58.09-.13-.09-.44,0-.58.21-.31.43-.8.58-1.15.07-.16.48-.34.58-.58.07-.16-.07-.41,0-.58s-.07-.41,0-.58c.25-.1.52-.31.58-.58.04-.19-.05-.4,0-.58.02-.06.42-.26.58-.58.06-.13-.04-.37,0-.58.04-.17-.02-.38,0-.58.19-.17.45-.2.58-.58.11-.31-.12-.91,0-1.15.4-.02.45-.27.58-.58.06-.15-.04-.38,0-.58.04-.14.4-.46.58-1.15.04-.17-.03-.38,0-.58l.58-.58c.3.03.49.29.58.58Z"/>
  <path class="b" d="M476.64,519.57c.53.05,1.58-.29,1.72.28-1.81,1.21-1.14,4.07-1.48,4.92-.3.76-1.77,1.38-2.19,2.27-.28.59-.05,2.56-.41,3.69-3.27,10.24-5.7,20.11-9.16,30.31-.38.2-.79.35-1.15.58v-1.15c0-.19,0-.38,0-.58.39-.03.47-.25.58-.58.06-.16-.05-.39,0-.58s-.05-.41,0-.58c.39-.03.47-.25.58-.58.05-.16-.04-.38,0-.58.04-.18,0-.39,0-.58.04-.12.48-.31.58-.58.06-.15-.04-.38,0-.58.04-.17,0-.39,0-.58v-.58c.54-.12.4-.15.58-.58.06-.14-.03-.37,0-.58.16-.16.4-.08.58-.58.05-.15-.03-.38,0-.58.06-.34,0-.78,0-1.15l.58-.58c.06-.16-.06-.39,0-.58s-.05-.4,0-.58-.04-.39,0-.58c0-.04.46.02.58-.58.03-.19-.03-.39,0-.58.22-.19.41-.23.58-.58.06-.13-.04-.37,0-.58.04-.18-.02-.39,0-.58s0-.39,0-.58l.58-.58c.03-.19-.03-.39,0-.58s-.02-.39,0-.58c.39-.03.47-.25.58-.58.05-.16-.04-.38,0-.58.03-.18-.02-.39,0-.58s-.02-.39,0-.58-.01-.38,0-.58c.02-.12.52-.33.58-.58.04-.18-.04-.39,0-.58s-.04-.39,0-.58c.25-.1.52-.31.58-.58.04-.17-.02-.38,0-.58s-.01-.38,0-.58,0-.38,0-.58,0-.38,0-.58v-.58l.58-.58c.02-.19-.03-.39,0-.58.06-.36-.03-.78,0-1.15.25-.1.52-.31.58-.58.04-.17-.02-.38,0-.58s-.02-.39,0-.58-.01-.39,0-.58-.02-.39,0-.58c.03-.11.5-.32.58-.58.05-.18-.05-.4,0-.58.09-.31-.07-.8,0-1.15.26-.1.51-.31.58-.58.04-.18-.03-.39,0-.58.27-.1.5-.3.58-.58.05-.16-.03-.38,0-.58.58-.43.95-1.04,1.15-1.73.05-.17-.04-.39,0-.58.46-.16.41-.17.58-.58.06-.14-.03-.37,0-.58l.58-.58c.03-.19-.03-.39,0-.58s-.03-.39,0-.58-.03-.39,0-.58c.19.03.39-.02.58,0Z"/>
  <path class="b" d="M455.9,590.42c-.42,1.66-.65,3.46-.58,5.18-.4.14-.76.43-1.15.58v-2.88c.41-.19.39-.12.58-.58.06-.14-.04-.38,0-.58.04-.18-.02-.39,0-.58s-.01-.39,0-.58-.01-.38,0-.58l.87-.46.28.46Z"/>
  <path class="b" d="M336.67,729.81c.47.36,1.17.57,1.47,1.15.64,1.25-1.86,6.78-3.19,3.46.04-.18-.04-.39,0-.58.21-.14.59-.1.58-.58v-1.15c.04-.07.35-.27.58-.58.71-.98.36-1.11.58-1.73Z"/>
  <path class="b" d="M339.55,722.32c.62.14,1.28-.38,1.21.85-.04.75-1.64,7.19-3.51,4.91.02-.18,0-.39,0-.58.28-.08.51-.3.58-.58.08-.34-.09-.84,0-1.15.02-.06.82-.53.58-1.15v-.58c.49-.22.37-.2.58-.58.07-.13-.05-.38,0-.58.76-.25.49-.47.58-.58Z"/>
  <path class="b" d="M351.65,696.98c.06-.13-.04-.37,0-.58.02-.14.04-.44,0-.58.22-.14.48-.33.58-.58.06-.17-.07-.42,0-.58.38-.9.78-2.13,1.15-2.88.21-.18.38-.38.58-.58s.4-.37.58-.58c0,.94.99,1.29.13,3.88-.2.61-1.88,4.08-3.01,2.45Z"/>
  <path class="b" d="M451.87,601.94c.38.03.77-.04,1.15,0,.85,1.13-3.97,12.48-5.75,13.55-1.58.95-1.18-.55-1.16-1.45.2-.16.36-.83.58-1.15.58-.84.73-1.55,1.15-2.3.11-.2.46-.36.58-.58.22-.42.38-.69.58-1.15.06-.14-.04-.37,0-.58.01-.07.65-.12.53-.5l-1.11-.65c1.95-.02,1.76-1.34,2.3-2.3.11-.2.51-.39.58-.58.05-.16-.04-.38,0-.58.04-.18-.03-.39,0-.58.38-.03.47-.25.58-.58.05-.15-.03-.38,0-.58Z"/>
  <path class="b" d="M334.37,736.72c.46.12,1.19-.09,1.73,0,.73.86-3.87,13.27-4.45,15.42-.51,1.9-1.4,4.2-1.76,5.73-.88,3.82,0,11.88-4.16,13.41.04-.73.54-1.58.58-2.3.25-.1.52-.31.58-.58.04-.17-.02-.38,0-.58s0-.38,0-.58,0-.38,0-.58,0-.38,0-.58c0-.38,0-.77,0-1.15.25-.09.53-.31.58-.58.03-.18-.02-.39,0-.58.03-.38,0-.77,0-1.15.25-.1.52-.31.58-.58.04-.17-.02-.38,0-.58s0-.38,0-.58-.01-.39,0-.58c.03-.38-.02-.77,0-1.15.19-.17.37-.1.58-.58.06-.14-.04-.38,0-.58.04-.18,0-.39,0-.58s0-.38,0-.58v-.58c.25-.1.52-.31.58-.58.04-.19-.05-.42,0-.58s-.05-.39,0-.58c.04-.17.54-.39.58-.58s-.04-.39,0-.58c.07-.34-.04-.78,0-1.15.25-.1.52-.31.58-.58.04-.17-.02-.38,0-.58s0-.38,0-.58,0-.38,0-.58c.25-.45.39-.51.58-1.15.05-.17-.04-.39,0-.58.04-.17-.02-.38,0-.58.4-.02.45-.27.58-.58.06-.14-.04-.37,0-.58.03-.18-.02-.39,0-.58.19-.17.45-.2.58-.58.1-.3-.1-.84,0-1.15.29-.2.35-.04.58-.58.06-.14-.04-.38,0-.58.04-.18-.02-.39,0-.58.03-.12.51-.33.58-.58.05-.18-.04-.39,0-.58s-.05-.41,0-.58c.1-.32-.09-.83,0-1.15l.58-.58c.03-.19-.04-.39,0-.58s-.03-.39,0-.58c.04-.15.52-.36.58-.58.05-.18-.05-.4,0-.58Z"/>
  <path class="b" d="M455.33,92.75c.16.05.38-.04.58,0,.18.03.39-.03.58,0,.13.04.33.52.58.58.18.04.39-.04.58,0,.03.39.25.47.58.58v.58c-.16-.07-.41.07-.58,0s-.42.07-.58,0-.4.06-.58,0c-.35-.13-.85-.37-1.15-.58-.44-.31-.8-.75-1.15-1.15v-.58c.17.06.41-.06.58,0,.03.39.25.47.58.58Z"/>
  <path class="b" d="M450.14,90.45c.18-.01.39-.02.58,0,.12.03.32.5.58.58.04.18-.04.39,0,.58h-1.15c-.22-.54-.28-.38-.58-.58-.11-.07-.38.05-.58,0v-.58c.16-.06.38.04.58,0,.17-.04.38.02.58,0Z"/>
  <path class="b" d="M464.54,100.24c.22.16.39.38.58.58s.42.37.58.58c.33.44,1,1.29,1.15,1.73h-1.15c-.11-.08-.86-.87-1.15-1.15-.02-.2.05-.45,0-.58-.2-.47-.44-.42-.58-.58-.09-.1-.49.1-.58,0-.02-.17-.03-.41,0-.58.03-.2-.06-.43,0-.58.35.22.84.34,1.15.58Z"/>
  <path class="b" d="M477.79,93.9c-.02.19.02.39,0,.58,0,.06,0,1.09,0,1.15-.18-.21-.38-.39-.58-.58v-.58l-.58-.58c.19-.15.39-.51.58-.58.11.27-.03.65.58.58Z"/>
  <path class="b" d="M470.88,106.58c.04.18-.05.4,0,.58.11.38.5.8.58,1.15h-.58c-.14-.4-.51-.47-.58-.58-.2-.32-.41-1.01-.58-1.15.13-.22.5-.4.58-.58l.58.58Z"/>
  <path class="b" d="M444.38,112.91c.02.2-.04.42,0,.58.25.91.9,1.24,1.15,1.73.11.21.47.38.58.58.2.37.35.8.58,1.15.09.14-.09.45,0,.58.15.22.45.38.58.58.22.33.37.95.58,1.15.19.18.27.36.58.58,0,.19-.01.39,0,.58s-.02.39,0,.58c.02.2-.05.42,0,.58.08.27.31.48.58.58.04.18-.05.4,0,.58.11.38.53.83.58,1.15h-.58c-.13-.31-.17-.55-.58-.58-.09-.12.09-.45,0-.58-.24-.32-.27-.34-.58-.58-.11-.08-.39.07-.58,0-.2-.18-.39-.38-.58-.58s-.38-.38-.58-.58-.37-.4-.58-.58c-.03-.19.04-.4,0-.58-.05-.19.06-.42,0-.58-.1-.26-.47-.41-.58-.58-.14-.22-.43-.37-.58-.58s-.4-.38-.58-.58-.38-.39-.58-.58c-.44-.44-.75-1.34-1.15-1.73l1.73-2.3h.58Z"/>
  <path class="b" d="M444.96,81.81c.01.19-.02.39,0,.58s-.04.39,0,.58h-.58c-.03-.39-.22-.49-.58-.58-.17-.04-.38.02-.58,0,.05-.66.58-1.09.58-1.15l1.15.58Z"/>
  <path class="b" d="M479.52,91.6c-.02-.19.04-.39,0-.58s.03-.39,0-.58h.58c-.15.64.19.69-.58,1.15Z"/>
  <path class="b" d="M482.98,100.24h.58v.58c-.33-.08-.78.05-1.15,0-.18-.02-.39,0-.58,0-.01-.19,0-.38,0-.58h1.15Z"/>
  <path class="b" d="M445.54,130.77c.02.19-.02.39,0,.58h-.58c.04-.2-.06-.45,0-.58.1-.21.39-.4.58-.58.04.18-.03.38,0,.58Z"/>
  <path class="b" d="M444.96,121.55c.07.17-.07.42,0,.58.14.3.17.55.58.58h.58c.54.75,1.19,2,1.73,2.88l.58.58c.37.67.93,1.62,1.15,2.3.05.16-.03.38,0,.58.03.19-.02.39,0,.58v.58c-.36-.06-.81.08-1.15,0-.19-.04-.42.05-.58,0,0-.19.01-.39,0-.58s.02-.39,0-.58c-.05-.37.04-.77,0-1.15l-1.1.31c.59-.99.05-1.39-.62-2.04-.19-.19-.37-.4-.58-.58v-.58c-.16-.4-.42-.76-.58-1.15-.2-.52-.26-.67-.58-1.15-.15-.22-.38-.39-.58-.58v-.58h1.15Z"/>
  <path class="b" d="M443.81,106c.2.64.39.42.58.58.16.14.31.53.58.58v.58c-.38-.14-.79-.49-1.15-.58-.19-.05-.41.06-.58,0-.22-.36-.46-.43-.58-.58v-.58c.28.08.78-.03,1.15,0Z"/>
  <path class="b" d="M431.14,63.38h-.58c-.09-.11.09-.43,0-.58.19.01.38,0,.58,0,.04.18-.05.4,0,.58Z"/>
  <path class="b" d="M450.72,131.92l.58.58c0,.18.04.4,0,.58-.04.18.03.39,0,.58-.34-.11-.85-.37-1.15-.58-.2-.14-.36-.43-.58-.58v-1.15h.58c.11.27.39.39.58.58Z"/>
  <path class="b" d="M448.42,111.18c0-.37-.02-.62,0-1.15h.58l-.58,1.15Z"/>
  <path class="b" d="M464.54,140.56l.58.58v.58c-.35-.07-.77-.45-1.15-.58-.04-.18.02-.39,0-.58s.02-.39,0-.58c.19-.02.39.01.58,0,.04.18-.03.39,0,.58Z"/>
  <path class="b" d="M433.44,72.02v.58c-.19-.02-.39.02-.58,0s-.39.03-.58,0v-.58c.19,0,.38,0,.58,0s.38,0,.58,0Z"/>
  <path class="b" d="M425.38,145.74h-1.15c.62-.06-.08-.36,1.15,0Z"/>
  <path class="b" d="M426.53,146.32c-.19-.03-.39.02-.58,0s-.4.04-.58,0v-.58c.19.05.43-.07.58,0,.19.09.38.41.58.58Z"/>
  <path class="b" d="M457.06,122.13c.18.37.46.78.58,1.15-.19-.05-.44.07-.58,0-.29-.15-.41-.46-.58-.58-.21-.14-.37-.48-.58-.58-.14-.07-.29-.46-.58-.58-.05-.18.04-.39,0-.58s.04-.4,0-.58h.58c.32.6.85,1.12,1.15,1.73Z"/>
  <path class="b" d="M459.94,126.16c-.38,0-.77,0-1.15,0-.19-.25-.44-.4-.58-.58-.16-.21-.41-.37-.58-.58-.04-.19.05-.41,0-.58-.05-.18.06-.41,0-.58s.05-.4,0-.58h.58c.28,1.31.95,1.9,1.73,2.88Z"/>
  <path class="b" d="M345.31,131.92c-.19.02-.39-.04-.58,0v-.58c.17.03.41.02.58,0,0,.19.02.39,0,.58Z"/>
  <path class="b" d="M462.24,129.04l.58,1.15c.03.19-.04.41,0,.58h-.58c-.17-.05-.42.07-.58,0-.13-.3-.17-.55-.58-.58-.04-.18.03-.39,0-.58v-.58h1.15Z"/>
  <path class="b" d="M417.89,65.1c.19.03.39-.04.58,0,.03.4.27.45.58.58.04.17,0,.39,0,.58h-1.15l-.58-.58c-.19-.03-.39.03-.58,0v-1.15c.18.04.4-.05.58,0,.14.24.11.58.58.58Z"/>
  <path class="b" d="M434.59,131.92c.21.35.35.89.58,1.15-.67-.14-1.12-.35-1.73-.58v-.58c.19,0,.39-.02.58,0s.4-.04.58,0Z"/>
  <path class="b" d="M432.86,129.62v1.15c-.57-.18-.51-.66-.58-1.15-.03-.2.05-.41,0-.58h.58v.58Z"/>
  <path class="b" d="M507.17,157.84c-.09-.09-.53.09-.58,0-.18-.19-.35-.44-.58-.58-.06-.14.04-.38,0-.58h.58c.24.32.34.87.58,1.15Z"/>
  <path class="b" d="M488.16,148.62c0,.2-.05.44,0,.58.09.26.53.45.58.58.08.15-.07.42,0,.58.14.29.16.56.58.58.09.13-.08.42,0,.58.2.38.1.38.58.58.02.19-.04.39,0,.58-.38-.02-.77.01-1.15,0-.61-1.33-1.25-2.64-1.73-4.03.2-.14.42-.54.58-.58.07.25.53.44.58.58Z"/>
  <path class="b" d="M520.99,215.44c0,.19-.02.39,0,.58-.19-.02-.39.02-.58,0-.04-.18.03-.39,0-.58s.02-.39,0-.58c.18.04.39-.03.58,0-.03.18,0,.39,0,.58Z"/>
  <path class="b" d="M523.3,206.22c-.18-.04-.39.02-.58,0-.06-.18.07-.42,0-.58.19.01.39-.01.58,0v.58Z"/>
  <path class="b" d="M305.57,138.83h.58c-.03.39-.25.47-.58.58-.16.05-.38-.04-.58,0-.17.04-.39,0-.58,0,0-.19.04-.4,0-.58h1.15Z"/>
  <path class="b" d="M521.57,183.18c.19,0,.38,0,.58,0s.38,0,.58,0,.38,0,.58,0v.58c-.52,0-1.08.58-1.15.58-.19,0-.38,0-.58,0-.31,0-.88-.57-1.15-.58-.03-.18.02-.39,0-.58h1.15Z"/>
  <path class="b" d="M524.45,207.38v.58c-.17-.07-.42.07-.58,0s-.41.07-.58,0v-1.15h.58l.58.58Z"/>
  <polygon class="b" points="427.1 120.98 426.53 120.4 427.1 120.4 427.1 120.98"/>
  <path class="b" d="M428.83,122.7c.05.18-.05.4,0,.58-.3-.09-.79.06-1.15,0,0-.19-.05-.45,0-.58.12-.31-.07-.57.58-.58.08,0,.35.48.58.58Z"/>
  <path class="b" d="M340.13,125.58c-.18-.04-.4.05-.58,0-.03-.18,0-.39,0-.58h.58v.58Z"/>
  <path class="b" d="M385.06,126.74c-.19-.01-.39.02-.58,0,.07-.33.24-.51.58-.58v.58Z"/>
  <path class="b" d="M334.37,130.77c-.18-.04-.39.02-.58,0v-.58h.58c0,.19,0,.38,0,.58Z"/>
  <path class="b" d="M405.22,49.55c.19.03.39-.03.58,0v.58c-.19-.02-.39.02-.58,0s-.39.04-.58,0c-.2-.04-.45.06-.58,0-.03-.17-.01-.4,0-.58.19,0,.39-.02.58,0s.39-.03.58,0Z"/>
  <path class="b" d="M424.22,115.79l.58.58c.33.47.58,1.48,1.15,2.3-.37.04-.79-.06-1.15,0-.09-.19-.44-.37-.58-.58-.47-.72-.4-.83-1.15-1.73.04-.38-.03-.77,0-1.15h.58c.19.17.42.37.58.58Z"/>
  <path class="b" d="M503.14,114.06c-.27-.08-.48-.31-.58-.58h.58c0,.19,0,.38,0,.58Z"/>
  <path class="b" d="M528.48,186.64c.45.15.38.1.58.58-.19-.02-.39.01-.58,0s-.39.02-.58,0-.39.03-.58,0l.58-.58c.18.04.41-.06.58,0Z"/>
  <path class="b" d="M530.21,203.92c.03.18-.02.39,0,.58s0,.39,0,.58c-.19-.05-.42.06-.58,0-.05-.02-.23-.57-.58-.58v-.58c.18.05.39-.04.58,0,.16.04.38-.01.58,0Z"/>
  <path class="b" d="M533.66,194.13c.19.02.39-.03.58,0l.58.58c.19.03.39-.04.58,0l.58.58c-.04.18,0,.39,0,.58s0,.38,0,.58h-.58c-.19,0-.38,0-.58,0,.05-.18-.05-.4,0-.58.03-.08.72-.1.57-.57-.38-.04-.78.04-1.15,0-.19-.02-.39.01-.58,0-.16-.1-.31-.43-.58-.58-.15-.08-.44.09-.58,0v-.58c0-.19,0-.38,0-.58h.58l.58.58Z"/>
  <path class="b" d="M523.87,192.98c.03.19-.04.39,0,.58-.19-.04-.39.04-.58,0-.02-.38.01-.77,0-1.15h.58c0,.19-.03.4,0,.58Z"/>
  <path class="b" d="M524.45,194.13s-.44.04-.58-.58c.6.12.54.57.58.58Z"/>
  <path class="b" d="M526.18,194.13c.19.02.39,0,.58,0h1.73c.2.1.37.48.58.58.13.06.29.46.58.58.15.06.38-.05.58,0,.18.04.39-.03.58,0s.39-.02.58,0c.1.25.31.52.58.58.2.04.42-.06.58,0,.19.58.67.51,1.15.58.21.14.37.46.58.58.19.11.35.43.58.58.17.11.31.47.58.58v.58c0,.19,0,.38,0,.58h-4.03c-.09-.22-.43-.39-.58-.58-.39-.5-.4-.85-1.15-1.15-.15-.06-.38.04-.58,0-.17-.19-.1-.37-.58-.58-.14-.06-.38.04-.58,0-.18-.04-.39.01-.58,0-.1-.26-.31-.5-.58-.58-.18-.05-.41.06-.58,0-.44-.72-.93-.42-1.15-.58-.19-.13-.35-.42-.58-.58-.08-.13.08-.41,0-.58-.07-.15.06-.4,0-.58.19.02.39-.02.58,0,.37.05.77-.03,1.15,0Z"/>
  <path class="b" d="M420.77,111.18c.04.18-.02.39,0,.58s0,.39,0,.58c-.19-.02-.38,0-.58,0l-.58-.58v-.58c.2-.16.37-.45.58-.58.11.27-.03.65.58.58Z"/>
  <path class="b" d="M470.88,46.67c-.16-.05-.38.02-.58,0-.03-.18,0-.39,0-.58h.58c-.04.17.02.38,0,.58Z"/>
  <path class="b" d="M284.26,38.61h-.58c.1-.1-.1-.47,0-.58.19,0,.39-.02.58,0v.58Z"/>
  <path class="b" d="M283.1,39.18v-.58c.19-.02.39,0,.58,0-.18.19-.44.4-.58.58Z"/>
  <path class="b" d="M479.52,59.34h-.58c.03-.19-.02-.39,0-.58h.58v.58Z"/>
  <path class="b" d="M291.74,31.12c-.17-.05-.39.05-.58,0,.07-.12-.05-.38,0-.58.16-.05.38.02.58,0,.04.18-.02.39,0,.58Z"/>
  <path class="b" d="M456.48,65.1h-.58c-.02-.19.01-.39,0-.58h.58c.07.17-.08.43,0,.58Z"/>
  <path class="b" d="M522.14,219.47c.06.25.54.45.58.58.04.18-.02.39,0,.58s0,.39,0,.58.01.39,0,.58.02.39,0,.58c-.02.2.05.42,0,.58h-.58c-.12-.21-.41-.38-.58-.58-.02-.38.03-.77,0-1.15-.02-.2.05-.44,0-.58-.12-.32-.18-.55-.58-.58-.01-.19.03-.39,0-.58h1.15Z"/>
  <path class="b" d="M313.06,104.27c-.31.49-1.86,2.58-1.73,2.88-.38-.3-.39-.82-.58-1.15l.58-.58c.04-.18-.04-.39,0-.58.64.08.48-.4.58-.58.16-.06.4.05.58,0h.58Z"/>
  <path class="b" d="M517.54,385.94l-.58.58c-.19.02-.39-.03-.58,0-.04-.2.06-.43,0-.58h1.15Z"/>
  <path class="b" d="M538.85,196.43h.58c-.01.19.02.39,0,.58-.04.3-.47.78-.58,1.15-.53-.32-1.11-.49-1.73-.58.43-.61.37-.75,1.15-1.15.14-.07.39.05.58,0Z"/>
  <path class="b" d="M536.54,201.62c.18.04.39-.04.58,0l.57,1.73c-.51-.28-1.23-.34-1.72-.58-.11-.05-.26-.53-.58-.58.07-.33-.03-.77,0-1.15.17.03.41.02.58,0,.1.25.31.52.58.58Z"/>
  <path class="b" d="M526.18,205.07c.18.18.38.45.58.58.18.11.32.47.58.58.02.19-.01.39,0,.58l.3.58c.54.11,1.17-.56,1.43-.58.19-.01.38.01.58,0,.04.38.25.48.58.58.16.05.38-.03.58,0-.06.3.17.77-.1,1.05-.3.29-.82.03-1.05.11l-.58-.58-.29-.56-.29.56c-.09.08.09.52,0,.58-.15.09-.28.5-.58.58h-.58c-.2-.17-.38-.39-.58-.58-.14-.13-.06-.7-.58-.58-.08-.15.07-.42,0-.58-.14-.29-.16-.56-.58-.58v-.58l-.58-.58c-.05-.19.06-.43,0-.58l-.58-.58c-.03-.19.02-.39,0-.58.15.06.38-.05.58,0,.34.81.8.78,1.15,1.15Z"/>
  <path class="b" d="M524.45,224.08c0,.19-.03.4,0,.58s-.03.39,0,.58l.58.58c-.01.19,0,.38,0,.58s0,.38,0,.58h-.58l-.58-.58c-.07-.15.06-.4,0-.58-.26-.75-.78-1.37-.57-2.3l1.15.58Z"/>
  <path class="b" d="M527.33,212.56c.12.32.18.55.58.58.09.11-.09.43,0,.58.2.35.08.37.58.58v.58c-.36-.06-.78.04-1.15,0v-.58l-.58-.58-.57.3v.86c-.19-.03-.39.02-.58,0l-.58-.58v-1.73h2.3Z"/>
  <path class="b" d="M468.58,54.16c-.03-.12-.53-.33-.58-.58.28.21.46.5.58.58Z"/>
  <path class="b" d="M534.24,205.07c.18.19.35.43.58.58-.05.37.06.79,0,1.15-.19-.02-.39.02-.58,0s-.39.01-.58,0c-.23-.48-.44-.43-.58-.58-.09-.1-.47.1-.58,0v-.58c.14,0,.4-.55.58-.58.36-.06.8.06,1.15,0Z"/>
  <path class="b" d="M336.67,773.01l-2.62-.54-.25-4.64c3.3-.22,3.02,2.78,2.87,5.18Z"/>
  <path class="b" d="M339.26,746.52c2.18,2.12,1.93,4.6-.58,6.31-2.61-1.75-1.09-4.36.58-6.31Z"/>
  <path class="b" d="M336.1,758.03c1.36.39,5.55,5.58,3.12,6.3-3.39,1-2.6-4.11-3.12-6.3Z"/>
  <path class="b" d="M453.07,624.92c-.57-.76.44-3.69.53-4.84.06-.81-1.38-4.03,1.43-3.16,1.76.54-.29,6.1.22,7.7-.18,1.21-1.99.57-2.18.31Z"/>
  <path class="b" d="M550.94,764.08c.02-.16.7-1.51.86-1.44,2.88,2.01.81,5.19.82,7.78,0,2.22.99,4.35.62,6.62h-1.72c.38-.9-.58-2.15-.58-2.6,0-3.05-.41-7.57,0-10.37Z"/>
  <path class="b" d="M205.34,686.61c.57,2.64-2.67,3.1-4.03,1.43-.36-1.73,2.99-1.54,4.03-1.43Z"/>
  <path class="b" d="M213.13,717.72c1.93-.38,1.89,4.34.56,4.6-1.93.38-1.89-4.34-.56-4.6Z"/>
  <path class="b" d="M182.3,650.31c-.64.78-6.83,1.13-5.19-2.3l4.93.54.26,1.75Z"/>
  <path class="b" d="M73.43,555.86c.5,1.67.83,2.91.34,4.66-.41,1.45-1.8,1.3-2.35,2.27-.38.67.61,2.02-.85,2.29l1.24-8.26,1.63-.96Z"/>
  <path class="b" d="M71.71,660.11c-1.25.29-1.28-.7-1.85-1.31-.7-.76-5-5.64-2.46-6.17.93-.19,5.26,6.37,4.31,7.48Z"/>
  <path class="b" d="M186.34,641.68c.32,1.39-.28.94-.76,1.28-2.19,1.58-4.23,2-6.94,1.52l-.86-.86v-3.01c3.88-2.52,5.07.95,8.56,1.07Z"/>
  <path class="b" d="M59.48,639.52c.24.29,1.88,2.78,2.45,3.58.98,1.37,1.42,2.99,2.87,4.07-.07,1.6-1.6,1.53-2.87,1.43.08-4.58-5.2-7.28-7.24-10.91-.4-.72-2.29-4.54.02-4.06,1.42.29,1.44,3.57,2.32,4.6.71.82,2.06.84,2.44,1.3Z"/>
  <path class="b" d="M265.25,773.01c-4.82,1.11-4.03-2.94-5.41-4.08-1.3-1.08-4.32-.12-3.81-3.65.46-3.22,4.09-.43,5.77-3.2-1.14,3.36,1.64,3.7,2.19,5.01.22.53,1.48,5.71,1.27,5.93Z"/>
  <path class="b" d="M177.7,622.1c.77,1.01,1.42,1.5,2.3,2.3.19.17.38.39.58.58s.35.42.58.58c-.07.16.07.42,0,.58-.02.04-.59.05-.57.28.21.47.93.62,1.14.87.35.4.52.97,1.15,1.15.06.15-.04.38,0,.58.06.26.32.48.58.58.07.17-.08.43,0,.58.3.55.76,1.23,1.15,1.73.34,2.16-1.62.79-2.28.26-2.86-2.33-2.69-6.83-6.36-6.59-.76,3.7.96,3.89,2.52,5.82.38.47.45,1.28.96,1.92.86,1.07,2.97,1.07,2.27,3.77l-5.48-4.64c-1.33,0-1.26,1.75-2.41,2.22-1.43.59-6.54,1.93-7.66.4,1.21-.99,3.05-.56,4.35-1.4,1.71-1.1,1.08-4.07,3.7-4.93-1.42-1.89-4.26.16-5.74-1.73,1.33-.34,2.19-2.58,2.86-2.92.85-.44,2.05.59,3.08.28.98-.29,1.18-2.86,3.26-2.26Z"/>
  <path class="b" d="M192.1,664.14l4.63-4.31-.96-1.4c-1.83-.55-5.39,3.1-8.06,1.14-1.36-1,.98-2.53-1.75-2.7s-4.53,1.89-7.12,1.52c-.53-1.14,2.91-2.51,3.45-2.64,1.3-.31,2.21.45,3.06.26.98-.22,1.8-2.34,3.28-2.23-1.85-1.33-1.58-4.24-2.84-5.5-.91-.91-2.26-.74-2.34-.83-1.72-1.96,5.27-3.33,6.35-2.6,2.79,5.41,6.4,10.94,10.86,15.04l-1.64,3.42c-1.42.9-3.02-.43-4.31-.31-1.09.1-1.44,1.38-2.6,1.15Z"/>
  <path class="b" d="M257.76,743.63c-.84,2.17-2.4.22-4.03.58-1.26,3.27,4.52,4.5,2.04,6.36-1.62,1.22-3.17.05-4.93-.04-.61-1.52,1.18-.97,1.17-1.43-.07-2.34-5.53-.37-7.23-2.57l-.88,2.25c-1.61-1.04-2.42.58-4,.6.91-2.25,4.45-2.41,4.03-5.18-4.2-1.1-5.6,3.44-9.52,2.93-1.51-.2-.67-2.95-3.14-2.94l.29-1.14,1.72-.02c.59,4.68,8.83.9,7.2-2.85l-4.02,1.15c-.19-1.16,1-1.52,1.16-2.62.41-2.77-2.37-5.83-5.2-5.72l8.63-3.19c.78-1.1-2.14-5.38-4.02-4.59-.74,6.34-2.68,3.38-5.35,4.12-.9.25-1.47,1.83-2.42,1.64-2.65-2.03,2.39-3.1,4.03-2.93,1.04-4-4.12-1.31-6.32-1.68-2.72-.46-1.28-2.27-1.69-4.05-.37-1.64-1.59-2.28-2.11-3.72l2.9-3.45c-2.62-3.17-4.85,3.49-7.47.57l1.75-2.33c.47-1.2-3.27-3.63-.89-4.29,2.78-.76.65,2.87,2.88,2.91,1.35-.09,3.32-.7,3.17-2.33-3.7.63-2.33-2.18-3.77-4.01-.83-1.06-4.01-3.27-5.44-3.49l.41-1.14,1.86-.94c.26-4.12-1.43-2.49-3.41-3.39-.84-.38-1.47-2.12-2.89-2.03l1.07-2.1c-.13-1.51-1.65-2.16-3.06-1.94-.34.05-5.61,3.91-5.49,1.46.04-.75,2.04-.74,2.67-1.08.7-.38,2.76-2.39,3.49-2.6,1.83-.52,3.16,3.7,4.2.23-2.86-1.54-5.77-3.43-9.13-3.26-2.95-3.84,3.1-4.56,2.79-5.96-.36-1.61-2.8-.19-3.64-.37-1.36-.31-5.43-7.54-1.25-7.98-.16-2.93-3.97.42-4.33,0,.02-3.21-2.7-6.39,1.98-7.51l2.04,1.47-2.87,2.59c1.35.19,4.75-.52,5.52.55.61.86-.4,1.93-.25,2.59.06.26,3.13,3.23,3.51,3.91,1.2,2.15,1.12,4.69,1.89,6.19.56,1.1,5.48,3.47,6.88,6.95.36.9.22,2.69.35,2.82.16.17,1.55-.2,2.55.61,1.23.99,2.37,4.99,4.26,6.15.74,3.11-6.09,2.63-5.7,4.5,2.96,3.95,4.6.12,8.06-.28l-.55,2.52c2.59.91,2.33,2.28,3.41,3.55,2.46,2.9,1.27,1.53,2.77,4.71.76,1.62,2.77,3.16,3.27,4.22s.27,2.71.84,3.63c.51.83,2.05.67,2.28,1.03s-.01,2.21.39,3.36c.76,2.2,4.11,3.01,2.57,5.78,1.72-.04,3.27,1.2,3.75-1.09.3-1.42-1.98-3.28.28-2.94.33.6.8,1.14,1.15,1.73.38.64.62,1.46,1.15,2.3l-2.89,1.45c1.28,3.58,3.37,5.43,2.89,9.5h4.03s-1.73-4.32-1.73-4.32l2.31.28c.08.09.89-.18,1.1.07.18.22-.39,1.11-.18,1.66.58,1.52,2.22,3.21,3.1,4.61Z"/>
  <path class="b" d="M175.97,619.79c-.26,3.43-3.51-.12-4.28-1.19s-2.59-6.37-4.68-3.45c-1.83,2.56,4.81,5.2,2.63,6.94-.36.29-4.84-1.64-5.19-2-.84-.86-.64-2.63-1.22-3.68l-6.87-.32c-.99-.69-.74-7.47.04-8.96-6.87,1.61-5.32-2.65-7.14-4.1-1.35-1.08-5.91.13-3.39-5,.81-1.66,3.17-1.03,3.04-3-4.98.73-2.47.42-4.33-1.71s-2.85-.32-4.63-.05c-5.14.79-4.61-3.05-1.41-5.45-1.67-2.12-4.47-2.13-6.9-2.02.09-1.81.87-3.33-.87-4.61l-3.73,1.73c.6-3.81-2.29-2.82-3.79-3.99-2.38-1.85,1.73-4.93-.63-6.43-1.65-1.05-3.15,0-4.3-.25-.24-.05-4.09-2.39-4.28-2.55-1.06-.95-.66-2.75-1.63-3.55-1.12-.93-3-.19-4.38-.81-.21-.09-3.59-2.43-3.75-2.6-.59-.61-.68-2.05-.95-2.21-.68-.42-2.53.3-3.42-.33-.76-.54-.28-2.8-1.68-3.5s-8.37-.22-10.66-.28c-.98-.03-1.95-.57-2.91-.59-2.08-.05-6.22,1.76-7.8-.22-.67-.84-.42-2.55-1.33-3.28-1.43-1.14-5.14.43-3.7-4.15.41-1.31,2.1-1.4,2.22-1.84v-1.15s-1.17-.57-1.17-.57l2.28-3.51,2.32.34c.33-2.03-.26-3.08-1.68-4.4-.32-1.73,3.72-3.13,4.41-3.82,1.51-1.5.11-4.14,4.12-3.37l2.09-4.53c.44,0,1.82,2.9,2.9,1.16l.27-2.9c3.96-.64,7.58-.02,11.51.59.27,1.22-.42,2.5-.36,3.65.21,4.31,9.48,11.71,13.09,13.89.65.39,1.48.19,1.68.31.36.2.87.35,1.15.58.67.54,1.58,2.6,2.3,3.46,2.68,3.18,5.1,6.29,8.06,9.22.71,3.62,4.33,6.36,6.59,9.25,1.66,2.13,3.39,4.88,5.03,7.07.63.85.97,1.53,2.21,1.53,2,3.55,5.51,5.99,7.22,9.79.55.75,1.29.49,2,.58.76,3.88,2.18,3.76,4.03,6.34.97,1.35,1.88,2.7,2.88,4.03,1.26,1.69,2.44,2.72,3.46,4.03.24.31.34.83.58,1.15.16.22.42.37.58.58.19.19.37.4.58.58.09.12-.09.46,0,.58,1.24,1.58,2.32,2.64,3.46,4.03,1.21,1.48,2.26,3.1,3.46,4.61l.58,1.15c1.11,1.38,1.36,2.92,2.88,4.03h.58c.05.19-.07.46,0,.58.99,1.49,1.96,3.3,2.88,4.61Z"/>
  <polygon class="b" points="303.84 790.86 304.42 790.86 304.42 791.44 302.69 791.44 302.69 790.86 303.84 790.86"/>
  <path class="b" d="M552.1,791.44h-3.46c-.46-3.31,1.53-6.17,2.59-9.2,1.5-.02.66,7.88.86,9.2Z"/>
  <path class="b" d="M189.22,791.44c.06-2.66-2.74-2.77-3.2-3.43-.66-.95.07-2.81-.33-3.42-.24-.37-2.75-.49-3.7-1.19-1.7-1.25-4.61-6.61-4.97-6.84-.5-.31-1.65.05-2.32-.25-2.43-1.07-6.69-6.97-8.45-9.45-.39-.55-.54-1.27-.67-1.93-3.05,1.44-5.01-1.25-8.11-1.98-.93-1.06.55-2.43-.18-3.79-.4-.74-1.57-.86-2.07-1.56-.73-1.03-.78-2.53-1.98-3.63-1.94-1.78-4.21-1.69-4.34-5.74-1.55-.48-.85.95-1.86,1.34-2.68,1.04-2-2.82-3.59-2.49-1.82.37-1.27,6.05-4.89,4.32-1.46-.7-6.39-5.55-5.27-7.39l-.47-.7-5.14-.34c-.64-2.09-1.39-5.17-3.95-5.57-.81-.13-1.76.56-2.47.21-.53-.26-4.7-7.18-5.93-8.21-2.35-1.98-2.03-1.27-4.41-3.94-4.3-4.82-2.5-3.36-4.31-8.93-.79-2.43-2.13-1.59-2.92-2.25-1.85-1.54-2.29-5-6.04-4.07.78-2.62-.75-7.36-2.17-9.63-1.15-1.84-3.52-2.3-4.05-5.2-.37-2.05,1.01-5.28-.4-7.07-.53-.68-1.98-.5-2.91-1.12-3.87-2.62-7.27-7.42-9.14-11.6-.65-1.45-.57-3.2-1.25-4.51-1.09-2.11-4.46-2.23-3.7-5.22,1.17-1.17,4.67,1.86,5.43,2.9,1.36,1.84,1.48,4.27,3.17,5.49,1.14.83,2.48.72,3.21,1.4.17.16,2.38,3.66,2.46,3.88.86,2.49,2.05,5.86,3.33,8.19,2.29,4.14,4.56,3.87,7.44,6.98,3.39,3.68,6.73,7.44,10.88,10.42,2.35,1.69,5.2,3.5,7.21,5.46,4.67,4.57,9.11,6.17,14.1,10.09.93.73,1.28,1.99,2.12,2.48,1.06.62,2.8.44,3.99,1.2,1.07.68,1.61,2.38,2.94,3.4,8.16,6.23,19.16,10.68,27.89,17.62,14.89,11.84,33.16,25.57,46.39,38.86,1.35,1.36,3.82,1.89,3.45,4.32-1.14.03-2.05-.46-1.73,1.15.46.37,4.5-.36,4.03,1.73h-31.1Z"/>
  <path class="b" d="M534.24,322.58h.58c-.04.38.03.77,0,1.15h-.58c-.57.03-1.16-.05-1.73,0-.19.02-.39,0-.58,0v-.58c.14-.08.4.07.58,0l.58-.58c.19.02.39-.01.58,0s.38,0,.58,0Z"/>
  <path class="b" d="M517.54,353.1c.75-.07,1.54.02,2.3,0,.19,0,.38,0,.58,0v1.15h-1.73c-.19,0-.39.02-.58,0s-.39.04-.58,0-.39.03-.58,0c-.17-.06-.35-.46-.58-.58v-.58h.58c.19-.01.39.02.58,0Z"/>
  <path class="b" d="M522.72,347.92h-1.15v-.58s.17-.53.29-.51c.49.22.67.62.86,1.08Z"/>
  <path class="b" d="M535.39,320.85h-.58c.03-.19-.02-.39,0-.58.19-.03.39.02.58,0,.69-.05-.01.53,0,.58Z"/>
  <path class="b" d="M538.27,304.14c1.06.24,1.54-.11,1.15,1.73-.38-.03-.78.04-1.15,0-.19-.02-.4.04-.58,0,.02-.19-.02-.39,0-.58v-.58c.46-.11.48-.17.58-.58Z"/>
  <path class="b" d="M519.26,355.98c.12.02.34.53.58.58.18.04.39-.04.58,0s.39-.04.58,0v1.15c-.9.15-1.57-.36-2.3-.58,0-.28-.47-.8-.58-1.15.37.05.77-.02,1.15,0Z"/>
  <path class="b" d="M36,609.42v-4.03c4.21-.97,4.04,6.13,0,4.03Z"/>
</svg>