<?xml version="1.0" encoding="UTF-8"?>
<svg id="a" data-name="b1.25" xmlns="http://www.w3.org/2000/svg" width="612" height="792" viewBox="0 0 612 792">
  <defs>
    <style>
      .b {
        fill: #0d0e0e;
      }
    </style>
  </defs>
  <path class="b" d="M336.67,773.01c.15-2.41.43-5.41-2.87-5.18l.25,4.64,2.62.54Z"/>
  <path class="b" d="M550.94,764.08c-.41,2.8,0,7.31,0,10.37,0,.44.96,1.69.58,2.59h1.72c.36-2.27-.62-4.4-.62-6.62,0-2.58,2.06-5.76-.82-7.78-.17-.07-.84,1.28-.86,1.44Z"/>
  <path class="b" d="M336.1,758.03c.51,2.19-.27,7.3,3.12,6.3,2.43-.72-1.76-5.91-3.12-6.3Z"/>
  <path class="b" d="M481.08,753.54c-2.19.65-2,8.75-1.27,10.25.84,1.74,7.2,2.14,7.76-.88.23-1.25.2-7.36-.27-8.34-.75-1.53-4.8-1.45-6.22-1.03Z"/>
  <path class="b" d="M339.26,746.52c-1.67,1.95-3.18,4.56-.58,6.31,2.5-1.71,2.76-4.2.58-6.31Z"/>
  <polygon class="b" points="357.89 750.46 358.01 745.63 352.8 746.52 354.5 750.88 357.89 750.46"/>
  <path class="b" d="M351.65,743.63c1.01-.07,6.24.65,5.76-1.43-.92-2.74-6.9.48-5.76,1.43Z"/>
  <path class="b" d="M356.78,738.4l.38-2.26c-2.35-1.84-4.09-2.26-6.08.29l5.7,1.97Z"/>
  <path class="b" d="M489.89,736.43c-.59,2.08.43,6.52,0,8.93,6.85.94,3.01-4.09,3.43-7.17.16-1.19,1.36-1.58,1.63-2.45.39-1.25.27-5.7-1.9-4.77-1.46.63-.49,3.02-.99,3.91-.17.29-1.96.77-2.18,1.55Z"/>
  <path class="b" d="M348.77,718.87c-1.86,1.87,8.15,3.21,4.26-1.13l-4.26,1.13Z"/>
  <path class="b" d="M350.49,710.8c.08-1.45.34-3.57-1.72-3.46.51,2.09-2.52,3.2-2.83,4.44-.28,1.12.96,1.8,1.11,2.8.2,1.36-.84,2.84-.58,4.27h1.72c-1.39-2.1,2.85-2.35,2.87-3.16-1.47-1.33-.74-3.37-2.88-4.03l.31-1.45,2,.59Z"/>
  <path class="b" d="M483.55,698.7l-4.53-.5c-.61,1.14-.61,2.38-.68,3.64-.17,2.93-.44,13.09.29,15.32.84,2.59,2.89,1.67,4.92,1.12v-19.58Z"/>
  <polygon class="b" points="492.48 694.68 491.01 697.23 492.48 699.27 493.95 696.72 492.48 694.68"/>
  <path class="b" d="M453.07,624.92c.2.26,2,.91,2.18-.31-.51-1.6,1.54-7.16-.22-7.7-2.81-.87-1.37,2.35-1.43,3.16-.09,1.15-1.1,4.08-.53,4.84Z"/>
  <path class="b" d="M503.71,551.54v-8.64c-3.27-3.44-2.68,7.27-1.76,8.67.58.88,1.54.9,1.76-.03Z"/>
  <path class="b" d="M503.1,538.54c2.78-7.39-4.2-7.99-1.74-.31l1.74.31Z"/>
  <path class="b" d="M543.32,356.69c-.83.13-2.37.52-2.66,1.39-.27.78-.28,8.11-.09,9.14.47,2.5,6.65,2.71,7.4.47.29-.86.3-8.01.1-9.12-.39-2.11-3-2.16-4.74-1.88Z"/>
  <path class="b" d="M549.75,317.36c.66-1.11,1.26-5.59-.81-5.15-1.87,1.26-1.69,2.92-.92,4.85l1.74.3Z"/>
  <path class="b" d="M524.45,355.98c1.42-2.24,4.82,1.96,6.91,1.15l-.3-5.79c6.41-2.78,4.28-6.76-2.25-4.64l-.59-.51c-2.52-3.61-2.49-6.7-1.46-10.94l3.45,1.15-.57-4.03c1.01-.17,3.83-.24,4.48-.71.69-.5,2.26-5.28,3.59-5.94,1.84-.92,5.42,2.59,6.3-.05.65-1.97-1.53-2.84-1.55-3.37-.01-.36,2.92-5.39,3.17-6.5.56-2.45-.46-5.54-.12-7.12.22-1.01,1.69-1.96,1.84-3.16.54-4.28-4.3-4.64-1.99-10.16.47-1.11,1.46-1.42,1.85-2.2.48-.95-.72-2.87,2.32-2.9,2.68-.03,1.66,1.86,2.29,3.52.38.98,1.47,2.24,1.44,3.18-.03,1.08-1.13,1.39-1.43,2.01-.89,1.86.45,3.59,1.15,2.3l.85-2.89c-.43,1.88.52,3.79.57,5.47.17,5.74.24,10.92-.03,16.68-.1,2.15.83,4.12-.05,5.99-5.87-.31-2.42,3.59-2.33,6.69.05,1.62-.87,4.06-.54,5.98l-3.36.68c.51,2.64.11,6.49.54,8.92.25,1.42,1.59,1.19,1.93,2.14,1.65,4.49-1.74,18.85-.74,24.88.26,1.55,1.59,2.4,1.69,3.5.15,1.57-1.03,3.25-.45,5.62.26,1.09,1.44,1.95,1.52,2.52.1.68-.95,1.38-1.04,2.23-.34,3.1-.52,8.36,1.12,10.92-6.43,3.22-.93,3.4-.07,4.39.18.21.66,4.78.66,5.4,0,1.72-1.14,3.5-1.18,5.21-.03,1.24.68,2.41.59,3.41-.1,1.17-1.54,2.05-1.63,2.99-.08.89,1.12,1.62,1.38,2.47,1.03,3.33-.88,6.5-.91,9.57-.07,5.82.56,11.96.57,17.8.04,35.69-.32,71.03.05,106.56.19,18.5,1.05,36.74,1.15,55.34.17,30.54,1.94,62,.53,92.68-.09,1.95-.36,4.94.6,6.65-.13,7.67.07,15.37,0,23.04-.14,14.66-.19,29.41-.01,44.07.01.97-.37,2.56.59,3.16.02,2.7.33,5.38,0,8.06h-2.88c-.21-1.32.64-9.23-.86-9.2-1.06,3.04-3.05,5.89-2.59,9.2h-142.85c.05-1.8-1.74-1.92-2.53-2.94-.99-1.27-2.62-5.36-3.38-6.13-.64-.64-2.46-.69-3.02-1.88-.63-1.33,0-2.86-.39-4.21-.25-.87-1.56-1.57-2.1-2.51-1.47-2.55-2.44-7.12-5.85-6.54,1.69-3.85-1.91-4.17-3.47-6.18-.79-1.02-1.35-3.6-2.46-4.58-1.02-.91-3.45-1.05-3.91-1.7-1.2-1.67-.33-7.57-4.55-5.39.37-2.74-1.71-2.8-2.8-4.4s-1.09-4.16-2.11-5.38c-.7-.84-5.97-3.39-7.79-4.89s-4.86-7.32-6.31-2.04l2.79.08c1.05,2.62-.53,3.75,1.34,6.45s1.66.32,2.96.48c1.42.18,2.69,1.87,2.13,3.36-5.03-1.22-3.54,5.35-3.46,8.64-2.07-.36-6.2,2.14-6.7,4.02l-.13.8c3.19,2.12.46,4.28.74,5.6.55,2.59,8.9,7.31,7.82,1.68,3.74.41.76,8.11,1.24,9.97.24.95,2.21,1.64,1.64,3.28-1.11,1.12-5.45-4.43-8.08-2.61l-.58,1.73c.12.65,3.53.44,1.81,4.68-.72,1.77-2.07.52-2.79-.63l1.02-2.33c-.98-3.3-4.22.32-6.55-.23-.77-.18-.54-2.38-1.91-2.82-.55-.18-3.49-.67-3.07.76.13.26,4.28,3.35,4.63,3.46,1.29.41,1.83-.88,3.47.53s.37,2.19.81,3.19c.85,1.96,4.82,4.78,4.36,7.48l2.86,1.18h-24.77l-6.63-15.01c-.53-.57-2.24-.02-3.16.03,0-.5-.36-.45-.58-.58-.02-.2.05-.42,0-.58-.08-.27-.31-.48-.58-.58,0-1.14-.07-2.32,0-3.46,4.17-1.53,3.28-9.59,4.16-13.41.35-1.53,1.24-3.83,1.76-5.73.58-2.14,5.19-14.56,4.45-15.42-.54-.1-1.27.12-1.73,0,.14-.54.43-1.06.58-1.73.04-.18-.04-.39,0-.58,1.33,3.32,3.83-2.21,3.19-3.46-.3-.58-.99-.79-1.47-1.15.06-.16-.05-.39,0-.58.06-.22.5-.58.58-1.15,1.87,2.28,3.47-4.16,3.51-4.91.07-1.23-.58-.72-1.21-.85.09-.11-.08-.4,0-.58.02-.04.47-.08.58-.58.07-.31,0-.78,0-1.15.38-.04.48-.25.58-.58.05-.17-.04-.38,0-.58s-.03-.39,0-.58c.47-.26.41-.83.58-1.15.1-.19.51-.37.58-.58.06-.18-.06-.42,0-.58.07-.17-.07-.42,0-.58.3-.05.56-.26.58-.58,0-.19,0-.38,0-.58.38-.81,1.28-1.68,1.73-2.88.06-.16-.05-.39,0-.58.25-.1.52-.31.58-.58.04-.18-.03-.39,0-.58s-.03-.39,0-.58c.25-.1.52-.31.58-.58.04-.18-.02-.39,0-.58.02-.2-.05-.42,0-.58.12-.19.41-.35.58-.58.34-.47.4-.88.58-1.15.13-.21.46-.37.58-.58.16-.3.35-.59.56-.87l-.56-.29c.46-.85,1.4-1.49,1.73-2.3.06-.16-.06-.4,0-.58.59-.21.92-.58,1.15-1.15.07-.17-.07-.42,0-.58.08-.16-.08-.43,0-.58.11-.19.47-.35.58-.58.32-.67,1.1-1.04,1.15-1.15,1.13,1.63,2.8-1.84,3.01-2.45.86-2.59-.14-2.95-.13-3.88,0-.19-.02-.39,0-.58.12-.19.43-.35.58-.58.38-.56.77-1.2,1.15-1.73.72-.99,2.01-2.13,2.2-2.41s-.5-.88-.47-1.04c.08-.48-.01-.55,0-.58.41-.85.97-.9,1.15-1.15s.86-.3,1.15-1.15c.05-.16-.04-.38,0-.58.55-.59.4-.85.58-1.15.11-.2.48-.36.58-.58.07-.16-.07-.42,0-.58.24-.19.38-.35.58-.58.15-.17.49-.31.58-.58.09-.3-.06-.79,0-1.15,1.13-1.13,1.13-1.02,2.3-2.88.36-.58.35-1.29.58-1.73.09-.19.46-.35.58-.58.1-.19.47-.36.58-.58.17-.33.54-.89.58-1.15.03-.19-.02-.39,0-.58.54-.25.89-.62,1.15-1.15.07-.15-.07-.41,0-.58.17-.39.39-.77.58-1.15.07-.15-.07-.41,0-.58.08-.18.5-.37.58-.58.04-.11.47-.28.58-.58.06-.17-.06-.4,0-.58s-.06-.4,0-.58-.05-.39,0-.58c.1-.41.4-1.01.58-1.73.19-.18.43-.35.58-.58.31-.46.38-.81.58-1.15.12-.21.5-.39.58-.58.06-.16-.06-.4,0-.58.23-.64.42-.71.58-1.73.25-.1.52-.31.58-.58.04-.17-.02-.38,0-.58.1-.13.39-.13.58-.58.06-.14-.03-.37,0-.58.41,0,.43-.3.58-.58.12-.23-.1-.83,0-1.15.01-.04.54.1.58-.58.01-.19,0-.38,0-.58.2-.38.36-.78.58-1.15.05-.09.45-.17.58-.58.05-.16-.02-.38,0-.58.02-.16.04-.42,0-.58.39-.03.47-.25.58-.58.06-.17-.06-.4,0-.58s-.06-.41,0-.58c.07-.17-.07-.42,0-.58.16-.35.39-.68.58-1.15.07-.19.49-.37.58-.58.35-.81,1.08-1.99,1.15-2.88.02-.26-.23-.68-.58-.58.1-.32-.11-.88,0-1.15.04-.09.52-1.06.58-1.15.12-.19.44-.35.58-.58.04-.07.83-.77,1.15-1.15.46-.53.5-1.67.93-1.77,4.41.41,8.97.19,13.47.04,4.24-.13,8.46.06,12.67-.58h.58c1.84.62,3.35-.88,4.61-1.15,4.58-.97,7.74-1.82,12.1-3.46,4.96-1.87,8.56-3.49,12.67-6.91,1.46-1.21,2.81-2.56,4.03-4.03,1-1.2,2.48-2.33,2.3-4.03.57-.15,1.25-.18,1.73-.58-.01.9-.42,2.4,1.16,1.45,1.77-1.07,6.59-12.42,5.75-13.55-.38-.04-.77.04-1.15,0,.03-.18,0-.39,0-.58.4-.01.47-.25.58-.58.09-.26-.03-.78,0-1.15.25-.09.53-.31.58-.58.03-.18-.02-.39,0-.58.03-.38-.02-.77,0-1.15,0-.19,0-.38,0-.58l.58-.58c.18-.05.41.06.58,0,.4-.14.75-.43,1.15-.58-.18,2.14.59.82,1.44.58.89-.26,2.65-.6,3.15-.88,2.29-1.28,2.86-10.34,3.6-13.1.35-1.29,1.31-2.57,1.77-3.99,3.96-12.18,7.99-24.98,13.51-36.6l1.29-9.94c2.06-.44.24,1.75,2.25,2.02,5.15.68.78-10.39,1.17-11.99.15-.61,1.37-.67,1.79-1.21,1.96-2.54,2.77-7.93,3.86-10.56.58-1.4,2.72-2.98,3.33-4.74.97-2.82-.14-8.12,3.72-3.48l1.17-10.36c1.42-1.34,3.25,5.55,4.32,5.75,1.47.28,2.15-5.59,1.93-6.52-.46-1.89-4.19-1.11-3.25-5.73.68-3.37.8-4.75,2.05-7.76,4.13-9.92,9.12-21.34,14.08-30.87.47-.9,1.61-.88,1.95-2.07.42-1.51-.21-2.54-.06-3.6.14-.99,1.2-.89,1.4-1.49,1.65-4.92,3.43-15.65,3.49-20.88,0-.38,0-.77,0-1.15,3.51-3.36,1.21-7.27,1.71-11.25s1.07-7.88,1.16-12.08c.04-1.71.34-6.21-.52-7.4-.35-.49-1.63-.55-2.39-1.19-2.4-2.01-1.28-4-1.72-6.36-.66-3.57-.63-4.85-.93-8.28-.35-3.92-2.83-3.87-3.07-5.86.75,0,1.56.07,2.3,0,.37.42.28,1.59.96,1.75,1.03.24,4.99.28,5.34-.95l-.55-2.52c-2.43.64-2.97,1.47-5.75,1.72-.24-.28-.95-1.07-1.15-1.15v-2.88s2.87,1.15,2.87,1.15l.6-3.72-1.16-.31v-1.15c.18.04.39-.02.58,0s.39,0,.58,0c.69,0,1.36.28,2.03.39.4.04.2-.23.27-.39l.56-.29-.56-.29Z"/>
  <path class="b" d="M73.44,782.22l-3.42-7.23-2.34-.82c-.91.9,3.02,8.88,5.75,8.06Z"/>
  <path class="b" d="M97.11,771.91c-1.5,4.59,6.32,2.63,6.3.24l-1.54-1.93-4.76,1.69Z"/>
  <path class="b" d="M80.35,774.73c.21-2.25-.94-4.9-3.45-4.6l-.53,3.98,3.98.62Z"/>
  <path class="b" d="M265.25,773.01c.22-.21-1.05-5.4-1.27-5.93-.55-1.32-3.33-1.66-2.19-5.01-1.68,2.77-5.31-.02-5.77,3.2-.5,3.53,2.51,2.58,3.81,3.65,1.39,1.15.59,5.19,5.41,4.08Z"/>
  <path class="b" d="M84.38,764.37l-.88-3.45-2.32,1.14c-.05,1.94,1.44,2.61,3.19,2.31Z"/>
  <path class="b" d="M78.04,756.3c.49-3.97-1.77-3.38-3.66-4.68-1.02-.71-1.7-1.79-2.84-2.35-1.46-.72-5.7-1.81-6.17.42-.36,1.68,3.15,1.37,4.05,2.29.65.66.48,1.92.57,2.01.31.3,1.78-.52,2.49-.41s5.11,3.21,5.55,2.72Z"/>
  <path class="b" d="M76.89,737.87c.54-3.14-1.29-2.51-3.09-3.53-.89-.51-2.38-2.82-3.55-1.09-1.94,2.85,4.81,4.61,6.64,4.63Z"/>
  <path class="b" d="M104.54,733.84c.34-1.57-1.57-3.78-3.05-3.39l-1.55,1.38c1.25,1.65,2.46,2.37,4.59,2.01Z"/>
  <path class="b" d="M63.06,724.62c-.08-1.19,1.95-2.89.59-3.76l-4.61-.27c.66.62,3.13,4.69,4.02,4.02Z"/>
  <path class="b" d="M213.13,717.72c-1.33.26-1.37,4.98.56,4.6,1.33-.26,1.37-4.98-.56-4.6Z"/>
  <path class="b" d="M205.34,686.61c-1.03-.11-4.39-.3-4.03,1.43,1.35,1.67,4.6,1.22,4.03-1.43Z"/>
  <path class="b" d="M71.71,660.11c.95-1.11-3.38-7.68-4.31-7.48-2.54.53,1.76,5.41,2.46,6.17.57.62.6,1.6,1.85,1.31Z"/>
  <path class="b" d="M182.3,650.31l-.26-1.75-4.93-.54c-1.64,3.43,4.55,3.08,5.19,2.3Z"/>
  <path class="b" d="M192.1,664.14c1.16.23,1.51-1.06,2.6-1.15,1.29-.11,2.9,1.21,4.31.31l1.64-3.42c-4.46-4.1-8.07-9.63-10.86-15.04-1.07-.73-8.07.64-6.35,2.6.08.09,1.43-.08,2.34.83,1.26,1.27.99,4.17,2.84,5.5-1.48-.11-2.3,2.01-3.28,2.23-.85.19-1.76-.57-3.06-.26-.55.13-3.98,1.5-3.45,2.64,2.59.37,4.51-1.68,7.12-1.52s.38,1.7,1.75,2.7c2.67,1.96,6.23-1.69,8.06-1.14l.96,1.4-4.63,4.31Z"/>
  <path class="b" d="M186.34,641.68c-3.49-.12-4.68-3.59-8.56-1.07v3.01s.86.86.86.86c2.71.48,4.75.06,6.94-1.52.48-.34,1.08.11.76-1.28Z"/>
  <path class="b" d="M59.48,639.52c-.38-.46-1.74-.48-2.44-1.3-.88-1.03-.9-4.31-2.32-4.6-2.32-.47-.43,3.34-.02,4.06,2.04,3.63,7.32,6.33,7.24,10.91,1.27.1,2.8.18,2.87-1.43-1.45-1.09-1.9-2.7-2.87-4.07-.57-.8-2.21-3.29-2.45-3.58Z"/>
  <path class="b" d="M73.43,555.86l-1.63.96-1.24,8.26c1.46-.28.47-1.63.85-2.29.55-.97,1.94-.81,2.35-2.27.5-1.75.17-2.99-.34-4.66Z"/>
  <path class="b" d="M99.94,273.61c.49.42,1.61-.89,2.1-.99.73-.14,6.5,1.57,5.96-1.02-2.92-3.73-4.89.55-8.06-.02-.72.25-.07,1.96,0,2.02Z"/>
  <path class="b" d="M87.21,261.58c-3.63-1.15-3.76,4.1-1.29,5.04s2.12-3.75,1.29-5.04Z"/>
  <path class="b" d="M138.31,115.84c-2.11.68-.67,5.15,2.51,3.7,2.26-1.03-.3-4.42-2.51-3.7Z"/>
  <path class="b" d="M139.11,94.49c.54,6.23,6.34.41,3.08-.54l-3.08.54Z"/>
  <path class="b" d="M151.78,80.66c3.69,2.68,2.4,3.8-1.73,3.13l-1.15,3.2c3.37-1.48,5.45.28,8.66.84.77.52.8,4.81.48,5.72-.37,1.05-1.98.68-2.72,1.89s-.37,3.17-.8,4.39c-.32.92-1.34,1.22-1.59,2.44s0,2.72.07,3.95c2.27,2.16,6.55,2.58,6.87-1.34l4.57.25.48,1.38c-1.77.17-.8,2.7-2.2,3.83l2.29,2.01c-4.71-.79-2.5,3.41-5.75,4.39-1.76.53-3.28-1.99-4.03-.06-1.08,2.77,3.15.64,3.44.85.14.11.84,1.95.02,2.59-1.52,1.18-5,.18-7.16.34-.88.07-5.55,1.04-5.83,1.68-.96,2.21,2.77,1.08,3.2,3.17.28,1.38.23,18.04-.08,18.93l-4.02,1.74-1.06,3.55c-3.65.27-4.82,1.26-3.49,4.86-1.67-.94-5.13.62-5.97.47-1.92-.33-1.09-3.56-2.32-4.56-1.51-1.05-5.13-.64-6.16.88-.61.89-.34,2.12-.65,2.51-.19.24-4.64,2.33-5.33,3.02-.93.92-2.09,3.94-3.65,5l.9,28.71c-.31,1.74-4.54-.72-5.07,3.4l.03,46.68-.95,1.36c-6.82-.93-11.16,1.09-6.79,8.11.75,1.2,2.88,2,3.03,2.68.23,1.01-1.35,2.86.04,4.62,1.53,1.93,7.95-.18,9.02,1.35l.29,11.78-7.52,2.08,1.73,2.87c-2.58.51-5.14-.25-7.74.06-.97.12-2.38.25-2.05,1.67-.57.03-1.18-.07-1.73,0-.26-3.11-4.77-1.11-6.28-.24-1.19.69-2.97,2.92-4.11,3.38-.97.4-2.75.21-2.85.31s.04,2.02-.27,2.9c-.46,1.31-2.28,2.81-2.52,3.87-.44,1.92.11,6.02-.62,9.1-.23.97-1.1.83-1.18,1.24-1.13,5.23-2.11,10.32-2.58,15.75-.31,3.62-.5,6.93-.85,10.68-.23,2.48-.84,7.26,1.68,8.31h.58c.01.57-.03,1.16,0,1.73.02.38-.03.77,0,1.15.13,1.65.42,3.67,1.15,5.18v1.15c-.03,2.89.63,5.82,1.15,8.64-2.05,1.87-.92,7.2,1.73,8.06,1.17,5.47,2.31,9.14,4.03,14.4.06.17-.06.4,0,.58.8,2.37,1.53,5.39,2.3,7.49.14.37.55.52.58.58.21.52.2,1.22.58,1.73.42.58.43.75,1.15,1.15.06.18-.07.42,0,.58-3.17,2.52,1.41,9.52,4.61,10.37.1.17.77.52,1.15,1.15-1.48,3.33,1.68,4.59,3.13,6.95.78,1.27.21,3.96,2.63,3.99,3.74,7.49,6.18,7.91,10.94,13.25.07.08.91,1.37,1.15,1.73.3.44-.15,2.06,1.74,2.71.55,2.26-1.05,3.96-1.47,5.92-3.17,14.69-3.83,27.77-5.46,42.64-.57,5.16-.66,13.17-1.74,18.04-.1.46-1.06.16-1.19,1.22-.23,1.81.72,3.87.52,5.1-.17,1.03-1.37,1.78-1.61,3.02-.48,2.53-.1,6.58-.62,9.17-.25,1.23-1.49,2.06-1.58,2.98s.54,1.6.45,3.09c-3.11,3.63-1.81,9.12-2.72,13.45.31,1.95,6.14,6.44,7.9,7.86,1.51,1.8,2.88,3.05,4.61,4.61-.21-.12-1.03.08-1.68-.31-3.61-2.18-12.88-9.58-13.09-13.89-.06-1.14.63-2.42.36-3.65-3.93-.61-7.55-1.23-11.51-.59l-.27,2.9c-1.08,1.74-2.46-1.16-2.9-1.16l-2.09,4.53c-4-.77-2.61,1.88-4.12,3.37-.69.69-4.74,2.1-4.41,3.82,1.43,1.32,2.01,2.37,1.68,4.4l-2.32-.34-2.28,3.51,1.17.57v1.15c-.12.44-1.81.53-2.22,1.84-1.44,4.58,2.27,3.01,3.7,4.15.91.73.66,2.44,1.33,3.28,1.57,1.98,5.72.17,7.8.22.97.02,1.94.57,2.91.59,2.28.06,9.19-.46,10.66.28s.92,2.96,1.68,3.5c.89.64,2.73-.09,3.42.33.27.17.36,1.6.95,2.21.16.16,3.54,2.5,3.75,2.6,1.38.62,3.25-.13,4.38.81.97.81.57,2.6,1.63,3.55.19.17,4.03,2.5,4.28,2.55,1.16.25,2.65-.81,4.3.25,2.36,1.5-1.75,4.58.63,6.43,1.5,1.17,4.39.18,3.79,3.99l3.73-1.73c1.75,1.28.96,2.8.87,4.61,2.44-.11,5.23-.1,6.9,2.02-3.2,2.4-3.72,6.23,1.41,5.45,1.78-.27,2.77-2.08,4.63.05s-.64,2.44,4.33,1.71c.13,1.97-2.22,1.34-3.04,3-2.52,5.13,2.04,3.92,3.39,5,1.81,1.45.27,5.71,7.14,4.1-.78,1.49-1.03,8.27-.04,8.96l6.87.32c.58,1.05.37,2.82,1.22,3.68.36.36,4.83,2.29,5.19,2,2.19-1.75-4.46-4.38-2.63-6.94,2.09-2.92,3.92,2.4,4.68,3.45s4.02,4.62,4.28,1.19c.45.64,1.24,1.66,1.73,2.3-2.09-.61-2.29,1.97-3.26,2.26-1.03.31-2.23-.72-3.08-.28-.67.34-1.53,2.58-2.86,2.92,1.48,1.89,4.32-.16,5.74,1.73-2.61.86-1.99,3.83-3.7,4.93-1.3.84-3.15.41-4.35,1.4,1.11,1.53,6.22.19,7.66-.4,1.15-.47,1.08-2.22,2.41-2.22l5.48,4.64c.71-2.7-1.41-2.7-2.27-3.77-.51-.64-.58-1.44-.96-1.92-1.56-1.94-3.28-2.12-2.52-5.82,3.67-.23,3.5,4.26,6.36,6.59.66.53,2.62,1.9,2.28-.26,1.77,2.23,4.01,4.63,5.76,6.91,1.17,1.52,2.26,3.08,3.46,4.61,1.38,1.78,3.31,5.01,4.61,6.34.2.2.37.38.58.58.01.2-.05.44,0,.58.27.71.93,1.2,1.45,1.72.55-.32-.22-.69-.29-1.14.54.46,1.54.02,2.3,1.73-.31.05-.56.26-.58.58,0,.19-.04.45,0,.58.08.22.43.39.58.58.06.19-.07.42,0,.58.32.74,3.27,4.34,4.03,5.18.18.2.39.38.58.58.07.16-.07.41,0,.58.1.24.35.44.58.58.2.42-.18.64.58,1.15.11.07.38-.05.58,0,.06.17-.07.42,0,.58.5,1.18.93,1.88,1.73,2.88v.58c.09.66.94.87,1.15,1.15.38.51.65,1.1,1.15,1.73.41.52.73,1.28,1.15,1.73.2.21-.02.49.58.58.03.2-.06.43,0,.58.32.83,1.12,1.08,1.15,1.15.07.17-.07.42,0,.58.33.69.79,2.41,1.15,2.88.17.22.28.48.58.58.06.18-.07.43,0,.58.8,1.65,1.71,1.95,2.3,2.88l-.57.28,1.72,1.44c.18.28.53,1.32,1.15,2.3.42.67.95.88,1.15,1.15.25.33-.37.92,1.15,2.3.27.24.91.34,1.15.58.18.18.44.38.58.58.09.13-.09.45,0,.58,1.02,1.44,2.22,3.52,2.88,5.18v.58l1.15,1.15c.06.17-.07.42,0,.58.16.38.36.8.58,1.15.44.73.85.8,1.15,1.15.18.21.4.37.58.58.09.14-.09.45,0,.58.16.23.42.38.58.58.16.21.39.39.58.58s.37.39.58.58c.05.19-.07.46,0,.58.18.26-.07.42.58.58.04.2-.06.44,0,.58.13.27.47.41.58.58.14.22.44.37.58.58.15.22.44.37.58.58.23.34.36.79.58,1.15.45.75,1.11,1.08,1.15,1.15.19.34.34.73.58,1.15.21.37.36.79.58,1.15.08.14-.08.43,0,.58s-.08.43,0,.58c.97,1.7,2.61,3.69,3.46,5.18.18.32.52.48.58.58,1.35,2.4,2.13,5.08,3.46,7.49-2.26-.34.02,1.52-.28,2.94-.48,2.29-2.04,1.05-3.75,1.09,1.54-2.77-1.8-3.58-2.57-5.78-.4-1.15-.14-2.99-.39-3.36s-1.78-.2-2.28-1.03c-.57-.92-.32-2.53-.84-3.63s-2.5-2.6-3.27-4.22c-1.51-3.19-.32-1.81-2.77-4.71-1.07-1.27-.82-2.63-3.41-3.55l.55-2.52c-3.45.39-5.09,4.23-8.06.28-.4-1.87,6.44-1.38,5.7-4.5-1.9-1.16-3.03-5.16-4.26-6.15-1-.81-2.39-.45-2.55-.61-.12-.13.02-1.92-.35-2.82-1.4-3.48-6.32-5.85-6.88-6.95-.77-1.5-.69-4.03-1.89-6.19-.38-.68-3.45-3.65-3.51-3.91-.15-.66.86-1.73.25-2.59-.76-1.07-4.17-.36-5.52-.55l2.87-2.59-2.04-1.47c-4.68,1.12-1.96,4.31-1.98,7.51.36.43,4.17-2.92,4.33,0-4.19.45-.11,7.68,1.25,7.98.83.19,3.28-1.23,3.64.37.31,1.4-5.74,2.12-2.79,5.96,3.36-.17,6.27,1.72,9.13,3.26-1.03,3.47-2.37-.75-4.2-.23-.73.21-2.79,2.22-3.49,2.6-.62.34-2.63.33-2.67,1.08-.12,2.45,5.15-1.41,5.49-1.46,1.41-.22,2.93.43,3.06,1.94l-1.07,2.1c1.42-.1,2.05,1.64,2.89,2.03,1.98.9,3.67-.73,3.41,3.39l-1.86.94-.41,1.14c1.43.22,4.61,2.43,5.44,3.49,1.44,1.83.07,4.64,3.77,4.01.15,1.63-1.81,2.24-3.17,2.33-2.22-.04-.1-3.67-2.88-2.91-2.39.65,1.35,3.08.89,4.29l-1.75,2.33c2.62,2.93,4.86-3.73,7.47-.57l-2.9,3.45c.53,1.44,1.74,2.08,2.11,3.72.4,1.78-1.03,3.59,1.69,4.05,2.19.37,7.35-2.32,6.32,1.68-1.64-.17-6.68.9-4.03,2.93.95.19,1.52-1.39,2.42-1.64,2.67-.74,4.61,2.22,5.35-4.12,1.88-.79,4.79,3.49,4.02,4.59l-8.63,3.19c2.82-.1,5.61,2.95,5.2,5.72-.16,1.1-1.35,1.47-1.16,2.62l4.02-1.15c1.63,3.75-6.61,7.53-7.2,2.85l-1.72.02-.29,1.14c2.48,0,1.63,2.75,3.14,2.94,3.92.51,5.32-4.03,9.52-2.93.43,2.77-3.11,2.93-4.03,5.18,1.58-.02,2.39-1.63,4-.6l.88-2.25c1.7,2.2,7.16.23,7.23,2.57.01.46-1.78-.09-1.17,1.43,1.76.08,3.31,1.26,4.93.04,2.48-1.87-3.3-3.09-2.04-6.36,1.63-.36,3.19,1.59,4.03-.58,4.22,6.7,7.02,13.96,11.52,20.74.41.62,1,.93,1.15,1.15,1.5,2.21.89,2.5,2.88,4.03s1.62,3.97,4.61,5.76v.58c.37.7,1.11.82,1.73,1.15.33.18.63.61,1.15.58.61.63,1,1.13,1.73,1.73,3.75,3.09,9.92,6.03,14.4,8.06.39.18.76.4,1.15.58,1.32.59,3.08,1.11,4.61,1.73v1.73h-82.37c.47-2.09-3.57-1.36-4.03-1.73-.32-1.61.59-1.12,1.73-1.15.37-2.43-2.1-2.96-3.45-4.32-13.23-13.3-31.5-27.02-46.39-38.86-8.72-6.94-19.73-11.38-27.89-17.62-1.33-1.02-1.87-2.72-2.94-3.4-1.19-.76-2.93-.58-3.99-1.2-.85-.49-1.19-1.75-2.12-2.48-4.99-3.92-9.43-5.52-14.1-10.09-2.01-1.96-4.86-3.77-7.21-5.46-4.15-2.98-7.49-6.74-10.88-10.42-2.87-3.11-5.15-2.84-7.44-6.98-1.28-2.32-2.47-5.7-3.33-8.19-.07-.22-2.29-3.72-2.46-3.88-.73-.67-2.07-.57-3.21-1.4-1.69-1.22-1.8-3.65-3.17-5.49-.77-1.04-4.26-4.07-5.43-2.9-.76,3,2.6,3.11,3.7,5.22.68,1.31.61,3.06,1.25,4.51,1.87,4.17,5.27,8.98,9.14,11.6.92.62,2.37.44,2.91,1.12,1.4,1.79.02,5.02.4,7.07.53,2.9,2.9,3.36,4.05,5.2,1.42,2.27,2.95,7.01,2.17,9.63,3.75-.93,4.19,2.53,6.04,4.07.79.66,2.13-.18,2.92,2.25,1.81,5.57,0,4.11,4.31,8.93,2.39,2.67,2.06,1.97,4.41,3.94,1.23,1.03,5.4,7.95,5.93,8.21.71.35,1.66-.34,2.47-.21,2.56.4,3.31,3.48,3.95,5.57l5.14.34.47.7c-1.12,1.84,3.81,6.69,5.27,7.39,3.62,1.73,3.08-3.95,4.89-4.32,1.59-.33.91,3.54,3.59,2.49,1.01-.39.31-1.82,1.86-1.34.14,4.05,2.4,3.96,4.34,5.74,1.2,1.09,1.25,2.6,1.98,3.63.5.7,1.67.82,2.07,1.56.73,1.36-.75,2.73.18,3.79,3.1.73,5.07,3.42,8.11,1.98.12.65.28,1.38.67,1.93,1.76,2.48,6.02,8.38,8.45,9.45.67.29,1.82-.07,2.32.25.36.23,3.27,5.59,4.97,6.84.95.7,3.46.83,3.7,1.19.4.61-.33,2.47.33,3.42.45.66,3.26.77,3.2,3.43h-123.26c1.74-2.89-.2-2.56-.82-3.48-1.1-1.61-2-3.14-3.5-4.58s-5.49-5.4-6.52-1.89c-1.44,4.89,3.77,3.75,5.97,5.33,1.06.76,2.72,3.28,3.15,4.62h-28.22v-9.79c3.07.34,1.32,5.58,5.19,3.16l-5.19-7.19v-168.19c4.04,2.1,4.21-5,0-4.03v-222.91l12.3.04.95-5.23c-4.6.23-8.8-.53-13.25-1.15v-118.08c1.56.07,3.93.34,4.49-1.56.91-3.09-.78-14.69.37-16.34,1.98-1.52,7.51.72,8.68-1.69.45-.92.57-16.68.17-18.03-.68-2.3-3.87-.9-4.42-2.5l-.36-16.34-4.32-2.01v-9.79l.86-.86h9.79l1.38,3.81,4.02,1.74c.72,3.16-.92,14.76.6,16.68,1.37,1.74,6.07.18,8.16,1.06,1.5,1.04-.56,6.94,1.35,8.44,1.79,1.41,7.13-.37,8.17,1.06l-.25,6.58,4.85,2.06c1.21,4.2-2.14,9.3,4,9.3s3.17-5.01,3.74-9.26c4.86.79,3.23-2.42,4.29-4.07.63-.97,3.59.1,4.24-2.1.59-2-.33-11.85.11-12.27,1.54.06,3.93.38,4.5-1.55.32-1.08.32-7.35,0-8.41-.58-1.92-3.06-1.26-3.67-2.09-.4-.56-.42-4.11-.26-4.94.38-1.89,1.65-1.11,2.86-1.74,3.26-1.71-1.83-9.81,4.63-9.2.51-.25.88-.72,1.04-1.26,1.04-3.51-.36-11.75.1-16.03.2-1.87,1.73-3.09.89-4.87-.34-.72-1.63-1.15-1.91-2.14-.3-1.05.1-2.29-.2-3.25-.33-1.06-2.48-1.16-2.21-2.39,1-1.52,2.11-.49,3.45-.29.85-.82-.02-12.9.61-15.24.56-2.06,3.44-2.79,2.01-5.53-6.61-2.54,2.67-2.87.29-7.41l5.72-2.63c-1.83-1.76-.24-3.74.01-6.05.24-.1.38-.43.58-.58.57-.42.76-.42,1.15-1.15.07-.13-.06-.38,0-.58.74.22,2.03-.61,1.74.87l-2.61,3.16.59,1.15,5.13-1.09c.82-.55-.25-4.36-.24-5.83,0-.04.53-.18.58-.58.02-.19-.03-.39,0-.58,1.29-.11,2.21,2.23,3.44.29-1.28-1.33-2.14-2.86-.56-4.32.34.06.77-.03,1.15,0v1.15c.75.29,1.98-.6,2.3-.57.26.02.91,1.89,2.28,1.14l.89-2.28,2.02,5.17c3.64-1.64,6.51-2.78,4.9-7.5-2.66-1.34-4.21-2.03-5.48-5.17.64,0,1.68-.01,2.05-.55,1.25-1.78-.78-4.21,4.62-4.63l-.33-4.05c.48-.12,1.24.12,1.73,0,.27-.07.49-.31.58-.58l.57-.86-.57-.29c-.19-.02-.39.03-.58,0v-.58c-.02-.38.03-.77,0-1.15-.01-.19.02-.39,0-.58.93-1.37,2.58-1.15,4.03-1.15-.35.64-.44,1.97-.71,2.2-.7.59-2.88-.87-.84,2.84,2.12.25,3.21,4.09,4.66.2,1.37-3.68.68-5.25-3.11-5.25.92-1.67,1.87-2.48,2.88-4.03.19-.02.39.02.58,0,.95-.08,1.93.08,2.88,0,.61-.05,1.2-.28,1.73-.58Z"/>
  <path class="b" d="M517.54,307.6c-.06.17.06.4,0,.58-.44.02-.45.27-.58.58-.19-.02-.39.04-.58,0,.01-.2-.04-.41,0-.58.05-.2-.07-.46,0-.58.37-.04.8.06,1.15,0Z"/>
  <path class="b" d="M519.26,309.33v.58h-1.15c.12-.39.43-.76.58-1.15.19.01.38,0,.58,0v.58Z"/>
  <path class="b" d="M428.26,430.86c1.32.39,1.6.85,2.3,1.15-.43,3.43-3.77,1.92-6,2.35-5.55,1.06-9.08,3.46-14.95,1.6-.75-.24-.88-.97-.93-1.64l.58-1.15h.58c.77-.2,1.38-1.04,1.73-1.73,6.69-.85,9.96-2.58,16.7-.58Z"/>
  <path class="b" d="M457.63,516.11v-.58l.58-.28c.38.64-.56.75-.58.86Z"/>
  <path class="b" d="M469.73,446.99h-.58v-.58c.15.17.51.28.58.58Z"/>
  <path class="b" d="M372.96,506.32c.85-.05,2.46-.36,1.45,1.16s-3.63,1.39-3.18-1.16c.53-.09,1.2.09,1.73,0Z"/>
  <path class="b" d="M533.09,312.21c-.2-.04-.42.05-.58,0,.1-.27.3-.5.58-.58v.58Z"/>
  <path class="b" d="M130.46,408.98h-.58c.25-.01.55.01.58,0Z"/>
  <path class="b" d="M132.77,406.67c-.41-.19-.39-.12-.58-.58h.58c-.02.19.02.39,0,.58Z"/>
  <path class="b" d="M341.28,317.39c.09-.12-.09-.45,0-.58l.57.29-.57.28Z"/>
  <path class="b" d="M345.31,319.7c.09.12-.09.43,0,.58-.37.05-.82-.08-1.15,0v-.58c.17.05.38-.04.58,0,.18.04.39-.02.58,0Z"/>
  <path class="b" d="M348.77,318.54l-1.15,1.15c-.19.03-.39-.02-.58,0v-.58c.05-.19-.07-.45,0-.58l.58-.58h.58c.1.15.51.27.58.58Z"/>
  <path class="b" d="M482.4,338.7c-.92-.14-1.41-.8-3.17-.61-1.64.18-2.69,1.29-4.32,1.18l.08-2.81c2.37.48,6.5-2.76,8.32-1.28,1.05.86,1.39,3.57,1.99,4.79.44.89,1.5.32,1.76,2.44.7,5.74-4.77,5.02-5.15,2.83-.13-.73,1.94-3.95.5-5.97h.58l.58-.58c-.03-.84-.55,0-.58,0-.19-.03-.39.03-.58,0Z"/>
  <path class="b" d="M519.84,219.47c.03.38-.02.77,0,1.15,0,.19,0,.38,0,.58-.19,0-.39,0-.58,0-.12-.41.16-1.06-.58-1.15,0-.19,0-.38,0-.58h1.15Z"/>
  <path class="b" d="M129.89,406.1c.44-.2.36-.04.58-.58l.57.28-.86.86-.28-.57Z"/>
  <path class="b" d="M325.73,319.12c.01.18.03.4,0,.58h-.58c-.06-.36.04-.78,0-1.15v-.58c.77.21.54.58.58,1.15Z"/>
  <path class="b" d="M332.06,317.39h-.58l-.58-.58c-.19-.03-.39.04-.58,0v-2.3c2.09-.14,1.56,1.56,1.73,2.88Z"/>
  <path class="b" d="M493.92,350.8v1.73c-.24.14-.39.44-.58.58-.2.15-.38.4-.58.58s-.41.37-.58.58c-.27.32-.67.44-1.15,1.15-.15.07-.4-.06-.58,0-.4.14-.76.42-1.15.58,0-.58,0-1.15,0-1.73,1.76.52,3.68-2.67,4.03-4.03h.58v.58Z"/>
  <path class="b" d="M520.99,230.42v1.15c-.39-.16-.75-.44-1.15-.58v-.58c.19,0,.39-.02.58,0s.39-.03.58,0Z"/>
  <path class="b" d="M129.31,409.55c-.19.02-.39,0-.58,0v-.58h.58c0,.19,0,.38,0,.58Z"/>
  <path class="b" d="M513.5,373.26c-.27.27-.92-.53-.29-.58.2-.01.42.45.29.58Z"/>
  <path class="b" d="M513.5,362.32c.19-.03.39.01.58,0l-.29.56-.29-.56Z"/>
  <path class="b" d="M512.93,362.32c-.17.06-.37.43-.58.58-.12-.07-.37.05-.58,0-.18-.04-.39.03-.58,0,0-.19,0-.38,0-.58.19-.03.4.04.58,0,.27-.07.48-.32.58-.58.19,0,.38-.01.58,0v.58Z"/>
  <path class="b" d="M525.6,277.65l-.58-.58h.58c-.02.18-.01.39,0,.58Z"/>
  <path class="b" d="M130.46,411.86c-.18-.04-.39.03-.58,0v-.58l.58.58Z"/>
  <path class="b" d="M127.01,411.28c-.09-.14.09-.46,0-.58.14.07.38-.05.58,0-.08.27-.31.48-.58.58Z"/>
  <path class="b" d="M133.92,409.55v.58c0,.19.02.39,0,.58-.03.3-.47.78-.58,1.15v.58c-.62,0-1.2.27-1.73.58-.04-.18.06-.41,0-.58-.21-.62-.57-.54-.58-.58-.03-.18.01-.39,0-.58l.58-.58c.19-.04.42.06.58,0,.26-.1.39-.39.58-.58s.44-.3.58-.58c.06-.13-.04-.37,0-.58l.58.58Z"/>
  <path class="b" d="M516.96,414.74c-.27-.27.53-.92.58-.29.01.2-.45.42-.58.29Z"/>
  <path class="b" d="M516.96,412.43c.03-.17,0-.39,0-.58h.58c-.16.57-.29.41-.58.58Z"/>
  <path class="b" d="M518.11,403.79c-.27.57-.5.96-1.15,1.15-.02-.19.04-.4,0-.58-.04-.2.06-.43,0-.58h1.15Z"/>
  <path class="b" d="M531.36,294.35c.96.62,2.21.76,2.88,1.15.07.04.78.83,1.15,1.15.2.17.37.4.58.58-.04.18.03.39,0,.58s.02.39,0,.58,0,.39,0,.58c-.35-.1-.88-.57-1.15-.58-.05-.19.06-.43,0-.58-.32-.78-.6-.76-1.15-1.15-.12-.09-.42.08-.58,0-.19-.1-.36-.44-.58-.58-.17-.12-.3-.44-.58-.58-.13-.06-.37.04-.58,0-.13-.25-.38-.39-.58-.58s-.38-.39-.58-.58c-.01-.2.04-.43,0-.58h.58c.18.2.35.43.58.58Z"/>
  <path class="b" d="M135.07,408.4c.38-.03.81.06,1.15,0,.06.34-.03.77,0,1.15h-1.15c.08-.31-.03-.78,0-1.15-.38.03-.78-.04-1.15,0v-1.15c.59-.17.5-.67.58-1.15h.58c-.03.76.05,1.54,0,2.3Z"/>
  <path class="b" d="M512.35,439.5c-.08-.28-.27-.54-.58-.58.03-.19-.04-.39,0-.58h.58c0,.21.25-.04,0,1.15Z"/>
  <path class="b" d="M495.07,482.13c-.25.64-.53.63-1.15.58.18-.3.27-.68.58-1.15l.58.58Z"/>
  <path class="b" d="M514.08,435.47c-.32.61-1.12.9-1.73,1.15,0-.38-.02-.77,0-1.15h1.73Z"/>
  <path class="b" d="M501.41,467.15c-.1.37-.43.76-.58,1.15l-1.15-.58c.04-.18-.03-.39,0-.58.14-.05.37.02.58,0,.38-.03.77.02,1.15,0Z"/>
  <path class="b" d="M497.38,477.52c-.17.79-1.36,1.65-1.73,2.3l-1.15-1.15c.04-.16,0-.38,0-.58.4-.02.45-.27.58-.58h2.3Z"/>
  <path class="b" d="M455.9,587.54c.37.05.78-.04,1.15,0,.35,1.46-1.11,2.71-1.15,2.87l-.28-.46-.87.46c.01-.19,0-.38,0-.58.4-.02.45-.27.58-.58.06-.15-.04-.38,0-.58.04-.18-.03-.39,0-.58s-.02-.39,0-.58c.19.02.39-.02.58,0Z"/>
  <path class="b" d="M461.66,568.53v-1.15c.43-.02.45-.27.58-.58.06-.14-.04-.38,0-.58.04-.18-.02-.39,0-.58.41-.19.39-.12.58-.58.06-.14-.04-.38,0-.58.37-.05.78.04,1.15,0,.22-.21-.55-.83-.57-1.15-.02-.19.01-.38,0-.58s0-.38,0-.58c.23-.14.39-.46.58-.58.37-.22.77-.38,1.15-.58-.6,1.77-1.59,6.79-2.89,7.84-.42.34-.54-.35-.57-.35Z"/>
  <path class="b" d="M458.78,574.86h1.15c-.68,2.99.21,6.83-2.88,8.06-.07-.42-.06-.63-.58-.58,0-.38,0-.77,0-1.15.27-.1.5-.3.58-.58.05-.16-.02-.38,0-.58.4-.02.45-.27.58-.58.06-.15-.04-.38,0-.58.39-.03.47-.25.58-.58.05-.16-.04-.38,0-.58.03-.19-.04-.39,0-.58s-.05-.4,0-.58-.05-.4,0-.58c.17-.19.45-.36.58-.58.08-.14-.09-.53,0-.58Z"/>
  <path class="b" d="M485.28,501.14c-.08,2.51-1.05,4.35-1.64,7.32-.2.99.45,2.23-1.24,1.9.31-1.14.7-2.15-.58-2.88.04-.17-.02-.38,0-.58.89-.25.4-1.4.58-1.73.22-.41.39-.69.58-1.15.07-.17.51-.36.58-.58.09-.29-.06-.79,0-1.15.2-.04.42.05.58,0,.29-.1.4-.41.58-.58.05-.05.68.07.58-.58Z"/>
  <path class="b" d="M490.46,487.89c3.48.41-.6,3.15-.79,3.61-.25.63-.71,4.7.78,3.88v1.14c-1.86-.21-3.41,1.88-3.44,3.66l-1.16-.78c.02-.19-.04-.4,0-.58s-.05-.4,0-.58-.05-.4,0-.58-.05-.4,0-.58c.02-.07.49-.25.58-.58.02-.06.39-.55.58-1.15.05-.16-.04-.38,0-.58.04-.18-.02-.39,0-.58.56-.18.53-.66.58-1.15.02-.18.02-.4,0-.58.11-.1.29.12.58-.58.05-.12,0-.38,0-.58s0-.38,0-.58c.21-.17.39-.38.58-.58.17-.18.49-.35.58-.58.06-.15-.05-.38,0-.58.2-.04.43.06.58,0,.31-.13.56-.14.58-.58.03-.19-.04-.39,0-.58Z"/>
  <path class="b" d="M529.63,326.61c-.17,1.96-.28,3.88-.84,5.78l-3.19.56.58,2.29c-3.1-.22-2.08,2.92-3.7,4.08-1.29.92-2.5.37-3.79.53.06-.36-.05-.79,0-1.15.25-.15.55-.17.58-.58v-.58c.23-.16.38-.42.58-.58.21-.17.37-.41.58-.58.55-.45.75-.75,1.15-1.15.49-.49,1.36-1.27,1.73-1.73.24-.3.34-.83.58-1.15.13-.18.41-.33.58-.58.14-.21.45-.36.58-.58.09-.16.47-.31.58-.58.06-.15-.05-.38,0-.58.17-.21.4-.37.58-.58s.39-.38.58-.58c.1-.1-.09-.46,0-.58.22-.12.37-.44.58-.58.08-.09.5.09.58,0,.17-.2.4-.37.58-.58.16-.18.47-.3.58-.58.19,0,.38,0,.58,0Z"/>
  <path class="b" d="M305.57,790.86c.21.17.4.37.58.58h-1.73v-.58h1.15Z"/>
  <path class="b" d="M461.66,98.51l1.15-.57c.22.56-.58,1.08-.57,1.15-.2-.18-.38-.38-.58-.58Z"/>
  <path class="b" d="M460.51,97.36c-.3-.25-.89-.34-1.15-.58-.25-.22-.96-.93-1.15-1.15-.24-.28-.35-.81-.58-1.15.16.07.42-.07.58,0,1.13.51,1.96,1.77,2.87,2.59l-.57.29Z"/>
  <path class="b" d="M464.54,99.66v.58c-.32-.24-.8-.35-1.15-.58.09-.24.49-.41.58-.58l.58.58Z"/>
  <path class="b" d="M455.9,95.06c-.19.02-.39-.03-.58,0v-.58l.58.58Z"/>
  <path class="b" d="M452.45,91.02c.12.03.33.51.58.58.18.05.39-.04.58,0,.03.39.25.47.58.58v.58c-1.08.34-2.1-.46-2.88-.58-.04-.18.04-.39,0-.58s.04-.39,0-.58c.17.05.38-.04.58,0,.17.04.39,0,.58,0Z"/>
  <path class="b" d="M466.85,103.7c-.18-.07-.45.08-.58,0v-.58h.58c.06.17-.06.41,0,.58Z"/>
  <path class="b" d="M472.03,95.63v.58c-.19-.03-.39.04-.58,0s-.39,0-.58,0v-.58c.19,0,.38.01.58,0s.39.01.58,0Z"/>
  <path class="b" d="M451.87,96.21c.18.07.38.51.58.58.4.14.75.44,1.15.58.16.05.38-.04.58,0,.06.2.45.38.58.58.23.36.37.78.58,1.15-.96.07-1.59.56-1.73.58-.19.02-.39-.02-.58,0-.13-.22-.44-.37-.58-.58-.44-.66-.2-.75-1.15-1.73-.18-.19-.37-.43-.58-.58-.17-.12-.31-.42-.58-.58-.04-.17,0-.39,0-.58.17.06.4-.06.58,0,.4.13.76.43,1.15.58Z"/>
  <path class="b" d="M448.42,91.6v.58c.03.39.25.47.58.58.16.05.38-.04.58,0,.03.19-.04.39,0,.58.04.2-.07.45,0,.58.18.34.12.38.58.58v.58c-.39-.15-.76-.44-1.15-.58-.05-.19.06-.43,0-.58-.37-.89-1.36-1.4-1.73-2.3h1.15Z"/>
  <path class="b" d="M446.69,89.87c.19-.03.39.01.58,0,.62.52-.02,1.1,0,1.15h-.58c-.1-.25-.31-.52-.58-.58-.19-.04-.42.05-.58,0,.19-.58.67-.51,1.15-.58Z"/>
  <path class="b" d="M480.1,101.97c-.03-.1-.52-.29-.58-.58.44-.05.52.55.58.58Z"/>
  <path class="b" d="M476.06,93.33c.12-.57-.52-.51-.58-.58,0-.19.03-.39,0-.58.37.27.88.36,1.08.86.02.13-.49.23-.51.29Z"/>
  <path class="b" d="M458.21,82.96h.58l.58.58v.58c-.1.02-.34.48-.58.58-.23-.24-1.52-1.11-1.73-1.15v-.58h1.15Z"/>
  <path class="b" d="M465.7,92.18c.02.4.27.45.58.58.16.07.4-.06.58,0l3.46,1.73v1.15c-.19,0-.38,0-.58,0-.02-.4-.27-.45-.58-.58-.15-.06-.38.04-.58,0-.03-.39-.25-.47-.58-.58-.16-.05-.38.04-.58,0-.17-.04-.39,0-.58,0l-.58-.58c-.38-.03-.78.04-1.15,0-.13-.06-.29-.46-.58-.58.08-.15-.08-.44,0-.58s.47-.54.58-.58c.12-.04.39,0,.58,0Z"/>
  <path class="b" d="M470.88,94.48h-.58v-.58c.23.18.44.22.58.58Z"/>
  <path class="b" d="M459.36,91.02c.66-.03,1.62-1.14,2.9-.31l.56,1.46h-1.15s-.58,0-.58,0h-.58c-.13-.31-.14-.56-.58-.58-.19-.03-.39.04-.58,0-.07-.16.08-.43,0-.58Z"/>
  <path class="b" d="M458.21,89.3s.38.39.58.58.41.82.58,1.15c-.38.02-.77-.02-1.15,0-.19,0-.39-.01-.58,0s-.39-.02-.58,0-.39-.01-.58,0c.13-.51-.44-.43-.58-.58-.17-.19-.32-.49-.58-.58,0-.18.04-.4,0-.58-.04-.18.03-.39,0-.58.76.75,2.32.35,2.88.58Z"/>
  <path class="b" d="M463.97,104.85h-.58c.01-.19,0-.39,0-.58.19,0,.38,0,.58,0v.58Z"/>
  <path class="b" d="M468.58,104.27v.58c0,.19-.02.39,0,.58h-.58c-.21-.45-.16-.37-.58-.58-.02-.19.02-.39,0-.58.19.01.38,0,.58,0h.58Z"/>
  <path class="b" d="M447.26,79.5c1.75,1.3,1.02,2.23,1.15,2.88h-.58c-.11-.27-.43-.4-.58-.58-.16-.2-.38-.42-.58-.58-.2-.38-.37-.77-.58-1.15.06-.33.25-.51.58-.58.13-.03.46-.04.58,0Z"/>
  <path class="b" d="M465.7,106.58c-.19-.18-.37-.1-.58-.58h.58v.58Z"/>
  <path class="b" d="M455.33,100.82c-.15.1-.28.51-.58.58-.15.03-.42.02-.58,0-.1-.37-.44-.76-.58-1.15.69.12,1.13.37,1.73.58Z"/>
  <path class="b" d="M460.51,104.27v.58c-.36,0-.85.07-1.15,0-.05-.01-.25-.56-.58-.58,0-.19,0-.38,0-.58s-.01-.39,0-.58h.58c.25.63.52.9,1.15,1.15Z"/>
  <path class="b" d="M446.69,83.54v.58c-.18,0-.4.04-.58,0-.18-.04-.39.03-.58,0v-.58c.19.01.39-.01.58,0s.39-.02.58,0Z"/>
  <path class="b" d="M479.52,97.36l-.58-.58c.18-.02.39-.02.58,0v.58Z"/>
  <path class="b" d="M478.94,95.06c.01.19-.02.39,0,.58s-.04.39,0,.58-.03.39,0,.58c-.19.02-.4-.04-.58,0-.12-.26-.39-.38-.58-.58-.02-.19.01-.38,0-.58,0-.06,0-1.09,0-1.15h.58l.58.58Z"/>
  <path class="b" d="M443.23,74.9c.14.22.45.37.58.58.44.71,1.3,1.62,1.51,2.32.27.88-.36,1.07-.36,1.13-.21-.17-.37-.4-.58-.58-.18-.16-.34-.5-.58-.58-.17-.05-.39.04-.58,0-.2-.38-.39-.77-.58-1.15s-.41-.76-.58-1.15c.04-.01.21-.52.58-.58.19-.03.39.02.58,0Z"/>
  <path class="b" d="M446.69,94.48c.14.24.38.39.58.58s.36.45.58.58v.58c-.33-.1-.83-.38-1.15-.58-.14-.08-.44.09-.58,0,.06-.41-.17-.65-.58-.58-.06-.15.05-.38,0-.58h.58c.19.02.39-.03.58,0Z"/>
  <path class="b" d="M448.99,122.13c-.27-.1-.5-.3-.58-.58h.58v.58Z"/>
  <path class="b" d="M482.4,104.27c-.18-.04-.39.02-.58,0-.07-.14.05-.38,0-.58.12.09.43-.09.58,0,0,.19,0,.38,0,.58Z"/>
  <path class="b" d="M472.03,101.97c.09.13-.08.42,0,.58l.58.58c.19.03.39-.04.58,0,.04.18-.05.4,0,.58.09.35.18.55.58.58v.58c-.36.09-.77.44-1.15.58-.21-.17-.47-.54-.58-.58l.56-.29-.56-.29c-.41-.52-.72-1.26-1.15-1.73.1-.27.3-.5.58-.58.16-.05.38.03.58,0Z"/>
  <path class="b" d="M444.38,128.46v.58c-.14.01-.41.56-.58.58-.09-.26-.53-.44-.58-.58v-1.15c.19-.02.39.01.58,0l.58.58Z"/>
  <path class="b" d="M440.93,73.17c.17-.03.4,0,.58,0v.58c-.06,0-.65.64-1.15.58-.19-.03-.39.03-.58,0,.04-.18-.03-.39,0-.58l.58-.58c.19-.03.39.04.58,0Z"/>
  <path class="b" d="M481.25,92.18c.02.19-.01.39,0,.58l-1.14-.87,1.14.29Z"/>
  <path class="b" d="M480.67,98.51c0,.19,0,.38,0,.58h-.58c-.19,0-.39-.01-.58,0-.03-.18.03-.39,0-.58v-.58c.19.02.39,0,.58,0l.58.58Z"/>
  <path class="b" d="M444.96,123.86h-.58c-.05-.18.04-.39,0-.58v-.58c.32.48.37.63.58,1.15Z"/>
  <path class="b" d="M451.87,120.4c.03.19-.02.39,0,.58-.35-.2-.37-.07-.58-.58-.07-.17.07-.42,0-.58.18.05.42-.07.58,0,.04.18-.03.39,0,.58Z"/>
  <path class="b" d="M447.84,99.66v.58c-.37-.05-.77.03-1.15,0-.23-.32-.34-.9-.58-1.15.08-.25.56-.49.58-.58-.33.36.91.92,1.15,1.15Z"/>
  <path class="b" d="M441.5,108.88c.05.18-.06.41,0,.58.21.64.54,1.38,1.15,1.73.12.07.38-.05.58,0,.06.15-.05.38,0,.58.07.26.32.48.58.58v.58l-1.73,2.3c-.1-.1-.47.1-.58,0-.4-.76-.73-1.11-1.15-1.73-.09-.13.09-.47,0-.58-.19-.23-.22-.39-.58-.58-.02-.19.02-.39,0-.58s.02-.39,0-.58c0-.07.1-.3,0-1.15-.02-.19.02-.39,0-.58s.02-.39,0-.58h1.73Z"/>
  <path class="b" d="M439.2,73.17h-.58c-.03-.19.02-.39,0-.58.24.08.39.42.58.58Z"/>
  <path class="b" d="M436.32,70.29h.58c.21.17.37.4.58.58.35.31.33.81,1.15,1.15.03.18-.02.39,0,.58-.18-.06-.42.06-.58,0s-.4.06-.58,0-.42.07-.58,0c-.05-.18.07-.43,0-.58-.19-.41-.12-.39-.58-.58-.14-.06-.38.04-.58,0-.18-.04-.39.02-.58,0,0-.19.01-.39,0-.58s.01-.38,0-.58h1.15Z"/>
  <path class="b" d="M442.08,78.35c.05.18-.05.4,0,.58.06.2.46.38.58.58.22.37.38.77.58,1.15l-.58.58h-.58v-1.73c-.37-.07-.82.07-1.15,0v-1.15h1.15Z"/>
  <path class="b" d="M439.78,79.5c-.32-.12-.55-.18-.58-.58h.58v.58Z"/>
  <path class="b" d="M440.35,78.93h-.58v-.58c.55-.1.45.38.58.58Z"/>
  <path class="b" d="M455.33,78.93h-1.15c0-.37.06-.83,0-1.15h.58c.19.35.47.8.58,1.15Z"/>
  <path class="b" d="M456.48,74.32c-.19-.01-.38,0-.58,0-.04-.18.04-.39,0-.58.22.13.37.45.58.58Z"/>
  <path class="b" d="M451.3,75.47c.14.06.38-.04.58,0v1.15c-.2.21-.81-.5-1.15-.57-.15-.38-.49-.8-.58-1.15h.58c.17.09.31.46.58.58Z"/>
  <path class="b" d="M450.14,74.9h-.58v-.58c.12.09.46-.09.58,0,.03.19-.04.4,0,.58Z"/>
  <path class="b" d="M449.57,74.32c-.29-.22-.44-.47-.58-.58.19.02.39-.02.58,0v.58Z"/>
  <path class="b" d="M458.21,74.9c.21.15.36.45.58.58.17.11.36.75,1.15,1.15.07.16-.07.42,0,.58-.17-.07-.42.07-.58,0s-.4.06-.58,0c-.11-.77-.8-.81-1.15-1.15-.19-.19-.38-.39-.58-.58v-.58c.15.08.43-.08.58,0s.41-.08.58,0Z"/>
  <path class="b" d="M454.75,127.89h-.58v-.58c.2.04.43-.06.58,0v.58Z"/>
  <path class="b" d="M449.57,130.19c.2.04.42-.05.58,0,.04.2-.05.42,0,.58.06.18-.07.42,0,.58h-1.15c-.08-.26-.61-.68-.58-1.15.34.08.79-.06,1.15,0Z"/>
  <path class="b" d="M454.18,123.86h-.58c.01-.19,0-.39,0-.58h.58c.02.19-.01.38,0,.58Z"/>
  <path class="b" d="M444.96,107.73c.56.3,0,.51,0,.58h-.58c-.2-.29-.04-.35-.58-.58v-.58c.36.09.77.44,1.15.58Z"/>
  <path class="b" d="M457.06,127.89h-.58c-.06-.17.06-.41,0-.58.2.05.44-.06.58,0,.03.19-.04.39,0,.58Z"/>
  <path class="b" d="M437.47,110.03v-.58h.58c-.08.27-.31.48-.58.58Z"/>
  <path class="b" d="M482.4,95.63v.58h-.58c0-.11-.7-.53,0-1.15.19,0,.38,0,.58,0v.58Z"/>
  <path class="b" d="M423.07,144.59c-.27-.27.53-.92.58-.29.01.2-.45.42-.58.29Z"/>
  <path class="b" d="M422.5,143.44h-.58v-.58c.19.19.4.37.58.58Z"/>
  <path class="b" d="M448.42,111.76c3.01.37,1.23.73,1.73,1.15l.29.56.29-.56c1.06,1.39.73,1.27,1.36,2.71.09.21.97.16.94.45-.01.15-.57.21-.58.3h-1.15c-.05-.19.07-.44,0-.58-.13-.26-.42-.39-.58-.58-.18-.21-.4-.37-.58-.58s-.39-.38-.58-.58c-.02-.2.05-.45,0-.58-.13-.31-.14-.56-.58-.58-.19-.03-.39.04-.58,0-.05-.17.05-.39,0-.58-.04-.17.03-.38,0-.58Z"/>
  <path class="b" d="M446.69,109.46c.57.19,1.21.22,1.73.58-.02.54,0,.79,0,1.15,0,.19-.02.39,0,.58-.18-.02-.4-.02-.58,0-.19.02-.38-.01-.58,0-.1-.26-.39-.39-.58-.58s-.31-.48-.58-.58c-.05-.19.07-.46,0-.58-.22-.33-.09-.32-.58-.58.04-.45.08-.6.58-.58l.58.58Z"/>
  <path class="b" d="M440.35,130.19c-.07.02-.18.47-.58.58v-1.15c.26.06.48.32.58.58Z"/>
  <polygon class="b" points="438.05 114.06 437.47 114.06 437.76 113.5 438.05 114.06"/>
  <path class="b" d="M441.5,116.94c.18-.02.39,0,.58,0,.08.16-.08.44,0,.58.14.24.39.39.58.58s.31.45.58.58c.06.18-.06.41,0,.58.1.25.44.39.58.58.14.19.38.43.58.58s.32.47.58.58c.06.18-.06.42,0,.58h-1.73c-.08-.27-.31-.48-.58-.58,0-.19.02-.39,0-.58-.05-.37.03-.77,0-1.15l-.58-.58-1.15.58c-.03-.12-.47-.35-.58-.58h.58l.56-.29-.56-.29c-.08-.29-.38-.4-.58-.58.1-.25.31-.52.58-.58.17-.04.38.02.58,0Z"/>
  <path class="b" d="M442.66,103.7c.33.07,1.44,1.28,1.73,1.73-.39-.07-.68.22-.58.58-.37-.03-.87.08-1.15,0-.4-.12-.8-.49-1.15-.58-.15-.04-.36-.52-.58-.58v-.58c.31,0,1.12-.71,1.73-.58Z"/>
  <path class="b" d="M439.2,106c.03.19-.03.39,0,.58.06.35.53.82.58,1.15.02.19-.02.39,0,.58l-1.73-.58v-1.15c.19-.1.39-.54.58-.58.17-.03.39,0,.58,0Z"/>
  <path class="b" d="M474.91,111.76c.02.19-.04.4,0,.58h-.58c-.02-.16-.04-.43,0-.58.06-.23.37-.43.58-.58.02.19-.02.39,0,.58Z"/>
  <path class="b" d="M492.19,109.46l-.58-.58c.19-.02.39,0,.58,0v.58Z"/>
  <path class="b" d="M480.1,86.42v.58c-.24-.15-.73.12-1.15-.58h1.15Z"/>
  <polygon class="b" points="465.12 141.14 464.54 140.56 465.12 140.56 465.12 141.14"/>
  <path class="b" d="M462.24,137.1c.18-.04.39.02.58,0l-.29.56-.29-.56Z"/>
  <path class="b" d="M434.02,114.06c.11.07.47-.1.56.29l-.56.29c-.16-.07-.4.05-.58,0l-.58-.58v-.58c.18-.08.87.4,1.15.58Z"/>
  <path class="b" d="M407.52,136.53c.17.19.1.37.58.58.03.19-.04.39,0,.58-.18-.04-.4.05-.58,0-.18-.43-.14-.4-.58-.58-.14-.06-.38.04-.58,0v-.58c.18.06.42-.07.58,0s.41-.07.58,0Z"/>
  <path class="b" d="M493.92,110.61c.01.19-.02.39,0,.58-.19.01-.38,0-.58,0v-.58c.14-.03.36-.45.58-.58.02.19-.01.39,0,.58Z"/>
  <path class="b" d="M495.65,105.42c0,.19,0,.38,0,.58-.17.04-.39,0-.58,0-.02-.19.02-.39,0-.58s.02-.39,0-.58c.19.02.39-.03.58,0,.01.19,0,.38,0,.58Z"/>
  <path class="b" d="M495.07,104.85c-.19-.02-.39.03-.58,0-.04-.19.06-.42,0-.58.19-.03.39.02.58,0,.02.19-.02.39,0,.58Z"/>
  <path class="b" d="M491.62,103.7v.58c-.16-.06-.4.05-.58,0-.02-.19.03-.39,0-.58s.02-.39,0-.58h.58v.58Z"/>
  <path class="b" d="M430.56,63.38h-.58v-.58c.19.02.39-.01.58,0,.09.14-.09.46,0,.58Z"/>
  <path class="b" d="M429.98,62.22c0,.19,0,.38,0,.58-.38-.04-.77.03-1.15,0-.15-.47.55-.49.57-.57h.58Z"/>
  <path class="b" d="M444.38,137.68c-.03-.08-.56-.24-.58-.58.25.17.54.56.58.58Z"/>
  <path class="b" d="M444.38,135.38c-.11.16.09.81,0,1.15-.16.17-.8-.45-1.15-.58v-1.15c.19.03.39-.04.58,0,.26.06.48.32.58.58Z"/>
  <path class="b" d="M458.78,118.1c.18.31.44,1.05.58,1.15-.33-.33-1-.49-1.15-1.15.19-.09.42-.56.58-.58.08.15-.08.43,0,.58Z"/>
  <path class="b" d="M463.97,139.41c-.19,0-.38,0-.58,0v-.58c.19.02.39-.01.58,0,.02.19-.01.38,0,.58Z"/>
  <path class="b" d="M461.66,134.22c.08.15-.08.43,0,.58.14.27.53.46.58.58,0,.19-.02.39,0,.58s-.03.39,0,.58c-.43-.16-1.34-.82-1.73-1.15-.04-.18.04-.4,0-.58s.04-.39,0-.58.03-.39,0-.58h.58c.26.48.24.35.58.58Z"/>
  <path class="b" d="M459.36,130.77c-.05.17.04.39,0,.58l-1.14-.87c-.01-.09.56-.21.56-.28l.58.58Z"/>
  <path class="b" d="M439.78,126.16c.03.18-.02.39,0,.58s.01.39,0,.58c-.01.17-.54.64,0,1.15-.39-.17-.76-.42-1.15-.58-.02-.19,0-.39,0-.58,0-.38,0-.77,0-1.15h1.15Z"/>
  <path class="b" d="M417.89,138.83v.58c-.17-.21-.41-.37-.58-.58v-.58h.58c.02.19-.01.38,0,.58Z"/>
  <path class="b" d="M425.95,105.42h-.58c.3-.02.55,0,.58,0Z"/>
  <path class="b" d="M436.32,103.7c-.17-.18-.42-.27-.58-.58l.58.58Z"/>
  <path class="b" d="M428.83,85.84c-.02.19.04.39,0,.58-.38-.04-.77.03-1.15,0v-.58h1.15Z"/>
  <path class="b" d="M458.21,122.13c.05.37-.07.81,0,1.15h-.58c-.11-.37-.39-.78-.58-1.15.36-.06.85.09,1.15,0Z"/>
  <path class="b" d="M457.63,123.86h-.58v-.58c.14.07.39-.05.58,0,.05.18-.06.41,0,.58Z"/>
  <path class="b" d="M415.01,136.53c-.17-.05-.39.04-.58,0v-.58c-.05-.18.06-.41,0-.58h.58c.05.37-.04.78,0,1.15Z"/>
  <path class="b" d="M420.19,65.68c.01.19-.02.39,0,.58s-.04.41,0,.58h-1.15v-.58c0-.18.04-.4,0-.58.16.07.4-.06.58,0s.41-.07.58,0Z"/>
  <path class="b" d="M431.71,70.86c.19.01.39-.02.58,0,.18.13.33.48.58.58v.58c-.19,0-.39,0-.58,0s-.38.01-.58,0c-.19-.5-.56-1.12-1.15-1.15.49-.01.52-.04,1.15,0Z"/>
  <path class="b" d="M436.9,84.11v.58h-.58c-.19,0-.38,0-.58,0l-.58-.58h-.58c.4,0,.44-.96,2.3,0Z"/>
  <path class="b" d="M424.22,85.26c-.07.31-.25.51-.58.58s-.78-.03-1.15,0l.58-.58c.38-.02.77.03,1.15,0Z"/>
  <path class="b" d="M356.83,132.5h-.58c-.18-.05-.42.07-.58,0-.03-.18.03-.39,0-.58.44.11,1.05-.15,1.15.58Z"/>
  <path class="b" d="M494.5,102.54c-.37.05-.77-.01-1.15,0,.04-.2-.06-.43,0-.58.07-.18.4-.41.58-.58l.58,1.15Z"/>
  <path class="b" d="M472.61,80.66c-.19-.03-.39.03-.58,0s-.39.04-.58,0v-1.15c.18.04.4-.05.58,0,.1.38.43.77.58,1.15Z"/>
  <path class="b" d="M459.94,126.16c.53.67,1.57,1.11,1.84,2.18l1.03-.46c.04.38-.04.78,0,1.15h-2.3c-.13-.3-.17-.55-.58-.58-.05-.18.07-.42,0-.58-.13-.31-.44-.41-.58-.58-.17-.22-.35-.42-.58-.58-.09-.13.09-.45,0-.58.38,0,.77,0,1.15,0Z"/>
  <path class="b" d="M429.41,96.78c.7.84.96,1.04,1.73,1.73v.58c-1.97-.29-2.3-.59-2.88-2.3h.58c.18.05.41-.06.58,0Z"/>
  <path class="b" d="M413.28,62.8c.19,0,.38,0,.58,0l-.29.56c-.39-.1-.22-.42-.29-.56Z"/>
  <rect class="b" x="424.8" y="60.5" width=".58" height=".58"/>
  <path class="b" d="M428.26,61.65v.58c-.13.19-.45.33-.58.58-.14-.07-.4.07-.58,0-.61-.23-.54-.57-.58-.58v-.58c.19,0,.38,0,.58,0,.38,0,.77,0,1.15,0Z"/>
  <path class="b" d="M426.53,61.07v.58c-.19,0-.38,0-.58,0s-.39.01-.58,0v-.58h1.15Z"/>
  <path class="b" d="M466.85,74.32c-.18-.04-.39.04-.58,0l.58-.58v.58Z"/>
  <path class="b" d="M464.54,72.59c-.07-.17.07-.43,0-.58.17.07.53-.09.58,0,.07.59-.27.47-.58.58Z"/>
  <path class="b" d="M467.42,140.56c.13-.55-.54-.53-.58-.58-.23-.35-.37-.78-.58-1.15.66.2,1.34.02,1.72.93.11.41-.56.75-.56.8Z"/>
  <path class="b" d="M463.97,132.5s.97.49,1.15.58c-.31,1.64.78,3.02,1.01,4.43.06.39-.44.71-.43.76.07-.59-.27-.47-.58-.58-.14-.05-.37.02-.58,0-.02-.2.05-.42,0-.58-.08-.27-.31-.48-.58-.58-.04-.19.05-.41,0-.58-.07-.21-.47-.38-.58-.58-.18-.33-.39-.97-.58-1.15-.18-.17-.23-.41-.58-.58v-2.88h.58c.18.69.61,1.27,1.15,1.73Z"/>
  <path class="b" d="M424.8,109.46c-.19,0-.38,0-.58,0,.08-.19.18-.38.29-.56l.29.56Z"/>
  <path class="b" d="M419.62,86.42c-.19-.03-.4.04-.58,0-.04-.17.03-.38,0-.58.43-.05.62.15.58.58Z"/>
  <path class="b" d="M427.1,77.78c-.2-.18-.43-.35-.58-.58h.58c.05.18-.04.39,0,.58Z"/>
  <path class="b" d="M489.31,112.91c-.18-.04-.39.04-.58,0-.03-.2.05-.43,0-.58h.58v.58Z"/>
  <path class="b" d="M484.13,80.66c.01.19.01.39,0,.58s.02.39,0,.58c-.11-.07-.37.04-.58,0,.02-.19-.04-.39,0-.58.09-.47-.15-1.07.58-1.15.03.18-.01.39,0,.58Z"/>
  <path class="b" d="M525.02,188.37c-.18-.04-.39.03-.58,0-.06-.16.05-.39,0-.58.19,0,.38,0,.58,0,.05.17-.07.42,0,.58Z"/>
  <path class="b" d="M522.14,185.49v.58c-.19.01-.38,0-.58,0s-.39,0-.58,0v-.58h1.15Z"/>
  <path class="b" d="M475.49,125.01c.07.16-.07.41,0,.58l.58.58v1.73c-.36-.06-.8.07-1.15,0-.03-.38.05-.78,0-1.15-.03-.2.06-.44,0-.58-.11-.27-.52-.44-.58-.58v-.58h1.15Z"/>
  <path class="b" d="M426.53,110.61c.06.17-.07.41,0,.58-.19-.01-.39.03-.58,0s-.39.02-.58,0v-.58c.1,0,.37-.46.58-.58.19.24.54.51.58.58Z"/>
  <path class="b" d="M435.17,133.07c.18.21.37.4.58.58.18.16.31.47.58.58v.58c-.55-.08-.4.4-1.73-.58-.19-.14-.41-.39-.58-.58s-.11-.67-.58-.58c.06-.16-.05-.4,0-.58.61.23,1.06.43,1.73.58Z"/>
  <path class="b" d="M434.02,130.77v1.15c-.19-.02-.39,0-.58,0s-.39-.02-.58,0v-1.73h.58l.58.58Z"/>
  <path class="b" d="M438.05,137.68c-.15.05-.35.46-.58.58-.05-.18.07-.42,0-.58-.11-.26-.45-.4-.58-.58.01-.44.33-.43.58-.58.07.35.45.77.58,1.15Z"/>
  <path class="b" d="M302.11,137.68c-.13.31-.14.56-.58.58-.19.02-.39-.03-.58,0,.03-.18,0-.39,0-.58.18.03.39-.03.58,0s.39-.03.58,0Z"/>
  <path class="b" d="M444.96,64.53c-.19-.03-.39.03-.58,0-.04-.18.03-.39,0-.58h.58c.04.17,0,.39,0,.58Z"/>
  <path class="b" d="M443.81,63.38c-.19-.03-.39.04-.58,0v-.58c.14.08.43-.08.58,0,.05.18-.04.39,0,.58Z"/>
  <path class="b" d="M524.45,184.34c-.19,0-.46-.05-.58,0-.03-.19.04-.4,0-.58.19,0,.38,0,.58,0v.58Z"/>
  <path class="b" d="M523.87,183.76c-.19,0-.38,0-.58,0v-.58h.58c.03.19-.04.4,0,.58Z"/>
  <path class="b" d="M504.29,154.96v.58c-.36.09-.77.44-1.15.58-.07-.35.1-.89,0-1.15h1.15Z"/>
  <path class="b" d="M506.59,157.84s-.37-.1-.58-.58c.23.14.4.38.58.58Z"/>
  <path class="b" d="M501.98,155.54c.1.08-.09.44,0,.58-.36-.06-.84.08-1.15,0v-.58c.19.03.4-.05.58,0,.2.05.48-.08.58,0Z"/>
  <path class="b" d="M472.03,146.32l-.56-.29.56-.29c-.02.19.02.39,0,.58Z"/>
  <path class="b" d="M410.4,126.74c-.18-.04-.4.05-.58,0v-.58c.27.08.48.31.58.58Z"/>
  <path class="b" d="M417.89,84.69c-.08.21-.56.44-.58.58l-.58-.58h1.15Z"/>
  <path class="b" d="M341.28,126.74c.18.18.3.44.58.58.04.18-.04.39,0,.58-.2-.02-.4.04-.58,0-.19-.05-.43.06-.58,0-.08-.35-.45-.77-.58-1.15v-.58c.19.02.39,0,.58,0,.1.26.39.39.58.58Z"/>
  <path class="b" d="M344.16,130.19c0,.19,0,.38,0,.58-.19.01-.39-.02-.58,0-.12-.04-.31-.45-.58-.58,0-.19.01-.39,0-.58s.02-.39,0-.58h.58c.12.41-.16,1.06.58,1.15Z"/>
  <path class="b" d="M404.06,130.77c-.17-.06-.42.07-.58,0-.24-.1-.42-.51-.58-.58.2.02.42-.05.58,0,.27.08.48.31.58.58Z"/>
  <path class="b" d="M487.01,141.71c-.12-.07-.38.05-.58,0,.05-.37-.08-.82,0-1.15h.58c.05.37-.05.78,0,1.15Z"/>
  <path class="b" d="M480.67,119.25c-.1.56.44.87.58,1.15.57,1.18,1.33,2.21,1.73,3.46-.22-.22-.82-.35-1.15-.58-.21-.14-.37-.46-.58-.58-.16-.09-.31-.46-.58-.58-.03-.2.06-.44,0-.58-.12-.29-.44-.4-.58-.58-.17-.22-.33-.43-.58-.58,0-.18.04-.4,0-.58-.04-.18.03-.39,0-.58.38-.03.83.07,1.15,0Z"/>
  <path class="b" d="M350.5,39.76c.19.01.39-.02.58,0v.58h-1.73v-.58c.19.03.39-.02.58,0s.39-.01.58,0Z"/>
  <path class="b" d="M462.82,69.71c.13.31.14.56.58.58.19.03.39-.04.58,0v1.15c-.19-.03-.39.04-.58,0s-.39.02-.58,0c-.18-.61-.56-.54-.58-.58-.22-.37-.36-.78-.58-1.15.16.05.38-.04.58,0,.18.04.39-.01.58,0Z"/>
  <path class="b" d="M489.89,152.66c.04.18-.03.39,0,.58l.58.58v.58c-.19,0-.38,0-.58,0s-.38,0-.58,0c-.15-.22-.4-.81-.58-1.15-.08-.15.07-.41,0-.58.38.01.77-.02,1.15,0Z"/>
  <path class="b" d="M408.1,121.55l.58.58c.14.07.38-.05.58,0,.13.22.48.38.58.58.18.36.48.79.58,1.15.05.18-.04.39,0,.58h-.58c-.41-.39-.51-.68-1.15-1.15-.32-.24-.8-.35-1.15-.58-.22-.66-.84-1.17-1.15-2.3.47.42,1.19.75,1.73,1.15Z"/>
  <path class="b" d="M428.83,123.28c.08.3-.04.78,0,1.15-.36-.09-.77-.44-1.15-.58-.02-.18,0-.39,0-.58.36.06.86-.09,1.15,0Z"/>
  <path class="b" d="M429.98,124.43c.09.06-.09.5,0,.58.18.16.45.4.58.58.2.18.36.41.58.58.07.14-.05.39,0,.58v.58c-.61-.1-1.2-.24-1.73-.58.02-.16.03-.42,0-.58-.06-.26-.32-.48-.58-.58-.04-.17.02-.38,0-.58s.02-.39,0-.58c.2.05.44-.07.58,0,.16.08.45-.08.58,0Z"/>
  <path class="b" d="M424.22,82.38c.19,0,.38,0,.58,0v.58c-1.14.07-2.31-.02-3.46,0-.19,0-.38,0-.58,0-.38,0-.77,0-1.15,0-.19,0-.38,0-.58,0,.6-1.03,3.93-.58,5.18-.58Z"/>
  <path class="b" d="M503.71,152.66c-.13-.05-.37.02-.58,0-.04-.18.02-.39,0-.58h.58v.58Z"/>
  <path class="b" d="M500.83,150.35c.19,0,.38,0,.58,0,0,.19,0,.39,0,.58-.27.08-.48.31-.58.58-.19-.01-.39.02-.58,0-.1-.27-.3-.5-.58-.58v-.58c.19-.02.38,0,.58,0s.38,0,.58,0Z"/>
  <path class="b" d="M489.89,148.05h-.58c-.04-.18.03-.39,0-.58l.58.58Z"/>
  <path class="b" d="M491.62,148.62c.01.38-.02.77,0,1.15.01.19-.02.39,0,.58.02.2-.05.42,0,.58.08.27.31.48.58.58.97.56,0,.99,0,1.15h-.58l-.58-.58c-.07-.17.08-.43,0-.58s.07-.4,0-.58c-.13-.31-.18-.55-.58-.58-.05-.19.06-.42,0-.58-.11-.29-.52-.45-.58-.58-.02-.19.04-.39,0-.58h1.73Z"/>
  <path class="b" d="M499.1,149.78v.58c-.19.03-.4-.04-.58,0s-.39-.03-.58,0v-.58c.13.06.37-.04.58,0,.18.04.39-.03.58,0Z"/>
  <path class="b" d="M487.01,132.5c-.19,0-.38,0-.58,0-.04-.2.06-.43,0-.58h.58v.58Z"/>
  <path class="b" d="M484.13,125.01c1.14,1.6,1.14,3.19,1.73,4.61h-.58c-.19-.45-.16-.39-.58-.58-.04-.2.06-.43,0-.58-.18-.43-.14-.4-.58-.58-.04-.19.06-.42,0-.58-.1-.26-.4-.39-.58-.58-.15-.15-.18-.56-.58-.58v-1.73c.36.08.77.44,1.15.58Z"/>
  <path class="b" d="M482.4,77.2c-.19.14-.44.56-.58.58v-1.15c.19,0,.39-.02.58,0v.58Z"/>
  <path class="b" d="M481.82,76.05c.01.19,0,.38,0,.58h-.58c.01-.19,0-.38,0-.58s0-.38,0-.58h.58c.02.19-.01.38,0,.58Z"/>
  <path class="b" d="M406.37,50.13c.19.01.38,0,.58,0v.58c-.15-.06-.38.04-.58,0-.18-.04-.39.03-.58,0s-.39.02-.58,0v-.58c.19.02.39-.02.58,0s.38-.01.58,0Z"/>
  <path class="b" d="M525.02,193.55v.58c-.19-.02-.39.02-.58,0-.04,0,.03-.46-.58-.58-.04-.18.03-.39,0-.58h.58c.05.17.44.38.58.58Z"/>
  <path class="b" d="M524.45,194.13c.06.18-.07.43,0,.58h-.58l-.58-.58c-.03-.18,0-.39,0-.58.18.04.39-.04.58,0,.13.61.56.54.58.58Z"/>
  <path class="b" d="M404.06,118.1c.17.19.08.7.58.58-.25.07-.69.61-1.15.58-.34-.31-.5-.7-.58-1.15-.03-.19.03-.39,0-.58h.58c-.05.48.14.54.58.58Z"/>
  <path class="b" d="M421.92,112.91c.19.2.35.41.58.58.04.16-.02.38,0,.58-.39-.1-1.21.02-1.15.58-.12-.19-.5-.35-.58-.58-.02-.05.54-.7,0-1.15,0-.19,0-.38,0-.58.2.02.43-.05.58,0,.26.09.4.39.58.58Z"/>
  <path class="b" d="M425.95,118.67c.31.44.38.83.58,1.15v.58l.58.58h.58c.21.37.4.77.58,1.15-.65,0-.46.26-.58.58h-.58c.16-.88-.44-.91-.58-1.15-.11-.19-.39-.4-.58-.58-.2-.19-.37-.4-.58-.58-.03-.64-.32-1.16-.58-1.73.36-.06.78.04,1.15,0Z"/>
  <path class="b" d="M347.04,126.16h-.58c-.1-.34-.38-.81-.58-1.15.2.02.41-.04.58,0,.16.39.44.76.58,1.15Z"/>
  <path class="b" d="M338.98,123.86l.58.58c-.02.18,0,.39,0,.58s-.03.39,0,.58c-.38-.11-.83-.53-1.15-.58l-.58-1.15h.58c.19-.02.39.02.58,0Z"/>
  <path class="b" d="M378.14,126.74c.18.18.44.39.58.58.18.25.53.89.58,1.15.03.15.03.42,0,.58-.06.32-.25.52-.58.58-.08-.09-.51.09-.58,0-.09-.14,0-.93-.58-1.73-.45-.63-.63-.71-1.15-1.15-.2-.17-.37-.4-.58-.58.19-.19.34-.43.58-.58.51.42,1.28.72,1.73,1.15Z"/>
  <path class="b" d="M488.16,137.1c.02-.76-.29-1.9.58-2.3.12,1.4-.1,1.32-.58,2.3Z"/>
  <path class="b" d="M287.14,39.18c.38,0,.77,0,1.15,0,.15,0,.43.56.58.58v.58c-.28.09-.41.46-.58.58-.12.09-.41-.08-.58,0-.25.11-.45.34-.58.58-.36.22-.77.39-1.15.58h-.58c-.18.05-.43-.07-.58,0-.33.16-.39.38-.58.58-.18.05-.4-.05-.58,0l-.58.58c-.18.04-.39-.04-.58,0s-.39-.03-.58,0-.39-.03-.58,0c-.36.06-.79-.06-1.15,0v-1.15c.18-.05.4.05.58,0,.52-.16,1.15-.93,1.73-1.15.17-.06.41.06.58,0s.39.06.58,0,.44.07.58,0c.6-.31.64-.48.58-1.15.18-.04.39.02.58,0,.34-.04.87-.57,1.15-.58.19,0,.38,0,.58,0Z"/>
  <path class="b" d="M285.41,38.03c.05.14,0,.38,0,.58h-1.15v-.58c.2.02.41-.04.58,0,.19.04.42-.06.58,0Z"/>
  <path class="b" d="M539.42,142.29c-.04.2.06.44,0,.58-.19.03-.39-.03-.58,0v-1.15c.19-.02.39,0,.58,0-.02.19.04.39,0,.58Z"/>
  <path class="b" d="M521.57,233.87c-.19,0-.38,0-.58,0v-.58h.58v.58Z"/>
  <polygon class="b" points="316.51 125.01 316.51 124.43 317.08 124.72 316.51 125.01"/>
  <path class="b" d="M367.2,111.76c.02.19-.03.39,0,.58-.05-.08-.53.08-.58,0-.08-.15.09-.45,0-.58s.09-.45,0-.58h.58c.03.18-.02.39,0,.58Z"/>
  <path class="b" d="M287.14,47.82v1.15c-.36.05-.78,0-1.15,0h-.58v-.58c.32-.11.54-.19.58-.58.18-.05.39.04.58,0,.19-.05.42.06.58,0Z"/>
  <path class="b" d="M375.84,59.34v1.15c-.49.11-1.2-.09-1.73,0v-1.15c.56.06,1.17-.07,1.73,0Z"/>
  <path class="b" d="M535.39,139.98c0,.38,0,.77,0,1.15h-.58c-.29-.04-.54-.57-.58-.58.3-.37.77-.4,1.15-.58Z"/>
  <path class="b" d="M523.87,157.84c-.17.08-.49-.09-.58,0,.18-.21.36-.41.58-.58v.58Z"/>
  <path class="b" d="M510.62,156.69c-.19-.03-.39.02-.58,0h-.58v-1.15c.49.32.96.53,1.15,1.15Z"/>
  <path class="b" d="M486.43,73.74c0,.19,0,.38,0,.58s-.04.4,0,.58c-.19-.02-.38,0-.58,0-.19-.3-.17-.41-.58-.58.04-.18-.03-.39,0-.58l.58-.58c-.08.61.31.47.58.58Z"/>
  <path class="b" d="M496.22,84.11v.58h-.58c-.04-.18.03-.39,0-.58s.03-.39,0-.58h.58v.58Z"/>
  <path class="b" d="M420.19,54.16v.58c-.18-.04-.39.01-.58,0s-.38,0-.58,0v-.58c.19.01.39-.02.58,0s.38,0,.58,0Z"/>
  <path class="b" d="M409.25,51.86c-.19.01-.38,0-.58,0v-.58c.1.15.48.26.58.58Z"/>
  <path class="b" d="M408.67,51.28c-.12-.18-.39-.39-.58-.58.08.08.38-.06.58,0v.58Z"/>
  <path class="b" d="M413.28,53.01c.24.36.41.4.58.58,0,.38.02.77,0,1.15-.14-.05-.37.03-.58,0-.2-.61-.56-.93-1.15-1.15,0-.18.03-.41,0-.58.19.01.39,0,.58,0s.39.02.58,0Z"/>
  <path class="b" d="M471.46,47.25c-.06,0-.28.56-.58.58v-.58c0-.19-.02-.39,0-.58.27.08.48.31.58.58Z"/>
  <path class="b" d="M281.38,39.18c.2-.02.45.05.58,0l-.29.56c-.38-.1-.22-.39-.29-.56Z"/>
  <path class="b" d="M477.79,68.56c-.19,0-.39.02-.58,0-.04-.21.07-.46,0-.58.2.05.44-.07.58,0,.05.19-.06.42,0,.58Z"/>
  <path class="b" d="M516.38,353.1c-.27.27-.92-.53-.29-.58.2-.01.42.45.29.58Z"/>
  <path class="b" d="M536.54,199.31c.18.04.4-.05.58,0-.06.36.08.84,0,1.15-.18-.03-.39.02-.58,0s-.39.01-.58,0c-.1-.25-.31-.52-.58-.58,0-.19,0-.38,0-.58s0-.38,0-.58c.38.13.79.49,1.15.58Z"/>
  <path class="b" d="M523.87,169.36c.19-.02.39.01.58,0v.58c-.31.09-.79-.06-1.15,0l-.58-.58c.19-.03.4.04.58,0s.38.03.58,0Z"/>
  <path class="b" d="M540.58,145.17v.58l-.54-.35c-.07-.41.51-.67.54-.8v.58Z"/>
  <path class="b" d="M390.24,111.18c.11.19.39.41.58.58.15.16.56.53.58.58.11.3-.12.9,0,1.15-.14-.08-.43.08-.58,0-.19-.11-.35-.47-.58-.58-.14-.07-.3-.46-.58-.58-.16-.06-.4.06-.58,0-.08-.33.05-.78,0-1.15.2-.06.95-.06,1.15,0Z"/>
  <path class="b" d="M501.98,148.05c.04.08.34.08.44.27.04.07-.46.28-.44.3h-1.15c.25-.62.54-.62,1.15-.58Z"/>
  <path class="b" d="M543.46,152.08h1.15c.02.38,0,.77,0,1.15h-.58c-.08-.26-.61-.68-.58-1.15Z"/>
  <path class="b" d="M469.15,45.52v-.58h.58c-.09.26-.53.44-.58.58Z"/>
  <path class="b" d="M280.22,39.76c0,.38-.04.78,0,1.15-.19.02-.39,0-.58,0s-.4.03-.58,0c-.01-.37-.04-.79,0-1.15.15-.08.41.07.58,0s.41.07.58,0Z"/>
  <path class="b" d="M279.07,40.91c0,.19,0,.38,0,.58v.58c-.18.05-.39-.04-.58,0-.41.1-.8.47-1.15.58-.63-.08-.8.13-1.15.58-.37.04-.77-.01-1.15,0v-.85c.66-.66,1.57-.89,2.3-1.45.22-.17.39-.47.58-.58.38.13.8.51,1.15.58Z"/>
  <path class="b" d="M537.12,195.28c.07.22.4.4.58.58.2.19.39.38.58.58-.78.4-.73.54-1.15,1.15-.19-.03-.39.01-.58,0s-.38,0-.58,0v-.58c.27-.11.39-.4.58-.58.04-.04.67.07.57-.57h-1.15c0-.19-.04-.4,0-.58.16.07.4-.06.58,0s.4-.05.58,0Z"/>
  <path class="b" d="M535.39,202.19h-.58c0-.13-.01-.76,0-1.15.14.06.37-.03.58,0-.03.38.07.82,0,1.15Z"/>
  <path class="b" d="M529.06,169.94c.18-.04.38.02.58,0v1.15c-.57-.05-1.16.04-1.73,0-.19-.01-.38,0-.58,0,.28-1,.89-.97,1.73-1.15Z"/>
  <polygon class="b" points="529.06 207.95 528.48 207.95 528.77 207.39 529.06 207.95"/>
  <path class="b" d="M527.33,214.29l-.58-.58.58.58Z"/>
  <path class="b" d="M524.45,226.96c-.32-.07-.44-.3-.58-.58l.58.58Z"/>
  <path class="b" d="M522.14,223.5c-.07-.17.08-.44,0-.58h.58c-.08.27-.31.48-.58.58Z"/>
  <rect class="b" x="384.48" y="78.36" width="1.15" height="1.15" transform="translate(305.12 463.78) rotate(-89.85)"/>
  <path class="b" d="M303.84,116.94c-.82.86-1.95.97-2.21,1.27-.28.34-.02.85-.1,1.04-.36.06-.87-.1-1.15,0,.08-.15-.07-.41,0-.58.07-.16-.06-.4,0-.58.17-.07.45.08.58,0,.3-.19.4-.17.58-.58.06-.14-.04-.38,0-.58.39-.03.47-.25.58-.58l1.73.58Z"/>
  <path class="b" d="M364.9,108.3l.58.58c.08.15-.09.45,0,.58-.16-.05-.38.03-.58,0s-.42.05-.58,0c-.17-.06-.4.06-.58,0-.11-.32-.18-.56-.58-.58v-.58c.33-.02.85-.54,1.15-.58.18.2.38.39.58.58Z"/>
  <path class="b" d="M363.74,111.76c.03.19-.04.39,0,.58.04.2-.06.43,0,.58.33.8.75.77,1.15,1.15.19.19.38.39.58.58.26.24.87.33,1.15.58.2.17.36.4.58.58s.37.43.58.58.36.43.58.58c0,.19.05.45,0,.58-.13.37-.86.81-1.15,1.15-.51-.7-4.53-2.76-5.76-3.46-.38-2.07,1.33-2.44,1.73-4.03h.58c.03.19-.03.39,0,.58Z"/>
  <path class="b" d="M259.49,65.1v.58c-.29.11-.75.4-1.15.58-.15.07-.4-.05-.58,0,.23-.34.35-.8.58-1.15.19-.03.39.02.58,0h.58Z"/>
  <path class="b" d="M484.13,69.71c.02.18,0,.39,0,.58-.62-.21-.54-.56-.58-.58v-.58h.58c.04.17-.02.38,0,.58Z"/>
  <path class="b" d="M519.26,116.94h-.58c.02-.38-.01-.77,0-1.15.18.04.4-.05.58,0-.03.38,0,.77,0,1.15Z"/>
  <path class="b" d="M485.86,72.59c-.21-.14-.59-.1-.58-.58h.58c.02.19-.03.39,0,.58Z"/>
  <path class="b" d="M547.49,151.5h-.58c0-.06-.07-.58,0-1.15l.57.3c.12.23-.06.58,0,.85Z"/>
  <path class="b" d="M468.58,46.67l-.58-.58c.19.03.39-.03.58,0-.06.13.03.37,0,.58Z"/>
  <path class="b" d="M473.18,61.07c-.18-.05-.39.04-.58,0-.02-.19.02-.39,0-.58.17.05.4-.05.58,0,.02.19-.02.39,0,.58Z"/>
  <path class="b" d="M470.88,57.62c.03.19-.03.39,0,.58-.19-.01-.38,0-.58,0-.04-.17.02-.38,0-.58s.02-.39,0-.58h.58c.04.18-.03.39,0,.58Z"/>
  <path class="b" d="M472.03,58.77c.08.15-.08.43,0,.58.2.35.07.37.58.58.04.18-.02.39,0,.58-.17-.05-.39.05-.58,0-.15-.23-.38-.4-.58-.58h-.58c-.04-.37.06-.79,0-1.15-.03-.19.03-.39,0-.58.2.01.43-.05.58,0,.11.32.19.54.58.58Z"/>
  <path class="b" d="M476.06,65.68c-.14.03-.36.45-.58.58v-1.15h.58v.58Z"/>
  <path class="b" d="M515.23,357.14c.22.23.29.33.58.58l-.58.58c-.19.02-.39-.02-.58,0s-.39,0-.58,0v-1.15h.58c.18.05.43-.07.58,0Z"/>
  <path class="b" d="M534.82,320.85h-.58v-.58c.19-.02.39.03.58,0-.02.19.03.39,0,.58Z"/>
  <path class="b" d="M532.51,323.73v.58h-.58c-.19.01-.39,0-.58,0-.03-.19.03-.39,0-.58h.58c.19,0,.39.02.58,0Z"/>
  <path class="b" d="M534.82,205.65c-.22-.15-.39-.38-.58-.58.18-.03.39.02.58,0v.58Z"/>
  <path class="b" d="M533.09,204.5v.58c-.17.03-.44.57-.58.58-.19.01-.38-.01-.58,0-.06-.14.04-.38,0-.58-.04-.18.03-.39,0-.58.38,0,.78.04,1.15,0Z"/>
  <path class="b" d="M538.85,179.73c.19.04.42-.06.58,0v.58c-.36.05-.77-.02-1.15,0s-.77-.01-1.15,0-.77,0-1.15,0v-.58c.28.06.84.04,1.15,0,.27-.03.5-.31.58-.58.19-.01.39.02.58,0,.1.25.31.52.58.58Z"/>
  <path class="b" d="M534.82,183.76c.19-.02.39.01.58,0-.16.22-.49.41-.58.58h-.58c-.19,0-.38,0-.58,0s-.39.03-.58,0v-.58c.16-.04.38.02.58,0,.38-.04.77.04,1.15,0Z"/>
  <path class="b" d="M120.67,107.73c-.11.07-.08.52-.29.57l-.86-.57c.19-.03.4.05.58,0,.2-.05.49.08.58,0Z"/>
  <path class="b" d="M316.51,108.3l-1.71-.86.56-.86c.59.48,1.36.54,1.15,1.73Z"/>
  <path class="b" d="M309.6,108.3l1.15,1.14c-.99-.03-1.23.53-1.73,1.16-.46.04-.9-.51-1.15-.58.14-.39.48-.78.58-1.15.35-.07.77-.45,1.15-.58Z"/>
  <path class="b" d="M307.3,113.49c-.63.89-.46.98-1.73,1.15-.13-.09-.1-.48-.29-.57h-.86c.23-.36.35-.8.58-1.16.13-.2.75-.4,1.15-1.15.07-.13-.05-.39,0-.58h.58c.14.72.2,1.82.58,2.3Z"/>
  <path class="b" d="M314.78,103.12c-.47,1.31-1.07,1.52-1.15,1.73-.23.61.18,2.1-.58,2.88-.31-.21-1.28-.25-1.73-.58-.13-.3,1.42-2.39,1.73-2.88.22-.35.34-.83.58-1.15h1.15Z"/>
  <path class="b" d="M274.46,31.7c-.24.08-.8,0-1.15,0v-1.73c.12-.08.4.07.58,0l.98.85-.4.88Z"/>
  <path class="b" d="M469.73,55.31c.05.16-.03.38,0,.58.03.18,0,.39,0,.58-.2-.03-.43.05-.58,0s-.35-.46-.58-.58c-.1-.3.1-.84,0-1.15h.58c.17.11.31.47.58.58Z"/>
  <path class="b" d="M532.51,185.49c.18,0,.4.04.58,0,.11.32.19.54.58.58h.58c-.07.33.03.78,0,1.15h-.58l-.58-.58c-.19-.03-.39.04-.58,0-.17-.03-.39,0-.58,0-.13-.05-.31-.46-.58-.58v-.58c.16.05.38-.02.58,0,.18.02.39,0,.58,0Z"/>
  <path class="b" d="M522.14,345.62l.58.58h.58c.26.25.97.3,1.05.94.15.64-.49,1.2-.48,1.36h-.58c-.19.02-.39-.03-.58,0-.06-.17.07-.41,0-.58-.19-.46-.38-.86-.86-1.08-.12-.02-.24.5-.29.51-.19,0-.38,0-.58,0s-.39-.01-.58,0-.38,0-.58,0h-.58c-.18-.21-.4-.38-.58-.58s-.37-.45-.58-.58c-.13-.08-.4.07-.58,0-.19-.45-.16-.39-.58-.58-.15-.07-.4.05-.58,0-.13-.38-.51-.8-.58-1.15-.04-.18.04-.39,0-.58s.05-.41,0-.58l.58-.58c0-.19,0-.38,0-.58h.58l.58-.58c.13.55.94,3.1,1.11,3.21,1.32.1,2.27.38,3.5.82Z"/>
  <path class="b" d="M540.58,163.02c.37.03,3.21.51,3.46.58,2.22.65,1.53,3.18.29,4.61l-1.6-2.48-4.13.78c-.65-.02-.18-.92-.32-1.18v-.58c.13-.09.42.08.58,0l.58-1.73c.38,0,.78-.03,1.15,0Z"/>
  <path class="b" d="M527.33,214.86c.37.04.79-.06,1.15,0,.04,0,.08.41.58.58.17.06.39-.04.58,0,.07.54-.13,1.3,0,1.73.24.82,1.06.98,1.15,1.15-.02.19,0,.39,0,.58s-.01.39,0,.58-.03.39,0,.58c.07.48,0,.97.58,1.15.02.38-.05.79,0,1.15.04.26.31.5.58.58-.06,1.33.09,2.68-.03,4.01l-2.84.89c.03.61,4.91,2.17,2.01,4.31l-3.72-1.17c.24-2.31-.14-2.52-2.33-2.85v-1.15c0-.19,0-.39,0-.58.22-.16.43-.34.58-.58.05-.09.42-.08.44-.27-.1-.17-.44-.27-.44-.31,0-.19,0-.38,0-.58s.02-.39,0-.58.04-.4,0-.58c-.04-.18.05-.4,0-.58s.04-.39,0-.58c-.06-.25-.55-.46-.58-.58.02-.19,0-.38,0-.58s0-.39,0-.58c.25-.1.52-.31.58-.58.04-.17-.02-.38,0-.58.42-.17.42-.11.58-.58.06-.17-.04-.39,0-.58.16-.65-.3-.81-.58-1.15,0-.19.02-.39,0-.58s.02-.39,0-.58.04-.39,0-.58.03-.39,0-.58c.19.02.39-.03.58,0,.37.05.78-.04,1.15,0Z"/>
  <path class="b" d="M127.01,105.42c.05.11.91.3,1.08.93.39.71-.44.71-.51.79h-.58c-.19,0-.38-.01-.58,0l-.58-1.73c.19,0,.38,0,.58,0h.58Z"/>
  <path class="b" d="M127.01,555.28c1.83,1.81,3.84,3.78,5.76,5.76.32.33.99.94,1.15,1.15,1.35,1.74,1.87,4.4,4.03,6.34.63.57.94.79,1.73,1.15-.36,1.58.51,2.32,1.15,3.46-1.24,0-1.58-.69-2.21-1.53-1.64-2.19-3.37-4.94-5.03-7.07-2.25-2.89-5.88-5.64-6.59-9.25Z"/>
  <path class="b" d="M253.73,737.3l-2.31-.28,1.73,4.31h-4.03c.47-4.07-1.61-5.91-2.89-9.49l2.89-1.45c.76,1.21,4.02,6.27,4.61,6.91Z"/>
  <path class="b" d="M335.52,85.84c.59.07.47-.27.58-.58.19-.03.4.04.58,0,.19-.05.43.06.58,0,.59-.24.96-.53,1.15-1.15.19-.02.39.04.58,0,.35-.07.77-.45,1.15-.58-1.12,1.8-1.26,2.33-3.86,2.74-.42.07-.71-.44-.75-.43Z"/>
  <path class="b" d="M175.97,63.95c.82.02,1.59.13,2.3.58h.58c-.35,1.33-1.34.98-2.3,1.15-.46-.77-.51-.43-1.15-.58-.16-.04-.38,0-.58,0-.12-1.38-.09-1.18,1.15-1.15Z"/>
  <path class="b" d="M398.88,92.75c.26,0,1.11.49,1.73.58.37.05.8-.06,1.15,0,.04.46-.51.9-.58,1.15h-1.73c-.19,0-.38,0-.58,0l-.58-.58c-.38-.03-.78.05-1.15,0v-.58c.09,0,.66-.6,1.73-.58Z"/>
  <path class="b" d="M182.88,108.88v.58c-.15,1.55-1.58,2.47-2.65,3.43l-1.38-1.12c.57-.31,1.21-.76,1.73-1.15.22-.16.4-.37.58-.58,1.03-1.28,1.53-.98,1.73-1.15Z"/>
  <path class="b" d="M309.02,105.42c-.19.38-.38.77-.58,1.15s-.42.76-.58,1.15c-.11.27-.38.7-.58,1.15-.19,0-.39.02-.58,0-.76-.07-1.54.05-2.3,0l1.25-2.76,1.04.47v-1.74c.93-.24,1.6.38,2.31.58Z"/>
  <path class="b" d="M331.49,85.26c1.23-2.34.3-3.05,3.53-4.82,1.71-.94,6.23-3.17,5.11.79-.61.1-.8-.18-1.15.58-.2.02-.42-.05-.58,0-.27.08-.48.31-.58.58-.19.03-.39-.04-.58,0s-.4-.05-.58,0c-.15.2-.52.4-.58.58-.55.21-1.12.25-1.73.58-.22.12-.38.46-.58.58-.22.13-.37.44-.58.58-.12.09-.41-.08-.58,0-.22.11-.41.38-.58.58-.2.04-.45-.06-.58,0Z"/>
  <path class="b" d="M307.3,86.42c2.4.94,4.12.3,6.52.05l1.54,2.52c-.31,1.58-5.42.4-6.65,1.32l-1.41-3.89Z"/>
  <path class="b" d="M333.22,86.99c.07.24.76.45.51,1.29-.61,2.07-3.32,2.22-4.53,3.06s-2.13,2.97-4.55,3.23l.5,1.06c-1.89-.37-1.99.39-2.88,1.16-1.93,1.65-1.09.63-2.88,1.15v-.58c.21-.19.41-.44.58-.58.22-.18.4-.35.58-.58.09-.12-.09-.44,0-.58.13-.21.49-.38.58-.58.39-.33,1.11-.65,1.73-1.15.5-.41.85-.91,1.15-1.15.19-.16.74-.23,1.15-.58s1-.45,1.15-1.15c.17-.06.4.06.58,0,.49-.17,1.12-.57,1.15-1.15.19,0,.43.04.58,0,.22-.06.4-.4.58-.58.19-.19.4-.37.58-.58.59.14.88-.44,1.15-.58.21-.11.37-.44.58-.58.13-.09.43.08.58,0,.17-.1.66.07.58-.58h.58Z"/>
  <path class="b" d="M369.98,82.45c.53.32.77,2.84,3.76,2.65.98-.06,7.37-1.47,7.86-1.88.71-.6.19-1.86,1.73-1.41-.81,2.34,8.9,6.36,3.21,6.94-2.97.31-10.77,1.05-13.29.55-1.05-.2-3.51-3.66-5.74-3.46l-.88,2.88h-1.72s0-6.92,0-6.92c.92.56,4.86.51,5.08.64Z"/>
  <path class="b" d="M266.98,103.11c-1.46-2.22,5.47-4.59,7.2-4.6,1.09,0,2.21.6,3.43.6,6.45.02,13.58-.91,19.31,2.57-1.54,2.45-3.41.99-5.37,1.08-8.14.38-16.54,2.17-24.57.35Z"/>
  <path class="b" d="M209.96,147.47c2.98.68,5.91-3.41,8.24-2.91.19.04,2.34,2.76,2.42,2.93,2.28,4.84-7.3,6.02-10.25,6.28-1.76,1.05-1.23,5.62-3,5.22-1.59-.35-.64-8.34-.85-10.09-.19-1.53-2.72-7.07-.24-7.72.76-.2,1.82.67,2.7.46,1.09-.26,2.84-3.23,5.33-1.11l-.3,2.66-3.81.79-.25,3.49Z"/>
  <path class="b" d="M159.26,74.32l.9,2.31c-1.78,1.16-1.79,3.39-4.06,3.48-1.14.05-.93-.13-.88-1.17,3.44-.28,2.3-1.92,2.88-3.46.29-.77.63-.77,1.15-1.15Z"/>
  <path class="b" d="M127.58,101.39c.77.02,1.54-.03,2.31,0v1.71c-1.21-.45-2.54,1.08-2.88,1.17-.17.04-.38-.03-.58,0-.5-.72-.44-.43-1.15-.58l-.58-1.73c.12-.12.95-.1,1.15-.58.56-.05,1.16-.01,1.73,0Z"/>
  <path class="b" d="M182.88,61.65c.13.55,1.15,1.15,1.16,2.02.02,1.74-2.36,2.28-3.75,2.04l-.29-1.75c.22-.73,1.74-1.74,1.73-2.3h1.15Z"/>
  <path class="b" d="M176.54,67.41h.58c.11.89-.29,2.08.26,2.9.78,1.14,4.78.52,3.76,4.01-4.09-1.37-2.17-.06-3.4,1.48-2.18,2.71-3.64.4-5.08-.21-.68-.29-1.97.13-2.36-.21-.22-.19-.1-1.15-.45-1.55-1.12-1.27-3.31-2.32-3.67-4.11,1.73-.43,4.2-.25,5.76-.58.55-.11.96-.64,1.15-1.15.18-.05.4.05.58,0,.31-.1.81.08,1.15,0,.44-.11.54-.57.58-.58.32-.08.79.05,1.15,0Z"/>
  <path class="b" d="M537.12,299.54c.19.03.4-.04.58,0-.27.76-.55.8-.58,0Z"/>
  <path class="b" d="M520.42,350.22v1.15c-.17.04-.38-.02-.58,0s-.4-.04-.58,0c0-.19,0-.39,0-.58s.04-.4,0-.58h1.15Z"/>
  <path class="b" d="M522.72,349.07c.1.38.52.81.58,1.15h-1.73c-.15-.27-.09-.67-.58-.58v-.58c.19-.02.38.01.58,0,.38-.02.77,0,1.15,0Z"/>
  <path class="b" d="M514.66,81.81v.58h-.58c-.04-.19.05-.41,0-.58-.06-.19.07-.44,0-.58h.58v.58Z"/>
  <path class="b" d="M518.69,357.14c-.18-.05-.4.05-.58,0-.21-.36-.34-.81-.58-1.15.19.02.39-.02.58,0,.11.35.57.87.58,1.15Z"/>
  <path class="b" d="M538.27,299.54c-.27-.27.53-.92.58-.29.01.2-.45.42-.58.29Z"/>
  <path class="b" d="M539.42,305.87c-.06.27-.44.41-.58.58h-.58v-.58c.38.04.77-.03,1.15,0Z"/>
  <path class="b" d="M535.97,322.58c-.18.69-.66.82-1.15,1.15.03-.38-.04-.78,0-1.15h1.15Z"/>
  <path class="b" d="M540,194.7c.4.14,1.22-.1,1.73,0-.03.18.56.76,0,1.15h-.58c-.18-.04-.41.06-.58,0-.4-.14-.76-.44-1.15-.58-.04-.01.03-.43-.58-.58v-.58h.58c.13.05.31.48.58.58Z"/>
  <path class="b" d="M521.57,353.1h1.15c-.1.43.26,1.18-.12,1.62-.23.27-.93.03-1.03.11h-1.15v-1.73h1.15Z"/>
  <path class="b" d="M548.06,176.28c-1.12,3.04.1,3.28,1.15,5.76-1.45-1.27-2.68-1.23-4.54-1.2-1.53-1.1,2.26-5.64,3.39-4.55Z"/>
  <path class="b" d="M533.66,291.47c-.15-5.18,1.87-1.02,2.69-.69,1.37.55,4.37.98,5.95,1.27l-.58,2.88c-2.52-.02-4.08-2.81-6.91-2.3-.39-.72-.68-.74-1.15-1.15Z"/>
  <path class="b" d="M540.58,197.01c.14.08.28.45.58.58.25.11.8-.07,1.15,0h.58c2.18,4.61-3.39,6.04-6.91,6.91-.05-.07-.5-.52-.58-.58v-.85s.58-.3.58-.3c.5.23,1.21.3,1.72.58l-.57-1.73c.16.04.38-.01.58,0,.07,0,.19.46.32.43l.26-.43c.34-.04.47-.29.58-.58.19-.05.42.06.58,0,.28-.11.54-.23.58-.58l.56-.29-.56-.29c-.07-.32-.35-.41-.58-.58-.12-.09-.44.09-.58,0v-.58c.04-.18-.05-.4,0-.58.11-.38.54-.85.58-1.15h1.15Z"/>
  <path class="b" d="M527.9,237.9c.39.11.77.45,1.15.58.59.19,1.15.38,1.73.58s1.15.38,1.73.58c.96.32,1.79.76,2.88.58-.9,3.71-6.84,1.79-9.79,2.88-.02-.19.02-.39,0-.58-.16-1.26-.9-1.99-1.18-3.16l1.18-.3,1.15-.58c-.02-.19.02-.39,0-.58.19.03.4-.04.58,0s.4-.05.58,0Z"/>
  <path class="b" d="M531.36,214.86c.18,0,.41-.04.58,0v.58c-.34.4-1.12,1.08-1.15,1.15l-.58-.58c0-.18.04-.4,0-.58-.04-.18.03-.39,0-.58h1.15Z"/>
  <path class="b" d="M532.51,207.38h.58c.14.22.06.68.58.58h.58c.25,3.08,2.15,2.49,2.34,3.28.35,1.49-1.04,3.66-.57,5.33l1.25.03c1.99.8-1.52,1.56-2.15,2.31-1.12,1.32-.42,4.27-3.18,2.87,0-.58,0-1.15,0-1.73v-1.15c.57-.2,2.19-.99,2.31-1.45.22-.97-.94-1.13-1.16-1.43-.15-.21.05-.76-.58-1.15-.11-.07-.37.05-.58,0-.15-.22-.42-.37-.58-.58-.02-.19.03-.39,0-.58s.02-.39,0-.58l-.58-.58v-.58c.15-.75-.33-.86-.58-1.15-.06-.07.1-.47-.29-.56l-.29.56c-.12-.09-.45.09-.58,0-.18-.13-.36-.4-.58-.58s-.36-.41-.58-.58v-.58c.29-.07.42-.48.58-.58h.58c.21,1.11.48.03.58,0,.23-.08.75.19,1.05-.11.28-.27.05-.75.1-1.05.19.03.39-.02.58,0,.36.05.78,0,1.15,0Z"/>
  <path class="b" d="M544.03,182.03c.74.78.99,1.92,1.29,2.16,1.66,1.35,5.76-.33,3.21,5.22-1.72.47-6.78.52-7.67-1.05-.61-1.07.07-3.01-1.45-3.78l-3.45.32c-.2-.15,1.1-2.13,1.73-2.3.16-.04.38.02.58,0,1.43-.17,3.11.08,4.61,0,.49-.03,1-.02,1.15-.58Z"/>
  <path class="b" d="M514.08,80.08h-.58l.58-.58c.03.2-.06.43,0,.58Z"/>
  <path class="b" d="M43.49,135.95c.19.01.39-.02.58,0,1.5.13,6.6.7,7.21,1.72.91,1.53-.29,3.01-.12,4.23.08.56.92,1.19,1.01,2.37.15,1.98-.17,4.08-.04,6.07-2.06-.3-7.39-1.49-8.69.23-.69.91-.26,4.18-1.95,3.8-2.36-.54,1.88-11.44-5.48-9.21v-9.22c2.48.11,5.01-.15,7.49,0Z"/>
</svg>