<?xml version="1.0" encoding="UTF-8"?>
<svg id="a" data-name="Layer 2" xmlns="http://www.w3.org/2000/svg" width="612" height="792" viewBox="0 0 612 792">
  <rect x="44" y="115" width="41" height="41" style="fill: #010101;"/>
  <rect x="88" y="115" width="41" height="41" style="fill: #262525;"/>
  <polyline points="132 156 132 115 173 115 173 156" style="fill: #404040;"/>
  <polyline points="176 156 176 115 217 115 217 156" style="fill: #595959;"/>
  <polyline points="220 115 261 115 261 156 220 156" style="fill: #737374;"/>
  <rect x="264" y="115" width="41" height="41" style="fill: #8b8b8b;"/>
  <polyline points="308 156 308 115 349 115 349 156" style="fill: #a7a6a6;"/>
  <polyline points="352 156 352 115 393 115 393 156" style="fill: #c0bfbf;"/>
  <polyline points="396 156 396 115 437 115 437 156" style="fill: #d9d9d8;"/>
  <polyline points="440 156 440 115 481 115 481 156" style="fill: #fdfcfc;"/>
</svg>