<?xml version="1.0" encoding="UTF-8"?>
<svg id="a" data-name="Layer 1" xmlns="http://www.w3.org/2000/svg" width="612" height="792" viewBox="0 0 612 792">
  <defs>
    <style>
      .b {
        fill: #020202;
      }
    </style>
  </defs>
  <path class="b" d="M81.68,109.5c-.03.14.03.3,0,.43-.56.03-.67-.82-.22-.86l.22.43Z"/>
  <path class="b" d="M82.11,110.8c-.14-.03-.35.06-.43,0v-.43c.19.07.38.23.43.43Z"/>
  <path class="b" d="M80.38,111.66c-.09.27-.41.63-.43.86h-.43c-.03-.13.02-.29,0-.43l.43-.43c.14-.01.29.02.43,0Z"/>
  <path class="b" d="M90.61,116.28c-.09.27-.41.63-.43.86h-.43c-.03-.13.02-.29,0-.43l.43-.43c.14-.01.29.02.43,0Z"/>
  <path class="b" d="M78.94,121.03c-.14-.03-.29.03-.43,0-.14-.18-.2-.32-.43-.43v-.43c.12.04.29-.03.43,0,.1.33.44.53.43.86Z"/>
  <path class="b" d="M82.4,125.78h-.43v-.43c.23.1.41.13.43.43Z"/>
  <path class="b" d="M80.67,126.64c-.03.14.03.3,0,.43-.56.03-.67-.82-.22-.86l.22.43Z"/>
  <polygon class="b" points="83.26 126.21 82.83 125.78 83.26 125.78 83.26 126.21"/>
  <path class="b" d="M83.7,125.35h-.43v-.43c.14.02.29-.02.43,0v.43Z"/>
  <path class="b" d="M85.86,122.76c-.36.06-.39.41-.43.43-.09.05-.29-.03-.43,0,.23-.32.35-.86.86-.86v.43Z"/>
  <path class="b" d="M81.1,127.94c-.14-.03-.35.06-.43,0v-.43c.19.07.38.23.43.43Z"/>
  <path class="b" d="M79.38,128.8c-.09.27-.41.63-.43.86h-.43c-.03-.13.02-.29,0-.43l.43-.43c.14-.01.29.02.43,0Z"/>
  <path class="b" d="M89.31,120.16c-.03.15.04.32,0,.43-.13.32-.11.3-.43.43-.1.04-.28-.02-.43,0,.01-.29,0-.57,0-.86.27.04.63-.06.86,0Z"/>
  <path class="b" d="M76.78,114.12c-.14-.03-.29.03-.43,0-.14-.18-.2-.32-.43-.43v-.43c.12.04.29-.03.43,0,.1.33.44.53.43.86Z"/>
  <path class="b" d="M80.24,118.87h-.43v-.43c.23.1.41.13.43.43Z"/>
  <path class="b" d="M78.51,119.73c-.03.14.03.3,0,.43-.56.03-.67-.82-.22-.86l.22.43Z"/>
  <polygon class="b" points="81.1 119.3 80.67 118.87 81.1 118.87 81.1 119.3"/>
  <path class="b" d="M81.54,118.44h-.43v-.43c.14.02.29-.02.43,0v.43Z"/>
  <path class="b" d="M83.7,115.84c-.36.06-.39.41-.43.43-.09.05-.29-.03-.43,0,.23-.32.35-.86.86-.86v.43Z"/>
  <path class="b" d="M78.94,121.03c-.14-.03-.35.06-.43,0v-.43c.19.07.38.23.43.43Z"/>
  <path class="b" d="M77.22,121.89c-.09.27-.41.63-.43.86h-.43c-.03-.13.02-.29,0-.43l.43-.43c.14-.01.29.02.43,0Z"/>
  <path class="b" d="M87.15,113.25c-.03.15.04.32,0,.43-.13.32-.11.3-.43.43-.1.04-.28-.02-.43,0,.01-.29,0-.57,0-.86.27.04.63-.06.86,0Z"/>
  <path class="b" d="M219.3,117.9c.14,0,.29,0,.43,0l.43,1.3c-.07.03-.69.55-1.3.86-.29.15-.56.25-.86.43-2.73.44-4.71,2.36-7.76,2.39l-3.04,1.49c-2.29.32-4.44,1.05-6.48,1.3-.05,0-.34-.4-.64-.36-1.78.22-7,.49-8,1.23-.16.12-.29.29-.43.43-1.59,0-4.19.44-5.62.86-.41-.06-.87.03-1.3,0v-.86l-3.05-.19-.4-1.53c.57,0,1.15,0,1.73,0,1.08,0,2.74.34,3.46-.43.86-.04,1.74.06,2.59,0s1.23-.42,1.3-.43c.14-.02.29.02.43,0,.92-.12,1.73-.3,2.59-.43,1.87-.29,3.73-.67,5.62-.86.42-.04.87.04,1.3,0,.37-.03.74,0,.86-.43.14,0,.29,0,.43,0,.29-.02.62.05.86,0,.2-.04.37-.23.43-.43.44-.13.84-.31,1.3-.43.41-.05.92.08,1.3,0,.43-.09.67-.37.86-.43.38-.12,1,.15,1.3-.43h.43c.43,0,.87.02,1.3,0,.47-.02,1.08.13,1.3-.43.14-.01.3.03.43,0,.2-.04.36-.24.43-.43.14-.01.29.01.43,0,.29-.03.62.05.86,0,.2-.04.37-.23.43-.43.14-.04.31.04.43,0,1.02-.36,1.21-.83,1.3-.86.3-.13,2.03-.83,2.16-.86.13-.03.29.02.43,0,.51-.09,1.17.03,1.73,0Z"/>
  <path class="b" d="M111.42,111.69c.25.17.57,1,1.05,1.32,1.85,1.22,1.66-.87,3.27-1.75.68.07.73.09,1.3.43.15.09.27.34.43.43.11.06.29.57.86.86l-1.3,2.59,4.99,1.28c.74,2.01,3.56,3.77,1.28,5.63l-.65-2.16-4.32,1.73c-.2-.18-.64-.25-.86-.43.05-2.62-3.46-5.94-6.05-5.62-.22-.18-.65-.25-.86-.43-1.3-1.11-1.92-2.1-2.16-3.89-.04-.28.03-.58,0-.86,1.01.22,2.13.25,3.02.86Z"/>
  <path class="b" d="M142.63,107.52h4.32c.02.19.18.51.43.43-.03.14.02.29,0,.43s.02.29,0,.43l-.86.43c-.13.03-.29-.01-.43,0-.29.02-.58-.02-.86,0v.64c.12.3.41.2.43.22.27.25.95.56,1.3.86.15.13.28.3.43.43s.27.32.43.43c.11.08.06.54.43.43l.43-.22c.08-.16-.04-.43,0-.64.03-.13,0-.29,0-.43s.01-.29,0-.43h.43c.14,0,.29,0,.43,0s.31-.03.43,0c.12.16.31.28.43.43s.29.29.43.43.29.29.43.43c.32.32.51.54.86.86.15.13.27.31.43.43.4.32.87.59,1.3.86.17.11.31.6.86.86.11.05.29-.04.43,0,.1.06.19.34.43.43.19.07.59-.04.86,0,.14.02.29-.01.43,0,.21.55.82.43,1.3.43.57,0,1.43.2,1.73-.43h.43l.43-.64-.86-.65c-.01-.14,0-.29,0-.43s0-.29,0-.43,0-.29,0-.43,0-.29,0-.43h1.3c.09.16.28.33.43.43.9.58.9.32,1.73.43v.43l.25.91c.61.21,1.25.43,1.91.39.06.67.83,1.78,1.3,2.16h-1.73v.86c-.16-.12-.88-.16-1.3-.43-.1-.06-.32.06-.43,0-.15-.08-.27-.35-.43-.43-.29-.14-.48-.28-.86-.43-.08-.03-.1-.4-.22-.41-.19-.01-.15.35-.22.41-.09.09-.34.06-.43.43-.06.25.04.59,0,.86l.43.43c.14.02.29-.03.43,0,.06.19.24.4.43.43.14.02.29-.02.43,0,.22.57.82.41,1.3.43.14,0,.29-.01.43,0,.42.04.92-.07,1.3,0,.08.37-.05.88,0,1.3l-3.89.44c-.46.65,2.2,2.96,2.97,3.09l.06,3.38c-1.32-.52-2.45.79-3.27.87-1.04.1-1.21-.63-2.78-.44-2.11.25-2.03,1.11-2.59,1.3-.07-1.49.13-2.99-.06-4.48l-2.1-.71c.42-.31,3.18-2.51,2.59-3.02-3,.13-4.8,2.35-8.21,1.94-.95,1.55,2.18,1.35,2.71,1.55.32.12.87,1.88,2.04.41h.86v4.32c.49-.34,2.06.03,2.16,0,.17,3.44.31,1.63,2.42,3.2.61.45,1.72,1.44,2.33,1.99.37.33.5.94,1.29.87v.64l-2.59.65c-.5-.32-.79-.46-1.3-.86-.95-.76-1.53-1.98-3.02-2.59.17-.67-.33-1-.86-1.3-.79-.8-1.79-1.37-2.59-2.16l-1.71-4.13c-.72-.16-4.16-.36-4.34.47-.26.72,2.42,1.93,2.59,1.94l-.43,1.3c-.08-.06-1.08-.03-1.6-.33-1.96-1.14-3.95-2.73-6.18-3.56-.04-.12.04-.29,0-.43-.29-1-1.11-1.83-2.16-2.16-.21-.06-.59.03-.86,0-.14-.02-.29,0-.43,0l-.04-1.24c-.89.19-2.14-.85-2.55-.92h1.73v-1.73l.9-.26c.02-.41-.47-.56-.47-.6-.01-.14,0-.29,0-.43.06-.9.82-1.45.86-3.02,0-.13.03-.3,0-.43-.09-.5-.04-.5-.43-.86-.02-.15.03-.31,0-.43-.05-.21-.23-.36-.43-.43-.03-.1,0-.3,0-.43,0-.15-.04-.34,0-.43.16-.41.45-.7.86-.86h.43c.43.79.82,1.41,1.3,2.16.32.51.72.67.86.86.21.29.85,1.09.86,1.3,0,.13-.44.63-.4,1.08.15,1.51,2.15,1.81-.89,3.45,1.64.52,1.67,3.61,2.12,3.92,2.11,1.46,3.72-1.68,5.23-2.6,1.3-.79,2.99-.13,2.57-1.96.43.01.87.02,1.3,0,.14,0,.29.01.43,0s.29.02.43,0,.29.02.43,0l.43-.43v-.43c-.07-.23-.35-.31-.43-.43-.12-.16-.31-.28-.43-.43s-.29-.29-.43-.43c-.03-.14.05-.33,0-.43-.1-.19-.3-.29-.43-.43s-.29-.34-.43-.43c-.13-.08-.24-.38-.43-.43s-.6,0-.86,0-.64-.05-.86,0c-.4-.24-.83-.37-1.3-.43-.14-.02-.29.01-.43,0-.03-.13.05-.31,0-.43-.25-.6-.67-.62-.86-.86-.93-1.14-1.97-2.71-3.46-3.02l-.43-.43v-.43c0-.14,0-.29,0-.43s-.01-.29,0-.43c.04-.43.4-.71.43-.86h.44Z"/>
  <path class="b" d="M318.68,87.76c.15,0,.34-.04.43,0,.28.12.74.79,1.33,1.04,1.14.5,4.86,1.65,5.58,2.21.89.7.34,1.17-.42,1.5-.51-.32-2.06-1.11-2.61-.67-.75,1.06-.52,2.18-.41,3.27.09.79.79,1.93.43,3.02,2.73.34,1.65-3.38,4.32-2.59.7,1.02-.22,2.25,0,3.46-.04.03.13.57-.1.75-.77.6-3.74.11-.77,2.92-1.94.73-.98,1.57-1.38,2.94-.25.89-1.72,1.28-1.65,2.47-2.23-1.95-1.45-2.61,1.3-3.03l-.02-1.26-1.71-.68,1.73-.43c-2.7-2.39-3.87,1.82-4.35,3.88,1.28,1.41,1.66,2.79,3.49,3.47l-2.15,2.59,1.72,1.51c-1.8.71-3.47-.35-4.97.78-.25-.56-2.22-2.58-2.27-2.76-.12-.43.37-1.63-.1-2.34-1.07.5-2.59.89-3.46-.22-.03-.71,1.42-2.86,2.15-2.36l1.73,2.59-.43-1.72c2.85.51,1.83-2.37,3.46-3.89l-3.85.9-.25,1.26c-1.72-.03-1.59-2.15-3.23-1.73.81,2.44-1.39,4.48-1.71,6.29-.17.98.1,2.01-.03,2.99-.23,1.85-1.75,5.28,1.46,4.92,1.34-.49.03-3.12.71-4.27.72-.25,1.14.72,1.51.73.42,0,1.78-1.64,2.8-1.15l.42,1.52c1.32-.36,2.04.65,3.08,1.31l-1.76,3.63,11.46,2.85c1.37-.56,4.11-2.5,5.39-1.34,1.1,1-1.76,1.38-2.29,1.61-.67.3-1.01,1.11-1.83,1.2-1.87.2-5.99-1.71-8.42-.86,1.34,1.15,2.94,2.38,4.75,2.59.08.42-1.62,1.27-1.72,1.29-1.14.21-2.74-.2-3.89,0l-.61-.87c3.19.54.56-3.55-.31-.47l-1.66-.41v-1.25c1.59-.45,3.01-.07,3.01-2.17l-4.32-.87,1.3.43v1.29c-1.55.3-2.67-.83-3.67,1.31-.8,1.7.63,2.3.64,3.88-.2,0-.6-.35-.86-.43-.76-.23-2.51-.99-2.78-1.71-.15-.4.2-.96.08-1.42-.16-.62-.96-.83-.76-1.62h1.72c-1.87-2.76-2.29,2.06-4.75,1.29-.16-.3-.63-.95-.86-1.3.18-2.45,1.33.42,1.51.42l1.08-1.5c-1.06-1.02-2.37-1.38-3.46-.22-.25-.25-1.45-1.14-1.73-.86l.43,2.16c-1.68.83-3.03-.91-4.56-.91l-.82.86-1.97-.38c.23,4.17,4.98,1.75,7.78,2.59v-1.3h.43c.19.08.58-.1.85.03-.6,1.85-.35,1.96,1.31,2.56,1.24.46,1.93-.56,1.73.86l-4.12.83-1.04-1.93c-1.55-.91-1.76,1.03-2.27,1.43-.13.1-1.09-.29-1.65.31-.88.94.09,2.91-2.59,2.4-.69.61,3.45,3.74,3.45,4.1,0,.25-1.62,1.01-1.27,2.11.18.56,1.18.66,1.49,1.15.49.79-.22,1.86,1.51,2.14v-2.16s2.16.86,2.16.86l-.86-3.45h3.88c-1.23-2.29,2.04-3.46,3.89-3.89.24.23-1.39,3.32-1.7,3.6-.51.49-1.26.22-1.33.29-.1.1.4,1.25.34,1.83-.11,1.02-.82,1.99-.72,3.07l2.24,1.09,2.49-1.93c.82.89,2.7,1.56,3.42,2.22.63.58.7,1.64.97,1.84.52.37,4.17.95,5.09.96-.29,1.04-1.46.85-2.3.84l-.72,1.75h-2.59l.43,1.3c-.09-.03-1.26-.03-1.73-.43-.17-.15-.29-.19-.43-.43-.13-.22.24-.78-.43-1.3s-2.36-.43-3.24-.86l-.22.43c-.02.14.03.29,0,.43-.02.13-.02.31,0,.43-.25-.05-.58.02-.86,0,.01.57-.05,1.16,0,1.73l-.42.21.64.64c.44-.26-.2-.58-.22-.86h1.29c.19-.54-.39-1.04-.43-1.3.92.75.7.63,1.3.43.26-.09.62-.28.86-.43l.86.43c-.74.11-3.33,1.74-3.02,2.15,1.74.35,1.59,2.75,3.88,2.17.56-1.18-.83-1.36-.87-1.51-.41-1.49.79-1,.87-1.08,1.8.78,1.97,1.18,3.89.43,1.34-.52,1.81-1.7,3.45-.86.24-.61-.41-1.04-.43-1.3-.02-.35-.01-.64.3-.86.67-.64,5.04-1.17,5.29-.83s.01,1.65-.2,2.12c-.74,1.65-3.08.59-1.93,2.6-.22.04-.76.64-1.3.43-.54-.38-2.18-.9-2.84-.9-.76,0-.49.72-.95.89-.4.16-1.26-.11-1.4.02-.16.14-.18,2.77.66,3.02l1.55-.63.6-2.39c-.32,1.88,1.74,2.36.83,3.89l-3.21.42h-.43c-.06-.08-1.03.08-1.11-1.33-2.31.06-4.36.34-6.45-.84l.64,2.6-.86-.44c-1.67-2.22-3.72-3.41-5.4-.41-.43.06-.73-.25-1.08-.45-.28-.16-.2-.91-1.52-.91s-1.42.88-1.51.91c-.44.15-1.54-.06-2.16,0l-5.39-2.16-.22,1.29-2.16-.24-.43,1.53c1.47-.3,2.54.76,3.69,1.08.24.07.56-.24.63-.22.98.28,1.96.81,3.02.87-1.32,4.07-11.1-2.04-12.1-1.3.92.61.72,2.35.86,2.59-1.59.19-.83,2.67-2.9,2.96h-.5c-.16-.22-.29-.68-.49-.8-1.1-.71-1.74-1.12-3.2-.86-.91-3.62,3.69-.26,4.74-1.7.74-1.42-.47-2.05-1.11-3.05,1.44-.05,3.41-1.91,3.02-3.46.45.15.32.57.43.86.29.79,0,.74.86,1.3.09.06.29-.05.43,0,.23.08.35.47,1.03.43.51-.03.8-.35,1.13-.43.82-.22,1.68-.83,2.59-.87v-.42c-.7-.25-1.45-.29-2.16-.44-.47-.1-1.38-.92-1.73,0-.1-.08-.61.08-.86,0l.44-1.28c-.5.06-.9-.32-1.3-.44-.25-.07-2.46-.45-2.59-.43-2.36-.01,1.21-.9.43-1.72l-2.16-.44,1.3-1.72c-2.03.11-3.05.65-2.12,2.69.31.68,1.08.24.39,2.49-1.62.67-1.72.35-2.43,2.19-1.72.3-3.33-2.48-4.05-1.76.22,1.68.77,2.32,2.16,3.02v.43c-.39-.02-1.14.28-1.73,0l.43,2.16-1.29-1.08c.17.58,1.12,1.24,1.29,1.52,1.52,2.52-.19,1.72-.69,3.43s1.95,1.49,3.04,1.3c1.27-.22,1.23-.71,2.83-.84,1.17,1.5,2.32,1.11,3.89.86l.7,1.75c.77-.08,1.79.16,2.5-.09.6-.21.59-1.06.77-1.18.17-.11,2.79.65,3.37-.7l-.86-2.38c1.07-.01,1.65.93,2.81.9.85-.02,1.61-.73,2.8-.9.37,1.17-.25,2.25.86,3.24l-.42.21c-1.33-.25-2,.79-3.59-.81l-2.88,1.89c1.15,2,2.5.78,4.31,1.51-.1.12.26.7-.54,1.02-.14.05-2.77.32-2.92.28-1.4-.32-.46-.32-2.8-.39-.28,0-2.95-.77-3.24-.9-1.23-.57-2.46-5.6-2.59,1.3.16.18,1.31-.45,1.72-.43.53.03,6.61,1.11,6.91,1.3.05.03,0,.62.26.83.45.36,1.11.33,1.04.89-1.51.5-3.84-1.4-4.75.44-.65.27-1.84.93-1.74,1.72-1.35-1.33-2.28-.66-3.88-.43l-2.16-.22c2.73-1.4-.85-.72-1.26-1.12-.12-.41-.04-.83-.03-1.25,2.47.73,4.38-2.55,1.73-3.46-.51-.18-.61-.45-1.3,0v-.98c-2.32-1.52-.68,1.65-.86,1.83h-1.3c-.36-.29-.96-.26-1.3-.43-1.72-.86-3.14-2.79-4.18-.4-.7.21-1.38-.38-1.87-.46-1.49-.25-2.27-.21-3.89,0l1.34,3.19c2.32,1.44,1.3,1.47.83,3.72l4.32-.43c.32.65.41,1.46.43,2.16.02.57,0,1.15,0,1.73-1.26-.37-3.17-.52-4.32-.86-.08-.02-.36-.54-1.3-.86,0,.3.17.88-.22.87l-3.66-.87v1.72c1.99-1.04,1.47.41,2.35.48.94.08,1.93-.25,2.83-.48-.44,2.41-2.56.54-3.89,1.73-.13-.14-.62-.29-.86-.43-.72-.42-1.49-.29-2.13-1.14-.81-1.08.39-1.26.41-2.1,0-.33-1.38.02-.88-1.08,3.08-1.52,3.56.82,4.61,1.22.51.2,1.16-.03,1.44.07.07-2.24-1.24-3.72-.89-6.02l-2.5-.06c-1.02-1.73.34-.92.64-2.1.19-.77.06-1.45-.35-2.11-3.23-.9-6.33.39-5.54,4.24-1.31.29-1.81-.7-2.16-1.73-.37-1.09-.2-1.41,0-2.59-1.54.35-2.02-.32-3.02-.86l1.73-.43c-.19-1.09.06-1.52-.87-2.16-.7-.48-1.14-.34-1.3-.43-.82-.47-1.71-1.25-2.58-1.52l.7,1.54,1.89-.03v.43c-.57,0-2.32.13-2.59,0-.04-.02.05-.46-.43-.86-1.18-.98-.66.15-1.15.44-.57.34-1.78.22-1.9.69l.03,1.89,1.51-.85c.47.7.9,1.16,1.51,1.72.55.5.93.75,1.67.92l-.37,1.68c-2.74-.54-1.37-.67-2.18-1.28-.45-.34-1.2.71-1.57.78-.47.08-2.07-1.37-3.16-.79l.44,1.5-.86.21c.19-1.05-.92-.7-1.18-.96-.29-.3-.13-1.07-.55-1.4-.59-.47-2.06-.13-2.79-1.07-.16-.22.02-.83-.16-1.18-.29-.56-1.54-3.07-1.67-3.19-2.08-1.78-3.48.51-5.75.03.82-2.16-1.75-1.9-2.47-2.72-.25-.29.03-.92-.41-1.18-.25-.15-2.18-.51-2.31-.42-.02.29.01.57,0,.86-.12,2.26-.45.86-1.3,1.3-.3-.79-.38-2.44-.86-3.02-1.31-1.57-3.85.62-5.61,0-.45,1.35,1.35.86,1.66,1.37.58.93-.88.95,1.36,2.08.76.38,1.57.53,2.16.86,1.3.75,2.21,2.49,3.89,2.16-.44-.59.03-2.05,0-2.16l1.72-.86-.15,2.91c.44.98,2.38.36,1.88,2.27l-4.32-.43-.43,2.59-.86-.22.42.65-2.61-.18-.85-1.98c.06-.02.4-.9.86-1.1.77-.34,2.17.89,2.6-.62-1.36.4-1.31-.86-2.03-1.21-.86-.42-2.1,0-2.7-.31-1.14-.58-.98-2.37-2.62-1.93-.79-1.66-2.11-2.11-1.3-3.88l-2.32.41c-.75-.23-.59-1.52-1.13-1.94-.21-.16-2.69,0-3.02-1.49.08-.03.21-.68.62-.72.8-.07,2.08,1.04,2.64,1.02.38-.02.57-.73.63-.73.11-.01,1.94-.01,2.16,0s.72.67,1.3.43l-.86-1.29.8-1.08-1.24-1.73.87-.86-1.02-.6-.27-.91,1.29-.44h2.16l.43-.22c.15-.5-.42-.6-.43-.64-.38-1.63.09-2.57,0-3.46.4.06.95-.09,1.3,0,.13.03.29-.03.43,0l.22.86,1.08-1.08-.87-.43c-.09-.55.41-.93.88-1.08v.43c-.57.27-.07.29,0,.43.29.57.63.89.86,1.3.59,1.02,1.63,1.51,1.3,3.02,2.15.08.76-2.04.86-2.15.05-.05.79.06,1.3-.44.87-.86.13-1.18.21-2.15,1.77,1.13,2.91,2.31,4.97,2.15,1.72-.13.7.06,1.92.89,1.28.87,2.39-.16,1.96-.88-.15-.25-1.86.08-.86-1.74.15-.19-.04-.87.86-1.07l-.86-1.34c-.25-.19-1.56.5-1.74.68l-3.88-2.38,1.72-1.08c-.23,1.17.3,1.38,1.3,1.73.19-1.03-.54-1.75-.86-2.59h1.07l.22.43c-.32-.04-.48.12-.43.43.07.5.48.67.86.86.67.34,1.01.67,1.94.43l.22-.43c.03-.52-.41-.41-.43-.43-.18-.19-.68-.25-.86-.43-.11-.11.01-.62-.86-1.3,0-1.51,2.45-1.6,3.45-2.16-.26,2.76,1.63,2.77,3.89,2.59.41-1.61-1.62-.53-2.16-.86l.43-.86c1.27.23,2.57-1.12,3.02-1.3.38-.14,1.26.12,1.73,0v.43c-.09.06-.53-.13-.78.07-.31.25-.42,1.5-.94,1.87.74,1.15,1.92.05,2.99.19l-.41-2.57c.57-.29.16-.51,1.73-.86,2.42-.54,1.59.29,3.01.69.84.24,2-.77,2.61.18-.14,0-.29,0-.43,0-.76-.03-1.14-.08-.86.86.06.23.63.64.86.86-.6-.23-1.08.39-1.3.43-1.11.22-2.54-.13-2.59,1.72l3.68,1.71c.71-.44.63-.99.64-1.7.29.1.59.37.86.43.14.03.3-.04.43,0s.31-.04.43,0c.11.04.26.35.43.43-.25.05-.74.63-1.29.44-.86,1,3.61,4.02,4.31,2.15.59.5,1.46.9,1.73,1.72l-2.16.43c1.32.44,2.22.75,2.98-.7.07-.4-1.72-2.82-2.12-3.18.7.06,1.46-.09,2.16,0,.3.04.34,0,.43,0,.14,0,.29,0,.43,0,.06,0,.13.42.22.42l.22-.42v-.43c1.29.29.71-.64.86-.86.17-.25.12-.27.43-.43.01.15-.03.32,0,.43.29,1.08.87,2.29,1.73,3.02.36.31.29.36.86.43.13.02.29,0,.43,0-.43,1,2.83,1.63,3.27,1.7,2.54.36,1.78-.75,1.91-.83.72-.46,2.73.01,3.46,0,.82.11,2.7.51,2.58,1.52-.04.39-1.71.54-1.29,1.51-.4-.03-.99.09-1.3,0-.14-.04-.33.05-.43,0-.16-.09-.3-.79-.43-.86l-.22-.42-.22.42-2.16.86-1.98-1.27-1.25.83-1.3-1.28c-2.17,1.75,2.32,2.16,3.24,2.58s1.03.85,3.04,1.5c1.04.34,1.81,2.07,2.15-.2,2.25.71,3.26,1.75,5.62.43.26.43,2,.86,2.16,1.95l-.86.64c.72,0,1.44,0,2.16,0h.86l.43.43v.43c-.15,0-.31.03-.43,0-.06-.01-.1-.5-.42-.44l-.44,1.3c.27.06.65-.06.86,0,.44.15.84.3,1.3.43,1.57.45.23.19.56.76.12.2,1.24.32.75,1.82.28.07.57-.03.86,0,.89.1,1.72.2,2.59.43l-.43-1.29,1.12.89,4.49-.9c.7-.56-1.31-1.54-1.62-1.61-.79-.19-2.29-.43-3.14-.54l-2.38-3.02c-1.08.66-.1,1.29-.22,2.15-.03.26-.41.63-.43.86-.19-.34-.6-1.18-.86-1.3-.19-.08-.6.06-.86,0,.05-.1-.03-.28,0-.43l1.3-.86h-1.3c.13-.4.37-1.03.43-1.3v.86c.13.12.59-.32.86-.43.13-.05.33.06.43,0-.1.1.06.44.22.43.47-.03-.01-.64-.22-.43.25-.13.44-.54.86-.44-.02-.31-.41-.66-.43-.86.24.09.7.46.86.43.57-.1.41-.42.43-.43.27-.15.51-.1.86-.43.07-.06-.07-.36,0-.43.15-.15,1.28.43.84-1.26-.56-.13-1.13-.42-1.7-.47-.14-.01-.29,0-.43,0,.1-.1-.06-.44-.22-.43-.47.03.01.64.22.43v.43c-.15.03-.32-.04-.43,0l-.22-.43-.64.43c-.06.03.06.4,0,.43-.14-.03-.3.03-.43,0-.12-.03-.29,0-.43,0v-.43l.86-.86-1.73.43h-.43c.04-.07,0-.28,0-.43,0-.03.4-.13.37-.23-.3-1.02-3.28-2.06-4.26-2.36-.23-.07-.61.06-.86,0-.16-.04-.44-.36-.86-.43-.85-.15-1.38-.47-2.59,0-1.71-1.7-3.3-2.18-5.6-.87l-.66-1.29c-.57.24.33,1.56-.84,1.28s-4.14-1.48-3.45-3.01l-.48-.43c-.63-.19-1.08.32-1.49.42-.19-.32-.69-.3-.86-.43-1.87-1.36-.69-1.68-1.04-2.17l-2.66-1.27.49-3.06-3.27-1.5,1.32-.93-.46-2.74c1.63-.33,1.4,2.76,1.73,3.02,1.9-.18,2.45-3.27,2.62-3.42.8-.71,5.5.7,4.72,2.99-1.46-.43-2.05-.7-3.04.65-.73.99.14,1.93-2.14,1.52l.89,4.32c1.66.32,4.74-1.43,3.46-3.19-.44-.61-1.66.28-1.33-1.12l3.4-.52.3-1.24,1.92.03v-1.29h-2.16s1.3-5.18,1.3-5.18l-1.33.25c.09.76-.76,1.89-.83,2.34l-.25-.32c-1.68.88-1.98-.4-2.34-.54l.23-.44c-.65-.42-1.29-.91-1.96-1.29-.34-.19-.46-.27-.86-.43-.12-.05-.29.04-.43,0v-.43l.43-6.05c.19.15.61.33.86.43.22.29.57.3.86.43.44.2.67.6,1.3.43-.36-.63-.48-1.63-.86-2.16-.03-.04.08-.31-.22-.43h-.64c-.03.35-.19.63-.44.86-.09.09-.48-.12-.64,0l-.22.43c-.16-.13-.3-.28-.43-.43.16-.12.28-.32.43-.43s.82.05,1.09-.41c.59-1-.19-2.51,1.93-3.27l-.86-1.94c2.16.69,2.44-2.23,3.03-3.89-.85-.02-1.54.35-1.3-.86l2.59-.44-.86-1.51c1.16-.84,2.14-.55,2.16-2.37l.86,1.29v.43c0,.43,0,.86,0,1.3,0,.14,0,.29,0,.43-.2.05-.41.23-.43.43-.05.41.01.87,0,1.3,0,.29,0,.57,0,.86-.6.86-.35.87-.43,1.73-.07.78-.04,1.79,0,2.59.02.29,0,.58,0,.86l.22.42.22-.42c.02-.29-.03-.58,0-.86.11-.85.34-1.52.43-2.16.04-.28-.04-.59,0-.86.43-.14.39-.5.43-.86.02-.14,0-.29,0-.43s0-.29,0-.43,0-.29,0-.43c.57-.22.41-.82.43-1.3,0-.14,0-.29,0-.43,0-.29,0-.57,0-.86v-.86c.21-.05.4-.23.43-.43.06-.38-.02-.88,0-1.3,2.21-.5,3.52-.35,5.62.43l-.8-1.08,1.23-1.5c-1.24.1-1.14-1.64-1.29-2.6.12.03.28-.02.43,0,.15.14.28.3.43.43,1.28.51.79,1.96.86,3.02.02.29-.02.58,0,.86,0,.14,0,.29,0,.43s0,.29,0,.43c.01.43,0,.86,0,1.3s0,.86,0,1.3c-.2.04-.41.23-.43.43-.08.83.03,1.74,0,2.59,0,.14,0,.29,0,.43s.01.29,0,.43c-.02.15.03.32,0,.43-.02.08-.38.24-.43.43-.06.25.07.64,0,.86-.11.15-.32.26-.43.43-.06.1.06.33,0,.43-.47.76-.53,1.05-.86,1.73-.25.51-1.14.86-.86,1.73l.43-.43c.47-.16.63-.48.86-.86.06-.1-.05-.3,0-.43.24-.06.32-.24.43-.43.09-.16.35-1.02.43-1.3.04-.13-.04-.3,0-.43.14.02.29-.03.43,0s.29-.01.43,0c.28.03.76.7,1.31.25l.85-1.55c-.03.43.04.87,0,1.3-.06.51-.86,1.63-.43,2.59h.64c.3-.11.2-.41.22-.43.06-.06-.03-.29,0-.43h.43l.43.43c.03.91.11,2.17,0,3.02-.02.15.03.31,0,.43-.03.11-.35.26-.43.43-.06.13-.35.26-.43.43-.14.29-.3.57-.43.86-.06.13-.39.27-.43.43-.03.11,0,.29,0,.43-.01.29,0,.58,0,.86l.86-.43.26.9c.36.01.54-.47.6-.47,1.15-.06,1.25,1.72,3.02,1.29l-.85-1.94c1.3-1.63,2.99,1,4.74.66l-1.3.43c-.11,2.76.99.53,1.74.22s1.51-.16,2.26-.34c.47-.11.91-.82,1.4-.75.77.1.44,1.51.19,1.7-.57.41-3.59-.78-3.41,1.33l5.62.87c-1.35,4.34.89,4.25,3.67,6.48.65-1-1.3-3.15.65-3.02,1.06,1.25,3.89,1.35,5.62,1.73,2.02.45,5.46,2.42,6.48,0-.88-.11-1.82-.26-1.73-1.29h-.86s0,1.29,0,1.29c-1.11.37-1.1-1.11-1.34-1.26-.16-.1-.9.44-1.25.4-1.82-.22-4.79-1.09-6.48-1.73-.92-.35-.93-.45-2.16,0l-.44-1.73,1.73-.22c.19-.88-1.05-.84-1.24-1.16-.13-.22-.09-2.74.8-2.3l2.43,2.29c1.94-.24,3.1-1.03,2.75-3.13-.43-2.61-2.8-.66-4.32-1.31.39-2.45,2.53-1.37,4.36-2.21,1.37-2.48-1.51-2.57-1.34-4.49.3-.33,2.36,1.75,2.59.21.19-1.33-3.62-.98-.82-2.19l-.48-1.47,1.73-1.3c.25.06.59-.04.86,0,.44.06.86.5,1.72,0l-.87,1.95.44,1.3,2.6-.24-.86-1.3.66-.86c1.69.63,2.32.91,3.01,2.59l1.08-1.08c.26-1.11-2.49-.55-.45-2.97l-1.71-1.56c1.18-.08,3.49-.62,4.32-1.51l-1.91-1.48c-.57.25-5.86,1.46-4.29,2.54.4-.11.87.42,1.02.44l-.68,1.75c-.79-.34-2.7-.26-3.23-.66-.94-.69.82-1.72-2.57-1.52-.29.02-.58-.01-.86,0,0-.14-.01-.29,0-.43.15-.14.32-.18.43-.43.04-.09-.02-.28,0-.43.02-.14-.01-.29,0-.43.19-.08.37-.23.43-.43.04-.13-.04-.3,0-.43.12-.41.38-1.01.43-1.3.15-.14.32-.18.43-.43.05-.1-.04-.29,0-.43.03-.13-.03-.29,0-.43l.43-.43c.01.05.43.15.57.44.12.24-.14.72-.06.79.2.16.95.14,1.43.48s.92,1.15,1.3,1.31c1.05.45.54-.82.21-1.29,1.49.07,1.7-2.87,1.97-3.42.39-.76,1.08-1.81,1.91-1.77v.03Z"/>
  <path class="b" d="M356.68,169.07l-1.78-1.23c-.32-2.61,4.75-2.92,5.42-4.76.39-1.07-1.98-.8-2.17-1.01-.71-2.69,1.43-2.79,2.28-3.67.55-.57.74-1.46,1.57-2.09s4.47-2.56,5.27-1.43c-.02,1.79,1.53,3.89.5,5.49-1.35,2.09-6.42-1.06-6.99,2.91.89.53,2.09-.17,2.72-.03.18.04,2.3.88,2.95,1.1,1.18.4,4.03,2.65,5.03,1.1l.54-2.02c.18-.16,2.19.07,2.62.15,2.8.51,3.43,2.27,5.77-1.08-.1-1.26-.67-2.89.03-4.07.35-.59,1.23-.47,1.62-.89.36-.38.36-1.37.86-1.91,1.09-1.17,2.58-.29,2.05-3.05-.2-1.06-1.71-2.43-.56-3.47,1.33-1.21,2.73.25,4.02,0,.21-.04,3.59-1.69,3.86-1.87,1.11-.72,1.9-3.97,3.38-4.31.53-.12,3.23.32,3.92.57,2.04.73,2.46,5.42,4.78,2.01.17-2.03-1.72-2.36-2.76-3.06-.5-.33-.51-1.24-1.38-1.46-.3-.08-3.93-.25-4.35-.22-1.26.11-2.31.46-4.21.58-2.33.14-5.41,1.15-7.15-.92,1.4-1.57,1.51-2.89,2.21-4.55s1.66-1.33,1.27-4.14c-.19-1.38-1.89-3.87-.16-4.83,1.55-.86,4.55,3.62,5.49,4.66,1.31-.04,7.67,3.45,5.3-.13-.29-.44-.87-.25-1.11-.36.53-.79-.78-2.4-1.23-2.95-3.21-3.94-6.73-5.81-10.48-8.68-.24-1.44,1.38-2.59,1.49-3.83.13-1.59-1.15-4.25.49-6.19.9-1.07,3.43-.15,3.89-2.66.37-2.01-.57-1.7-.85-2.23-1.65-3.13-1.78-7.75-3.03-10.68l1.2-.68-.45-2.38,2.17.35c-.9,1.9-.65,3.77.47,5.57.55.89,1.51.95,1.84,1.38.69.86.57,2.86,2.83,2.78.62-1.45-1.27-2.89-1.3-3.62-.04-.79,1.01-1.41,1.27-2.03.42-1.02-.05-2.29,1.2-3.04.22-.01,1.63,3.68,1.68,4.06.14,1.25-1.18,2.73-1.16,3.05.06,1.09,1.12.2,1.5-.27.92-1.12,1.11-2.78,2.27-3.94.19-.11,1.84.62,2.17.9.18.15,2.53,3.7,2.62,3.92.34.87.25,2.93,1.07,3.69.61.57,1.39-.16,2.17.91,1.56,2.13.25,3.91.94,5.28,1.05,2.09,2.83.39,3.63.8.5.26,2.53,3.27,1.98,4.17,1.47.51,2.12-1.14,2.84-1.35.18-.05,3.4.22,3.72.31.62.16,1.1.91,1.77,1.23.62.29,1.68.16,2.08.45.2.14,1.71,3.18,2.55,3.99.61.58,2.47,1.72,3.21,1.14l1.25-2.16.13,3.02,1.72-.06c-1.03-3.06,2.11-1.05,2.78-.1,1.24,1.77-.05,3.11,3.83,3.28-.4-.87,1.37-3.17,2.06-2.68,1.14,1.89-1.22,2.51-.25,4.33,2.17-1.08,2.49-.95,4.54.25.41-.12.96-3.36,2.7-2.25.33.21.45,3.75,1.14,4.85.77,1.24,2.32,1.2,3.08,2.06.62.71.54,1.85,1.24,2.38.32.24,4.74,1.96,5.15,1.91,2.16-.21,1.86-2.47,2.54-2.69,1.51.74,3.26.22,4.83-.48,1.27-.57.36-1.93.44-2.91.35-4.49,3.42-2.4,2.62,1.34l2.16-.09c-.44,2.96,1.46,2.46,2.99,3.75.73.62,3.33,3.36,2.96,4.22l2.97-1.41c-.1,1.06.03,3.03,1.62,2.52,1.09-.35-.63-3.53,1.13-4.36,1.06-.54.49,2.27,2.49,1.84,1.46-.32.29-2.93,2.43-2.9-1.34,4.72,3.26,6.93,6.24,9.69l.15-1.74c1.9-.25,2.55,1.19,4.58,1.15,1.85-.03,2.68-1.28,4.5-1.09,1.05-1.1-4.79-3.24-1.29-4.71,1.48,1.07,4.21,2.07,5.51,3.06,2.46,1.86,2.67,5.74,6.66,2.68.3-1.77-2.76-2.93-.93-5.36.94-1.25,3.88-.4,5.38-1.26-.65-.66-3.03-1.74-3.78-1.8-.8-.06-1.64.54-2.07.45-.6-.11-.78-1.39-1.46-1.57-.83-.22-2.26.99-3.37,1-.2,0-2.83-.36-3.34-.43s-.95-.83-1.84-.71c-.75.1-1.36,1.23-2.37.98l-.08-1.24c-2.07.22-3.12-1.41-5.17-.28l-.11-2.59c-1.06.07-1.96.2-3.02-.11-.32-.09-5.15-3.1-5.56-3.43-1.94-1.52-1.14-3.88.86-4.82v-.61c-2.16-1.61-3.25-3.81-5.82-4.96l1.5-1.55c.7-.15,1.81,1.87,3.89,1.55.9-.93-.53-.86-.88-1.27-2.08-2.51-.33-6.32-1.65-7.7-.79-.83-1.58,1.48-2.76.98-.36-.25-.84-.8-.9-.83l.38-1.31c.23.05.58-.04.86-.03.71.01,1.44-.09,2.16-.09-.55-1.75-.53-2.29.94-3.49l3.07,6.35c-.81.26-1.64.82-2.51,1.02l.42,1.43,3.84.6,3.49,3.65c1.5.08.92-.12,1.04-1.04.69-1.23.92.4,1.34.69s1.67.61,2.18.59l.02.43c-1.77,1.55-.33,3.41-.88,4.79-.41,1-2.91,1.97-3.05,3.01l.85,1.66c.97.57,1.66-.73,2.76-.82.46-.03,4.56.73,5.01.92,1.72.74,4.26,5.08,5.65,5.16,1.37.08,2.03-1.33,2.98-1.45,1.02-.13,1.92,1.18,3.37.76.47-.13,1.07-2.7,2.55-2.27.46.13.54.96.84,1.13.51.3,1.62-.1,2.07.69l-1.21,1.98c1.52.59,3.15.95,4.69,1.45.71.23,1.73,1.76,2.18.16.11-.39-.23-1.32.04-1.88,1.83.09,2.83,1.52,4.78.67.41,1.39-.9.55-1.29,1.17-.89,1.41.25,2.75.19,3.83-.03.54-.61,1.02-.64,1.43-.06.95.17,2.13-.03,3.15.98-1.07,4.64-.79,5.07.51.21.63-.03,3.03-1.06,2.35.18-.97-2.89-2.3-3.43-2.35-.71-.07-3.5,2.31-5.26,1.42-.14.14.52,2.58.79,2.98.6.91,2.71.78,1.16,3.18-.47.73-1.32.7-1.89,1.18-.43.36-.44,1.26-.86,1.37-.72.19-1.59-.3-2.11-.2-.59.1-1.71,2.28-3.45.88-1.06-.85.07-2.09-3.08-2.09-2.04,0-2.62.39-3.54,2.12-1.52.26-2.32-1.13-3.4-1.76-.63-.37-1.49-.38-2.15-.83-1.41-.95-1.95-3.37-4.42-3.27l-.64,1.06c0,.29,1.38,3.01,1.52,3.11.66.44,3.38.18,3.73.46.13.1.6,1.88,1.32,2.23l-3.06,6.4c-1.62.48-.38-1.76-1.36-2.35-1.5-.42-3.17.82-4.37-.69-.6-1.76,3.21-3.15,3.3-3.57-.98-3.3-6.62-.44-6.39,2,.1.99,1.99,2.1-.13,3.64-.7.19-2.64-1.39-3.57-1.46-1.08-.09-1.83.8-3.13.26-.13-.05-2.14-1.54-2.23-1.65-.79-.93-.33-2.35-2.1-2.69l-2.38,4.39c-1.83-1.53,1.61-3.39-1.11-4.69l-3.73,2.29c-.95-2.26-3.08-.31-4.44-2.41l-1.24.97-3.06-.83-1.74,1.8c-3.4-.29-5.52.72-8.23-2.09-1.4.17-1.29,1.83-2.16,2.57-1.38,1.16-4.26,2.17-6.08,1.97l.04.86c1.19-.49,1.57,4.29,1.29,4.73-.95,1.5-4.67-.11-3.66-3.79.38-1.39,2.77-2.76,2.03-4.4-.64-.81-3.53.5-4.8-1.94-.19-.37.18-.99-.29-1.53-.73-.85-1.68-.12-2.36-.51-.31-.18-.32-.89-.57-.89-1.13.02-2,2.1-3.62,1.27-.54-.27-.62-1.01-1.06-1.37-1.12-.91-.92-.89-1.75-1.68-.19-.18-3.57-2-3.86-1.67-.38,2.33,2.46,2.43,3.1,4.51s-.64,3.05.67,5.14c1.43,2.29,4.07,1.49,4.54,3.63.14.63.61,4.54.44,4.93-.83,1.9-2.16.22-3.06.13-2.41-.23-3.56,3.14-1.1,4.36.71-1.14,3.24-4.11,4.46-2.57.53.67.45,1.61.84,2.25.51.83,1.67,1.59,1.85,2.51.05.25-.15,4.8-.22,5.04-.51,1.91-1.86-.53-2.76-.48-.76.05-1.4,1.38-2.93.94-1.33-.38-.24-1.71-.58-2.51-.9-2.09-3.81-.06-4.96-.73-.63-.37-2.51-6.9.06-7.51l-4.21-1.75.18-1.76-1.75.25-.34,1.97-4.32-.24c.42,3.71-2.6,5.83.38,9.27l-5.11,1.74c1.04,2.86-1.24,3.14,1.16,5.72.76.82,2.56,1.45,2.62,2.54.05.93-1.22,2.49-1.14,3.96.08,1.56,1.95,2.81,1.71,4.08-.29,1.5-3.69,2.29-3.93,4.68-.32,3.28,3.28,1.82,2.7,4.5-.45,2.1-2.67,3.08-3.24,4.1-.46.83-.22,1.66-.54,2.41-.12.29-2.31,3.04-2.53,3.11-1.49.46-4.67-4.64-6.95-2.28-.5.53-.81,3.46-.7,4.17.15.99,1.9,2.31,1.27,4.03l-6.48.26c.08-5.1-.18-8.48-6.17-8.4-.94,3.03,1.81,5.55.56,8.63l-4.75.19-.02-.43c1.44-1.08.32-3.03.9-4.37.33-.76,2.06-1.18,2.24-2.11.14-.76-.64-1.38-.27-2.69.12-.41,2.4-4.11,2.65-4.27.67-.44,1.49.37,1.92-.25l.56-2.42c-1.31-.08-2.45.94-3.67,1.18-1.56.31-2.94-.74-4.51-.41-1.1-.44-1.11-2.6-1.02-3.65,0-.1.29-.81.38-1.31.42-2.48,1.39-5.88,2.96-7.87,2.51-3.17,3.45-2.44,3.97,1.39.44,3.31.57,2.12,1.38,4.5.35,1.02-.1,1.77.16,2.48.65,1.83,3.89,3.34,4.96,5l1.07-.25c-.92-5.55,1.31-8.56,6.96-8.74l-.12-2.07c-3.02-1.26-6.13.33-7.86,2.8l-2.18-.7c.73-3.38-.24-7.82-3.99-8.51l-.02-.64c1.02-2.02,5.37-6.45,5.24-8.47-.03-.42-.4-.51-.43-.6-.07-.19-.36-.76-.47-.85-1.66-1.44-4.09,3.07-5.23,4.11-.76.7-1.89.93-2.53,1.81-1.18-.93-.19-2.47-.41-4.03-.15-1.08-.65-2.68-2-2.37-.35.08-.69,2.18-1.88,1.82l-.11-2.59c.39-.97.55-.75.36-1.75-.03-.14,0-.29-.02-.43l-.02-.43c.14-.02.29,0,.43-.02,1.9-.27,1.07-.77,1.77-1.08,1.1-.48,3.03-.11,3.56-1.31.32-.73-.6-1.91-.76-2.81-.15-.85,1.01-2.16-.75-2.32-2.29,1.68-2.48.21-4.02-.16-2.36-.57-5.13.74-5.15,3.37,0,.73.52,1.43.51,2.12-.05,2.43-1.77,6.61-2.79,8.86-.25.55-1.89,1.04-1.04,3.19-1.18,1.4-2.64,5.41-5.02,4.1-.16-.09-.34-.72-.68-.83-2.12,1.62-2.04,3.45,0,5.18-.01.29.05.58.03.86-1.51-.03-1.39,2.16-1.87,3.05s-1.09,1.33-1.64,2.01c-.61.77-.03,2.02-2.26,1.66-.32-1.9.34-3.72.36-5.59.01-1.47-.01-7.18-1.85-6.81-1.18.49-3.11,1.94-3.21,3.3s1.23,2.43,1.27,2.98c.04.48-.69,1.13-.67,1.73.01.35,1.15.14,1.4,1.26.73,3.26-3.05,7.5-5.7,4.81-.91-.92-1.15-2.5-2.68-3.4-.82-.48-1.79-.21-2.42-.96.79-2.26,2.41-1.01,3.53-2.56,1.34-1.87.74-2.79.06-4.72,1.91-.66,1.97.99,2.64,1.41s1.3-.29,1.28-.5-2.06-1.78-2.19-3.45c-.07-.93.73-1.35.88-2.13s-.32-3.38-.15-3.66c2-1.12,6.71,1.19,7.4-1.91.13-.57.22-1.71-.09-2.19-1.45-1.4-2.45-.32-3.59-.38-1.91-.09-3.38-.29-5.41-.21-.14,0-.29,0-.43.02-.18-3.2-.88-5.14-4.47-5.36-.66-.04-.87.4-.92.39-.14-.02-.29.03-.43.02l-.02.03Z"/>
</svg>