<?xml version="1.0" encoding="UTF-8"?>
<svg id="a" data-name="tester" xmlns="http://www.w3.org/2000/svg" width="1586" height="1855" viewBox="0 0 1586 1855">
  <defs>
    <style>
      .b {
        fill: #010101;
      }
    </style>
  </defs>
  <path class="b" d="M160.78,126.94c-.06.32.08.69,0,1-1.3.07-1.54-1.89-.5-2l.5,1Z"/>
  <path class="b" d="M161.78,129.94c-.33-.08-.82.13-1,0v-1c.45.17.89.53,1,1Z"/>
  <path class="b" d="M157.78,131.94c-.2.63-.95,1.46-1,2h-1c-.07-.31.05-.68,0-1l1-1c.33-.03.67.04,1,0Z"/>
  <path class="b" d="M181.46,142.62c-.2.63-.95,1.46-1,2h-1c-.07-.31.05-.68,0-1l1-1c.33-.03.67.04,1,0Z"/>
  <path class="b" d="M154.46,153.62c-.32-.07-.68.07-1,0-.32-.41-.46-.75-1-1v-1c.27.09.66-.06,1,0,.23.77,1.01,1.23,1,2Z"/>
  <path class="b" d="M162.46,164.62h-1v-1c.53.22.96.3,1,1Z"/>
  <path class="b" d="M158.46,166.62c-.06.32.08.69,0,1-1.3.07-1.54-1.89-.5-2l.5,1Z"/>
  <polygon class="b" points="164.46 165.62 163.46 164.62 164.46 164.62 164.46 165.62"/>
  <path class="b" d="M165.46,163.62h-1v-1c.33.04.68-.05,1,0v1Z"/>
  <path class="b" d="M170.46,157.62c-.84.13-.9.94-1,1-.21.12-.67-.08-1,0,.54-.75.82-1.98,2-2v1Z"/>
  <path class="b" d="M159.46,169.62c-.33-.08-.82.13-1,0v-1c.45.17.89.53,1,1Z"/>
  <path class="b" d="M155.46,171.62c-.2.63-.95,1.46-1,2h-1c-.07-.31.05-.68,0-1l1-1c.33-.03.67.04,1,0Z"/>
  <path class="b" d="M178.46,151.62c-.06.35.1.75,0,1-.31.75-.25.69-1,1-.23.1-.65-.05-1,0,.03-.66-.02-1.33,0-2,.63.1,1.46-.15,2,0Z"/>
  <path class="b" d="M149.46,137.62c-.32-.07-.68.07-1,0-.32-.41-.46-.75-1-1v-1c.27.09.66-.06,1,0,.23.77,1.01,1.23,1,2Z"/>
  <path class="b" d="M157.46,148.62h-1v-1c.53.22.96.3,1,1Z"/>
  <path class="b" d="M153.46,150.62c-.06.32.08.69,0,1-1.3.07-1.54-1.89-.5-2l.5,1Z"/>
  <polygon class="b" points="159.46 149.62 158.46 148.62 159.46 148.62 159.46 149.62"/>
  <path class="b" d="M160.46,147.62h-1v-1c.33.04.68-.05,1,0v1Z"/>
  <path class="b" d="M165.46,141.62c-.84.13-.9.94-1,1-.21.12-.67-.08-1,0,.54-.75.82-1.98,2-2v1Z"/>
  <path class="b" d="M154.46,153.62c-.33-.08-.82.13-1,0v-1c.45.17.89.53,1,1Z"/>
  <path class="b" d="M150.46,155.62c-.2.63-.95,1.46-1,2h-1c-.07-.31.05-.68,0-1l1-1c.33-.03.67.04,1,0Z"/>
  <path class="b" d="M173.46,135.62c-.06.35.1.75,0,1-.31.75-.25.69-1,1-.23.1-.65-.05-1,0,.03-.66-.02-1.33,0-2,.63.1,1.46-.15,2,0Z"/>
  <path class="b" d="M479.36,146.38c.33-.02.67-.01,1,0l1,3c-.17.06-1.59,1.28-3,2-.68.35-1.29.57-2,1-6.31,1.03-10.9,5.46-17.96,5.54l-7.04,3.46c-5.29.75-10.28,2.42-15,3-.12.01-.78-.93-1.48-.84-4.13.51-16.2,1.13-18.52,2.84-.38.28-.68.66-1,1-3.69,0-9.71,1.01-13,2-.96-.13-2.02.08-3,0v-2s-7.07-.45-7.07-.45l-.93-3.55c1.33,0,2.67.01,4,0,2.51-.02,6.34.78,8-1,1.99-.09,4.02.15,6,0s2.84-.98,3-1c.33-.04.67.04,1,0,2.12-.27,4-.7,6-1,4.34-.66,8.64-1.54,13-2,.98-.1,2.02.09,3,0,.85-.08,1.72-.02,2-1,.33-.01.67.02,1,0,.66-.04,1.44.12,2,0,.47-.1.86-.53,1-1,1.01-.31,1.95-.71,3-1,.95-.12,2.13.18,3,0,.99-.2,1.54-.86,2-1,.88-.27,2.32.35,3-1,.33,0,.67,0,1,0,1-.01,2.01.05,3,0,1.09-.05,2.51.31,3-1,.33-.03.7.06,1,0,.46-.1.83-.56,1-1,.33-.03.67.03,1,0,.66-.06,1.43.12,2,0,.47-.1.86-.53,1-1,.32-.09.72.1,1,0,2.36-.83,2.8-1.91,3-2,.7-.31,4.71-1.93,5-2,.31-.07.68.05,1,0,1.17-.2,2.71.07,4,0Z"/>
  <path class="b" d="M229.63,132c.58.39,1.32,2.32,2.42,3.05,4.28,2.83,3.84-2.01,7.58-4.05,1.57.16,1.69.2,3,1,.35.21.63.78,1,1,.26.15.67,1.32,2,2l-3,6,11.54,2.96c1.72,4.66,8.23,8.72,2.96,13.04l-1.51-5-9.99,4c-.47-.42-1.49-.58-2-1,.11-6.07-8.02-13.74-14-13-.51-.42-1.51-.58-2-1-3.02-2.57-4.44-4.87-5-9-.09-.64.06-1.35,0-2,2.34.5,4.93.58,7,2Z"/>
  <path class="b" d="M301.88,122.36h10c.04.44.41,1.18,1,1-.06.32.04.67,0,1s.05.67,0,1l-2,1c-.3.06-.66-.03-1,0-.66.05-1.34-.04-1.99,0v1.48c.28.7.95.47.99.51.63.59,2.19,1.3,3,2,.35.31.64.7,1,1s.62.73,1,1c.25.18.14,1.25,1,1l.99-.51c.18-.38-.1-.99,0-1.49.06-.29-.01-.67,0-1s.03-.68,0-1h1c.33,0,.67-.01,1,0s.72-.06,1,0c.27.37.71.64,1,1s.68.66,1,1,.67.66,1,1c.73.75,1.17,1.26,2,2,.35.31.63.71,1,1,.92.73,2.01,1.36,3,2,.4.26.72,1.39,2,2,.25.12.67-.09,1,0,.24.14.45.79,1,1,.44.17,1.36-.09,2,0,.33.05.67-.03,1,0,.49,1.27,1.9,1,3,1,1.31,0,3.31.47,4-1h1l1-1.49-2-1.51c-.03-.33.02-.67,0-1s.02-.67,0-1,.01-.67,0-1,0-.67,0-1h3c.2.36.64.77,1,1,2.09,1.34,2.09.74,4,1v1l.59,2.1c1.41.48,2.89.99,4.41.9.15,1.54,1.93,4.13,3,5h-4.01s0,2,0,2c-.38-.28-2.03-.38-3-1-.23-.15-.74.14-1,0-.35-.19-.63-.82-1-1-.67-.33-1.11-.64-2-1-.19-.08-.23-.92-.5-.94-.45-.03-.35.8-.5.94-.21.2-.79.13-1,1-.14.57.09,1.36,0,2l1,1c.33.05.68-.06,1,0,.15.44.55.93,1,1,.32.05.67-.04,1,0,.51,1.31,1.9.94,3,1,.33.02.67-.03,1,0,.97.1,2.13-.17,3,0,.19.86-.11,2.03,0,3l-9,1.01c-1.06,1.51,5.1,6.86,6.87,7.16l.13,7.83c-3.05-1.21-5.68,1.83-7.57,2.02-2.4.24-2.8-1.45-6.44-1.02-4.89.59-4.7,2.57-6,3-.17-3.44.3-6.92-.14-10.36l-4.86-1.64c.97-.71,7.36-5.81,6-6.99-6.95.31-11.11,5.44-19.01,4.48-2.19,3.59,5.04,3.12,6.28,3.58.75.28,2.01,4.35,4.73.94h2s0,10,0,10c1.13-.78,4.76.08,5,0,.4,7.96.72,3.78,5.61,7.4,1.41,1.05,3.98,3.33,5.39,4.6.85.76,1.16,2.17,2.99,2.02v1.47s-5.99,1.51-5.99,1.51c-1.15-.73-1.83-1.07-3-2-2.19-1.75-3.55-4.58-7-6,.4-1.55-.77-2.31-2-3-1.83-1.85-4.14-3.17-6-5l-3.95-9.56c-1.67-.37-9.62-.83-10.04,1.08-.61,1.67,5.61,4.46,5.99,4.49l-1,3c-.18-.14-2.5-.06-3.7-.76-4.54-2.65-9.14-6.32-14.3-8.24-.1-.28.09-.68,0-1-.67-2.32-2.58-4.24-5-5-.49-.15-1.36.08-2,0-.32-.04-.68-.01-1,0l-.1-2.88c-2.06.43-4.95-1.97-5.9-2.12h4.01s0-4,0-4l2.09-.6c.04-.95-1.08-1.3-1.09-1.4-.03-.32-.02-.68,0-1,.13-2.08,1.9-3.35,2-7,0-.31.06-.7,0-1-.21-1.16-.09-1.16-1-2-.04-.34.07-.71,0-1-.12-.48-.54-.84-1-1-.07-.24-.02-.7,0-1,.02-.35-.09-.78,0-1,.38-.96,1.04-1.62,2-2h1c.99,1.84,1.89,3.26,3,5,.75,1.18,1.67,1.56,2,2,.49.66,1.96,2.53,2,3,.02.3-1.03,1.45-.92,2.51.34,3.5,4.97,4.18-2.06,7.99,3.8,1.2,3.87,8.35,4.91,9.07,4.89,3.37,8.61-3.88,12.11-6.02,3.01-1.84,6.92-.29,5.96-4.54.99.03,2.01.04,3,0,.33-.01.67.03,1,0s.68.05,1,0,.67.04,1,0l1-1v-1c-.16-.53-.8-.72-1-1-.27-.38-.71-.64-1-1s-.67-.67-1-1c-.08-.33.12-.76,0-1-.22-.43-.69-.66-1-1s-.66-.79-1-1c-.29-.18-.56-.87-1-1s-1.38,0-2,0-1.47-.12-2,0c-.93-.56-1.93-.86-3-1-.33-.04-.67.03-1,0-.08-.31.11-.72,0-1-.57-1.39-1.54-1.44-2-2-2.15-2.64-4.55-6.28-8-7l-1-1v-1c.01-.33-.02-.67,0-1s-.03-.67,0-1c.1-1,.92-1.65,1-2h1Z"/>
  <path class="b" d="M709.41,76.62c.35.02.79-.09,1,0,.65.28,1.71,1.82,3.07,2.4,2.65,1.15,11.25,3.83,12.91,5.12,2.06,1.61.79,2.71-.98,3.48-1.19-.73-4.77-2.56-6.05-1.56-1.73,2.45-1.21,5.04-.95,7.56.2,1.84,1.84,4.47,1,7,6.32.78,3.83-7.83,10-6,1.62,2.36-.52,5.21,0,8-.1.07.3,1.33-.22,1.74-1.79,1.4-8.65.26-1.78,6.76-4.48,1.7-2.28,3.63-3.19,6.8-.59,2.05-3.98,2.97-3.81,5.71-5.17-4.51-3.35-6.04,3-7.02l-.04-2.91-3.96-1.57,4.01-1c-6.26-5.54-8.96,4.21-10.07,8.98,2.96,3.27,3.85,6.46,8.07,8.03l-4.97,5.99,3.98,3.49c-4.16,1.64-8.03-.81-11.51,1.8-.59-1.29-5.15-5.98-5.26-6.38-.28-.99.85-3.78-.24-5.42-2.47,1.15-5.99,2.07-8-.52-.07-1.64,3.28-6.63,4.98-5.47l4.01,5.99-.99-3.99c6.6,1.17,4.24-5.48,8-9l-8.92,2.08-.59,2.92c-3.97-.08-3.67-4.97-7.48-4.01,1.88,5.64-3.21,10.38-3.95,14.56-.4,2.27.22,4.66-.06,6.93-.54,4.29-4.04,12.22,3.38,11.39,3.1-1.14.08-7.22,1.64-9.88,1.67-.57,2.64,1.67,3.49,1.69.97.02,4.11-3.8,6.47-2.67l.97,3.52c3.06-.83,4.72,1.5,7.14,3.04l-4.07,8.41,26.53,6.6c3.17-1.3,9.52-5.78,12.48-3.1,2.55,2.32-4.08,3.19-5.29,3.73-1.55.7-2.34,2.58-4.23,2.78-4.32.46-13.86-3.96-19.49-2,3.11,2.67,6.8,5.5,10.99,6,.19.97-3.74,2.94-3.99,2.99-2.63.48-6.34-.46-9,0l-1.41-2.02c7.39,1.24,1.3-8.22-.71-1.08l-3.85-.96v-2.9c3.69-1.05,6.96-.16,6.97-5.03l-10-2.01,3,.99v2.98c-3.59.69-6.17-1.93-8.5,3.03-1.85,3.94,1.45,5.33,1.49,8.98-.47.02-1.4-.81-2-1-1.76-.54-5.81-2.29-6.43-3.96-.34-.93.46-2.23.19-3.28-.36-1.43-2.23-1.92-1.76-3.75l3.99-.02c-4.32-6.37-5.3,4.79-11,3.01-.38-.7-1.45-2.2-2-3,.42-5.66,3.08.97,3.5.98l2.5-3.47c-2.45-2.35-5.48-3.2-8-.51-.57-.57-3.35-2.65-4-1.99l1,4.99c-3.88,1.91-7.02-2.1-10.55-2.1l-1.89,2-4.56-.89c.54,9.66,11.53,4.04,18,5.99v-3s1,0,1,0c.43.18,1.35-.22,1.97.07-1.39,4.28-.8,4.53,3.03,5.93,2.87,1.06,4.47-1.29,4,1.99l-9.53,1.92-2.41-4.47c-3.59-2.11-4.08,2.38-5.26,3.3-.3.23-2.53-.66-3.82.71-2.03,2.17.21,6.73-5.99,5.56-1.59,1.42,7.99,8.65,7.98,9.5,0,.57-3.75,2.33-2.94,4.89.41,1.29,2.74,1.53,3.44,2.66,1.13,1.82-.51,4.31,3.5,4.95l.02-4.99,4.99,1.99-1.98-7.99h8.99c-2.85-5.29,4.72-8.02,9-9,.56.54-3.22,7.68-3.93,8.34-1.19,1.13-2.91.5-3.07.66-.23.22.92,2.89.78,4.24-.25,2.37-1.89,4.6-1.66,7.1l5.18,2.52,5.76-4.47c1.89,2.07,6.25,3.61,7.91,5.15,1.45,1.35,1.62,3.8,2.25,4.25,1.2.86,9.66,2.19,11.78,2.22-.67,2.4-3.37,1.96-5.33,1.95l-1.67,4.04h-6s1,3,1,3c-.2-.08-2.92-.08-4-1-.4-.34-.66-.43-1-1-.3-.51.56-1.8-1-3s-5.46-.99-7.49-2l-.51,1c-.04.33.06.68,0,1-.05.29-.04.71,0,1-.59-.12-1.35.05-2,0,.03,1.32-.11,2.69,0,4l-.98.49,1.49,1.49c1.01-.61-.46-1.34-.51-1.98h2.99c.45-1.26-.91-2.4-.99-3,2.12,1.73,1.63,1.45,3,1,.61-.2,1.43-.65,2-1l2,1c-1.72.25-7.71,4.02-7,4.98,4.03.8,3.69,6.36,8.99,5.02,1.29-2.74-1.92-3.15-2.02-3.49-.94-3.44,1.84-2.31,2.02-2.51,4.16,1.8,4.55,2.74,9,1,3.1-1.21,4.18-3.93,7.99-2,.56-1.41-.95-2.4-.99-3-.05-.81-.03-1.49.69-2,1.56-1.48,11.67-2.7,12.24-1.93s.03,3.81-.46,4.91c-1.71,3.81-7.13,1.36-4.47,6.02-.51.09-1.76,1.49-3,1-1.24-.89-5.05-2.09-6.57-2.09-1.75,0-1.14,1.66-2.19,2.06-.92.36-2.91-.25-3.23.04-.37.33-.41,6.42,1.52,6.98l3.58-1.45,1.4-5.54c-.74,4.35,4.02,5.46,1.92,9.01l-7.43.98h-1c-.13-.19-2.38.18-2.57-3.07-5.35.14-10.1.78-14.92-1.94l1.48,6.02-1.99-1.01c-3.87-5.13-8.61-7.9-12.51-.96-1,.15-1.7-.59-2.49-1.04-.64-.36-.47-2.11-3.51-2.11s-3.28,2.04-3.49,2.11c-1.02.34-3.56-.14-5,0l-12.48-5-.52,2.99-5.01-.55-1,3.55c3.4-.7,5.89,1.75,8.54,2.51.56.16,1.3-.55,1.46-.51,2.26.65,4.54,1.87,7,2.01-3.06,9.43-25.7-4.72-28-3,2.13,1.41,1.66,5.43,2,5.99-3.68.44-1.93,6.18-6.71,6.86h-1.15c-.37-.51-.68-1.57-1.14-1.86-2.55-1.64-4.02-2.6-7.41-1.99-2.11-8.39,8.55-.6,10.98-3.94,1.72-3.29-1.09-4.74-2.57-7.06,3.33-.11,7.89-4.42,7-8.01,1.04.34.75,1.32,1,2,.67,1.82-.02,1.72,2,3,.21.13.67-.11,1,0,.53.18.8,1.08,2.39,1,1.17-.06,1.86-.81,2.61-1,1.89-.5,3.88-1.91,5.99-2.01v-.97c-1.61-.58-3.35-.66-4.99-1.01-1.09-.24-3.2-2.13-4,0-.23-.18-1.41.19-2-.02l1.01-2.97c-1.16.13-2.08-.74-3.01-1.01-.59-.17-5.7-1.04-6-1-5.46-.03,2.79-2.08,1-3.99l-4.99-1.02,3-3.98c-4.71.26-7.06,1.51-4.91,6.22.72,1.57,2.5.55.91,5.77-3.76,1.55-3.97.81-5.62,5.07-3.98.69-7.7-5.74-9.38-4.07.51,3.9,1.79,5.37,5,6.99v1c-.9-.04-2.63.65-4,0l1,4.99-2.98-2.51c.4,1.35,2.6,2.88,2.98,3.51,3.51,5.83-.43,3.97-1.59,7.93s4.51,3.45,7.04,3.02c2.95-.5,2.85-1.64,6.55-1.95,2.71,3.48,5.38,2.57,9,2l1.61,4.06c1.79-.19,4.15.37,5.78-.2,1.38-.48,1.36-2.45,1.79-2.73.39-.25,6.45,1.51,7.8-1.63l-1.98-5.5c2.48-.03,3.83,2.15,6.51,2.08,1.96-.05,3.72-1.68,6.48-2.09.86,2.7-.57,5.21,1.98,7.51l-.98.49c-3.09-.58-4.64,1.82-8.32-1.88l-6.66,4.38c2.67,4.63,5.79,1.8,9.98,3.5-.22.28.6,1.63-1.25,2.35-.32.12-6.42.73-6.75.65-3.25-.75-1.06-.73-6.49-.91-.65-.02-6.84-1.78-7.51-2.09-2.84-1.31-5.69-12.96-5.99,3,.36.41,3.03-1.05,3.99-1,1.23.07,15.31,2.56,16,3,.12.08,0,1.44.6,1.92,1.04.83,2.58.77,2.4,2.07-3.49,1.16-8.9-3.25-11,1.01-1.5.63-4.26,2.15-4.02,3.99-3.13-3.08-5.28-1.52-8.98-.99l-5.01-.5c6.31-3.25-1.97-1.66-2.91-2.6-.27-.95-.09-1.93-.08-2.9,5.72,1.7,10.15-5.9,4-8-1.19-.41-1.42-1.04-3,.01v-2.26c-5.38-3.51-1.58,3.83-2,4.24h-3c-.84-.66-2.22-.61-3-.99-3.99-1.98-7.28-6.46-9.68-.93-1.63.49-3.2-.88-4.32-1.07-3.46-.57-5.26-.49-9.01,0l3.1,7.38c5.36,3.34,3,3.41,1.91,8.61l9.99-1c.73,1.51.96,3.37,1,5,.04,1.33-.01,2.67,0,4-2.92-.85-7.33-1.2-9.99-2-.19-.05-.83-1.24-3-2-.02.69.4,2.04-.51,2.02l-8.48-2.01v3.99c4.6-2.41,3.41.94,5.45,1.12,2.17.19,4.47-.59,6.54-1.12-1.03,5.59-5.93,1.24-9,4-.3-.33-1.43-.67-2-1-1.67-.97-3.45-.68-4.93-2.63-1.88-2.5.91-2.92.96-4.86.02-.76-3.2.04-2.04-2.5,7.14-3.51,8.24,1.89,10.67,2.83,1.19.46,2.69-.06,3.33.16.17-5.18-2.86-8.6-2.07-13.93l-5.79-.14c-2.36-4,.79-2.12,1.47-4.86.44-1.78.13-3.35-.8-4.89-7.47-2.08-14.65.9-12.82,9.82-3.03.67-4.18-1.61-5-4-.86-2.53-.47-3.27,0-6-3.57.81-4.68-.75-7-2l4.01-1c-.43-2.53.15-3.53-2.01-5-1.63-1.11-2.64-.79-3-1-1.89-1.09-3.96-2.89-5.98-3.51l1.61,3.57,4.37-.06v1c-1.33,0-5.37.29-6,0-.1-.05.12-1.07-1-2-2.74-2.28-1.52.34-2.66,1.03-1.31.79-4.11.51-4.4,1.59l.07,4.38,3.5-1.96c1.08,1.61,2.09,2.68,3.5,3.97,1.27,1.16,2.15,1.73,3.86,2.12l-.86,3.88c-6.35-1.25-3.16-1.54-5.05-2.96-1.05-.79-2.77,1.65-3.63,1.8-1.09.19-4.8-3.17-7.31-1.83l1.02,3.47-1.99.48c.43-2.43-2.14-1.62-2.72-2.22-.68-.7-.31-2.47-1.28-3.24-1.36-1.08-4.78-.29-6.45-2.47-.38-.5.04-1.91-.38-2.72-.68-1.3-3.56-7.11-3.87-7.38-4.81-4.11-8.05,1.18-13.32.07,1.9-5-4.06-4.4-5.72-6.29-.57-.66.08-2.13-.94-2.74-.58-.35-5.04-1.19-5.34-.97-.04.66.03,1.33,0,1.99-.28,5.24-1.05,2-3,3-.7-1.84-.87-5.64-2-7-3.04-3.64-8.91,1.44-12.99,0-1.05,3.12,3.12,2,3.85,3.17,1.34,2.15-2.03,2.21,3.14,4.82,1.75.88,3.64,1.22,5,2,3.01,1.73,5.12,5.77,9,4.99-1.03-1.36.06-4.75,0-4.99l3.99-1.99-.35,6.74c1.01,2.27,5.52.84,4.35,5.25l-9.99-1-1,6-1.98-.51.98,1.51-6.04-.42-1.96-4.58c.15-.05.92-2.08,1.99-2.55,1.79-.78,5.02,2.05,6.01-1.44-3.15.92-3.03-1.99-4.7-2.81-2-.98-4.87-.02-6.24-.72-2.65-1.35-2.26-5.48-6.06-4.47-1.82-3.85-4.89-4.89-3-8.99l-5.38.94c-1.74-.54-1.37-3.51-2.62-4.5-.48-.38-6.22.02-7-3.45.19-.07.49-1.57,1.43-1.66,1.86-.17,4.81,2.41,6.12,2.35.87-.04,1.33-1.68,1.45-1.69.25-.03,4.5-.03,5,0s1.66,1.54,3,.99l-2-2.99,1.85-2.5-2.88-4.01,2.02-1.99-2.36-1.39-.63-2.1,2.99-1.02h5l1-.52c.35-1.15-.98-1.39-1-1.48-.88-3.77.21-5.96,0-8,.93.14,2.19-.21,3,0,.31.08.68-.06,1,0l.5,2,2.5-2.5-2.02-.99c-.2-1.27.96-2.15,2.03-2.5v1c-1.31.63-.17.67,0,1,.67,1.32,1.45,2.05,2,3,1.36,2.35,3.77,3.5,3,7,4.97.18,1.76-4.72,1.99-4.97.11-.12,1.82.14,3-1.03,2.02-1.98.3-2.73.49-4.98,4.09,2.61,6.73,5.34,11.51,4.98,3.98-.3,1.63.14,4.45,2.05,2.97,2.02,5.53-.37,4.54-2.04-.34-.57-4.31.19-1.99-4.02.35-.45-.1-2.01,2-2.48l-1.98-3.1c-.59-.44-3.6,1.15-4.03,1.58l-8.99-5.51,3.98-2.49c-.54,2.7.7,3.19,3,4.01.43-2.38-1.24-4.04-1.99-6h2.48s.52,1,.52,1c-.73-.1-1.11.27-1,1,.17,1.15,1.11,1.54,2,2,1.54.79,2.33,1.55,4.5.99l.5-.99c.07-1.21-.95-.95-1-1-.42-.43-1.58-.59-2-1-.26-.25.03-1.43-2-3,.01-3.49,5.66-3.7,7.99-5-.6,6.4,3.77,6.42,9,5.99.96-3.72-3.74-1.22-4.99-2l1-1.99c2.95.53,5.95-2.6,7-3,.88-.33,2.92.28,4,0v1c-.21.14-1.22-.31-1.8.17-.71.57-.98,3.47-2.18,4.34,1.71,2.66,4.44.11,6.92.44l-.94-5.95c1.31-.66.36-1.19,4-2,5.61-1.25,3.68.66,6.96,1.59,1.94.55,4.63-1.78,6.04.41-.33,0-.67.01-1,0-1.76-.06-2.63-.19-2,2,.15.53,1.46,1.49,2,2-1.39-.54-2.49.9-3,1-2.57.52-5.88-.31-6,3.99l8.52,3.95c1.65-1.03,1.45-2.29,1.48-3.94.67.24,1.37.85,2,1,.32.08.69-.09,1,0s.71-.1,1,0c.26.09.61.8,1,1-.57.12-1.72,1.45-2.98,1.03-1.98,2.32,8.35,9.31,9.98,4.97,1.37,1.16,3.38,2.08,4,3.99l-5,1c3.06,1.01,5.14,1.73,6.9-1.62.16-.92-3.97-6.53-4.9-7.36,1.63.15,3.39-.21,5,0,.69.09.78,0,1,0,.33.01.67,0,1,0,.13,0,.3.98.5.98l.5-.98v-1c2.98.67,1.64-1.47,2-2,.4-.59.27-.62,1-1,.03.35-.07.73,0,1,.68,2.49,2.01,5.29,4,7,.84.72.67.83,2,1,.31.04.68.02,1,0-.99,2.31,6.54,3.78,7.58,3.93,5.88.84,4.12-1.73,4.42-1.93,1.67-1.06,6.31.03,8,0,1.89.25,6.24,1.19,5.98,3.51-.1.91-3.95,1.26-2.98,3.49-.93-.08-2.3.21-3,0-.33-.1-.76.12-1,0-.38-.2-.69-1.82-1-2l-.5-.98-.5.98-5,2-4.59-2.94-2.89,1.93-3.01-2.97c-5.02,4.04,5.37,5.01,7.5,5.98s2.38,1.97,7.03,3.47c2.4.78,4.19,4.79,4.97-.47,5.2,1.65,7.55,4.06,13,1,.61.99,4.64,1.98,5,4.51l-2,1.48c1.66.02,3.33.01,5,.01.67,0,1.33,0,2,0l1,1v1c-.34-.02-.72.07-1,0-.13-.03-.24-1.16-.98-1.01l-1.02,3c.63.13,1.51-.15,2,0,1.02.34,1.95.7,3,1,3.63,1.05.53.45,1.29,1.77.27.46,2.88.75,1.73,4.21.65.16,1.33-.06,1.98.02,2.06.24,3.99.47,6,.99l-.99-2.98,2.6,2.07,10.4-2.08c1.62-1.29-3.04-3.57-3.74-3.73-1.84-.43-5.3-.99-7.26-1.26l-5.5-6.98c-2.5,1.52-.22,2.99-.5,4.98-.08.6-.95,1.46-1,2-.45-.78-1.4-2.74-2-3-.43-.19-1.39.14-2,0,.11-.22-.06-.64,0-1l3-1.99h-3c.29-.92.85-2.39,1-3.01v2c.29.28,1.36-.75,2-1,.31-.12.76.13,1,0-.22.22.15,1.02.5,1,1.09-.07-.03-1.47-.5-1,.57-.31,1.01-1.24,2-1.02-.05-.71-.95-1.52-1-1.98.55.2,1.62,1.07,2,1,1.31-.23.94-.97,1-1,.62-.34,1.17-.24,2-1,.17-.15-.17-.83,0-1,.34-.34,2.96.99,1.94-2.92-1.3-.3-2.61-.97-3.94-1.08-.33-.03-.67.02-1,0,.22-.22-.15-1.02-.5-1-1.09.07.03,1.47.5,1v1c-.34.06-.73-.09-1,0l-.51-.99-1.49.99c-.14.07.14.93,0,1-.32-.06-.69.07-1,0-.28-.07-.67,0-1,0v-1l2-1.99-4,.99h-1c.09-.16,0-.65,0-1,0-.06.92-.3.85-.54-.7-2.35-7.59-4.76-9.85-5.46-.53-.16-1.41.14-2,0-.36-.09-1.03-.83-2-1-1.97-.35-3.19-1.09-6,0-3.95-3.93-7.64-5.05-12.97-2.01l-1.53-2.99c-1.32.55.77,3.6-1.95,2.96s-9.58-3.42-7.99-6.96l-1.12-.99c-1.46-.44-2.49.74-3.44.98-.44-.74-1.59-.7-2-1-4.34-3.15-1.6-3.89-2.4-5.02l-6.15-2.93,1.14-7.08-7.57-3.47,3.06-2.15-1.07-6.34c3.78-.77,3.23,6.39,4.01,6.99,4.39-.42,5.67-7.57,6.06-7.92,1.85-1.65,12.74,1.62,10.92,6.92-3.37-1-4.74-1.63-7.04,1.5-1.68,2.29.32,4.46-4.96,3.51l2.06,9.99c3.85.74,10.98-3.31,8.02-7.39-1.03-1.42-3.85.65-3.07-2.59l7.87-1.2.69-2.88,4.45.07v-2.98s-5.01-.01-5.01-.01l3-11.99-3.09.57c.21,1.76-1.77,4.38-1.91,5.42l-.59-.74c-3.89,2.03-4.58-.92-5.41-1.26l.54-1.01c-1.51-.98-2.98-2.1-4.54-2.99-.79-.45-1.06-.63-2-1-.28-.11-.68.1-1,0v-1l1-14c.45.34,1.41.76,2,1,.52.66,1.33.69,2,1,1.01.46,1.55,1.39,3,.99-.84-1.45-1.1-3.77-2-4.99-.06-.09.19-.72-.51-.99h-1.47c-.06.8-.45,1.46-1.02,1.99-.21.2-1.11-.27-1.48,0l-.52.99c-.37-.29-.69-.64-1-1,.38-.27.65-.75,1-1s1.9.11,2.52-.94c1.37-2.32-.44-5.8,4.46-7.56l-1.99-4.5c4.99,1.59,5.65-5.17,7.01-9-1.97-.05-3.57.8-3-1.99l6-1.02-1.98-3.49c2.68-1.94,4.95-1.27,5-5.49l1.99,2.99c0,.33,0,.67,0,1,0,1,.02,2,0,3,0,.33.01.67,0,1-.46.12-.94.54-1,1-.12.95.03,2.02,0,3-.02.66,0,1.33,0,2-1.39,2-.82,2.01-1,4-.17,1.8-.1,4.15,0,6,.04.66-.02,1.34,0,2l.5.98.5-.98c.05-.66-.08-1.35,0-2,.25-1.96.78-3.51,1-5,.09-.64-.09-1.36,0-2,.99-.32.9-1.15,1-2,.04-.33-.02-.67,0-1s-.01-.67,0-1,0-.67,0-1c1.32-.51.94-1.9,1-3,.02-.33-.01-.67,0-1,.02-.66-.01-1.33,0-2,0-.33,0-.67,0-1s0-.67,0-1c.48-.12.92-.53,1-1,.15-.88-.05-2.03,0-3,5.11-1.16,8.14-.81,13,.99l-1.86-2.49,2.85-3.48c-2.88.23-2.64-3.79-2.99-6.02.28.08.65-.04,1,0,.34.33.64.7,1,1,2.97,1.17,1.82,4.54,2,7,.05.66-.04,1.34,0,2,.02.33-.01.67,0,1s-.01.67,0,1c.03,1-.02,2,0,3s.02,2,0,3c-.47.1-.96.54-1,1-.19,1.93.08,4.03,0,6-.01.33.01.67,0,1s.03.67,0,1c-.04.35.08.73,0,1-.04.19-.88.56-1,1-.15.58.17,1.47,0,2-.26.35-.75.61-1,1-.15.23.15.76,0,1-1.09,1.77-1.23,2.43-2,4-.58,1.18-2.63,2-1.99,4l.99-1c1.08-.36,1.46-1.11,2-2,.14-.23-.12-.69,0-1,.55-.14.75-.55,1-1,.21-.38.82-2.35,1-3,.09-.31-.09-.7,0-1,.33.05.68-.06,1,0s.67-.03,1,0c.65.06,1.76,1.61,3.03.59l1.97-3.59c-.06.99.1,2.02,0,3-.13,1.18-2,3.77-.99,6h1.48c.7-.26.47-.96.51-1,.13-.13-.08-.67,0-1h1l1,1c.07,2.11.26,5.02,0,7-.05.34.07.71,0,1-.06.25-.82.61-1,1-.14.31-.81.61-1,1-.33.67-.69,1.32-1,2-.14.31-.9.63-1,1-.07.26.01.66,0,1-.03.67,0,1.34,0,2l1.99-1,.61,2.09c.84.03,1.26-1.08,1.39-1.09,2.67-.14,2.89,3.99,7,2.99l-1.97-4.5c3.02-3.77,6.92,2.31,10.97,1.52l-3,.99c-.26,6.39,2.3,1.23,4.02.51s3.49-.37,5.22-.78c1.09-.26,2.11-1.89,3.24-1.74,1.78.24,1.02,3.5.43,3.93-1.31.96-8.32-1.8-7.9,3.08l13.01,2.01c-3.13,10.05,2.05,9.83,8.49,14.99,1.5-2.32-3.02-7.3,1.5-7,2.46,2.9,9.01,3.12,13,4,4.68,1.04,12.65,5.61,15,.01-2.03-.25-4.22-.6-4.01-2.99l-1.98-.02v3.01c-2.56.85-2.55-2.58-3.11-2.92-.37-.22-2.09,1.01-2.89.92-4.22-.5-11.09-2.52-15-4-2.14-.81-2.15-1.05-4.99,0l-1.01-4,4.01-.52c.44-2.03-2.42-1.94-2.86-2.69-.3-.52-.2-6.35,1.85-5.32l5.63,5.31c4.49-.55,7.17-2.39,6.37-7.24-1-6.04-6.48-1.52-9.99-3.04.91-5.68,5.86-3.17,10.09-5.11,3.16-5.74-3.49-5.94-3.1-10.4.69-.77,5.46,4.05,5.99.48.45-3.08-8.38-2.26-1.9-5.07l-1.1-3.41,4.01-3.01c.58.13,1.36-.09,2,0,1.03.14,1.98,1.15,3.99,0l-2.01,4.52,1.01,3.02,6.02-.55-2-3.01,1.52-1.99c3.91,1.46,5.38,2.1,6.97,5.99l2.49-2.5c.6-2.58-5.76-1.28-1.04-6.87l-3.95-3.61c2.73-.19,8.09-1.43,10-3.5l-4.43-3.42c-1.32.57-13.56,3.39-9.93,5.89.93-.26,2.02.98,2.36,1.03l-1.57,4.05c-1.83-.79-6.25-.61-7.48-1.52-2.17-1.59,1.89-3.99-5.95-3.53-.66.04-1.34-.03-2,0-.02-.32-.03-.68,0-1,.34-.32.73-.42,1-1,.1-.21-.04-.64,0-1,.04-.33-.03-.67,0-1,.44-.19.86-.54,1-1,.09-.31-.09-.69,0-1,.27-.94.89-2.34,1-3,.34-.32.73-.42,1-1,.11-.24-.09-.66,0-1,.08-.31-.07-.68,0-1l1-1c.03.12.99.34,1.33,1.03.28.56-.33,1.67-.14,1.82.47.38,2.2.32,3.32,1.11s2.13,2.66,3,3.03c2.44,1.04,1.24-1.89.49-2.99,3.46.16,3.93-6.65,4.57-7.91.9-1.76,2.49-4.18,4.43-4.09Z"/>
  <path class="b" d="M797.36,264.82l-4.12-2.84c-.75-6.05,11-6.76,12.55-11.03.9-2.48-4.59-1.86-5.03-2.34-1.64-6.22,3.31-6.46,5.27-8.49,1.28-1.33,1.72-3.37,3.63-4.84s10.34-5.92,12.21-3.3c-.05,4.14,3.55,9,1.15,12.7-3.13,4.83-14.86-2.46-16.19,6.73,2.07,1.23,4.84-.4,6.29-.07.41.09,5.32,2.03,6.82,2.55,2.74.93,9.33,6.14,11.64,2.55l1.24-4.67c.42-.36,5.08.17,6.07.35,6.47,1.17,7.93,5.25,13.36-2.5-.22-2.91-1.54-6.69.08-9.41.81-1.36,2.85-1.08,3.76-2.05.83-.88.84-3.16,2-4.41,2.52-2.71,5.98-.66,4.75-7.07-.47-2.46-3.96-5.63-1.3-8.04,3.08-2.79,6.31.58,9.3-.02.49-.1,8.31-3.92,8.93-4.32,2.57-1.66,4.39-9.18,7.82-9.98,1.22-.28,7.48.75,9.07,1.32,4.73,1.69,5.7,12.55,11.06,4.66.4-4.7-3.98-5.47-6.4-7.09-1.15-.77-1.19-2.87-3.19-3.39-.7-.18-9.1-.58-10.07-.5-2.91.26-5.34,1.07-9.74,1.34-5.39.33-12.53,2.67-16.55-2.14,3.23-3.63,3.49-6.7,5.12-10.53s3.85-3.09,2.94-9.59c-.45-3.19-4.37-8.95-.36-11.18,3.58-1.99,10.53,8.38,12.71,10.78,3.03-.1,17.76,7.99,12.26-.29-.67-1.01-2.01-.57-2.57-.83,1.23-1.84-1.81-5.55-2.85-6.82-7.44-9.12-15.57-13.45-24.27-20.09-.56-3.34,3.2-5.99,3.44-8.87.31-3.68-2.67-9.83,1.13-14.33,2.09-2.47,7.93-.34,9.01-6.15.86-4.65-1.33-3.94-1.97-5.16-3.82-7.25-4.12-17.94-7.02-24.73l2.77-1.58-1.05-5.5,5.03.8c-2.09,4.39-1.5,8.72,1.09,12.89,1.28,2.05,3.5,2.21,4.27,3.19,1.59,2,1.32,6.61,6.56,6.44,1.44-3.36-2.93-6.68-3.02-8.37-.09-1.82,2.34-3.27,2.93-4.69.98-2.36-.11-5.29,2.77-7.04.52-.03,3.78,8.52,3.88,9.4.33,2.9-2.73,6.32-2.69,7.05.15,2.53,2.59.46,3.48-.62,2.13-2.59,2.57-6.43,5.26-9.11.45-.25,4.25,1.43,5.02,2.08.42.35,5.86,8.57,6.06,9.07.79,2.01.58,6.78,2.48,8.54,1.42,1.31,3.21-.37,5.02,2.1,3.6,4.92.59,9.05,2.17,12.22,2.43,4.84,6.56.9,8.4,1.86,1.15.6,5.86,7.56,4.58,9.66,3.4,1.18,4.91-2.63,6.57-3.13.41-.12,7.86.51,8.62.71,1.43.38,2.55,2.11,4.1,2.85,1.43.68,3.89.37,4.82,1.04.46.33,3.96,7.37,5.91,9.23,1.42,1.35,5.71,3.97,7.44,2.65l2.89-5,.3,6.99,3.99-.15c-2.39-7.08,4.89-2.43,6.44-.22,2.86,4.09-.11,7.2,8.86,7.6-.92-2.01,3.16-7.34,4.76-6.2,2.64,4.37-2.82,5.8-.58,10.02,5.03-2.51,5.76-2.19,10.5.58.96-.27,2.22-7.77,6.25-5.2.76.48,1.05,8.69,2.64,11.23,1.79,2.87,5.38,2.78,7.13,4.77,1.44,1.64,1.24,4.28,2.88,5.5.74.55,10.98,4.53,11.92,4.43,5-.49,4.31-5.72,5.89-6.23,3.49,1.71,7.54.52,11.18-1.12,2.95-1.33.84-4.46,1.02-6.73.8-10.4,7.91-5.56,6.06,3.11l5-.21c-1.02,6.86,3.39,5.69,6.92,8.67,1.69,1.43,7.71,7.78,6.85,9.78l6.87-3.27c-.22,2.46.06,7.02,3.74,5.84,2.53-.81-1.45-8.18,2.61-10.1,2.46-1.25,1.14,5.26,5.76,4.25,3.38-.74.67-6.78,5.63-6.72-3.11,10.93,7.54,16.05,14.44,22.42l.34-4.02c4.4-.57,5.9,2.75,10.61,2.67,4.28-.07,6.2-2.96,10.41-2.52,2.44-2.55-11.09-7.49-2.98-10.91,3.43,2.48,9.74,4.79,12.76,7.08,5.69,4.31,6.18,13.29,15.41,6.21.7-4.09-6.4-6.78-2.15-12.41,2.18-2.89,8.98-.93,12.45-2.92-1.5-1.53-7.01-4.02-8.76-4.16-1.85-.14-3.79,1.24-4.79,1.05-1.4-.26-1.81-3.22-3.38-3.63-1.92-.51-5.24,2.29-7.8,2.31-.46,0-6.56-.83-7.74-.99s-2.21-1.92-4.26-1.65c-1.73.23-3.15,2.85-5.48,2.27l-.19-2.87c-4.8.51-7.23-3.27-11.96-.64l-.25-6c-2.45.17-4.54.46-6.98-.26-.73-.21-11.92-7.18-12.88-7.93-4.5-3.52-2.63-8.99,2-11.16l-.03-1.41c-4.98-3.72-7.49-8.81-13.44-11.49l3.48-3.58c1.61-.35,4.19,4.34,9.01,3.58,2.09-2.16-1.23-1.98-2.04-2.95-4.82-5.81-.77-14.63-3.82-17.83-1.84-1.93-3.65,3.42-6.4,2.26-.84-.59-1.95-1.86-2.08-1.92l.88-3.04c.54.11,1.35-.1,2-.08,1.65.03,3.34-.2,4.99-.21-1.27-4.06-1.23-5.31,2.18-8.07l7.11,14.7c-1.87.6-3.79,1.89-5.8,2.37l.98,3.31,8.88,1.4,8.09,8.46c3.48.18,2.12-.27,2.4-2.41,1.6-2.84,2.14.92,3.1,1.59s3.86,1.41,5.04,1.36l.04,1c-4.09,3.58-.76,7.9-2.04,11.08-.94,2.32-6.73,4.57-7.07,6.96l1.97,3.84c2.25,1.32,3.85-1.69,6.4-1.89,1.06-.08,10.56,1.69,11.6,2.14,3.98,1.71,9.87,11.76,13.09,11.95,3.18.19,4.71-3.09,6.9-3.35,2.37-.29,4.45,2.74,7.81,1.77,1.08-.31,2.47-6.24,5.91-5.25,1.06.3,1.24,2.22,1.94,2.62,1.19.69,3.76-.24,4.8,1.59l-2.8,4.59c3.53,1.36,7.29,2.19,10.85,3.36,1.65.54,4,4.07,5.04.37.25-.9-.54-3.06.1-4.36,4.23.2,6.55,3.52,11.06,1.55.95,3.21-2.08,1.28-2.98,2.7-2.06,3.26.57,6.36.44,8.87-.07,1.26-1.41,2.35-1.48,3.3-.14,2.2.39,4.92-.07,7.3,2.26-2.48,10.74-1.82,11.74,1.17.49,1.46-.07,7.02-2.45,5.45.41-2.25-6.68-5.33-7.95-5.45-1.65-.16-8.1,5.34-12.17,3.28-.33.33,1.21,5.98,1.82,6.9,1.38,2.1,6.27,1.81,2.69,7.35-1.09,1.68-3.06,1.63-4.38,2.73-1,.83-1.01,2.92-2,3.18-1.66.43-3.67-.69-4.89-.47-1.36.24-3.95,5.27-7.98,2.03-2.45-1.97.17-4.84-7.13-4.84-4.73,0-6.06.91-8.2,4.9-3.53.61-5.38-2.62-7.87-4.08-1.46-.86-3.45-.87-4.97-1.91-3.26-2.2-4.52-7.81-10.22-7.57l-1.47,2.46c.02.66,3.2,6.97,3.53,7.19,1.53,1.01,7.83.42,8.64,1.06.3.24,1.38,4.36,3.05,5.17l-7.08,14.82c-3.75,1.1-.88-4.07-3.14-5.45-3.48-.97-7.34,1.89-10.12-1.59-1.4-4.08,7.44-7.29,7.64-8.26-2.27-7.63-15.32-1.02-14.79,4.63.22,2.3,4.6,4.86-.29,8.43-1.63.45-6.11-3.22-8.26-3.39-2.49-.2-4.23,1.86-7.24.61-.3-.12-4.95-3.57-5.16-3.82-1.82-2.16-.77-5.45-4.85-6.22l-5.51,10.17c-4.24-3.55,3.73-7.85-2.57-10.85l-8.64,5.31c-2.19-5.24-7.12-.71-10.28-5.58l-2.86,2.24-7.09-1.92-4.02,4.16c-7.86-.66-12.78,1.67-19.04-4.84-3.24.39-2.98,4.24-5.01,5.95-3.19,2.68-9.87,5.02-14.08,4.55l.09,1.98c2.75-1.14,3.64,9.94,2.99,10.96-2.21,3.47-10.81-.25-8.48-8.78.88-3.22,6.41-6.38,4.69-10.18-1.48-1.87-8.16,1.15-11.11-4.49-.44-.85.41-2.3-.67-3.55-1.69-1.97-3.89-.27-5.46-1.17-.71-.41-.73-2.07-1.31-2.06-2.62.05-4.64,4.85-8.39,2.94-1.25-.63-1.43-2.34-2.45-3.16-2.6-2.1-2.13-2.05-4.05-3.88-.44-.42-8.27-4.64-8.93-3.87-.89,5.4,5.69,5.62,7.18,10.45s-1.49,7.05,1.54,11.89c3.31,5.29,9.41,3.46,10.52,8.41.33,1.46,1.42,10.51,1.02,11.42-1.93,4.39-5,.51-7.08.31-5.57-.53-8.23,7.26-2.54,10.09,1.65-2.63,7.5-9.51,10.32-5.96,1.22,1.54,1.05,3.72,1.94,5.2,1.18,1.93,3.87,3.68,4.28,5.81.11.57-.35,11.1-.5,11.67-1.17,4.43-4.3-1.23-6.38-1.1-1.77.11-3.23,3.19-6.79,2.18-3.07-.87-.55-3.96-1.35-5.81-2.09-4.84-8.83-.13-11.48-1.7-1.45-.86-5.81-15.98.14-17.38l-9.74-4.05.42-4.07-4.05.59-.78,4.57-10-.56c.97,8.58-6.01,13.5.88,21.46l-11.84,4.03c2.4,6.61-2.88,7.26,2.69,13.23,1.77,1.89,5.93,3.35,6.07,5.88.12,2.15-2.82,5.76-2.65,9.16.18,3.62,4.52,6.5,3.95,9.44-.67,3.47-8.55,5.3-9.09,10.84-.74,7.59,7.59,4.21,6.25,10.42-1.05,4.87-6.18,7.13-7.51,9.5-1.07,1.91-.5,3.85-1.24,5.59-.28.67-5.35,7.04-5.85,7.2-3.45,1.06-10.81-10.73-16.08-5.28-1.15,1.22-1.87,8.02-1.63,9.65.34,2.29,4.39,5.35,2.94,9.33l-14.99.61c.18-11.8-.42-19.64-14.29-19.45-2.17,7.01,4.2,12.84,1.3,19.98l-10.99.45-.04-1c3.33-2.5.75-7.02,2.08-10.11.76-1.76,4.78-2.73,5.19-4.88.33-1.77-1.48-3.19-.62-6.23.27-.95,5.55-9.51,6.13-9.89,1.54-1.03,3.44.85,4.44-.57l1.3-5.6c-3.04-.19-5.68,2.17-8.49,2.73-3.61.72-6.8-1.71-10.44-.94-2.55-1.02-2.58-6.01-2.37-8.44.02-.23.68-1.88.88-3.04.98-5.75,3.21-13.61,6.85-18.21,5.81-7.34,7.99-5.65,9.18,3.21,1.03,7.67,1.32,4.9,3.19,10.41.8,2.35-.23,4.1.36,5.74,1.5,4.24,9.01,7.72,11.48,11.57l2.47-.58c-2.14-12.84,3.04-19.81,16.12-20.23l-.28-4.79c-7-2.91-14.19.76-18.2,6.47l-5.05-1.61c1.7-7.83-.56-18.11-9.24-19.71l-.05-1.47c2.36-4.67,12.42-14.92,12.14-19.61-.06-.97-.92-1.19-1-1.38-.17-.44-.84-1.75-1.08-1.96-3.84-3.34-9.47,7.11-12.1,9.52-1.75,1.61-4.38,2.16-5.86,4.2-2.73-2.16-.44-5.71-.95-9.33-.35-2.51-1.5-6.2-4.64-5.48-.8.19-1.6,5.05-4.35,4.22l-.25-5.99c.91-2.25,1.27-1.74.84-4.04-.06-.32,0-.67-.04-1l-.04-1c.33-.05.67,0,1-.04,4.39-.62,2.48-1.78,4.1-2.49,2.55-1.11,7.01-.25,8.24-3.03.74-1.69-1.39-4.41-1.77-6.5-.35-1.96,2.33-4.99-1.73-5.36-5.3,3.89-5.73.48-9.31-.37-5.47-1.31-11.87,1.72-11.92,7.8-.01,1.7,1.2,3.32,1.17,4.9-.12,5.63-4.09,15.3-6.46,20.5-.58,1.27-4.37,2.41-2.4,7.39-2.73,3.23-6.1,12.52-11.62,9.48-.36-.2-.78-1.66-1.57-1.92-4.91,3.74-4.72,7.98-.02,11.99-.03.66.11,1.34.08,2-3.49-.08-3.22,5.01-4.34,7.06s-2.53,3.07-3.8,4.66c-1.42,1.78-.07,4.68-5.23,3.84-.74-4.39.79-8.62.83-12.94.03-3.4-.03-16.61-4.29-15.76-2.73,1.13-7.19,4.49-7.43,7.65s2.84,5.62,2.94,6.89c.09,1.11-1.6,2.61-1.55,4,.03.81,2.67.32,3.25,2.92,1.68,7.54-7.07,17.35-13.2,11.13-2.11-2.14-2.67-5.79-6.21-7.87-1.89-1.11-4.15-.49-5.61-2.23,1.84-5.23,5.57-2.33,8.16-5.92,3.11-4.32,1.71-6.45.15-10.92,4.41-1.53,4.57,2.3,6.11,3.27s3-.66,2.96-1.15-4.77-4.12-5.07-7.98c-.16-2.15,1.7-3.13,2.03-4.93s-.75-7.83-.35-8.48c4.64-2.59,15.54,2.75,17.14-4.42.3-1.33.5-3.96-.2-5.06-3.36-3.24-5.67-.75-8.32-.87-4.42-.2-7.82-.67-12.53-.49-.33.01-.67.02-1,.04-.41-7.41-2.04-11.89-10.35-12.41-1.53-.09-2.01.92-2.13.91-.33-.04-.67.07-1,.04Z"/>
</svg>