<?xml version="1.0" encoding="UTF-8"?>
<svg id="a" data-name="Layer 1" xmlns="http://www.w3.org/2000/svg" width="612" height="792" viewBox="0 0 612 792">
  <defs>
    <style>
      .b {
        fill: #00a651;
        stroke: #231f20;
        stroke-miterlimit: 10;
      }
    </style>
  </defs>
  <path class="b" d="M452.5,153.5c-24.64-14.61-46.54-10.47-104-6-25.94,2.02-64.12,4.98-110,6-54.86,1.22-60.42-1.69-82,4-17.77,4.69-30.16,10.92-50,8-17.49-2.57-27.1-10.25-34-5-7.32,5.57-7.78,22.77,0,30,8.26,7.68,19.19-2.04,46,0,20.53,1.56,19.72,7.68,40,9,25.79,1.67,36.74-7.59,45,0,4.39,4.04,4.65,12.41,5,29,.45,21.84.68,32.77-4,38-9.51,10.63-30.54,6.74-67,0-13.63-2.52-27.66-3.22-41-7-9.31-2.64-17.41-5.71-21-2-3.43,3.54-1.1,11.57,1,16,8.23,17.39,32.85,21.92,45,24,21.4,3.66,43.74,1.9,68,0,17.12-1.34,26.51-2.85,31,3,6.82,8.88-3.71,26.85-5,29-1.03,1.72-14.65,23.64-39,26-21.65,2.1-31-13.3-47-7-9.12,3.59-17.58,13.11-16,20,1.01,4.41,6.53,9.49,62,16,56.79,6.67,65.54,3.05,71,0,24.56-13.72,30.69-42.77,32-49,1.41-6.67,7.7-40.77-11-59-8.42-8.21-15.12-6.58-21-16-6.47-10.35-7.37-26.71,1-38,8.61-11.61,22.91-12.31,37-13,12.25-.6,26.9-1.32,35,8,7.74,8.9,5.3,22.13,2,40-3.88,21.02-8.59,21.63-16,50-3.75,14.37-1.74,11.12-8,39-4.74,21.09-6.06,23.7-4,27,6.72,10.76,31.81.68,73-2,49.91-3.25,74.52,7.56,78-1,3.61-8.88-18.88-30.4-44-41-28.83-12.17-44.09-2.77-54-15-12.58-15.51-3.71-49.98,16-69,16.95-16.35,38.62-18.11,67-20,56.92-3.79,90.33,12.57,95,3,3.93-8.04-16.31-26.53-42-50-15-13.7-22.49-20.55-30-25Z"/>
</svg>