<?xml version="1.0" ?>
<svg xmlns="http://www.w3.org/2000/svg" xmlns:ev="http://www.w3.org/2001/xml-events" xmlns:xlink="http://www.w3.org/1999/xlink" baseProfile="full" data-name="b1" height="792" id="a" version="1.1" viewBox="0 0 612 792" width="612">
	<defs/>
	<path d="M 278.99999999999994,210.34921037396145 L 279.0,210.34921037396145 L 279.0,209.21783952406298 L 280.1451782746294,210.36301779869243" fill="none" stroke="#f131dc" stroke-width="0.1"/>
	<path d="M 399.0541241701223,217.72275332022363 L 401.25455893099587,219.92318808109724 L 400.0868000364309,217.6240583366338 L 401.423715891243,218.96097419144584" fill="none" stroke="#b9274a" stroke-width="0.1"/>
	<path d="M 136.8052090660719,142.59479093392812 L 137.64916887424133,143.43875074209757 L 137.3808508966543,142.039061914612 L 138.55450184153761,143.21271285949535 L 138.48199587887365,142.00883604693294 L 138.49741368019875,142.02425384825798" fill="none" stroke="#12d200" stroke-width="0.1"/>
	<path d="M 431.37754128262685,248.7547878664075 L 431.3775412826269,248.75478786640764 L 430.2842110534901,246.53008678737237 L 432.53073206944504,248.7766078033273 L 431.26168658344545,246.37619146742915 L 432.5311844580963,247.64568934207998" fill="none" stroke="#a7d130" stroke-width="0.1"/>
	<path d="M 241.6950519185286,205.4950519185286 L 241.59010383705717,205.39010383705715 L 241.48515575558577,205.28515575558575 L 241.38020767411433,205.1802076741143 L 241.27525959264293,205.0752595926429 L 241.17031151117152,204.9703115111715 L 241.06536342970008,204.86536342970007 L 240.96041534822868,204.76041534822866 L 240.85546726675727,204.65546726675726 L 240.75051918528584,204.55051918528582 L 240.64557110381443,204.44557110381442 L 240.60977792549826,204.41747877592587 L 240.62163420765907,204.47607795385798 L 240.63038283727357,204.56439305621967 L 240.64049404967398,204.67579083058249 L 240.6564380801926,204.80363802451788 L 240.68268516416163,204.94130138559737 L 240.72370553691337,205.08214766139244 L 240.78396943378004,205.21954359947458 L 240.8679470900939,205.34685594741532 L 240.98010874118722,205.45745145278613 L 241.12492462239223,205.54469686315852 L 241.3068649690412,205.60195892610398 L 241.53040001646633,205.62260438919398 L 241.79999999999995,205.60000000000008 L 241.8,205.6 L 241.6950519185286,205.4950519185286" fill="none" stroke="#871189" stroke-width="0.1"/>
	<path d="M 452.9855017593156,124.05413090941758 L 454.1313708498979,125.20000000000002 L 454.0627416997964,124.00000000000001 L 455.25549260990636,125.19275091010988 L 455.18183220365415,123.98771965395916 L 455.4400600588932,124.24594750919825" fill="none" stroke="#150e50" stroke-width="0.1"/>
	<path d="M 170.3215374725155,109.33183558247343 L 171.76557701513312,110.77587512509105 L 170.81308432519342,108.6920115852528 L 172.4954887686695,110.37441602872889 L 171.6524435898391,108.4 L 172.51365440227818,109.26121081243905" fill="none" stroke="#2d2cf4" stroke-width="0.1"/>
	<path d="M 345.67637477786434,191.20500392796603 L 345.84651906228146,191.37514821238307" fill="none" stroke="#1d9321" stroke-width="0.1"/>
	<path d="M 344.56319470055627,192.01544453072745 L 344.9575580838846,192.40980791405576" fill="none" stroke="#ee7195" stroke-width="0.1"/>
	<path d="M 471.0642287846917,132.53285793479355 L 473.2847570437668,134.75338619386872 L 472.0314025062221,132.36866080642548 L 473.4388346548693,133.7760929550727" fill="none" stroke="#ff548c" stroke-width="0.1"/>
	<path d="M 477.15871917065897,143.4273483207605 L 478.2424417534306,144.51107090353213 L 478.0465585812087,143.18381688141181 L 480.5076254420024,145.64488374220548 L 479.26535943257096,143.2712468828755 L 482.79649192098054,146.80237937128516 L 481.583498162571,144.45801476297686 L 483.89761828848566,146.77213488889157 L 483.81857945003946,145.561725200547 L 484.03926362762127,145.7824093781289" fill="none" stroke="#194faa" stroke-width="0.1"/>
	<path d="M 209.38378901176674,74.85241816186827 L 210.53137084989848,76.0 L 210.46274169979696,74.79999999999998 L 210.6,74.93725830020301" fill="none" stroke="#5d956b" stroke-width="0.1"/>
	<path d="M 135.0,149.19999999999996 L 135.0,149.19999999999996 L 135.033233720457,148.10186287055848 L 136.14129382131816,149.20992297141964 L 135.7104748148874,147.64773311509038 L 137.23872457323196,149.17598287343492 L 136.29568848072262,147.10157593102713 L 137.87361194057522,148.67949939087973 L 136.7711379785216,146.44565457892762 L 138.4658722157781,148.1403888161841 L 137.26658754438952,145.8097332948971 L 139.0066755277101,147.54982127821765 L 138.19024202347782,145.6020169240868 L 139.56864024075452,146.98041514136355" fill="none" stroke="#d63c78" stroke-width="0.1"/>
	<path d="M 346.27101596491644,73.67559509830748 L 348.5952595497761,75.99983868316717 L 347.31773915446416,73.5909474379567 L 348.98562828984285,75.25883657333534 L 348.4649345943479,73.6067720279419 L 349.71391524242307,74.85575267601719 L 349.1592194907719,73.16968607446734 L 350.763438547586,74.77390513128154 L 349.6796627971722,72.55875853096924 L 351.22175039471347,74.10084612851054 L 350.6550232547958,72.4027481386943 L 351.82199786355267,73.56972274745114 L 351.8246239161376,72.44097795013758 L 352.2,72.81635403400004" fill="none" stroke="#59cddb" stroke-width="0.1"/>
	<path d="M 443.39905745065926,258.35325934484655 L 444.630031323239,259.58423321742623 L 443.48583696195146,257.30866800624 L 445.7695859596918,259.59241700398064 L 444.50853980560976,257.2 L 446.4101909601286,259.1016511545189 L 445.63991065550823,257.2 L 445.8187125980725,257.3788019425643" fill="none" stroke="#cb87ae" stroke-width="0.1"/>
	<path d="M 446.91157265255276,258.4716619970445 L 446.93406993431904,258.4941592788108" fill="none" stroke="#96fed5" stroke-width="0.1"/>
	<path d="M 387.9853017670014,209.06918399879464 L 387.98530176700154,209.0691839987948 L 387.280488911131,207.23300029302578 L 388.8684677089201,208.8209790908149 L 388.73956078250757,207.56070131450386 L 389.32622957149846,208.14737010349484" fill="none" stroke="#d0cfd8" stroke-width="0.1"/>
	<path d="M 148.20000000000002,439.6427026116209 L 149.2742927200862,440.71699533170715 L 148.25535883344634,438.5666905951688 L 149.4097921556931,439.7211239174155 L 148.80188099300162,437.98184190482556 L 149.7920690199038,438.9720299317277 L 149.30803351843775,437.35662358036313 L 150.44388397341757,438.492474035343 L 149.4047252944003,436.32194450642726 L 150.6,437.51721921202693 L 150.19396018043972,435.97980854256815 L 150.60000000000002,436.38584836212846" fill="none" stroke="#ffc51d" stroke-width="0.1"/>
	<path d="M 345.3338986486554,193.49699584645145 L 346.4414782666465,194.60457546444243 L 346.07484392420713,193.10657027210462 L 347.00955895477495,194.04128530267243 L 346.78227803908646,192.68263353708545 L 347.44382691518376,193.34418241318272" fill="none" stroke="#ecd25c" stroke-width="0.1"/>
	<path d="M 364.2054302484041,194.52143599317324 L 365.29879204058005,195.61479778534914 L 364.3873169426225,193.57195183749315 L 366.0131061496086,195.19774104447924 L 365.09221127515616,193.14547532012833 L 366.6228696739712,194.67613371894336 L 365.8601440270195,192.78203722209315 L 367.0216779848444,193.94357117991808 L 366.67300082076923,192.4635231659444 L 367.4415503667989,193.23207271197404" fill="none" stroke="#fe34b3" stroke-width="0.1"/>
	<path d="M 349.8007836759532,188.86917580031243 L 351.00527477699745,190.07366690135663 L 350.55501407636365,188.49203535082438 L 352.07666399486254,190.01368526932328 L 351.50120961121945,188.30686003578174 L 352.2,189.00565042456228" fill="none" stroke="#4e5110" stroke-width="0.1"/>
	<path d="M 259.54303691795417,196.92719047353876 L 260.8172988031242,198.20145235870876 L 260.33140705428605,196.58418975997205 L 262.1393461810663,198.39212888675235 L 261.1771411192853,196.29855297507288 L 262.2167240241286,197.33813587991622 L 262.1447152250797,196.13475623096883 L 262.1908130634931,196.18085406938224" fill="none" stroke="#93ba62" stroke-width="0.1"/>
	<path d="M 480.6526386731528,139.75038846564644 L 482.8545707589632,141.95232055145675 L 481.5998890637939,139.56626800638898 L 483.04470550118697,141.01108444378195" fill="none" stroke="#f63c36" stroke-width="0.1"/>
	<path d="M 217.84462121066827,72.41296220548959 L 217.8446212106683,72.4129622054896 L 217.841195981478,71.27816612640089 L 218.96112135250306,72.39809149742591 L 218.89440070497562,71.20000000000002 L 220.08954331464065,72.395142609665 L 220.04418544850859,71.21841389363445 L 220.2,71.37422844512585" fill="none" stroke="#2b82ac" stroke-width="0.1"/>
	<path d="M 287.4,66.39999999999998 L 287.4,66.39999999999999 L 287.4892500058327,65.35787915593419 L 288.54495121854336,66.41358036864489 L 288.4584983635718,65.19575666377479 L 290.85667187377084,67.59393017397383 L 289.5896441365521,65.19553158685666 L 291.33911435190873,66.94500180221323 L 290.7230218352708,65.1975384356768 L 291.4516790577704,65.9261956581764" fill="none" stroke="#2ed0a7" stroke-width="0.1"/>
	<path d="M 355.8939570091799,68.9452500965826 L 358.14870691259733,71.2 L 356.88941668050416,68.80933891800836 L 358.67843069171744,70.59835292922163 L 358.03008365129983,68.81863503890544 L 359.05469445045327,69.84324583805902 L 359.1657365269703,68.82291706467743 L 359.32803489654884,68.98521543425608" fill="none" stroke="#4e022e" stroke-width="0.1"/>
	<path d="M 524.9269281819493,192.41807152029608 L 525.0,192.49114333834677" fill="none" stroke="#f25a63" stroke-width="0.1"/>
	<path d="M 520.2000000000002,194.8 L 520.2000000000002,194.80000000000004 L 520.241681970354,193.71031112045534 L 521.3390892396269,194.8077183897282 L 521.2184338912139,193.55569219141694 L 522.4329334956477,194.77019179585085" fill="none" stroke="#c050aa" stroke-width="0.1"/>
	<path d="M 519.0557139611111,197.34201326455704 L 521.3023313496718,199.58863065311783 L 520.074875289987,197.22980374353452 L 520.2661285560548,197.4210570096024" fill="none" stroke="#4e1019" stroke-width="0.1"/>
	<path d="M 353.4087161241657,358.0378180465851 L 354.5614145929202,359.19051651533954 L 354.4514037770759,357.94913484959676 L 354.6,358.09773107252084" fill="none" stroke="#390723" stroke-width="0.1"/>
	<path d="M 319.97046305348454,515.1507944437055 L 321.1357283031106,516.3160596933317 L 320.49035771569805,514.5393182560205 L 321.83477695553313,515.8837374958556 L 321.05083866340937,513.9684283538334 L 322.5089337150972,515.4265234055214 L 321.60769982812457,513.39391866865 L 323.16520753371947,514.951426374245 L 322.24134852278434,512.8961965134114 L 323.8037969264744,514.4586449171013 L 323.3088280055903,512.8323051463188 L 324.4251269014271,513.9486040421557 L 324.37496359145496,512.767069882285 L 325.02902018002044,513.4211264708506 L 325.14297294401825,512.4037083849498 L 325.61975325303246,512.8804886939641 L 325.6786602717631,511.8080248627961 L 326.1994941925307,512.3288587835638 L 326.6029548582123,511.6009485993469 L 326.77864443949466,511.7766381806292" fill="none" stroke="#700df1" stroke-width="0.1"/>
	<path d="M 330.6,357.90643101543634 L 330.6,357.90643101543634 L 330.6414672317092,356.816527397247 L 331.7800468100206,357.95510697555846 L 331.7563106843608,356.8 L 331.80971204054237,356.8534013561817" fill="none" stroke="#570a55" stroke-width="0.1"/>
	<path d="M 372.66006711648487,415.5708362767129 L 373.79737629555217,416.7081454557801 L 373.2809547268376,415.060353037167 L 374.4148717982547,416.19427010858413 L 373.7864666859791,414.4344941464101 L 374.9783938168052,415.62642127723615 L 374.49598700500263,414.012643615535 L 375.53793140362285,415.0545880141553 L 375.2811560621629,413.66644182279686 L 376.11592766305404,414.501213423688 L 376.10600766153794,413.35992257227343 L 376.1834337957397,413.43734870647523" fill="none" stroke="#336950" stroke-width="0.1"/>
	<path d="M 354.6,356.6789957590692 L 354.6,356.6789957590692 L 354.6741825334709,355.62180744264157 L 355.802698658507,356.7503235676777 L 355.4186648135203,355.2349188727925 L 356.02722141674195,355.84347547601413 L 356.12780754565046,354.81269075502416 L 356.90970922848646,355.5945924378602 L 356.8839576469055,354.4374700063808 L 356.9549117355808,354.5084240950561" fill="none" stroke="#e9b486" stroke-width="0.1"/>
	<path d="M 360.6,348.2870882340093 L 360.6,348.2870882340093 L 360.6,347.1557173841108 L 361.81856723518536,348.3742846192961 L 360.6498495362112,346.07419607042345 L 362.3661123518878,347.79045888610005 L 361.7264850797579,346.0194607640716 L 362.9284009286842,347.22137661299803 L 362.4056168203817,345.567221654797 L 363.51919758279234,346.68080241720764 L 362.90680936030503,344.93704334482175 L 364.07205109517446,346.1022850796913" fill="none" stroke="#412b69" stroke-width="0.1"/>
	<path d="M 386.98954057302177,416.7151030170765 L 386.98954057302177,416.7151030170766 L 387.0339257851734,415.62811737932964 L 388.15725520842904,416.7514468025853 L 388.13562104315713,415.598441787415 L 388.24596573961827,415.7087864838761" fill="none" stroke="#c2377c" stroke-width="0.1"/>
	<path d="M 381.0,416.7852349806872 L 382.1967691135124,417.98200409419957 L 381.0,415.65386413078863 L 382.20580478417645,416.8596689149651 L 381.0,414.5224932808901 L 382.5152431514417,416.0377364323319 L 381.954813352834,414.34593578382567 L 383.009864343555,415.40098677454665 L 383.34221749604535,414.60196907713845 L 383.35496269601316,414.6147142771064" fill="none" stroke="#c017bc" stroke-width="0.1"/>
	<path d="M 279.1906618210425,576.4127263172478 L 279.1906618210425,576.4127263172478 L 279.44226077740706,575.5329544237138 L 280.29277914747246,576.3834727937792 L 279.88503424361306,574.8443570400214 L 281.3569845717128,576.3163073681211 L 280.4862779895146,574.3142299360244 L 282.4427166637396,576.2706686102492 L 282.5129631818022,576.3409151283121 L 282.56339614875895,576.3913480952688" fill="none" stroke="#2ff6ec" stroke-width="0.1"/>
	<path d="M 197.4,425.1436381761021 L 198.60178053085005,426.34541870695216 L 197.47540274001963,424.0876700662232 L 198.9774937027235,425.5897610289271 L 198.52279084848158,424.00368732478665 L 199.37907575246513,424.85997222877023" fill="none" stroke="#62be64" stroke-width="0.1"/>
	<path d="M 201.11050678641985,420.5737852449743 L 203.34133267762567,422.8046111361801 L 202.0721684746163,420.40407608327223 L 203.71270706121814,422.044614669874 L 203.1994632412426,420.40000000000003 L 204.14587799644684,421.34641475520425 L 204.33083409114107,420.4000000000001 L 204.52259651139207,420.591762420251" fill="none" stroke="#589901" stroke-width="0.1"/>
	<path d="M 242.30281939753468,390.9714485476366 L 244.11212199441883,392.7807511445208 L 242.92973325230707,390.46699155251054 L 242.95354662656987,390.4908049267733" fill="none" stroke="#8c8842" stroke-width="0.1"/>
	<path d="M 208.72181869343325,423.2046116623812 L 209.42102365770538,423.9038166266532 L 209.18465011831802,422.53607223736753 L 209.9968134212813,423.34823554033073 L 209.64992915416582,421.86998042331675 L 210.59011078272763,422.81016205187865 L 210.1063454409751,421.1950258602276 L 211.13964424545284,422.22832466470527 L 210.5409309730981,420.4982405424521 L 211.66930777932842,421.6266173486824 L 211.6728188016719,420.49875752112735 L 211.79999999999995,420.62593871945546" fill="none" stroke="#271038" stroke-width="0.1"/>
	<path d="M 184.20323909766253,421.59987154194954 L 185.38449014163433,422.78112258592137 L 184.26046223094903,420.5257238253376 L 185.86867382731103,422.13393542169956 L 184.95401257815092,420.08790332264095 L 186.50438664124655,421.6382773857366 L 185.66654484859117,419.66906474318273 L 186.5993069690671,420.60182686365863 L 186.40846321173774,419.2796122564308 L 186.66672096900828,419.53787001370137" fill="none" stroke="#5cde1f" stroke-width="0.1"/>
	<path d="M 179.52401663318417,419.19999999999993 L 179.5240166331842,419.2 L 179.4754138477525,418.0200263646698 L 180.6524464282994,419.19705894521667 L 180.00042212666474,417.4136637936835 L 181.76086046538526,419.174102132404 L 180.55913916489297,416.8410099820133 L 182.29069611110677,418.5725669282271 L 181.14323573457025,416.29373570179206 L 182.89384149683247,418.04434146405424 L 181.72776196538425,415.7468910827076 L 182.96441088081244,416.98353999813577 L 182.72460180522688,415.61236007265165 L 183.0230004638827,415.9107587313075" fill="none" stroke="#bd7731" stroke-width="0.1"/>
	<path d="M 199.83843755351705,408.47940871336544 L 202.09538876413617,410.73635992398465" fill="none" stroke="#398671" stroke-width="0.1"/>
	<path d="M 217.95866499102,415.6 L 217.95866499102,415.6 L 217.8570606553105,414.3670248143921 L 219.09028354130078,415.60024770038234 L 218.31944720520897,413.698040514392 L 220.19695969874894,415.575553007932 L 218.97320459834611,413.2204270576307 L 220.92780498368083,415.17502744296536 L 219.78361611989436,412.8994677292804 L 221.64414737118435,414.75999898057046 L 220.73218135608596,412.7166621155735 L 222.3831017998381,414.3675825593256 L 222.14161868089815,412.9947285904872 L 222.5931971479173,413.4463070575064" fill="none" stroke="#5abb74" stroke-width="0.1"/>
	<path d="M 206.91336027313216,351.9819894232337 L 206.97053337330456,352.03916252340605" fill="none" stroke="#f2bc59" stroke-width="0.1"/>
	<path d="M 212.80992106879046,354.40000000000003 L 213.0,354.5900789312095" fill="none" stroke="#1bf0b4" stroke-width="0.1"/>
	<path d="M 576.1476770572666,586.8163062073681 L 576.5534411609187,587.2220703110203" fill="none" stroke="#98c49f" stroke-width="0.1"/>
	<path d="M 556.305819358839,526.0784724819106 L 557.4273468769284,527.2 L 557.3546494428147,525.9959317159878 L 558.5587177268269,527.2 L 558.4913320904697,526.0012435137444 L 559.6900885767253,527.2 L 559.6761746516403,526.0547152250167 L 559.8000000000001,526.1785405733764" fill="none" stroke="#bcce59" stroke-width="0.1"/>
	<path d="M 367.8188417996177,564.3862275736298 L 367.8188417996177,564.3862275736298 L 367.803794975954,563.2398099000676 L 368.5236216534031,563.9596365775167 L 367.8016581590388,562.1063022332539 L 369.2801785855723,563.5848226597874 L 368.82501540720267,561.9982886315194 L 370.0751683047579,563.2484415290745" fill="none" stroke="#718995" stroke-width="0.1"/>
	<path d="M 541.8303702221245,532.0622952471277 L 542.9679867973053,533.1999118223088 L 542.8994458248952,532.0 L 544.0979092569139,533.1984634320188 L 544.0308166747934,532.0 L 545.2273464314485,533.196529756655 L 545.1664546909807,532.0042671662887 L 545.3978399253241,532.2356524006324" fill="none" stroke="#24aca0" stroke-width="0.1"/>
	<path d="M 547.7996551878217,531.9052094035244 L 547.7996551878217,531.9052094035244 L 547.8434149742119,530.8175983400162 L 549.0258166341958,532.0000000000001 L 548.9597625869626,530.8025751028684 L 550.1067002217658,531.9495127376716 L 550.1065337705577,530.8179754365651 L 550.1710963332087,530.8825379992162" fill="none" stroke="#884339" stroke-width="0.1"/>
	<path d="M 586.1969400954729,526.0191360226858 L 587.3266205448319,527.148816472045" fill="none" stroke="#a4c261" stroke-width="0.1"/>
	<path d="M 560.9999999999999,529.4459195135342 L 560.9999999999999,529.4459195135342 L 561.0846832973582,528.3992319609941 L 562.2835088243431,529.5980574879792 L 562.2008017775441,528.3839795912818 L 563.3614126749775,529.5445904887151 L 562.9643398960918,528.0161468599309 L 563.8837450587004,528.9355520225395 L 563.4423386725598,527.3627747865006 L 564.5148492095751,528.4352853235159 L 564.4109347359577,527.2 L 565.586684966145,528.3757502301874 L 565.5657974665103,527.2234918806543 L 565.7154758469277,527.3731702610717" fill="none" stroke="#94ee5f" stroke-width="0.1"/>
	<path d="M 55.01391236980962,574.3721752603808 L 55.84247130210054,575.2007341926718 L 55.39103598644236,573.6179280271151 L 56.94334025263428,575.170232293307 L 55.801628677863945,572.8971498686383 L 58.069473691383806,575.1649948821581 L 56.84012195186281,572.8042722927386 L 58.200676092535126,574.1648264334109 L 58.04805647704338,572.8808359680207 L 58.184198386310825,573.0169778772881" fill="none" stroke="#c67c5f" stroke-width="0.1"/>
	<path d="M 443.40000000000003,551.1385936512393 L 443.40000000000015,551.1385936512393 L 443.40000000000003,550.0072228013408 L 444.5927771986593,551.2 L 443.4831629396445,548.9590148910868 L 445.72414804855777,551.2 L 444.44244922227654,548.7869303238203 L 446.2361188600631,550.5805999616068 L 445.5795423284092,548.7926525800544 L 446.981276768773,550.1943870204183 L 446.28319203172714,548.3649314334739 L 447.89680445007923,549.978543851826 L 446.80179851578754,547.7521670676358 L 448.2,549.1503685518484 L 447.78100229805017,547.6 L 448.2,548.0189977019497" fill="none" stroke="#d99909" stroke-width="0.1"/>
	<path d="M 570.6200813048301,526.8158411466801 L 570.6200813048301,526.8158411466801 L 570.7841111340206,525.8485001259721 L 572.1317824914664,527.196171483418 L 571.349858149629,525.2828762916821 L 573.2906350097682,527.2236531518213 L 572.0187882438393,524.8204355359942 L 574.4066047452354,527.2082520373899 L 573.1308428187025,524.8011192609588 L 575.4351930158642,527.1054694581205 L 574.2784081878497,524.8173137802077 L 576.023082253346,526.561987845704 L 575.392171124935,524.7997058673943 L 576.6531169073788,526.0606516498383 L 576.544094772791,524.8202586653521 L 577.7432043406901,526.0193682332513 L 577.6474553145904,524.792248357253 L 578.8409158674095,525.9857089100722 L 578.3899958964606,524.4034180892247 L 579.9960061566464,526.0094283494107 L 578.9002350273425,523.7822863702083 L 580.5622658255201,525.444317168386 L 579.7741445513417,523.5248250443093 L 581.1583013192467,524.908981812214 L 580.9858626844373,523.6051723275064 L 582.1384742586367,524.7577839017057 L 582.1610578086838,523.6489966018545 L 583.3172980348369,524.8052368280077 L 583.2283312620846,523.5848992053568 L 583.7959028227747,524.1524707660467" fill="none" stroke="#1ee3d7" stroke-width="0.1"/>
	<path d="M 11.47616259114411,613.6581611711488 L 13.736865844033165,615.9188644240378 L 11.974686134946902,613.0253138650531 L 14.192654788109797,615.243282518216 L 12.5565915293891,612.4758484095968 L 14.378825872245082,614.2980827524528 L 13.607688316759843,612.3955743470691 L 13.83730477687762,612.6251908071869" fill="none" stroke="#a4bd24" stroke-width="0.1"/>
	<path d="M 519.8318740434337,490.00000000000006 L 522.197243683253,492.36536963981916 L 520.9632448933321,490.00000000000006 L 522.4595532381188,491.49630834478677 L 522.0946157432304,490.0 L 522.5693147001168,490.4746989568863" fill="none" stroke="#dfbf2f" stroke-width="0.1"/>
	<path d="M 83.49631545001806,565.5760210497881 L 83.49631545001806,565.5760210497881 L 83.440085663454,564.3884204133255 L 84.40216387136527,565.3504986212369 L 84.4420138501923,564.2589777501654 L 85.30801229271259,565.1249761926857" fill="none" stroke="#46f82b" stroke-width="0.1"/>
	<path d="M 79.80253180476168,567.9868101488305 L 79.80253180476168,567.9868101488305 L 79.01031690819987,566.0632244023702 L 80.36603826842753,567.4189457625979 L 79.05566926904223,564.9772059133142 L 80.92396104389157,566.8454976881635 L 80.56739975188377,565.3575655462572 L 80.99999999999996,565.7901657943734" fill="none" stroke="#9642da" stroke-width="0.1"/>
	<path d="M 9.006333070718881,613.6749622208204 L 10.121437965637329,614.7900671157388 L 10.08596391421697,613.62322221442 L 10.220340882745512,613.7575991829485" fill="none" stroke="#19c25d" stroke-width="0.1"/>
	<path d="M 570.918771639257,530.6785831581301 L 570.9187716392571,530.6785831581302" fill="none" stroke="#119888" stroke-width="0.1"/>
	<path d="M 571.1238531103417,529.7522937793162 L 571.8130495949548,530.4414902639295 L 571.5009767269744,528.9980465460508 L 572.8241545813613,530.3212244004374 L 572.0343010308219,528.4 L 573.9577918381694,530.3234908073473 L 573.1656718807205,528.4 L 575.2206514701169,530.4549795893963 L 574.297042730619,528.4 L 576.5394336455084,530.6423909148895 L 575.4271911191498,528.3987775386324 L 577.7521678300898,530.7237542495724 L 576.5589074095701,528.3991229791542 L 578.2859323825863,530.1261479521705 L 577.6644000051612,528.3732447248469 L 578.922745115441,529.6315898351268 L 578.8250421529074,528.4025160226947 L 580.0136474923853,529.5911213621728 L 580.0545024956124,528.5006055155013 L 581.1544535750232,529.6005565949121" fill="none" stroke="#f95f4f" stroke-width="0.1"/>
	<path d="M 9.000000000000014,620.7521904090746 L 9.000000000000014,620.7521904090746 L 8.999999999999966,619.6208195591761 L 10.179180440823892,620.8000000000001 L 10.12310869816313,619.6125574074408 L 11.28344975077687,620.7728984600545 L 11.252154804735435,619.6102326641146 L 11.363893802352592,619.7219716617318" fill="none" stroke="#4c2d61" stroke-width="0.1"/>
	<path d="M 591.0,560.6868678961748 L 591.0000000000006,560.6868678961752 L 591.2310689790303,559.7865660253066 L 591.9564888967649,560.5119859430412" fill="none" stroke="#579018" stroke-width="0.1"/>
	<path d="M 69.22776639685655,606.6413552158928 L 70.19107663064473,607.6046654496809 L 69.5283429231408,605.8105608922785 L 71.29344213058332,607.5756600997211 L 69.85636298182494,605.0072101010642 L 71.69367849131058,606.8445256105498 L 70.18023683597897,604.1997131053197 L 71.98661375646134,606.0060900258021 L 71.1176137913388,604.0057192107811 L 72.25890578669186,605.1470112061342 L 72.26905637198527,604.0257909415291 L 72.51835081865686,604.2750853882006" fill="none" stroke="#7df3be" stroke-width="0.1"/>
	<path d="M 91.93193323991856,554.5929870161725 L 92.79385975309515,555.4549135293491 L 92.38486346729931,553.9145463936549 L 93.59559134051541,555.125274266871 L 92.87222885582342,553.2705409322805 L 94.27459123787114,554.6729033143282 L 93.37993244381326,552.6468736703719 L 94.70452503896631,553.9714662655249 L 93.89424057272319,552.0298109493833 L 95.16299491787176,553.2985652945318 L 94.40157480876961,551.4057743355313 L 95.63615680391116,552.6403563306728 L 94.88830905137756,550.7611377282408 L 96.10475989517796,551.9775885720412 L 95.29950433792774,550.0409621648924 L 96.54703122024885,551.2884890472136 L 95.37509330886445,548.9851802859307 L 96.94275682044886,550.552843797515 L 95.89329185103296,548.3720079782007 L 97.27707222656704,549.7557883537348 L 96.4906764333342,547.8380217106035 L 97.54255076345689,548.8898960407262 L 97.50570052291529,547.7216749502861 L 97.73909451642132,547.9550689437922" fill="none" stroke="#440ae0" stroke-width="0.1"/>
	<path d="M 81.0,581.2 L 81.0,581.2 L 81.00766636472024,580.0762955148218 L 82.12796660961547,581.196595759717 L 82.0627416997969,580.0 L 82.19638556437637,580.1336438645794" fill="none" stroke="#23eecd" stroke-width="0.1"/>
	<path d="M 593.4811930532351,549.9894066215285 L 594.639400196379,551.1476137646722 L 594.0220448620946,549.3988875804894 L 595.1645947913048,550.5414375096997 L 594.5794714579696,548.824943326466 L 595.7692557587912,550.0147276272876 L 595.2755972762346,548.3896982948327 L 596.3429494907011,549.4570505092989 L 596.0812113575007,548.0639415262003 L 596.8832348703311,548.8659650390306 L 596.8574666034975,547.7088259222987 L 597.0000000000001,547.8513593188014" fill="none" stroke="#551714" stroke-width="0.1"/>
	<path d="M 590.9999999999999,576.3895832764082 L 592.1503671114026,577.539950387811 L 591.0671770853547,575.3253895118647 L 592.6840851220833,576.9422975485933 L 591.6324215253917,574.7592631020033 L 593.1278140039132,576.2546555805249 L 592.1391536355748,574.1346243622879 L 593.6989833040468,575.6944540307601 L 593.135900123185,574.0 L 594.3591075566098,575.2232074334245 L 594.2672709730837,574.0 L 594.6,574.3327290269164" fill="none" stroke="#109ecf" stroke-width="0.1"/>
	<path d="M 73.87338937861063,635.2056970579056 L 73.87338937861064,635.2056970579056 L 74.24739244077347,634.44832927017 L 74.96685295445911,635.1677897838556 L 74.95710356097028,634.0266695404683 L 75.00782730787232,634.0773932873703" fill="none" stroke="#2a98a0" stroke-width="0.1"/>
	<path d="M 213.03875960956685,68.95937056457001 L 214.55979634833227,70.48040730333544 L 214.0107598948953,68.79999999999998 L 214.93691996496509,69.72616007006978 L 215.14213074479386,68.8 L 215.30020599153002,68.9580752467362" fill="none" stroke="#d1b71f" stroke-width="0.1"/>
	<path d="M 87.57675805670675,272.8232419432932 L 88.19999999999999,273.44648388658646" fill="none" stroke="#1c2c34" stroke-width="0.1"/>
	<path d="M 106.2994112549695,538.0 L 106.2994112549695,538.0 L 106.23078210486788,536.8 L 107.43078210486794,538.0 L 107.41586841668627,536.8537154619198 L 108.53966737335641,537.97751441859" fill="none" stroke="#ff4f75" stroke-width="0.1"/>
	<path d="M 351.57277596171605,355.62722403828406 L 352.2,356.254448076568" fill="none" stroke="#173b85" stroke-width="0.1"/>
	<path d="M 368.43475861130486,346.04571040247055 L 370.34134856878933,347.95230035995496 L 368.6440722961511,345.1236532374182 L 371.0454717770595,347.5250527183266 L 370.4573131195574,345.805523210926 L 371.7495949853297,347.09780507669825 L 372.2705539429639,346.4873931844339 L 372.4537181935998,346.67055743506995" fill="none" stroke="#4ca8d5" stroke-width="0.1"/>
	<path d="M 383.4,409.64652520090885 L 384.5534747990912,410.8 L 383.46719236224607,408.5823467132564 L 385.68484564898966,410.80000000000007 L 384.43694772637093,408.4207312274827 L 386.8162164988882,410.8 L 386.02138102318014,408.87379367439337 L 387.94758734878667,410.8 L 387.71843729802777,409.4394790993426 L 388.2,409.9210418013148" fill="none" stroke="#3785d9" stroke-width="0.1"/>
	<path d="M 315.7387760049738,609.5743019923897 L 315.9631485697509,609.7986745571668 L 316.4592082027055,609.163363340223 L 316.9053844751374,609.6095396126549 L 317.1796404004373,608.7524246880562 L 317.847620380524,609.420404668143 L 317.9000725981689,608.3414860358894 L 318.7898562859106,609.2312697236312 L 318.6205047959006,607.9305473837226 L 319.73209219129717,609.0421347791191 L 319.3409369936324,607.5196087315559 L 320.5875458905809,608.7662176285044 L 320.06136919136407,607.108670079389 L 321.0861743806577,608.1334752686827 L 320.78180138909573,606.6977314272223 L 321.5848028707345,607.5007329088611 L 321.50223358682746,606.2867927750555 L 322.0834313608114,606.8679905490394 L 322.2226657845592,605.8758541228888 L 322.58205985088824,606.2352481892177 L 322.9430979822909,605.464915470722 L 323.07219266809125,605.5940101565222" fill="none" stroke="#3ffbef" stroke-width="0.1"/>
	<path d="M 276.2024408093671,753.5829676997496 L 277.0048816187342,754.3854085091166 L 276.9593215874417,753.2084776279255 L 278.5186431748834,754.7677992153673 L 277.71620236551627,752.8339875561016 L 280.03240473103244,755.1501899216179 L 278.4730831435907,752.4594974842777 L 280.19,754.1764143406868 L 279.2299639216653,752.0850074124537 L 280.19000000000005,753.0450434907884 L 280.09895924501666,751.8226318859066 L 280.19,751.9136726408899" fill="none" stroke="#4ad4ec" stroke-width="0.1"/>
	<path d="M 210.7411264314163,364.9931297167745 L 210.7411264314163,364.9931297167745 L 210.41622414236858,363.5368565778283 L 212.26022353913464,365.3808559745944 L 210.87054464241075,362.8598062279719 L 212.9414648751474,364.9307264607086 L 211.65817259508867,362.51606333075136 L 213.28832975794546,364.14622049360815" fill="none" stroke="#9da109" stroke-width="0.1"/>
	<path d="M 0.0,0.0 L 612.0,0.0" fill="none" stroke="#79c605" stroke-width="0.1"/>
	<path d="M 612.0,0.0 L 612.0,792.0" fill="none" stroke="#f95348" stroke-width="0.1"/>
	<path d="M 612.0,792.0 L 0.0,792.0" fill="none" stroke="#c235ff" stroke-width="0.1"/>
	<path d="M 0.0,792.0 L 0.0,0.0" fill="none" stroke="#984e79" stroke-width="0.1"/>
</svg>
