<?xml version="1.0" ?>
<svg xmlns="http://www.w3.org/2000/svg" xmlns:ev="http://www.w3.org/2001/xml-events" xmlns:xlink="http://www.w3.org/1999/xlink" baseProfile="full" data-name="b1" height="792" id="a" version="1.1" viewBox="0 0 612 792" width="612">
	<defs/>
	<path d="M 279.00021760567574,210.34917154420992 L 279.00021760567574,210.34917154420992 L 278.99991255978887,209.21749564842455 L 280.14543224803356,210.36301533666924" fill="none" stroke="#e557d7" stroke-width="0.1"/>
	<path d="M 399.01899796131414,217.65913897794624 L 401.3150581368832,219.9551991535153 L 400.1283993604067,217.6371695271402 L 401.41666851715775,218.92543868389117" fill="none" stroke="#d55e34" stroke-width="0.1"/>
	<path d="M 136.8125405648752,142.58745943512483 L 137.6638748678807,143.43879373813033 L 137.37822598982444,142.02177401017556 L 138.5466060600521,143.19015408040323" fill="none" stroke="#0bef84" stroke-width="0.1"/>
	<path d="M 430.25826702633026,246.49028334696203 L 432.5679836793682,248.8 L 431.27910086524093,246.37974633597418 L 432.54541175079754,247.64605722153092" fill="none" stroke="#dd3a48" stroke-width="0.1"/>
	<path d="M 241.6950466140679,205.4950466140679 L 241.59009322813577,205.39009322813575 L 241.48513984220367,205.28513984220365 L 241.38018645627156,205.18018645627154 L 241.27523307033943,205.0752330703394 L 241.17027968440732,204.9702796844073 L 241.0653262984752,204.8653262984752 L 240.96037291254308,204.76037291254306 L 240.85541952661097,204.65541952661096 L 240.75046614067887,204.55046614067885 L 240.64551275474673,204.44551275474672 L 240.6098811371845,204.41794174746258 L 240.62176860329157,204.47705861037036 L 240.63041182337565,204.56558460530943 L 240.6403165072032,204.67694500058855 L 240.65598836454072,204.8045650645164 L 240.6819331051547,204.94187006540173 L 240.7226564388117,205.08228527155327 L 240.78266407527815,205.2192359512797 L 240.86646172432057,205.3461473728898 L 240.97855509570547,205.4564448046922 L 241.12344989919936,205.54355351499572 L 241.30565184456873,205.60089877210902 L 241.5296666415801,205.62190584434086 L 241.79999999999993,205.59999999999994 L 241.8,205.6 L 241.6950466140679,205.4950466140679" fill="none" stroke="#6e1083" stroke-width="0.1"/>
	<path d="M 453.00831751099804,125.09723343200832 L 453.00831751099804,125.09723343200832 L 453.0437970556442,124.00134212675593 L 454.24190490944954,125.19944998056125 L 454.1738257787867,123.99999999999999 L 455.30778313583886,125.13395735705224 L 455.29845533539304,123.99325870670793 L 455.42695166672195,124.12175503803678" fill="none" stroke="#d694a7" stroke-width="0.1"/>
	<path d="M 170.3200995171661,109.33788543603168 L 171.75524862209699,110.77303454096254 L 170.81043892135918,108.69685399032625 L 172.49178863304422,110.37820370201129 L 171.64495578093144,108.40000000000002 L 172.5215167123262,109.27656093139476" fill="none" stroke="#c97e5b" stroke-width="0.1"/>
	<path d="M 343.8167207321841,192.39164768482792 L 343.8167207321841,192.39164768482792 L 344.5709625981698,192.01451870091512 L 344.96455794748897,192.4081140502343" fill="none" stroke="#9b44a3" stroke-width="0.1"/>
	<path d="M 471.06375756152596,132.53238671162742 L 473.2853025972283,134.75393174732977 L 472.0305320472059,132.36779034740889 L 473.44036316342704,133.77762146363014" fill="none" stroke="#1cc406" stroke-width="0.1"/>
	<path d="M 477.1815785634751,143.40585592988361 L 478.28453653500924,144.50881390141774 L 478.0975400727852,143.19044658929525 L 480.5677466638309,145.66065318034097 L 479.34833754500795,143.30987321161953 L 482.8434161443591,146.8049518109706 L 481.63376736483013,144.46393218154319 L 483.97313082547106,146.8032956421841 L 483.8595132676188,145.55830723443344 L 484.0083752587282,145.70716922554286" fill="none" stroke="#137322" stroke-width="0.1"/>
	<path d="M 209.383816235416,74.85244538551756 L 210.5313708498984,76.0 L 210.4627416997969,74.79999999999998 L 210.6,74.93725830020311" fill="none" stroke="#bed272" stroke-width="0.1"/>
	<path d="M 135.02149699234656,149.07454166255653 L 135.02149699234656,149.07454166255653 L 135.05531207445983,147.97698589477133 L 136.2777892058213,149.19946302613283 L 135.7950280527521,147.58533102316505 L 137.34139211483736,149.13169508525033 L 136.36131264208663,147.02024476260115 L 137.94961040463838,148.6085425251529 L 136.82992493811474,146.35748620873073 L 138.5346160522544,148.06217732287038 L 137.34626301216326,145.74245343288078 L 139.07970656454182,147.4758969852593 L 138.36825715592383,145.63307672674281 L 139.6639613843005,146.92878095511952" fill="none" stroke="#8e7fee" stroke-width="0.1"/>
	<path d="M 346.27112850326387,73.67580488638248 L 348.5951700214403,75.99984640455892 L 347.31824261135745,73.59154814457766 L 348.98558391925917,75.25888945247928 L 348.4644363914149,73.60637107473653 L 349.71278798860476,74.85472267192642 L 349.157993977857,73.16855781128018 L 350.76223721802387,74.77280105144702 L 349.6787586207638,72.55795160428845 L 351.2240853094995,74.10327829302418 L 350.65466028223886,72.40248241586498 L 351.8230516300771,73.57087376370328 L 351.8244346811425,72.44088596487022 L 352.2,72.81645128372759" fill="none" stroke="#278fc8" stroke-width="0.1"/>
	<path d="M 443.40000000000003,259.5152007732807 L 443.40000000000015,259.51520077328075 L 443.38359000679606,258.3674199301782 L 444.61458323497965,259.59841315836184 L 443.4494200425444,257.30187911602815 L 445.73198655490773,259.5844456283914 L 444.4789117764149,257.20000000000005 L 446.3917066361177,259.1127948597028 L 445.6516732825017,257.24139065618834 L 445.8665169385737,257.4562343122604" fill="none" stroke="#3f2d96" stroke-width="0.1"/>
	<path d="M 387.98421798971606,209.06782104549436 L 387.9842179897164,209.0678210454948 L 387.2793503365828,207.23158254246272 L 388.8690131871801,208.82124539306 L 388.7376215256898,207.5584828816712 L 389.3263117429739,208.1471730989553" fill="none" stroke="#4c2c88" stroke-width="0.1"/>
	<path d="M 148.20000000000002,439.4688886652277 L 149.3878027818325,440.6566914470602 L 148.28475803892445,438.42227585425366 L 149.42359838603505,439.5611162013642 L 148.8921797246796,437.8983266901103 L 149.86135631744665,438.86750328287735 L 149.35758122954852,437.23235734508074 L 150.44541484767527,438.3201909632075 L 149.4630635056653,436.206468771299 L 150.6,437.3434052656337 L 150.3719080969124,435.9839425126476 L 150.57813882364212,436.1901732393774" fill="none" stroke="#a83ef7" stroke-width="0.1"/>
	<path d="M 345.32738587005707,194.6154064064511 L 345.3273858700572,194.61540640645123 L 345.34019871218493,193.49684839868047 L 346.4441419174531,194.60079160394866 L 346.07872947757255,193.1040083141696 L 347.0125617473632,194.03784058396025 L 346.7877888972863,192.68169688398478 L 347.4397199189189,193.3336279056175" fill="none" stroke="#e651a1" stroke-width="0.1"/>
	<path d="M 364.20842248120204,194.52215758826142 L 365.30092328466793,195.61465839172746 L 364.38900873878674,193.57137299594777 L 366.014746377371,195.197110634532 L 365.09308497974916,193.14407838701158 L 366.6231976152092,194.67419102247172 L 365.86050738980936,192.78012994717335 L 367.02153787089856,193.9411604282627 L 366.6728941797515,192.46114588721704 L 367.44071688750574,193.22896859497126" fill="none" stroke="#57ac53" stroke-width="0.1"/>
	<path d="M 349.8,188.86808344966798 L 351.00560855300216,190.07369200267004 L 350.5551512330034,188.49186383277288 L 352.0769089430281,190.01362154279752 L 351.502269594683,188.30761134455392 L 352.19979714634405,189.00513889621502" fill="none" stroke="#42d309" stroke-width="0.1"/>
	<path d="M 259.14236668631025,197.65792342187228 L 259.14236668631054,197.65792342187262 L 259.5457109475332,196.9298968331968 L 260.81386629695584,198.19805218261948 L 260.33144613574996,196.5842611715152 L 262.03419064643026,198.28700568219546 L 261.17718736848286,196.2986315543495 L 262.21565137743613,197.3370955633028 L 262.05183735994154,196.0419106959097 L 262.19311138208025,196.18318471804832" fill="none" stroke="#71c864" stroke-width="0.1"/>
	<path d="M 481.6185194130004,141.81470342013824 L 481.6185194130008,141.81470342013867 L 480.605290913507,139.67010407074628 L 482.8801317274976,141.9449448847368 L 481.62894237521925,139.5623846825601 L 483.03304140996244,140.96648371730322" fill="none" stroke="#203ad8" stroke-width="0.1"/>
	<path d="M 217.84095519550775,71.27815852869074 L 218.96096883844868,72.39817217163167 L 218.8941675167155,71.2 L 220.08891930613063,72.39475178941515 L 220.04362677003832,71.21808840342432 L 220.2,71.37446163338599" fill="none" stroke="#a1f9e8" stroke-width="0.1"/>
	<path d="M 287.4,66.3999999999999 L 287.4,66.4 L 287.4894284365604,65.358057586662 L 288.546588581762,66.41521773186365 L 288.4582163740675,65.19547467427053 L 290.85642087363516,67.5936791738382 L 289.5901839503685,65.19607140067296 L 291.33930824896896,66.9451956992735 L 290.72294401202896,65.19746061243501 L 291.4531909350101,65.92770753541616" fill="none" stroke="#574ba2" stroke-width="0.1"/>
	<path d="M 356.93720557586175,71.00801796354722 L 356.9372055758618,71.00801796354725 L 355.8772209870692,68.81666252485627 L 358.17342132073054,71.11286285851757 L 356.9921884836078,68.80025917149624 L 358.7282399984677,70.53631068635616 L 358.12536424851567,68.80206408650567 L 359.0826821009663,69.75938193895625 L 359.26922556186236,68.81455454995385 L 359.355630256056,68.90095924414746" fill="none" stroke="#b14d3b" stroke-width="0.1"/>
	<path d="M 524.0628280588281,192.68176933320763 L 524.0628280588292,192.68176933320865 L 524.9336944887473,192.42126491322833 L 525.0,192.48757042448105" fill="none" stroke="#da41e3" stroke-width="0.1"/>
	<path d="M 520.3000825320997,194.79999999999941 L 520.3000825321002,194.8 L 520.2449022315216,193.613448849523 L 521.4411780846337,194.80972470263518 L 521.362935199221,193.6001109673241 L 522.5272001296281,194.76437589773113" fill="none" stroke="#a54053" stroke-width="0.1"/>
	<path d="M 518.9999999999999,198.39999999999998 L 519.0,198.4 L 519.0557553833595,197.3243845334611 L 521.3217746258169,199.5904037759186 L 520.1179593822831,197.25521768248623 L 520.2547971315491,197.3920554317524" fill="none" stroke="#8091d7" stroke-width="0.1"/>
	<path d="M 162.61419316507087,114.28993605164965 L 162.61419316507087,114.28993605164965 L 162.66949394718327,113.21386598386354 L 163.85485080500462,114.3992228416849 L 163.78699881321816,113.2 L 164.9766892783833,114.38969046516509 L 164.91836966311666,113.20000000000002 L 164.98692045580623,113.26855079268951" fill="none" stroke="#46bfc9" stroke-width="0.1"/>
	<path d="M 353.4084839355999,358.03801724220307 L 354.5608413968681,359.1903747034712 L 354.45075383983493,357.94891629653955 L 354.6,358.09816245670453" fill="none" stroke="#d6761c" stroke-width="0.1"/>
	<path d="M 319.8,516.1117497600505 L 319.8,516.1117497600505 L 319.9706347956639,515.1510137058159 L 321.1357374351169,516.3161163452688 L 320.49082477513457,514.5398328353881 L 321.8349843855692,515.8839924458227 L 321.0506037536315,513.9682409639865 L 322.50924285957825,515.4268800699333 L 321.6072086614783,513.3934750219348 L 323.16556894641786,514.9518353068743 L 322.24088404406643,512.8957795546244 L 323.80417303001985,514.4590685405778 L 323.3071098280243,512.8306344886838 L 324.4254874103427,513.9490120710021 L 324.37453294671207,512.7666867574732 L 325.0293085822381,513.4214623929992 L 325.1428327834593,512.4036157443219 L 325.61997190832807,512.8807548691906 L 325.6784168967871,511.80782900775114 L 326.19962720872707,512.3290393196911 L 326.60215383616173,511.6001950972273 L 326.7786274612186,511.7766687222842" fill="none" stroke="#0cc07a" stroke-width="0.1"/>
	<path d="M 330.6,356.8686291501015 L 331.73137084989855,358.0 L 331.662741699797,356.8 L 331.8265347048126,356.96379300501553" fill="none" stroke="#22471d" stroke-width="0.1"/>
	<path d="M 372.70926989838625,415.65002268177966 L 373.8229257182732,416.7636785016667 L 373.2738068928284,415.08318882632335 L 374.39945872679147,416.2088406602863 L 373.75827590176584,414.4362869853622 L 374.96633886581475,415.6443499494111 L 374.4755854547314,414.02222568842933 L 375.51793869651345,415.0645789302114 L 375.2611924566862,413.6764618404858 L 376.11539162043647,414.5306610042359 L 376.0194023103513,413.30330084425225 L 376.19563614978694,413.4795346836879" fill="none" stroke="#3e8adc" stroke-width="0.1"/>
	<path d="M 354.67393968105,355.62183997027114 L 355.8027944752387,356.7506947644598 L 355.4186469410479,355.2351763803705 L 356.02757685684077,355.84410629616343 L 356.1280938883095,354.81325247773367 L 356.90933270174133,355.5944912911655 L 356.88391818636075,354.43770592588635 L 356.95496133100477,354.5087490705304" fill="none" stroke="#af877c" stroke-width="0.1"/>
	<path d="M 360.6,347.0622105941742 L 361.8672433845054,348.3294539786795 L 360.7281180383269,346.0589577826025 L 362.4094566563029,347.74029640057864 L 361.80030953763804,345.99977843201526 L 362.9887247847212,347.1881936790984 L 362.45660653761394,345.52470458209274 L 363.5659509777606,346.6340490222393 L 363.013166163304,344.9498933578842 L 364.11025048954616,346.0469776841264" fill="none" stroke="#ce1f98" stroke-width="0.1"/>
	<path d="M 387.00211111613476,415.63488426840945 L 388.13332768711416,416.7661008393888 L 388.0971604957738,415.59856279815 L 388.2489704203238,415.75037272270004" fill="none" stroke="#fdb1c6" stroke-width="0.1"/>
	<path d="M 381.0,417.7781346341578 L 381.0,417.7781346341578 L 380.99999999999994,416.64676378425924 L 382.1686857900543,417.8154495743137 L 381.0,415.5153929343608 L 382.2157034341164,416.73109636847727 L 381.16595118554795,414.5499732700103 L 382.5758203550095,415.95984243947197 L 382.0945223217421,414.347173556306 L 383.0708802845438,415.3235315191076" fill="none" stroke="#9b6127" stroke-width="0.1"/>
	<path d="M 279.3743430002614,575.6429721503629 L 280.1237034214586,576.3923325715601 L 279.8065929343656,574.9438512345686 L 281.1858091835764,576.3230674837794 L 280.36980280518367,574.375690255488 L 282.33584150312385,576.3417289534284" fill="none" stroke="#209d12" stroke-width="0.1"/>
	<path d="M 197.4327422498312,426.40760828994524 L 197.43274224983116,426.40760828994524 L 197.4,425.24349519021564 L 198.51229775871863,426.3557929489342 L 197.4,424.1121243403171 L 198.94219541432295,425.65431975464 L 198.43719160104177,424.01794509146043 L 199.3422290652568,424.9229825556754 L 199.57221017480705,424.02159281532715 L 199.72326016452786,424.172642805048" fill="none" stroke="#f6c4aa" stroke-width="0.1"/>
	<path d="M 202.10445827134706,422.608916542694 L 202.10445827134708,422.6089165426941 L 201.04739282095898,420.42048024240745 L 203.34965119456007,422.7227386160086 L 202.15985821637537,420.40157478792537 L 203.7436757037202,421.9853922752702 L 203.28920036847398,420.3995460901255 L 204.1796761531643,421.29002187481586 L 204.4444189290819,420.4233938008349 L 204.55494698996634,420.53392186171936" fill="none" stroke="#909935" stroke-width="0.1"/>
	<path d="M 242.33044253810934,390.9062679127874 L 244.19780754020772,392.77363291488575 L 242.96988524701365,390.41433977179327 L 242.98665600089538,390.431110525675" fill="none" stroke="#88752c" stroke-width="0.1"/>
	<path d="M 208.28268125199915,423.8683112234401 L 208.28268125199926,423.86831122344023 L 208.73308335380702,423.18734247534957 L 209.4685364205362,423.92279554207875 L 209.19668674426987,422.51957501591386 L 210.00776216554146,423.3306504371855 L 209.66209549508562,421.85361291683114 L 210.60532207026068,422.7968394920062 L 210.1180801268374,421.17822669868445 L 211.15321335028904,422.2133599221361 L 210.55249376506384,420.48126948701236 L 211.67626694484878,421.60504266679726 L 211.65535920850496,420.45276408055497 L 211.8,420.59740487205005" fill="none" stroke="#a95349" stroke-width="0.1"/>
	<path d="M 184.2017408267449,421.6621508439527 L 185.3061020204496,422.7665120376574 L 184.236565578188,420.5656047454973 L 185.84388661988055,422.17292578718985 L 184.91388269493345,420.11155101234425 L 186.469354695199,421.6670230126098 L 185.6269384488597,419.69323591637203 L 186.59338244864443,420.6596799161568 L 186.36335200782688,419.2982786254407 L 186.66407686305737,419.5990034806711" fill="none" stroke="#c6ec76" stroke-width="0.1"/>
	<path d="M 179.3856254767542,419.1454704061636 L 179.38562547675417,419.1454704061636 L 179.4395439043033,418.06801798381423 L 180.56118082664017,419.1896549061511 L 179.95645768183337,417.4535609114458 L 181.70737817920116,419.20448140881354 L 180.51819491670994,416.8839272964239 L 182.25164934497892,418.61738172469285 L 181.0998046477693,416.33416617758473 L 182.79859998422293,418.0329615140384 L 181.6611084092884,415.76409908920533 L 182.95779572988707,417.06078640980405 L 182.65993430312716,415.63155413314564 L 183.02658487929617,415.9982047093146" fill="none" stroke="#41efed" stroke-width="0.1"/>
	<path d="M 201.03558960024498,410.8 L 201.03558960024498,410.8 L 199.84012912264367,408.4731686725002 L 202.1669604501435,410.80000000000007" fill="none" stroke="#9a2f9d" stroke-width="0.1"/>
	<path d="M 217.85769441264992,414.31085106901236 L 219.13429520209283,415.5874518584553 L 218.34698249770906,413.668768304173 L 220.25254091122596,415.57432671768987 L 219.0152979451181,413.20571290168357 L 220.96247642432158,415.152891380887 L 219.8272951533479,412.88633926001484 L 221.6867688790274,414.74581298569444 L 220.7993430932375,412.727016350006 L 222.47973345137666,414.4074067081452 L 222.2539743804406,413.05027678731057 L 222.58654877034178,413.38285117721176" fill="none" stroke="#e34869" stroke-width="0.1"/>
	<path d="M 206.91211064450445,351.980739794606 L 206.97113243738568,352.0397615874872" fill="none" stroke="#104e1e" stroke-width="0.1"/>
	<path d="M 212.81097368339974,354.4 L 213.00000000000003,354.58902631660027" fill="none" stroke="#70bc45" stroke-width="0.1"/>
	<path d="M 576.1466711130963,586.8153002631976 L 576.5534970979712,587.2221262480724" fill="none" stroke="#658cac" stroke-width="0.1"/>
	<path d="M 556.3439457800317,527.1999999999997 L 556.343945780032,527.2 L 556.3322218457386,526.0569052158081 L 557.4753166299304,527.2 L 557.404194370202,525.9975068903733 L 558.6066874798288,527.2000000000002 L 558.5385456919079,526.0004873621809 L 559.7380583297271,527.2 L 559.7039837284158,526.0345545487903 L 559.8,526.1305708203744" fill="none" stroke="#4c399b" stroke-width="0.1"/>
	<path d="M 367.8028362331836,563.2130367560786 L 368.5413279060133,563.9515284289083 L 367.8307305914585,562.109560264455 L 369.2990615455358,563.5778912185324 L 368.852541176902,562.0 L 370.08396751174786,563.2314263348459" fill="none" stroke="#32e7a8" stroke-width="0.1"/>
	<path d="M 541.9150129687063,532.0257035800572 L 543.0976956441805,533.2083862555317 L 543.0211010836806,532.0004208451334 L 544.2235702020712,533.202889963524 L 544.1521167606186,532.0000656721729 L 545.3240948702177,533.172043781772 L 545.2832009150598,531.9997789767157 L 545.4013629104567,532.1179409721126" fill="none" stroke="#11e512" stroke-width="0.1"/>
	<path d="M 547.8432438925107,530.8173171257432 L 549.0259885360485,532.000061769281 L 548.9599061812353,530.8026085645694 L 550.1068384093371,531.9495407926712 L 550.1060184252068,530.8173499586425 L 550.1711258554385,530.8824573888741" fill="none" stroke="#b03a79" stroke-width="0.1"/>
	<path d="M 586.1996368278554,527.1536781106863 L 586.1996368278554,527.1536781106863 L 586.1969570775475,526.01962751048 L 587.3263477958353,527.1490182287679" fill="none" stroke="#d93d40" stroke-width="0.1"/>
	<path d="M 561.0,529.4455465144517 L 561.0,529.4455465144517 L 561.085359502594,528.3995351671474 L 562.2842733973181,529.5984490618714 L 562.2016601883653,528.3844650030201 L 563.3622304189996,529.5450352336544 L 562.9644395162661,528.0158734810226 L 563.8841926295705,528.935626594327 L 563.4425290879548,527.362592202813 L 564.5148421508865,528.4349052657446 L 564.4113077350403,527.2 L 565.5875123313325,528.3762045962923 L 565.5658623244498,527.2231837395111 L 565.7159345314234,527.3732559464847" fill="none" stroke="#1459a1" stroke-width="0.1"/>
	<path d="M 54.734437067048646,575.224852149578 L 54.734437067048646,575.224852149578 L 55.013651922456354,574.3726961550873 L 55.84242000293678,575.2014642355678 L 55.390775539089184,573.6184489218217 L 56.942273691194266,575.1699470739268 L 55.801485953345406,572.8977884861795 L 58.06832475861126,575.1646272914453 L 56.840118131081994,572.8050498140176 L 58.19840235934691,574.1633340422825 L 58.04814525615236,572.8817060891895 L 58.18351630499515,573.0170771380323" fill="none" stroke="#b43d9b" stroke-width="0.1"/>
	<path d="M 443.51093190248,551.1999999999999 L 443.51093190248,551.1999999999999 L 443.4,549.9576972476215 L 444.64230275237844,551.1999999999998 L 443.42102995711355,548.8473563548364 L 445.6647452069779,551.0910716047007 L 444.50504445217547,548.8 L 446.25601004886227,550.5509655966868 L 445.6397627319349,548.8033474298609 L 447.0191578443293,550.1827425422551 L 446.3170821854121,548.3492960334395 L 447.9779719737175,550.0101858217449 L 446.8632375411026,547.7640805392316 L 448.2,549.1008429981289 L 447.87729055289884,547.6467627011293 L 448.2,547.9694721482305" fill="none" stroke="#19d730" stroke-width="0.1"/>
	<path d="M 570.7178334236028,526.1805385483326 L 571.7305791395356,527.1932842642656 L 571.1598185646553,525.4911528394867 L 572.8760936822794,527.207427957111 L 571.7522487575112,524.9522121824444 L 574.01943466131,527.2193980862432 L 572.7314074249653,524.8000000000001 L 575.1338730086474,527.2024655836822 L 573.8744201469937,524.81164187213 L 575.8425967826604,526.7798185077968 L 575.0067112873985,524.8125621626367 L 576.3821508037769,526.1880016790149 L 576.1275794478731,524.8020594732127 L 577.3142237689578,525.9887037942974 L 577.2850211501867,524.8281303256279 L 578.4518088812118,525.994918056653 L 578.1803077895285,524.5920461150712 L 579.5823807339174,525.9941190594599 L 578.73330698021,524.0136744558542 L 580.4028647804605,525.6832322561048 L 579.3901937249718,523.5391903507177 L 580.9363501672684,525.0853467930143 L 580.5540676071886,523.5716933830358 L 581.7557335626087,524.7733593384562 L 581.7694141257332,523.6556690516824 L 582.9024528910193,524.7887078169683 L 582.847592928919,523.6024770049696 L 583.799999459992,524.5548835360427" fill="none" stroke="#411a58" stroke-width="0.1"/>
	<path d="M 11.475800537937783,613.6589571369749 L 13.736564954301269,615.9197215533384 L 11.974107125430676,613.0258928745693 L 14.193308815387084,615.2450945645257 L 12.555763943082976,612.4761788423231 L 14.380723831318917,614.301138730559 L 13.606307709219475,612.3953517585611 L 13.837975411549051,612.6270194608907" fill="none" stroke="#04d8c5" stroke-width="0.1"/>
	<path d="M 520.9303032035133,492.2298125882695 L 520.9303032035144,492.2298125882707 L 519.8318614651421,489.99999999999994 L 522.1992290109157,492.3673675457736 L 520.9632323150405,490.0 L 522.4608361778808,491.4976038628403 L 522.0946031649389,490.0 L 522.5697246930481,490.4751215281092" fill="none" stroke="#c3532d" stroke-width="0.1"/>
	<path d="M 83.45547924399631,564.4104068816844 L 84.39729676782201,565.35222440551 L 84.43765666518506,564.2612134529746 L 85.30351918987995,565.1270759776695" fill="none" stroke="#266042" stroke-width="0.1"/>
	<path d="M 79.01068764654211,566.0636545603513 L 80.36716056894322,567.4201274827525 L 79.05548012527026,564.977076189181 L 80.92382545389296,566.8454215178037 L 80.56681799417733,565.3570432081897 L 81.00000000000003,565.7902252140124" fill="none" stroke="#f688d3" stroke-width="0.1"/>
	<path d="M 8.988210352522394,614.7081832570957 L 8.988210352522394,614.7081832570957 L 9.03972667379506,613.6283287284699 L 10.169249626419223,614.757851681094 L 10.151777308219579,613.609008512996 L 10.208936119173734,613.6661673239502" fill="none" stroke="#604520" stroke-width="0.1"/>
	<path d="M 571.1239190266195,529.7521619467602 L 571.8134268438275,530.441669763968 L 571.5010426432525,528.9979147134947 L 572.8247777610469,530.3216498312888 L 572.0344987796562,528.4 L 573.9586601031773,530.3241613235209 L 573.1658696295548,528.4000000000001 L 575.2215798625846,530.4557102330299 L 574.2972404794531,528.4 L 576.5402300976567,530.6429896182036 L 575.4273885711305,528.3987772417788 L 577.7515355599812,530.7229242306295 L 576.5602828549138,528.4003006756637 L 578.2849850972592,530.125002918009 L 577.6673395448556,528.3759865157072 L 578.9228749329443,529.6315219037957 L 578.8254780842168,528.40275420517 L 580.0132757059022,529.5905518268554 L 580.0543248044825,528.5002300755373 L 581.1554275566675,529.6013328277223" fill="none" stroke="#07c638" stroke-width="0.1"/>
	<path d="M 9.000000000000005,620.7521841439388 L 9.000000000000005,620.7521841439388 L 9.000000000000037,619.6208132940404 L 10.17918670595965,620.8000000000001 L 10.121108276341873,619.6105507204837 L 11.283447104005692,620.7728895481475 L 11.251833454402801,619.6099050486462 L 11.364089177467529,619.722160771711" fill="none" stroke="#5cb124" stroke-width="0.1"/>
	<path d="M 591.0,560.6868401052574 L 591.0,560.6868401052574 L 591.226911822033,559.782381077392 L 591.9562678169999,560.5117370723589" fill="none" stroke="#a632f3" stroke-width="0.1"/>
	<path d="M 69.22849482890851,606.6423067850773 L 70.1912166794386,607.6050286356074 L 69.5289760514385,605.8114171577088 L 71.29298905850455,607.5754301647748 L 69.85648074196321,605.007550998335 L 71.69397481918129,606.8450450755531 L 70.18042875797853,604.2001281644519 L 71.98714092121831,606.0068403276916 L 71.11894665174158,604.0072752083164 L 72.25934943674959,605.1476779933245 L 72.26791776686898,604.0248754735454 L 72.51908873196116,604.2760464386375" fill="none" stroke="#2b0412" stroke-width="0.1"/>
	<path d="M 91.91082873319085,554.7310623424145 L 92.68790887750603,555.5081424867296 L 92.32013856034861,554.0090013196738 L 93.48388029500867,555.1727430543338 L 92.80381101240812,553.3613029218347 L 94.16048538002954,554.7179772894563 L 93.30939099852395,552.7355120580521 L 94.64518857828804,554.0713096378162 L 93.82325150816082,552.1180017177905 L 95.0995997237374,553.3943499333672 L 94.33196340540425,551.4953427651354 L 95.57142107571829,552.7348004354495 L 94.82203941337366,550.8540479232064 L 96.04283218359362,552.0748406934264 L 95.26666766440869,550.1673053243429 L 96.48879069145266,551.389428351387 L 95.35878843667348,549.1280552467093 L 96.88942906507611,550.6586958751119 L 95.80515385644759,548.4430498165849 L 97.23016497851002,549.8680609386473 L 96.42727127766605,547.9337963879049 L 97.5038056895489,549.0103307997878 L 97.22484573965963,547.6 L 97.71028605965078,548.0854403199912" fill="none" stroke="#52aa1a" stroke-width="0.1"/>
	<path d="M 81.00766950371339,580.076298653815 L 82.12753230586783,581.1961614559693 L 82.06274169979689,580.0 L 82.19693117824252,580.1341894784456" fill="none" stroke="#afda3c" stroke-width="0.1"/>
	<path d="M 593.4409649926365,549.9628139561971 L 594.5799988266505,551.1018477902112 L 594.0177204544377,549.4081985680998 L 595.1571961650922,550.5476742787542 L 594.5784949789255,548.837602242689 L 595.7674860770144,550.0265933407778 L 595.2686032969398,548.396339710805 L 596.3361317930675,549.4638682069325 L 596.0705514834938,548.0669170474606 L 596.8727966830866,548.8691622470534 L 596.8908011518846,547.7557958659531 L 596.9999999999999,547.8649947140683" fill="none" stroke="#0ed04d" stroke-width="0.1"/>
	<path d="M 591.0,576.3735737417535 L 592.1733915226068,577.5469652643603 L 591.0,575.2422028918552 L 592.690054267393,576.932257159248 L 591.6398042757818,574.7506363177383 L 593.1334649022178,576.2442969441746 L 592.1871840535257,574.1666452455839 L 593.7089670257112,575.6884282177695 L 593.1512829212577,573.9993732634174 L 594.4159113676019,575.2640017097617 L 594.2832805077387,574.0 L 594.5835995301876,574.300319022449" fill="none" stroke="#8be93e" stroke-width="0.1"/>
	<path d="M 74.21358664438493,634.4822157944865 L 74.91954705812421,635.1881762082257 L 74.92551218659864,634.0627704868017 L 75.01420428886408,634.1514625890671" fill="none" stroke="#f08054" stroke-width="0.1"/>
	<path d="M 213.94397377090831,70.9918886567195 L 213.9439737709093,70.99188865672046 L 213.00948391597552,68.92602795188823 L 214.5611519880291,70.47769602394177 L 214.01482681398574,68.8 L 214.93827560466192,69.72344879067609 L 215.1461976638843,68.79999999999998 L 215.31539922129474,68.96920155741047" fill="none" stroke="#bd6c31" stroke-width="0.1"/>
	<path d="M 87.57122174082801,272.828778259172 L 88.20000000000002,273.457556518344" fill="none" stroke="#90e222" stroke-width="0.1"/>
	<path d="M 106.2994112549695,538.0 L 106.2994112549695,538.0 L 106.23078210486788,536.8 L 107.43078210486794,538.0 L 107.41586841668627,536.8537154619198 L 108.53966737335641,537.97751441859" fill="none" stroke="#7465ee" stroke-width="0.1"/>
	<path d="M 351.022145263515,356.2110726317575 L 351.022145263515,356.2110726317575 L 351.57122174082804,355.628778259172 L 352.2,356.257556518344" fill="none" stroke="#6faf05" stroke-width="0.1"/>
	<path d="M 368.4314701214144,346.0411134518728 L 370.34367330417905,347.9533166346375 L 368.6450178980453,345.1232903786053 L 371.04731914078263,347.52559162134247 L 370.45879082233586,345.8056924529973 L 371.7509649773861,347.0978666080475 L 372.2725637466262,346.4880945273891 L 372.4546108139897,346.6701415947525" fill="none" stroke="#1ccf12" stroke-width="0.1"/>
	<path d="M 383.4,409.41178646085376 L 384.7882135391461,410.80000000000007 L 383.5195843890446,408.4 L 385.91958438904464,410.80000000000007 L 384.7108093411391,408.459854102196 L 387.05095523894306,410.8 L 386.37348913326247,408.99116304442083 L 388.06036118413596,410.6780350952944" fill="none" stroke="#589c19" stroke-width="0.1"/>
	<path d="M 315.7387395011307,609.5695551841123 L 315.9647715986441,609.7955872816258 L 316.45940605678703,609.1588508898702 L 316.90835449169674,609.6077993247799 L 317.1800726124434,608.7481465956281 L 317.85193738474936,609.420011367934 L 317.9007391680998,608.3374423013859 L 318.7955202778019,609.2322234110882 L 318.62140572375614,607.9267380071437 L 319.73910317085455,609.0444354542421 L 319.3420722794124,607.5160337129015 L 320.5940333779708,608.76799481146 L 320.06273883506884,607.1053294186595 L 321.09191904592706,608.1345096295178 L 320.7834053907252,606.6946251244174 L 321.5898047138833,607.5010244475754 L 321.50407194638154,606.2839208301752 L 322.08769038183954,606.8675392656332 L 322.2247385020378,605.873216535933 L 322.5855760497957,606.2340540836909 L 322.94540505769424,605.4625122416909 L 323.0749220665138,605.5920292505104" fill="none" stroke="#f45794" stroke-width="0.1"/>
	<path d="M 276.2576248544007,753.5583459168203 L 277.1139216970578,754.4146427594773 L 277.01403068996734,753.1833809024884 L 278.62821320073704,754.797563413258 L 277.770436525534,752.8084158881564 L 280.0123758163321,755.0503551789546 L 278.52684236110076,752.4334508738247 L 280.19200000000006,754.098608512724 L 279.28324819666744,752.058485859493 L 280.192,752.9672376628255 L 280.03965403223407,751.6835208451611 L 280.19200000000006,751.8358668129271" fill="none" stroke="#e69ebd" stroke-width="0.1"/>
	<path d="M 210.42005882659842,363.53210477779146 L 212.26494401683317,365.37698996802624 L 210.87406641792415,362.85474151921863 L 212.9464822054086,364.9271573067031 L 211.66113732351224,362.51044157490827 L 213.29432187264666,364.1436261240427" fill="none" stroke="#6a30fe" stroke-width="0.1"/>
	<path d="M 0.0,0.0 L 612.0,0.0" fill="none" stroke="#d7a55e" stroke-width="0.1"/>
	<path d="M 612.0,0.0 L 612.0,792.0" fill="none" stroke="#48f13b" stroke-width="0.1"/>
	<path d="M 612.0,792.0 L 0.0,792.0" fill="none" stroke="#bfa33e" stroke-width="0.1"/>
	<path d="M 0.0,792.0 L 0.0,0.0" fill="none" stroke="#95351a" stroke-width="0.1"/>
</svg>
