<?xml version="1.0" ?>
<svg xmlns="http://www.w3.org/2000/svg" xmlns:ev="http://www.w3.org/2001/xml-events" xmlns:xlink="http://www.w3.org/1999/xlink" baseProfile="full" data-name="b1" height="792" id="a" version="1.1" viewBox="0 0 612 792" width="612">
	<defs/>
	<path d="M 374.9192358019416,374.0483343819655 L 376.08983927042254,375.21893785044654 L 375.2048900809223,373.2026178110478 L 376.889383366119,374.8871110962445 L 375.92715882397783,372.7935157042048 L 377.51965498389666,374.38601186412365 L 376.7883513179588,372.5233373482872 L 377.8661074767734,373.6010935071019" fill="none" stroke="#4ea638" stroke-width="0.1"/>
	<path d="M 359.15936672942524,346.97289441243447 L 359.1593667294253,346.9728944124345 L 359.10462769662223,345.7867845297329 L 360.33256899351653,347.0147258266272 L 359.92785372692487,345.4786397101371 L 360.49455576695965,346.0453417501719" fill="none" stroke="#226f51" stroke-width="0.1"/>
	<path d="M 26.09563730412804,563.0442664542295 L 26.395478633621043,563.3441077837225" fill="none" stroke="#886710" stroke-width="0.1"/>
	<path d="M 415.8127513151995,307.45476803193617 L 416.86641660841127,308.50843332514796 L 416.5903209477783,307.10096681461647 L 417.5093359389394,308.0199818057776" fill="none" stroke="#aa3fff" stroke-width="0.1"/>
	<path d="M 362.7643405019701,373.02378243383555 L 363.91434483798025,374.1737867698457 L 363.05361996970294,372.18169105167004 L 364.432903148572,373.56097423053905 L 364.0320727280113,372.02877296007983 L 365.2277076995915,373.22440793166004" fill="none" stroke="#501a5d" stroke-width="0.1"/>
	<path d="M 349.42234385174663,353.7740389227521 L 349.42234385174663,353.7740389227521 L 349.66956637111923,352.8898905922262 L 350.8469998518763,354.06732407298324 L 350.2411125158442,352.3300658870526 L 351.48795956297926,353.57691293418776 L 350.8590661143011,351.8166486356111 L 352.1612221107575,353.1188046320675 L 351.470747772431,351.2969594438425 L 352.87816295634155,352.70437462775305 L 352.0700388692687,350.76487969078175 L 353.45384932630367,352.1486901478167 L 352.61799144655646,350.18146141817095 L 353.91409692678405,351.47756689839855 L 353.1288247298413,349.5609238515573 L 354.3601957020169,350.79229482373285 L 353.6223471195721,348.9230753913897 L 354.8007458828621,350.1014741546797 L 354.10242156371174,348.27177898563076 L 355.2365548391414,349.40591226106045 L 354.5849651698146,347.6229517418351 L 355.672976556423,348.7109631284435 L 355.07334576483845,346.9799614869606 L 356.11003337548976,348.0166490976117 L 355.5653966529945,346.340641525218 L 356.55182564233155,347.3270705145551 L 356.06683132950315,345.7107053518282 L 356.9983428970599,346.64221691938485 L 356.57552497967674,345.0880281521033 L 357.4540778737884,345.96658104621497 L 357.1010866197515,344.4822189422796 L 357.9190604592291,345.3001927817572 L 357.6384906161073,343.888252088737 L 358.40078459814913,344.65054607077866 L 358.1974261283746,343.3158167511057 L 358.8979918413322,344.0163824640633 L 358.7798386649648,342.7668584377974 L 359.42980210103786,343.41682187387056 L 359.3849510231498,342.24059994608393 L 360.0005025877994,342.8561515107335 L 360.0208735964605,341.74515166949607 L 360.6363529288194,342.36063100185504 L 360.6867677461504,341.2796749692875 L 361.34434150589914,341.93724872903624 L 361.3753014645638,340.83683783780236 L 362.0875311372259,341.5490675104645 L 362.0897483714308,340.41991389477084 L 362.8676561400978,341.19782166343794 L 362.82570628675467,340.0245009601963 L 363.65999812463303,340.85879279807466 L 363.57617935686,339.64360318040315 L 364.47330032221,340.54072414575313 L 364.3403096801922,339.2763626538369 L 365.2904603286569,340.22651330230156 L 365.11346496420316,338.9181470879493 L 366.1180784340755,339.9227605578216 L 365.8933198730909,338.5666311469386 L 366.9457527199102,339.6190639937579 L 366.6787231352573,338.22066355920657 L 367.7731639302116,339.3151043541607 L 367.46589990983824,337.8764694838889 L 368.5941276741985,339.00469724824916 L 368.25453737216105,337.5337360963132 L 369.4012218845907,338.6804206087428 L 369.0413491542248,337.1891770284784 L 370.1868761805628,338.3347040548164 L 369.68418623023325,336.7006432545885 L 370.9431063020618,337.95956332641697 L 370.27990173440145,336.16498790885817 L 371.677523216994,337.56260939145074 L 370.85471417643697,335.6084295009952 L 372.4067816066866,337.1604969312449 L 371.43060131440075,335.05294578906046 L 373.14094918703705,336.7632936616967 L 372.46135666854536,334.95233029330655 L 373.9167926914704,336.4077663162316 L 373.64891647111676,335.0085192459794 L 374.58236294342885,335.94196571829156" fill="none" stroke="#941576" stroke-width="0.1"/>
	<path d="M 340.21915930327907,320.0168518012546 L 341.37722456619275,321.17491706416826 L 340.25281620140964,318.9191378494866 L 341.57662686560394,320.24294851368074 L 340.39026178679836,317.92521258497686 L 341.75738144760186,319.2923322457803 L 340.63744840106517,317.04102834934514 L 341.93577812409904,318.33935807237896 L 340.946702153527,316.2189112519085 L 342.13370587341376,317.4059149717952 L 341.4507928296606,315.5916310781434 L 342.47560713351976,316.6164453820027 L 342.06469912999404,315.07416652857836 L 343.0266958894865,316.03616328807095 L 342.277280858395,314.1553774070809 L 343.5758629812103,315.4539595298962 L 342.2841416150456,313.03086731383297 L 343.673817769239,314.42054346802644 L 342.4273734592717,312.04272830816063 L 343.3570330603998,312.9723879092887 L 342.9526576233558,311.43664162234626 L 343.1310151536468,311.6149991526372" fill="none" stroke="#fbbe36" stroke-width="0.1"/>
	<path d="M 33.17914507583192,557.7240224899874 L 33.17914507583192,557.7240224899874 L 33.91073849813096,557.324245062388 L 34.3410760969267,557.7545826611837" fill="none" stroke="#d4fbb5" stroke-width="0.1"/>
	<path d="M 423.84000000000026,337.44 L 423.84000000000026,337.44 L 423.8218769518885,336.2905061019898 L 424.9607101683343,337.4293393184355 L 424.6419432214012,335.97920152160395 L 425.9772985205066,337.3145568207093" fill="none" stroke="#979de8" stroke-width="0.1"/>
	<path d="M 425.28,298.56 L 425.2800000000001,298.56 L 425.93239180734344,298.081020957445 L 426.568114946332,298.71674409643356 L 427.0769026124515,298.09416091265456 L 427.19811709191663,298.2153753921197" fill="none" stroke="#0df802" stroke-width="0.1"/>
	<path d="M 497.28,112.8 L 497.28000000000003,112.80000000000003 L 497.4524579085973,111.84108705869876 L 498.23999999999995,112.62862915010152" fill="none" stroke="#4daf91" stroke-width="0.1"/>
	<path d="M 138.2600557341071,93.52428619517801 L 138.2600557341071,93.52428619517801 L 138.59130787794643,92.72416748911881 L 139.2010067616832,93.3338663728556" fill="none" stroke="#290029" stroke-width="0.1"/>
	<path d="M 137.24598784900348,93.80174202219828 L 138.2360104533414,94.7917646265362 L 138.19708025757674,93.62146358087307 L 138.2320888699579,93.6564721932542" fill="none" stroke="#7b3f92" stroke-width="0.1"/>
	<path d="M 35.75276454439077,555.8386461672044 L 36.483195431525715,556.5690770543392" fill="none" stroke="#579f72" stroke-width="0.1"/>
	<path d="M 42.16797564871682,471.7487050098368 L 42.16797564871682,471.7487050098368 L 42.25706820192891,470.7064267131504 L 43.3736427124958,471.8230012237173 L 42.915211816308975,470.233199477632 L 43.84722832640689,471.16521598772994" fill="none" stroke="#3dd958" stroke-width="0.1"/>
	<path d="M 37.69193203786389,480.2118770856179 L 38.596673513022225,481.11661856077626 L 38.14016983035255,479.5287440282081 L 39.25704417966343,480.645618377519 L 38.76443411728172,479.0216374652388 L 39.857492723164206,480.11469607112133 L 39.4756274482361,478.6014599462947 L 40.43214028510157,479.5579727831602 L 39.90184361921111,477.89630526737125 L 40.98055948805238,478.97502113621255 L 40.222631767756624,477.0857225660183 L 41.4887699927944,478.3518607910561 L 40.57374934745656,476.30546929581976 L 41.942008044808716,477.67372799317195 L 40.992811224523535,475.5931603229883 L 42.30908046463863,476.9094295631034 L 41.572687433843726,475.04166568241 L 42.481746829265965,475.95072507783226" fill="none" stroke="#5c0d93" stroke-width="0.1"/>
	<path d="M 320.65707983861193,528.3064163583066 L 321.773469354657,529.4228058743516 L 321.3152281584259,527.833193828222 L 322.2470985272384,528.7650641970346" fill="none" stroke="#665fda" stroke-width="0.1"/>
	<path d="M 318.1679756487165,548.5487050098366 L 318.1679756487165,548.5487050098366 L 318.2570682019289,547.5064267131505 L 319.3736427124958,548.6230012237172 L 318.91521181630884,547.033199477632 L 319.8472283264069,547.9652159877301" fill="none" stroke="#f33a5c" stroke-width="0.1"/>
	<path d="M 262.5956235462993,547.9960789258831 L 262.5956235462994,547.9960789258832 L 262.1484006466005,546.4174851762858 L 264.36213163788244,548.6312161675678 L 264.0968994265838,547.2346131063706 L 265.3079136696258,548.4456273494126 L 265.14692527174674,547.153268101635 L 265.7594155570012,547.7657583868896" fill="none" stroke="#e2f0cc" stroke-width="0.1"/>
	<path d="M 444.9387074701929,309.82231744290686 L 445.93438523129373,310.8179952040077 L 445.8652811599817,309.61752028279716 L 446.45916114317305,310.2114002659885" fill="none" stroke="#dcd910" stroke-width="0.1"/>
	<path d="M 418.644890667373,308.1920101531388 L 418.64489066737326,308.19201015313905 L 418.09590446305896,306.5116530989263 L 420.26032018495897,308.6760688208263 L 418.9483277529687,306.23270553893747 L 421.24845131921234,308.53282910518107 L 420.09821196053423,306.2512188966046 L 421.49236714913627,307.6453740852067 L 421.30915862842926,306.33079471460104 L 421.4386020577287,306.46023814390054" fill="none" stroke="#b39bcc" stroke-width="0.1"/>
	<path d="M 422.87999999999994,297.5361216788466 L 422.87999999999994,297.5361216788466 L 423.11524917105186,296.64 L 424.07705715795584,297.60180798690396 L 424.2463212527162,296.63970123176586 L 424.8,297.19337997904967" fill="none" stroke="#7894ac" stroke-width="0.1"/>
	<path d="M 483.5573096822701,101.27544118831293 L 483.8301421762609,101.54827368230359" fill="none" stroke="#854259" stroke-width="0.1"/>
	<path d="M 559.6061176349255,228.5185950829417 L 559.6061176349258,228.51859508294214" fill="none" stroke="#24c23f" stroke-width="0.1"/>
	<path d="M 37.988198944927184,564.0 L 37.988198944927184,564.0 L 38.16071773780597,563.0411479429803 L 38.3857642132603,563.2661944184346" fill="none" stroke="#0afdaa" stroke-width="0.1"/>
	<path d="M 41.42339087756941,561.4824933514468 L 41.42339087756942,561.4824933514468 L 41.69625612087513,560.623987744854 L 42.6694171802274,561.5971488042063 L 43.021482833167504,560.8178436072479 L 43.0840279491916,560.8803887232721" fill="none" stroke="#742255" stroke-width="0.1"/>
	<path d="M 578.9085997392702,439.2319905299888 L 579.8343935262359,440.1577843169545 L 579.0609853577138,438.25300529853394 L 580.022883754768,439.2149036955882" fill="none" stroke="#91d83d" stroke-width="0.1"/>
	<path d="M 495.1439534651069,114.26202190630183 L 495.8428582178388,114.96092665903365" fill="none" stroke="#784fd3" stroke-width="0.1"/>
	<path d="M 462.7502012819597,88.80364706632963 L 462.7502012819597,88.80364706632965 L 462.9343295584349,87.85640449290638 L 463.8869726883299,88.80904762280133 L 464.0497428109924,87.84044689556538 L 464.62808132565965,88.41878541023269" fill="none" stroke="#84bb57" stroke-width="0.1"/>
	<path d="M 57.12000000000002,540.0 L 57.12000000000002,540.0 L 57.27835248586655,539.0269816359681 L 57.59999999999997,539.3486291501015" fill="none" stroke="#82cbae" stroke-width="0.1"/>
	<path d="M 465.872572173226,89.22605926223325 L 466.443130593223,89.79661768223022" fill="none" stroke="#463d54" stroke-width="0.1"/>
	<path d="M 211.68220702588843,27.332556771552092 L 211.68220702588843,27.332556771552092 L 212.3386411882059,26.857620083971078 L 212.63994806960181,27.158926965367" fill="none" stroke="#d18af5" stroke-width="0.1"/>
	<path d="M 501.1122405544534,115.14189551857719 L 501.1122405544536,115.14189551857736 L 501.3562806744115,114.25456478863696 L 502.0534513949225,114.95173550914785" fill="none" stroke="#2a3966" stroke-width="0.1"/>
	<path d="M 504.4817663560045,117.54126697002032 L 504.4817663560045,117.54126697002032 L 504.72306557883866,116.65119534295599 L 505.4183259256906,117.34645568980795" fill="none" stroke="#f94830" stroke-width="0.1"/>
	<path d="M 503.74690686256037,116.12341382725342 L 503.7469068625604,116.12341382725347" fill="none" stroke="#7c582a" stroke-width="0.1"/>
	<path d="M 502.45587121263605,125.00450036273755 L 503.0138137849983,125.56244293509974" fill="none" stroke="#2ea4b1" stroke-width="0.1"/>
	<path d="M 219.19741351942758,31.21409607605951 L 220.2039271112235,32.22060966785542" fill="none" stroke="#95d314" stroke-width="0.1"/>
	<path d="M 520.4910340368355,157.4396631869366 L 520.8000000000001,157.74862915010124" fill="none" stroke="#b29a26" stroke-width="0.1"/>
	<path d="M 520.3422018111693,152.62043337052071 L 520.3422018111694,152.62043337052094 L 520.7927267964817,151.93958750593487 L 520.8244675582953,151.97132826774848" fill="none" stroke="#941801" stroke-width="0.1"/>
	<path d="M 137.28826790844218,104.09573537109557 L 137.28826790844218,104.09573537109557 L 137.46554793397704,103.14164454673194 L 138.08719409824133,103.76329071099623 L 138.08866326771061,102.63338903056705 L 138.69110304696005,103.23582880981647 L 138.8357769790233,102.24913189198124 L 139.18372937181394,102.59708428477192" fill="none" stroke="#65d9b2" stroke-width="0.1"/>
	<path d="M 541.0784542697938,492.2026311708102 L 542.8060962268823,493.93027312789866 L 542.0254741399863,492.0182801911042 L 543.9374405635033,493.9302466146212 L 543.1564916038337,492.01792680505326 L 545.0614307981992,493.9228659994186 L 544.4139834984643,492.14404784978547 L 545.8732009460722,493.6032652973933 L 545.7865498530521,492.38524335447477 L 546.8437560474007,493.4424495488234" fill="none" stroke="#5863c5" stroke-width="0.1"/>
	<path d="M 8.93837935334076,579.8440964675502 L 10.577769117261647,581.4834862314711 L 10.082297885291226,579.8566441496023 L 11.240778312470415,581.0151245767814 L 11.137188060304508,579.780163474717 L 12.200019169870282,580.8429945842828" fill="none" stroke="#98aaf8" stroke-width="0.1"/>
	<path d="M 555.4403225037483,486.76573959370324 L 555.4403225037483,486.76573959370324 L 556.0661997627171,486.26024600277367 L 557.005425043021,487.1994712830774 L 557.2534340545251,486.31610944468315 L 558.1428753077997,487.2055506979578 L 558.3879386437857,486.3192431840454 L 559.2819832401781,487.2132877804377 L 559.4050006451585,486.2049343355197 L 560.4393596344611,487.2392933248223 L 560.297882749172,485.9664455896349 L 561.3448532685973,487.01341610906013" fill="none" stroke="#2428ac" stroke-width="0.1"/>
	<path d="M 59.51801390233496,418.92003286709405 L 59.51801390233496,418.92003286709405 L 59.52425280770588,417.7949009225665 L 60.47025140041611,418.74089951527674 L 59.66979671773039,416.80907398269255 L 60.371938093654975,417.5112153586171" fill="none" stroke="#176782" stroke-width="0.1"/>
	<path d="M 547.8833102063437,491.91205495435634 L 547.8833102063437,491.9120549543564 L 548.4530241319916,491.35039803010585 L 549.1515173368787,492.04889123499294 L 549.3426043141587,491.10860736237447 L 550.2110708609035,491.9770739091194 L 550.1514209950575,490.786053193375 L 551.3652925950915,491.999924793409 L 551.2803943063958,490.7836556548149 L 552.3721546230781,491.8754159714972" fill="none" stroke="#cb8771" stroke-width="0.1"/>
	<path d="M 517.9199999999998,155.95237958894984 L 517.92,155.95237958894987" fill="none" stroke="#e95530" stroke-width="0.1"/>
	<path d="M 518.9431634398975,156.53841853926477 L 518.9431634398975,156.53841853926477" fill="none" stroke="#c5feb0" stroke-width="0.1"/>
	<path d="M 543.9108401385207,244.79999999999984 L 543.9108401385207,244.80000000000004 L 544.1606948247332,243.91848383631415 L 545.0422109884189,244.79999999999998 L 545.0506944833722,243.67711264505456 L 546.0953315807607,244.72174974244322 L 545.4301674921902,242.92521480397414 L 545.9154977787786,243.41054509056264" fill="none" stroke="#854c22" stroke-width="0.1"/>
	<path d="M 54.66826617817125,408.2706466457586 L 54.66826617817125,408.2706466457586 L 54.4853025203466,406.95631213803546 L 55.37478756738759,407.84579718507644 L 54.65780215952637,405.9974409273168 L 55.70037540978223,407.04001417757263 L 54.734318654939074,404.94258657283103 L 55.83052143914684,406.03878935703875 L 55.555127051247425,404.6320241192409 L 55.70363501073578,404.7805320787292" fill="none" stroke="#f313a9" stroke-width="0.1"/>
	<path d="M 496.72804918809,118.4734432620861 L 496.72804918809027,118.47344326208628 L 495.9254336117355,116.53945683583319 L 497.8963497260297,118.51037295012736 L 496.4510273337717,115.93367970797078 L 498.3790746386168,117.86172701281606 L 497.3863982121337,115.73767973643439 L 498.6584087221628,117.00969024646356" fill="none" stroke="#4daa84" stroke-width="0.1"/>
	<path d="M 74.44896280508456,554.6581329660961 L 75.678117111536,555.8872872725475 L 75.52160546431396,554.599404775427 L 76.38393455753224,555.4617338686453" fill="none" stroke="#ddf9a5" stroke-width="0.1"/>
	<path d="M 452.69377707610215,224.75455997979125 L 454.7588015111743,226.81958441486344 L 453.8333005503909,224.76271260418142 L 455.0842365110694,226.01364856485986" fill="none" stroke="#ccdf66" stroke-width="0.1"/>
	<path d="M 277.36797564871654,164.54870500983648 L 277.3679756487444,164.5487050098643 L 277.45706820192896,163.5064267131505 L 278.5736427124957,164.62300122371735 L 278.11521181630894,163.033199477632 L 279.0472283264069,163.9652159877299" fill="none" stroke="#4ca8ef" stroke-width="0.1"/>
	<path d="M 265.6764023827681,169.38584405698222 L 265.67640238276823,169.38584405698236 L 265.37186921027086,167.9499400345864 L 266.64739457155537,169.22546539587103 L 265.74120920793166,167.1879091823488 L 267.14850679922665,168.5952067736438 L 266.43625938872924,166.75158851324787 L 267.54422958655994,167.85955871107856" fill="none" stroke="#4d87c5" stroke-width="0.1"/>
	<path d="M 482.883,366.2369999999999 L 482.883,366.23699999999997 L 482.79039827376704,365.01302742386855 L 483.79762777261396,366.0202569227155 L 482.9571096865168,364.0483679867198 L 484.3279480447601,365.419206344963 L 483.9793888321605,363.9392762824651 L 484.6245727757396,364.58446022604414" fill="none" stroke="#922559" stroke-width="0.1"/>
	<path d="M 535.5630526737096,471.63414554559307 L 535.5630526737096,471.6341455455931 L 535.4883514094647,470.4280734314498 L 536.4976032448136,471.43732526679855 L 536.0276906507821,469.8360418228687 L 536.8094171431663,470.617768315253 L 536.7185428825063,469.3955232046945 L 537.6987232458301,470.37570356801837 L 537.4970116281494,469.0426211004392 L 539.2956624845392,470.84127195682896 L 538.3502025482566,468.76444117064796 L 540.1604449557033,470.5746835780946 L 539.2707598156487,468.5536275881418 L 540.6915709115341,469.97443868402706 L 540.2640349877739,468.41553191036866 L 541.0688856802634,469.22038260285797" fill="none" stroke="#d5f759" stroke-width="0.1"/>
	<path d="M 580.8389405193492,535.8123542440782 L 582.315186300927,537.2886000256561 L 581.419490487537,535.2615333623677 L 583.1148394524299,536.9568823272606 L 582.1401821109165,534.8508541358487 L 583.8003135829229,536.5109856078552 L 582.9651895015751,534.5444906766089 L 584.3591142872776,535.9384154623115 L 583.921014250792,534.3689445759277 L 584.8088755810464,535.256805906182" fill="none" stroke="#324097" stroke-width="0.1"/>
	<path d="M 591.8960767042261,519.0288708003498 L 593.0408696622742,520.173663758398 L 592.1534766768226,518.1548999230482 L 593.3300234799145,519.3314467261399 L 592.6349300306956,517.5049824270227 L 593.6640754728976,518.5341278692246 L 593.0017782712333,516.7404598176621 L 593.9440639605197,517.6827455069482 L 593.2246032052418,515.831913901772 L 594.133126824568,516.7404375210981 L 593.2885371744171,514.7644770210487 L 594.1851264381804,515.6610662848124 L 593.248100059191,513.5926690559243 L 594.1560682817786,514.5006372785122 L 593.221420628222,512.4346187750571 L 594.2243349887463,513.4375331355812 L 593.3273613079539,511.40918860489023 L 594.4193934871921,512.5012207841287 L 593.6265652679027,510.57702171494066 L 594.7736590680172,511.7241155150555 L 594.086844587348,509.90593018448783 L 595.2720432410039,511.0911288381436 L 594.6450477395738,509.33276248681506 L 595.8316077029168,510.51932245015803 L 595.1803224967753,508.7366663941181 L 596.4309827241486,509.9873266214915 L 595.6984584881134,508.1234315355578 L 597.040832538321,509.46580558576545 L 596.1918831653022,507.48548536284846 L 597.6210261621616,508.9146283597076 L 596.7168327795547,506.87906412720247 L 598.1883055702951,508.3505369179428 L 597.3360994363563,506.3669599341055 L 598.6466866214371,507.67754711918633 L 598.0601910674095,505.9596807152603 L 599.0295122357093,506.92900188356003 L 598.885690325285,505.65380912323747 L 598.9894851725336,505.75760397048583" fill="none" stroke="#7dcb09" stroke-width="0.1"/>
	<path d="M 191.29215821044022,374.5712028813077 L 192.8014265397573,376.0804712106248 L 192.24780383262052,374.3954776535895 L 193.46658183213887,375.6142556531079" fill="none" stroke="#a3a2d5" stroke-width="0.1"/>
	<path d="M 188.578478368343,369.4947498817875 L 188.57847836834333,369.49474988178787 L 188.7837634254021,368.5686640889482 L 189.70793004442714,369.4928307079732 L 189.28158874303932,367.9351185566869 L 190.34459007383614,368.99811988748377 L 189.89472362054332,367.41688258429247 L 190.86081156570395,368.3829705294531 L 190.70918656988792,367.0999746837385 L 191.15835785292677,367.54914596677736" fill="none" stroke="#f582a6" stroke-width="0.1"/>
	<path d="M 214.57825425521676,382.98245080969576 L 214.57825425521676,382.98245080969576 L 214.581428776854,381.85425448143457 L 215.6250446857178,382.8978703902983 L 215.1894416636296,381.3308965183116 L 216.57038780403772,382.7118426587198 L 215.8371905182045,380.847274522988 L 217.2764549119278,382.2865389167113 L 216.66352768727432,380.54224084215934 L 217.45039630747772,381.3291094623628" fill="none" stroke="#42ae26" stroke-width="0.1"/>
	<path d="M 159.76833990551032,379.25127050901995 L 161.03087434563332,380.5138049491429 L 159.91407627621038,378.26563602982156 L 161.5794606480577,379.93102040166883 L 160.16590265021458,377.3860915539272 L 161.9185202175755,379.1387091212881 L 160.5066750455628,376.59549309937694 L 162.16395388932014,378.2527719431343 L 160.96313593442082,375.92058313833644 L 162.3289183677743,377.28636557168994 L 161.766099104646,375.5921754586631 L 162.3233157058922,376.14939205990936" fill="none" stroke="#cd6914" stroke-width="0.1"/>
	<path d="M 208.18547091252879,385.54028246005583 L 208.18547091252879,385.54028246005583 L 207.8869365156482,384.11037721327676 L 209.36828341875366,385.5917241163822 L 208.28044162288813,383.3725114706182 L 210.1378192794495,385.22988912717955 L 208.909635987224,382.87033498505554 L 210.53727480352936,384.497973801361 L 209.39122717948743,382.22055532742047 L 210.8511723708054,383.6805005187384 L 209.83430726985605,381.5322645678906 L 211.14072539397213,382.83868269200667 L 210.33850971093634,380.9050961590724 L 211.45285523741853,382.0194416855546 L 211.22463081357463,380.65984641181217 L 212.14584020359501,381.5810558018326 L 212.63814224059178,380.94198698893086 L 212.6612452526236,380.9650900009627" fill="none" stroke="#98d168" stroke-width="0.1"/>
	<path d="M 63.85706820192891,501.9064267131506 L 64.97364271249573,503.0230012237174 L 64.51521181630882,501.43319947763206 L 65.4472283264069,502.36521598773015" fill="none" stroke="#b22a03" stroke-width="0.1"/>
	<path d="M 58.30888781374992,503.5798592076395 L 60.12963311796918,505.4006045118588 L 58.744943271876714,502.88454381586786 L 60.55393214421776,504.69353268820885 L 59.56601721025215,502.5742469043448 L 60.59488525464548,503.60311494873815" fill="none" stroke="#06573d" stroke-width="0.1"/>
	<path d="M 38.69216028871596,518.2030854182309 L 40.08070345695512,519.5916285864702 L 38.75353911803244,517.133093397649 L 40.7326289535148,519.1121832331313 L 39.365922618344925,516.6141060480629 L 41.11599308261673,518.3641765123348" fill="none" stroke="#653737" stroke-width="0.1"/>
	<path d="M 143.22084476425343,439.0552646539835 L 144.477,440.3114198897301 L 143.65904608115338,438.3620951209849 L 144.477,439.1800490398316" fill="none" stroke="#2bb00b" stroke-width="0.1"/>
	<path d="M 257.5145687271586,327.8032090091188 L 257.51456872715863,327.80320900911886 L 257.1757413761968,326.3330108082586 L 258.29720843099767,327.45447786305954 L 257.414078994039,325.43997757620224 L 258.3717768223175,326.3976754044807" fill="none" stroke="#04490f" stroke-width="0.1"/>
	<path d="M 170.8875348716247,348.2697567922217 L 172.1835504542643,349.56577237486135 L 171.48686661625692,347.7377176869555 L 172.86652814771463,349.1173792184132 L 172.1689880698077,347.28846829060774 L 173.4356301897361,348.55511041053603 L 172.91075066611646,346.898860037018 L 174.11279477147886,348.1009041423804 L 173.68559941812612,346.54233793912914 L 175.11446462372712,347.9712031447301 L 174.48483671936827,346.2102043904728 L 175.42459663916424,347.1499643102688 L 175.30145006094517,345.89544688215125 L 176.1521794533489,346.746176274555 L 176.12990761483837,345.5925335861459 L 176.9218036915956,346.3844296629032 L 176.8373096889552,345.16856481036433 L 177.73275414536934,346.06400926677844 L 177.47534012740837,344.675224398919 L 178.60098123978665,345.8008655112973 L 178.10695870325935,344.1754721248715 L 179.39148877905248,345.46000220066463 L 178.75931085459624,343.6964534263099 L 179.95407750444323,344.8912200761569 L 179.54307293251208,343.34884465432725 L 180.70876428770987,344.51453600952505 L 180.54463850837908,343.21903938029567 L 181.42001557281472,344.09441644473134" fill="none" stroke="#b714d4" stroke-width="0.1"/>
	<path d="M 407.05707983861186,187.50641635830632 L 408.173469354657,188.62280587435154 L 407.71522815842593,187.0331938282219 L 408.64709852723837,187.96506419703442" fill="none" stroke="#238668" stroke-width="0.1"/>
	<path d="M 388.0700755014148,178.67243863242973 L 388.07007550141486,178.6724386324298 L 387.7671938187027,177.23818609981922 L 389.0307327538877,178.5017250350042 L 388.2365961592425,176.57621759046035 L 389.3760975727173,177.71571900393522" fill="none" stroke="#4eea60" stroke-width="0.1"/>
	<path d="M 343.6800000000002,164.6399999999999 L 343.6800000000002,164.6399999999999 L 342.5534397670277,162.38206891712895 L 344.3877336815925,164.2163628316937 L 343.50442347293045,162.20168177313317 L 345.09546736318475,163.7927256633875 L 345.68525929076253,163.25114674106672 L 345.8032010447771,163.3690884950813" fill="none" stroke="#652e0e" stroke-width="0.1"/>
	<path d="M 236.6816832157406,171.53579574362368 L 236.68168321574097,171.53579574362405 L 236.80327822916735,170.52601990715195 L 238.0160148201832,171.7387564981678 L 237.63475982007535,170.22613064816142 L 238.1067865506405,170.6981573787266" fill="none" stroke="#53fac4" stroke-width="0.1"/>
	<path d="M 233.65228761635728,544.928424116343 L 235.85903783778272,547.1351743377684 L 234.91797401712668,545.0627396672139 L 236.54959974040858,546.6943653904958" fill="none" stroke="#42a73a" stroke-width="0.1"/>
	<path d="M 330.418713107247,560.4363296481232 L 330.4187131072471,560.4363296481232 L 330.34769116090297,559.2339368518807 L 331.77078720578885,560.6570328967665 L 331.2453497679461,559.0002246090253 L 332.65976054661536,560.4146353876946 L 332.1883879247266,558.8118919159073 L 333.43247039820585,560.0559743893866 L 333.13142608150713,558.6235592227894 L 334.1114933145778,559.60362645586 L 334.07446423828765,558.4352265296714 L 334.6738374511392,559.0345997425229 L 335.0175023950683,558.2468938365535 L 335.0313145699465,558.2607060114317" fill="none" stroke="#a2aa85" stroke-width="0.1"/>
	<path d="M 457.44,86.72657630462834 L 457.44,86.72657630462835 L 457.50909698396055,85.66430243869038 L 458.6438156384372,86.7990210931671 L 457.81944455684066,84.8432791616721 L 459.38264182607827,86.40647643090962 L 459.575479477044,85.46794323197686 L 460.1081908347151,86.0006545896481" fill="none" stroke="#c05f2a" stroke-width="0.1"/>
	<path d="M 474.45912270130896,96.12579315320399 L 474.45912270130907,96.12579315320407 L 473.4102859373698,93.94558553936629 L 475.7496508729673,96.28495047496386 L 474.2114830261279,93.61541177822592 L 476.53946340339047,95.9433921554886" fill="none" stroke="#de0161" stroke-width="0.1"/>
	<path d="M 477.95998009055893,97.49937995221933 L 480.5915022336354,100.13090209529595 L 479.0543858936033,97.46241490536525 L 482.2386146938084,100.64664370557041 L 480.4980858471867,97.77474400905021 L 481.3959896195856,98.67264778144916" fill="none" stroke="#d80516" stroke-width="0.1"/>
	<path d="M 467.5124999048768,90.47000988967392 L 470.42046112750415,93.3779711123014 L 468.7382784723101,90.5644176072088 L 472.1393467078326,93.96548584273134 L 471.0729224270232,91.76769071202341 L 472.7705177967105,93.46528608171077" fill="none" stroke="#9a2fb2" stroke-width="0.1"/>
	<path d="M 368.6429999999999,567.8369999999999 L 368.643,567.837 L 368.6527595109561,566.7153886610577 L 369.76451874625036,567.827147896352 L 369.30189830731297,566.233156607516 L 370.2470997105311,567.1783580107341" fill="none" stroke="#dcc326" stroke-width="0.1"/>
	<path d="M 359.04299999999995,567.8369999999999 L 359.043,567.837 L 359.05275951095615,566.7153886610577 L 360.16451874625045,567.8271478963519 L 359.70189830731294,566.233156607516 L 360.6470997105311,567.1783580107341" fill="none" stroke="#ab84ab" stroke-width="0.1"/>
	<path d="M 489.9452480404492,583.7773153408488 L 491.9537193085836,585.7857866089831 L 490.7536253991964,583.4543218496975 L 492.9573129590181,585.6580094095191 L 492.44552800501486,584.0148536056174 L 493.36523347282116,584.9345590734238" fill="none" stroke="#361996" stroke-width="0.1"/>
	<path d="M 378.25706820192914,782.70642671315 L 379.3736427124962,783.823001223717 L 378.91521181630947,782.2331994776318 L 379.8472283264072,783.1652159877295" fill="none" stroke="#974c31" stroke-width="0.1"/>
	<path d="M 282.2527595109561,761.1153886610575 L 283.3645187462505,762.227147896352 L 282.90189830731293,760.633156607516 L 283.8470997105312,761.5783580107342" fill="none" stroke="#a447bc" stroke-width="0.1"/>
	<path d="M 419.05706820192887,753.9064267131505 L 420.17364271249556,755.0230012237172 L 419.7152118163089,753.433199477632 L 420.64722832640666,754.3652159877298" fill="none" stroke="#092103" stroke-width="0.1"/>
	<path d="M 349.45707983861195,753.9064163583065 L 350.573469354657,755.0228058743515 L 350.1152281584259,753.4331938282219 L 351.0470985272384,754.3650641970344" fill="none" stroke="#2f236f" stroke-width="0.1"/>
	<path d="M 344.65275951095606,749.1153886610575 L 345.7645187462505,750.227147896352 L 345.3018983073129,748.633156607516 L 346.24709971053113,749.5783580107341" fill="none" stroke="#e1bebe" stroke-width="0.1"/>
	<path d="M 315.8527595109563,739.5153886610577 L 316.9645187462505,740.627147896352 L 316.50189830731307,739.0331566075159 L 317.44709971053123,739.978358010734" fill="none" stroke="#7b406e" stroke-width="0.1"/>
	<path d="M 298.0822743574118,774.0649035075129 L 298.96036325610584,774.9429924062069 L 297.99924563921184,772.8505039394145 L 299.12106331118486,773.9723216113874 L 298.2624820708334,771.9823695211376 L 299.015886475363,772.7357739256671" fill="none" stroke="#e8b287" stroke-width="0.1"/>
	<path d="M 294.0197938609395,769.0309506910409 L 295.608049308959,770.6192061390603 L 294.4610266117389,768.3408125919418 L 296.2981874080582,770.1779733882612 L 295.10492870720367,767.8533438375081 L 296.78565616249193,769.5340712927963 L 296.0817028859129,767.6987471663188 L 296.94025283368137,768.5572971140873" fill="none" stroke="#2ea305" stroke-width="0.1"/>
	<path d="M 320.2999943770671,760.7676235271687 L 321.5366565481205,762.0042856982221 L 320.8657443075481,760.2020026077511 L 322.3267636276148,761.6630219278178 L 321.6589996908995,759.863887141204 L 323.0767203065729,761.2816077568774 L 322.61262388481566,759.6861404852217 L 323.7666327237675,760.8401493241735 L 323.7551567559017,759.6973025064092 L 324.3375738365857,760.2797195870933" fill="none" stroke="#ae4352" stroke-width="0.1"/>
	<path d="M 301.22710852072277,779.6127797134819 L 302.7975147442622,781.1831859370212 L 301.3476053756848,778.6019057185454 L 303.32310988580804,780.5774102286687 L 301.7193089857838,777.8422384787459 L 303.5790001917205,779.7019296846826 L 302.69219839381174,777.6837570368754 L 303.3357764523888,778.3273350954524" fill="none" stroke="#1d83b6" stroke-width="0.1"/>
	<path d="M 428.44599183571034,749.6052469071358 L 428.4459918357114,749.6052469071367 L 427.9786599171297,748.0065441386566 L 430.45237265487987,750.4802568764069 L 428.90739924502094,747.8039126166494 L 431.0715157783987,749.9680291500272 L 430.0156561561579,747.7807986778878 L 431.1030412115357,748.8681837332656" fill="none" stroke="#1d8d94" stroke-width="0.1"/>
	<path d="M 396.5196925701118,767.9383072836831 L 396.51969257011183,767.9383072836832 L 396.4277105319746,766.7149543956475 L 396.962128098005,767.2493719616779 L 396.56341311473346,765.7192861285079 L 397.4045636258983,766.5604366396727 L 396.7721877220438,764.7966898859197 L 397.8469991537916,765.8715013176675 L 397.0364276501773,763.9295589641547 L 398.2894348478173,765.1825661617947 L 397.3626652573133,763.1244257213923 L 398.7322095113925,764.4939699754714 L 397.7877278110969,762.4181174252773 L 398.9221196367416,763.5525092509221 L 398.61502491862876,762.1140436829106 L 398.8325580246256,762.3315767889076" fill="none" stroke="#a90593" stroke-width="0.1"/>
	<path d="M 296.6429999999999,779.997 L 296.6429999999999,779.997 L 296.82835309860644,779.0509822487079 L 297.8623309744246,780.0849601245261 L 297.3965469654684,778.4878052656715 L 299.00283907886075,780.0940973790638 L 298.0592136381067,778.0191010884113 L 300.09526082398594,780.0551482742904 L 298.80372684927823,777.6322434496843 L 300.53401373231975,779.3625303327258 L 299.7042980505503,777.4014438010578 L 300.53249833626023,778.2296440867677" fill="none" stroke="#ef160e" stroke-width="0.1"/>
	<path d="M 259.6536894960053,764.4866407191568 L 259.6536894960058,764.4866407191573 L 259.5919991197998,763.2935794930529 L 260.6966995020863,764.3982798753394 L 259.5865571946553,762.1567667180099 L 261.24402494575315,763.8142344691078 L 259.6386694837827,761.0775081572388 L 261.70655707462714,763.1453957480833 L 260.4352048144014,760.742672637959 L 262.08482255651717,762.3922903800748 L 261.5763454643967,760.7524424380558 L 262.28174411910817,761.4578410927672" fill="none" stroke="#699fe7" stroke-width="0.1"/>
	<path d="M 372.43557345124384,785.9072190283938 L 372.43557345124384,785.9072190283938 L 372.49818176484894,784.8384564921005 L 373.4181426071084,785.7584173343599 L 372.73088505798523,783.9397889353382 L 374.03123948479737,785.2401433621504 L 373.13315269589305,783.2106857233476 L 374.5864200674407,784.6639530948952 L 373.7093881828517,782.6555503604077 L 375.11075204658846,784.0569142241445 L 374.2882696951015,782.1030610227591 L 375.61024431311813,783.4250356407756 L 374.68196170933794,781.365382187097 L 376.0842472373729,782.7676677151319 L 375.0216205857469,780.5736702136074 L 376.53581532648315,782.0878649543437 L 375.49346385917306,779.9141426371351 L 376.954918274557,781.375597052519 L 376.35103746524345,779.6403453933069 L 377.2714676895799,780.5607756176433" fill="none" stroke="#ff6a51" stroke-width="0.1"/>
	<path d="M 248.5778123657159,770.5658769206997 L 250.12355088659808,772.1116154415819 L 248.63278170517899,769.4894754102643 L 251.1275174013985,771.9842111064838 L 249.59821220434432,769.3235350595312 L 252.0491434900782,771.7744663452651 L 250.69573684438987,769.2896888496782 L 252.90630014668696,771.5002521519754 L 251.82062813920123,769.2832092945912 L 253.7123892177418,771.1749703731316 L 252.9696628179638,769.3008731234552 L 254.44835966954705,770.7795699750384 L 254.1519755632924,769.3518150188853 L 254.99157965201405,770.191419107607" fill="none" stroke="#f8cb33" stroke-width="0.1"/>
	<path d="M 474.2527595109561,737.1153886610575 L 475.3645187462505,738.227147896352 L 474.90189830731293,736.633156607516 L 475.84709971053115,737.5783580107341" fill="none" stroke="#5e359a" stroke-width="0.1"/>
	<path d="M 483.84299999999996,731.0369999999999 L 483.843,731.037 L 483.85259096505695,729.9152201151584 L 484.9645196659936,731.0271488160951 L 484.50176461909757,729.4330229193006 L 485.44709382794593,730.3783521281488" fill="none" stroke="#999b28" stroke-width="0.1"/>
	<path d="M 483.85275951095616,722.7153886610575 L 484.9645187462504,723.827147896352 L 484.50189830731307,722.2331566075161 L 485.4470997105311,723.178358010734" fill="none" stroke="#d87d73" stroke-width="0.1"/>
	<path d="M 555.843,714.237 L 555.843,714.237 L 555.8525909650565,713.1152201151581 L 556.9645196659935,714.2271488160951 L 556.5017646190973,712.6330229193003 L 557.4470938279459,713.578352128149" fill="none" stroke="#ec95b0" stroke-width="0.1"/>
	<path d="M 473.3963865643885,734.81901571449 L 473.8486854249492,735.2713145750507 L 473.8413078194235,734.1325661196265 L 474.4143708498986,734.7056291501016 L 474.48098700848067,733.6408744587853 L 474.9800562748478,734.1399437251523 L 475.38932485865047,733.4178414590565 L 475.49813829756374,733.5266548979697" fill="none" stroke="#2bedce" stroke-width="0.1"/>
	<path d="M 521.283,709.437 L 521.283,709.437 L 521.3037028301584,708.32633198026 L 522.127069247557,709.1496983976585 L 521.1979463948726,707.0892046950759 L 522.3278174800482,708.2190757802514 L 521.3052102024635,706.0650976527684 L 522.2443773408237,707.0042647911285 L 521.9561310667613,705.5846476671676 L 522.1823846016681,705.8109012020744" fill="none" stroke="#7675fc" stroke-width="0.1"/>
	<path d="M 562.8912826505727,599.6402476307377 L 564.9594969125441,601.7084618927089 L 563.4870163557831,599.1046104860496 L 565.5355167359179,601.1531108661844" fill="none" stroke="#7dfb7b" stroke-width="0.1"/>
	<path d="M 510.0795468862583,696.8364658288525 L 511.6061366236371,698.3630555662312 L 510.4234568684158,696.0490049611116 L 512.4830083423037,698.1085564349996 L 511.1073633191877,695.6015405619851 L 513.2235108807301,697.7176881235275 L 511.9228217595229,695.2856281524216 L 513.8560868653036,697.2188932582023 L 512.8193397759754,695.0507753189758 L 514.3366758350159,696.568111378016 L 513.927423130596,695.0274878236978 L 514.3786012349917,695.4786659280935" fill="none" stroke="#f87974" stroke-width="0.1"/>
	<path d="M 454.5140679629591,697.3960828785553 L 455.57169334253217,698.4537082581284 L 454.8707702442537,696.6214143099514 L 456.2255838172164,697.9762278829141 L 455.0229918901096,695.6422651059089 L 456.49494099967507,697.1142142154741 L 455.0275058348172,694.515408200718 L 456.458683011576,695.9465853774766 L 455.21069464241094,693.5672261584131 L 456.7553174967218,695.1118490127241 L 456.31011340473276,693.5352740708365 L 457.70170975833486,694.9268704244386 L 457.46826377754604,693.5620535937512 L 458.82350081692437,694.9172906331296 L 458.6418237556846,693.6042427219913 L 459.9669938855884,694.9294128518951 L 459.81014206875835,693.6411901851667 L 461.1222115520871,694.9532596684953 L 460.9352178212768,693.6348950877865 L 462.28307083905315,694.9827481055628 L 461.83456920244663,693.4028756190579 L 463.4460114050364,695.0143178216478 L 462.4272848861389,692.8642204528517 L 464.4746949694675,694.9116305361804 L 463.426763379071,692.7323280958852 L 464.83636079280944,694.1419255096238" fill="none" stroke="#7de612" stroke-width="0.1"/>
	<path d="M 205.45707983861197,665.1064163583061 L 206.5734693546573,666.2228058743514 L 206.11522815842613,664.6331938282218 L 207.04709852723855,665.5650641970342" fill="none" stroke="#1024e5" stroke-width="0.1"/>
	<path d="M 23.052590965056776,653.1152201151583 L 24.164519665993605,654.2271488160951 L 23.701764619097407,652.6330229193004 L 24.647093827945806,653.5783521281488" fill="none" stroke="#1d2771" stroke-width="0.1"/>
	<path d="M 224.65707983861185,619.5064163583064 L 225.77346935465687,620.6228058743515 L 225.3152281584259,619.033193828222 L 226.24709852723834,619.9650641970345" fill="none" stroke="#c97441" stroke-width="0.1"/>
	<path d="M 234.25707983861184,609.9064163583064 L 235.37346935465695,611.0228058743515 L 234.9152281584259,609.433193828222 L 235.84709852723844,610.3650641970345" fill="none" stroke="#7a0d28" stroke-width="0.1"/>
	<path d="M 96.5915289497838,601.254941099503 L 96.5915289497838,601.254941099503 L 96.86732606810236,600.399367367923 L 97.90791783913818,601.4399591389589 L 97.61356214210535,600.0142325920275 L 98.87144508672958,601.2721155366518" fill="none" stroke="#a4e431" stroke-width="0.1"/>
	<path d="M 39.84299999999998,664.797 L 39.84299999999998,664.797 L 40.07322547893999,663.8958546290415 L 41.20611068408815,665.0287398341897 L 40.587242075188456,663.2785003753916 L 41.91840768224925,664.6096659824524 L 41.18554480953468,662.7454322598393 L 42.39960140188441,663.959488852189 L 41.92620208306382,662.35471868347 L 42.491537636674934,662.9200542370811" fill="none" stroke="#ca7a42" stroke-width="0.1"/>
	<path d="M 52.22260565258788,661.3813939833465 L 54.98142407861926,664.1402124093778 L 54.43649041442927,662.4639078952894 L 55.73633905900935,663.7637565398694" fill="none" stroke="#2df8fb" stroke-width="0.1"/>
	<path d="M 39.83800000000002,661.442 L 39.838000000000015,661.442 L 39.61227812490023,660.0849072750018 L 41.195092724998204,661.6677218750997 L 40.04596238772621,659.3872206879292 L 41.892779312070765,661.2340376122738 L 40.687914127224964,658.8978015775295 L 42.382198422470566,660.5920858727751 L 41.65116417825098,658.7296807786571 L 42.550319221342946,659.628835821749" fill="none" stroke="#c5c5fe" stroke-width="0.1"/>
	<path d="M 43.68300000000003,662.397 L 43.68300000000003,662.397 L 43.87906891666306,661.4616980667646 L 45.11826900543256,662.7008981555341 L 44.19491134719272,660.6461696473958 L 45.72985322198408,662.1811115221872 L 44.568181956479194,659.8880694067839 L 46.100798954206184,661.4206864045108 L 45.040378290711296,659.2288948911174 L 46.30280015032729,660.4913167507334 L 45.85874601989572,658.9158917704034 L 46.18024400027577,659.2373897507834" fill="none" stroke="#c5974f" stroke-width="0.1"/>
	<path d="M 53.44876402940841,655.4298047736821 L 58.02249983243297,660.0035405767067" fill="none" stroke="#8a2366" stroke-width="0.1"/>
	<path d="M 54.292218436008376,655.1418883303836 L 55.66162352455198,656.5112934189272 L 55.45005210484336,655.1683511493201 L 55.54977360662463,655.2680726511014" fill="none" stroke="#721f03" stroke-width="0.1"/>
	<path d="M 523.68,152.15999999999997 L 523.6800000000001,152.15999999999997 L 524.3482532840674,151.69688243416897 L 524.6399951757804,151.988624325882" fill="none" stroke="#69515a" stroke-width="0.1"/>
	<path d="M 525.182147042938,153.61363010517334 L 525.1821470429394,153.61363010517485 L 525.3498599850957,152.64997219743256 L 525.6082756056596,152.9083878179967" fill="none" stroke="#a992b0" stroke-width="0.1"/>
	<path d="M 526.08,154.55999999999997 L 526.08,154.56 L 526.7463195369517,154.09494868705326 L 527.0396649880298,154.38829413813136" fill="none" stroke="#58cb1b" stroke-width="0.1"/>
	<path d="M 506.9741391993839,118.5881472599212 L 507.073062810041,118.59147473905887 L 507.1720049014466,118.58509241714762 L 507.2705650991171,118.57400417804142 L 507.36884693534284,118.56067910947354 L 507.46716805447295,118.54764293040427 L 507.5656664562759,118.53616515353308 L 507.6645114099605,118.52878815188714 L 507.76325020310395,118.5330070329605 L 507.7871473327066,118.51072168457813 L 507.7143313518952,118.44338175479993 L 507.6403550588603,118.37731964844235 L 507.56412416116086,118.31387371531059 L 507.4845335517603,118.25470742586072 L 507.40070279886174,118.20175181761071 L 507.3122607712419,118.15697826521594 L 507.219536556606,118.12198475744188 L 507.12348734627653,118.09755022311948 L 507.02535223429726,118.08343188797582 L 506.9262533971562,118.07937207411076 L 506.8884722680903,118.16394151664791 L 506.88677142111464,118.2630823661172 L 506.87920399152114,118.36197351722849 L 506.8739825493535,118.4610007479877 L 506.88,118.56 L 506.9741391993839,118.5881472599212" fill="none" stroke="#f59216" stroke-width="0.1"/>
	<path d="M 210.24,26.39999999999999 L 210.24,26.399999999999995 L 210.4113708498985,25.43999999999999 L 211.1742376615359,26.20286681163742" fill="none" stroke="#318a2a" stroke-width="0.1"/>
	<path d="M 503.58340693268747,126.612036082789 L 504.0,127.0286291501015" fill="none" stroke="#c5fba3" stroke-width="0.1"/>
	<path d="M 504.48554921865815,130.44298436660705 L 504.48554921865815,130.44298436660708 L 504.4714567334615,129.2975210315119 L 505.44051888603843,130.26658318408886" fill="none" stroke="#bdd157" stroke-width="0.1"/>
	<path d="M 499.68019687489743,121.06327100869056 L 500.62609056161557,122.00916469540867 L 500.22908853363145,120.4807918175259 L 500.62534197018334,120.87704525407787" fill="none" stroke="#9dafc2" stroke-width="0.1"/>
	<path d="M 213.10378721481356,28.732872329930753 L 213.10378721481356,28.732872329930753 L 213.34563454451643,27.843348809735147 L 214.07904124906133,28.57675551428004" fill="none" stroke="#c220a4" stroke-width="0.1"/>
	<path d="M 213.82367592096261,30.11220833455859 L 215.26473727222984,31.55326968582577 L 214.09279751648444,29.2499590801819 L 216.015349449338,31.172511013035468 L 214.78184334488546,28.807634058684386 L 216.53101560419933,30.556806317998273 L 215.58375783077236,28.478177694672787 L 216.64148227414486,29.535902138045337" fill="none" stroke="#796eaf" stroke-width="0.1"/>
	<path d="M 240.78608727834634,165.79377590498598 L 241.94883204970404,166.95652067634373 L 241.2474302149413,165.12374799168248 L 242.50265701372138,166.3789747904626 L 241.7819508354079,164.52689776225063 L 243.11555843247132,165.86050535931403 L 242.37668673588206,163.99026281282627 L 243.5695931150531,165.18316919199725 L 243.0284334332,163.51063866024575 L 243.86473267239688,164.34693789944257" fill="none" stroke="#6498ce" stroke-width="0.1"/>
	<path d="M 375.92016669983025,166.81020913770726 L 375.9201666998317,166.81020913770874 L 374.9811002139587,164.73977180193722 L 376.90239592124834,166.66106750922697 L 376.01271131003915,164.64001204811913 L 376.4928376607571,165.12013839883707" fill="none" stroke="#5e0895" stroke-width="0.1"/>
	<path d="M 557.2741808105909,227.90474966390892 L 557.2741808105909,227.90474966390892 L 557.9990417369336,226.36686889045473 L 559.5550734823963,227.92290063591753" fill="none" stroke="#fd0cf1" stroke-width="0.1"/>
	<path d="M 556.1626812563316,225.6618792597511 L 558.8814080411386,228.3806060445582" fill="none" stroke="#fb93e7" stroke-width="0.1"/>
	<path d="M 152.61692476563846,396.28055391574 L 153.5862681485936,397.2498972986951 L 153.51213552043683,396.04439382063975 L 154.52953629718732,397.06179459739025 L 154.0583379767042,395.4592254270087 L 155.04198048999396,396.44286794029847 L 154.5948312795131,394.86434787991914 L 155.0489200196225,395.3184366200285" fill="none" stroke="#9c8c75" stroke-width="0.1"/>
	<path d="M 419.043,339.357 L 419.043,339.357 L 419.30850199094175,338.4911311410433 L 419.89241479169493,339.07504394179654" fill="none" stroke="#60d60c" stroke-width="0.1"/>
	<path d="M 23.521000000000015,564.486 L 23.521000000000015,564.486" fill="none" stroke="#102911" stroke-width="0.1"/>
	<path d="M 40.335682780249705,552.7278413901249 L 40.335682780249705,552.7278413901249" fill="none" stroke="#1950dc" stroke-width="0.1"/>
	<path d="M 39.90512103359221,562.5544011743499 L 39.90512103359221,562.5544011743499" fill="none" stroke="#0ce528" stroke-width="0.1"/>
	<path d="M 477.55935595459374,96.67935595459369 L 477.5187119091874,96.63871190918738 L 477.47806786378106,96.5980678637811 L 477.4374238183748,96.55742381837477 L 477.3967797729685,96.51677977296846 L 477.3521586098751,96.49568278024972 L 477.3264530585137,96.54709388297263 L 477.30074750715227,96.59850498569553 L 477.2750419557908,96.64991608841842 L 477.24933640442936,96.7013271911413 L 477.2236308530679,96.7527382938642 L 477.19792530170645,96.80414939658709 L 477.172219750345,96.85556049930997 L 477.14651419898354,96.90697160203287 L 477.1222144387937,96.95755780363459 L 477.17963779856893,96.96 L 477.2371171588122,96.96 L 477.2945965190556,96.96 L 477.3516607974824,96.9587871310683 L 477.3967797729685,96.92322022703154 L 477.4374238183748,96.88257618162523 L 477.47806786378106,96.8419321362189 L 477.5187119091874,96.80128809081262 L 477.55935595459374,96.76064404540631 L 477.6,96.72 L 477.55935595459374,96.67935595459369" fill="none" stroke="#8ba944" stroke-width="0.1"/>
	<path d="M 551.0420622556941,259.05358633432655 L 551.0420622556941,259.05358633432655 L 551.042533463878,257.92268669261233 L 552.316633377365,259.19678660609924 L 551.054182345626,256.8029647244617 L 552.2326541168183,257.9814364956539" fill="none" stroke="#b37d60" stroke-width="0.1"/>
	<path d="M 395.20993092422276,296.6369999999983 L 395.2099309242244,296.63700000000006 L 395.38730177412293,295.683 L 396.3413017741229,296.637 L 396.51867262402135,295.683 L 397.3695137513568,296.5338411273355" fill="none" stroke="#f36bd9" stroke-width="0.1"/>
	<path d="M 43.696553844314515,469.3913848550336 L 43.69655384431452,469.3913848550336 L 43.683000000000014,468.2464601608206 L 44.63699999999998,469.20046016082057 L 43.683,467.11508931092214 L 44.63700000000001,468.06908931092215" fill="none" stroke="#dd43e5" stroke-width="0.1"/>
	<path d="M 211.81323798561274,560.637 L 211.81323798561274,560.637 L 211.67700000000002,559.3693911644888 L 212.94460883551127,560.637 L 212.64097968540972,559.202 L 213.98320726513163,560.5442275797218 L 213.7732291983343,559.202878663026 L 214.08148132958064,559.5111307942724" fill="none" stroke="#fd2127" stroke-width="0.1"/>
	<path d="M 62.88300000000002,506.6464601608206 L 63.83699999999999,507.60046016082055 L 62.883,505.5150893109221 L 63.83700000000001,506.46908931092213" fill="none" stroke="#6012c9" stroke-width="0.1"/>
	<path d="M 65.27700000000002,504.16939116448884 L 66.54460883551121,505.437 L 66.24097968540967,504.002 L 67.58320726513159,505.3442275797219 L 67.37322919833416,504.002878663026 L 67.68148132958068,504.3111307942726" fill="none" stroke="#937921" stroke-width="0.1"/>
	<path d="M 193.82866631241612,342.23999999999995 L 193.82866631241615,342.24 L 193.52003716231468,340.8 L 194.96003716231468,342.24000000000007 L 194.65140801221312,340.8 L 196.09140801221315,342.24 L 195.7827788621116,340.8 L 197.2227788621116,342.23999999999995 L 196.91414971201013,340.8 L 198.35414971201018,342.24 L 198.0455205619086,340.79999999999995 L 199.4855205619086,342.24 L 199.17689141180713,340.8 L 200.61689141180707,342.23999999999995 L 200.30826226170558,340.8 L 201.7482622617056,342.24 L 201.43963311160405,340.8 L 202.7103441395171,342.07071102791303 L 202.6301607625098,340.8591568010072 L 203.00511997548185,341.23411601397925" fill="none" stroke="#250d94" stroke-width="0.1"/>
	<path d="M 151.69655384431454,286.9913848550335 L 151.6965538443145,286.9913848550336 L 151.683,285.8464601608205 L 152.63700000000003,286.8004601608206 L 151.68300000000002,284.7150893109221 L 152.63699999999997,285.66908931092206" fill="none" stroke="#fcfb26" stroke-width="0.1"/>
	<path d="M 282.37323798561266,563.0369999999997 L 282.3732379856128,563.0369999999999 L 282.2370000000001,561.7693911644888 L 283.5046088355112,563.0369999999999 L 283.2009796854098,561.602 L 284.5432072651316,562.9442275797219 L 284.33322919833444,561.6028786630261 L 284.64148132958064,561.9111307942724" fill="none" stroke="#11b3f5" stroke-width="0.1"/>
	<path d="M 425.4132379856127,510.23699999999985 L 425.41323798561285,510.237 L 425.277,508.96939116448874 L 426.54460883551127,510.237 L 426.24097968540974,508.802 L 427.5832072651316,510.14422757972187 L 427.37322919833423,508.80287866302604 L 427.6814813295806,509.1111307942724" fill="none" stroke="#e988d2" stroke-width="0.1"/>
	<path d="M 413.627301774123,558.243 L 414.581301774123,559.197 L 414.75867262402153,558.243 L 415.6095137513568,559.0938411273354" fill="none" stroke="#544702" stroke-width="0.1"/>
	<path d="M 416.64200000000005,558.0024316536961 L 417.8425683463038,559.203 L 416.642,556.8710608037976 L 418.077,558.3060608037977 L 417.6993100461008,556.797 L 418.07700000000006,557.1746899538994" fill="none" stroke="#10787d" stroke-width="0.1"/>
	<path d="M 288.827301774123,767.043 L 289.781301774123,767.997 L 289.9586726240215,767.043 L 290.8095137513568,767.8938411273353" fill="none" stroke="#190fc6" stroke-width="0.1"/>
	<path d="M 335.03700000000003,789.7693911644888 L 336.30460883551115,791.0369999999999 L 336.00097968540973,789.602 L 337.3432072651316,790.9442275797219 L 337.1332291983344,789.6028786630261 L 337.4414813295806,789.9111307942724" fill="none" stroke="#24dcc6" stroke-width="0.1"/>
	<path d="M 257.277,777.7693911644886 L 258.54460883551116,779.0369999999999 L 258.24097968540974,777.602 L 259.5832072651316,778.9442275797219 L 259.3732291983344,777.6028786630261 L 259.6814813295806,777.9111307942724" fill="none" stroke="#6081c9" stroke-width="0.1"/>
	<path d="M 306.37323798561266,771.8369999999998 L 306.3732379856128,771.837 L 306.2370000000001,770.5693911644888 L 307.5046088355112,771.837 L 307.2009796854098,770.402 L 308.5432072651316,771.744227579722 L 308.33322919833444,770.4028786630262 L 308.64148132958064,770.7111307942724" fill="none" stroke="#d0bcc0" stroke-width="0.1"/>
	<path d="M 507.22730177412296,726.243 L 508.18130177412297,727.197 L 508.35867262402144,726.243 L 509.2095137513568,727.0938411273354" fill="none" stroke="#1326ae" stroke-width="0.1"/>
	<path d="M 471.22730177412296,731.043 L 472.1813017741229,731.997 L 472.35867262402144,731.043 L 473.2095137513568,731.8938411273353" fill="none" stroke="#664014" stroke-width="0.1"/>
	<path d="M 459.8898718559556,681.5816743595503 L 459.8898718559556,681.5816743595503 L 459.842,680.4024316536963 L 461.04256834630377,681.603 L 459.84200000000004,679.2710608037978 L 461.277,680.7060608037976 L 460.8993100461007,679.197 L 461.277,679.5746899538991" fill="none" stroke="#3e3574" stroke-width="0.1"/>
	<path d="M 464.68987185595563,679.1816743595504 L 464.68987185595563,679.1816743595504 L 464.64200000000005,678.0024316536961 L 465.84256834630384,679.203 L 464.64200000000005,676.8710608037978 L 466.077,678.3060608037978 L 465.6993100461008,676.797 L 466.07700000000006,677.1746899538994" fill="none" stroke="#2e3265" stroke-width="0.1"/>
	<path d="M 260.8099309242229,590.3969999999983 L 260.80993092422443,590.3969999999999 L 260.98730177412295,589.443 L 261.9413017741231,590.3969999999999 L 262.1186726240215,589.443 L 262.9695137513568,590.2938411273352" fill="none" stroke="#8e8e1e" stroke-width="0.1"/>
	<path d="M 222.587301774123,623.043 L 223.54130177412296,623.997 L 223.71867262402145,623.043 L 224.56951375135682,623.8938411273353" fill="none" stroke="#73746f" stroke-width="0.1"/>
	<path d="M 212.02730177412298,625.443 L 212.98130177412295,626.3969999999999 L 213.15867262402145,625.443 L 214.00951375135682,626.2938411273353" fill="none" stroke="#178a1a" stroke-width="0.1"/>
	<path d="M 36.48299999999997,650.6464601608205 L 37.43700000000002,651.6004601608206 L 36.483,649.5150893109221 L 37.43699999999996,650.4690893109221" fill="none" stroke="#7b18bc" stroke-width="0.1"/>
	<path d="M 61.44199999999998,660.2424316536964 L 62.6425683463036,661.443 L 61.442000000000014,659.111060803798 L 62.876999999999995,660.5460608037979 L 62.499310046100554,659.037 L 62.877000000000024,659.4146899538995" fill="none" stroke="#a7a321" stroke-width="0.1"/>
	<path d="M 51.889871855955626,659.9816743595504 L 51.88987185595563,659.9816743595504 L 51.841999999999985,658.8024316536963 L 53.0425683463036,660.0029999999999 L 51.84200000000001,657.6710608037979 L 53.277,659.1060608037978 L 52.89931004610056,657.597 L 53.27700000000003,657.9746899538994" fill="none" stroke="#96af5e" stroke-width="0.1"/>
	<path d="M 90.24199999999998,651.6024316536963 L 91.44256834630366,652.803 L 90.242,650.4710608037979 L 91.67700000000006,651.9060608037979 L 91.29931004610071,650.397 L 91.677,650.7746899538994" fill="none" stroke="#870096" stroke-width="0.1"/>
	<path d="M 215.042,624.2424316536964 L 216.2425683463036,625.443 L 215.04199999999997,623.1110608037978 L 216.47700000000003,624.5460608037979 L 216.09931004610058,623.037 L 216.47700000000003,623.4146899538995" fill="none" stroke="#f751b7" stroke-width="0.1"/>
	<path d="M 0.0,0.0 L 612.0,0.0" fill="none" stroke="#e62dab" stroke-width="0.1"/>
	<path d="M 612.0,0.0 L 612.0,792.0" fill="none" stroke="#c31837" stroke-width="0.1"/>
	<path d="M 612.0,792.0 L 0.0,792.0" fill="none" stroke="#76e48c" stroke-width="0.1"/>
	<path d="M 0.0,792.0 L 0.0,0.0" fill="none" stroke="#c79dcb" stroke-width="0.1"/>
</svg>
