<?xml version="1.0" ?>
<svg xmlns="http://www.w3.org/2000/svg" xmlns:ev="http://www.w3.org/2001/xml-events" xmlns:xlink="http://www.w3.org/1999/xlink" baseProfile="full" data-name="b1" height="792" id="a" version="1.1" viewBox="0 0 612 792" width="612">
	<defs/>
	<path d="M 26.097337968243053,563.0459671183446 L 26.395404482147573,563.3440336322491" fill="none" stroke="#9cdfdc" stroke-width="0.1"/>
	<path d="M 33.84618829128473,557.3498761050535 L 34.25179745632663,557.7554852700954 L 34.87486612376528,557.2471830876356 L 35.03999999999998,557.4123169638702" fill="none" stroke="#4eafe1" stroke-width="0.1"/>
	<path d="M 497.4525832898337,111.84121243993516 L 498.23999999999995,112.62862915010156" fill="none" stroke="#a1b653" stroke-width="0.1"/>
	<path d="M 138.48177196185483,92.69659032314775 L 139.14049064259257,93.35530900388547" fill="none" stroke="#2fdf17" stroke-width="0.1"/>
	<path d="M 137.28179304732672,95.0402732239086 L 137.28179304732674,95.0402732239086 L 137.24143885242447,93.86854817910785 L 138.24286602583192,94.86997535251533 L 138.1348438601471,93.63058233693201 L 138.21545592510955,93.71119440189447" fill="none" stroke="#6ca1d2" stroke-width="0.1"/>
	<path d="M 35.52030675293613,556.8000000000001 L 35.52030675293613,556.8000000000001 L 35.69202983473098,555.8403522318964 L 36.48142098587874,556.6297433830442" fill="none" stroke="#de0034" stroke-width="0.1"/>
	<path d="M 42.243099991489544,471.837099843818 L 42.243099991490226,471.8370998438187 L 42.24915219234107,470.7117811947711 L 43.36828923284129,471.8309182352713 L 42.898542005325275,470.2298001578568 L 43.85062781541302,471.18188596794454" fill="none" stroke="#6064f0" stroke-width="0.1"/>
	<path d="M 37.58837888348514,480.34735600488915 L 38.47263629360744,481.23161341501145 L 38.007306364079746,479.6349126355853 L 39.13003940429843,480.757645675804 L 38.598662332354195,479.0948977539613 L 39.737235339614884,480.23347076122195 L 39.34486103700929,478.70972560871786 L 40.31712755048582,479.6819921221944 L 39.83691978827736,478.0704135100875 L 40.86936594640714,479.10285966821726 L 40.147511783420555,477.2496346553322 L 41.388312270663526,478.49043514257517 L 40.48747650428823,476.4582285263014 L 41.86203384546225,477.8327858674754 L 40.87958105950426,475.718962231619 L 42.26420977471565,477.10359094683037 L 41.38551627763203,475.09352659984825 L 42.51338661060232,476.22139693281855" fill="none" stroke="#f6ddaf" stroke-width="0.1"/>
	<path d="M 482.8762844769075,101.75673426065536 L 482.87628447690787,101.75673426065588 L 483.52641432690183,101.2754932607513 L 483.8269117670975,101.575990700947" fill="none" stroke="#fe204a" stroke-width="0.1"/>
	<path d="M 559.5549189775635,228.47976036831182 L 559.5549189775651,228.47976036831344" fill="none" stroke="#f2a341" stroke-width="0.1"/>
	<path d="M 37.92048458556931,564.0 L 37.92048458556931,564.0 L 38.0899810698895,563.0381256344217 L 38.38649938436373,563.334643948896" fill="none" stroke="#73242c" stroke-width="0.1"/>
	<path d="M 41.33983777124355,561.4326680042128 L 41.33983777124428,561.4326680042136 L 41.663713333726584,560.6251727167975 L 42.632709137921836,561.5941685209926 L 42.87166529457905,560.7017538277514 L 43.15653023712141,560.9866187702938" fill="none" stroke="#c1a753" stroke-width="0.1"/>
	<path d="M 579.2411321699606,440.7218333025428 L 579.2411321699616,440.7218333025438 L 578.9073561183924,439.256686401076 L 579.8306197170189,440.17994999970256 L 579.0182323180559,438.23619175084133 L 580.023856217798,439.2418156505834" fill="none" stroke="#114d2e" stroke-width="0.1"/>
	<path d="M 494.8793399480676,115.19793805304204 L 494.8793399480676,115.19793805304204 L 495.0747291346697,114.26195638974569 L 495.84157495729744,115.02880221237338" fill="none" stroke="#d527ef" stroke-width="0.1"/>
	<path d="M 462.91255255764946,87.85837522349722 L 463.86462722534833,88.81044989119611 L 464.02757028499593,87.84202210094523 L 464.62406182486643,88.43851364081573" fill="none" stroke="#1683f6" stroke-width="0.1"/>
	<path d="M 57.27707322503433,539.0257023751359 L 57.59999999999998,539.3486291501015" fill="none" stroke="#c0cc80" stroke-width="0.1"/>
	<path d="M 465.86722535911014,89.22506746152145 L 466.4406434975522,89.79848559996339" fill="none" stroke="#4a9e7e" stroke-width="0.1"/>
	<path d="M 211.68006638154662,27.359999999999996 L 211.68006638154662,27.359999999999996 L 212.31113992627658,26.859702694831466 L 212.6396590816389,27.188221850193784" fill="none" stroke="#99f576" stroke-width="0.1"/>
	<path d="M 501.1206898744137,115.20006078610535 L 501.12068987441387,115.2000607861054 L 501.3097060804321,114.25770614222519 L 502.04836474227216,114.99636480406528" fill="none" stroke="#0e6dbc" stroke-width="0.1"/>
	<path d="M 504.6679110494814,116.6534396028499 L 505.4144014168226,117.39992997019127" fill="none" stroke="#a483a0" stroke-width="0.1"/>
	<path d="M 503.5214503286156,115.68283418383629 L 503.52290065723116,115.68566836767256 L 503.52435098584675,115.68850255150885 L 503.5258013144623,115.69133673534513 L 503.5272516430779,115.69417091918142 L 503.52870197169347,115.69700510301769 L 503.53015230030906,115.69983928685397 L 503.53160262892465,115.70267347069026 L 503.53305295754024,115.70550765452653 L 503.53450328615577,115.70834183836281 L 503.53595361477136,115.7111760221991 L 503.53740394338695,115.71401020603537 L 503.53885427200254,115.71684438987165 L 503.54030460061813,115.71967857370794 L 503.5417549292337,115.72251275754422 L 503.54320525784925,115.7253469413805 L 503.54465558646484,115.72818112521678 L 503.54610591508043,115.73101530905306 L 503.547556243696,115.73384949288933 L 503.5490065723116,115.73668367672562 L 503.5504569009272,115.7395178605619 L 503.55190722954273,115.74235204439819 L 503.5533575581583,115.74518622823446 L 503.5548078867739,115.74802041207074 L 503.5562582153895,115.75085459590703 L 503.5577085440051,115.7536887797433 L 503.5591588726207,115.75652296357958 L 503.5606092012362,115.75935714741587 L 503.5620595298518,115.76219133125214 L 503.5635098584674,115.76502551508842 L 503.564960187083,115.76785969892471 L 503.5664105156986,115.770693882761 L 503.56786084431417,115.77352806659727 L 503.5693111729297,115.77636225043355 L 503.5707615015453,115.77919643426983 L 503.5722118301609,115.7820306181061 L 503.5736621587765,115.78486480194239 L 503.57511248739206,115.78769898577868 L 503.57656281600765,115.79053316961496 L 503.57801314462324,115.79336735345123 L 503.5794634732388,115.79620153728752 L 503.58091380185436,115.7990357211238 L 503.58236413046995,115.80186990496007 L 503.58381445908554,115.80470408879636 L 503.58526478770113,115.80753827263264 L 503.5867151163167,115.81037245646891 L 503.58816544493226,115.8132066403052 L 503.58961577354785,115.81604082414148 L 503.59106610216344,115.81887500797777 L 503.592516430779,115.82170919181404 L 503.5939667593946,115.82454337565032 L 503.5954170880102,115.8273775594866 L 503.59686741662574,115.83021174332288 L 503.59831774524133,115.83304592715916 L 503.5997680738569,115.83588011099545 L 503.6012184024725,115.83871429483172 L 503.6026687310881,115.841548478668 L 503.6041190597037,115.84438266250429 L 503.6055693883192,115.84721684634057 L 503.6070197169348,115.85005103017684 L 503.6084700455504,115.85288521401313 L 503.609920374166,115.85571939784941 L 503.6113707027816,115.85855358168568 L 503.6128210313972,115.86138776552197 L 503.6142713600127,115.86422194935825 L 503.6157216886283,115.86705613319454 L 503.6171720172439,115.86989031703081 L 503.6186223458595,115.8727245008671 L 503.62007267447507,115.87555868470338 L 503.62152300309066,115.87839286853965 L 503.6229733317062,115.88122705237593 L 503.6244236603218,115.88406123621222 L 503.62587398893737,115.88689542004849 L 503.62732431755296,115.88972960388477 L 503.62877464616855,115.89256378772106 L 503.63022497478414,115.89539797155734 L 503.63167530339973,115.89823215539361 L 503.63312563201526,115.9010663392299 L 503.63457596063085,115.90390052306618 L 503.63602628924644,115.90673470690245 L 503.63747661786203,115.90956889073874 L 503.6389269464776,115.91240307457502 L 503.6403772750932,115.91523725841131 L 503.64182760370875,115.91807144224758 L 503.64327793232434,115.92090562608387 L 503.6447282609399,115.92373980992015 L 503.6461785895555,115.92657399375642 L 503.6476289181711,115.9294081775927 L 503.6490792467867,115.93224236142899 L 503.65052957540223,115.93507654526526 L 503.6519799040178,115.93791072910155 L 503.6534302326334,115.94074491293783 L 503.654880561249,115.94357909677412 L 503.6563308898646,115.94641328061039 L 503.6577812184802,115.94924746444667 L 503.6592315470957,115.95208164828296 L 503.6606818757113,115.95491583211923 L 503.6621322043269,115.95775001595551 L 503.6635825329425,115.9605841997918 L 503.6650328615581,115.96341838362808 L 503.66648319017366,115.96625256746435 L 503.6679335187892,115.96908675130064 L 503.6693838474048,115.97192093513692 L 503.6708341760204,115.97475511897319 L 503.67228450463597,115.97758930280948 L 503.67373483325156,115.98042348664576 L 503.67518516186715,115.98325767048203 L 503.6766354904827,115.98609185431832 L 503.67808581909827,115.9889260381546 L 503.67953614771386,115.99176022199089 L 503.68098647632945,115.99459440582716 L 503.68243680494504,115.99742858966344 L 503.68388713356063,116.00026277349973 L 503.6853374621762,116.003096957336 L 503.68678779079175,116.00593114117228 L 503.68823811940734,116.00876532500857 L 503.68968844802293,116.01159950884485 L 503.6911387766385,116.01443369268112 L 503.6925891052541,116.01726787651741 L 503.6940394338697,116.0201020603537 L 503.69548976248524,116.02293624418996 L 503.6969400911008,116.02577042802625 L 503.6983904197164,116.02860461186253 L 503.699840748332,116.0314387956988 L 503.7012910769476,116.03427297953509 L 503.7027414055632,116.03710716337137 L 503.7041917341787,116.03994134720766 L 503.7056420627943,116.04277553104393 L 503.7070923914099,116.04560971488021 L 503.7085427200255,116.0484438987165 L 503.7099930486411,116.05127808255277 L 503.71144337725667,116.05411226638905 L 503.7128937058722,116.05694645022534 L 503.7143440344878,116.05978063406162 L 503.7157943631034,116.0626148178979 L 503.717244691719,116.06544900173418 L 503.71869502033456,116.06828318557046 L 503.72014534895015,116.07111736940674 L 503.7215956775657,116.07395155324302 L 503.7230460061813,116.0767857370793 L 503.72449633479687,116.07961992091558 L 503.72594666341246,116.08245410475186 L 503.72739699202805,116.08528828858815 L 503.72884732064364,116.08812247242443 L 503.73029764925917,116.0909566562607 L 503.73174797787476,116.09379084009699 L 503.73319830649035,116.09662502393327 L 503.73464863510594,116.09945920776954 L 503.73609896372153,116.10229339160583 L 503.7375492923371,116.10512757544211 L 503.7389996209527,116.10796175927838 L 503.74044994956824,116.11079594311467 L 503.74190027818383,116.11363012695095 L 503.7433506067994,116.11646431078724 L 503.744800935415,116.11929849462351 L 503.7462512640306,116.12213267845979 L 503.7477015926462,116.12496686229608 L 503.7491519212617,116.12780104613235 L 503.7506022498773,116.13063522996863 L 503.7520525784929,116.13346941380492 L 503.7535029071085,116.1363035976412 L 503.7549532357241,116.13913778147747 L 503.7564035643397,116.14197196531376 L 503.7578538929552,116.14480614915004 L 503.7593042215708,116.14764033298631 L 503.76188639010843,116.14817375296889 L 503.76548891958714,116.14657841286478 L 503.7690608430566,116.14497357671227 L 503.7726022476404,116.14335921947581 L 503.7761132204624,116.14173531611979 L 503.7795938486464,116.14010184160867 L 503.7830442193162,116.13845877090685 L 503.7864644195955,116.1368060789788 L 503.78985453660823,116.1351437407889 L 503.793214657478,116.13347173130163 L 503.7965448693287,116.13179002548138 L 503.79984525928415,116.1300985982926 L 503.8031159144681,116.12839742469971 L 503.8063569220042,116.12668647966714 L 503.80956836901646,116.12496573815935 L 503.81275034262853,116.12323517514072 L 503.81590292996424,116.1214947655757 L 503.81902621814737,116.11974448442874 L 503.82212029430167,116.11798430666423 L 503.8251852455509,116.11621420724663 L 503.828221159019,116.11443416114037 L 503.83122812182955,116.11264414330986 L 503.8342062211065,116.11084412871955 L 503.83715554397355,116.10903409233384 L 503.8400761775545,116.1072140091172 L 503.84296820897316,116.10538385403403 L 503.84583172535326,116.10354360204877 L 503.8486668138187,116.10169322812584 L 503.8514735614931,116.0998327072297 L 503.85425205550035,116.09796201432474 L 503.85700238296425,116.0960811243754 L 503.85972463100853,116.09419001234612 L 503.862418886757,116.09228865320134 L 503.8650852373334,116.09037702190545 L 503.8677237698616,116.08845509342292 L 503.8703345714653,116.08652284271817 L 503.8729177292684,116.08458024475563 L 503.8754733303946,116.0826272744997 L 503.87800146196764,116.08066390691485 L 503.88050221111143,116.07869011696549 L 503.88297566494964,116.07670587961604 L 503.8854219106061,116.07471116983095 L 503.88784103520464,116.07270596257464 L 503.890233125869,116.07069023281154 L 503.8925982697229,116.0686639555061 L 503.89493655389026,116.0666271056227 L 503.89724806549475,116.06457965812582 L 503.8995328916602,116.06252158797986 L 503.90179111951045,116.06045287014926 L 503.90402283616925,116.05837347959844 L 503.9062281287603,116.05628339129186 L 503.9084070844075,116.05418258019391 L 503.9105597902346,116.05207102126904 L 503.91268633336534,116.04994868948168 L 503.91478680092354,116.04781555979625 L 503.916861280033,116.04567160717718 L 503.9189098578175,116.04351680658893 L 503.92093262140077,116.04135113299589 L 503.92292965790665,116.03917456136249 L 503.9249010544589,116.03698706665318 L 503.9268468981814,116.0347886238324 L 503.92876727619785,116.03257920786456 L 503.93066227563196,116.03035879371407 L 503.93253198360765,116.02812735634541 L 503.93437648724864,116.02588487072296 L 503.9361958736787,116.02363131181119 L 503.9379902300217,116.02136665457449 L 503.9397596434013,116.01909087397732 L 503.9415042009414,116.0168039449841 L 503.9432239897657,116.01450584255926 L 503.94491909699804,116.01219654166724 L 503.94658960976216,116.00987601727245 L 503.94823561518194,116.00754424433931 L 503.949857200381,116.00520119783229 L 503.9514544524833,116.00284685271579 L 503.95302745861255,116.00048118395425 L 503.9545763058925,115.99810416651209 L 503.95610108144695,115.99571577535374 L 503.9576018723997,115.99331598544366 L 503.9590787658746,115.99090477174623 L 503.96053184899534,115.98848210922591 L 503.9619612088857,115.98604797284713 L 503.96336693266954,115.98360233757431 L 503.96474910747065,115.98114517837189 L 503.96610782041273,115.97867647020429 L 503.9674431586196,115.97619618803594 L 503.96875520921503,115.97370430683128 L 503.9700440593229,115.97120080155472 L 503.97130979606686,115.9686856471707 L 503.97255250657076,115.96615881864366 L 503.9737722779584,115.96362029093801 L 503.9749691973536,115.9610700390182 L 503.97614335188,115.95850803784865 L 503.97729482866157,115.95593426239378 L 503.978423714822,115.95334868761803 L 503.979530097485,115.95075128848583 L 503.9806140637745,115.94814203996161 L 503.9816757008142,115.94552091700979 L 503.9827150957279,115.94288789459482 L 503.9837323356394,115.9402429476811 L 503.98472750767246,115.93758605123308 L 503.9857006989509,115.9349171802152 L 503.9866519965985,115.93223630959186 L 503.98758148773896,115.9295434143275 L 503.9884892594962,115.92683846938657 L 503.9893753989939,115.92412144973348 L 503.99023999335594,115.92139233033265 L 503.991083129706,115.91865108614853 L 503.9919048951679,115.91589769214555 L 503.9927053768655,115.91313212328812 L 503.99348466192254,115.91035435454069 L 503.99424283746276,115.90756436086768 L 503.99497999061,115.90476211723352 L 503.99569620848797,115.90194759860263 L 503.99639157822054,115.89912077993947 L 503.9970661869314,115.89628163620843 L 503.99772012174446,115.89343014237396 L 503.99835346978347,115.8905662734005 L 503.99896631817217,115.88769000425246 L 503.9995587540343,115.88480130989427 L 504.00013086449377,115.88190016529039 L 504.0006827366743,115.87898654540521 L 504.0012144576997,115.87606042520318 L 504.00172611469367,115.87312177964873 L 504.0022177947801,115.87017058370627 L 504.0026895850827,115.86720681234026 L 504.0031415727253,115.8642304405151 L 504.0035738448317,115.86124144319525 L 504.00398648852564,115.85823979534511 L 504.0043795909309,115.85522547192913 L 504.00475323917135,115.85219844791173 L 504.0051075203707,115.84915869825736 L 504.0054425216527,115.84610619793041 L 504.00575833014125,115.84304092189534 L 504.00605503296003,115.83996284511656 L 504.00633271723285,115.83687194255852 L 504.00659147008355,115.83376818918563 L 504.0068313786358,115.83065155996235 L 504.00705253001354,115.82752202985307 L 504.0072550113405,115.82437957382224 L 504.00743890974036,115.8212241668343 L 504.00760431233704,115.81805578385367 L 504.00775130625425,115.81487439984477 L 504.0078799786158,115.81167998977203 L 504.00799041654545,115.80847252859989 L 504.008082707167,115.80525199129278 L 504.00815693760427,115.80201835281513 L 504.008213194981,115.79877158813134 L 504.008251566421,115.79551167220589 L 504.0082721390481,115.79223858000319 L 504.00827499998593,115.78895228648764 L 504.0082602363584,115.78565276662371 L 504.0082279352893,115.7823399953758 L 504.00817818390243,115.77901394770836 L 504.0081110693215,115.77567459858582 L 504.00802667867026,115.7723219229726 L 504.0079250990726,115.76895589583312 L 504.0078064176523,115.76557649213183 L 504.00767072153315,115.76218368683314 L 504.00751809783884,115.7587774549015 L 504.0073486336932,115.75535777130132 L 504.00716241622007,115.75192461099705 L 504.00695953254314,115.7484779489531 L 504.0067400697863,115.74501776013392 L 504.00650411507326,115.7415440195039 L 504.00625175552784,115.73805670202752 L 504.0059830782738,115.73455578266919 L 504.005698170435,115.73104123639332 L 504.00539711913507,115.72751303816437 L 504.0050800114979,115.72397116294675 L 504.0047469346473,115.7204155857049 L 504.00439797570704,115.71684628140324 L 504.00403322180085,115.7132632250062 L 504.00365276005255,115.70966639147822 L 504.00325667758597,115.70605575578372 L 504.0028450615248,115.70243129288714 L 504.0024179989929,115.69879297775289 L 504.00197557711397,115.69514078534542 L 504.0015178830119,115.69147469062915 L 504.0010450038105,115.68779466856851 L 504.0005570266334,115.68410069412793 L 504.00005403860445,115.68039274227185 L 503.9972009758019,115.68066993981866 L 503.994050125045,115.68138523540154 L 503.99087751764284,115.68206531413125 L 503.9876835917404,115.68271068969504 L 503.98446878548265,115.68332187578017 L 503.98123353701465,115.68389938607385 L 503.9779782844813,115.68444373426333 L 503.97470346602773,115.68495543403584 L 503.9714095197989,115.68543499907864 L 503.9680968839397,115.68588294307895 L 503.9647659965953,115.68629977972404 L 503.96141729591056,115.68668602270111 L 503.9580512200306,115.68704218569744 L 503.95466820710027,115.68736878240024 L 503.9512686952647,115.68766632649677 L 503.94785312266885,115.68793533167425 L 503.94442192745765,115.68817631161996 L 503.9409755477762,115.68838978002108 L 503.93751442176944,115.6885762505649 L 503.9340389875824,115.68873623693864 L 503.9305496833601,115.68887025282955 L 503.92704694724745,115.68897881192485 L 503.9235312173895,115.68906242791181 L 503.9200029319313,115.68912161447764 L 503.9164625290178,115.68915688530961 L 503.91291044679394,115.68916875409494 L 503.9093471234048,115.68915773452086 L 503.9057729969954,115.68912434027465 L 503.9021885057107,115.68906908504351 L 503.89859408769564,115.68899248251469 L 503.8949901810953,115.68889504637545 L 503.8913772240547,115.68877729031301 L 503.8877556547187,115.68863972801462 L 503.88412591123245,115.68848287316752 L 503.8804884317409,115.68830723945894 L 503.876843654389,115.68811334057612 L 503.87319201732186,115.68790169020632 L 503.86953395868437,115.68767280203677 L 503.86586991662153,115.6874271897547 L 503.86220032927844,115.68716536704737 L 503.8585256348,115.686887847602 L 503.85484627133127,115.68659514510584 L 503.8511626770172,115.68628777324612 L 503.8474752900028,115.6859662457101 L 503.8437845484331,115.68563107618502 L 503.8400908904531,115.68528277835809 L 503.8363947542078,115.68492186591658 L 503.8326965778421,115.68454885254772 L 503.82899679950117,115.68416425193875 L 503.8252958573299,115.6837685777769 L 503.8215941894732,115.68336234374944 L 503.8178922340763,115.68294606354358 L 503.814190429284,115.68252025084658 L 503.8104892132414,115.68208541934567 L 503.8067890240935,115.68164208272809 L 503.80309029998523,115.68119075468108 L 503.7993934790617,115.68073194889189 L 503.79569899946773,115.68026617904775 L 503.79200729934854,115.6797939588359 L 503.7883188168489,115.67931580194359 L 503.78463399011406,115.67883222205805 L 503.7809532572888,115.67834373286652 L 503.77727705651824,115.67785084805625 L 503.7736058259473,115.67735408131446 L 503.76994000372105,115.67685394632842 L 503.76628002798446,115.67635095678536 L 503.76262633688253,115.6758456263725 L 503.7589793685603,115.67533846877711 L 503.75533956116266,115.67482999768642 L 503.7517073528347,115.67432072678766 L 503.7480831817214,115.67381116976806 L 503.7444674859678,115.67330184031489 L 503.74086070371885,115.67279325211538 L 503.7372632731195,115.67228591885676 L 503.7336756323148,115.67178035422629 L 503.7300982194498,115.67127707191118 L 503.7265314726695,115.6707765855987 L 503.72297583011874,115.67027940897607 L 503.7194317299427,115.66978605573054 L 503.7158996102863,115.66929703954936 L 503.7123799092945,115.66881287411975 L 503.70887306511236,115.66833407312896 L 503.7053795158849,115.66786115026423 L 503.70189969975706,115.6673946192128 L 503.69843405487387,115.66693499366191 L 503.69498301938035,115.6664827872988 L 503.69154703142146,115.66603851381072 L 503.6881265291422,115.66560268688488 L 503.68472195068756,115.66517582020856 L 503.6813337342026,115.66475842746897 L 503.6779623178322,115.66435102235337 L 503.67460813972156,115.66395411854899 L 503.67127163801547,115.66356822974306 L 503.66795325085906,115.66319386962284 L 503.66465341639724,115.66283155187557 L 503.66137257277506,115.66248179018848 L 503.65811115813756,115.66214509824881 L 503.65486961062965,115.6618219897438 L 503.65164836839637,115.6615129783607 L 503.64844786958275,115.66121857778674 L 503.64526855233373,115.66093930170916 L 503.64211085479434,115.66067566381523 L 503.6389752151096,115.66042817779214 L 503.63586207142447,115.66019735732715 L 503.63277186188395,115.65998371610752 L 503.6297050246331,115.65978776782048 L 503.6266619978168,115.65961002615325 L 503.6236432195802,115.65945100479308 L 503.6206491280682,115.65931121742723 L 503.61768016142577,115.65919117774293 L 503.614736757798,115.65909139942741 L 503.6118193553299,115.65901239616792 L 503.6089283921663,115.6589546816517 L 503.6060643064524,115.65891876956599 L 503.60322753633307,115.65890517359801 L 503.6004185199534,115.65891440743503 L 503.59763769545833,115.65894698476428 L 503.59488550099286,115.65900341927299 L 503.592162374702,115.65908422464842 L 503.5894687547308,115.6591899145778 L 503.5868050792241,115.65932100274836 L 503.5841717863271,115.65947800284735 L 503.58156931418466,115.65966142856202 L 503.5789981009419,115.65987179357958 L 503.57645858474365,115.6601096115873 L 503.573951203735,115.66037539627241 L 503.57147639606103,115.66066966132216 L 503.56903459986665,115.66099292042378 L 503.5666262532969,115.6613456872645 L 503.56425179449667,115.66172847553159 L 503.5619116616111,115.66214179891226 L 503.5596062927851,115.66258617109376 L 503.5573361261637,115.66306210576333 L 503.5551015998919,115.66357011660821 L 503.5529031521147,115.66411071731567 L 503.5507412209771,115.66468442157289 L 503.5486162446241,115.66529174306716 L 503.5465286612006,115.6659331954857 L 503.54447890885183,115.66660929251576 L 503.5424674257226,115.66732054784457 L 503.54049464995796,115.66806747515936 L 503.5385610197029,115.66885058814741 L 503.5366669731024,115.66967040049592 L 503.5348129483015,115.67052742589215 L 503.53299938344526,115.67142217802332 L 503.53122671667853,115.67235517057671 L 503.52949538614644,115.67332691723952 L 503.5278058299939,115.67433793169901 L 503.52615848636594,115.67538872764241 L 503.52455379340756,115.67647981875699 L 503.5229921892638,115.67761171872995 L 503.52147411207955,115.67878494124855 L 503.52,115.68 L 503.5214503286156,115.68283418383629" fill="none" stroke="#a99b34" stroke-width="0.1"/>
	<path d="M 502.08,125.76000000000002 L 502.08,125.76000000000002 L 502.45516473610434,125.00379388620584 L 503.01056683920234,125.55919598930389" fill="none" stroke="#0f44df" stroke-width="0.1"/>
	<path d="M 218.87999999999997,32.159775605199364 L 218.88000000000002,32.15977560519937 L 219.05466813797116,31.203072893272005 L 220.08450029759152,32.2329050528924" fill="none" stroke="#8eabfa" stroke-width="0.1"/>
	<path d="M 520.32,158.39999999999995 L 520.32,158.4 L 520.4909753164521,157.43960446655365 L 520.8000000000001,157.7486291501016" fill="none" stroke="#de478e" stroke-width="0.1"/>
	<path d="M 520.7645445810284,151.95272768001132 L 520.8512115718526,152.03939467083555" fill="none" stroke="#c65748" stroke-width="0.1"/>
	<path d="M 137.28091340576046,104.15630810818982 L 137.28091340576046,104.15630810818982 L 137.39187803062148,103.1359018831523 L 138.04159660728382,103.78562045981468 L 138.06137527960905,102.67402828224144 L 138.6379281653403,103.25058116797267 L 138.76075915837797,102.24204131111185 L 139.18728554119463,102.66856769392851" fill="none" stroke="#00590b" stroke-width="0.1"/>
	<path d="M 8.811695123814944,579.8399999999999 L 10.54581620310495,581.5741210792899 L 9.968064950367094,579.8649989766535 L 11.134885836989802,581.0318198632763 L 11.017487831773536,579.7830510081616 L 12.082334858880683,580.8478980352687" fill="none" stroke="#9f31ec" stroke-width="0.1"/>
	<path d="M 59.52414549378347,419.04265714546597 L 59.52414549378347,419.04265714546597 L 59.515861119613646,417.9030019213977 L 60.47585027797408,418.8629910797581 L 59.64154244952452,416.89731240141003 L 60.391853041310284,417.64762299319585" fill="none" stroke="#87c8dc" stroke-width="0.1"/>
	<path d="M 517.9207075566874,155.99950327032127 L 517.9207075566874,155.9995032703213" fill="none" stroke="#388ca5" stroke-width="0.1"/>
	<path d="M 518.8821585239161,156.48199235438818 L 518.8821585239161,156.4819923543882" fill="none" stroke="#dcdd96" stroke-width="0.1"/>
	<path d="M 54.47859148614865,406.9648515584137 L 55.377171523463794,407.8634315957289 L 54.65518927660231,406.01007849896894 L 55.70125537019702,407.0561445925636 L 54.718870727332735,404.9423890998009 L 55.834686118223175,406.0582044906913 L 55.52828617729841,404.6204336998681 L 55.71434640055162,404.8064939231213" fill="none" stroke="#732e91" stroke-width="0.1"/>
	<path d="M 495.9211186592157,116.55124095712273 L 497.9074282922344,118.53755059014138 L 496.43535874327785,115.93411019128618 L 498.3766597848016,117.87541123280998 L 497.33238170426733,115.69976230237724 L 498.69456080737666,117.06194140548648" fill="none" stroke="#d5d56a" stroke-width="0.1"/>
	<path d="M 74.39903775282734,555.8386813923019 L 74.39903775282734,555.8386813923019 L 74.36556522336261,554.6738380129386 L 75.59588754902198,555.904160338598 L 75.35920731614992,554.5361092558275 L 76.37891262987341,555.555814569551" fill="none" stroke="#c2fad8" stroke-width="0.1"/>
	<path d="M 580.9184202673998,537.0505733918338 L 580.9184202674011,537.050573391835 L 580.8171998119237,535.8179820864591 L 582.2919763523904,537.292758626926 L 581.3976919252432,535.2671033498804 L 583.1000909753326,536.9695023999698 L 582.11745721388,534.8554977886189 L 583.7946663415969,536.5327069163354 L 582.9380584431304,534.5447281679707 L 584.351173006688,535.9578427315283 L 583.8847351841353,534.3600340590772 L 584.8201843353213,535.2954832102631" fill="none" stroke="#f55619" stroke-width="0.1"/>
	<path d="M 592.3800663799535,521.1224740401759 L 592.3800663799583,521.1224740401806 L 591.8687078561468,519.4797446664709 L 592.9693938731251,520.5804306834492 L 591.8860449414623,518.3657109018878 L 593.2054015966833,519.685067557109 L 592.4705793874014,517.8188744979287 L 593.5141791548208,518.862474265348 L 592.9149674125644,517.1318916731932 L 593.8585761303381,518.0755003909669 L 593.1966984367732,516.2822518475036 L 594.1112445846168,517.1967979953472 L 593.3080974919023,515.2622800527344 L 594.2102824197095,516.1644649805417 L 593.2818001213247,514.1046118322583 L 594.1528328746847,514.9756445856183 L 593.2096815462738,512.901122407309 L 594.1452655983827,513.8367064594179 L 593.2119602501036,511.77203026124045 L 594.278017337885,512.8380873490217 L 593.438458595104,510.86715775634235 L 594.5560346127841,511.9847337740224 L 593.8257900424527,510.1231183537925 L 595.0204852834754,511.3178135948154 L 594.3604991548943,509.52645661633596 L 595.5745415175384,510.74049897897976 L 594.9825785743045,509.01716518584783 L 596.1712722478735,510.20585885941665 L 595.5062427613063,508.409458522951 L 596.7834189288695,509.6866346905142 L 595.9880427257533,507.7598876374995 L 597.3900336617947,509.16187857354106 L 596.4654192190914,507.10589328093914 L 597.9702013710856,508.6106754329336 L 597.0394525111237,506.5485557230732 L 598.4972256341791,508.0063288461286 L 597.7065507085246,506.0842830705756 L 598.9277717563461,507.3055041183972 L 598.4210133863703,505.66737489852295 L 599.1664921825068,506.4128536946594" fill="none" stroke="#5f0460" stroke-width="0.1"/>
	<path d="M 191.08346651713657,375.49827287651624 L 191.08346651714686,375.4982728765265 L 191.28503801540043,374.56847352488165 L 192.80680983812152,376.0902453476028 L 192.2399051972043,374.391969856787 L 193.4728039598653,375.624868619448 L 193.37559160735077,374.39628541703496 L 193.4477036096288,374.468397419313" fill="none" stroke="#4db7ca" stroke-width="0.1"/>
	<path d="M 214.56,381.9060662034857 L 215.55977468049446,382.9058408839801 L 215.15147733917706,381.3661726927642 L 216.52501568811067,382.73971104169783 L 215.7938534603997,380.87717796408833 L 217.24706935928455,382.3303938629732 L 216.57580628732214,380.5277599411123 L 217.43841720251984,381.39037085631" fill="none" stroke="#82d508" stroke-width="0.1"/>
	<path d="M 159.75381406668376,379.2751066267891 L 161.02201793309985,380.54331049320524 L 159.90043704082007,378.29035875102693 L 161.5739858929418,379.96390760314864 L 160.14882266688957,377.40737352719793 L 161.9147290100081,379.1732798703165 L 160.48324694403513,376.61042695444496 L 162.16185635894465,378.28903636935456 L 160.92947238516774,375.9252815456792 L 162.33296085649653,377.3287700170079 L 161.6546992781727,375.5191375887856 L 162.3675882290957,376.23202653970856" fill="none" stroke="#9d74e0" stroke-width="0.1"/>
	<path d="M 207.90155211702097,384.1667801172733 L 209.36438256140192,385.62961056165415 L 208.23933368261476,383.3731908329685 L 210.15433955603365,385.2881967063875 L 208.8984436228137,382.900929923269 L 210.53446722926037,384.5369535297156 L 209.37767466747113,382.24879011802796 L 210.8405734035714,383.7116888541282 L 209.80998627402593,381.54973087468426 L 211.12826320184342,382.8680078025017 L 210.31601952459195,380.9243932753518 L 211.42955694180463,382.03793069256443 L 211.15352159635648,380.6305244972179 L 212.10725027591272,381.58425317677415 L 212.25129052254331,380.59692257350616 L 212.6830444584941,381.02867650945694" fill="none" stroke="#b22aec" stroke-width="0.1"/>
	<path d="M 63.84915219234111,501.91178119477115 L 64.96828923284133,503.0309182352714 L 64.49854200532523,501.4298001578568 L 65.45062781541309,502.38188596794464" fill="none" stroke="#1a16af" stroke-width="0.1"/>
	<path d="M 58.29544773621,503.5860454610009 L 60.146899498110265,505.43749722290113 L 58.726545304408276,502.88577217930066 L 60.56003587541378,504.71926275030614 L 59.53229532016916,502.5601513451631 L 60.60142575321118,503.6292817782051" fill="none" stroke="#96f303" stroke-width="0.1"/>
	<path d="M 38.69192413528074,518.2553059566419 L 40.055285273446735,519.618667094808 L 38.74427608284016,517.1762870543029 L 40.71618324338466,519.1481942148473 L 39.28190876858402,516.5825488901482 L 41.11932918392095,518.4199693054852" fill="none" stroke="#19a64e" stroke-width="0.1"/>
	<path d="M 143.45970415900524,440.43518991454494 L 143.45970415900584,440.4351899145455 L 143.215236679926,439.0593515855672 L 144.477,440.3211149056412 L 143.64449479193365,438.35723884767634 L 144.47699999999998,439.18974405574266" fill="none" stroke="#2c7bbd" stroke-width="0.1"/>
	<path d="M 457.4473381764914,86.87873600332888 L 457.4473381764918,86.87873600332924 L 457.471110235868,85.77113721280679 L 458.5447010348964,86.8447280118353 L 457.78035617836406,84.94901230540444 L 459.2927506707295,86.46140679776995 L 459.0965047107945,85.1337899879365 L 460.0091161879516,86.04640146509338" fill="none" stroke="#29ef48" stroke-width="0.1"/>
	<path d="M 472.80464857284977,94.56277887494494 L 472.80464857284977,94.56277887494494 L 473.36809446837657,93.9948539205733 L 475.7373997203602,96.36415917255685 L 474.09771260833776,93.59310121063604 L 476.5145111121393,96.0098997144376" fill="none" stroke="#554b3e" stroke-width="0.1"/>
	<path d="M 467.5278057012464,90.55219976151008 L 470.3212489573649,93.34564301762869 L 468.60958546930476,90.50260867967009 L 472.06356146457676,93.95658467494214 L 470.9258075387433,91.68745989921018 L 472.79048679443025,93.55213915489702" fill="none" stroke="#7658b6" stroke-width="0.1"/>
	<path d="M 378.24309999148954,783.8370998438179 L 378.24309999149045,783.8370998438189 L 378.249152192341,782.7117811947709 L 379.36828923284133,783.8309182352713 L 378.8985420053253,782.2298001578567 L 379.8506278154133,783.1818859679447" fill="none" stroke="#8246d8" stroke-width="0.1"/>
	<path d="M 282.2491520448118,761.1117811949133 L 283.368111061603,762.2307402117045 L 282.8985417270507,760.6298000272537 L 283.8504878174943,761.5817461176973" fill="none" stroke="#c42f84" stroke-width="0.1"/>
	<path d="M 349.4491520448118,753.9117811949135 L 350.56811106160274,755.0307402117045 L 350.09854172705064,753.4298000272538 L 351.05048781749406,754.3817461176973" fill="none" stroke="#39ba89" stroke-width="0.1"/>
	<path d="M 344.64915204481184,749.1117811949133 L 345.76811106160295,750.2307402117045 L 345.2985417270507,748.6298000272537 L 346.2504878174943,749.5817461176973" fill="none" stroke="#28b0da" stroke-width="0.1"/>
	<path d="M 315.8429999999935,740.6369999999933 L 315.84300000000593,740.6370000000059 L 315.84915204481194,739.5117811949135 L 316.968111061603,740.6307402117045 L 316.49854172705074,739.0298000272537 L 317.45048781749426,739.9817461176972" fill="none" stroke="#23db39" stroke-width="0.1"/>
	<path d="M 298.083,775.197 L 298.083,775.197 L 298.0830448241911,774.0656739742925 L 298.96769882250453,774.950327972606 L 297.99208921774687,772.84334751795 L 299.1247066783701,773.9759649785731 L 298.24884859840233,771.9687360487069 L 299.0144054240246,772.7342928743291" fill="none" stroke="#3fe481" stroke-width="0.1"/>
	<path d="M 294.2369999999989,770.4019999999988 L 294.237,770.4019999999999 L 294.00384884579285,769.0374779958943 L 295.6015220041057,770.635151154207 L 294.44431531088344,768.3465736110863 L 296.29242638891355,770.1946846891165 L 295.0819729597575,767.8528604100619 L 296.7861395899381,769.5570270402425 L 296.03320532960385,767.6727219300097 L 296.96627806999027,768.6057946703962" fill="none" stroke="#bab8fa" stroke-width="0.1"/>
	<path d="M 320.28009990795033,760.7477342993773 L 321.5378081895054,762.0054425809323 L 320.8523219450955,760.1885854866239 L 322.32973247693633,761.6659960184647 L 321.6497861235602,759.8546788151901 L 323.0781077492463,761.2830004408762 L 322.6064466791261,759.6799685208575 L 323.7720776505523,760.8455994922838 L 323.7483829330986,759.6905339249315 L 324.3562159383175,760.2983669301505" fill="none" stroke="#68066c" stroke-width="0.1"/>
	<path d="M 301.220765418485,779.6224840636412 L 302.7927259612865,781.1944446064427 L 301.336284266448,778.6066320617058 L 303.31945519395646,780.5898029892141 L 301.7006941260837,777.8396710714429 L 303.5864853481621,779.7254622935213 L 302.63506288135153,777.6426689768123 L 303.37132402091595,778.3789301163768" fill="none" stroke="#a55701" stroke-width="0.1"/>
	<path d="M 396.4789087674328,767.9885370042468 L 396.47890876743287,767.9885370042468 L 396.4117577543823,766.7900151412979 L 396.9265362174073,767.3047936043229 L 396.545920909461,765.7928074464782 L 397.3689717453006,766.6158582823177 L 396.74935182569266,764.8648675128111 L 397.8114072731939,765.9269229603125 L 397.00803337409866,763.9921782113188 L 398.25384280108716,765.2379876383072 L 397.32778419643523,763.1805581837568 L 398.6962783289804,764.549052316302 L 397.73874206621866,762.4601452036419 L 398.92358147343526,763.6449846108584 L 398.40276404417,761.9927963316946 L 398.9153727311713,762.5054050186959" fill="none" stroke="#e1b24a" stroke-width="0.1"/>
	<path d="M 296.81784644044063,779.0442879238636 L 297.86068453659414,780.0871260200171 L 297.3892736190664,778.4843442525909 L 299.0006058568702,780.0956764903947 L 298.05051646854633,778.0142162521723 L 300.09937570924586,780.0630754928719 L 298.79452833777134,777.6268572714989 L 300.53795993698435,779.3702888707119 L 299.67929340025046,777.3802514840795 L 300.5366924705826,778.2376505544116" fill="none" stroke="#d992c7" stroke-width="0.1"/>
	<path d="M 259.5926052984285,763.418952900567 L 260.63614328759877,764.4624908897374 L 259.5839029860023,762.2788797382423 L 261.19623061597855,763.8912073682185 L 259.6165825202489,761.1801884225905 L 261.6664368415734,763.230042743915 L 260.30980464850603,760.742039700949 L 262.0537699783069,762.4860050307499 L 261.44245213466985,760.7433163372144 L 262.30021881735047,761.601083019895" fill="none" stroke="#30cd0a" stroke-width="0.1"/>
	<path d="M 372.4576688271353,784.901056493543 L 373.37731891623315,785.8207065826409 L 372.7028600822089,784.0148768987181 L 373.9859319545833,785.2979487710926 L 373.06722000518494,783.2478659717957 L 374.5425671217764,784.7232130883872 L 373.64572903335255,782.6950041500647 L 375.0680719689959,784.1173470857082 L 374.27614417974445,782.1940484465582 L 375.56933018651125,783.487234453325 L 374.6524445739066,781.4389779908217 L 376.04800234284835,782.8345357597636 L 374.9730426430099,780.6282052100266 L 376.5018599345835,782.1570225016003 L 375.40827584622207,779.9320675633403 L 376.92228617167393,781.4460778887922 L 376.1333265129474,779.5257473801672 L 377.2776935021054,780.6701143693252" fill="none" stroke="#c122dd" stroke-width="0.1"/>
	<path d="M 248.57401082918628,770.6476180644429 L 250.05369399131578,772.1273012265723 L 248.61048632688855,769.5527227122466 L 251.06255304452822,772.0047894298863 L 249.5116334451394,769.322498980599 L 251.9871117020572,771.7979772375168 L 250.60908097468626,769.2885756602474 L 252.85285011581144,771.5323448013725 L 251.73371190960398,769.2818357452666 L 253.6619695840694,771.210093419732 L 252.87917379991083,769.2959267856749 L 254.39957738209205,770.816330367856 L 254.05351558964446,769.33889772551 L 255.00441211713806,770.2897942530036" fill="none" stroke="#27af57" stroke-width="0.1"/>
	<path d="M 474.2491520448118,737.1117811949133 L 475.368111061603,738.2307402117045 L 474.8985417270507,736.6298000272537 L 475.85048781749424,737.5817461176972" fill="none" stroke="#86e811" stroke-width="0.1"/>
	<path d="M 483.8429999999915,731.0369999999914 L 483.8430000000001,731.037 L 483.8489704152548,729.9115995653564 L 484.96811114167343,731.0307402917749 L 484.4984379768808,729.4296962770837 L 485.4504874618839,730.3817457620868" fill="none" stroke="#b73d32" stroke-width="0.1"/>
	<path d="M 483.84915204481194,722.7117811949133 L 484.96811106160294,723.8307402117044 L 484.4985417270507,722.2298000272536 L 485.4504878174942,723.1817461176971" fill="none" stroke="#82654d" stroke-width="0.1"/>
	<path d="M 555.8489704152545,713.1115995653561 L 556.9681111416735,714.2307402917751 L 556.4984379768805,712.6296962770837 L 557.4504874618838,713.581745762087" fill="none" stroke="#68c67b" stroke-width="0.1"/>
	<path d="M 473.283,735.837 L 473.2830000000001,735.837 L 473.39203548998233,734.8146646400838 L 473.8486854249492,735.2713145750508 L 473.83661745409506,734.1278757542981 L 474.4143708498985,734.7056291501015 L 474.4749941759145,733.634881626219 L 474.9800562748477,734.1399437251522 L 475.3781952299506,733.4067118303567 L 475.545741699797,733.574258300203" fill="none" stroke="#3659f6" stroke-width="0.1"/>
	<path d="M 521.2830000000001,709.437 L 521.2830000000001,709.437 L 521.3043326782329,708.3269618283344 L 522.1487894929296,709.1714186430311 L 521.19241348498,707.0836717851831 L 522.3352237395034,708.2264820397065 L 521.2858474250022,706.045734875307 L 522.2441789739121,707.0040664242168 L 521.9424832654239,705.57099986583 L 522.1948692476246,705.8233858480309" fill="none" stroke="#ac8c17" stroke-width="0.1"/>
	<path d="M 563.4817478746153,601.3804048875126 L 563.4817478746215,601.3804048875188 L 562.8813088676626,599.6485950306617 L 564.9621063070141,601.729392470013 L 563.4483987595246,599.0843140726251 L 565.5566207612152,601.1925360743155" fill="none" stroke="#92a3c6" stroke-width="0.1"/>
	<path d="M 510.04881154936095,696.8464093296407 L 511.58044801467753,698.3780457949572 L 510.386999328347,696.0532262587282 L 512.456620639971,698.1228475703522 L 511.07113770738215,695.6059937878648 L 513.2061381036583,697.7409941841407 L 511.8874397435623,695.2909249741466 L 513.84602675717,697.2495119877541 L 512.776828003307,695.0489423839928 L 514.3388795186155,696.6109938993013 L 513.8003563555847,694.941099886372 L 514.423946327036,695.564689857823" fill="none" stroke="#861e51" stroke-width="0.1"/>
	<path d="M 205.4429999999981,666.2369999999979 L 205.44299999999984,666.2369999999997 L 205.4491520448119,665.1117811949133 L 206.56811106160302,666.2307402117044 L 206.0985417270507,664.6298000272536 L 207.05048781749423,665.5817461176971" fill="none" stroke="#3ff0e8" stroke-width="0.1"/>
	<path d="M 23.04299999999986,654.2369999999999 L 23.04300000000002,654.237 L 23.048970415254736,653.1115995653562 L 24.168111141673382,654.2307402917749 L 23.698437976880626,652.6296962770837 L 24.650487461883795,653.5817457620868" fill="none" stroke="#beb6f4" stroke-width="0.1"/>
	<path d="M 96.86247699162422,600.3963246370568 L 97.90740873999917,601.4412563854318 L 97.6070939203677,600.0095707159018 L 98.87909304934098,601.281569844875" fill="none" stroke="#5b501b" stroke-width="0.1"/>
	<path d="M 39.82103218012704,664.7774539215312 L 39.82103218012704,664.7774539215312 L 40.067386263601136,663.8924371551068 L 41.20975091141211,665.0348018029177 L 40.58312175754977,663.2768017991569 L 41.9217216852051,664.6154017268123 L 41.17847384877642,662.7407830404851 L 42.400228204184074,663.9625373958928 L 41.90278650058085,662.3337248423911 L 42.505421777694856,662.9363601195051" fill="none" stroke="#79b460" stroke-width="0.1"/>
	<path d="M 52.166819368240496,661.3297741599197 L 54.991232204000696,664.1541869956799 L 54.42810107339324,662.4596850151739 L 55.74387352786371,663.7754574696445" fill="none" stroke="#9a8fbb" stroke-width="0.1"/>
	<path d="M 39.60484884579285,660.0774779958944 L 41.20252200410564,661.6751511542071 L 40.045315310883495,659.3865736110865 L 41.89342638891355,661.2346846891166 L 40.682972959757514,658.8928604100621 L 42.387139589938,660.5970270402426 L 41.63420532960377,658.7127219300099 L 42.56727806999021,659.6457946703963" fill="none" stroke="#331c63" stroke-width="0.1"/>
	<path d="M 43.87658490791684,661.4594904083417 L 45.14152532638811,662.724430826813 L 44.1902592357117,660.641793886238 L 45.741508818809145,662.1930434693355 L 44.563851592827206,659.8840153934551 L 46.10926938229775,661.4294331829257 L 45.02546273972679,659.2142556904562 L 46.308460442127604,660.497253392857 L 45.78892488404467,658.8463469848756 L 46.21496925313931,659.2723913539702" fill="none" stroke="#369ce5" stroke-width="0.1"/>
	<path d="M 53.34765207516856,655.334672716914 L 58.03948074843726,660.0265013901828" fill="none" stroke="#b41d61" stroke-width="0.1"/>
	<path d="M 54.284838647176954,655.140488439024 L 55.64268444588361,656.4983342377307 L 55.432533785624244,655.1568127275729 L 55.7189173786286,655.4431963205772" fill="none" stroke="#f49056" stroke-width="0.1"/>
	<path d="M 524.3482838957844,151.69691304588605 L 524.64,151.98862915010162" fill="none" stroke="#f6674f" stroke-width="0.1"/>
	<path d="M 525.3040975044607,152.65239961644033 L 525.6063595253333,152.95466163731314" fill="none" stroke="#c6573e" stroke-width="0.1"/>
	<path d="M 526.0799999999999,154.55999999999995 L 526.08,154.56 L 526.7463275322864,154.09495668238796 L 527.0400000000002,154.3886291501017" fill="none" stroke="#cdf40e" stroke-width="0.1"/>
	<path d="M 506.88,118.55999999999997 L 506.88,118.55999999999999" fill="none" stroke="#649b32" stroke-width="0.1"/>
	<path d="M 210.41137084989853,25.43999999999999 L 211.17152408310548,26.200153233206933" fill="none" stroke="#2e0810" stroke-width="0.1"/>
	<path d="M 503.5845637029481,126.61319285304965 L 504.0,127.02862915010142" fill="none" stroke="#f07be7" stroke-width="0.1"/>
	<path d="M 504.4639561028419,129.4122782504539 L 505.43946842817854,130.38779057579052 L 504.7779292426651,128.5948805403785 L 505.12307045362246,128.94002175133605" fill="none" stroke="#06e632" stroke-width="0.1"/>
	<path d="M 499.7687360429077,122.30873418840616 L 499.7687360429084,122.3087341884069 L 499.68258481848375,121.09121211408376 L 500.62557668474244,122.0342039803425 L 500.20467104839383,120.48192749409523 L 500.62516286399125,120.90241930969275" fill="none" stroke="#a8c92a" stroke-width="0.1"/>
	<path d="M 213.12046037691715,28.79999999999993 L 213.12046037691718,28.800000000000008 L 213.3015117434665,27.84968051665085 L 214.07660200265207,28.624770775836407" fill="none" stroke="#25fc5f" stroke-width="0.1"/>
	<path d="M 213.7175967287619,30.18556725437238 L 215.13285801541716,31.60082854102761 L 214.0741678155136,29.41076749122555 L 215.91912372384712,31.25572339955912 L 214.6064380826463,28.811666908459777 L 216.49640554047602,30.7016343662895 L 215.4233939752536,28.49725195116858 L 216.6827240789611,29.7565820548761" fill="none" stroke="#275b0e" stroke-width="0.1"/>
	<path d="M 556.0410502484538,225.62621440702333 L 558.8316822609268,228.41684641949638 L 557.8441711925152,226.29796450118627 L 559.5548586372156,228.00865194588675" fill="none" stroke="#0e601f" stroke-width="0.1"/>
	<path d="M 152.64300000000003,397.438 L 152.643,397.438 L 152.60344750094632,396.26707665104783 L 153.5862681485936,397.2498972986951 L 153.53437751380346,396.0666358140065 L 154.52953629718724,397.06179459739025 L 154.0575216092179,395.45840905952235 L 155.0449045146829,396.4457919649874 L 154.54819667477992,394.817713275186 L 155.0588964245247,395.32841302493074" fill="none" stroke="#c4ed22" stroke-width="0.1"/>
	<path d="M 23.524286377756145,564.4892520731867 L 23.52757275551229,564.4925041463733 L 23.530859133268432,564.49575621956 L 23.534145511024576,564.4990082927467 L 23.53743188878072,564.5022603659334 L 23.54071826653686,564.50551243912 L 23.544004644293004,564.5087645123066 L 23.547291022049148,564.5120165854933 L 23.55057739980529,564.5152686586799 L 23.553863777561435,564.5185207318666 L 23.55715015531758,564.5217728050533 L 23.560436533073723,564.52502487824 L 23.563722910829867,564.5282769514266 L 23.56700928858601,564.5315290246133 L 23.570295666342155,564.5347810978 L 23.5735820440983,564.5380331709866 L 23.57686842185444,564.5412852441733 L 23.580154799610582,564.54453731736 L 23.583441177366726,564.5477893905467 L 23.58672755512287,564.5510414637333 L 23.590013932879014,564.5542935369199 L 23.593300310635158,564.5575456101066 L 23.5965866883913,564.5607976832932 L 23.599873066147445,564.5640497564799 L 23.60315944390359,564.5673018296666 L 23.606445821659733,564.5705539028532 L 23.609732199415873,564.5738059760399 L 23.613018577172017,564.5770580492266 L 23.61630495492816,564.5803101224133 L 23.619591332684305,564.5835621955999 L 23.62287771044045,564.5868142687866 L 23.626164088196592,564.5900663419733 L 23.629450465952736,564.59331841516 L 23.63273684370888,564.5965704883466 L 23.636023221465024,564.5998225615332 L 23.639309599221168,564.6030746347199 L 23.64259597697731,564.6063267079065 L 23.645882354733452,564.6095787810932 L 23.649168732489596,564.6128308542799 L 23.65245511024574,564.6160829274666 L 23.655741488001883,564.6193350006532 L 23.659027865758027,564.6225870738399 L 23.66231424351417,564.6258391470266 L 23.665600621270315,564.6290912202132 L 23.66888699902646,564.6323432933999 L 23.672173376782602,564.6355953665866 L 23.675459754538746,564.6388474397733 L 23.67874613229489,564.6420995129598 L 23.68203251005103,564.6453515861465 L 23.685318887807174,564.6486036593332 L 23.688605265563318,564.6518557325198 L 23.69189164331946,564.6551078057065 L 23.695178021075606,564.6583598788932 L 23.69846439883175,564.6616119520799 L 23.701750776587893,564.6648640252665 L 23.705037154344037,564.6681160984532 L 23.70832353210018,564.6713681716399 L 23.711609909856325,564.6746202448265 L 23.71489628761247,564.6778723180132 L 23.71818266536861,564.6811243911999 L 23.721469043124753,564.6843764643866 L 23.724755420880896,564.6876285375731 L 23.72804179863704,564.6908806107598 L 23.731328176393184,564.6941326839465 L 23.734614554149328,564.6973847571331 L 23.73790093190547,564.7006368303198 L 23.741187309661616,564.7038889035065 L 23.74447368741776,564.7071409766932 L 23.747760065173903,564.7103930498798 L 23.751046442930047,564.7136451230665 L 23.754332820686187,564.7168971962532 L 23.75761919844233,564.7201492694398 L 23.760905576198475,564.7234013426265 L 23.76419195395462,564.7266534158132 L 23.767478331710763,564.7299054889999 L 23.770764709466906,564.7331575621864 L 23.77405108722305,564.7364096353731 L 23.777337464979194,564.7396617085598 L 23.780623842735338,564.7429137817464 L 23.78391022049148,564.7461658549331 L 23.787196598247622,564.7494179281198 L 23.790482976003766,564.7526700013065 L 23.79376935375991,564.7559220744931 L 23.797055731516053,564.7591741476798 L 23.800342109272197,564.7624262208665 L 23.80362848702834,564.7656782940531 L 23.806914864784485,564.7689303672398 L 23.81020124254063,564.7721824404265 L 23.813487620296772,564.7754345136132 L 23.816773998052916,564.7786865867997 L 23.82006037580906,564.7819386599864 L 23.8233467535652,564.7851907331731 L 23.826633131321344,564.7884428063597 L 23.829919509077488,564.7916948795464 L 23.833205886833632,564.7949469527331 L 23.836492264589776,564.7981990259198 L 23.83977864234592,564.8014510991064 L 23.843065020102063,564.8047031722931 L 23.846351397858207,564.8079552454798 L 23.84963777561435,564.8112073186664 L 23.852924153370495,564.8144593918531 L 23.85621053112664,564.8177114650398 L 23.85949690888278,564.8209635382264 L 23.862783286638923,564.824215611413 L 23.866069664395066,564.8274676845997 L 23.86935604215121,564.8307197577864 L 23.872642419907354,564.833971830973 L 23.875928797663498,564.8372239041597 L 23.879215175419642,564.8404759773464 L 23.882501553175786,564.8437280505331 L 23.88578793093193,564.8469801237197 L 23.889074308688073,564.8502321969064 L 23.892360686444217,564.8534842700931 L 23.895647064200357,564.8567363432797 L 23.8989334419565,564.8599884164664 L 23.902219819712645,564.8632404896531 L 23.90550619746879,564.8664925628397 L 23.908792575224933,564.8697446360263 L 23.912078952981076,564.872996709213 L 23.91536533073722,564.8762487823997 L 23.918651708493364,564.8795008555863 L 23.921938086249508,564.882752928773 L 23.92522446400565,564.8860050019597 L 23.928510841761792,564.8892570751464 L 23.931797219517936,564.892509148333 L 23.93508359727408,564.8957612215197 L 23.938369975030223,564.8990132947064 L 23.941656352786367,564.902265367893 L 23.94494273054251,564.9055174410797 L 23.948229108298655,564.9087695142664 L 23.9515154860548,564.912021587453 L 23.954801863810943,564.9152736606396 L 23.958088241567086,564.9185257338263 L 23.96137461932323,564.921777807013 L 23.96466099707937,564.9250298801996 L 23.967947374835514,564.9282819533863 L 23.971233752591658,564.931534026573 L 23.974520130347802,564.9347860997597 L 23.977806508103946,564.9380381729463 L 23.98109288586009,564.941290246133 L 23.984379263616233,564.9445423193197 L 23.987665641372377,564.9477943925064 L 23.99095201912852,564.951046465693 L 23.994238396884665,564.9542985388796 L 23.99752477464081,564.9575506120663 L 24.00080692993077,564.9591930700693 L 24.004076200397368,564.9559237996027 L 24.00734547086396,564.9526545291361 L 24.010614741330556,564.9493852586695 L 24.01388401179715,564.9461159882029 L 24.017153282263745,564.9428467177363 L 24.02042255273034,564.9395774472697 L 24.023691823196934,564.9363081768031 L 24.02696109366353,564.9330389063365 L 24.030230364130123,564.9297696358699 L 24.03349963459672,564.9265003654033 L 24.03676890506331,564.9232310949367 L 24.040038175529908,564.9199618244701 L 24.0433074459965,564.9166925540036 L 24.046576716463097,564.913423283537 L 24.04984598692969,564.9101540130704 L 24.053115257396286,564.9068847426038 L 24.05638452786288,564.9036154721372 L 24.059653798329474,564.9003462016706 L 24.062923068796067,564.897076931204 L 24.066192339262663,564.8938076607374 L 24.06946160972926,564.8905383902708 L 24.072730880195852,564.8872691198042 L 24.07600015066245,564.8839998493376 L 24.07926942112904,564.880730578871 L 24.082538691595637,564.8774613084043 L 24.08580796206223,564.8741920379377 L 24.089077232528826,564.8709227674713 L 24.09234650299542,564.8676534970047 L 24.095615773462015,564.864384226538 L 24.098885043928608,564.8611149560714 L 24.102154314395204,564.8578456856048 L 24.105423584861796,564.8545764151382 L 24.108692855328393,564.8513071446716 L 24.111962125794985,564.848037874205 L 24.11523139626158,564.8447686037384 L 24.118500666728174,564.8414993332718 L 24.12176993719477,564.8382300628052 L 24.125039207661366,564.8349607923386 L 24.12830847812796,564.831691521872 L 24.131577748594555,564.8284222514055 L 24.134847019061148,564.8251529809389 L 24.138116289527744,564.8218837104723 L 24.141385559994337,564.8186144400057 L 24.144654830460933,564.8153451695391 L 24.147924100927526,564.8120758990725 L 24.151193371394122,564.8088066286059 L 24.154462641860714,564.8055373581393 L 24.15773191232731,564.8022680876727 L 24.161001182793903,564.7989988172061 L 24.1642704532605,564.7957295467395 L 24.167539723727092,564.7924602762729 L 24.17080899419369,564.7891910058063 L 24.174078264660285,564.7859217353398 L 24.177347535126877,564.7826524648732 L 24.180616805593473,564.7793831944066 L 24.183886076060066,564.77611392394 L 24.187155346526662,564.7728446534734 L 24.190424616993255,564.7695753830068 L 24.19369388745985,564.7663061125402 L 24.196963157926444,564.7630368420736 L 24.20023242839304,564.759767571607 L 24.203501698859633,564.7564983011404 L 24.20677096932623,564.7532290306738 L 24.21004023979282,564.7499597602072 L 24.213309510259418,564.7466904897406 L 24.21657878072601,564.7434212192741 L 24.219848051192606,564.7401519488075 L 24.2231173216592,564.7368826783409 L 24.226386592125795,564.7336134078743 L 24.22965586259239,564.7303441374077 L 24.232925133058984,564.727074866941 L 24.23619440352558,564.7238055964744 L 24.239463673992173,564.7205363260078 L 24.24273294445877,564.7172670555412 L 24.246002214925362,564.7139977850746 L 24.249271485391958,564.710728514608 L 24.25254075585855,564.7074592441414 L 24.255810026325147,564.7041899736748 L 24.25907929679174,564.7009207032083 L 24.262348567258336,564.6976514327417 L 24.26561783772493,564.6943821622751 L 24.268887108191525,564.6911128918085 L 24.272156378658117,564.6878436213419 L 24.275425649124713,564.6845743508753 L 24.27869491959131,564.6813050804087 L 24.281964190057902,564.6780358099421 L 24.2852334605245,564.6747665394755 L 24.28850273099109,564.6714972690089 L 24.291772001457687,564.6682279985423 L 24.29504127192428,564.6649587280757 L 24.298310542390876,564.6616894576091 L 24.30157981285747,564.6584201871426 L 24.304849083324065,564.655150916676 L 24.308118353790658,564.6518816462094 L 24.311387624257254,564.6486123757428 L 24.314656894723846,564.6453431052762 L 24.317926165190443,564.6420738348096 L 24.321195435657035,564.638804564343 L 24.32446470612363,564.6355352938764 L 24.327733976590224,564.6322660234098 L 24.33100324705682,564.6289967529432 L 24.334272517523416,564.6257274824766 L 24.33754178799001,564.62245821201 L 24.340811058456605,564.6191889415434 L 24.344080328923198,564.6159196710769 L 24.347349599389794,564.6126504006103 L 24.350618869856387,564.6093811301437 L 24.353888140322983,564.6061118596771 L 24.357157410789576,564.6028425892105 L 24.360426681256172,564.5995733187439 L 24.363695951722764,564.5963040482773 L 24.36696522218936,564.5930347778107 L 24.370234492655953,564.589765507344 L 24.37350376312255,564.5864962368775 L 24.376773033589142,564.5832269664108 L 24.38004230405574,564.5799576959442 L 24.38331157452233,564.5766884254776 L 24.386580844988927,564.573419155011 L 24.389850115455523,564.5701498845445 L 24.393119385922116,564.566880614078 L 24.396388656388712,564.5636113436113 L 24.399657926855305,564.5603420731447 L 24.4029271973219,564.5570728026781 L 24.406196467788494,564.5538035322115 L 24.40946573825509,564.5505342617449 L 24.412735008721683,564.5472649912783 L 24.41600427918828,564.5439957208117 L 24.41927354965487,564.5407264503451 L 24.422542820121468,564.5374571798785 L 24.42581209058806,564.5341879094119 L 24.429081361054656,564.5309186389453 L 24.43235063152125,564.5276493684788 L 24.435619901987845,564.5243800980122 L 24.43888917245444,564.5211108275456 L 24.442158442921034,564.517841557079 L 24.44542771338763,564.5145722866124 L 24.448696983854223,564.5113030161458 L 24.45196625432082,564.5080337456792 L 24.455235524787412,564.5047644752126 L 24.458504795254008,564.501495204746 L 24.4617740657206,564.4982259342794 L 24.465043336187197,564.4949566638128 L 24.46831260665379,564.4916873933462 L 24.471581877120386,564.4884181228796 L 24.47485114758698,564.4851488524131 L 24.478120418053575,564.4818795819465 L 24.478034722111353,564.480012295795 L 24.473411365965887,564.4800412219022 L 24.468788009820422,564.4800701480095 L 24.464164653674956,564.4800990741168 L 24.459541297529494,564.480128000224 L 24.45491794138403,564.4801569263313 L 24.450294585238563,564.4801858524386 L 24.445671229093097,564.4802147785458 L 24.44104787294763,564.4802437046532 L 24.436424516802166,564.4802726307604 L 24.4318011606567,564.4803015568676 L 24.427177804511235,564.4803304829749 L 24.42255444836577,564.4803594090822 L 24.417931092220304,564.4803883351894 L 24.413307736074838,564.4804172612967 L 24.408684379929372,564.480446187404 L 24.404061023783907,564.4804751135113 L 24.39943766763844,564.4805040396185 L 24.394814311492976,564.4805329657258 L 24.39019095534751,564.4805618918331 L 24.385567599202044,564.4805908179403 L 24.38094424305658,564.4806197440477 L 24.376320886911113,564.4806486701549 L 24.371697530765648,564.4806775962621 L 24.367074174620182,564.4807065223695 L 24.362450818474716,564.4807354484767 L 24.35782746232925,564.4807643745839 L 24.353204106183785,564.4807933006913 L 24.34858075003832,564.4808222267985 L 24.343957393892854,564.4808511529058 L 24.33933403774739,564.4808800790131 L 24.334710681601923,564.4809090051203 L 24.33008732545646,564.4809379312276 L 24.325463969310995,564.4809668573349 L 24.32084061316553,564.4809957834422 L 24.316217257020064,564.4810247095494 L 24.3115939008746,564.4810536356567 L 24.306970544729133,564.481082561764 L 24.302347188583667,564.4811114878712 L 24.2977238324382,564.4811404139786 L 24.293100476292736,564.4811693400858 L 24.28847712014727,564.481198266193 L 24.283853764001805,564.4812271923004 L 24.27923040785634,564.4812561184076 L 24.274607051710873,564.4812850445148 L 24.269983695565408,564.4813139706222 L 24.265360339419942,564.4813428967294 L 24.260736983274477,564.4813718228366 L 24.25611362712901,564.4814007489439 L 24.251490270983545,564.4814296750512 L 24.24686691483808,564.4814586011585 L 24.242243558692614,564.4814875272657 L 24.23762020254715,564.481516453373 L 24.232996846401683,564.4815453794803 L 24.228373490256217,564.4815743055875 L 24.22375013411075,564.4816032316949 L 24.219126777965286,564.4816321578021 L 24.21450342181982,564.4816610839093 L 24.20988006567436,564.4816900100167 L 24.205256709528893,564.4817189361239 L 24.200633353383427,564.4817478622311 L 24.19600999723796,564.4817767883385 L 24.191386641092496,564.4818057144457 L 24.18676328494703,564.481834640553 L 24.182139928801565,564.4818635666603 L 24.1775165726561,564.4818924927675 L 24.172893216510634,564.4819214188748 L 24.168269860365168,564.4819503449821 L 24.163646504219702,564.4819792710894 L 24.159023148074237,564.4820081971966 L 24.15439979192877,564.4820371233039 L 24.149776435783306,564.4820660494112 L 24.14515307963784,564.4820949755184 L 24.140529723492374,564.4821239016258 L 24.13590636734691,564.482152827733 L 24.131283011201443,564.4821817538402 L 24.126659655055978,564.4822106799476 L 24.122036298910512,564.4822396060548 L 24.117412942765046,564.482268532162 L 24.11278958661958,564.4822974582694 L 24.108166230474115,564.4823263843766 L 24.10354287432865,564.4823553104839 L 24.098919518183184,564.4823842365911 L 24.09429616203772,564.4824131626984 L 24.089672805892253,564.4824420888057 L 24.085049449746787,564.4824710149129 L 24.080426093601325,564.4824999410203 L 24.07580273745586,564.4825288671275 L 24.071179381310394,564.4825577932347 L 24.066556025164928,564.4825867193421 L 24.061932669019463,564.4826156454493 L 24.057309312873997,564.4826445715565 L 24.05268595672853,564.4826734976639 L 24.048062600583066,564.4827024237711 L 24.0434392444376,564.4827313498783 L 24.038815888292135,564.4827602759857 L 24.03419253214667,564.4827892020929 L 24.029569176001203,564.4828181282002 L 24.024945819855738,564.4828470543075 L 24.020322463710272,564.4828759804147 L 24.015699107564807,564.482904906522 L 24.01107575141934,564.4829338326293 L 24.006452395273875,564.4829627587366 L 24.00182903912841,564.4829916848438 L 23.997205682982944,564.4830206109511 L 23.99258232683748,564.4830495370584 L 23.987958970692013,564.4830784631656 L 23.983335614546547,564.483107389273 L 23.97871225840108,564.4831363153802 L 23.974088902255616,564.4831652414874 L 23.96946554611015,564.4831941675948 L 23.964842189964685,564.483223093702 L 23.96021883381922,564.4832520198092 L 23.955595477673754,564.4832809459166 L 23.95097212152829,564.4833098720238 L 23.946348765382826,564.4833387981311 L 23.94172540923736,564.4833677242384 L 23.937102053091895,564.4833966503456 L 23.93247869694643,564.4834255764529 L 23.927855340800964,564.4834545025601 L 23.923231984655498,564.4834834286675 L 23.918608628510032,564.4835123547747 L 23.913985272364567,564.4835412808819 L 23.9093619162191,564.4835702069893 L 23.904738560073636,564.4835991330965 L 23.90011520392817,564.4836280592037 L 23.895491847782704,564.4836569853111 L 23.89086849163724,564.4836859114183 L 23.886245135491773,564.4837148375256 L 23.881621779346307,564.4837437636329 L 23.876998423200842,564.4837726897401 L 23.872375067055376,564.4838016158474 L 23.86775171090991,564.4838305419547 L 23.863128354764445,564.483859468062 L 23.85850499861898,564.4838883941692 L 23.853881642473514,564.4839173202765 L 23.84925828632805,564.4839462463838 L 23.844634930182583,564.483975172491 L 23.840011574037117,564.4840040985983 L 23.83538821789165,564.4840330247056 L 23.83076486174619,564.4840619508128 L 23.826141505600724,564.4840908769202 L 23.821518149455258,564.4841198030274 L 23.816894793309793,564.4841487291346 L 23.812271437164327,564.484177655242 L 23.80764808101886,564.4842065813492 L 23.803024724873396,564.4842355074564 L 23.79840136872793,564.4842644335638 L 23.793778012582464,564.484293359671 L 23.789154656437,564.4843222857783 L 23.784531300291533,564.4843512118856 L 23.779907944146068,564.4843801379928 L 23.775284588000602,564.4844090641001 L 23.770661231855136,564.4844379902074 L 23.76603787570967,564.4844669163147 L 23.761414519564205,564.4844958424219 L 23.75679116341874,564.4845247685291 L 23.752167807273274,564.4845536946365 L 23.74754445112781,564.4845826207437 L 23.742921094982343,564.4846115468509 L 23.738297738836877,564.4846404729583 L 23.73367438269141,564.4846693990655 L 23.729051026545946,564.4846983251728 L 23.72442767040048,564.4847272512801 L 23.719804314255015,564.4847561773873 L 23.71518095810955,564.4847851034946 L 23.710557601964084,564.4848140296019 L 23.705934245818618,564.4848429557092 L 23.701310889673156,564.4848718818164 L 23.69668753352769,564.4849008079237 L 23.692064177382225,564.484929734031 L 23.68744082123676,564.4849586601382 L 23.682817465091293,564.4849875862456 L 23.678194108945828,564.4850165123528 L 23.673570752800362,564.48504543846 L 23.668947396654897,564.4850743645674 L 23.66432404050943,564.4851032906746 L 23.659700684363965,564.4851322167818 L 23.6550773282185,564.4851611428892 L 23.650453972073034,564.4851900689964 L 23.64583061592757,564.4852189951037 L 23.641207259782103,564.485247921211 L 23.636583903636637,564.4852768473182 L 23.631960547491172,564.4853057734255 L 23.627337191345706,564.4853346995328 L 23.62271383520024,564.48536362564 L 23.618090479054775,564.4853925517473 L 23.61346712290931,564.4854214778546 L 23.608843766763844,564.4854504039619 L 23.604220410618378,564.4854793300691 L 23.599597054472913,564.4855082561763 L 23.594973698327447,564.4855371822837 L 23.59035034218198,564.4855661083909 L 23.58572698603652,564.4855950344981 L 23.581103629891054,564.4856239606055 L 23.576480273745588,564.4856528867127 L 23.571856917600122,564.48568181282 L 23.567233561454657,564.4857107389273 L 23.56261020530919,564.4857396650345 L 23.557986849163726,564.4857685911418 L 23.55336349301826,564.4857975172491 L 23.548740136872794,564.4858264433564 L 23.54411678072733,564.4858553694636 L 23.539493424581863,564.4858842955709 L 23.534870068436398,564.4859132216782 L 23.530246712290932,564.4859421477854 L 23.525623356145466,564.4859710738928 L 23.521,564.486 L 23.524286377756145,564.4892520731867" fill="none" stroke="#1f8a0a" stroke-width="0.1"/>
	<path d="M 40.32104718638647,552.7205235931932 L 40.32104718638647,552.7205235931932" fill="none" stroke="#5fb5c2" stroke-width="0.1"/>
	<path d="M 39.8429652778887,562.5540122957949 L 39.8429652778887,562.5540122957949" fill="none" stroke="#fe6ae6" stroke-width="0.1"/>
	<path d="M 477.120130682803,96.96000000000001 L 477.120130682803,96.96000000000001" fill="none" stroke="#f3557f" stroke-width="0.1"/>
	<path d="M 43.683,468.3024611501015 L 44.63700000000001,469.25646115010153 L 43.68299999999999,467.17109030020305 L 44.637,468.12509030020306" fill="none" stroke="#94bc76" stroke-width="0.1"/>
	<path d="M 62.883,506.7024611501015 L 63.83700000000001,507.6564611501015 L 62.883,505.571090300203 L 63.836999999999996,506.52509030020303" fill="none" stroke="#ebee8d" stroke-width="0.1"/>
	<path d="M 65.277,504.29948115010154 L 66.41451884989846,505.437 L 66.11088969979696,504.002 L 67.54588969979697,505.437 L 67.24226054969543,504.002 L 67.68300000000002,504.4427394503046" fill="none" stroke="#f834e2" stroke-width="0.1"/>
	<path d="M 288.66353884989854,767.043 L 289.61753884989855,767.997 L 289.79490969979713,767.043 L 290.74890969979697,767.997" fill="none" stroke="#365c89" stroke-width="0.1"/>
	<path d="M 335.03700000000003,789.8994811501015 L 336.17451884989845,791.0369999999999 L 335.87088969979686,789.6019999999999 L 337.305889699797,791.0369999999999 L 337.0022605496955,789.6020000000001 L 337.44300000000004,790.0427394503046" fill="none" stroke="#2aec45" stroke-width="0.1"/>
	<path d="M 257.27700000000004,779.030852 L 257.27700000000004,779.030852 L 257.277,777.8994811501015 L 258.4145188498983,779.0369999999999 L 258.110889699797,777.602 L 259.545889699797,779.037 L 259.2422605496954,777.602 L 259.68300000000005,778.0427394503046" fill="none" stroke="#8a7e4f" stroke-width="0.1"/>
	<path d="M 306.2370000000001,771.830852 L 306.2370000000001,771.830852 L 306.237,770.6994811501015 L 307.3745188498983,771.837 L 307.070889699797,770.402 L 308.505889699797,771.8370000000001 L 308.20226054969555,770.4020000000002 L 308.64300000000003,770.8427394503045" fill="none" stroke="#0b2b86" stroke-width="0.1"/>
	<path d="M 506.88300000000004,727.1938319999999 L 506.88300000000004,727.193832 L 507.0635388498985,726.243 L 508.01753884989853,727.197 L 508.194909699797,726.243 L 509.14890969979683,727.197" fill="none" stroke="#4c3749" stroke-width="0.1"/>
	<path d="M 470.88300000000004,731.9938319999999 L 470.88300000000004,731.993832 L 471.0635388498985,731.043 L 472.01753884989853,731.997 L 472.194909699797,731.043 L 473.14890969979683,731.997" fill="none" stroke="#d20d40" stroke-width="0.1"/>
	<path d="M 211.86353884989845,625.443 L 212.81753884989843,626.3969999999999 L 212.99490969979698,625.443 L 213.94890969979696,626.3969999999999" fill="none" stroke="#840e23" stroke-width="0.1"/>
	<path d="M 36.48299999999996,650.7024611501015 L 37.43700000000001,651.6564611501016 L 36.48299999999999,649.5710903002031 L 37.436999999999955,650.525090300203" fill="none" stroke="#04052a" stroke-width="0.1"/>
	<path d="M 61.44814799999992,661.4429999999999 L 61.44814799999998,661.443 L 61.44199999999998,660.3054811501015 L 62.57951884989851,661.443 L 61.44200000000001,659.174110300203 L 62.87700000000006,660.6091103002032 L 62.43626054969546,659.037 L 62.87700000000001,659.4777394503046" fill="none" stroke="#a13a0d" stroke-width="0.1"/>
	<path d="M 51.84199999999997,658.8654811501015 L 52.979518849898504,660.0029999999999 L 51.842000000000006,657.7341103002029 L 53.277000000000065,659.169110300203 L 52.836260549695474,657.597 L 53.277000000000015,658.0377394503046" fill="none" stroke="#2d9789" stroke-width="0.1"/>
	<path d="M 90.24199999999999,651.6654811501015 L 91.37951884989853,652.803 L 90.242,650.534110300203 L 91.67700000000008,651.969110300203 L 91.23626054969547,650.397 L 91.67700000000002,650.8377394503045" fill="none" stroke="#c8b589" stroke-width="0.1"/>
	<path d="M 215.048148,625.443 L 215.048148,625.443 L 215.042,624.3054811501015 L 216.17951884989853,625.443 L 215.04199999999994,623.1741103002029 L 216.477,624.609110300203 L 216.0362605496955,623.037 L 216.47700000000006,623.4777394503045" fill="none" stroke="#25b993" stroke-width="0.1"/>
	<path d="M 0.0,0.0 L 612.0,0.0" fill="none" stroke="#8e28eb" stroke-width="0.1"/>
	<path d="M 612.0,0.0 L 612.0,792.0" fill="none" stroke="#4a5ef6" stroke-width="0.1"/>
	<path d="M 612.0,792.0 L 0.0,792.0" fill="none" stroke="#5376c8" stroke-width="0.1"/>
	<path d="M 0.0,792.0 L 0.0,0.0" fill="none" stroke="#6d8113" stroke-width="0.1"/>
</svg>
