<?xml version="1.0" ?>
<svg xmlns="http://www.w3.org/2000/svg" xmlns:ev="http://www.w3.org/2001/xml-events" xmlns:xlink="http://www.w3.org/1999/xlink" baseProfile="full" data-name="b1" height="792" id="a" version="1.1" viewBox="0 0 612 792" width="612">
	<defs/>
	<path d="M 526.18,311.06 C 525.9899999999999,311.06 525.79,311.04 525.5999999999999,311.06 L 525.5999999999999,310.48 C 525.7699999999999,310.42 526.0099999999999,310.54 526.18,310.48 C 526.12,310.65000000000003 526.2299999999999,310.88 526.18,311.06" fill="none" stroke="#69c3bb" stroke-width="0.1"/>
	<path d="M 516.22,308.18 L 516.2199999999999,308.75191015058664" fill="none" stroke="#c362cc" stroke-width="0.1"/>
	<path d="M 497.38,358.86 L 496.8,358.86 L 496.8,358.28000000000003 C 496.99,358.3 497.19,358.26000000000005 497.38,358.28000000000003 C 497.28,358.37 497.48,358.77000000000004 497.38,358.86" fill="none" stroke="#e5f372" stroke-width="0.1"/>
	<path d="M 345.16000000000025,316.802930918425 L 345.16,317.4" fill="none" stroke="#b7a8a6" stroke-width="0.1"/>
	<path d="M 345.1455662432704,317.95563866131687 L 345.1455662432704,319.51336703582984 L 346.1455662432704,318.55 L 346.14556624327037,319.75133469859" fill="none" stroke="#5cd82f" stroke-width="0.1"/>
	<path d="M 519.6800000000002,217.5916383660596 L 519.68,219.47" fill="none" stroke="#1eacf3" stroke-width="0.1"/>
	<path d="M 511.75133974596235,355.5216067280111 L 511.75133974596235,356.10160672801106 L 512.7513397459622,356.05898306812526 L 512.7513397459622,357.12344797254997" fill="none" stroke="#6c2fbe" stroke-width="0.1"/>
	<path d="M 129.87999999999997,410.7 L 129.88,411.28 L 130.87999999999994,410.70969973286515 L 130.87999999999997,411.845112085662" fill="none" stroke="#8a61db" stroke-width="0.1"/>
	<path d="M 135.07,406.1 L 134.48999999999998,406.1 C 134.54999999999998,405.74 134.45,405.32000000000005 134.48999999999998,404.95000000000005 C 134.92999999999998,405.38000000000005 134.86999999999998,405.77000000000004 135.07,406.1" fill="none" stroke="#8240ed" stroke-width="0.1"/>
	<path d="M 516.9599999999999,409.55 L 516.9599999999999,411.86" fill="none" stroke="#38a7c0" stroke-width="0.1"/>
	<path d="M 463.8022874279535,563.9959550177862 L 463.8022874279535,564.5030097762964" fill="none" stroke="#aeb97a" stroke-width="0.1"/>
	<path d="M 529.63,324.87 L 529.6300000000003,325.45 L 530.6300000000002,324.2856835798112 L 530.6299999999999,325.45" fill="none" stroke="#5d28fa" stroke-width="0.1"/>
	<path d="M 462.08999999999963,569.6859022237664 L 462.0899999999998,570.2552706673738" fill="none" stroke="#b203c7" stroke-width="0.1"/>
	<path d="M 501.2599999999998,465.07362963753286 L 501.2599999999998,467.1545955054183" fill="none" stroke="#d9524c" stroke-width="0.1"/>
	<path d="M 496.65,474.20000000000005 L 496.65,477.52" fill="none" stroke="#d8c84b" stroke-width="0.1"/>
	<path d="M 498.3586288657528,471.41453825624075 L 498.3586288657528,472.8554131301118 L 499.3586288657528,468.79071737508986 L 499.3586288657527,471.7780927481318 L 500.35862886575285,468.02722151490156 L 500.3586288657528,469.45370420212384" fill="none" stroke="#c83728" stroke-width="0.1"/>
	<path d="M 492.60999999999996,483.6060857048469 L 492.61,485.1893065564417 L 493.61,480.1263210178675 L 493.61,483.3453983694261 L 494.60999999999996,478.7500000000001 L 494.6100000000003,481.40700802360124 L 495.60999999999996,479.7500000000001 L 495.61,479.89200330672827" fill="none" stroke="#82d72e" stroke-width="0.1"/>
	<path d="M 477.79,517.2599999999999 L 477.79000000000025,517.8399999999997 L 479.78999999999996,511.92208567640955 L 479.78999999999996,516.665828484214 L 480.78999999999996,509.5818153106797 L 480.7899999999999,514.6374277505664 L 481.7900000000002,508.11537131697884 L 481.78999999999996,512.097602782044" fill="none" stroke="#fb60ee" stroke-width="0.1"/>
	<path d="M 478.78999999999996,514.1539292387001 L 478.7900000000001,517.5082389981558" fill="none" stroke="#148cbf" stroke-width="0.1"/>
	<path d="M 513.9255555555554,430.7628260823603 L 513.9255555555554,435.48 L 514.9255555555554,425.4132545528498 L 514.9255555555555,432.91742258837166 L 515.9255555555554,420.90444444444523 L 515.9255555555555,428.50815786158523 L 516.9255555555555,420.8262671801609 L 516.9255555555555,423.2964295701719" fill="none" stroke="#4c5f69" stroke-width="0.1"/>
	<path d="M 503.71000000000004,459.08 L 503.71000000000015,459.6599999999999 L 504.71000000000015,456.4347043803449 L 504.7100000000001,459.0670467496881 L 505.71000000000004,453.08472398301274 L 505.7100000000001,457.83578116966015 L 506.71000000000004,450.8734834724094 L 506.71000000000004,455.97388335603483 L 507.7100000000001,448.79861589633583 L 507.71000000000004,453.559136188692 L 508.71000000000004,446.69490977064964 L 508.71,450.9489091500032 L 509.71000000000004,443.8821366798407 L 509.71,448.4297471405754 L 510.71000000000004,441.0509072819413 L 510.71000000000004,445.62199155059693 L 511.71000000000004,438.9400000000003 L 511.71000000000004,442.24332050790565" fill="none" stroke="#76982b" stroke-width="0.1"/>
	<path d="M 464.97,557.9395988628313 L 464.9699999999999,561.1159732314543 L 465.9699999999999,554.0215940150313 L 465.96999999999997,558.479938850109 L 466.9699999999999,550.5199999999994 L 466.96999999999997,555.3325097674791 L 467.9699999999997,547.9169938387645 L 467.9699999999999,552.0517999018631 L 468.96999999999986,544.459999999999 L 468.9699999999999,548.6644750028745 L 469.9699999999999,539.9927909468546 L 469.9699999999999,545.2104977949722" fill="none" stroke="#c91d9b" stroke-width="0.1"/>
	<path d="M 470.96999999999986,534.9199999999983 L 470.9699999999999,541.7394330978827 L 471.9699999999999,532.316236039158 L 471.9699999999999,538.3031724694465 L 472.96999999999997,527.2674396963241 L 472.9699999999999,534.9477371340267 L 473.9699999999999,525.0093536642519 L 473.9699999999999,531.707479167594 L 474.9700000000003,522.8937272709039 L 474.9700000000002,522.9528169110105 L 474.96999999999974,523.4239587460553 L 474.96999999999997,526.623909159151 L 475.9699999999999,521.2399999999974 L 475.9699999999999,525.7455508694991 L 476.9699999999999,519.566558500974 L 476.9699999999999,524.3354944049509" fill="none" stroke="#553ddd" stroke-width="0.1"/>
	<path d="M 477.97,519.535253171729 L 477.9699999999999,520.1716513567618" fill="none" stroke="#4ccfe8" stroke-width="0.1"/>
	<path d="M 455.17,590.1779310344825 L 455.17,595.6597344713529" fill="none" stroke="#bcc0a0" stroke-width="0.1"/>
	<path d="M 335.9384529946163,731.730775801156 L 335.9384529946162,735.4653543594864 L 336.9384529946163,729.9904070446839 L 336.9384529946162,734.877630474707 L 337.9384529946162,730.675000154977 L 337.9384529946163,733.0232942347856" fill="none" stroke="#c5452b" stroke-width="0.1"/>
	<path d="M 337.25,727.4999999999992 L 337.25,727.5" fill="none" stroke="#90b22e" stroke-width="0.1"/>
	<path d="M 338.25,725.3654715608372 L 338.25,728.5418247212497 L 339.25,722.7781595907417 L 339.25,727.6045315274204 L 340.25,722.3255708992947 L 340.25,725.275977601313" fill="none" stroke="#63c1fe" stroke-width="0.1"/>
	<path d="M 352.64025438579074,693.6123621455333 L 352.6402543857905,697.3179997714016 L 353.64025438579074,691.5321549203063 L 353.6402543857906,696.3987512403115 L 354.64025438579074,691.1478316026836 L 354.64025438579074,694.5831927957414" fill="none" stroke="#5c4441" stroke-width="0.1"/>
	<path d="M 447.0505187392332,612.290914007361 L 447.0505187392332,615.6129824657853 L 448.0505187392332,610.3681679307492 L 448.0505187392332,614.664088723069 L 449.0505187392332,608.2452666032215 L 449.0505187392332,613.0595208858634 L 450.05051873923327,606.4107606431903 L 450.0505187392332,611.1241143163937 L 451.0505187392332,604.516139464428 L 451.0505187392332,608.9267169682987 L 452.0505187392332,601.9475565119344 L 452.0505187392332,606.4227841366555 L 453.0505187392332,601.9896507489083 L 453.0505187392332,603.0614542756321" fill="none" stroke="#7d14cd" stroke-width="0.1"/>
	<path d="M 449.0505187392332,607.0661129501344 L 449.0505187392332,607.4992226851366" fill="none" stroke="#035e22" stroke-width="0.1"/>
	<path d="M 326.7299999999998,768.694141862627 L 326.7299999999996,770.7205632091088 L 327.7299999999998,762.4767105983275 L 327.7299999999996,769.5792712840849 L 328.7299999999998,756.2045182941906 L 328.72999999999973,767.0318078418474 L 329.72999999999973,754.033979098639 L 329.7299999999998,758.7226065677007 L 330.72999999999985,749.2924666447706 L 330.7299999999998,755.0945170293988 L 331.7299999999998,745.6921366798395 L 331.7299999999999,751.861704196277 L 332.7299999999998,742.3010713483692 L 332.72999999999985,748.8343784485015 L 333.7299999999998,739.0099999999986 L 333.72999999999985,745.8732399635127 L 334.7299999999998,736.7581031835224 L 334.7299999999998,742.8142509791369 L 335.72999999999985,736.6972900644689 L 335.7299999999998,739.4366213614138" fill="none" stroke="#3f287d" stroke-width="0.1"/>
	<path d="M 455.1899999999998,92.70421421602374 L 455.1899999999998,93.79713737050974 L 456.18999999999977,92.75047460339016 L 456.1899999999998,94.36755118396513 L 457.1899999999998,93.34154354654916 L 457.1899999999999,94.51013572251165 L 458.1899999999998,93.8966078834337 L 458.1899999999998,94.4770262015376" fill="none" stroke="#f93767" stroke-width="0.1"/>
	<path d="M 449.9899999999999,90.45240424946692 L 449.9899999999999,91.29205300940447 L 450.98999999999984,90.76425324874064 L 450.98999999999984,91.61" fill="none" stroke="#facb06" stroke-width="0.1"/>
	<path d="M 464.36887388209084,100.12749583887658 L 464.36887388209067,101.10400494454676 L 465.3688738820907,101.05806211878395 L 465.36887388209067,102.80947957014962 L 466.3688738820906,102.30253412522646 L 466.36887388209067,103.13" fill="none" stroke="#1893e3" stroke-width="0.1"/>
	<path d="M 476.63000000000005,93.89000000000001 L 476.63000000000005,93.89000000000001 L 477.63000000000005,93.89810455553675 L 477.6300000000001,95.45508894208466" fill="none" stroke="#9a8bc5" stroke-width="0.1"/>
	<path d="M 470.71999999999997,106.41999999999999 L 470.71999999999997,108.04355979305166" fill="none" stroke="#714734" stroke-width="0.1"/>
	<path d="M 443.06000000000006,113.87052023121394 L 443.05999999999995,116.75751485969475 L 444.06,112.90000000000002 L 444.0599999999999,117.76812346284706 L 445.06000000000006,114.62961533378424 L 445.05999999999966,118.78511372907329 L 446.05999999999995,115.7286233322854 L 446.05999999999995,120.93941393378252 L 447.06,117.88891281237531 L 447.06,121.95130415661777 L 448.05999999999995,119.49405918564366 L 448.05999999999995,122.31514430610096 L 449.05999999999995,122.87536214219786 L 449.06000000000006,123.89" fill="none" stroke="#fd5ff1" stroke-width="0.1"/>
	<path d="M 444.21999999999997,81.4518260869565 L 444.21999999999997,82.57312571549481" fill="none" stroke="#b07fe8" stroke-width="0.1"/>
	<path d="M 479.52,91.6 C 479.5,91.41 479.56,91.21 479.52,91.02 C 479.47999999999996,90.83 479.54999999999995,90.63 479.52,90.44 L 480.09999999999997,90.44 C 479.95,91.08 480.28999999999996,91.13 479.52,91.59 L 479.52,91.6" fill="none" stroke="#c4f421" stroke-width="0.1"/>
	<path d="M 482.82555555555564,100.24 L 482.8255555555556,100.82262986641679" fill="none" stroke="#4068cd" stroke-width="0.1"/>
	<path d="M 445.54,130.77 C 445.56,130.96 445.52000000000004,131.16 445.54,131.35000000000002 L 444.96000000000004,131.35000000000002 C 445.00000000000006,131.15000000000003 444.90000000000003,130.90000000000003 444.96000000000004,130.77 C 445.06000000000006,130.56 445.35,130.37 445.54,130.19 C 445.58000000000004,130.37 445.51000000000005,130.57 445.54,130.77" fill="none" stroke="#695c62" stroke-width="0.1"/>
	<path d="M 444.8099999999999,121.55 L 444.8099999999999,123.45645573064216 L 445.80999999999983,122.71 L 445.80999999999995,125.8374939287536 L 446.80999999999983,123.79991398558334 L 446.8099999999999,126.8872245378987 L 447.8099999999995,125.52447694871049 L 447.8099999999999,127.91127272727276 L 448.8099999999999,126.85185101884741 L 448.8099999999999,130.23165377810045" fill="none" stroke="#516d1e" stroke-width="0.1"/>
	<path d="M 446.8099999999999,128.10416800956077 L 446.80999999999995,128.19309090909093" fill="none" stroke="#06853f" stroke-width="0.1"/>
	<path d="M 443.66,105.99467274058775 L 443.6599999999999,107.14806593461694 L 444.6599999999997,106.93142209902729 L 444.65999999999985,107.59148682414948" fill="none" stroke="#8b8c62" stroke-width="0.1"/>
	<path d="M 431.14,63.38 L 430.56,63.38 C 430.47,63.27 430.65,62.95 430.56,62.800000000000004 C 430.75,62.81 430.94,62.800000000000004 431.14,62.800000000000004 C 431.18,62.980000000000004 431.09,63.2 431.14,63.38" fill="none" stroke="#d597bb" stroke-width="0.1"/>
	<path d="M 450.57,131.79357651514132 L 450.57000000000005,133.33434373644997" fill="none" stroke="#1418f2" stroke-width="0.1"/>
	<path d="M 448.42,111.18 C 448.42,110.81 448.40000000000003,110.56 448.42,110.03 L 449.0,110.03 L 448.42,111.18" fill="none" stroke="#cae429" stroke-width="0.1"/>
	<path d="M 464.95591592139385,140.97591592139386 L 464.95591592139385,141.66855228595972" fill="none" stroke="#0e9fbb" stroke-width="0.1"/>
	<path d="M 432.28000000000003,72.02 L 432.28000000000026,72.59999999999994 L 433.28000000000003,72.02 L 433.28000000000003,72.59464560825968" fill="none" stroke="#f0598b" stroke-width="0.1"/>
	<path d="M 424.23,145.74 L 424.23,145.74 L 425.22999999999996,145.6966431222243 L 425.23,145.74" fill="none" stroke="#5fe2e1" stroke-width="0.1"/>
	<path d="M 426.37,146.15698577750265 L 426.37,146.31030026713495" fill="none" stroke="#891417" stroke-width="0.1"/>
	<path d="M 456.3044327783202,121.001710494775 L 456.3044327783202,122.5349442249609 L 457.3044327783202,122.58286441242541 L 457.3044327783201,123.29131394136193" fill="none" stroke="#998001" stroke-width="0.1"/>
	<path d="M 458.61155951013257,124.3747221442597 L 458.6115595101325,125.96249058705368 L 459.6115595101328,125.73859500269718 L 459.6115595101325,126.16" fill="none" stroke="#b494e8" stroke-width="0.1"/>
	<path d="M 345.31,131.92 C 345.12,131.94 344.92,131.88 344.73,131.92 L 344.73,131.33999999999997 C 344.90000000000003,131.36999999999998 345.14000000000004,131.35999999999999 345.31,131.33999999999997 C 345.31,131.52999999999997 345.33,131.72999999999996 345.31,131.92" fill="none" stroke="#2fcd34" stroke-width="0.1"/>
	<path d="M 462.0672987658222,129.02999999999997 L 462.0672987658222,130.7614436720766" fill="none" stroke="#f04544" stroke-width="0.1"/>
	<path d="M 416.74,64.52999999999999 L 416.74000000000024,65.67999999999996 L 417.7400000000001,65.0935951335801 L 417.74,66.10000000000001 L 418.74,65.54582851827713 L 418.74,66.25999999999999" fill="none" stroke="#f7bae9" stroke-width="0.1"/>
	<path d="M 433.43999999999994,131.90999999999997 L 433.44000000000017,132.4899999999999 L 434.44000000000017,131.8960000079452 L 434.44,132.86912891130163" fill="none" stroke="#cf7f58" stroke-width="0.1"/>
	<path d="M 432.86,129.62 L 432.86,130.77 C 432.29,130.59 432.35,130.11 432.28000000000003,129.62 C 432.25000000000006,129.42000000000002 432.33000000000004,129.21 432.28000000000003,129.04 L 432.86,129.04 L 432.86,129.62" fill="none" stroke="#65ba49" stroke-width="0.1"/>
	<path d="M 506.99029883023496,157.53178324521235 L 506.9902988302352,157.82005507048834" fill="none" stroke="#ce6e31" stroke-width="0.1"/>
	<path d="M 488.0199999999998,148.49076107322708 L 488.0199999999997,151.09654062226497 L 489.0199999999998,150.84961794113136 L 489.01999999999987,152.68158397103178" fill="none" stroke="#57689f" stroke-width="0.1"/>
	<path d="M 520.99,215.44 C 520.99,215.63 520.97,215.82999999999998 520.99,216.02 C 520.8,216.0 520.6,216.04000000000002 520.41,216.02 C 520.37,215.84 520.4399999999999,215.63000000000002 520.41,215.44 C 520.38,215.24999999999997 520.43,215.05 520.41,214.85999999999999 C 520.5899999999999,214.89999999999998 520.8,214.82999999999998 520.99,214.85999999999999 C 520.96,215.04 520.99,215.24999999999997 520.99,215.44" fill="none" stroke="#01c1e0" stroke-width="0.1"/>
	<path d="M 523.3,206.22 C 523.12,206.18 522.91,206.24 522.7199999999999,206.22 C 522.66,206.04 522.79,205.8 522.7199999999999,205.64 C 522.91,205.64999999999998 523.1099999999999,205.63 523.3,205.64 L 523.3,206.22" fill="none" stroke="#ae4fc2" stroke-width="0.1"/>
	<path d="M 305.4099999999998,138.83 L 305.4099999999998,139.4243872614594" fill="none" stroke="#12b376" stroke-width="0.1"/>
	<path d="M 521.4201494151177,183.18 L 521.4201494151177,184.30350264708446 L 522.4201494151179,183.18 L 522.4201494151179,184.15451579524273" fill="none" stroke="#c41d88" stroke-width="0.1"/>
	<path d="M 524.2899999999998,207.22999999999985 L 524.2899999999998,207.94152953299835" fill="none" stroke="#6ceb3c" stroke-width="0.1"/>
	<path d="M 428.65777777777777,122.56131933232348 L 428.65777777777777,123.25244525235114" fill="none" stroke="#16a15f" stroke-width="0.1"/>
	<path d="M 340.13,125.58 C 339.95,125.53999999999999 339.73,125.63 339.55,125.58 C 339.52000000000004,125.39999999999999 339.55,125.19 339.55,125.0 L 340.13,125.0 L 340.13,125.58" fill="none" stroke="#0d7529" stroke-width="0.1"/>
	<path d="M 385.06,126.74 C 384.87,126.72999999999999 384.67,126.75999999999999 384.48,126.74 C 384.55,126.41 384.72,126.22999999999999 385.06,126.16 L 385.06,126.74" fill="none" stroke="#fd3dfb" stroke-width="0.1"/>
	<path d="M 333.79,130.19 L 333.79000000000025,130.7700000000001" fill="none" stroke="#ccc182" stroke-width="0.1"/>
	<path d="M 405.04415541156806,49.5406144157813 L 405.04415541156817,50.12890474414049" fill="none" stroke="#16f6cd" stroke-width="0.1"/>
	<path d="M 424.0622874279538,115.5960779187985 L 424.06228742795383,117.83903734729807 L 425.06228742795383,116.86478522624294 L 425.0622874279538,118.65031472890996" fill="none" stroke="#972354" stroke-width="0.1"/>
	<path d="M 503.14,114.06 C 502.87,113.98 502.65999999999997,113.75 502.56,113.48 L 503.14,113.48 C 503.14,113.67 503.14,113.86 503.14,114.06" fill="none" stroke="#cb2325" stroke-width="0.1"/>
	<path d="M 528.32,186.62083762845205 L 528.3199999999998,187.21899094938445" fill="none" stroke="#1ffdec" stroke-width="0.1"/>
	<path d="M 530.0499999999997,203.92180474402232 L 530.05,205.06796746582336" fill="none" stroke="#9b998e" stroke-width="0.1"/>
	<path d="M 533.4999999999999,193.97999999999982 L 533.4999999999998,195.14035183187434 L 534.4999999999998,194.38999999999973 L 534.5,195.31147243974976 L 535.4999999999998,194.80999999999972 L 535.4999999999998,196.45000000000005" fill="none" stroke="#e8c1e0" stroke-width="0.1"/>
	<path d="M 523.87,192.98 C 523.9,193.17 523.83,193.36999999999998 523.87,193.56 C 523.68,193.52 523.48,193.6 523.29,193.56 C 523.27,193.18 523.3,192.79 523.29,192.41 L 523.87,192.41 C 523.87,192.6 523.84,192.81 523.87,192.99 L 523.87,192.98" fill="none" stroke="#8ef5ca" stroke-width="0.1"/>
	<path d="M 523.87,193.5499999999999 L 523.87,193.54999999999998" fill="none" stroke="#a26f36" stroke-width="0.1"/>
	<path d="M 525.4469059892325,194.15502930098927 L 525.4469059892325,195.94786542118902 L 526.4469059892325,194.13804173591632 L 526.4469059892327,196.46895219002516 L 527.4469059892326,194.13 L 527.4469059892326,197.04095089974348 L 528.4469059892326,194.13 L 528.4469059892325,197.02237992685895 L 529.4469059892324,195.14904538979803 L 529.4469059892326,197.6079454381245 L 530.4469059892325,195.29937191112376 L 530.4469059892325,198.19776168822432 L 531.4469059892325,195.41183204834562 L 531.4469059892325,199.3500000000001 L 532.4469059892327,195.8507766672268 L 532.4469059892325,199.3500000000001 L 533.4469059892322,196.42162451462755 L 533.4469059892325,199.3500000000001 L 534.4469059892325,197.17689772890972 L 534.4469059892325,199.3500000000001" fill="none" stroke="#9294ee" stroke-width="0.1"/>
	<path d="M 420.61,111.18810455553665 L 420.61,112.33128870736479" fill="none" stroke="#c1b90f" stroke-width="0.1"/>
	<path d="M 470.88,46.67 C 470.71999999999997,46.620000000000005 470.5,46.690000000000005 470.3,46.67 C 470.27000000000004,46.49 470.3,46.28 470.3,46.09 L 470.88,46.09 C 470.84,46.260000000000005 470.9,46.470000000000006 470.88,46.67" fill="none" stroke="#8e6b57" stroke-width="0.1"/>
	<path d="M 284.26,38.61 L 283.68,38.61 C 283.78000000000003,38.51 283.58,38.14 283.68,38.03 C 283.87,38.03 284.07,38.01 284.26,38.03 L 284.26,38.61" fill="none" stroke="#ad0a22" stroke-width="0.1"/>
	<path d="M 283.1,38.6 L 283.1000000000002,39.179999999999964" fill="none" stroke="#5d03ff" stroke-width="0.1"/>
	<path d="M 479.52,59.34 L 478.94,59.34 C 478.96999999999997,59.150000000000006 478.92,58.95 478.94,58.760000000000005 L 479.52,58.760000000000005 L 479.52,59.34" fill="none" stroke="#c9ccc8" stroke-width="0.1"/>
	<path d="M 291.74,31.12 C 291.57,31.07 291.35,31.17 291.16,31.12 C 291.23,31.0 291.11,30.740000000000002 291.16,30.540000000000003 C 291.32000000000005,30.490000000000002 291.54,30.560000000000002 291.74,30.540000000000003 C 291.78000000000003,30.720000000000002 291.72,30.930000000000003 291.74,31.12" fill="none" stroke="#4bc610" stroke-width="0.1"/>
	<path d="M 456.48,65.1 L 455.90000000000003,65.1 C 455.88000000000005,64.91 455.91,64.71 455.90000000000003,64.52 L 456.48,64.52 C 456.55,64.69 456.40000000000003,64.95 456.48,65.1" fill="none" stroke="#d7d51a" stroke-width="0.1"/>
	<path d="M 521.9783510879748,219.48000000000002 L 521.9783510879747,222.75481829662834" fill="none" stroke="#499c41" stroke-width="0.1"/>
	<path d="M 311.75,104.7584071610831 L 311.75,106.21753826671912 L 312.75,104.25999999999999 L 312.75,104.72680228555754" fill="none" stroke="#5bc398" stroke-width="0.1"/>
	<path d="M 517.3702543857906,385.94 L 517.3702543857906,386.10974561420926" fill="none" stroke="#dd1a46" stroke-width="0.1"/>
	<path d="M 537.12,197.58 L 537.1200000000006,197.58000000000013 L 538.1200000000003,196.50938150467044 L 538.1200000000001,197.81797850895126 L 539.12,196.43 L 539.1199999999999,197.63334510102925" fill="none" stroke="#713a69" stroke-width="0.1"/>
	<path d="M 536.3842185031342,201.5542046379811 L 536.3842185031341,202.92565967694333 L 537.3842185031342,202.42192633407382 L 537.3842185031341,203.21319247387265" fill="none" stroke="#be39a4" stroke-width="0.1"/>
	<path d="M 525.4301494151174,204.52249780087897 L 525.4301494151174,206.06014941511748 L 526.4301494151173,205.343200395396 L 526.4301494151173,207.973058799325 L 527.4301494151174,206.9842888692269 L 527.4301494151174,209.13000000000008 L 528.4301494151173,207.1666888225553 L 528.4301494151174,208.6134720757311" fill="none" stroke="#c848bd" stroke-width="0.1"/>
	<path d="M 529.4301494151175,206.81178821428338 L 529.4301494151174,208.32014941511738 L 530.4301494151174,207.4041292162732 L 530.4301494151174,208.57194595115098" fill="none" stroke="#5f5d74" stroke-width="0.1"/>
	<path d="M 524.2512049656596,223.9997381565936 L 524.2512049656596,226.78120496565955" fill="none" stroke="#7a6eda" stroke-width="0.1"/>
	<path d="M 525.03,212.57000000000005 L 525.03,214.30000000000007 L 526.03,212.57000000000005 L 526.03,214.87030026713498 L 527.0299999999999,212.57000000000005 L 527.0299999999999,213.9899999999998 L 528.03,213.9621259823526 L 528.03,214.86592296274262" fill="none" stroke="#f1142a" stroke-width="0.1"/>
	<path d="M 468.58,54.16 C 468.55,54.04 468.05,53.83 468.0,53.58 C 468.28,53.79 468.46,54.08 468.58,54.16" fill="none" stroke="#5252a2" stroke-width="0.1"/>
	<path d="M 533.4999999999999,205.0488601141395 L 533.4999999999999,206.53768477703855 L 534.4999999999999,205.36264464675023 L 534.4999999999999,206.8015224118463" fill="none" stroke="#aee091" stroke-width="0.1"/>
	<path d="M 333.8,767.83 L 333.80000000000007,767.8300000000007 L 334.8,767.875652575637 L 334.8,772.6245801526718 L 335.8,768.3095118852676 L 335.80000000000007,772.8306870229007" fill="none" stroke="#4ea475" stroke-width="0.1"/>
	<path d="M 338.27471876519957,747.8065076059931 L 338.27471876519974,752.5239422048683 L 339.27471876519974,746.5343552341441 L 339.27471876519996,752.3747090904047 L 340.27471876519974,747.820614657728 L 340.2747187651999,751.2008317478694" fill="none" stroke="#12f52c" stroke-width="0.1"/>
	<path d="M 337.0999999999999,758.693462676026 L 337.0999999999999,763.7545918813353 L 338.0999999999999,759.7313667699823 L 338.0999999999999,764.4304670917164 L 339.09999999999985,761.085832938456 L 339.0999999999999,764.3633127697223" fill="none" stroke="#f0f3a1" stroke-width="0.1"/>
	<path d="M 453.8965831764494,616.8086711060431 L 453.89658317644927,625.287722039648 L 454.8965831764494,616.8808628227066 L 454.8965831764494,625.1946702740051" fill="none" stroke="#3a1e7e" stroke-width="0.1"/>
	<path d="M 551.7577777777782,762.645997920047 L 551.7577777777781,777.04 L 552.757777777778,763.5766509634389 L 552.7577777777781,769.0728406838841 L 552.757777777778,772.0008163762665 L 552.757777777778,777.04" fill="none" stroke="#044bd4" stroke-width="0.1"/>
	<path d="M 202.283068890091,686.7546330455075 L 202.2830688900909,688.7759126173231 L 203.283068890091,686.57456497129 L 203.28306889009093,689.015399080144 L 204.283068890091,686.5447706119171 L 204.28306889009096,688.8661677429284 L 205.283068890091,686.6041380535911 L 205.283068890091,687.9008000759063" fill="none" stroke="#2f5b2e" stroke-width="0.1"/>
	<path d="M 213.1796802585009,717.7112716552649 L 213.1796802585009,722.2941097767497 L 214.1796802585009,718.182460306311 L 214.17968025850072,721.9624732987656" fill="none" stroke="#9545e9" stroke-width="0.1"/>
	<path d="M 177.8344752033853,648.0893542819124 L 177.8344752033853,650.4377406483654 L 178.8344752033853,648.1988877504722 L 178.8344752033853,650.7360668752385 L 179.8344752033853,648.3084212190321 L 179.8344752033853,650.8281278944844 L 180.8344752033853,648.4179546875919 L 180.8344752033853,650.781443560181 L 181.8344752033853,648.5274881561517 L 181.8344752033853,650.5728865036189" fill="none" stroke="#989888" stroke-width="0.1"/>
	<path d="M 71.57000000000004,558.4187096774192 L 71.56999999999998,562.5739529908391 L 72.57000000000002,556.3723926380367 L 72.57000000000001,561.8783707458539 L 73.57000000000002,556.3343158708132 L 73.57000000000002,561.0007730365979" fill="none" stroke="#60795e" stroke-width="0.1"/>
	<path d="M 67.60539189464332,652.6674611941754 L 67.60539189464332,655.9303222474532 L 68.60539189464332,653.5694887646977 L 68.60539189464332,657.3161665468886 L 69.6053918946433,654.8798252748244 L 69.60539189464332,658.5170191509161 L 70.6053918946433,656.4637149429881 L 70.60539189464332,659.8773565637734 L 71.60539189464329,658.5482671285185 L 71.60539189464332,660.1318371947622" fill="none" stroke="#962a02" stroke-width="0.1"/>
	<path d="M 178.78,640.0621320320623 L 178.78000000000003,644.5040939405139 L 179.78,639.7498433387248 L 179.78000000000003,644.6313165663216 L 180.77999999999997,639.7171521958104 L 180.78000000000003,644.6657530108582 L 181.77999999999997,639.9729671935456 L 181.78,644.5865343030043 L 182.77999999999994,640.4426564268186 L 182.78,644.3733955637514 L 183.77999999999992,640.9669559337862 L 183.78,644.0102574769844 L 184.7799999999999,641.3896606801627 L 184.78,643.4891585176267 L 185.77999999999986,641.6307576568088 L 185.7799999999998,642.8584584932036" fill="none" stroke="#9f419f" stroke-width="0.1"/>
	<path d="M 54.582495173219066,633.6071950893449 L 54.58249517321909,637.4889226155855 L 55.58249517321909,634.3866373686172 L 55.58249517321911,639.0035262915635 L 56.582495173219066,637.3711758034511 L 56.5824951732191,640.1630650917621 L 57.58249517321909,638.6729124785602 L 57.582495173219094,641.2071807389045 L 58.582495173219094,639.0864035888316 L 58.582495173219094,642.2334061395956 L 59.58249517321909,639.6565267539839 L 59.58249517321909,643.3226605758715 L 60.58249517321909,641.1205979760002 L 60.58249517321909,644.6012633495135 L 61.58249517321908,642.5994431198201 L 61.58249517321909,646.5075216720446 L 62.58249517321909,644.1522296349 L 62.58249517321912,648.6400353026652 L 63.5824951732191,645.8718245713209 L 63.5824951732191,648.5806481830275 L 64.58249517321912,646.9978556683541 L 64.58249517321909,647.9660923912699" fill="none" stroke="#018705" stroke-width="0.1"/>
	<path d="M 256.97257982112774,763.7688946993618 L 256.9725798211277,767.8948249096017 L 257.97257982112774,763.5402338555551 L 257.97257982112774,768.2422744634487 L 258.9725798211278,763.4882958920421 L 258.9725798211278,768.4979125922982 L 259.9725798211278,763.3690109741951 L 259.97257982112797,769.0550278287006 L 260.9725798211278,762.9624306193266 L 260.9725798211279,771.2274802902633 L 261.97257982112785,764.9968594578831 L 261.97257982112785,772.6692923103998 L 262.97257982112797,765.9948425382985 L 262.9725798211279,773.1221490453802 L 263.9725798211281,767.0504280701898 L 263.97257982112797,773.1959249446821 L 264.97257982112797,771.0162894819983 L 264.97257982112797,773.0694632846042" fill="none" stroke="#d0d830" stroke-width="0.1"/>
	<path d="M 167.17000000000004,634.5539927011071 L 167.17000000000002,635.6517273001858 L 168.17000000000007,634.3361940695739 L 168.17000000000002,635.7744856781339 L 169.1700000000001,634.1692920586695 L 169.17000000000004,635.7435656407976 L 170.17000000000013,633.8618080602787 L 170.17000000000004,635.6232851350385 L 171.17000000000004,633.034727333822 L 171.17000000000004,635.4389956806345 L 172.17,630.7686472085179 L 172.17000000000004,635.2011458390235 L 173.1699999999999,629.3145781035944 L 173.17000000000004,634.9083744322014 L 174.16999999999985,628.7568025272191 L 174.17,634.4714511086374 L 175.17000000000004,623.629998982205 L 175.17000000000004,633.0649657522666 L 176.17000000000004,622.3319528131974 L 176.1700000000001,625.5714989843067 L 177.17000000000004,622.021402851707 L 177.17000000000007,625.6958377183934 L 178.17000000000004,622.6724116888059 L 178.17000000000007,626.2288505625241 L 179.17000000000004,623.6603135135017 L 179.17000000000007,627.4286234348077 L 180.17000000000004,624.5630576997544 L 180.17000000000004,629.2678578312416 L 181.17000000000004,626.9429672728487 L 181.17000000000004,630.9245769134459 L 182.17000000000004,627.9076234127234 L 182.17000000000004,632.0346992322886 L 183.1700000000001,629.4348305893957 L 183.17000000000002,632.7513222833575 L 184.17,631.3111553219494 L 184.17000000000004,633.0858285117173" fill="none" stroke="#de5376" stroke-width="0.1"/>
	<path d="M 169.17000000000004,626.6515811136217 L 169.17000000000007,627.5916924908125 L 170.17000000000004,625.5326340161976 L 170.17000000000007,627.8669795004989 L 171.17000000000004,624.2109352349815 L 171.17000000000007,627.882306804728 L 172.17000000000004,624.012190899525 L 172.17000000000004,627.8603898206645 L 173.17000000000007,624.288462623287 L 173.17000000000004,627.999663838504 L 174.17000000000013,624.42008939261 L 174.17000000000004,628.6757874745288" fill="none" stroke="#0adaaa" stroke-width="0.1"/>
	<path d="M 176.17000000000007,628.850423413331 L 176.17000000000004,632.4516604282928 L 177.1700000000001,630.0444002748081 L 177.17000000000002,633.2374452554745 L 178.17000000000013,631.0283609934779 L 178.17000000000004,634.0841605839418 L 179.17000000000002,632.8797114549783 L 179.17000000000004,634.9308759124089 L 180.17000000000004,633.9200604591803 L 180.17000000000004,635.7775912408761 L 181.17000000000007,634.5937500000003 L 181.17000000000002,636.6243065693432" fill="none" stroke="#449001" stroke-width="0.1"/>
	<path d="M 181.17000000000002,625.9122603300373 L 181.17,626.1117056187395" fill="none" stroke="#4f5d87" stroke-width="0.1"/>
	<path d="M 179.7846892901728,656.9270009084997 L 179.78468929017302,658.4234558225197 L 180.78468929017276,656.3598190578509 L 180.78468929017296,658.253727657206 L 181.78468929017274,655.9212867791567 L 181.7846892901729,657.926158777245 L 182.78468929017282,655.6785503640813 L 182.78468929017288,657.5300998596858 L 183.78468929017282,655.784826494172 L 183.78468929017285,657.168855581368 L 184.7846892901728,656.0201112710611 L 184.78468929017282,656.9288972909545 L 185.78468929017282,655.7954245325097 L 185.78468929017282,656.8620670408611 L 186.7846892901728,654.7901891770531 L 186.7846892901727,657.0003986431884 L 187.78468929017276,653.9636689268731 L 187.78468929017265,659.6232137819907 L 188.78468929017288,644.6518671021835 L 188.7846892901727,660.0701231836952 L 189.7846892901729,644.8400385029491 L 189.78468929017274,660.1452796163961 L 190.78468929017282,646.6998631479332 L 190.78468929017276,659.9721339771182 L 191.78468929017282,648.462347800413 L 191.78468929017276,659.6374069692839 L 192.7846892901728,650.1152834518937 L 192.7846892901728,659.214296462446 L 193.78468929017276,651.6650047783024 L 193.78468929017282,658.7803004367519 L 194.78468929017276,653.1169347134435 L 194.78468929017282,658.4448447294195 L 195.78468929017274,654.4757833802477 L 195.78468929017285,658.4514218815021 L 196.7846892901727,655.7456911632453 L 196.78468929017285,663.4386812167423 L 197.78468929017268,656.9303345888002 L 197.78468929017282,663.621821138107 L 198.78468929017265,658.0330065823788 L 198.78468929017282,663.4386243456408 L 199.7846892901726,659.056678558041 L 199.7846892901728,661.7153430656151" fill="none" stroke="#bc67c9" stroke-width="0.1"/>
	<path d="M 183.78468929017282,645.9375194243521 L 183.78468929017285,647.4943413167459 L 184.78468929017285,645.4141881726499 L 184.78468929017282,647.6763921587341 L 185.78468929017285,645.0811049884958 L 185.78468929017282,648.2747064916598 L 186.78468929017285,644.8495832406269 L 186.7846892901729,650.3224867061208 L 187.78468929017285,644.7015853271515 L 187.78468929017282,652.8800622128398" fill="none" stroke="#b3dd55" stroke-width="0.1"/>
	<path d="M 192.78468929017282,663.5026326478088 L 192.78468929017282,664.107612130853 L 193.78468929017282,662.5717471186513 L 193.78468929017282,663.4126370039735 L 194.78468929017282,661.6408615894936 L 194.78468929017296,662.9946632209638 L 195.7846892901728,660.709976060336 L 195.7846892901729,663.1396617267606" fill="none" stroke="#249e83" stroke-width="0.1"/>
	<path d="M 199.82204746153553,664.2667580852124 L 199.82204746153567,671.0858285378966 L 200.8220474615355,663.7774988871362 L 200.82204746153573,667.5459571688579 L 200.8220474615357,667.630192008371 L 200.8220474615357,670.613382686985 L 201.8220474615357,667.6453211973019 L 201.8220474615357,670.132029013171 L 202.8220474615357,667.5980686683632 L 202.8220474615357,669.8599614643216 L 203.82204746153573,667.5634546490531 L 203.8220474615357,670.5023373708568 L 203.82204746153576,671.0817500026504 L 203.8220474615357,677.7470000517219 L 204.82204746153573,667.5973762074484 L 204.8220474615357,678.868628604834 L 205.82204746153576,667.8302200629096 L 205.82204746153567,679.0060123542299 L 206.8220474615357,671.6957587906795 L 206.82204746153567,678.7686989529677 L 207.8220474615357,672.7428278281271 L 207.8220474615357,678.6443794824132 L 208.8220474615357,673.8113581666078 L 208.82204746153576,685.6885160276184 L 209.8220474615357,675.2759942070728 L 209.82204746153573,685.9965252055442 L 210.8220474615357,678.9617383888176 L 210.82204746153573,686.3900300089913 L 211.8220474615357,681.3437796133694 L 211.8220474615357,686.8532253268311 L 212.82204746153573,682.1462920035344 L 212.8220474615357,687.3674631721055 L 213.82204746153573,682.8933604187843 L 213.8220474615357,687.9115301227224 L 214.82204746153576,683.6721124470535 L 214.8220474615357,688.4621425030014 L 215.8220474615358,684.5318435264478 L 215.82204746153556,696.9211207406945 L 216.82204746153582,685.5425281969675 L 216.82204746153562,697.0507032295167 L 217.82204746153587,686.8806265902629 L 217.82204746153567,697.2341066026218 L 218.8220474615357,690.6784511864017 L 218.82204746153576,703.3282790241005 L 219.8220474615357,690.7139526674268 L 219.82204746153573,701.4148938502299 L 219.8220474615357,701.9849510215669 L 219.82204746153573,703.9965752263221 L 220.8220474615357,703.042851125555 L 220.8220474615357,704.7657027669997 L 221.8220474615357,703.583634239118 L 221.82204746153562,705.7694771410285 L 222.82204746153567,703.6220556935124 L 222.82204746153567,708.7062901951214 L 223.82204746153565,703.2782430368966 L 223.8220474615357,709.6666932934214 L 224.82204746153562,702.7483233133173 L 224.8220474615357,709.7522502848753 L 225.8220474615356,702.2214331128711 L 225.8220474615357,714.8676068169946 L 225.82204746153567,715.4349780198971 L 225.8220474615357,725.9563650346688 L 226.82204746153553,701.8221300658527 L 226.8220474615357,726.3328492910568 L 227.8220474615357,704.3537859591958 L 227.82204746153556,726.3818408135409 L 228.8220474615357,704.9607825953944 L 228.8220474615356,726.2524054451435 L 229.82204746153562,706.2820563353428 L 229.82204746153562,726.0702485785442 L 230.8220474615357,707.8593004461459 L 230.82204746153565,725.900383550545 L 231.8220474615357,709.0565933632802 L 231.82204746153567,725.815050799961 L 232.82204746153567,710.98257724354 L 232.82204746153567,725.9938999273058 L 233.8220474615357,713.0599584548335 L 233.82204746153573,729.304749005762 L 234.82204746153573,714.3226705063079 L 234.82204746153573,729.3934831322393 L 235.82204746153576,715.4194724193474 L 235.8220474615357,729.0159820755712 L 236.8220474615357,716.8905858983798 L 236.8220474615357,726.5995060555148 L 237.8220474615357,720.5373877005219 L 237.82204746153556,725.1440115437142 L 238.82204746153573,720.9373572831736 L 238.82204746153562,725.60742288495 L 239.82204746153576,721.2584550990753 L 239.82204746153565,726.5338540098803 L 240.8220474615357,725.6817809756575 L 240.82204746153567,728.0469499654561 L 241.82204746153573,726.7434795926796 L 241.8220474615357,744.1067224586557 L 242.82204746153576,727.892535688812 L 242.82204746153582,730.3513272120995 L 242.8220474615357,730.4094013985944 L 242.8220474615357,744.030670537925 L 243.8220474615357,730.5059397187987 L 243.8220474615357,744.172813740237 L 243.82204746153562,745.439503466604 L 243.8220474615357,748.7313334765591 L 244.82204746153565,730.683389710955 L 244.82204746153567,746.5826464439109 L 245.8220474615356,730.5698249495813 L 245.82204746153567,747.2901257303942 L 246.8220474615357,733.3080854042825 L 246.8220474615357,747.5711158277569 L 247.8220474615357,735.3430032193402 L 247.8220474615357,747.6950632859025 L 248.82204746153573,737.7250669341987 L 248.8220474615357,747.7538477806288 L 249.82204746153573,741.3599999999999 L 249.8220474615357,747.8097696644999 L 250.8220474615357,741.3599999999999 L 250.8220474615357,747.9470160248563 L 251.82204746153573,741.3599999999999 L 251.8220474615357,748.4981151089634 L 251.82204746153582,749.2831559992347 L 251.82204746153585,750.6743900253396 L 252.82204746153573,741.3599999999999 L 252.8220474615358,750.9227758298665 L 253.8220474615357,737.33911926162 L 253.82204746153602,744.1920697864657 L 254.82204746153565,737.3810794905878 L 254.8220474615357,737.7757811328744" fill="none" stroke="#64b88c" stroke-width="0.1"/>
	<path d="M 201.8220474615357,663.7416224355183 L 201.82204746153573,666.6435181444675 L 202.8220474615357,664.4622106708124 L 202.8220474615357,665.7410791200773" fill="none" stroke="#c0235a" stroke-width="0.1"/>
	<path d="M 202.82204746153576,671.4458703047931 L 202.8220474615357,675.9864002509161" fill="none" stroke="#a51594" stroke-width="0.1"/>
	<path d="M 204.8220474615357,691.9523349912904 L 204.82204746153576,692.4566134771421 L 205.82204746153567,691.4154448837837 L 205.82204746153573,692.8713949236045 L 206.82204746153562,691.2082951852516 L 206.82204746153573,692.5474995690323 L 207.8220474615357,690.767361278478 L 207.8220474615357,692.0601752805877 L 208.82204746153573,689.9564907415505 L 208.8220474615357,691.4901100973708 L 209.82204746153576,689.1354940110097 L 209.8220474615357,690.8797844081255 L 210.82204746153582,688.4585355756553 L 210.82204746153585,690.5882586747026 L 211.8220474615357,688.4864885580446 L 211.8220474615358,690.7451603897604 L 212.8220474615357,689.1806203982394 L 212.82204746153573,691.3681797653388 L 213.82204746153573,689.9442005141196 L 213.82204746153567,695.3935371147917 L 214.82204746153576,689.4757980893315 L 214.8220474615357,696.4737435543557" fill="none" stroke="#dfd266" stroke-width="0.1"/>
	<path d="M 205.82204746153567,682.020872131418 L 205.8220474615357,685.1075546744992 L 206.82204746153567,681.2045356208936 L 206.8220474615358,685.3776979293966 L 207.82204746153562,680.5766197168081 L 207.82204746153576,685.4788884372477" fill="none" stroke="#d7e45f" stroke-width="0.1"/>
	<path d="M 212.8220474615357,693.5865423652102 L 212.8220474615356,694.7308604111051" fill="none" stroke="#77cd56" stroke-width="0.1"/>
	<path d="M 216.82204746153567,700.9733738635249 L 216.82204746153585,702.3078848926143 L 217.8220474615357,700.4679975194389 L 217.8220474615358,702.7535283186437" fill="none" stroke="#042765" stroke-width="0.1"/>
	<path d="M 218.82204746153582,709.427613501022 L 218.82204746153576,710.4260019171109 L 219.8220474615357,709.0108481026427 L 219.82204746153573,711.9135495558816 L 220.8220474615357,709.2794801244678 L 220.8220474615357,716.2976597777498 L 221.82204746153567,711.9014877624077 L 221.8220474615357,715.7084505441368 L 222.8220474615357,711.9481708455428 L 222.8220474615357,714.9758931337494 L 223.8220474615357,711.7089956029841 L 223.8220474615357,714.4068720435127 L 224.82204746153567,711.1888634698307 L 224.8220474615357,714.2903971777719" fill="none" stroke="#0dd398" stroke-width="0.1"/>
	<path d="M 218.8220474615357,715.4143596654982 L 218.82204746153573,715.9358172901864 L 219.82204746153573,714.0829310940695 L 219.82204746153573,716.4541046310078" fill="none" stroke="#7a3926" stroke-width="0.1"/>
	<path d="M 220.8220474615357,690.9995571293015 L 220.82204746153573,700.730892711207 L 221.8220474615357,691.9898524711846 L 221.8220474615357,700.387303593869 L 222.8220474615357,693.776004299744 L 222.8220474615357,700.0756701736562 L 223.82204746153567,695.5694568953545 L 223.8220474615357,699.707780790376 L 224.82204746153565,696.8816145081738 L 224.8220474615357,699.1379393315126" fill="none" stroke="#670dbe" stroke-width="0.1"/>
	<path d="M 223.8220474615357,717.8142883647247 L 223.8220474615357,719.7699167952134 L 224.8220474615357,716.624633192311 L 224.8220474615357,721.1599486786245" fill="none" stroke="#3147bf" stroke-width="0.1"/>
	<path d="M 228.8220474615357,729.2091562639291 L 228.8220474615357,730.5686644038306 L 229.82204746153567,728.614331062625 L 229.82204746153567,730.8805315677265 L 230.82204746153567,728.2982432770489 L 230.8220474615357,729.9523783015077 L 231.82204746153567,728.1062588363902 L 231.82204746153576,729.2938891628148 L 232.82204746153565,728.0230695426868 L 232.82204746153573,729.2026095182229" fill="none" stroke="#2e0d7a" stroke-width="0.1"/>
	<path d="M 231.8220474615357,743.0469529364939 L 231.82204746153567,744.2419757042602 L 232.82204746153573,743.0353250295171 L 232.8220474615357,744.870352147632 L 233.8220474615357,744.400677248457 L 233.8220474615357,746.8394379555856 L 234.82204746153573,745.0675284853008 L 234.82204746153585,747.1658685836949 L 235.82204746153573,745.2038729496586 L 235.82204746153582,747.0964763892814 L 236.82204746153576,745.0671069635534 L 236.8220474615358,746.7929238907332 L 237.82204746153576,744.717943842535 L 237.82204746153576,746.2715900705468 L 238.8220474615358,744.1493876566464 L 238.82204746153573,745.6106040076422 L 239.82204746153582,743.2582543657046 L 239.82204746153573,744.9466763702744" fill="none" stroke="#5b05d8" stroke-width="0.1"/>
	<path d="M 232.82204746153573,732.8413868595251 L 232.82204746153576,732.9953752118282 L 233.82204746153573,732.471746071576 L 233.82204746153576,733.1849466435419 L 234.8220474615357,732.102105283627 L 234.82204746153573,733.6263397183034 L 235.8220474615357,731.732464495678 L 235.82204746153573,734.3573111965005 L 236.8220474615357,731.3628237077289 L 236.8220474615357,735.5292189382855 L 237.82204746153573,730.9931829197799 L 237.8220474615357,740.9403595570234 L 238.82204746153576,730.6235421318308 L 238.82204746153573,740.6542899052821 L 239.82204746153573,730.2539013438819 L 239.82204746153573,740.3682202535408 L 240.82204746153573,729.8842605559329 L 240.8220474615357,744.4182522471441" fill="none" stroke="#52f545" stroke-width="0.1"/>
	<path d="M 236.82204746153573,740.1099225309337 L 236.82204746153573,741.2264292087647" fill="none" stroke="#fc6ee1" stroke-width="0.1"/>
	<path d="M 240.8220474615357,748.1397630815945 L 240.82204746153567,749.1898244211741 L 241.82204746153567,747.389591320471 L 241.8220474615357,748.7138050477267 L 242.82204746153567,746.6810548276725 L 242.8220474615357,748.4321186420914" fill="none" stroke="#06192e" stroke-width="0.1"/>
	<path d="M 245.82204746153562,726.5869526989652 L 245.82204746153562,726.8140589352709 L 246.8220474615357,726.383718633401 L 246.82204746153573,731.5629519656653 L 247.82204746153562,727.8730823398927 L 247.8220474615357,731.061221861859 L 248.82204746153565,729.8879427108744 L 248.82204746153573,730.5594917580528" fill="none" stroke="#962f86" stroke-width="0.1"/>
	<path d="M 250.82204746153573,749.6421569378035 L 250.8220474615357,750.4840487619376" fill="none" stroke="#500702" stroke-width="0.1"/>
	<path d="M 251.82204746153567,737.0887330256405 L 251.82204746153567,738.0439566669559 L 252.8220474615357,737.2099451468526 L 252.8220474615357,740.5410664935458 L 253.8220474615357,746.2373700695877 L 253.82204746153573,751.1071612838482 L 254.82204746153573,747.538359873902 L 254.8220474615357,751.0383954193549 L 255.82204746153576,748.5358411717183 L 255.82204746153587,750.530110353803" fill="none" stroke="#2ebd42" stroke-width="0.1"/>
	<path d="M 254.8220474615357,739.4457339221707 L 254.8220474615359,744.2468246314 L 255.82204746153567,741.0418874517563 L 255.8220474615358,744.5394427751075 L 256.82204746153565,742.3604225436636 L 256.8220474615357,744.645359887718" fill="none" stroke="#c57f8b" stroke-width="0.1"/>
	<path d="M 72.50382686840645,547.2603116953672 L 72.50382686840643,551.5079225885256 L 73.50382686840643,546.7252423867835 L 73.50382686840643,551.748223729614 L 74.50382686840645,542.1201612683742 L 74.50382686840645,551.9097402789674 L 75.50382686840645,541.1603884203698 L 75.50382686840645,552.3096274803531 L 76.50382686840645,541.3069401445077 L 76.50382686840645,554.8671518083149 L 77.50382686840645,541.2939688416474 L 77.50382686840645,556.1536682325801 L 78.50382686840643,534.2435015984596 L 78.50382686840645,556.4810096946301 L 79.50382686840643,533.6992433953923 L 79.50382686840645,556.535768087596 L 80.50382686840645,532.8756620106435 L 80.50382686840645,556.4527280397352 L 81.50382686840643,530.3857963403957 L 81.50382686840645,556.295295974721 L 82.50382686840642,529.7713337338446 L 82.50382686840645,556.1063914274596 L 83.50382686840642,529.7413609256466 L 83.50382686840645,555.9285436615529 L 84.50382686840645,529.4832365005351 L 84.50382686840645,555.8295852806385 L 85.50382686840646,527.3157723857026 L 85.50382686840642,555.9549632919385 L 86.50382686840645,525.3566753954744 L 86.50382686840645,556.2341997839853 L 87.50382686840643,526.437635628729 L 87.50382686840645,556.4172101186381 L 88.50382686840642,527.0450524741316 L 88.50382686840649,556.4222223692576 L 89.50382686840645,524.5155632652637 L 89.50382686840649,556.4030756264826 L 90.50382686840645,523.4634338401793 L 90.50382686840648,556.3776253896574 L 91.50382686840645,523.371857093813 L 91.50382686840648,556.3522076756518 L 92.50382686840643,523.3264665731939 L 92.50382686840646,556.3308742092987 L 93.50382686840643,523.3236654681308 L 93.50382686840646,556.3173460213742 L 94.50382686840642,523.3592258231417 L 94.50382686840646,556.316116214674 L 95.50382686840642,523.4283671050456 L 95.50382686840645,556.3339213834564 L 96.5038268684064,523.5258652434245 L 96.50382686840645,556.383271593514 L 97.50382686840639,523.6461856476081 L 97.50382686840645,556.496129894819 L 98.50382686840638,523.7836309030207 L 98.50382686840645,556.8738409181417 L 99.50382686840635,523.9324922934973 L 99.50382686840645,559.4496405386855 L 100.50382686840634,524.0871942722927 L 100.50382686840643,560.4294747089366 L 101.50382686840645,530.1529296616754 L 101.50382686840643,560.4570789631997 L 102.50382686840645,531.7014924259894 L 102.50382686840645,560.3912670306102 L 103.50382686840645,532.9550425593832 L 103.50382686840645,560.8405356932806 L 104.50382686840645,534.065162116448 L 104.5038268684064,562.9156545291523 L 105.50382686840645,535.0841522807209 L 105.50382686840642,563.6293150998578 L 106.50382686840645,536.0372188061624 L 106.50382686840643,564.3238567212829 L 107.50382686840646,536.9384760269253 L 107.50382686840645,565.0040857783415 L 108.50382686840645,537.7963819861855 L 108.50382686840645,565.4997378876443 L 109.50382686840646,538.6159688328881 L 109.50382686840645,565.6180240521287 L 110.50382686840645,539.3997595383981 L 110.50382686840645,565.6317707434506 L 111.50382686840645,540.1478927748782 L 111.50382686840645,565.7301566143128 L 112.50382686840645,540.857306238464 L 112.50382686840642,566.234529958374 L 113.50382686840648,541.5185189956127 L 113.50382686840645,568.9273842752579 L 114.50382686840646,541.9461418552836 L 114.50382686840645,570.0022873057827 L 115.50382686840655,542.0265031468521 L 115.50382686840645,570.6184327862599 L 116.50382686840646,542.5018034758517 L 116.50382686840645,571.2216170108561 L 117.50382686840643,543.7342416903202 L 117.50382686840645,571.8109150624874 L 118.5038268684064,545.4241447132432 L 118.50382686840648,572.2791006978684 L 119.50382686840645,546.7182674236124 L 119.50382686840646,572.2056896317198 L 120.50382686840645,547.9212028108487 L 120.50382686840645,572.0482222398543 L 121.50382686840645,549.1273983822944 L 121.50382686840645,572.0667476454114 L 122.50382686840645,550.3233566596231 L 122.50382686840645,572.4293524735878 L 123.50382686840643,551.4959746795055 L 123.5038268684065,579.1014099756895 L 124.50382686840643,552.6337774309893 L 124.50382686840649,579.4956773323125 L 125.50382686840643,553.727781786922 L 125.50382686840648,579.7734937947813 L 126.50382686840642,554.771845253888 L 126.50382686840646,580.2951461315151 L 127.50382686840645,556.8225996025583 L 127.50382686840646,582.7048738653234 L 128.50382686840646,558.5995197071953 L 128.50382686840646,582.241066894814 L 129.5038268684065,559.915057069451 L 129.5038268684065,581.7772599243046 L 130.5038268684065,561.0619356576323 L 130.50382686840646,581.3134529537953 L 131.50382686840652,562.1448003338365 L 131.5038268684065,581.9351865661247 L 132.50382686840655,563.2330125296987 L 132.50382686840652,585.7695468417298 L 133.50382686840658,564.4055702888223 L 133.50382686840652,585.7709584278417 L 134.50382686840646,565.7319498237122 L 134.5038268684065,585.8374759756476 L 135.50382686840646,567.143108097873 L 135.5038268684065,586.0018537401783 L 136.5038268684065,568.5922571555902 L 136.50382686840646,586.3111956220413 L 137.5038268684065,570.0354517893372 L 137.50382686840646,586.8455124818342 L 138.50382686840652,571.4271717006632 L 138.50382686840646,587.774627172868 L 139.5038268684065,572.6828959114926 L 139.50382686840646,593.3286335837062 L 140.50382686840652,573.1201120599032 L 140.5038268684064,593.1346548799007 L 141.50382686840646,574.1916375071241 L 141.50382686840643,592.7012793894294 L 142.50382686840646,575.5366618855444 L 142.50382686840643,592.3270495138026 L 143.50382686840646,576.7282383144865 L 143.50382686840646,592.4467424435489 L 144.50382686840646,577.8673042973656 L 144.50382686840646,593.2344270685352 L 145.50382686840646,579.0292474035801 L 145.5038268684065,595.1330514926882 L 146.50382686840646,580.2992791947996 L 146.50382686840646,595.3605452150498 L 147.50382686840646,581.8240008152102 L 147.50382686840646,595.234777789458 L 148.50382686840646,583.3186238306463 L 148.50382686840646,595.0896218465284 L 149.5038268684064,583.486877162528 L 149.5038268684064,603.2614421915998 L 150.50382686840646,585.1473811374245 L 150.50382686840643,605.3798901853835 L 151.50382686840646,586.9631344901447 L 151.50382686840646,606.8493617859631 L 152.5038268684065,588.0229644730329 L 152.50382686840646,607.337831406632 L 153.50382686840652,589.0858194641435 L 153.50382686840646,607.4824704794646 L 154.50382686840646,590.4163004395015 L 154.50382686840646,607.4527731743323 L 155.50382686840646,591.8371139278717 L 155.50382686840646,607.3158360309579 L 156.5038268684065,593.236760577499 L 156.50382686840646,616.096699359227 L 157.50382686840646,594.5530171173153 L 157.50382686840646,616.1432786896492 L 158.50382686840646,595.7126375309458 L 158.50382686840646,616.1898580200713 L 159.5038268684065,596.8065376831728 L 159.50382686840646,616.2364373504934 L 160.50382686840646,598.0020471554692 L 160.50382686840646,616.2830166809156 L 161.50382686840652,599.5304358094971 L 161.50382686840646,616.3295960113377 L 162.50382686840646,601.2056605780173 L 162.50382686840646,616.3761753417598 L 163.50382686840646,602.3855630575548 L 163.5038268684065,617.1316695227836 L 164.5038268684065,603.5094954157588 L 164.50382686840638,620.1350677299242 L 165.50382686840652,604.6651538597708 L 165.5038268684064,620.6642128798126 L 166.50382686840646,605.9376406908459 L 166.50382686840643,621.1100585756523 L 167.50382686840643,607.3034935207884 L 167.50382686840635,614.6024588139207 L 168.50382686840643,608.6673693755829 L 168.50382686840638,614.3044285238065 L 169.50382686840646,610.240691204599 L 169.5038268684064,614.9632609419207 L 170.50382686840646,611.8583950986779 L 170.50382686840643,616.411055768577 L 171.50382686840646,613.5571427482478 L 171.50382686840646,618.3010174934424 L 172.50382686840646,614.5783520338804 L 172.50382686840646,619.5695923217069 L 173.50382686840646,615.7619867200461 L 173.50382686840646,620.5091902866534 L 174.50382686840643,617.4016212242404 L 174.50382686840646,621.1347204973147 L 175.50382686840638,619.0358196297152 L 175.50382686840646,621.0820472597123" fill="none" stroke="#13110d" stroke-width="0.1"/>
	<path d="M 73.50382686840645,543.6596349525846 L 73.50382686840643,544.9239156538391" fill="none" stroke="#f17414" stroke-width="0.1"/>
	<path d="M 76.50382686840645,535.5712037774176 L 76.50382686840642,537.7645190354356 L 77.50382686840645,534.826600084521 L 77.50382686840645,539.6848179137805" fill="none" stroke="#61b856" stroke-width="0.1"/>
	<path d="M 122.50382686840645,577.0550609597469 L 122.50382686840645,577.7402272717027" fill="none" stroke="#fe67d2" stroke-width="0.1"/>
	<path d="M 136.50382686840646,590.1212877093662 L 136.50382686840646,592.6534642053884 L 137.50382686840646,588.7406904162699 L 137.50382686840646,593.2318126533526 L 138.50382686840646,587.8472772037342 L 138.50382686840646,593.3724060810622" fill="none" stroke="#579b33" stroke-width="0.1"/>
	<path d="M 145.5038268684065,598.8530231264183 L 145.50382686840646,601.6099995460187 L 146.50382686840646,597.2740291250328 L 146.50382686840646,602.2038694482308 L 147.50382686840643,596.7486575719599 L 147.50382686840646,602.4530532652028 L 148.5038268684064,596.1977507729999 L 148.50382686840646,602.6789626442969" fill="none" stroke="#6cbdef" stroke-width="0.1"/>
	<path d="M 167.50382686840646,617.8801835707055 L 167.50382686840643,621.517603951804 L 168.50382686840646,618.9766410858069 L 168.50382686840646,621.8796683772376 L 169.50382686840646,620.0656395749054 L 169.50382686840646,622.1195524626933" fill="none" stroke="#9744fb" stroke-width="0.1"/>
	<path d="M 549.5721148696954,786.2095344756483 L 549.5721148696955,791.44 L 550.5721148696954,783.8976765776414 L 550.5721148696955,791.44 L 551.5721148696955,782.4067771520116 L 551.5721148696955,791.44" fill="none" stroke="#d47e61" stroke-width="0.1"/>
	<path d="M 74.91948922411898,665.6060532927172 L 74.91948922411895,668.5879628905346 L 75.91948922411898,665.9199166907761 L 75.91948922411896,669.3166326354269 L 76.91948922411898,666.4950575989986 L 76.91948922411898,670.0717121316216 L 77.91948922411898,667.2405576702606 L 77.91948922411898,671.5029773122992 L 78.91948922411899,668.1474087938808 L 78.91948922411898,675.4491631440377 L 79.91948922411898,669.4779510202611 L 79.919489224119,677.5002107468331 L 80.91948922411898,671.733260215787 L 80.91948922411899,679.2377599728245 L 81.91948922411899,673.5684278397443 L 81.91948922411899,680.7661565631715 L 82.91948922411898,674.4393821217368 L 82.91948922411899,682.1302640059288 L 83.91948922411898,674.8674844245983 L 83.91948922411898,683.3541227747868 L 84.91948922411896,675.1636169529211 L 84.91948922411898,684.4516830155708 L 85.91948922411898,675.7514395212444 L 85.91948922411898,685.4311898755561 L 86.91948922411898,677.277158820887 L 86.91948922411898,686.2972696308607 L 87.91948922411899,678.8758671143443 L 87.91948922411898,687.0520195184462 L 88.91948922411898,681.2990224200687 L 88.91948922411899,687.5387955499999 L 89.91948922411895,683.9693725009546 L 89.91948922411898,687.770657875909 L 90.9194892241189,686.3089467460698 L 90.91948922411898,688.1915340673036 L 91.91948922411898,688.2205455303025 L 91.91948922411889,696.8120395588779 L 92.91948922411898,689.6341693513195 L 92.91948922411893,698.0988248971315 L 93.91948922411899,690.6633632973612 L 93.91948922411896,698.9618548470027 L 94.91948922411899,691.4496731596753 L 94.91948922411898,699.8627865792338 L 95.919489224119,692.1269848076169 L 95.91948922411902,701.3547431868524 L 96.91948922411902,692.810683992057 L 96.919489224119,703.7083664897722 L 97.91948922411905,693.5924547452552 L 97.91948922411905,710.1495064810877 L 98.91948922411906,694.5399270425697 L 98.91948922411903,710.054929543281 L 99.91948922411898,695.6239263102287 L 99.91948922411902,710.2384420313897 L 100.91948922411898,696.7102410121195 L 100.919489224119,710.8458907151783 L 101.91948922411898,697.785559900156 L 101.91948922411899,712.0198670594723 L 102.91948922411898,698.8403592917444 L 102.91948922411898,713.4564002200839 L 103.91948922411898,699.8660840343806 L 103.91948922411895,714.4269861114642 L 104.91948922411898,700.8554315906975 L 104.91948922411896,714.6768854211591 L 105.91948922411899,701.8025031293228 L 105.91948922411898,715.2329622971574 L 106.91948922411899,702.7028292830004 L 106.91948922411895,717.5294360651836 L 107.91948922411899,703.553295331764 L 107.91948922411898,721.5151805206069 L 108.91948922411899,704.3519981365214 L 108.91948922411898,723.1199554063107 L 109.91948922411899,705.0980665226067 L 109.91948922411898,724.323873751932 L 110.91948922411898,705.8066722444403 L 110.91948922411898,725.4594274532495 L 111.91948922411898,706.5039032055722 L 111.91948922411899,726.5515469901345 L 112.91948922411896,707.2041648876134 L 112.91948922411899,727.512043932922 L 113.91948922411896,707.9208114556224 L 113.91948922411898,728.2760466583325 L 114.91948922411896,708.6687808306235 L 114.91948922411898,729.0589029809607 L 115.91948922411895,709.46796851204 L 115.919489224119,730.0418940940029 L 116.91948922411893,710.3498712981036 L 116.91948922411899,731.3881337742 L 117.91948922411898,711.2996304588847 L 117.91948922411899,732.8425122547121 L 118.91948922411898,712.1796464884394 L 118.91948922411899,734.3366865363826 L 119.91948922411898,712.9914165951581 L 119.91948922411898,735.8305325771265 L 120.91948922411898,713.7448284628903 L 120.91948922411898,737.2454569769689 L 121.91948922411898,714.450325155159 L 121.919489224119,737.69857392307 L 122.91948922411898,715.1187263618359 L 122.91948922411898,737.4667150780847 L 123.91948922411896,715.7610369423604 L 123.91948922411893,737.435152089234 L 124.91948922411896,716.3882521560253 L 124.91948922411895,737.8382130767756 L 125.91948922411896,717.0111690362145 L 125.91948922411896,738.7654510957146 L 126.91948922411896,717.6402125511929 L 126.91948922411898,740.6320721197268 L 127.91948922411896,718.2852836427004 L 127.91948922411896,742.98584169965 L 128.91948922411896,718.9556341863852 L 128.919489224119,743.0519895595722 L 129.91948922411896,719.6597716614299 L 129.919489224119,743.1181374194944 L 130.91948922411896,720.4053941271469 L 130.919489224119,743.1842852794166 L 131.919489224119,721.3675589556713 L 131.919489224119,743.2504331393387 L 132.91948922411893,722.7666412673718 L 132.919489224119,743.4581754401773 L 133.919489224119,723.3878384677836 L 133.91948922411902,746.7258534804528 L 134.919489224119,723.6249885736829 L 134.91948922411902,748.0867288692232 L 135.91948922411902,723.8115781373855 L 135.919489224119,749.2019826113699 L 136.91948922411905,724.1137970540482 L 136.919489224119,750.1695579827399 L 137.919489224119,724.8232132914234 L 137.919489224119,750.9947550138191 L 138.919489224119,726.1805119438267 L 138.91948922411885,751.5529114075136 L 139.919489224119,727.4118983422195 L 139.91948922411888,751.7220548536526 L 140.919489224119,728.2082363715724 L 140.9194892241189,751.2512748063093 L 141.919489224119,728.9319265203397 L 141.91948922411896,749.4322024415864 L 142.919489224119,729.6252895002154 L 142.919489224119,747.3852454775663 L 143.919489224119,730.292897917159 L 143.919489224119,747.1196656874309 L 144.919489224119,730.9386558142078 L 144.919489224119,748.7654706515689 L 145.919489224119,731.5659496175847 L 145.919489224119,749.7163840220542 L 146.919489224119,732.1777606672795 L 146.919489224119,749.6142714577569 L 147.919489224119,732.7767509991147 L 147.919489224119,748.3126201369051 L 148.919489224119,733.365330139799 L 148.91948922411913,748.6136359177326 L 149.919489224119,733.9457082183288 L 149.91948922411905,751.4808097067541 L 150.919489224119,734.5199391100135 L 150.91948922411902,752.3523315883475 L 151.919489224119,735.0899562829179 L 151.919489224119,752.9909979118356 L 152.919489224119,735.6576033153794 L 152.919489224119,753.69402867202 L 153.919489224119,736.2246605790832 L 153.91948922411902,754.8009129074834 L 154.919489224119,736.7928692618302 L 154.919489224119,757.0837229136621 L 155.919489224119,737.3639536918823 L 155.919489224119,758.1677248315158 L 156.919489224119,737.9396427931982 L 156.919489224119,758.741017354797 L 157.919489224119,738.5216914309798 L 157.919489224119,763.0712385449087 L 158.91948922411896,739.1119023908536 L 158.919489224119,763.4432417033885 L 159.919489224119,739.7121497702907 L 159.919489224119,763.9237199577808 L 160.919489224119,740.3244046510262 L 160.919489224119,764.446359019346 L 161.919489224119,740.9507640763139 L 161.919489224119,764.9191572675735 L 162.91948922411896,741.5934845950931 L 162.919489224119,765.244500632756 L 163.91948922411896,742.255021986375 L 163.919489224119,765.3460351647537 L 164.91948922411896,742.9380792885947 L 164.919489224119,765.1844230816358 L 165.91948922411896,743.6456660048615 L 165.91948922411896,766.2304568579777 L 166.91948922411896,744.3811724550404 L 166.91948922411893,767.7967023783186 L 167.91948922411896,745.1484648931905 L 167.91948922411896,769.1630614903771 L 168.919489224119,745.941513999441 L 168.91948922411896,770.4815174459284 L 169.919489224119,746.7340327174453 L 169.91948922411896,771.7429729691105 L 170.919489224119,747.5247454685565 L 170.919489224119,772.9352984607286 L 171.919489224119,748.3139685558132 L 171.919489224119,774.0405194940108 L 172.919489224119,749.1020002636906 L 172.919489224119,775.0298235783588 L 173.919489224119,749.8891234015722 L 173.919489224119,775.8516822452116 L 174.919489224119,750.6756075258259 L 174.91948922411896,776.3827740377831 L 175.919489224119,751.4617108976048 L 175.919489224119,776.4313850806795 L 176.919489224119,752.2476822229553 L 176.919489224119,776.5096350609265 L 177.919489224119,753.0337622135894 L 177.919489224119,777.8842820514371 L 178.919489224119,753.8201850002264 L 178.919489224119,779.468675203868 L 179.919489224119,754.6071794253279 L 179.919489224119,780.9703028879575 L 180.919489224119,755.3949702380492 L 180.919489224119,782.3103442902861 L 181.919489224119,756.1837792110812 L 181.919489224119,783.3463587908208 L 182.91948922411896,756.9738261965988 L 182.919489224119,783.8243435343314 L 183.91948922411896,757.7653301366265 L 183.919489224119,784.0788216396495 L 184.91948922411896,758.5585100417043 L 184.919489224119,784.2916450993837 L 185.91948922411896,759.3535859506917 L 185.919489224119,787.8375739204753 L 186.91948922411896,760.1507798838633 L 186.91948922411893,788.5366216678459 L 187.91948922411896,760.950316801062 L 187.91948922411896,789.0386101133682 L 188.91948922411896,761.7524255765904 L 188.919489224119,790.0576815486343 L 189.91948922411896,762.5573400027149 L 189.919489224119,791.4300000000001 L 190.91948922411893,763.3652998341297 L 190.919489224119,791.4300000000001 L 191.91948922411893,764.1765518865135 L 191.919489224119,791.4300000000001 L 192.91948922411893,764.9913512034095 L 192.919489224119,791.4300000000001 L 193.91948922411893,765.8099623071327 L 193.91948922411902,791.4300000000001 L 194.91948922411893,766.6326605512982 L 194.919489224119,791.4300000000001 L 195.91948922411893,767.4597335949538 L 195.91948922411902,791.4300000000001 L 196.9194892241189,768.2914830212812 L 196.919489224119,791.4300000000001 L 197.91948922411893,769.1282261275328 L 197.919489224119,791.4300000000001 L 198.9194892241189,769.970297917468 L 198.919489224119,791.4300000000001 L 199.9194892241189,770.8180533332505 L 199.919489224119,791.4300000000001 L 200.9194892241189,771.6718697708496 L 200.91948922411902,791.4300000000001 L 201.91948922411888,772.5321499318391 L 201.919489224119,791.4300000000001 L 202.9194892241189,773.3993250755698 L 202.91948922411902,791.4300000000001 L 203.91948922411888,774.2738587496812 L 203.919489224119,791.4300000000001 L 204.91948922411888,775.1562510946575 L 204.919489224119,791.4300000000001 L 205.91948922411888,776.0470438408203 L 205.919489224119,791.4300000000001 L 206.91948922411885,776.9468261453653 L 206.919489224119,791.4300000000001 L 207.91948922411885,777.8562414550129 L 207.919489224119,791.4300000000001 L 208.91948922411882,778.7759956296194 L 208.919489224119,791.4300000000001 L 209.91948922411882,779.7068666280331 L 209.91948922411902,791.4300000000001 L 210.91948922411882,780.6497161457677 L 210.919489224119,791.4300000000001 L 211.91948922411882,781.6055037137035 L 211.91948922411902,791.4300000000001 L 212.91948922411882,782.5753039312453 L 212.919489224119,791.4300000000001 L 213.91948922411882,783.5603277359547 L 213.919489224119,791.4300000000001 L 214.919489224119,784.5302480476817 L 214.919489224119,791.4300000000001 L 215.919489224119,785.249751578554 L 215.919489224119,791.4300000000001 L 216.91948922411896,785.9558631840742 L 216.919489224119,788.5024479175424 L 217.91948922411893,787.2069238595442 L 217.919489224119,788.5513461771923" fill="none" stroke="#a3713a" stroke-width="0.1"/>
	<path d="M 216.919489224119,789.8195637399745 L 216.91948922411902,791.4300000000001 L 217.919489224119,789.8593060896492 L 217.919489224119,791.4300000000001 L 218.91948922411902,789.9554385933117 L 218.91948922411902,791.4300000000001 L 219.91948922411902,790.2931191173832 L 219.919489224119,791.4300000000001" fill="none" stroke="#cd4f36" stroke-width="0.1"/>
	<path d="M 531.93,323.15 L 531.9300000000003,323.72999999999996 L 532.93,322.7300000000001 L 532.9300000000003,323.71313295531365 L 533.9300000000001,322.5740574102271 L 533.93,323.7369061142984" fill="none" stroke="#6b2d79" stroke-width="0.1"/>
	<path d="M 517.3699999999995,353.0970225369949 L 517.3699999999998,354.2376230712648 L 518.3699999999998,353.0741152662036 L 518.3699999999998,354.2581822962683 L 519.3699999999998,353.10076817724894 L 519.3699999999998,354.25 L 520.3700000000001,353.1 L 520.3699999999998,354.25" fill="none" stroke="#1c4791" stroke-width="0.1"/>
	<path d="M 522.5699999999997,347.56914390315137 L 522.57,347.92" fill="none" stroke="#4eab1b" stroke-width="0.1"/>
	<path d="M 535.39,320.85 L 534.81,320.85 C 534.8399999999999,320.66 534.79,320.46000000000004 534.81,320.27000000000004 C 535.0,320.24000000000007 535.1999999999999,320.29 535.39,320.27000000000004 C 536.08,320.22 535.38,320.8 535.39,320.85" fill="none" stroke="#1a0953" stroke-width="0.1"/>
	<path d="M 538.6842264973084,304.2143047435392 L 538.6842264973084,305.88006285956266" fill="none" stroke="#db6e87" stroke-width="0.1"/>
	<path d="M 518.1200000000003,355.97999999999996 L 518.1200000000001,355.98 L 519.1200000000003,355.9763013961581 L 519.1200000000003,357.283763093302 L 520.1200000000002,356.56063280452014 L 520.1200000000001,357.66388014466366" fill="none" stroke="#e5f539" stroke-width="0.1"/>
	<path d="M 36.99999999999999,605.3087304883448 L 36.99999999999999,609.7766588259427 L 37.99999999999999,605.6354150625739 L 37.99999999999999,609.6973714626356 L 38.99999999999999,607.0585868558005 L 38.999999999999986,608.4936431518238" fill="none" stroke="#1954c1" stroke-width="0.1"/>
	<path d="M 427.1,120.98 L 426.53,120.4 L 427.1,120.4 L 427.1,120.98 L 427.1,120.98" fill="none" stroke="#b8ebc9" stroke-width="0.1"/>
	<path d="M 302.69,790.86 L 302.69,791.44 L 303.69,790.86 L 303.69,791.44" fill="none" stroke="#02a701" stroke-width="0.1"/>
	<path d="M 0.0,0.0 L 612.0,0.0" fill="none" stroke="#9205ca" stroke-width="0.1"/>
	<path d="M 612.0,0.0 L 612.0,792.0" fill="none" stroke="#40e006" stroke-width="0.1"/>
	<path d="M 612.0,792.0 L 0.0,792.0" fill="none" stroke="#ac47e5" stroke-width="0.1"/>
	<path d="M 0.0,792.0 L 0.0,0.0" fill="none" stroke="#f0b7dd" stroke-width="0.1"/>
</svg>
