<?xml version="1.0" ?>
<svg xmlns="http://www.w3.org/2000/svg" xmlns:ev="http://www.w3.org/2001/xml-events" xmlns:xlink="http://www.w3.org/1999/xlink" baseProfile="full" data-name="Layer 1" height="792" id="a" version="1.1" viewBox="0 0 612 792" width="612">
	<defs/>
	<path d="M 64.5,107.5 L 111.5,107.5 L 64.5,107.0 L 111.5,107.0 L 64.5,106.5 L 111.5,106.5 L 64.5,106.0 L 111.5,106.0 L 64.5,105.5 L 111.5,105.5 L 64.5,105.0 L 111.5,105.0 L 64.5,104.5 L 111.5,104.5 L 64.5,104.0 L 111.5,104.0 L 64.5,103.5 L 111.5,103.5 L 64.5,103.0 L 111.5,103.0 L 64.5,102.5 L 111.5,102.5 L 64.5,102.0 L 111.5,102.0 L 64.5,101.5 L 111.5,101.5 L 64.5,101.0 L 111.5,101.0 L 64.5,100.5 L 111.5,100.5 L 64.5,100.0 L 111.5,100.0 L 64.5,99.5 L 111.5,99.5 L 64.5,99.0 L 111.5,99.0 L 64.5,98.5 L 111.5,98.5 L 64.5,98.0 L 111.5,98.0 L 64.5,97.5 L 111.5,97.5 L 64.5,97.0 L 111.5,97.0 L 64.5,96.5 L 111.5,96.5 L 64.5,96.0 L 111.5,96.0 L 64.5,95.5 L 111.5,95.5 L 64.5,95.0 L 111.5,95.0 L 64.5,94.5 L 111.5,94.5 L 64.5,94.0 L 111.5,94.0 L 64.5,93.5 L 111.5,93.5 L 64.5,93.0 L 111.5,93.0 L 64.5,92.5 L 111.5,92.5 L 64.5,92.0 L 111.5,92.0 L 64.5,91.5 L 111.5,91.5 L 64.5,91.0 L 111.5,91.0 L 64.5,90.5 L 111.5,90.5 L 64.5,90.0 L 111.5,90.0 L 64.5,89.5 L 111.5,89.5 L 64.5,89.0 L 111.5,89.0 L 64.5,88.5 L 111.5,88.5 L 64.5,88.0 L 111.5,88.0 L 64.5,87.5 L 111.5,87.5 L 64.5,87.0 L 111.5,87.0 L 64.5,86.5 L 111.5,86.5 L 64.5,86.0 L 111.5,86.0 L 64.5,85.5 L 111.5,85.5 L 64.5,85.0 L 111.5,85.0 L 64.5,84.5 L 111.5,84.5 L 64.5,84.0 L 111.5,84.0 L 64.5,83.5 L 111.5,83.5 L 64.5,83.0 L 111.5,83.0 L 64.5,82.5 L 111.5,82.5 L 64.5,82.0 L 111.5,82.0 L 64.5,81.5 L 111.5,81.5 L 64.5,81.0 L 111.5,81.0 L 64.5,80.5 L 111.5,80.5 L 64.5,80.0 L 111.5,80.0 L 64.5,79.5 L 111.5,79.5 L 64.5,79.0 L 111.5,79.0 L 64.5,78.5 L 111.5,78.5 L 64.5,78.0 L 111.5,78.0 L 64.5,77.5 L 111.5,77.5 L 64.5,77.0 L 111.5,77.0 L 64.5,76.5 L 111.5,76.5 L 64.5,76.0 L 111.5,76.0 L 64.5,75.5 L 111.5,75.5 L 64.5,75.0 L 111.5,75.0 L 64.5,74.5 L 111.5,74.5 L 64.5,74.0 L 111.5,74.0 L 64.5,73.5 L 111.5,73.5 L 64.5,73.0 L 111.5,73.0 L 64.5,72.5 L 111.5,72.5 L 64.5,72.0 L 111.5,72.0 L 64.5,71.5 L 111.5,71.5 L 64.5,71.0 L 111.5,71.0 L 64.5,70.5 L 111.5,70.5 L 64.5,70.0 L 111.5,70.0 L 64.5,69.5 L 111.5,69.5 L 64.5,69.0 L 111.5,69.0 L 64.5,68.5 L 111.5,68.5 L 64.5,68.0 L 111.5,68.0 L 64.5,67.5 L 111.5,67.5 L 64.5,67.0 L 111.5,67.0 L 64.5,66.5 L 111.5,66.5 L 64.5,66.0 L 111.5,66.0 L 64.5,65.5 L 111.5,65.5 L 64.5,65.0 L 111.5,65.0 L 64.5,64.5 L 111.5,64.5 L 64.5,64.0 L 111.5,64.0 L 64.5,63.5 L 111.5,63.5 L 64.5,63.0 L 111.5,63.0 L 64.5,62.5 L 111.5,62.5 L 64.5,62.0 L 111.5,62.0 L 64.5,61.5 L 111.5,61.5 L 64.5,61.0 L 111.5,61.0 L 64.5,60.5 L 111.5,60.5" fill="none" stroke="#c4164b" stroke-width="0.1"/>
	<path d="M 0.0,0.0 L 612.0,0.0 L 612.0,792.0 L 0.0,792.0 L 0.0,0.0" fill="none" stroke="#a2c9d7" stroke-width="0.1"/>
</svg>
