<?xml version="1.0" ?>
<svg xmlns="http://www.w3.org/2000/svg" xmlns:ev="http://www.w3.org/2001/xml-events" xmlns:xlink="http://www.w3.org/1999/xlink" baseProfile="full" data-name="Layer 1" height="792" id="a" version="1.1" viewBox="0 0 612 792" width="612">
	<defs/>
	<path d="M 100.03643663146588,247.36465045850025 L 100.62422134098597,247.95243516802032 L 100.74372208629865,247.36482913214653 L 101.53256640732613,248.15367345317392 L 101.48089013671571,247.39489040137695 L 102.41062769310363,248.32462795776487 L 102.23128065234013,247.4381741358148 L 103.2730326535031,248.47992613697778 L 102.98869726734907,247.4884839696373 L 104.12544527662413,248.6252319789123 L 103.75009346078062,247.54277338188226 L 104.97076952658645,248.76344944768806 L 104.51373728520801,247.59931042512315 L 105.81072999705589,248.89630313697094 L 105.27855090127156,247.65701726000006 L 106.64645004795449,249.02491640668296 L 106.04382075745826,247.7151803350003 L 107.47870976275314,249.1500693402951 L 106.80905286714088,247.77330566349633 L 108.30807697288014,249.2723297692356 L 107.57389358105377,247.83103959622264 L 109.13498024269904,249.39212625786791 L 108.3380831108559,247.88812234483822 L 109.95975244860503,249.50979168258735 L 109.10142675229898,247.94435920509474 L 110.78265825312442,249.62559070592025 L 109.86377627679562,247.99960194840483 L 111.60391220063235,249.73973787224162 L 110.6250174610976,248.05373635152029 L 112.42369107353011,249.85240996395277 L 111.38506147703458,248.10667358627074 L 113.24214258831964,249.96375469755577 L 112.14383879379898,248.15834412184853 L 114.05939167532264,250.07389700337225 L 112.90129476446998,248.20869331133306 L 114.87554511519683,250.18294366205993 L 113.65738637057989,248.2576781362564 L 115.69069502902678,250.29098679470331 L 114.41207978076079,248.30526476525074 L 116.50492155047377,250.39810653496372 L 115.16534849294862,248.35142669625205 L 117.31829490271832,250.50437310602172 L 115.91717190219399,248.39614332431086 L 118.13087703461662,250.60984845673346 L 116.66753418371198,248.43939882464227 L 118.94272292526875,250.7145875661991 L 117.41642341268333,248.48118127242714 L 119.75388163560025,250.81863949534397 L 118.1638308640996,248.52148194265683 L 120.56439716444449,250.9220482430017 L 118.90975045108883,248.56029474845948 L 121.37430915178828,251.02485344915894 L 119.65417827086036,248.59761578704445 L 122.18365346125644,251.12709097744062 L 120.39711223507766,248.6334429700752 L 122.99246266625074,251.22879340124837 L 121.13855176704102,248.6677757208521 L 123.80076645852756,251.32999041233862 L 121.87849755216139,248.7006147247859 L 124.60859199382273,251.43070916644723 L 122.61695133125471,248.73196172269263 L 125.41596418598385,251.5309745774218 L 123.35391572847783,248.76181933872923 L 126.22290595868651,251.63080956893788 L 124.08939410746649,248.79019093653136 L 127.0294384619773,251.7302352910421 L 124.8233904505657,248.81708049844394 L 127.83558125947015,251.82927130734845 L 125.55590925707286,248.84249252376458 L 128.64135249091368,251.92793575760544 L 126.28695545721375,248.86643194271892 L 129.44676901397804,252.0262454994832 L 127.01653433919765,248.88890404351628 L 130.25184652841733,252.124216232736 L 127.7446514871948,248.90991441032688 L 131.05659968521405,252.2218626083462 L 128.47131272847133,248.92946887041688 L 131.86104218286664,252.31919832481213 L 129.1965240882325,248.9475734489915 L 132.66518685262378,252.41623621338277 L 129.92029175097684,248.9642343305493 L 133.46904573417947,252.51298831375186 L 130.64262202736893,248.97945782575482 L 134.27263014309938,252.60946594148527 L 131.36352132580384,248.99325034300318 L 135.0759507310588,252.70567974825826 L 132.08299612797276,249.00561836398555 L 135.8790175398062,252.80163977581913 L 132.80105296784927,249.01656842267556 L 136.68184004963246,252.89735550445874 L 133.5176984136085,249.02610708724825 L 137.48442722301616,252.99283589665583 L 134.2329390520658,249.03424094451896 L 138.28678754401807,253.0880894364713 L 134.9467814752856,249.0409765865522 L 139.08892905392094,253.18312416518762 L 135.65923226906347,249.04632059914354 L 139.89085938354188,253.277947713622 L 136.3702980030266,249.0502795519201 L 140.69258578259092,253.37256733148445 L 137.0799852221373,249.05285998984428 L 141.4941151463986,253.4669899141055 L 137.7883004394128,249.05406842593322 L 142.29545404029545,253.56122202681587 L 138.49525012970196,249.05391133503582 L 143.09660872189147,253.65526992722522 L 139.20084072438166,249.05239514852897 L 143.89758516147077,253.74913958561817 L 139.90507860685398,249.0495262498148 L 144.69838906069674,253.84283670365758 L 140.60797010874137,249.04531097051563 L 145.4990258697909,253.93636673156513 L 141.30952150669142,249.0397555872791 L 146.29950080333919,254.02973488392695 L 142.00973901971332,249.03286631911448 L 147.09981885485666,254.12294615425782 L 142.70862880697982,249.0246493251944 L 147.89998481022621,254.21600532844084 L 143.40619696603483,249.01511070306287 L 148.7000032601186,254.30891699714664 L 144.1024495313573,249.0042564871988 L 149.49987861148503,254.40168556732652 L 144.79739247323522,248.99209264789016 L 150.29961509820674,254.49431527286183 L 145.4910316969117,248.97862509038012 L 151.09921679097658,254.58681018444508 L 146.18337304196888,248.96385965425074 L 151.89868760647718,254.67917421875907 L 146.87442228191878,248.9478021130141 L 152.6980313159193,254.77141114701465 L 147.5641851239762,248.93045817388497 L 153.4972515529927,254.86352460290146 L 148.25266720898924,248.91183347771147 L 154.29635182127765,254.95551808999988 L 148.93987411150783,248.8919335990435 L 155.09533550116322,255.04739498869895 L 149.62581133997196,248.87076404632109 L 155.89420585631103,255.1391585626602 L 150.31048433700403,248.8483302621666 L 156.6929660397003,255.23081196486294 L 150.99389847979114,248.8246376237672 L 157.4916190992886,255.32235824326472 L 151.67605908054523,248.79969144333472 L 158.2901679833165,255.4138003461061 L 152.35697138703011,248.77349696863305 L 159.08861554528437,255.5051411268874 L 153.03664058314587,248.74605938356228 L 159.88696454862537,255.59638334904182 L 153.71507178956193,248.71738380879177 L 160.68521767109775,255.6875296903276 L 154.39227006439154,248.68747530243485 L 161.48337750891693,255.77858274696024 L 155.06824040390114,248.6563388607579 L 162.28144658064585,255.86954503750266 L 155.74298774324822,248.62397941891842 L 163.0794273308619,255.9604190065322 L 156.41651695724318,248.59040185172682 L 163.87732213361468,256.05120702809836 L 157.08883286113027,248.55561097442737 L 164.6751332956906,256.14191140898777 L 157.75994021138337,248.5196115434939 L 165.47286305969735,256.2325343918079 L 158.42984370651362,248.4824082574376 L 166.2705136069796,256.3230781579037 L 159.09854798788524,248.4440057576227 L 167.06808706037924,256.41354483011673 L 159.766057640537,248.40440862908792 L 167.8655854868479,256.5039364753988 L 160.4323771940069,248.3636214013713 L 168.66301089992385,256.5942551072883 L 161.0975111231579,248.3216485493357 L 169.46036526208155,256.68450268825944 L 161.76146384900255,248.27849449399383 L 170.25765048696076,256.77468113195204 L 162.42423973952583,248.23416360333056 L 171.05486844148416,256.8647923052889 L 163.08584311050322,248.1886601931214 L 171.85202094787138,256.95483803048955 L 163.74627822631402,248.14198852774564 L 172.64910978555304,257.0448200869847 L 164.40554930074876,248.09415282099383 L 173.44613669299446,257.1347402132396 L 165.0636604978085,248.04515723686703 L 174.24310336943185,257.2246001084903 L 165.72061593249714,247.9950058903691 L 175.0400114765273,257.31440143439926 L 166.3764196716042,247.9437028482896 L 175.83686263994923,257.4041458166347 L 167.03107573447886,247.89125212997774 L 176.63365845087898,257.4938348463778 L 167.68458809379405,247.83765770810635 L 177.43040046745077,257.5834700817631 L 168.33696067630004,247.7829235094258 L 178.22709021612945,257.67305304925526 L 168.98819736356808,247.72705341550733 L 179.02372919302684,257.7625852449661 L 169.63830199272263,247.6700512634753 L 179.82031886516248,257.85206813591515 L 170.28727835716285,247.611920846729 L 180.61686067167176,257.94150316123796 L 170.9351302072729,247.55266591565248 L 181.41335602496383,258.0308917333434 L 171.58185433136026,247.4922832585532 L 182.20980631183204,258.1202352390251 L 172.22735866195507,247.4306808079615 L 183.00621289452027,258.2095350405268 L 172.87165936341492,247.3678747282348 L 183.8025771117481,258.2987924765681 L 173.51480954464236,247.30391812827568 L 184.59890027969485,258.3880088633283 L 174.1568626788938,247.23886448134056 L 185.3951836929474,258.4771854953944 L 174.7978628725964,247.17275789385667 L 186.1914286254132,258.5663236466735 L 175.43784560180654,247.10563384188026 L 186.98763633119745,258.65542457127145 L 176.0768394356117,247.0375208944988 L 187.7838080454537,258.744489504341 L 176.71486751161092,246.9684421893115 L 188.57994498519884,258.8335196628995 L 177.3519486601789,246.8984165566929 L 189.37604835010436,258.92251624661856 L 177.98809824451044,246.82745935983792 L 190.17211932326032,259.011480438588 L 178.6233287914215,246.7555831255624 L 190.9681590719132,259.1004134060544 L 179.25765047083735,246.68279802379178 L 191.76416874818077,259.18931630113525 L 179.89107146537614,246.609112237144 L 192.56014948974462,259.2781902615126 L 180.52359825914078,246.53453224972208 L 193.3561024205227,259.36703641110415 L 181.1552358662645,246.4590630756593 L 194.15202865132062,259.45585586071553 L 181.7859880138625,246.38270844207074 L 194.94792928046493,259.54464970867326 L 182.4158572899838,246.30547093700545 L 195.74380539441887,259.6334190414406 L 183.0448452643301,246.22735213016523 L 196.53965806838173,259.7221649342168 L 183.67295258751426,246.14835267216284 L 197.3354883668717,259.81088845152044 L 184.30017907320502,246.06847237666707 L 198.13129734429674,259.89959064775894 L 184.92652376647223,245.98771028874773 L 198.92708604550774,259.9882725677834 L 185.5519850008867,245.90606474197568 L 199.72285550634243,260.0769352474314 L 186.17656044636553,245.82353340626798 L 200.5186067541552,260.1655797140577 L 186.80024714932756,245.74011332804346 L 201.3143408083368,260.25420698705284 L 187.42304156640193,245.65580096393128 L 202.1100586808234,260.34281807835293 L 188.04493959268203,245.57059220902477 L 202.90576137659525,260.43141399293813 L 188.66593658532597,245.4844824204822 L 203.70144989416727,260.51999572932345 L 189.28602738315152,245.39746643712118 L 204.49712522607018,260.6085642800399 L 189.9052063227541,245.30953859553722 L 205.29278835932638,260.6971206321096 L 190.52346725158102,245.22069274317764 L 206.08844027591607,260.78566576751285 L 191.14080353831778,245.1309222487278 L 206.8840819532386,260.8742006636488 L 191.75720808087908,245.04022001010253 L 207.67971436456799,260.96272629379155 L 192.37267331224768,244.94857846028464 L 208.47533847950223,261.05124362753935 L 192.98719120436064,244.855989571211 L 209.27095526441082,261.13975363126127 L 193.600753270207,244.76244485587088 L 210.06656568287423,261.2282572685382 L 194.2133505642742,244.66793536875156 L 210.86217069612428,261.31675550060174 L 194.8249736814522,244.57245170474295 L 211.65777126347854,261.4052492867695 L 195.43561275448587,244.47598399659006 L 212.45336834277407,261.4937395848784 L 196.0452574500465,244.37852191096414 L 213.24896289079874,261.58222735171654 L 196.6538969634782,244.2800546432093 L 214.0445558637221,261.6707135434534 L 197.2615200122598,244.1805709108044 L 214.8401482175253,261.7591991160699 L 197.86811482821233,244.08005894557033 L 215.63574090842982,261.8476850257879 L 198.47366914846876,243.9785064846402 L 216.43133489332925,261.93617222950076 L 199.07817020521463,243.87590076019956 L 217.22693113021938,262.02466168520436 L 199.68160471419674,243.77222848799508 L 218.0225305786315,262.11315435243 L 200.28395886198916,243.66747585460098 L 218.81813420006745,262.20165119267926 L 200.88521829199777,243.56162850342304 L 219.61374295843626,262.2901531698617 L 201.48536808917464,243.45467151941335 L 220.4093578204969,262.3786612507355 L 202.0843927634071,243.34658941245925 L 221.20497975629968,262.4671764053519 L 202.68227623153726,243.2373660994029 L 222.00064753037157,262.5557373982372 L 203.2790017979603,243.1269848846394 L 222.79634374221808,262.6443268288972 L 203.8745521337399,243.01542843923244 L 223.59204193285953,262.7329182383521 L 204.46890925417307,242.90267877847901 L 224.38773782833655,262.8215073526426 L 205.06205449472478,242.7887172378442 L 225.18342704198304,262.9100897851025 L 205.6539684852456,242.67352444717847 L 225.97910507120824,262.99866103314116 L 206.24463112237362,242.55708030312 L 226.77476729417225,263.0872164749186 L 206.83402154001243,242.43936393957227 L 227.57040896635044,263.1757513659103 L 207.42211807776428,242.32035369613752 L 228.36602521698322,263.2642608353565 L 208.00889824718527,242.20002708437195 L 229.16161104540595,263.3527398825927 L 208.59433869571643,242.07836075171662 L 229.95716131725504,263.4411833732552 L 209.17841516812783,241.95533044294146 L 230.75267076054473,263.52958603535836 L 209.7611024652983,241.8309109589254 L 231.54813396161006,263.6179424552372 L 210.34237440013428,241.70507611257483 L 232.34354536091044,263.706247073351 L 210.92220375041157,241.57779868166554 L 233.13889924868798,263.794494179942 L 211.50056220830237,241.44905035836982 L 233.93418976047562,263.88267791054307 L 212.07742032632495,241.31880169520588 L 234.72941087244806,263.9707922413289 L 212.6527474594268,241.18702204712113 L 235.5245563966098,264.05883098430417 L 213.2265117028818,241.0536795093896 L 236.31961997581342,264.1467877823212 L 213.7986798256493,240.91874085097055 L 237.11459507860118,264.2346561039224 L 214.36921719880365,240.78217144293836 L 237.90947499386272,264.3224292379974 L 214.93808771860333,240.64393518155148 L 238.70425282530124,264.4101002882494 L 215.50525372371968,240.5039944054813 L 239.49892148570024,264.49766216746184 L 216.07067590609327,240.36230980666832 L 240.2934736909823,264.58510759155735 L 216.63431321482622,240.21884033421475 L 241.0879019540517,264.6724290734402 L 217.1961227524514,240.07354309065335 L 241.8821985784109,264.75961891661285 L 217.75605966284232,239.92637321985774 L 242.67635565154228,264.84666920855767 L 218.31407700994268,239.77728378577157 L 243.470365038044,264.93357181387285 L 218.87012564639417,239.6262256410365 L 244.26421837251058,265.0203183671529 L 219.4241540710301,239.4731472844859 L 245.0579070521462,265.106900265602 L 219.97610827407408,239.3179947063433 L 245.85142222909954,265.19330866136875 L 220.5259315687356,239.16071121981827 L 246.64475480250815,265.2795344535908 L 221.07356440772622,239.00123727762235 L 247.4378954102392,265.36556828013534 L 221.6189441830262,238.8395102717358 L 248.23083442031324,265.45140050902285 L 222.16200500700563,238.67546431452868 L 249.02356192199724,265.5370212295203 L 222.70267747274718,238.50902999908368 L 249.81606771655157,265.6224202428881 L 223.24088839111377,238.3401341362637 L 250.60834130761586,265.7075870527658 L 223.77656050175491,238.16869946571833 L 251.4003718912167,265.7925108551801 L 224.30961215483464,237.99464433761148 L 252.19214834538093,265.8771805281578 L 224.83995695978305,237.81788236137334 L 252.98365921933538,265.9615846209257 L 225.36750339680847,237.63832201721223 L 253.77489272227461,266.0457113426784 L 225.89215438623788,237.45586622545508 L 254.5658367116767,266.1295485508939 L 226.41380680996252,237.2704118679932 L 255.35647868114512,266.2130837391758 L 226.93235097832383,237.08184925516792 L 256.1468057477559,266.2963040246 L 227.44767003464742,236.890061530305 L 256.9368046388847,266.37919613454227 L 227.9596392882846,236.6949240027556 L 257.72646167849143,266.4617463929624 L 228.46812546539007,236.49630339867454 L 258.5157627728339,266.5439407061184 L 228.97298586469347,236.29405701679138 L 259.3046933955853,266.6257645476832 L 229.47406740311982,236.08803177403118 L 260.09323857232454,266.7072029432359 L 229.97120553317524,235.87806312290004 L 260.88138286437083,266.78824045409567 L 230.46422301039553,235.6639738189338 L 261.6691103519285,266.8688611604668 L 230.9529284846757,235.44557251202744 L 262.45640461650913,266.94904864386086 L 231.43711488371565,235.22265212988083 L 263.24324872259456,267.02878596875973 L 231.91655754981502,234.99498801479365 L 264.02962519850263,267.10805566348125 L 232.39101208240425,234.76233576619632 L 264.8155160164161,267.18683970020817 L 232.86021182743622,234.5244287300418 L 265.60090257153126,267.26511947413684 L 233.32386494031374,234.28097506173273 L 266.3857656602825,267.34287578170154 L 233.78165093032106,234.03165427055353 L 267.1700854575938,267.4200887978263 L 234.23321657009146,233.77611312913734 L 267.9538414931085,267.4967380521544 L 234.67817102139523,233.5139607992546 L 268.73701262634245,267.5728024042018 L 235.1160799855257,233.2447629821985 L 269.5195770207055,267.64826001737833 L 235.5464586285246,232.96803484401084 L 270.3015121163305,267.7230883318167 L 235.96876295219064,232.68323238649035 L 271.0827946016464,267.7972640359461 L 236.3823791719574,232.3897418250706 L 271.86340038362977,267.8707630367429 L 236.7866105082455,232.08686638017213 L 272.6433045566607,267.9435604285873 L 237.1806605770511,231.77380966779117 L 273.4224813699106,268.01563046065064 L 237.56361224404773,231.44965455360125 L 274.20090419317853,268.0869465027321 L 237.93440032897016,231.11333585733712 L 274.9785454810934,268.1574810094604 L 238.29177582171542,230.76360456889583 L 275.75537673558944,268.2272054827699 L 238.63425814170907,230.39898010770293 L 276.53136846656,268.2960904325539 L 238.96007016115527,230.0176853459626 L 277.30649015058634,268.3641053353937 L 239.2670477144305,229.61755611805128 L 278.08071018763343,268.4312185912542 L 239.5525101620329,229.19591178446714 L 278.8539958555964,268.4973974780307 L 239.81306932308595,228.74936416433366 L 279.6263132625743,268.56260810382196 L 240.0443365918423,228.27352465190341 L 280.39762729674004,268.62681535680116 L 240.24045284455627,227.7625341234309 L 281.1679015736672,268.6899828525418 L 240.39328926944813,227.20826376713615 L 281.9370983809639,268.752072878652 L 240.49098428388953,226.59885200039102 L 282.7051786200553,268.8130463365568 L 240.51344810865857,225.91420904397324 L 283.47210174494546,268.8728626802604 L 240.40696654634075,225.10062070046894 L 284.2378256977779,268.9314798519064 L 239.98300928559314,223.96955665853477 L 285.00230684100194,268.9888542139438 L 201.71739941516165,184.99684000691698 L 285.7654998859384,269.04494047769373 L 201.01993814532085,183.59227195588957 L 286.5273578175264,269.09969162809523 L 200.3681641371288,182.23339116651098 L 287.28783181501433,269.1530588443966 L 199.73408897944145,180.89220922763712 L 288.0468711683454,269.2049914165411 L 199.08554422967444,179.53655769668356 L 288.8044231899685,269.2554366569776 L 198.37688251427204,178.12078920009458 L 289.5604331217874,269.30433980760995 L 197.5240893706649,176.56088927530092 L 290.31484403694134,269.3516439415773 L 196.29248012484652,174.622173248296 L 291.0675967360873,269.3972898595368 L 164.46808297563257,142.0906693178952 L 291.81862963783243,269.44121598009536 L 164.99453825460841,141.91001781568445 L 292.56787866293894,269.4833582240153 L 165.52211692486338,141.7304897047531 L 293.3152771118973,269.52364989178716 L 166.0508312698227,141.5520972685257 L 294.0607555354344,269.5620215341377 L 166.5806937178024,141.3748529353189 L 294.80424159749225,269.59840081500903 L 167.11171684091673,141.19876927724658 L 295.54565993017843,269.6327123665086 L 167.64391335368248,141.02385900882598 L 296.28493198015406,269.66487763529767 L 168.17729611129903,140.8501349852559 L 297.0219758458858,269.6948147198429 L 168.71187810757021,140.67761020034058 L 297.75670610514567,269.7224381979163 L 169.24767247244245,140.5062977840262 L 298.48903363209854,269.74765894368255 L 169.78469246912113,140.33621099951833 L 299.2188654032658,269.77038393366325 L 170.32295149073286,140.16736323994354 L 299.9461042916055,269.79051604081644 L 170.86246305649308,139.99976802451712 L 300.6706488478883,269.8079538159127 L 171.4032408073379,139.83343899417554 L 301.3923930684904,269.8225912553282 L 171.9452985009774,139.66838990662842 L 302.1112261486593,269.83431755431053 L 172.48865000631875,139.50463463078336 L 302.8270322202374,269.84301684470216 L 173.03330929721284,139.34218714049075 L 303.5396900727539,269.8485679160321 L 173.5792904454635,139.1810615075548 L 304.2490728567135,269.85084391880514 L 174.12660761304522,139.02127189395006 L 304.9550477678273,269.84971204873244 L 174.6752750434627,138.86283254318099 L 305.6574757108348,269.84503321055337 L 175.22530705218395,138.70575777071562 L 306.3562109414708,269.8366616600028 L 175.77671801607562,138.55006195342082 L 307.05110068502455,269.82444462237 L 176.32952236176112,138.39575951791983 L 307.74198472982624,269.8082218859851 L 176.88373455281706,138.24286492778924 L 308.4286949938806,269.787825368853 L 177.43936907571944,138.09139266950507 L 309.1110550627384,269.76307865652416 L 177.99644042444288,137.94135723704193 L 309.78887969656796,269.7337965091673 L 178.5549630836106,137.79277311502304 L 310.46197430425184,269.6997843356646 L 179.11495151008543,137.64565476031134 L 311.13013438218627,269.6608376324125 L 179.67642011288538,137.50001658192474 L 311.79314491531846,269.6167413843581 L 180.23938323129892,137.35587291915178 L 312.4507797377999,269.56726942565297 L 180.80385511106806,137.2132380177343 L 313.1028008504833,269.51218375714984 L 181.36984987849706,137.07212600397685 L 313.74895769233547,269.45123381781536 L 181.93738151233958,136.93255085663284 L 314.38898636268755,269.384155706981 L 182.50646381330256,136.79452637640924 L 315.02260879110224,269.31067135420915 L 183.07711037100117,136.65806615292132 L 315.64953185150137,269.2304876334217 L 183.64933452818644,136.52318352891996 L 316.2694464170895,269.1432954178233 L 184.2231493420574,136.3898915616045 L 316.8820263525148,269.04876857206204 L 184.79856754246237,136.2582029808228 L 317.4869274396595,268.9465628780202 L 185.3756014867787,136.12813014395272 L 318.0837862334487,268.8363148906229 L 185.9542631112581,135.99968498724544 L 318.6722188441242,268.7176407201118 L 186.53456387860524,135.8728789734061 L 319.2518196425723,268.5901347373734 L 187.11651472155827,135.74772303517258 L 319.82215988554645,268.45336819916105 L 187.70012598222087,135.62422751464865 L 320.3827862580046,268.3068877904326 L 188.28540734689508,135.50240209813634 L 320.9332193303384,268.1502140815798 L 188.872367776152,135.38225574620674 L 321.4729519290371,267.982839899092 L 189.46101542987287,135.26379661874094 L 322.00144742035934,267.80422860922766 L 190.05135758698793,135.14703199466956 L 322.51813790794245,267.6138123156243 L 190.64340055963973,135.03196818613475 L 323.0224223470374,267.41098997353265 L 191.23714960149152,134.91861044680002 L 323.5136645802994,267.1951254256081 L 191.83260880991182,134.8069628740338 L 323.9911913029012,266.96554536702337 L 192.42978102176443,134.6970283046998 L 324.4542899682789,266.7215372512145 L 193.02866770254735,134.58880820429619 L 324.90220665021786,266.4623471519669 L 193.62926882863744,134.48230254919974 L 325.33414388238407,266.1871776029466 L 194.23158276241645,134.37750970179215 L 325.74925850299326,265.8951854423693 L 194.8356061200816,134.2744262782708 L 326.1466595402683,265.58547969845773 L 195.4413336319768,134.17304700897952 L 326.52540618387366,265.2571195608765 L 196.0487579953217,134.07336459113773 L 326.88450589884405,264.9091124946604 L 196.6578697192667,133.97536953389633 L 327.22291275183363,264.54041256646343 L 197.26865696226605,133.87904999570907 L 327.53952603497385,264.1499190684171 L 197.88110536182768,133.7843916140842 L 327.83318929035073,263.7364755426074 L 198.4951978567923,133.69137732786228 L 328.10268985809165,263.2988693291619 L 199.11091450238672,133.59998719227016 L 328.3467590931465,262.83583178303013 L 199.72823227841536,133.51019818711234 L 328.56405043128774,262.3460163399847 L 200.34712489108355,133.42198401859386 L 328.7521676475623,261.82702677507274 L 200.9675625690922,133.33531491541592 L 328.90658786661953,261.2743402129434 L 201.58951185481382,133.25015741995108 L 329.021392142336,260.6820377074734 L 202.21293539153885,133.16647417548947 L 329.0889204421723,260.0424592261231 L 202.83779170798488,133.08422371074911 L 329.0990072457033,259.3454392484675 L 203.4640350014858,133.00336022306334 L 329.0377444121347,258.5770696337124 L 204.09161492150594,132.92383336189692 L 328.88537168985846,257.7175901302496 L 204.72047635538766,132.84558801459215 L 328.6124397341665,256.7375513933711 L 205.3505592184955,132.76856409651347 L 328.1722369045892,255.59024178260725 L 205.98179825120076,132.69269634803214 L 327.4841769983596,254.1950750951911 L 206.61412282542602,132.61791414107074 L 326.39199185898997,252.3957831746349 L 207.24745676374775,132.54414129820609 L 324.5404804336699,249.83716496812835 L 207.881718174325,132.4712959275967 L 321.06362516491896,245.65320291819086 L 208.5168193051712,132.39929027725643 L 316.0029502436663,239.88542121575165 L 209.15266642152056,132.32803061241924 L 312.20819094407653,235.38355513497538 L 209.7891597102211,132.25741711993317 L 309.63515702315635,232.10341443286865 L 210.42619321523503,132.18734384376057 L 307.72281163162535,229.4839622601511 L 211.06365480840267,132.11769865574172 L 306.2075793892274,227.2616232365666 L 211.70142619963093,132.04836326578342 L 304.95763178140163,225.3045688475542 L 212.33938299058582,131.97921327555173 L 303.8985316306738,223.53836191563994 L 212.9773947757831,131.91011827956254 L 302.9841351695281,221.91685867330762 L 213.61532529467743,131.84094201727024 L 302.18378417836647,220.40940090095953 L 214.25303263793037,131.7715425793367 L 301.4760085781212,218.99451851952765 L 214.89036951049968,131.70177267071938 L 300.84514307700124,217.65654623722116 L 215.5271835535103,131.63147993254356 L 300.2793768761351,216.3836732551685 L 216.16331772607586,131.56050732392256 L 299.76956391402865,215.16675351187556 L 216.79861074730675,131.48869356396685 L 299.3084626108712,213.9985454275315 L 217.43289759772028,131.41587363319388 L 298.8902309497731,212.87320698524695 L 218.06601007814592,131.34187933243288 L 298.5100800363714,211.78594929065858 L 218.6977774230382,131.2665398961387 L 298.16402968558,210.7327921586807 L 219.3280269639022,131.18968265581617 L 297.8487317905469,209.71038748246102 L 219.95658483732274,131.1111337480502 L 297.56133996909296,208.71588887982057 L 220.5832767309311,131.0307188604719 L 297.2994115701457,207.74685369968677 L 221.2079286595599,130.94826400791422 L 297.0608327911149,206.80116813946933 L 221.83036776289188,130.86359633005964 L 296.8437606136139,205.87698918078186 L 222.45042311511867,130.7765449010999 L 296.64657718574176,204.97269897172316 L 223.06792653655214,130.68694154134687 L 296.4678535560097,204.08686856080448 L 223.68271339677779,130.5946216203859 L 296.3063205304435,203.21822875405178 L 224.29462339884603,130.4994248412676 L 296.16084502341005,202.36564646583184 L 224.9035013341663,130.40119599540134 L 296.0304106938965,201.52810535513171 L 225.5091977982002,130.29978567824867 L 295.91410195973384,200.70468983978256 L 226.11156985773724,130.19505095659918 L 295.81109070008245,199.89457179894464 L 226.71048166145545,130.08685597913086 L 295.720625116323,199.09699943399846 L 227.30580498658904,129.9750725230779 L 295.6420203401885,198.31128787667748 L 227.8974197158074,129.85958047110972 L 295.5746504670945,197.53681122239684 L 228.48521423980986,129.74026821392565 L 295.51794176024333,196.7729957343593 L 229.0690857826095,129.61703297553873 L 295.49069111766335,196.03863831059257 L 229.64894064796673,129.48978105970943 L 295.5207197950005,195.3615602067432 L 230.22469438689478,129.35842801745093 L 295.57657679059673,194.71031042115285 L 230.79627188754569,129.22289873691528 L 295.64702370593477,194.07365055530437 L 231.3636073900628,129.08312745824585 L 295.727108253241,193.44662832142404 L 231.92664443011975,128.93905771711624 L 295.81413236620796,192.82654565320445 L 232.48533571583584,128.7906422216458 L 295.9064366307384,192.2117431365484 L 233.03964294354435,128.63784266816776 L 296.0029159178132,191.60111564243658 L 233.58953655849203,128.4806295019289 L 296.10279141865,190.99388436208687 L 234.1349954669603,128.3189816292106 L 296.20549053133897,190.38947669358924 L 234.6760067065326,128.15288608759636 L 296.310578143216,189.78745752427974 L 235.21256508129872,127.98233768117592 L 296.4177147614279,189.1874873613051 L 235.74467276870348,127.80733858739416 L 296.52662969751,188.58929551620062 L 236.27233890453383,127.62789794203796 L 296.63710318288884,187.992662220393 L 236.79557915221724,127.44403140853481 L 296.74895403283074,187.3974062891483 L 237.31441526219686,127.25576073732788 L 296.86203089256196,186.80337636769298 L 237.82887462667745,127.06311332062194 L 296.97620587269796,186.21044456664245 L 238.338989834522,126.86612174727993 L 297.0913698235581,185.61850173631603 L 238.8447982305381,126.66482336210947 L 297.2074287612814,185.02745389285275 L 239.3463414828477,126.45925983323252 L 297.32430112085655,184.43721947124138 L 239.8436651614903,126.24947673068857 L 297.4419156141104,183.84772718330873 L 240.33681833088767,126.0355231188994 L 297.5602095377665,183.25891432577825 L 240.82585315830013,125.81745116512532 L 297.67912742141914,182.6707254282443 L 241.31082453994188,125.59531576558051 L 297.7986199357364,182.08311116137506 L 241.7917897459978,125.3691741904499 L 297.9186430023534,181.49602744680553 L 242.26880808540085,125.1390857486664 L 298.03915706184563,180.9094347251112 L 242.74194059088776,124.90511147296677 L 298.1601264668794,180.32329734895848 L 243.21124972455243,124.66731382544488 L 298.2815189754227,179.73758307631527 L 243.67679910385874,124.42575642356466 L 298.4033053246337,179.1522626443397 L 244.13865324785704,124.18050378637639 L 298.5254588703251,178.56730940884452 L 244.59687734316623,123.93162110049904 L 298.64795528012576,177.98269903745862 L 245.05153702913782,123.67917400528408 L 298.7707722709177,177.39840924706402 L 245.5026982014996,123.42322839645932 L 298.89388938301653,176.81441957797634 L 245.95042683368962,123.16385024746279 L 299.0172877850282,176.23071119880146 L 246.3947888150249,122.90110544761151 L 299.1409501044619,175.64726673704862 L 246.83584980480654,122.63505965620662 L 299.2648602800831,175.06407013148328 L 247.27367510143736,122.3657781716509 L 299.3890034327082,174.4811065029218 L 247.70832952561753,122.0933258146445 L 299.5133657517159,173.898362040743 L 248.13987731668806,121.81776682452849 L 299.63793439501427,173.3158239028548 L 248.56838204120382,121.53916476785771 L 299.76269740057256,172.73348012722653 L 248.9939065128409,121.25758245830825 L 299.8876436079365,172.15131955340397 L 249.41651272277142,120.97308188705222 L 300.01276258839073,171.5693317526716 L 249.83626177967244,120.68572416276668 L 300.1380445826387,170.98750696573302 L 250.25321385857384,120.39556946048155 L 300.26348044504266,170.40583604695047 L 250.66742815778957,120.10267697851071 L 300.3890615936019,169.82431041432312 L 251.07896286321795,119.80710490275256 L 300.51477996497056,169.24292200450523 L 251.48787511934052,119.50891037768855 L 300.64062797391165,168.6616632322598 L 251.8941989009151,119.20812737807658 L 300.7665984766684,168.08052695382995 L 252.29788653977886,118.90470823575372 L 300.89268473780226,167.4995064337773 L 252.69886278559628,118.59857770038477 L 301.0188804001103,166.91859531489877 L 253.0970504464061,118.2896585800078 L 301.14517945727937,166.33778759088133 L 253.49237056001797,117.97787191243329 L 301.2715762289839,165.75707758139941 L 253.88474251556207,117.66313708679075 L 301.3980653381661,165.1764599093949 L 254.2740842094461,117.3453719994884 L 301.5246416902717,164.595929480314 L 254.66031224098276,117.02449324983836 L 301.6513004542421,164.01548146309793 L 255.04334215349826,116.70041638116737 L 301.7780370450848,163.43511127275397 L 255.42308872730683,116.37305617378932 L 301.904847107867,162.85481455434962 L 255.7994663314763,116.04232699677226 L 302.03172650299496,162.27458716829102 L 256.17238934182365,115.70814322593296 L 302.1586712926549,161.69442517676447 L 256.54177263300085,115.37041973592372 L 302.2856777283075,161.11432483123053 L 256.9075321528392,115.02907247457561 L 302.4127422391381,160.53428256087466 L 257.26958558723095,114.6840191277808 L 302.53986142137614,159.95429496192605 L 257.62785312369294,114.33517988305621 L 302.6670320284053,159.37435878776867 L 257.9822583212698,113.98247829944651 L 302.7942509615962,158.7944709397731 L 258.3327290935068,113.62584229049699 L 302.92151526179686,158.21462845878713 L 258.6791988097365,113.26520522554014 L 303.04882210142637,157.6348285172301 L 259.0216075177554,112.9005071523724 L 303.17616877712044,157.05506841173758 L 259.3599032879966,112.53169614142713 L 303.30355270288254,156.47534555631316 L 259.69404367540983,112.15872974765375 L 303.4309714037001,155.89565747594426 L 260.02399729034846,111.78157658140589 L 303.55842250958773,155.31600180064538 L 260.34974546378413,111.40021797365503 L 303.6859037500232,154.73637625989417 L 260.6712839851265,111.01464971381085 L 303.8134129487459,154.15677867743045 L 260.98862488293105,110.62488383042889 L 303.94094801889025,153.57720696638802 L 261.3017982100501,110.23095037636138 L 304.06850695842616,152.99765912473748 L 261.6108537856972,109.83289917082192 L 304.19608784588667,152.41813323101155 L 261.91586283799,109.4308014419282 L 304.3236888363587,151.83862744029696 L 262.216919482521,109.02475130527263 L 304.4513081577186,151.25913998047037 L 262.5141419662383,108.61486700780335 L 304.5789441070949,150.6796691486602 L 262.8076736023647,108.20129186274318 L 304.706595047542,150.10021330792065 L 263.09768332222205,107.78419480141405 L 304.8342594049089,149.52077088410095 L 263.3843657745488,107.36377047255428 L 304.961935664891,148.94134036289654 L 263.6679409128428,106.94023882966161 L 305.08962237025037,148.36192028706938 L 263.94865302669064,106.51384416232297 L 305.2173181181948,147.78250925382727 L 264.22676919368405,106.08485354812983 L 305.34502155790364,147.20310591234968 L 264.50257715349267,105.65355472675192 L 305.4727313881913,146.62370896145072 L 264.7763826334658,105.22025342553849 L 305.600479754204,146.04435054627672 L 265.04850618373194,104.78527019461808 L 305.7282772502581,145.46504126114422 L 265.31927960679224,104.34893683649182 L 305.85612363505044,144.88578086475005 L 265.58904208962036,103.91159253813342 L 305.98402405264005,144.3065745011531 L 265.8581361631126,103.47357983043908 L 306.1119838688457,143.72742753617223 L 266.1269036227557,103.03524050889567 L 306.24000868286964,143.1483455690096 L 266.39568154477325,102.59691164972668 L 306.3681043396753,142.56933444462874 L 266.664798523858,102.15892184762487 L 306.4962769431789,141.99040026694573 L 266.93457124286823,101.72158778544856 L 306.62453287031803,141.41154941289835 L 267.20530146325405,101.28521122464782 L 306.7528787860706,140.83278854746433 L 267.47727349964146,100.85007647984868 L 306.8813216594989,140.25412463970613 L 267.75075221526095,100.4164484142816 L 307.00986878090646,139.67556497992712 L 268.02598154894883,99.98457096678298 L 307.13852778019896,139.09711719803306 L 268.3031835610942,99.55466619774177 L 307.2673066465538,138.51878928320136 L 268.58255796645574,99.12693382191675 L 307.39621374951,137.94058960497102 L 268.8642821069728,98.70155118124725 L 307.5252578616044,137.36252693587892 L 269.1485113077347,98.27867360082263 L 307.6544481826911,136.78461047577906 L 269.4353795539161,97.85843506581747 L 307.78379436609686,136.20684987799825 L 269.7250004251583,97.44094915587317 L 307.91330654678126,135.6292552774961 L 270.0174682258257,97.02631017535398 L 308.0429953716887,135.05183732121696 L 270.3128592539571,96.61459442229881 L 308.1728720325002,134.47460720084197 L 270.61123315776507,96.20586154492025 L 308.3029483010167,133.89757668817194 L 270.91263433548227,95.80015594145094 L 308.4332365674311,133.32075817339972 L 271.21709334162364,95.39750816640574 L 308.56374988177777,132.74416470655987 L 271.5246282698654,94.99793631346095 L 308.69450199888246,132.16781004247804 L 271.83524608940985,94.60144735181886 L 308.82550742717217,131.59170868958114 L 272.14894391770144,94.20803839892393 L 308.9567814817521,131.01587596297458 L 272.46571021757927,93.81769791761518 L 309.0883403422065,130.44032804224236 L 272.785525911355,93.43040683020436 L 309.22020111563654,129.86508203448594 L 273.1083654079198,93.04613954558258 L 309.35238190552013,129.29015604318292 L 273.43419754186004,92.6648648983363 L 309.4849018870493,128.71556924352564 L 273.76298642578655,92.28654700107629 L 309.6177813896977,128.14134196498745 L 274.0946922187317,91.91114601283489 L 309.7510419878661,127.56749578196926 L 274.4292718146461,91.53861882756269 L 309.88470660058124,126.99405361349785 L 274.7666794558049,91.16891968753495 L 310.0187996013585,126.42103983308861 L 275.1068672763982,90.80200072694171 L 310.15334693950496,125.84848039004848 L 275.4497857817963,90.43781245115328 L 310.28837627433,125.276402943687 L 275.79538426900797,90.07630415717838 L 310.4239171239595,124.70483701212993 L 276.14361119373797,89.71742430072186 L 310.5600010307121,124.13381413769598 L 276.49441448923835,89.36112081503569 L 310.69666174531733,123.5633680711147 L 276.84774184186864,89.00734138647945 L 310.83393543262866,122.99353497723939 L 277.203540927961,88.65603369138523 L 310.97186090193554,122.42435366535969 L 277.5617596162426,88.3071455984803 L 311.1104798655197,121.85586584775736 L 277.92234613971954,87.96062534077068 L 311.24983722975037,121.28811643080141 L 278.2852492405783,87.61642166044291 L 311.3899814238005,120.72115384366504 L 278.6504182913283,87.27448393000637 L 311.5309647720294,120.15503041070735 L 279.01780339508906,86.93476225258055 L 311.67284391724434,119.58980277473576 L 279.3873554676271,86.59720754393209 L 311.81568030350286,119.02553237980774 L 279.7590263034716,86.26177159859003 L 311.95954072889856,118.46228602401692 L 280.132768628181,85.92840714211287 L 312.1044979809984,117.90013649493021 L 280.50853613860187,85.59706787134719 L 312.2506315703819,117.33916330312718 L 280.88628353274913,85.26770848430789 L 312.39802858124665,116.77945353280535 L 281.2659665307462,84.9402847011184 L 312.5467846625069,116.22110283287905 L 281.64754188809286,84.61475327727857 L 312.6970051885303,115.66421657771588 L 282.030967402375,84.29107201037411 L 312.84880662604036,115.10891123403938 L 282.41620191439273,83.96919974120533 L 313.0023181533362,114.55531598014866 L 282.8032053045645,83.64909635019049 L 313.1576835906403,114.00357463626628 L 283.19193848535247,83.33072274979193 L 313.3150637172191,113.45384798165843 L 283.58236339036404,83.01404087361695 L 313.47463907354717,112.90631655680001 L 283.9744429606946,82.69901366276099 L 313.63661337758344,112.36118407964977 L 284.3681411290072,82.38560504988702 L 313.80121772668053,111.81868164756017 L 284.76342280177505,82.07377994146835 L 313.96871581603807,111.2790729557312 L 285.1602538400584,81.7635041985651 L 314.1394104889955,110.74266084750212 L 285.55860174233055,81.45474531965043 L 314.3136520564485,110.20979563376854 L 285.9584417537922,81.14747854992554 L 314.4918490024488,109.68088579858228 L 286.3597500818749,80.84168009682168 L 314.6744819636588,109.15641197860575 L 286.76250863733134,80.53733187109154 L 314.8621222874978,108.63694552125821 L 287.1667006718962,80.2344171244699 L 315.0554571343981,108.12317358697194 L 287.57231070942197,79.93292038080902 L 315.2553241679692,107.61593383935647 L 287.9793244832875,79.63282737348808 L 315.46276069991654,107.1162635901172 L 288.3877288795095,79.33412498852354 L 315.6790753659039,106.62547147491811 L 288.7975118850484,79.03680121287587 L 315.90595633365984,106.14524566148744 L 289.2086625408637,78.74084508750477 L 316.14564162237457,105.67782416901561 L 289.6211708993234,78.44624666477776 L 316.4012013522883,105.22627711774274 L 290.03502798561453,78.15299696988228 L 316.67703705460127,104.79500603886913 L 290.45022576284873,77.86108796593015 L 316.97984418696797,104.3907063900493 L 290.86675710058466,77.57051252247943 L 317.3207016084964,104.02445703039118 L 291.2846157465233,77.28126438723152 L 317.7204890987472,103.71713773945541 L 291.70379630116383,76.9933381606855 L 318.22895959879486,103.51850145831648 L 292.12429419522635,76.70672927356156 L 319.12933306087257,103.71176813920799 L 319.582784980865,104.16522005920038 L 363.32437481588113,147.90680989421668 L 292.5461056696753,76.42143396682387 L 363.8424933034735,147.71782160062247 L 292.9692277581947,76.13744927415686 L 364.35609927237505,147.52432078833746 L 293.3936582719884,75.85477300676395 L 364.8652571698377,147.32637190461358 L 293.81939578679004,75.57340374037902 L 365.3700234043951,147.12403135798456 L 294.2464396319888,75.29334080439125 L 365.8704466860055,146.91734785840828 L 294.674789881787,75.01458427300295 L 366.3665683056869,146.70636269690323 L 295.10444734832083,74.7371349583502 L 366.8584223588558,146.4911099688855 L 295.5354135766872,74.46099440553 L 367.34603591558306,146.27161674442618 L 295.9676908418322,74.18616488948845 L 367.82942914008436,146.04790318774093 L 296.4012821472671,73.91264941373684 L 368.3086153609157,145.81998262738585 L 296.8361912255888,73.64045171087197 L 368.783601092541,145.58786157782458 L 297.2724225407919,73.3695762448886 L 369.25438600814135,145.35153971223838 L 297.7099812923707,73.10002821528073 L 369.72096286273364,145.11100978564411 L 298.14887342121716,72.83181356294068 L 370.1833173648198,144.86625750654372 L 298.58910561733495,72.564938977872 L 370.64142799388907,144.61726135442646 L 299.0306853293948,72.29941190874536 L 371.0952657600994,144.3639923394502 L 299.4736207761713,72.03524057433528 L 371.5447939013467,144.10641369951097 L 299.91792095990905,71.77243397688648 L 371.98996751164805,143.8444805286258 L 300.36359568167904,71.51100191746988 L 372.4307330932662,143.57813932905742 L 300.8106555587956,71.25095501339985 L 372.8670280232306,143.30732747783526 L 301.2591120443791,70.9923047177969 L 373.2987799227835,143.03197259620163 L 301.70897744916067,70.73506334139188 L 373.72590591570327,142.7519918079348 L 302.16026496563876,70.47924407668354 L 374.1483117582958,142.46729086934081 L 302.6129886947161,70.22486102457411 L 374.5658908199463,142.17776314980483 L 303.067163674955,69.97192922362653 L 374.97852288824765,141.88328843691957 L 303.522805914616,69.72046468210097 L 375.38607276659593,141.58373153408135 L 303.97993242665376,69.47048441295226 L 375.78838862436,141.27894061065888 L 304.43856126687456,69.22200647198649 L 376.18530004975986,140.9687452548722 L 304.89871157547725,68.97504999940264 L 376.5766157426979,140.65295416662372 L 305.36040362222855,68.72963526496738 L 376.96212076795007,140.3313524106893 L 305.8236588555506,68.48578371710293 L 377.34157326691025,140.00369812846293 L 306.28849995583266,68.24351803619844 L 377.71470049645126,139.66971857681742 L 306.75495089331235,68.00286219249155 L 378.0811940234615,139.32910532264108 L 307.22303699091475,67.76384150890742 L 378.4407038489227,138.98150836691576 L 307.6927849924805,67.52648272928666 L 378.7928311595631,138.62652889636962 L 308.1642231368663,67.29081409248592 L 379.13711929837314,138.26371025399308 L 308.63738123845843,67.05686541289144 L 379.473042392494,137.89252656692742 L 309.1122907747041,66.82466816795055 L 379.79999085427477,137.51236824752172 L 309.58898498134135,66.59425559340144 L 380.1172526399646,137.12252325202493 L 310.0674989560903,66.36566278696367 L 380.4239886462843,136.72215247715812 L 310.54786977166395,66.13892682135082 L 352.19437553330357,107.78543258299048 L 311.03013659907145,65.91408686757183 L 350.6983083840112,105.58225865251153 L 311.51434084230516,65.69118432961886 L 349.70612023075586,103.88296371806958 L 312.00052628565373,65.470262991781 L 348.95216587522975,102.4219025813571 L 312.48873925504984,65.25136917999043 L 348.3495182196327,101.11214814457354 L 312.97902879505,65.03455193880417 L 347.85586759225856,99.9113907360128 L 313.4714468632768,64.81986322584447 L 347.4454216718324,98.7938380344001 L 313.96604854440614,64.60735812578721 L 347.10106589050184,97.74237547188302 L 314.46289228609476,64.3970950862892 L 346.8107477737532,96.74495057394778 L 314.9620401595978,64.18913617860579 L 346.56559366707995,95.792689686088 L 315.4635581482477,63.98354738606916 L 346.3588399175479,94.8788291553694 L 315.96751646746156,63.780398924096446 L 346.1851853433582,93.99806779999318 L 316.47398992053513,63.57976559598353 L 346.0403781760378,93.14615385148622 L 316.9830582951802,63.38172718944193 L 345.92094130638736,92.31961020064927 L 317.49480680659644,63.18636891967171 L 345.823983058774,91.51554517184931 L 318.0093265938781,62.99378192576677 L 345.74706297389815,90.73151830578692 L 318.52671527775595,62.80406382845811 L 345.68809416010276,89.965442710805 L 319.0470775891491,62.6173193586647 L 345.64527064890837,89.21551241842405 L 319.5705260797744,62.433661068103476 L 345.6170122651423,88.48014725347146 L 320.097181928247,62.25321013538945 L 345.6019220221281,87.75795022927072 L 320.6271758577856,62.07609728374155 L 345.5987526332444,87.04767405920042 L 321.1606491849577,61.90246382972717 L 345.6063797572327,86.34819440200216 L 321.69775502303463,61.73246288661758 L 345.62378027583514,85.65848813941811 L 322.2386596687126,61.56626075110891 L 345.65001436331096,84.97761544570734 L 322.7835442075054,61.40403850871522 L 345.6842104241115,84.30470472532134 L 323.3326063814459,61.245993901469205 L 345.72555219487424,83.63893971489753 L 323.88606277342063,61.092343512257386 L 345.77326745999267,82.97954819882938 L 324.4441513762901,60.94332533394025 L 345.8266179356078,82.32579189325799 L 325.007134633002,60.79920180946557 L 345.88488994723866,81.67695712370224 L 325.5753030577148,60.66026345299181 L 345.9473855690118,81.03234596428877 L 326.1489795796881,60.52683319377863 L 346.0134139117215,80.39126752581195 L 326.72852479449546,60.399271627399486 L 346.0822822441273,79.75302907703126 L 327.3143433655574,60.27798341727488 L 346.1532866057113,79.11692665742868 L 327.90689189989234,60.16342517042325 L 346.22570151532904,78.48223478585987 L 328.50668873565746,60.05611522500182 L 346.29876829062505,77.8481947799693 L 329.1143262414073,59.95664594956513 L 346.3716813538448,77.21400106200251 L 329.7304864631205,59.86569939009175 L 346.44357168786775,76.57878461483895 L 330.3559613053818,59.78406745116658 L 346.5134862841753,75.94159242995997 L 330.9916789646423,59.71267832924049 L 346.58036192897214,75.30136129357025 L 331.63873915937523,59.652631742786866 L 346.6429908966911,74.65688348010268 L 332.2984610252829,59.605246827507955 L 346.69997487069674,74.00676067292171 L 332.97244973102636,59.57212875206487 L 346.74966133950704,73.34934036054553 L 333.6626916223617,59.55526386221371 L 346.79005315542054,72.68262539527247 L 334.37169442513914,59.557159883804616 L 346.8186755510607,72.004141009726 L 335.1027017145405,59.581060392019396 L 346.83237283899314,71.31073151647186 L 335.86003628209176,59.63128817838407 L 346.8269827779247,70.59823467421693 L 336.6496820298671,59.71382714497288 L 346.7967840763997,69.86092919150539 L 337.4803449280858,59.837383262005076 L 346.7334873361659,69.09052567008499 L 338.36558680308207,60.01551835581476 L 346.6242014842209,68.27413303695346 L 339.32876009404066,60.27158486558683 L 346.44671969098624,67.38954446253224 L 340.417219834946,60.652937825305614 L 346.15590578046533,66.39162377082478 L 341.7647425400821,61.29335374925519 L 345.623688635539,65.15229984471193" fill="none" stroke="#afda5f" stroke-width="0.1"/>
	<path d="M 123.4642411555725,164.01933102343824 L 124.75402862850211,165.30911849636777 L 123.6287610053509,163.4767440920301 L 125.53840302308315,165.38638610976227 L 123.8798388770793,163.02071518257193 L 126.24668148664078,165.38755779213335 L 124.17379279928166,162.60756232358776 L 126.91917696135911,165.35294648566511 L 124.49484672899783,162.22150947211736 L 127.57022657444631,165.29688931756576 L 124.83514361224279,161.8546995741758 L 128.20689541914493,165.22645138107785 L 125.19008999985994,161.5025391806064 L 128.8332796502998,165.14572883104617 L 125.55672199969331,161.1620643992532 L 129.45200496158202,165.05734736114184 L 125.93299379660938,160.83122941498274 L 130.0648748572085,164.9631104755818 L 126.3174220942546,160.50855093144142 L 130.67319278910907,164.8643216262958 L 126.70889032361919,160.19291237961946 L 131.2779386231028,164.76196067910294 L 127.10653272511001,159.88344799992373 L 131.87987260752772,164.65678788234132 L 127.50966173808345,159.57947023171062 L 132.47960020039784,164.5494086940249 L 127.91772041359113,159.2804221260317 L 133.07761437233464,164.44031608477513 L 128.33025004694855,158.98584497820258 L 133.6743242636974,164.3299191949514 L 128.74686746787467,158.69535561794217 L 134.2700752165334,164.21856336660085 L 129.1672486807199,158.40863004960082 L 134.86516315717034,164.10654452605124 L 129.59111680866803,158.12539139636243 L 135.4598451646813,163.9941197523756 L 130.01823303252326,157.8454008390311 L 136.0543473961356,163.88151520264336 L 130.44838966121478,157.56845068653607 L 136.6488711380208,163.76893216334204 L 130.88140475062528,157.29435899476002 L 137.24359750258364,163.65655174671835 L 131.31711786726942,157.02296533021757 L 137.8386911269163,163.54453858986446 L 131.7553867121036,156.75412739386525 L 138.4343031266813,163.4330438084429 L 132.19608439989375,156.48771830046886 L 139.03057348507076,163.3222073856458 L 132.63909724474527,156.22362436413383 L 139.62763300864512,163.2121601280336 L 133.0843229410775,155.96174327927946 L 140.22560494748365,163.10302528568565 L 133.53166905688383,155.7019826138993 L 140.82460635277772,162.99491990979314 L 133.9810517760487,155.44425855187757 L 141.42474922748238,162.88795600331122 L 134.43239484110177,155.18849483574414 L 142.02614151285513,162.78224150749742 L 134.88562865863864,154.93462187209445 L 142.62888794425925,162.67788115771503 L 135.3406895377787,154.682575970048 L 143.23309080255336,162.5749772348226 L 135.79751903821497,154.43229868929765 L 143.83885058207463,162.4736302331573 L 136.2560634091481,154.18373627904424 L 144.44626659218503,162.37393946208113 L 136.71627310406342,153.93683919277305 L 145.05543750626816,162.27600359497774 L 137.17810235917003,153.69156166669305 L 145.66646186970155,162.17992117722457 L 137.64150882557095,153.44786135190745 L 146.27943857651428,162.08579110285078 L 138.1064532470182,153.20569899216815 L 146.89446732305424,161.99371306820416 L 138.57289917652759,152.965038140491 L 147.51164904593426,161.90378800989765 L 139.04081272627442,152.72584490905132 L 148.1310863507447,161.81611853352155 L 139.51016234611427,152.48808774770458 L 148.75288393745177,161.73080933904208 L 139.9809186268256,152.25173724722936 L 149.3771490280223,161.647967648426 L 140.453054124787,152.0167659640042 L 150.00399180159096,161.5677036408081 L 140.92654320530647,151.78314826333713 L 150.63352584240718,161.4901309004378 L 141.40136190223893,151.5508601790831 L 151.2658686058486,161.4153668826927 L 141.87748779187558,151.31987928753315 L 151.90114190796842,161.34353340362594 L 142.3548998793769,151.0901845938479 L 152.5394724443517,161.27475715882275 L 142.833578496266,150.86175642955047 L 153.18099234450113,161.2091702777856 L 143.3135052077007,150.63457635979864 L 153.825839768561,161.14691092065894 L 143.79466272841645,150.40862709932784 L 154.47415955394845,161.0881239248598 L 144.27703484637814,150.18389243610295 L 155.126103920403,161.03296151012785 L 144.7606063533029,149.9603571618412 L 155.78183324313537,160.98158405167365 L 145.2453629813224,149.73800700867412 L 156.44151690518277,160.9341609325345 L 145.7312913451434,149.5168285913086 L 157.1053342418288,160.89087148799396 L 146.2183788891449,149.29680935412355 L 157.77347559207385,160.85190605705245 L 146.7066138389154,149.0779375227075 L 158.4461434747498,160.81746715854186 L 147.19598515679422,148.86020205939977 L 159.12355391006287,160.78777081266838 L 147.68648250102967,148.64359262244866 L 159.80593791127293,160.76304803269193 L 148.17809618821144,148.4280995284439 L 160.49354317606176,160.74354651629417 L 148.67081715867275,148.21371371771863 L 161.18663601315433,160.72953257220013 L 149.16463694459082,148.00042672245016 L 161.8855035472612,160.7212933251206 L 149.6595476405443,147.7882306372171 L 162.59045625483165,160.7191392515044 L 150.15554187631076,147.57711809179702 L 163.30183089501585,160.72340711050205 L 150.65261279171114,147.36708222601084 L 164.01999391541375,160.73446334971345 L 151.15075401332706,147.15811666644024 L 164.7453454316549,160.752708084768 L 151.6499596329354,146.950215504862 L 165.47832390507523,160.77857977700185 L 152.15022418751892,146.74337327825896 L 166.21941167570438,160.8125607664444 L 152.65154264072694,146.53758495028046 L 166.96914155125222,160.85518386080565 L 153.15391036567144,146.3328458940384 L 167.72810471078446,160.90704023915146 L 153.657323128955,146.1291518761354 L 168.49696026002738,160.96878900720773 L 154.16177707583722,145.9264990418311 L 169.2764468821741,161.04116884816796 L 154.66726871645483,145.72488390126216 L 170.06739717619516,161.1250123610025 L 155.1737949130179,145.52430331663868 L 170.87075548294263,161.22126388656335 L 155.6813528679129,145.32475449034712 L 171.68760029708642,161.33100191952062 L 156.18994011264823,145.1262349538959 L 172.5191727963204,161.45546763756803 L 156.6995544975848,144.92874255764593 L 173.36691366294522,161.59610172300629 L 157.2101941823981,144.7322754612727 L 174.23251135056256,161.7545926294371 L 157.72185762722432,144.53683212491237 L 175.1179664712962,161.93294096898416 L 158.2345435844455,144.342411300947 L 176.02567941905107,162.13354713555248 L 158.74825109107462,144.14901202638956 L 176.95857238363124,162.35933331894609 L 159.2629794617025,143.95663361583092 L 177.92026385211045,162.61391800623875 L 159.77872828197414,143.765275654916 L 178.91532615502462,162.90187352796636 L 160.2954974025623,143.5749379943176 L 179.9496801692879,163.22912076104313 L 160.81334986668378,143.38568367725225 L 181.03122866466614,163.60356247523487 L 161.33227305905064,143.1975000884326 L 182.170932626026,164.03615965540806 L 161.8522377552271,143.01035800342248 L 183.38478078522718,164.54290103342282 L 162.37325521419712,142.824268681206 L 184.6977701334946,165.14878360050372 L 162.89533684096085,142.6392435267831 L 186.1531774944628,165.8970841802853 L 163.4184941869395,142.45529409157538 L 187.83958010539453,166.87638001003046 L 163.94273895022195,142.27243207367118 L 190.01274892035764,168.342442043807" fill="none" stroke="#e36a9c" stroke-width="0.1"/>
	<path d="M 215.53716290642242,203.76635096648354 L 217.42653708712933,205.65572514719048 L 209.75863657701018,197.2807178558847 L 223.72246484630452,211.2445461251791 L 207.3532106821765,194.16818517986445 L 226.86953129164488,213.6845057893329 L 205.69229502134743,191.8001627378489 L 229.41223692450504,215.5201046410065 L 204.41382632853058,189.81458726384548 L 231.68913474589579,217.08989568121066 L 203.37217631808176,188.0658304722101 L 233.8782577654453,218.57191191957364 L 202.48969671912593,186.47624409206776 L 236.2308679067088,220.21741527965054" fill="none" stroke="#9308a9" stroke-width="0.1"/>
	<path d="M 329.14360401119166,141.30320355580236 L 335.07250868137544,147.23210822598608 L 328.0033492930919,139.455842056516 L 336.7387785716991,148.19127133512336 L 327.2128116557019,137.9581976379394 L 338.06110037969415,148.80648636193186 L 326.59395596948127,136.63223517053237 L 339.21634748838085,149.254626689432 L 326.08216151460886,135.4133339344734 L 340.26734784463775,149.59852026450235 L 325.64521827061435,134.26928390929234 L 341.24511493973887,149.86918057841694 L 325.2642977067702,133.18125656426162 L 342.1676707036513,150.0846295611428 L 324.92725303262245,132.13710510892733 L 343.0465886012162,150.25644067752114 L 324.62569825656925,131.12844355168758 L 343.88982497544157,150.39257027056001 L 324.3535476863452,130.14918620027703 L 344.70312763632484,150.4987661502567 L 324.10621152799706,129.1947432607423 L 345.4908087708724,150.57934050361771 L 323.8801195577639,128.26154450932262 L 346.256201201978,150.63762615353681 L 323.672422621181,127.34674079155315 L 347.0019434657828,150.67626163615506 L 323.4807967952776,126.4480081844632 L 347.73016622681183,150.6973776159975 L 323.3033098958218,125.56341450382085 L 348.4426188142298,150.7027234222289 L 323.1383274383637,124.6913252651762 L 349.1407578357453,150.69375566255792 L 322.98444442220193,123.83033546782791 L 349.8258108998618,150.6717019454878 L 322.84043447963313,122.9792187440726 L 350.4988234936605,150.63760775809996 L 322.7052109447049,122.13688842795784 L 351.1606941576737,150.59237164092661 L 322.57779620839807,121.30236691046447 L 351.81220134110424,150.53677204317063 L 322.4572968445988,120.47476076547865 L 352.4540242217366,150.4714881426164 L 322.3428826870938,119.65323982678709 L 353.0867590683558,150.39711620804906 L 322.23376846405966,118.83701882256639 L 353.7109322577279,150.31418261623475 L 322.1291968365421,118.02534041386232 L 354.3270107442207,150.22315432154096 L 322.0284217823654,117.21745857849906 L 354.9354105642116,150.12444736034536 L 321.93069122694527,116.41262124189238 L 355.5365038062245,150.0184338211717 L 321.8352276279732,115.61005086173375 L 356.1306243700947,149.90544760385535 L 321.7412048132417,114.80892126581574 L 356.7180727606921,149.78578921326618 L 321.64771862713474,114.00832829852223 L 357.29912010475937,149.65972977614695 L 321.55374761787243,113.20725050807336 L 357.87401153716274,149.5275144273637 L 321.45809760347765,112.40449371249201 L 358.4429690711353,149.3893651801497 L 321.3593194550041,111.59860878283187 L 359.00619404303416,149.24548337086208 L 321.2555805105503,110.78776305719158 L 359.5638692036928,149.09605175033414 L 321.1444510520759,109.96952681753064 L 360.1161605141866,148.94123627964146 L 321.02252314611405,109.14049213038221 L 360.66321869269905,148.78118767696728 L 320.8846638790966,108.29552608217818 L 361.2051805504093,148.616042753491 L 320.7223519408372,107.42610736273228 L 361.742170147373,148.44592556926813 L 320.5191774386087,106.51582607931729 L 362.27429979380054,148.27094843450914 L 320.23360266970167,105.52314452922366 L 362.8016709176594,148.09121277718148" fill="none" stroke="#b538fa" stroke-width="0.1"/>
	<path d="M 359.5496726793282,115.14072972901508 L 380.7191998379848,136.31025688767207 L 361.9353457502942,116.81929601879455 L 381.00168243475974,135.8856327032605 L 363.828179906923,118.00502339423683 L 381.2699653857251,135.44680887303926 L 365.4962650692462,118.96600177537343 L 381.5222207372552,134.99195744338292 L 367.0335270847087,119.79615700964942 L 381.7561309685511,134.51876089349219 L 368.4875604958613,120.54308363961547 L 381.96868495762595,134.02420810138062 L 369.8880940543704,121.23651041693806 L 382.15584911224687,133.50426547481487 L 371.2572094511173,121.89851903249846 L 382.3120051958405,132.9533147772221 L 372.61458586851734,122.54878866871195 L 382.42891343425117,132.36311623444618 L 373.981874947766,123.20897096677407 L 382.49359323521145,131.7206892542199 L 375.389491002735,123.90948024055652 L 382.483368530631,131.00335776845253 L 376.89496803101616,124.70785048765111 L 382.3462510120679,130.15913346870283 L 378.67682921543224,125.78260489088065 L 381.9073101598082,129.01308583525662" fill="none" stroke="#91e494" stroke-width="0.1"/>
</svg>
