<?xml version="1.0" ?>
<svg xmlns="http://www.w3.org/2000/svg" xmlns:ev="http://www.w3.org/2001/xml-events" xmlns:xlink="http://www.w3.org/1999/xlink" baseProfile="full" data-name="b1.25" height="792" id="a" version="1.1" viewBox="0 0 612 792" width="612">
	<defs/>
	<path d="M 215.11729876582277,396.2123983371677 L 215.11729876582277,401.8685264847374 L 220.11729876582262,394.4954935678863 L 220.11729876582274,395.37577912736253 L 225.11729876582277,394.84621160350633 L 225.11729876582274,398.8256411513054 L 230.11729876582277,392.62793111906484 L 230.11729876582277,397.28418529834136 L 235.11729876582277,391.1247723916893 L 235.11729876582277,396.28330399827036 L 240.11729876582277,390.0062947398281 L 240.11729876582277,397.9598297210503 L 245.11729876582277,389.0244220236328 L 245.11729876582277,392.25000000000017 L 250.11729876582277,390.4498225742072 L 250.11729876582277,393.3616100838047 L 255.11729876582274,388.1982972769455 L 255.11729876582277,393.36311329499387 L 260.11729876582285,383.7582202959676 L 260.1172987658229,394.5039042435714 L 265.11729876582274,386.75900927979086 L 265.11729876582274,389.5158312297741" fill="none" stroke="#000000" stroke-width="0.5706369852737695"/>
	<path d="M 220.11729876582274,396.70491205545375 L 220.11729876582277,401.74584620593464" fill="none" stroke="#000000" stroke-width="0.5706369852737695"/>
	<path d="M 240.11729876582277,400.048878097868 L 240.1172987658228,409.8304206489569" fill="none" stroke="#000000" stroke-width="0.5706369852737695"/>
	<path d="M 265.11729876582274,392.26000000000005 L 265.11729876582274,393.6992856780139" fill="none" stroke="#000000" stroke-width="0.5706369852737695"/>
	<path d="M 265.11729876582274,393.9066607333394 L 265.11729876582274,396.815719450381" fill="none" stroke="#000000" stroke-width="0.5706369852737695"/>
	<path d="M 439.17,356.56999999999994 L 439.17,357.14" fill="none" stroke="#000000" stroke-width="0.5706369852737695"/>
	<path d="M 449.82000000000005,355.972030589755 L 449.82000000000005,356.5528045152419" fill="none" stroke="#000000" stroke-width="0.5706369852737695"/>
	<path d="M 446.53000000000003,358.26 L 446.53000000000003,358.26" fill="none" stroke="#000000" stroke-width="0.5706369852737695"/>
	<path d="M 410.83000000000004,398.4900000000001 L 410.83000000000004,399.62" fill="none" stroke="#000000" stroke-width="0.5706369852737695"/>
	<path d="M 407.9900000000001,399.0699999999999 L 407.99,400.2" fill="none" stroke="#000000" stroke-width="0.5706369852737695"/>
	<path d="M 408.56000000000006,400.2 L 408.56000000000006,400.77 L 413.56000000000006,400.2 L 413.5600000000002,401.3823287962501" fill="none" stroke="#000000" stroke-width="0.5706369852737695"/>
	<path d="M 409.7,396.7999999999998 L 409.7,397.37" fill="none" stroke="#000000" stroke-width="0.5706369852737695"/>
	<path d="M 405.1700000000001,414.36 L 405.17,414.93" fill="none" stroke="#000000" stroke-width="0.5706369852737695"/>
	<path d="M 381.94000000000005,370.73 L 381.94,371.3" fill="none" stroke="#000000" stroke-width="0.5706369852737695"/>
	<path d="M 273.12,366.19 L 273.12,366.19" fill="none" stroke="#000000" stroke-width="0.5706369852737695"/>
	<path d="M 394.96,369.61 L 394.9600000000002,370.18" fill="none" stroke="#000000" stroke-width="0.5706369852737695"/>
	<path d="M 410.26,414.93000000000023 L 410.26,415.5" fill="none" stroke="#000000" stroke-width="0.5706369852737695"/>
	<path d="M 267.46000000000004,365.63 L 267.46,366.2" fill="none" stroke="#000000" stroke-width="0.5706369852737695"/>
	<path d="M 432.93,354.86 L 432.93,355.43" fill="none" stroke="#000000" stroke-width="0.5706369852737695"/>
	<path d="M 423.86,359.9600000000002 L 423.86,360.53" fill="none" stroke="#000000" stroke-width="0.5706369852737695"/>
	<path d="M 279.93,370.73 L 279.93,370.73" fill="none" stroke="#000000" stroke-width="0.5706369852737695"/>
	<path d="M 243.1,365.0599999999996 L 243.1,365.63" fill="none" stroke="#000000" stroke-width="0.5706369852737695"/>
	<path d="M 226.56305555555554,359.3971152338552 L 226.56305555555562,360.5668740457577" fill="none" stroke="#000000" stroke-width="0.5706369852737695"/>
	<path d="M 443.69,358.26 L 443.69,358.83" fill="none" stroke="#000000" stroke-width="0.5706369852737695"/>
	<path d="M 410.2600000000002,368.4599999999996 L 410.26,368.46" fill="none" stroke="#000000" stroke-width="0.5706369852737695"/>
	<path d="M 408.57,395.6699999999999 L 408.57,395.67" fill="none" stroke="#000000" stroke-width="0.5706369852737695"/>
	<path d="M 272.0,364.5000000000003 L 272.0,365.07" fill="none" stroke="#000000" stroke-width="0.5706369852737695"/>
	<path d="M 262.92,366.2 L 262.92,366.2" fill="none" stroke="#000000" stroke-width="0.5706369852737695"/>
	<path d="M 290.69,370.16 L 290.69,370.73" fill="none" stroke="#000000" stroke-width="0.5706369852737695"/>
	<path d="M 257.83,369.5999999999998 L 257.83,370.17" fill="none" stroke="#000000" stroke-width="0.5706369852737695"/>
	<path d="M 255.0,412.1 L 255.0,413.23" fill="none" stroke="#000000" stroke-width="0.5706369852737695"/>
	<path d="M 439.73,361.67000000000024 L 439.73,362.24" fill="none" stroke="#000000" stroke-width="0.5706369852737695"/>
	<path d="M 391.5700000000002,368.4699999999998 L 391.57,368.47" fill="none" stroke="#000000" stroke-width="0.5706369852737695"/>
	<path d="M 391.57,369.04 L 391.57,369.04" fill="none" stroke="#000000" stroke-width="0.5706369852737695"/>
	<path d="M 392.12,367.9000000000002 L 392.12,368.46999999999997" fill="none" stroke="#000000" stroke-width="0.5706369852737695"/>
	<path d="M 240.26000000000002,362.23 L 240.26000000000013,362.2300000000004" fill="none" stroke="#000000" stroke-width="0.5706369852737695"/>
	<path d="M 247.06,359.97 L 247.06,359.97" fill="none" stroke="#000000" stroke-width="0.5706369852737695"/>
	<path d="M 428.96000000000004,355.9999999999998 L 428.96000000000004,356.0" fill="none" stroke="#000000" stroke-width="0.5706369852737695"/>
	<path d="M 291.83,372.43 L 291.83,373.0" fill="none" stroke="#000000" stroke-width="0.5706369852737695"/>
	<path d="M 217.58,359.40000000000003 L 217.58,359.97" fill="none" stroke="#000000" stroke-width="0.5706369852737695"/>
	<path d="M 229.51000000000002,359.3900000000002 L 229.51000000000002,360.52 L 234.51,359.96 L 234.51000000000002,360.53" fill="none" stroke="#000000" stroke-width="0.5706369852737695"/>
	<path d="M 443.13,362.8 L 443.1300000000001,363.37" fill="none" stroke="#000000" stroke-width="0.5706369852737695"/>
	<path d="M 435.76000000000005,362.23 L 435.76,362.8" fill="none" stroke="#000000" stroke-width="0.5706369852737695"/>
	<path d="M 432.37000000000006,366.2 L 432.37,366.77" fill="none" stroke="#000000" stroke-width="0.5706369852737695"/>
	<path d="M 417.06000000000006,412.67 L 417.06,413.8" fill="none" stroke="#000000" stroke-width="0.5706369852737695"/>
	<path d="M 421.03000000000003,390.0 L 421.03,390.57" fill="none" stroke="#000000" stroke-width="0.5706369852737695"/>
	<path d="M 413.6600000000001,392.2600000000005 L 413.66,392.83" fill="none" stroke="#000000" stroke-width="0.5706369852737695"/>
	<path d="M 247.06000000000003,363.93 L 247.06000000000003,364.5" fill="none" stroke="#000000" stroke-width="0.5706369852737695"/>
	<path d="M 391.57,396.8 L 391.57,397.37" fill="none" stroke="#000000" stroke-width="0.5706369852737695"/>
	<path d="M 418.20000000000005,361.1 L 418.2,361.67" fill="none" stroke="#000000" stroke-width="0.5706369852737695"/>
	<path d="M 413.54228742795374,362.4511437139769 L 413.5422874279536,362.6592427252731" fill="none" stroke="#000000" stroke-width="0.5706369852737695"/>
	<path d="M 405.1600000000003,367.8899999999996 L 405.16,367.89" fill="none" stroke="#000000" stroke-width="0.5706369852737695"/>
	<path d="M 407.8999999999997,362.22781319300657 L 407.89999999999975,364.03073393588124" fill="none" stroke="#000000" stroke-width="0.5706369852737695"/>
	<path d="M 407.8999999999997,364.3323024272625 L 407.89999999999975,365.06" fill="none" stroke="#000000" stroke-width="0.5706369852737695"/>
	<path d="M 402.33,366.7700000000002 L 402.33,367.34" fill="none" stroke="#000000" stroke-width="0.5706369852737695"/>
	<path d="M 435.2,352.5999999999998 L 435.2,353.17" fill="none" stroke="#000000" stroke-width="0.5706369852737695"/>
	<path d="M 264.63000000000017,370.72999999999985 L 264.63,370.73" fill="none" stroke="#000000" stroke-width="0.5706369852737695"/>
	<path d="M 261.8,373.57 L 261.80000000000024,373.5700000000002" fill="none" stroke="#000000" stroke-width="0.5706369852737695"/>
	<path d="M 273.13,371.86999999999955 L 273.13,371.87" fill="none" stroke="#000000" stroke-width="0.5706369852737695"/>
	<path d="M 247.63000000000002,367.9 L 247.63000000000005,368.46999999999997" fill="none" stroke="#000000" stroke-width="0.5706369852737695"/>
	<path d="M 238.56,366.2 L 238.56,366.77" fill="none" stroke="#000000" stroke-width="0.5706369852737695"/>
	<path d="M 217.58000000000013,364.4900000000001 L 217.58000000000004,365.05999999999995" fill="none" stroke="#000000" stroke-width="0.5706369852737695"/>
	<path d="M 248.20000000000002,397.37000000000023 L 248.20000000000002,397.94" fill="none" stroke="#000000" stroke-width="0.5706369852737695"/>
	<path d="M 248.7700000000001,398.49999999999983 L 248.77,398.5" fill="none" stroke="#000000" stroke-width="0.5706369852737695"/>
	<path d="M 254.32000000000005,413.5085211763557 L 254.32000000000005,413.81" fill="none" stroke="#000000" stroke-width="0.5706369852737695"/>
	<path d="M 223.27,356.0 L 223.27000000000007,356.01000000000005" fill="none" stroke="#000000" stroke-width="0.5706369852737695"/>
	<path d="M 423.87,418.90000000000003 L 423.87,419.47" fill="none" stroke="#000000" stroke-width="0.5706369852737695"/>
	<path d="M 431.8,417.76 L 431.8,418.33" fill="none" stroke="#000000" stroke-width="0.5706369852737695"/>
	<path d="M 425.0,389.43 L 425.0000000000002,389.4300000000002" fill="none" stroke="#000000" stroke-width="0.5706369852737695"/>
	<path d="M 425.0000000000002,389.9999999999998 L 425.0,390.0" fill="none" stroke="#000000" stroke-width="0.5706369852737695"/>
	<path d="M 237.44,359.4 L 237.44,359.4000000000001" fill="none" stroke="#000000" stroke-width="0.5706369852737695"/>
	<path d="M 400.05,363.3599999999995 L 400.05,363.36" fill="none" stroke="#000000" stroke-width="0.5706369852737695"/>
	<path d="M 286.73,373.57 L 286.73,373.57000000000016" fill="none" stroke="#000000" stroke-width="0.5706369852737695"/>
	<path d="M 275.4,374.13 L 275.4,374.1300000000002" fill="none" stroke="#000000" stroke-width="0.5706369852737695"/>
	<path d="M 231.2,363.93 L 231.2,364.5" fill="none" stroke="#000000" stroke-width="0.5706369852737695"/>
	<path d="M 234.02000000000004,362.79 L 234.02000000000004,363.92" fill="none" stroke="#000000" stroke-width="0.5706369852737695"/>
	<path d="M 258.40000000000003,395.10000000000025 L 258.40000000000003,395.67" fill="none" stroke="#000000" stroke-width="0.5706369852737695"/>
	<path d="M 269.17,395.67 L 269.17,395.67" fill="none" stroke="#000000" stroke-width="0.5706369852737695"/>
	<path d="M 226.67,354.8600000000001 L 226.67,355.43" fill="none" stroke="#000000" stroke-width="0.5706369852737695"/>
	<path d="M 224.4,353.73 L 224.4,354.3" fill="none" stroke="#000000" stroke-width="0.5706369852737695"/>
	<path d="M 430.1,418.90000000000003 L 430.1,419.47" fill="none" stroke="#000000" stroke-width="0.5706369852737695"/>
	<path d="M 460.7,359.97 L 460.7,360.54" fill="none" stroke="#000000" stroke-width="0.5706369852737695"/>
	<path d="M 398.37000000000023,392.2699999999999 L 398.37,392.27" fill="none" stroke="#000000" stroke-width="0.5706369852737695"/>
	<path d="M 419.33,387.74 L 419.33,388.31" fill="none" stroke="#000000" stroke-width="0.5706369852737695"/>
	<path d="M 419.33000000000004,370.16 L 419.33,370.73" fill="none" stroke="#000000" stroke-width="0.5706369852737695"/>
	<path d="M 414.80000000000007,394.53 L 414.8,395.09999999999997" fill="none" stroke="#000000" stroke-width="0.5706369852737695"/>
	<path d="M 414.8000000000001,395.67000000000013 L 414.8,396.24" fill="none" stroke="#000000" stroke-width="0.5706369852737695"/>
	<path d="M 244.79000000000005,361.6500000000004 L 244.79000000000005,362.22 L 249.79000000000005,363.16413941267035 L 249.79000000000002,364.21218211837356" fill="none" stroke="#000000" stroke-width="0.5706369852737695"/>
	<path d="M 277.66,362.22999999999985 L 277.66,362.23" fill="none" stroke="#000000" stroke-width="0.5706369852737695"/>
	<path d="M 299.2,375.27 L 299.2,375.84" fill="none" stroke="#000000" stroke-width="0.5706369852737695"/>
	<path d="M 264.63,371.88 L 264.63,372.44" fill="none" stroke="#000000" stroke-width="0.5706369852737695"/>
	<path d="M 290.69,374.14 L 290.69,375.27" fill="none" stroke="#000000" stroke-width="0.5706369852737695"/>
	<path d="M 232.33,413.8 L 232.33,414.37" fill="none" stroke="#000000" stroke-width="0.5706369852737695"/>
	<path d="M 213.06000000000003,359.97 L 213.06000000000003,361.1" fill="none" stroke="#000000" stroke-width="0.5706369852737695"/>
	<path d="M 252.7300000000001,370.72999999999985 L 252.73000000000002,370.73" fill="none" stroke="#000000" stroke-width="0.5706369852737695"/>
	<path d="M 243.67000000000002,370.73 L 243.67000000000004,370.73000000000013" fill="none" stroke="#000000" stroke-width="0.5706369852737695"/>
	<path d="M 254.43,382.63 L 254.43,383.2" fill="none" stroke="#000000" stroke-width="0.5706369852737695"/>
	<path d="M 223.85,364.51000000000016 L 223.85,365.64" fill="none" stroke="#000000" stroke-width="0.5706369852737695"/>
	<path d="M 245.36000000000004,387.17 L 245.36,387.74" fill="none" stroke="#000000" stroke-width="0.5706369852737695"/>
	<path d="M 207.4,357.12999999999954 L 207.4,357.7" fill="none" stroke="#000000" stroke-width="0.5706369852737695"/>
	<path d="M 435.77000000000004,419.46 L 435.77,420.03" fill="none" stroke="#000000" stroke-width="0.5706369852737695"/>
	<path d="M 458.99,353.16 L 458.99,353.73" fill="none" stroke="#000000" stroke-width="0.5706369852737695"/>
	<path d="M 438.05000000000007,363.36999999999955 L 438.05000000000007,363.94" fill="none" stroke="#000000" stroke-width="0.5706369852737695"/>
	<path d="M 403.9,393.2897238889462 L 403.9000000000001,396.23776200541107" fill="none" stroke="#000000" stroke-width="0.5706369852737695"/>
	<path d="M 390.43000000000006,366.77 L 390.43,367.34" fill="none" stroke="#000000" stroke-width="0.5706369852737695"/>
	<path d="M 243.09000000000006,357.13 L 243.09000000000003,357.7" fill="none" stroke="#000000" stroke-width="0.5706369852737695"/>
	<path d="M 239.12000000000003,356.57 L 239.12000000000003,357.14" fill="none" stroke="#000000" stroke-width="0.5706369852737695"/>
	<path d="M 389.87,395.1 L 389.87,395.67" fill="none" stroke="#000000" stroke-width="0.5706369852737695"/>
	<path d="M 412.52000000000004,359.40000000000003 L 412.52000000000004,359.40000000000003" fill="none" stroke="#000000" stroke-width="0.5706369852737695"/>
	<path d="M 411.9700000000001,360.53 L 411.97,361.65999999999997" fill="none" stroke="#000000" stroke-width="0.5706369852737695"/>
	<path d="M 271.43,374.69 L 271.43,375.26" fill="none" stroke="#000000" stroke-width="0.5706369852737695"/>
	<path d="M 268.5900000000001,375.2699999999998 L 268.59,375.27" fill="none" stroke="#000000" stroke-width="0.5706369852737695"/>
	<path d="M 227.2300000000001,411.5399999999999 L 227.23000000000002,412.11" fill="none" stroke="#000000" stroke-width="0.5706369852737695"/>
	<path d="M 213.54711324865391,356.5659114305148 L 213.54711324865391,357.1320346222626" fill="none" stroke="#000000" stroke-width="0.5706369852737695"/>
	<path d="M 214.76000000000002,362.2299999999998 L 214.76000000000002,362.8" fill="none" stroke="#000000" stroke-width="0.5706369852737695"/>
	<path d="M 215.9,404.73 L 215.9,405.3" fill="none" stroke="#000000" stroke-width="0.5706369852737695"/>
	<path d="M 230.07000000000002,365.07 L 230.07,365.64" fill="none" stroke="#000000" stroke-width="0.5706369852737695"/>
	<path d="M 244.24,383.19 L 244.24,384.32" fill="none" stroke="#000000" stroke-width="0.5706369852737695"/>
	<path d="M 238.5500000000001,368.46 L 238.55,369.03" fill="none" stroke="#000000" stroke-width="0.5706369852737695"/>
	<path d="M 247.52000000000004,412.1 L 247.52000000000004,413.2342622021351" fill="none" stroke="#000000" stroke-width="0.5706369852737695"/>
	<path d="M 466.36,357.7 L 466.35999999999996,357.7" fill="none" stroke="#000000" stroke-width="0.5706369852737695"/>
	<path d="M 464.09000000000003,356.5599999999998 L 464.09000000000003,357.13" fill="none" stroke="#000000" stroke-width="0.5706369852737695"/>
	<path d="M 409.13,387.73 L 409.13,387.73000000000025" fill="none" stroke="#000000" stroke-width="0.5706369852737695"/>
	<path d="M 250.46,358.82999999999976 L 250.46,359.4" fill="none" stroke="#000000" stroke-width="0.5706369852737695"/>
	<path d="M 255.58,362.51 L 255.58000000000004,362.51" fill="none" stroke="#000000" stroke-width="0.5706369852737695"/>
	<path d="M 275.4,395.67 L 275.4,395.67" fill="none" stroke="#000000" stroke-width="0.5706369852737695"/>
	<path d="M 273.01999999999987,390.54111844803367 L 273.01999999999987,392.6627034484551" fill="none" stroke="#000000" stroke-width="0.5706369852737695"/>
	<path d="M 249.9,418.33 L 249.9,418.9" fill="none" stroke="#000000" stroke-width="0.5706369852737695"/>
	<path d="M 204.0,359.4000000000002 L 204.0,359.96999999999997" fill="none" stroke="#000000" stroke-width="0.5706369852737695"/>
	<path d="M 232.90000000000003,367.3299999999999 L 232.9,367.33" fill="none" stroke="#000000" stroke-width="0.5706369852737695"/>
	<path d="M 235.73,368.47 L 235.73,369.61" fill="none" stroke="#000000" stroke-width="0.5706369852737695"/>
	<path d="M 241.96,384.32999999999976 L 241.96,384.33" fill="none" stroke="#000000" stroke-width="0.5706369852737695"/>
	<path d="M 434.07000000000005,386.59999999999997 L 434.07,386.59999999999997" fill="none" stroke="#000000" stroke-width="0.5706369852737695"/>
	<path d="M 421.49,393.4015432445085 L 421.49,397.9261403467708 L 426.49,392.82000000000005 L 426.48999999999995,398.2105647182441 L 431.49,393.5647764481898 L 431.49,398.551285903484 L 436.49000000000007,396.35772184099875 L 436.49000000000007,399.6093216466881 L 441.49,397.9289839788761 L 441.49,403.05057911290584 L 446.49,399.82191044817927 L 446.49,404.7554585216503 L 451.49,403.3813593308501 L 451.49000000000007,404.285127694735" fill="none" stroke="#000000" stroke-width="0.5706369852737695"/>
	<path d="M 421.49000000000007,398.5100000000001 L 421.49,400.19740581191985" fill="none" stroke="#000000" stroke-width="0.5706369852737695"/>
	<path d="M 436.48999999999984,400.4855298577783 L 436.49,400.9325432953603" fill="none" stroke="#000000" stroke-width="0.5706369852737695"/>
	<path d="M 255.56000000000006,361.64 L 255.56,361.64000000000004" fill="none" stroke="#000000" stroke-width="0.5706369852737695"/>
	<path d="M 214.77000000000004,407.57 L 214.77,408.14" fill="none" stroke="#000000" stroke-width="0.5706369852737695"/>
	<path d="M 202.87,357.13 L 202.87,357.7" fill="none" stroke="#000000" stroke-width="0.5706369852737695"/>
	<path d="M 219.86,411.53999999999996 L 219.86000000000016,411.54000000000025" fill="none" stroke="#000000" stroke-width="0.5706369852737695"/>
	<path d="M 219.86,412.10999999999996 L 219.86,412.10999999999996" fill="none" stroke="#000000" stroke-width="0.5706369852737695"/>
	<path d="M 200.03,364.5 L 200.03,365.07" fill="none" stroke="#000000" stroke-width="0.5706369852737695"/>
	<path d="M 247.63,373.57 L 247.63000000000002,373.57" fill="none" stroke="#000000" stroke-width="0.5706369852737695"/>
	<path d="M 194.93,358.83 L 194.93000000000004,358.83" fill="none" stroke="#000000" stroke-width="0.5706369852737695"/>
	<path d="M 218.16,348.07 L 218.16,348.64" fill="none" stroke="#000000" stroke-width="0.5706369852737695"/>
	<path d="M 224.96000000000004,387.74 L 224.96000000000004,387.74 L 229.95999999999995,385.45742838741046 L 229.9599999999999,387.2183555006716" fill="none" stroke="#000000" stroke-width="0.5706369852737695"/>
	<path d="M 209.67000000000002,404.17 L 209.67000000000004,404.74" fill="none" stroke="#000000" stroke-width="0.5706369852737695"/>
	<path d="M 192.1,361.0999999999998 L 192.1,361.67" fill="none" stroke="#000000" stroke-width="0.5706369852737695"/>
	<path d="M 483.1958543857909,462.3397786715224 L 483.1958543857909,489.1562688275145 L 488.195854385791,445.5124028708656 L 488.195854385791,509.16240664712876 L 493.1958543857909,435.66884660831613 L 493.1958543857909,481.9359537449801 L 498.1958543857909,429.29220033797236 L 498.1958543857912,488.4973324186031 L 503.19585438579094,432.3971496488787 L 503.1958543857909,481.3255063484662 L 508.19585438579077,445.09333831142277 L 508.19585438579094,462.7071936234134" fill="none" stroke="#000000" stroke-width="0.5706369852737695"/>
	<path d="M 483.1958543857908,491.7278311625513 L 483.1958543857909,495.67725091847996" fill="none" stroke="#000000" stroke-width="0.5706369852737695"/>
	<path d="M 493.19585438579094,484.17043756151276 L 493.195854385791,489.826650180695" fill="none" stroke="#000000" stroke-width="0.5706369852737695"/>
	<path d="M 433.41959126096503,622.6993363148769 L 433.4195912609652,636.397943279932 L 438.4195912609651,618.7465936568368 L 438.4195912609653,630.139471879556 L 443.4195912609652,577.3847964379876 L 443.41959126096503,628.1067739310829 L 448.4195912609651,570.2422872928153 L 448.4195912609651,626.1475523715945 L 453.4195912609651,566.3247114861473 L 453.4195912609651,633.8337305170134 L 458.419591260965,554.4041178064905 L 458.4195912609651,639.5168712138163 L 463.4195912609649,544.9523463113156 L 463.4195912609651,624.3690983226114 L 468.4195912609655,537.665343371881 L 468.4195912609651,588.8855244397087 L 473.4195912609651,536.7536468970085 L 473.41959126096503,592.7459245722373 L 478.4195912609651,533.205937972019 L 478.41959126096503,539.8311445592407 L 483.41959126096503,559.408177156058 L 483.4195912609652,576.8377420512905 L 488.4195912609651,572.7859655224536 L 488.41959126096486,576.8978740425144" fill="none" stroke="#000000" stroke-width="0.5706369852737695"/>
	<path d="M 463.4195912609651,627.30966622473 L 463.4195912609652,644.6722563185027 L 468.4195912609651,605.0559359200886 L 468.41959126096503,624.4328489465852 L 473.4195912609651,613.4639333510341 L 473.41959126096503,623.9281498550168 L 478.4195912609651,560.0989862421051 L 478.41959126096515,585.4609762944765" fill="none" stroke="#000000" stroke-width="0.5706369852737695"/>
	<path d="M 468.4195912609651,629.8160124782544 L 468.4195912609651,646.2453038615317 L 473.4195912609651,639.7309063053931 L 473.41959126096515,647.9499829860197 L 478.41959126096515,619.0124241875158 L 478.41959126096515,624.0444362747445" fill="none" stroke="#000000" stroke-width="0.5706369852737695"/>
	<path d="M 478.4195912609651,590.4251677432406 L 478.4195912609651,592.9775029336136" fill="none" stroke="#000000" stroke-width="0.5706369852737695"/>
	<path d="M 478.4195912609651,642.9569303613846 L 478.41959126096515,648.3967218602302 L 483.4195912609651,638.6698655035115 L 483.4195912609651,644.0741937069931" fill="none" stroke="#000000" stroke-width="0.5706369852737695"/>
	<path d="M 151.20108213232567,572.7954636539137 L 151.2010821323257,608.4344923043407 L 156.2010821323257,563.9669868396537 L 156.20108213232578,610.8590163877934 L 161.20108213232567,554.8636669819753 L 161.20108213232572,614.832866455754 L 166.2010821323258,547.5134668674586 L 166.2010821323257,553.1723412967887 L 171.2010821323257,557.2286288424141 L 171.2010821323257,626.0976738968699 L 176.20108213232575,573.1654813598572 L 176.2010821323257,578.5254771389017 L 181.2010821323257,532.3721514037553 L 181.20108213232578,573.154118752652 L 186.2010821323257,510.2458679858298 L 186.2010821323257,571.5127823799958 L 191.2010821323257,512.3991979924027 L 191.20108213232572,513.1354650821833 L 196.2010821323257,535.0445360562327 L 196.2010821323257,663.1971777404212 L 201.2010821323257,549.8811186671892 L 201.20108213232567,662.3179896576324 L 206.2010821323257,554.5780836355657 L 206.2010821323256,660.5513206856053 L 211.2010821323257,559.7940450519086 L 211.2010821323255,657.7851102359579 L 216.2010821323257,567.2449188573983 L 216.20108213232572,589.6085901791791 L 221.20108213232558,576.5717624585487 L 221.2010821323257,582.9279110238966" fill="none" stroke="#000000" stroke-width="0.5706369852737695"/>
	<path d="M 166.20108213232578,555.5949168383436 L 166.2010821323257,619.3686138906278" fill="none" stroke="#000000" stroke-width="0.5706369852737695"/>
	<path d="M 176.20108213232572,591.8128252405677 L 176.2010821323257,629.2105600411383 L 181.20108213232564,599.0273070180968 L 181.20108213232578,627.3259885521506 L 186.2010821323257,595.7476939624764 L 186.2010821323257,639.4210192470218 L 191.2010821323257,521.6010968514814 L 191.2010821323257,572.7419908289423" fill="none" stroke="#000000" stroke-width="0.5706369852737695"/>
	<path d="M 181.20108213232575,653.9330165119735 L 181.20108213232558,657.2156391148771 L 186.20108213232572,651.1821853952243 L 186.2010821323257,660.3343663671877 L 191.2010821323257,578.9831152486666 L 191.2010821323257,581.1773358041127" fill="none" stroke="#000000" stroke-width="0.5706369852737695"/>
	<path d="M 191.2010821323257,590.3616866132584 L 191.20108213232572,662.2924199129338" fill="none" stroke="#000000" stroke-width="0.5706369852737695"/>
	<path d="M 216.20108213232564,603.3753537710155 L 216.2010821323257,652.6387974214626 L 221.20108213232572,615.4194602010529 L 221.2010821323257,627.451662365776" fill="none" stroke="#000000" stroke-width="0.5706369852737695"/>
	<path d="M 221.20108213232572,634.3333643855411 L 221.20108213232567,643.7556301107697" fill="none" stroke="#000000" stroke-width="0.5706369852737695"/>
	<path d="M 184.3648464748634,148.0415687905898 L 184.3648464748636,152.6847660122956 L 189.36484647486347,145.06350674252232 L 189.3648464748636,152.99147268167468 L 194.3648464748635,142.34402946330212 L 194.36484647486367,152.25069880335982 L 199.36484647486355,139.56452496693566 L 199.3648464748635,150.92148481551217 L 204.36484647486353,136.88283551312074 L 204.3648464748635,151.48823443917715 L 209.3648464748635,134.56195077780586 L 209.3648464748635,151.47729798750447 L 214.3648464748635,132.80469525760296 L 214.3648464748635,151.42546026766036 L 219.3648464748635,131.74881615605784 L 219.3648464748635,151.33220369152656 L 224.3648464748635,144.7020589192485 L 224.3648464748635,148.34117341411653" fill="none" stroke="#000000" stroke-width="0.5706369852737695"/>
	<path d="M 231.66620065455686,139.5633812562948 L 231.66620065455695,151.99201011393987 L 236.6662006545569,134.34264008117364 L 236.66620065455677,139.37848498879364 L 241.666200654557,140.94981039084735 L 241.66620065455677,150.92789141037753 L 246.66620065455692,143.44255993746467 L 246.6662006545569,150.9998675625573 L 251.6662006545569,141.48346827260428 L 251.66620065455692,151.10918666793015 L 256.66620065455686,139.3468715380106 L 256.6662006545569,149.00074599797236 L 261.666200654557,138.71432344633945 L 261.66620065455703,151.0197805425599 L 266.66620065455686,143.4930436268282 L 266.666200654557,155.2677132669069 L 271.6662006545568,143.94265318302465 L 271.6662006545568,151.78202757468165 L 276.6662006545569,144.4400936085514 L 276.66620065455663,154.6073746292488 L 281.66620065455686,146.06956360465685 L 281.66620065455686,156.54999999999998 L 286.66620065455675,147.76176338699872 L 286.66620065455686,156.54999999999998 L 291.6662006545568,150.31329154800127 L 291.66620065455686,157.01069983894382 L 296.66620065455686,153.22605810803182 L 296.6662006545568,160.09463106911858 L 301.66620065455686,157.92544592252685 L 301.66620065455686,161.61712590909582" fill="none" stroke="#000000" stroke-width="0.5706369852737695"/>
	<path d="M 236.66620065455686,141.2257234030548 L 236.6662006545569,152.30656053875447" fill="none" stroke="#000000" stroke-width="0.5706369852737695"/>
	<path d="M 271.66620065455675,155.67079922685448 L 271.66620065455686,156.55627221768202 L 276.66620065455686,155.18227697108432 L 276.6662006545568,160.1963772746317 L 281.66620065455686,159.8681443424292 L 281.6662006545566,163.40263741334945 L 286.66620065455686,161.4391956896875 L 286.6662006545568,165.46484258979703 L 291.6662006545568,165.15569559686307 L 291.6662006545569,166.16795941173066" fill="none" stroke="#000000" stroke-width="0.5706369852737695"/>
	<path d="M 153.99295250042408,302.98356692078397 L 153.99295250042408,308.74057240671897 L 158.99295250042408,290.15133493250556 L 158.99295250042408,304.9952646895584 L 163.99295250042408,284.25462712988366 L 163.99295250042422,299.976924922837 L 168.99295250042408,289.87949161926554 L 168.99295250042402,292.8450789303547" fill="none" stroke="#000000" stroke-width="0.5706369852737695"/>
	<path d="M 153.99295250042408,315.9606791405034 L 153.99295250042408,350.0024001077766" fill="none" stroke="#000000" stroke-width="0.5706369852737695"/>
	<path d="M 158.99295250042408,311.2920089222789 L 158.99295250042408,351.44235411978457 L 163.99295250042408,304.2885828511791 L 163.99295250042414,343.68936658855563 L 168.99295250042405,318.41687961753547 L 168.99295250042408,324.4511857164946" fill="none" stroke="#000000" stroke-width="0.5706369852737695"/>
	<path d="M 351.7510353455146,151.8694336422539 L 351.75103534551454,154.12761428082334" fill="none" stroke="#000000" stroke-width="0.5706369852737695"/>
	<path d="M 173.3,212.89360153810358 L 173.29999999999995,216.4374095318093" fill="none" stroke="#000000" stroke-width="0.5706369852737695"/>
	<path d="M 267.3799999999998,135.33317278179666 L 267.38,137.1354305192468 L 272.37999999999994,136.75933133566218 L 272.37999999999994,138.37185247421417" fill="none" stroke="#000000" stroke-width="0.5706369852737695"/>
	<path d="M 499.7,220.76480491017455 L 499.69999999999993,226.27301483625172" fill="none" stroke="#000000" stroke-width="0.5706369852737695"/>
	<path d="M 409.58999999999975,173.09571388043634 L 409.59000000000003,175.8992606462301" fill="none" stroke="#000000" stroke-width="0.5706369852737695"/>
	<path d="M 414.59,171.1873492810551 L 414.59000000000015,172.87569127784127" fill="none" stroke="#000000" stroke-width="0.5706369852737695"/>
	<path d="M 492.36,183.29988156604045 L 492.3599999999999,185.95368819723205" fill="none" stroke="#000000" stroke-width="0.5706369852737695"/>
	<path d="M 399.85048349357135,169.71951693561402 L 399.8504834935713,173.7137080990219" fill="none" stroke="#000000" stroke-width="0.5706369852737695"/>
	<path d="M 363.6538067548491,159.5249628804706 L 363.65380675484914,164.33372462951138" fill="none" stroke="#000000" stroke-width="0.5706369852737695"/>
	<path d="M 496.25792246326034,232.38155498506384 L 496.2579224632604,234.75383794416712 L 501.2579224632603,231.8161751571548 L 501.25792246326034,235.42016951881766" fill="none" stroke="#000000" stroke-width="0.5706369852737695"/>
	<path d="M 148.3559159213939,302.1869148991764 L 148.3559159213939,307.0169109852523" fill="none" stroke="#000000" stroke-width="0.5706369852737695"/>
	<path d="M 425.9337904865462,124.78174571313811 L 425.9337904865463,128.4302214554556 L 430.9337904865463,127.08189220369475 L 430.9337904865463,129.32652979891273" fill="none" stroke="#000000" stroke-width="0.5706369852737695"/>
	<path d="M 509.84193446241716,262.627880432026 L 509.84193446241716,266.6851043469601 L 514.8419344624172,265.44445513651897 L 514.8419344624166,267.9885217034656" fill="none" stroke="#000000" stroke-width="0.5706369852737695"/>
	<path d="M 199.893947450491,153.9864622271794 L 199.89394745049088,157.50257610580462 L 204.89394745049094,153.79421472122348 L 204.89394745049083,157.44813661189178" fill="none" stroke="#000000" stroke-width="0.5706369852737695"/>
	<path d="M 496.1816263243852,205.1235528502568 L 496.181626324385,209.19213200795429 L 501.18162632438487,206.22108063146325 L 501.1816263243849,208.98120725828886" fill="none" stroke="#000000" stroke-width="0.5706369852737695"/>
	<path d="M 158.67000000000002,231.60999999999996 L 158.67000000000002,231.60999999999999 L 163.67000000000002,226.32674796747966 L 163.6700000000001,232.45905789302302 L 168.67,225.75764227642276 L 168.67000000000004,228.87031433779796" fill="none" stroke="#000000" stroke-width="0.5706369852737695"/>
	<path d="M 262.8008196936896,111.41501223587179 L 262.8008196936896,113.55848601230765 L 267.8008196936896,112.29983753552177 L 267.8008196936896,114.08766569912783 L 272.80081969368956,112.96967527207883 L 272.8008196936896,115.85053714802048 L 277.8008196936895,115.58135901020152 L 277.8008196936897,117.04958814448737" fill="none" stroke="#000000" stroke-width="0.5706369852737695"/>
	<path d="M 520.2202086657752,300.7631035685844 L 520.2202086657754,307.4429057762671 L 525.2202086657753,304.304850228814 L 525.2202086657753,308.2512620588649" fill="none" stroke="#000000" stroke-width="0.5706369852737695"/>
	<path d="M 513.8162360885834,238.4224415183444 L 513.8162360885834,240.54616270795492 L 518.8162360885831,231.28815694075922 L 518.8162360885833,238.8885604773419" fill="none" stroke="#000000" stroke-width="0.5706369852737695"/>
	<path d="M 435.654256058847,164.8080236127768 L 435.654256058847,167.07708094457084 L 440.654256058847,160.94910552214034 L 440.654256058847,164.5782394130174 L 445.654256058847,160.34688200866006 L 445.654256058847,165.34728751353015 L 450.654256058847,160.9550225859381 L 450.6542560588469,162.58057043515328" fill="none" stroke="#000000" stroke-width="0.5706369852737695"/>
	<path d="M 262.999104045703,176.93341624568274 L 262.9991040457029,181.12041004480318 L 267.999104045703,177.85107525511535 L 267.9991040457029,182.3543601776789 L 272.999104045703,180.5196608610944 L 272.999104045703,184.31739718837514" fill="none" stroke="#000000" stroke-width="0.5706369852737695"/>
	<path d="M 277.999104045703,182.6228337729836 L 277.9991040457028,184.3078647257709" fill="none" stroke="#000000" stroke-width="0.5706369852737695"/>
	<path d="M 189.6245645548481,177.8687144666646 L 189.62456455484806,181.8715769328567 L 194.62456455484804,177.40440679888243 L 194.624564554848,180.0494555299921 L 199.624564554848,174.96475830457985 L 199.62456455484806,178.66765117767912 L 204.62456455484806,173.56484417125952 L 204.62456455484806,178.38490345419976 L 209.62456455484798,173.18726044092114 L 209.6245645548481,175.03696756386248" fill="none" stroke="#000000" stroke-width="0.5706369852737695"/>
	<path d="M 445.1559883157533,203.29455474911953 L 445.1559883157534,207.55566182466322 L 450.15598831575335,202.88682363197682 L 450.15598831575346,208.9969151930841 L 455.1559883157534,203.6011567044875 L 455.15598831575346,209.52863660410685 L 460.1559883157534,207.3215776245896 L 460.1559883157534,208.64557674122" fill="none" stroke="#000000" stroke-width="0.5706369852737695"/>
	<path d="M 152.8784941003653,275.78324388581973 L 152.8784941003653,284.6701749854903 L 157.8784941003653,268.65174735627136 L 157.8784941003653,277.9477466791855" fill="none" stroke="#000000" stroke-width="0.5706369852737695"/>
	<path d="M 501.47007281061605,247.6855052736795 L 501.4700728106159,258.27746048707013 L 506.4700728106159,247.2713906270476 L 506.4700728106159,255.5699291445427" fill="none" stroke="#000000" stroke-width="0.5706369852737695"/>
	<path d="M 239.22648166777424,160.67726630735854 L 239.22648166777424,165.5110696524728 L 244.2264816677742,161.12931647074777 L 244.2264816677742,166.1095469876524 L 249.2264816677742,164.05016339817752 L 249.2264816677742,167.26006296814185 L 254.2264816677742,165.72618161868087 L 254.22648166777427,169.66389415628234" fill="none" stroke="#000000" stroke-width="0.5706369852737695"/>
	<path d="M 506.36819822073954,220.62503511024255 L 506.3681982207396,224.83157696123752 L 511.3681982207396,218.72761362302907 L 511.36819822073954,227.9523379062128 L 516.3681982207395,223.00879719202769 L 516.3681982207394,227.08840857076413" fill="none" stroke="#000000" stroke-width="0.5706369852737695"/>
	<path d="M 379.50999999999954,106.19547327527118 L 379.50999999999965,113.3005614399938 L 384.5099999999996,102.36825184515058 L 384.50999999999954,105.76593952211026 L 389.50999999999993,106.68603797436658 L 389.5099999999996,112.67739304098548 L 394.50999999999976,105.99496520021681 L 394.5099999999996,113.44525910773517 L 399.50999999999965,105.84449550166346 L 399.50999999999965,112.49390702672756 L 404.5099999999996,106.07633644082068 L 404.5099999999999,114.52928202012707 L 409.5099999999996,108.66643283705221 L 409.50999999999954,112.84528325242981" fill="none" stroke="#000000" stroke-width="0.5706369852737695"/>
	<path d="M 384.5099999999996,108.02549331866193 L 384.5099999999996,112.3020841182388" fill="none" stroke="#000000" stroke-width="0.5706369852737695"/>
	<path d="M 420.37,181.5376545593423 L 420.36999999999995,183.70371606044492 L 425.36999999999995,180.56152243628188 L 425.3700000000001,183.1938200004842 L 430.3699999999999,178.50647374402024 L 430.37,181.67906438059376 L 435.36999999999995,176.5949812766419 L 435.37,179.9158912851164 L 440.3700000000001,172.02246978702718 L 440.36999999999995,178.95421335001038 L 445.37000000000006,171.0046957468968 L 445.36999999999995,176.3532830765971 L 450.36999999999995,169.4236911544432 L 450.37,173.6119523515725 L 455.36999999999995,166.19100038597057 L 455.36999999999995,170.3987800838233 L 460.37,165.60406932661982 L 460.37000000000006,169.20353448404163 L 465.3699999999999,167.21167703581847 L 465.36999999999995,173.37391086932917 L 470.36999999999995,169.97592576298285 L 470.3699999999999,176.7285451631426" fill="none" stroke="#000000" stroke-width="0.5706369852737695"/>
	<path d="M 455.36999999999995,171.27326633165833 L 455.37,173.94336187218232" fill="none" stroke="#000000" stroke-width="0.5706369852737695"/>
	<path d="M 343.73444394344017,138.25304425775175 L 343.73444394344034,150.49609460025354 L 348.7344439434401,133.32348226158967 L 348.7344439434401,145.17976770248123 L 353.7344439434401,128.27674213604814 L 353.73444394344,140.9424078464967 L 358.73444394344017,124.14338304470743 L 358.73444394344017,138.3852761507933 L 363.7344439434401,127.39485228909092 L 363.73444394344006,136.31353603078904 L 368.73444394343994,125.23752995257162 L 368.73444394344017,130.86698134542547 L 373.73444394344006,124.11665373099217 L 373.73444394344017,129.64883207187154 L 378.7344439434401,123.2143996118487 L 378.73444394344017,128.58747651534347 L 383.73444394344045,122.86211086517758 L 383.73444394344017,126.75255161389757 L 388.73444394344017,121.69172787809603 L 388.73444394344017,124.84604824467044 L 393.73444394344045,121.15085017333557 L 393.7344439434402,123.73439503851978 L 398.73444394344017,120.46996550882258 L 398.73444394344017,123.71570343440172 L 403.7344439434402,119.31805959080515 L 403.73444394344017,127.04044408983653 L 408.73444394344017,119.2921578914274 L 408.73444394344017,124.89879289027606 L 413.7344439434402,119.43739306435845 L 413.73444394344017,123.0635735619383 L 418.73444394344017,119.11139023106476 L 418.73444394344017,123.31981589650857" fill="none" stroke="#000000" stroke-width="0.5706369852737695"/>
	<path d="M 373.73444394344006,138.51574065825156 L 373.73444394344017,141.1936387034796 L 378.73444394344017,134.63592601406168 L 378.73444394344017,138.5938981333772 L 383.73444394344017,132.3807270045874 L 383.73444394344017,136.94550217873595 L 388.7344439434398,130.55931636428826 L 388.7344439434403,137.95203427506073 L 393.73444394344006,130.05027459417795 L 393.73444394344017,135.31912403422476 L 398.7344439434403,127.48011812609045 L 398.7344439434401,134.3708240668489 L 403.7344439434401,130.53480493877052 L 403.73444394344017,134.8813338792995 L 408.73444394344017,129.5887544323443 L 408.7344439434401,133.83628485190317 L 413.7344439434401,127.35616446569297 L 413.73444394344017,132.41997850872963 L 418.73444394344017,126.50485774473056 L 418.7344439434401,130.21583775392438" fill="none" stroke="#000000" stroke-width="0.5706369852737695"/>
	<path d="M 382.1913339812342,150.85678615796982 L 382.19133398123427,153.80382672336506 L 387.1913339812342,150.04046670071972 L 387.1913339812343,154.40604069992892 L 392.19133398123427,143.88749073679142 L 392.19133398123427,145.1272762622625 L 397.19133398123427,141.41979201293006 L 397.19133398123427,143.79822980974396 L 402.1913339812342,140.71185532185612 L 402.1913339812345,158.73231974218703 L 407.1913339812345,140.53669983540138 L 407.1913339812342,157.46736528701857 L 412.19133398123427,138.83627551861773 L 412.19133398123427,154.3444621546059 L 417.1913339812343,138.7194433604665 L 417.19133398123427,151.4391112083479 L 422.19133398123427,139.352702619838 L 422.19133398123427,142.05133909592533 L 427.19133398123427,139.07212616826683 L 427.19133398123415,141.7155124730791 L 432.1913339812343,144.28564054785303 L 432.19133398123427,147.49268570527653 L 437.19133398123444,145.22478473870248 L 437.19133398123427,154.2939359582791 L 442.19133398123427,145.1014498858436 L 442.1913339812343,148.1449678786221 L 447.19133398123427,146.87249337039077 L 447.19133398123427,147.50887647616824 L 452.19133398123427,145.31576582204158 L 452.1913339812342,148.5998684328072 L 457.1913339812344,146.20843393593515 L 457.19133398123415,149.74908282011197" fill="none" stroke="#000000" stroke-width="0.5706369852737695"/>
	<path d="M 387.19133398123404,164.5338067513015 L 387.1913339812341,165.09368568291623 L 392.19133398123427,148.11670170423395 L 392.19133398123415,159.35118552673893 L 397.19133398123427,146.10345645351023 L 397.19133398123427,156.8355323691584" fill="none" stroke="#000000" stroke-width="0.5706369852737695"/>
	<path d="M 392.19133398123427,161.5188969008771 L 392.1913339812342,164.2967890012296 L 397.19133398123455,159.45966789674824 L 397.19133398123427,163.29177586712345" fill="none" stroke="#000000" stroke-width="0.5706369852737695"/>
	<path d="M 422.19133398123415,143.54024479575662 L 422.19133398123415,150.22968531005884 L 427.1913339812346,143.52657576898372 L 427.19133398123427,149.2028525934642 L 432.19133398123427,150.70115341977763 L 432.19133398123415,154.7310300612038" fill="none" stroke="#000000" stroke-width="0.5706369852737695"/>
	<path d="M 422.1913339812341,154.45681751218962 L 422.1913339812344,157.13838972205747 L 427.19133398123427,152.04486979456348 L 427.19133398123455,155.68044364176268" fill="none" stroke="#000000" stroke-width="0.5706369852737695"/>
	<path d="M 442.19133398123427,150.42051294251164 L 442.19133398123427,155.06149778493167" fill="none" stroke="#000000" stroke-width="0.5706369852737695"/>
	<path d="M 282.21000000000015,135.26999999999987 L 282.20999999999987,135.26999999999998 L 287.20999999999987,135.62728285916185 L 287.20999999999987,137.97723326435127 L 292.2099999999998,136.8326783741303 L 292.20999999999987,139.4151793285769 L 297.20999999999987,137.60118423127338 L 297.20999999999987,142.2800920889067 L 302.20999999999987,123.16170071966329 L 302.20999999999964,129.2439391491164 L 307.20999999999987,122.38647713540489 L 307.2099999999998,145.78776393746068 L 312.2099999999997,103.33059417827845 L 312.2099999999999,106.45640674971212 L 317.2099999999999,109.95936288472669 L 317.20999999999987,146.10756781736774 L 322.20999999999987,109.43826794176984 L 322.20999999999987,118.70099003771436 L 327.20999999999987,125.90297031241084 L 327.2099999999998,129.572338661473 L 332.20999999999987,137.30944756379236 L 332.20999999999987,147.23994712328027" fill="none" stroke="#000000" stroke-width="0.5706369852737695"/>
	<path d="M 302.20999999999987,138.9525783440839 L 302.20999999999987,147.5302198339597" fill="none" stroke="#000000" stroke-width="0.5706369852737695"/>
	<path d="M 312.21,109.48589276948094 L 312.20999999999987,111.80658748546185" fill="none" stroke="#000000" stroke-width="0.5706369852737695"/>
	<path d="M 312.20999999999987,115.40538729859699 L 312.20999999999987,147.7629606723286" fill="none" stroke="#000000" stroke-width="0.5706369852737695"/>
	<path d="M 322.20999999999987,134.5471274814406 L 322.20999999999987,149.31003344864743 L 327.20999999999987,137.26900728525297 L 327.20999999999987,151.51731328464635" fill="none" stroke="#000000" stroke-width="0.5706369852737695"/>
	<path d="M 164.22999999999993,238.60834909850442 L 164.23000000000002,244.79841216499884 L 169.22999999999996,234.3372566807875 L 169.23000000000013,245.74521932828918" fill="none" stroke="#000000" stroke-width="0.5706369852737695"/>
	<path d="M 174.22999999999985,226.0662341631284 L 174.22999999999996,228.34718210141773" fill="none" stroke="#000000" stroke-width="0.5706369852737695"/>
	<path d="M 174.23,229.19335073211982 L 174.23,244.35934106179792" fill="none" stroke="#000000" stroke-width="0.5706369852737695"/>
	<path d="M 179.2299999999999,227.79930124277342 L 179.23,244.87994060900928 L 184.23,206.57315944414358 L 184.23,211.26495653507246 L 189.23,203.0694474022927 L 189.23,207.11287771692187 L 194.23,201.07017230513202 L 194.23,206.55209418794826 L 199.23,199.27499545379325 L 199.23,204.12242279603458 L 204.23000000000008,196.65184031262066 L 204.22999999999993,207.57577835616075 L 209.23000000000002,193.88132667380557 L 209.23,210.6316213271828 L 214.23,193.2045692099401 L 214.23000000000002,208.69689091135663 L 219.23,194.83020287615767 L 219.23,208.76089199919838 L 224.23,195.2282558174601 L 224.22999999999996,208.07508587874986 L 229.22999999999993,195.70055868268986 L 229.23,207.62300692318942 L 234.22999999999996,197.20624999102586 L 234.23,203.01376379009628 L 239.23,199.06355851473077 L 239.23,205.09246438202413 L 244.23,202.43146518837395 L 244.22999999999996,207.15515069367112" fill="none" stroke="#000000" stroke-width="0.5706369852737695"/>
	<path d="M 184.23000000000005,223.01035269890536 L 184.22999999999993,241.65584180799053 L 189.22999999999988,219.869195274646 L 189.23000000000002,236.5590739895137 L 194.22999999999996,214.3532541825738 L 194.23000000000002,221.79997789036992 L 199.23,210.53692712893996 L 199.23,215.71828245737638 L 204.23,209.34128350049997 L 204.22999999999996,212.20801860697935" fill="none" stroke="#000000" stroke-width="0.5706369852737695"/>
	<path d="M 194.23000000000025,224.6215890134482 L 194.23,228.2019929731032 L 199.23000000000002,218.58216088405467 L 199.23,223.16405271712085 L 204.23,217.6559752249543 L 204.22999999999996,219.1949881133469" fill="none" stroke="#000000" stroke-width="0.5706369852737695"/>
	<path d="M 234.23000000000002,205.68442477876093 L 234.2299999999998,206.5769006018326" fill="none" stroke="#000000" stroke-width="0.5706369852737695"/>
	<path d="M 461.83000000000015,671.6299999999995 L 461.83,671.63 L 466.83,670.4635403437253 L 466.8299999999998,672.5410324286561 L 471.82999999999987,670.4707244043636 L 471.83,673.00523711892" fill="none" stroke="#000000" stroke-width="0.5706369852737695"/>
	<path d="M 431.70826042840974,593.4868563622795 L 431.70826042840974,600.6586397654551" fill="none" stroke="#000000" stroke-width="0.5706369852737695"/>
	<path d="M 508.3004345446268,629.8148368521031 L 508.30043454462674,636.1750461599686 L 513.3004345446269,630.1795135173319 L 513.3004345446267,638.3058134889213 L 518.3004345446267,631.5662075030561 L 518.3004345446263,639.4001465176698 L 523.3004345446268,634.4744080188538 L 523.3004345446265,641.519539614854" fill="none" stroke="#000000" stroke-width="0.5706369852737695"/>
	<path d="M 156.23504339035767,556.7829110774776 L 156.23504339035773,561.5972577848748" fill="none" stroke="#000000" stroke-width="0.5706369852737695"/>
	<path d="M 157.95091763253595,504.406512401149 L 157.95091763253595,544.6505481560821 L 162.95091763253583,430.7551825254835 L 162.95091763253606,443.7565918951262 L 167.95091763253595,438.94334331643347 L 167.95091763253595,514.3791990095431 L 172.95091763253592,448.18541268866187 L 172.95091763253595,498.51023035098495 L 177.95091763253595,454.2236234032045 L 177.95091763253592,458.1052724431146 L 182.95091763253595,479.71097873507887 L 182.95091763253592,492.74283630563707" fill="none" stroke="#000000" stroke-width="0.5706369852737695"/>
	<path d="M 162.95091763253595,447.3764613782499 L 162.95091763253595,450.69685566906867" fill="none" stroke="#000000" stroke-width="0.5706369852737695"/>
	<path d="M 162.95091763253595,471.9105132217663 L 162.95091763253598,497.6735468247173" fill="none" stroke="#000000" stroke-width="0.5706369852737695"/>
	<path d="M 162.95091763253595,499.8193676593435 L 162.95091763253595,521.0890279489845" fill="none" stroke="#000000" stroke-width="0.5706369852737695"/>
	<path d="M 162.95091763253595,534.3894181388349 L 162.950917632536,540.3412193992897" fill="none" stroke="#000000" stroke-width="0.5706369852737695"/>
	<path d="M 177.95091763253595,476.46559007401294 L 177.95091763253595,495.0539652152526" fill="none" stroke="#000000" stroke-width="0.5706369852737695"/>
	<path d="M 255.0,367.33 L 255.00000000000003,367.33" fill="none" stroke="#000000" stroke-width="0.5706369852737695"/>
	<path d="M 390.43,369.03 L 390.43000000000006,369.59999999999997" fill="none" stroke="#000000" stroke-width="0.5706369852737695"/>
	<path d="M 416.5,358.83 L 416.50000000000006,359.4" fill="none" stroke="#000000" stroke-width="0.5706369852737695"/>
	<path d="M 229.5,364.5 L 229.50000000000003,365.07" fill="none" stroke="#000000" stroke-width="0.5706369852737695"/>
</svg>
