<?xml version="1.0" ?>
<svg xmlns="http://www.w3.org/2000/svg" xmlns:ev="http://www.w3.org/2001/xml-events" xmlns:xlink="http://www.w3.org/1999/xlink" baseProfile="full" data-name="Layer 1" height="792" id="a" version="1.1" viewBox="0 0 612 792" width="612">
	<defs/>
	<path d="M 101.5,154.5 L 101.5,449.5 L 106.5,154.5 L 106.5,449.5 L 111.5,154.5 L 111.5,449.5 L 116.5,154.5 L 116.5,449.5 L 121.5,154.5 L 121.5,449.5 L 126.5,154.5 L 126.5,449.5 L 131.5,154.5 L 131.5,449.5 L 136.5,154.5 L 136.5,449.5 L 141.5,154.5 L 141.5,449.5 L 146.5,154.5 L 146.5,449.5 L 151.5,154.5 L 151.5,449.5 L 156.5,154.5 L 156.5,449.5 L 161.5,154.5 L 161.5,449.5 L 166.5,154.5 L 166.5,449.5 L 171.5,154.5 L 171.5,449.5 L 176.5,154.5 L 176.5,449.5 L 181.5,154.5 L 181.5,449.5 L 186.5,154.5 L 186.5,449.5 L 191.5,154.5 L 191.5,449.5 L 196.5,154.5 L 196.5,449.5 L 201.5,154.5 L 201.5,449.5 L 206.5,154.5 L 206.5,449.5 L 211.5,154.5 L 211.5,449.5 L 216.5,154.5 L 216.5,449.5 L 221.5,154.5 L 221.5,449.5 L 226.5,154.5 L 226.5,449.5 L 231.5,154.5 L 231.5,449.5 L 236.5,154.5 L 236.5,449.5 L 241.5,154.5 L 241.5,449.5 L 246.5,154.5 L 246.49999999999997,449.5 L 251.5,154.5 L 251.5,449.5 L 256.5,154.5 L 256.5,449.5 L 261.5,154.5 L 261.5,449.5 L 266.5,154.5 L 266.5,449.5 L 271.5,154.5 L 271.5,449.5 L 276.5,154.5 L 276.5,449.5 L 281.5,154.5 L 281.5,449.5 L 286.5,154.5 L 286.5,449.5 L 291.5,154.5 L 291.5,449.5 L 296.5,154.5 L 296.5,449.5 L 301.5,154.5 L 301.5,449.5 L 306.5,154.5 L 306.5,449.5 L 311.5,154.5 L 311.5,449.5 L 316.5,154.5 L 316.5,449.5 L 321.5,154.5 L 321.5,449.5 L 326.5,154.5 L 326.5,449.5 L 331.5,154.5 L 331.5,449.5 L 336.5,154.5 L 336.5,449.5 L 341.5,154.5 L 341.5,449.5 L 346.5,154.5 L 346.5,449.5 L 351.5,154.5 L 351.5,449.5 L 356.5,154.5 L 356.5,449.5 L 361.5,154.5 L 361.5,449.5 L 366.5,154.5 L 366.5,449.5 L 371.5,154.5 L 371.5,449.5 L 376.5,154.5 L 376.5,449.5 L 381.5,154.5 L 381.5,449.5 L 386.5,154.5 L 386.5,449.5 L 391.5,154.5 L 391.5,449.5 L 396.5,154.5 L 396.5,449.5 L 401.5,154.5 L 401.5,449.5 L 406.5,154.5 L 406.5,449.5 L 411.5,154.5 L 411.5,449.5 L 416.5,154.5 L 416.5,449.5 L 421.5,154.5 L 421.5,449.5 L 426.5,154.5 L 426.5,449.5 L 431.5,154.5 L 431.5,449.5 L 436.5,154.5 L 436.5,449.5 L 441.5,154.5 L 441.5,449.5 L 446.5,154.5 L 446.5,449.5 L 451.5,154.5 L 451.5,449.5 L 456.5,154.5 L 456.5,449.5 L 461.5,154.5 L 461.5,449.5 L 466.5,154.5 L 466.5,449.5 L 471.5,154.5 L 471.5,449.5 L 476.5,154.5 L 476.5,449.5 L 481.5,154.5 L 481.5,449.5 L 486.5,154.5 L 486.5,449.5 L 491.5,154.5 L 491.5,449.5 L 496.5,154.5 L 496.5,449.5" fill="none" stroke="#000000" stroke-width="0.395"/>
</svg>
