<?xml version="1.0" ?>
<svg xmlns="http://www.w3.org/2000/svg" xmlns:ev="http://www.w3.org/2001/xml-events" xmlns:xlink="http://www.w3.org/1999/xlink" baseProfile="full" data-name="Layer 1" height="792" id="a" version="1.1" viewBox="0 0 612 792" width="612">
	<defs/>
	<path d="M 71.83618686723811,161.05350887623916 L 71.83618686723807,189.83813287085323 L 76.83618686723813,158.7753240569974 L 76.83618686723811,193.00279389780033 L 81.83618686723813,159.12893277298662 L 81.83618686723811,193.4761908521397 L 86.83618686723811,160.45740732988256 L 86.8361868672381,192.89810965247128 L 91.83618686723811,162.01571947416133 L 91.83618686723811,192.04529916661048 L 96.83618686723811,163.46927354487607 L 96.8361868672381,191.25096012194552 L 101.83618686723811,164.66815463622095 L 101.83618686723808,190.65272903477657 L 106.83618686723824,165.54870663289898 L 106.8361868672381,190.30278804802973 L 111.83618686723824,166.08471883774428 L 111.8361868672381,190.21523164719568 L 116.83618686723821,166.24875887209222 L 116.8361868672381,190.38702666590038 L 121.83618686723818,166.0236667315117 L 121.83618686723811,190.81236540692848 L 126.83618686723815,165.41360386959352 L 126.83618686723811,191.55071418627892 L 131.83618686723813,164.45303806357344 L 131.8361868672381,192.72852504723147 L 136.83618686723813,163.21043746168755 L 136.83618686723813,194.41655454137975 L 141.8361868672381,161.78200226854122 L 141.83618686723813,196.30546303832975 L 146.8361868672381,160.27568922967777 L 146.8361868672381,197.82001345229176 L 151.8361868672381,158.7922611347448 L 151.83618686723815,198.80364306919057 L 156.83618686723815,157.41171496936695 L 156.83618686723815,199.37729434269772 L 161.83618686723815,156.19634752342446 L 161.8361868672381,199.6598539516098 L 166.83618686723813,155.2128061676891 L 166.8361868672381,199.68456281983654 L 171.83618686723815,154.51309981086354 L 171.8361868672381,199.44710737650638 L 176.83618686723815,154.0916712302003 L 176.8361868672381,198.95463705110714 L 181.83618686723813,153.88341823387552 L 181.8361868672381,198.2418408611506 L 186.8361868672381,153.8062766883401 L 186.8361868672381,197.40328244239123 L 191.83618686723815,153.79579144875552 L 191.83618686723807,196.66609900304928 L 196.83618686723813,153.81150176448992 L 196.83618686723807,196.55407664359151 L 201.8361868672381,153.8305873009831 L 201.83618686723804,198.2159252911626 L 206.8361868672381,153.8408838919835 L 206.83618686723807,205.74321157977334 L 211.8361868672381,153.83622191977418 L 211.8361868672381,296.44455352116216 L 216.8361868672381,153.81372753621514 L 216.8361868672381,297.645669835747 L 221.8361868672381,153.77232692954007 L 221.8361868672381,302.83888673297054 L 226.8361868672381,153.7119230430962 L 226.8361868672381,388.2466300152206 L 231.8361868672381,153.63293945039564 L 231.8361868672381,388.0595441329527 L 236.8361868672381,153.53606522165117 L 236.83618686723807,387.567422260972 L 241.83618686723793,153.42211853410953 L 241.836186867238,236.5054266446814 L 246.8361868672379,153.29158472232373 L 246.83618686723793,223.43423544425343 L 251.83618686723793,153.14465483194462 L 251.8361868672381,217.8933594228923 L 256.8361868672379,152.9815278291123 L 256.8361868672381,214.59292153270343 L 261.836186867238,152.80241002356476 L 261.83618686723815,212.5275085182426 L 266.836186867238,152.60751690518265 L 266.83618686723815,211.22964300114825 L 271.836186867238,152.3970753586938 L 271.8361868672382,210.42851197449187 L 276.836186867238,152.17132635607774 L 276.8361868672382,209.94234169215028 L 281.83618686723804,151.9305282577171 L 281.83618686723827,209.6332430087093 L 286.836186867238,151.6749608967824 L 286.8361868672381,209.3879597440227 L 291.83618686723804,151.40493068205672 L 291.8361868672381,209.2114114056531 L 296.83618686723804,151.12077704055886 L 296.8361868672381,209.22390419415814 L 301.83618686723804,150.82288064558955 L 301.8361868672381,209.55990568190828 L 306.83618686723804,150.51167405834454 L 306.83618686723804,210.3959530605756 L 311.8361868672381,150.18765568477767 L 311.83618686723804,212.01199180401562 L 316.8361868672381,149.8514083686506 L 316.836186867238,214.95835268359556 L 321.8361868672381,149.50362460072208 L 321.8361868672381,220.84316163468546 L 326.8361868672381,149.1451413899291 L 326.83618686723804,376.18268504170226 L 331.8361868672381,148.77698962352898 L 331.83618686723804,375.4416338633104 L 336.8361868672381,148.40046583342604 L 336.83618686723804,374.7141592294973 L 341.8361868672381,148.01723988793236 L 341.8361868672381,283.8334869078102 L 346.8361868672381,147.62952282471826 L 346.83618686723804,268.3057348412004 L 351.83618686723844,147.2378232483709 L 351.8361868672381,258.84907143268396 L 356.83618686723844,146.8359769454179 L 356.8361868672381,251.74344640094716 L 361.83618686723844,146.42569341403117 L 361.83618686723804,246.15045965845732 L 366.83618686723844,146.0102043076409 L 366.8361868672381,241.7085702100367 L 371.8361868672384,145.59368616060397 L 371.8361868672381,238.18212691036783 L 376.8361868672384,145.18152349309523 L 376.8361868672381,235.38588278902077 L 381.8361868672383,144.7806482767757 L 381.8361868672381,233.17287341521978 L 386.8361868672383,144.3999767448617 L 386.83618686723815,231.42521718960737 L 391.8361868672383,144.050967726034 L 391.83618686723815,230.0475410753954 L 396.8361868672383,143.74832718543854 L 396.83618686723815,228.96208350934518 L 401.83618686723827,143.51087717439066 L 401.8361868672382,228.10500155767275 L 406.8361868672382,143.3625857304506 L 406.8361868672382,227.4235541653769 L 411.8361868672382,143.3337032946529 L 411.8361868672382,226.87393070754257 L 416.83618686723815,143.4618500015848 L 416.83618686723827,226.41956040851974 L 421.83618686723815,143.79272448016783 L 421.83618686723827,226.02978402138484 L 426.83618686723815,144.37985782532786 L 426.8361868672383,225.67880121264614 L 431.83618686723815,145.28259123160043 L 431.8361868672381,225.35488015182597 L 436.8361868672381,146.56143853583828 L 436.8361868672381,225.11437514219475 L 441.8361868672381,148.27057807542232 L 441.8361868672381,224.96923391765856 L 446.8361868672381,150.44862641647777 L 446.8361868672381,224.91909261470707 L 451.8361868672381,153.11055395325926 L 451.8361868672381,224.96335618662593 L 456.8361868672379,156.33120853052253 L 456.8361868672381,225.10112147825538 L 461.83618686723804,160.15636914984174 L 461.8361868672381,225.33107048634866 L 466.83618686723804,164.37641864683212 L 466.8361868672381,225.651319406299 L 471.8361868672381,168.8062854714645 L 471.8361868672381,226.0592003601903 L 476.8361868672381,173.332462985695 L 476.8361868672381,226.5509374280108 L 481.8361868672381,177.8937192546439 L 481.83618686723815,227.1211505954499 L 486.836186867238,182.46362003415766 L 486.8361868672381,227.7620670972934 L 491.83618686723804,187.0520333102536 L 491.83618686723815,228.46220815177438 L 496.8361868672381,191.68479178081904 L 496.83618686723815,229.2040707905619 L 501.83618686723804,196.39749446736278 L 501.83618686723815,229.95971363717433 L 506.83618686723804,201.24383943369457 L 506.8361868672382,230.68144111240198 L 511.8361868672381,206.31586385563585 L 511.8361868672382,231.27899117654277 L 516.8361868672381,211.8055126930871 L 516.8361868672383,231.54855893490557 L 521.8361868672381,218.31244825798962 L 521.8361868672383,230.81248055557379" fill="none" stroke="#000000" stroke-width="0.45000000000000023"/>
	<path d="M 76.8361868672381,256.51620195024424 L 76.83618686723811,274.1854468560798 L 81.8361868672381,255.84737696821324 L 81.83618686723811,281.1600580466277 L 86.83618686723811,256.7597385105191 L 86.83618686723811,285.4569846413965 L 91.83618686723811,258.14095762670485 L 91.83618686723811,288.563616850925 L 96.83618686723808,259.59457158999453 L 96.83618686723811,290.9523812067704 L 101.8361868672381,260.85166788908776 L 101.83618686723811,292.8474842911196 L 106.83618686723808,261.8748188719962 L 106.83618686723811,294.37788801056274 L 111.8361868672381,262.7264814433079 L 111.8361868672381,295.62862987726834 L 116.83618686723811,263.4647918794604 L 116.83618686723811,296.6653326569893 L 121.83618686723811,264.1451254472355 L 121.83618686723811,297.5570392259733 L 126.8361868672381,264.8214637473863 L 126.83618686723811,298.30073501439216 L 131.8361868672381,265.5476680638929 L 131.8361868672381,298.8610303429079 L 136.8361868672381,266.3787442949867 L 136.8361868672381,299.2560228972836 L 141.8361868672382,267.3007868076556 L 141.8361868672381,299.50336142051015 L 146.83618686723815,268.21730910079924 L 146.8361868672381,299.6201813221432 L 151.83618686723815,269.1169251411989 L 151.8361868672381,299.62305021385623 L 156.83618686723815,269.98683142123696 L 156.8361868672381,299.5279231631462 L 161.8361868672381,270.81027440511053 L 161.83618686723807,299.3501072862921 L 166.83618686723815,271.56492482811683 L 166.83618686723807,299.1042351643771 L 171.83618686723813,272.220334085969 L 171.83618686723804,298.8042464619054 L 176.83618686723813,272.7337681161697 L 176.83618686723804,298.46337705444205 L 181.83618686723813,273.0429819693348 L 181.83618686723804,298.094154926981 L 186.83618686723813,273.0527288697724 L 186.83618686723804,297.7084020849813 L 191.8361868672381,272.6069433593585 L 191.8361868672381,297.3129035642098 L 196.8361868672381,271.4226496749991 L 196.8361868672381,296.89908272383775 L 201.8361868672381,268.8935221374952 L 201.8361868672381,296.51869306369684 L 206.83618686723813,262.41954663366636 L 206.8361868672381,296.2853923061782" fill="none" stroke="#000000" stroke-width="0.45000000000000023"/>
	<path d="M 116.83618686723811,358.08145628058463 L 116.83618686723811,372.65952772205713 L 121.83618686723811,353.01016282327254 L 121.8361868672381,374.96303060898646 L 126.83618686723811,349.72370621886495 L 126.83618686723813,376.51554489212606 L 131.8361868672381,347.717338917499 L 131.8361868672381,377.7538762812457 L 136.83618686723813,346.9799585200644 L 136.8361868672381,378.8109029607621 L 141.83618686723813,347.46029967497856 L 141.8361868672381,379.74723163646036 L 146.8361868672381,348.8876245247598 L 146.8361868672381,380.596263441223 L 151.8361868672381,350.80555308365956 L 151.8361868672381,381.378616850881 L 156.8361868672381,352.72872718990186 L 156.83618686723804,382.10802969934446 L 161.8361868672381,354.2941977791691 L 161.8361868672381,382.79417458370466 L 166.8361868672381,355.30527612728423 L 166.83618686723807,383.4441527379706 L 171.8361868672381,355.69384456928424 L 171.8361868672382,384.06335167698074 L 176.83618686723835,355.4661064345754 L 176.8361868672381,384.65606906055996 L 181.83618686723833,354.6469154008459 L 181.8361868672381,385.2239182248045 L 186.83618686723827,353.213747915804 L 186.8361868672381,385.7637793641271 L 191.83618686723824,351.1255853941 L 191.8361868672381,386.2717553562472 L 196.8361868672382,348.32850131319304 L 196.8361868672381,386.7429829477318 L 201.83618686723818,344.7472427135073 L 201.8361868672381,387.1712685334687 L 206.83618686723815,340.2661628321994 L 206.8361868672381,387.54852953841237 L 211.83618686723813,334.6704513556181 L 211.8361868672381,387.8638998145138 L 216.83618686723798,327.1397573829162 L 216.8361868672381,388.1022192651363 L 221.83618686723807,314.8314583987098 L 221.8361868672381,388.24130992849655" fill="none" stroke="#000000" stroke-width="0.45000000000000023"/>
	<path d="M 241.83618686723807,247.40471676488653 L 241.8361868672381,386.5122855209918 L 246.83618686723787,261.0253182341392 L 246.8361868672381,384.31058812721903 L 251.83618686723798,266.41085244652305 L 251.8361868672381,381.08674173319986 L 256.83618686723804,269.3586045201124 L 256.8361868672381,376.9794031970458 L 261.8361868672381,272.0704693532672 L 261.8361868672381,371.74424150667784 L 266.8361868672381,275.86946868313606 L 266.8361868672381,364.9778550564125 L 271.8361868672383,281.5945061286572 L 271.8361868672381,355.8985046402472 L 276.83618686723827,291.1651029284624 L 276.83618686723815,342.3577633525944" fill="none" stroke="#000000" stroke-width="0.45000000000000023"/>
	<path d="M 296.8361868672381,349.4327940487304 L 296.8361868672381,376.5916625647043 L 301.8361868672381,325.456919704655 L 301.8361868672381,378.0884202279317 L 306.83618686723827,302.57220154780146 L 306.8361868672381,378.355873271174 L 311.83618686723815,287.23870874395425 L 311.8361868672381,378.09518283262406 L 316.8361868672381,274.6821693713168 L 316.83618686723804,377.56911099717144 L 321.8361868672379,255.67738741035052 L 321.83618686723804,376.90708834190326" fill="none" stroke="#000000" stroke-width="0.45000000000000023"/>
	<path d="M 341.8361868672381,304.90383829562063 L 341.836186867238,374.0211420731824 L 346.8361868672383,314.90423813936985 L 346.836186867238,373.37749671001984 L 351.83618686723827,318.95847026905005 L 351.836186867238,372.7941519340817 L 356.8361868672382,320.7756883436982 L 356.836186867238,372.2792773075135 L 361.83618686723815,321.59901404058246 L 361.8361868672379,371.83907569595203 L 366.83618686723815,322.05722467266224 L 366.8361868672381,371.47829622721025 L 371.8361868672381,322.4795709933837 L 371.8361868672381,371.20001825941625 L 376.8361868672381,323.0426886940364 L 376.8361868672381,371.00577336893207 L 381.8361868672381,323.8418409315685 L 381.8361868672381,370.89626372424857 L 386.8361868672381,324.9271875295627 L 386.8361868672381,370.87185125325124 L 391.8361868672381,326.32312328907307 L 391.8361868672381,370.93238547021537 L 396.8361868672381,328.0390147319193 L 396.8361868672381,371.0769396229663 L 401.8361868672385,330.07515053051566 L 401.8361868672381,371.3033946281242 L 406.8361868672384,332.426227880636 L 406.83618686723804,371.6077592996877 L 411.8361868672383,335.09011186320066 L 411.8361868672381,371.9830091588774 L 416.83618686723827,338.0746882669678 L 416.8361868672381,372.416986654612 L 421.83618686723827,341.40280731446205 L 421.83618686723804,372.88830901466184 L 426.8361868672382,345.1212996062489 L 426.83618686723804,373.3575326936361 L 431.8361868672382,349.3233773193016 L 431.836186867238,373.7450027010602 L 436.83618686723815,354.21749673812127 L 436.836186867238,373.86007842976545 L 441.8361868672381,360.4736248626139 L 441.836186867238,373.02707079327047" fill="none" stroke="#000000" stroke-width="0.45000000000000023"/>
</svg>
